<?xml version="1.0" encoding="utf-8"?>
<!-- Generator: Adobe Illustrator 16.0.0, SVG Export Plug-In . SVG Version: 6.00 Build 0)  -->
<!DOCTYPE svg PUBLIC "-//W3C//DTD SVG 1.1//EN" "http://www.w3.org/Graphics/SVG/1.1/DTD/svg11.dtd">
<svg version="1.1" id="Layer_1" xmlns="http://www.w3.org/2000/svg" xmlns:xlink="http://www.w3.org/1999/xlink" x="0px" y="0px"
	 width="64px" height="64px" viewBox="0 0 64 64" enable-background="new 0 0 64 64" xml:space="preserve">
<path d="M11.971,34.821c0,0,0.658,0.442,1.668,0.6c-0.483-0.071-1.162-0.236-1.709-0.62c0,0-0.037-0.026-0.098-0.078
	C11.876,34.756,11.922,34.79,11.971,34.821z M15.708,30.37c-0.908-0.355-1.818-0.204-1.818-0.204c-0.046,0-0.092,0.002-0.137,0.004
	c-2.17,0.538-2.17,2.017-2.17,2.017c0,1.225,0.959,1.817,0.959,1.817c0.776,0.449,1.981,0.449,1.981,0.449
	c1.634,0,4.166-2.369,4.166-2.369c0.083-0.079,0.163-0.159,0.242-0.241l-1.814-0.923C16.617,30.726,16.734,30.771,15.708,30.37z
	 M25.86,39.531c-0.358,0-0.617,0.1-0.778,0.298c-0.16,0.198-0.242,0.514-0.246,0.948v0.118c0,0.493,0.082,0.846,0.246,1.058
	c0.164,0.213,0.428,0.318,0.791,0.318c0.303,0,0.54-0.123,0.712-0.368c0.172-0.245,0.258-0.584,0.258-1.015
	c0-0.438-0.086-0.773-0.258-1.007C26.414,39.648,26.172,39.531,25.86,39.531z M28.438,41.146c-0.187,0.116-0.28,0.297-0.28,0.542
	c0,0.192,0.059,0.339,0.175,0.439s0.279,0.15,0.488,0.15c0.331,0,0.591-0.091,0.779-0.272c0.189-0.182,0.283-0.436,0.283-0.762
	v-0.317l-0.531,0.022C28.93,40.964,28.625,41.03,28.438,41.146z M60.24,15.152v33.695c0,0.803-0.65,1.454-1.454,1.454H5.214
	c-0.804,0-1.454-0.651-1.454-1.454V15.152c0-0.803,0.65-1.454,1.454-1.454h53.572C59.59,13.698,60.24,14.349,60.24,15.152z
	 M51.995,23.039h0.143v-0.878l0.307,0.878h0.123l0.286-0.858v0.858h0.143v-1.062h-0.184l-0.307,0.899l-0.306-0.899h-0.204V23.039z
	 M51.035,22.12h0.347v0.919h0.123V22.12h0.347v-0.143h-0.817V22.12z M21.802,42.652l-1.841-4.699h-0.457l-1.851,4.699h0.551
	l0.576-1.489h1.876l0.583,1.489H21.802z M22.438,37.671h-0.531v4.981h0.531V37.671z M23.637,39.144h-0.532v3.509h0.532V39.144z
	 M23.688,38.193c0-0.119-0.031-0.208-0.093-0.266c-0.062-0.058-0.135-0.086-0.221-0.086c-0.089,0-0.164,0.029-0.224,0.085
	c-0.059,0.057-0.089,0.146-0.089,0.268c0,0.119,0.03,0.209,0.089,0.267c0.06,0.059,0.135,0.088,0.224,0.088
	c0.086,0,0.159-0.03,0.221-0.088C23.657,38.402,23.688,38.313,23.688,38.193z M27.394,40.895c0-0.574-0.126-1.02-0.379-1.338
	s-0.612-0.477-1.077-0.477c-0.235,0-0.443,0.042-0.625,0.128c-0.181,0.085-0.34,0.224-0.477,0.416h-0.026l-0.074-0.48h-0.432v5.083
	h0.532v-1.443c0-0.184-0.013-0.378-0.039-0.583h0.039c0.128,0.175,0.287,0.305,0.475,0.389c0.189,0.084,0.398,0.126,0.626,0.126
	c0.456,0,0.813-0.16,1.071-0.479C27.265,41.918,27.394,41.471,27.394,40.895z M30.415,40.258c0-0.41-0.101-0.707-0.302-0.893
	c-0.202-0.186-0.512-0.278-0.93-0.278c-0.208,0-0.414,0.027-0.62,0.08c-0.206,0.053-0.395,0.126-0.568,0.221l0.164,0.407
	c0.369-0.18,0.7-0.269,0.992-0.269c0.26,0,0.45,0.065,0.568,0.197c0.119,0.131,0.178,0.334,0.178,0.61v0.217l-0.596,0.02
	c-1.133,0.033-1.699,0.405-1.699,1.113c0,0.331,0.099,0.586,0.296,0.765c0.198,0.179,0.47,0.269,0.817,0.269
	c0.261,0,0.478-0.039,0.652-0.117c0.174-0.078,0.349-0.226,0.523-0.447h0.026l0.105,0.5h0.394V40.258z M33.784,39.144h-0.57
	c-0.491,1.357-0.78,2.168-0.869,2.432c-0.088,0.264-0.146,0.45-0.174,0.558h-0.026c-0.04-0.203-0.145-0.532-0.313-0.989
	l-0.768-2.001h-0.571l1.416,3.528l-0.195,0.499c-0.156,0.41-0.417,0.615-0.781,0.615c-0.146,0-0.277-0.012-0.394-0.038v0.425
	c0.157,0.037,0.317,0.055,0.48,0.055c0.29,0,0.535-0.083,0.734-0.249c0.199-0.165,0.374-0.445,0.523-0.84L33.784,39.144z
	 M34.59,42.313c0-0.143-0.035-0.251-0.104-0.325c-0.069-0.073-0.166-0.11-0.289-0.11c-0.123,0-0.215,0.037-0.28,0.11
	c-0.065,0.074-0.098,0.182-0.098,0.325c0,0.153,0.036,0.264,0.107,0.331c0.072,0.067,0.162,0.101,0.271,0.101
	c0.122,0,0.217-0.037,0.288-0.112C34.554,42.558,34.59,42.452,34.59,42.313z M35.536,40.914c0-0.909,0.356-1.363,1.069-1.363
	c0.107,0,0.229,0.015,0.369,0.046c0.138,0.03,0.267,0.07,0.383,0.116l0.164-0.451c-0.096-0.049-0.228-0.091-0.396-0.128
	c-0.169-0.036-0.337-0.055-0.506-0.055c-0.522,0-0.925,0.161-1.208,0.48c-0.282,0.321-0.424,0.774-0.424,1.361
	c0,0.572,0.139,1.014,0.418,1.327c0.278,0.312,0.671,0.469,1.18,0.469c0.356,0,0.652-0.061,0.886-0.183v-0.471
	c-0.308,0.126-0.607,0.189-0.899,0.189c-0.342,0-0.599-0.115-0.773-0.346C35.623,41.676,35.536,41.345,35.536,40.914z
	 M40.871,40.895c0-0.557-0.145-0.998-0.434-1.325c-0.29-0.327-0.68-0.49-1.171-0.49c-0.507,0-0.905,0.16-1.19,0.479
	c-0.286,0.319-0.429,0.764-0.429,1.336c0,0.369,0.066,0.692,0.198,0.967c0.133,0.275,0.32,0.486,0.563,0.634
	s0.522,0.221,0.835,0.221c0.508,0,0.906-0.161,1.194-0.482C40.727,41.913,40.871,41.467,40.871,40.895z M46.347,40.363
	c0-0.448-0.099-0.774-0.296-0.978c-0.197-0.204-0.495-0.306-0.891-0.306c-0.254,0-0.48,0.053-0.679,0.161
	c-0.199,0.106-0.35,0.251-0.455,0.435H44c-0.168-0.397-0.527-0.596-1.076-0.596c-0.226,0-0.43,0.048-0.613,0.145
	c-0.183,0.096-0.324,0.229-0.424,0.399h-0.026l-0.086-0.48h-0.432v3.509h0.531v-1.841c0-0.455,0.078-0.781,0.232-0.981
	c0.154-0.199,0.398-0.299,0.732-0.299c0.253,0,0.44,0.07,0.56,0.21c0.119,0.14,0.179,0.349,0.179,0.629v2.283h0.532v-1.959
	c0-0.395,0.079-0.688,0.236-0.877c0.158-0.19,0.403-0.285,0.733-0.285c0.252,0,0.438,0.07,0.558,0.21
	c0.12,0.14,0.179,0.349,0.179,0.629v2.283h0.531V40.363z M53.853,31.656l-0.531,0.082c0,0-2.913,0.656-7.74,1.154v-3.809h3.37
	v-0.817h-3.37v-2.042h3.962v-0.408h0.102c0,0,0.307,0,0.49-0.49l0.184-1.348c0,0-0.021-0.98-1.062-0.98l-3.676,0.123v-1.144h-1.266
	l-0.531,0.041c0,0-0.552,0.123-0.552,0.368v0.817l-2.389,0.082v-0.449h-1.103c0,0-1.103,0.082-1.103,0.408v2.981h4.594v2.042h-3.165
	v0.817h3.165v4.023c-1.268,0.101-2.634,0.186-4.084,0.245c0,0-1.089,0.044-2.716,0.05v-7.892h1.225v-0.816h-1.225v-2.716h-1.266
	l-0.531,0.041c0,0-0.552,0.123-0.552,0.368v2.308h-4.411v0.816h4.411v7.872c-1.5-0.031-3.172-0.104-4.778-0.253v-8.64
	c0.429-0.51,0.715-1.164,0.715-1.164l0.266-0.96l0.041-0.388h-1.062l-0.531,0.041c-0.551,0.123-0.551,0.368-0.551,0.368
	c0,1.062-1.572,2.634-1.572,2.634c-0.796,0.776-1.593,1.327-1.593,1.327l0.306,0.49c0.756-0.286,1.634-0.735,1.634-0.735v6.737
	c-0.794-0.127-1.535-0.281-2.185-0.468c0,0-1.375-0.393-3.02-0.935c0.579-0.73,1.192-1.652,1.631-2.7c0,0,0.347-0.817,0.531-1.634
	l0.118-0.612h0.004v-0.021l-0.004,0.021h-3.774v-1.797h4.758v-0.797h-4.758v-1.858h-1.245l-0.531,0.041c0,0-0.551,0.123-0.551,0.368
	v1.45h-4.595v0.797h4.595v1.797h-3.308v0.796h7.004c0,0-0.204,0.796-0.714,1.797c0,0-0.401,0.783-1.077,1.688
	c-0.287-0.105-0.57-0.212-0.843-0.32c0,0-2.981-1.307-4.819-1.368c0,0-1.511-0.082-2.757,0.796c0,0-1.307,0.919-1.348,2.287
	c0,0,0,1.593,1.266,2.491c0,0,1.165,0.837,3.043,0.837h0.184l-0.306-0.021c0,0-0.079,0-0.21-0.009
	c0.114,0.007,0.232,0.011,0.353,0.009l0.327,0.021c0,0,2.777-0.143,5.35-2.287c0,0,0.214-0.178,0.542-0.503
	c0.521,0.265,2.488,1.241,4.379,1.872c0,0,7.678,2.552,24.852,0.878c0,0,0.612-0.073,0.919-0.184
	c0.307-0.111,0.478-0.199,0.811-0.572c0,0,0.355-0.348,1.538-1.715C53.118,32.983,54.221,31.983,53.853,31.656z M30.043,28.266
	l0.755,0.878l0.878,0.776c0,0,0.246,0.246,0.49,0l0.858-0.776l0.755-0.878c0,0,0.266-0.225,0-0.511l-0.755-0.857l-0.858-0.755
	c0,0-0.245-0.245-0.49,0l-0.857,0.755l-0.776,0.857C30.043,27.755,29.818,28.042,30.043,28.266z M49.646,30.574l-0.592-0.654
	l-0.654-0.571c0,0-0.184-0.184-0.388,0l-0.654,0.571l-0.572,0.654c0,0-0.164,0.204,0,0.388l0.572,0.654l0.654,0.572
	c0,0,0.204,0.204,0.388,0l0.654-0.572l0.592-0.654C49.646,30.961,49.79,30.778,49.646,30.574z M19.724,38.549
	c-0.046,0.204-0.114,0.43-0.201,0.675l-0.551,1.45h1.514l-0.543-1.45C19.872,39.04,19.799,38.815,19.724,38.549z M39.251,39.531
	c-0.348,0-0.61,0.115-0.787,0.343c-0.177,0.229-0.266,0.569-0.266,1.021c0,0.448,0.09,0.79,0.269,1.025
	c0.179,0.234,0.443,0.352,0.791,0.352c0.348,0,0.611-0.116,0.792-0.35c0.18-0.234,0.271-0.576,0.271-1.026
	c0-0.446-0.09-0.785-0.271-1.016C39.869,39.647,39.604,39.531,39.251,39.531z M48.299,24.182c-0.021-0.347-0.347-0.327-0.347-0.327
	l-2.369,0.082l-2.348,0.102v-0.02l-2.389,0.061v1.348h7.291L48.299,24.182z"/>
</svg>
