<?xml version="1.0" encoding="utf-8"?>
<!-- Generator: Adobe Illustrator 16.0.0, SVG Export Plug-In . SVG Version: 6.00 Build 0)  -->
<!DOCTYPE svg PUBLIC "-//W3C//DTD SVG 1.1//EN" "http://www.w3.org/Graphics/SVG/1.1/DTD/svg11.dtd">
<svg version="1.1" id="Layer_1" xmlns="http://www.w3.org/2000/svg" xmlns:xlink="http://www.w3.org/1999/xlink" x="0px" y="0px"
	 width="64px" height="64px" viewBox="0 0 64 64" enable-background="new 0 0 64 64" xml:space="preserve">
<path d="M58.786,13.698H5.214c-0.804,0-1.454,0.651-1.454,1.454v33.695c0,0.803,0.65,1.454,1.454,1.454h53.572
	c0.804,0,1.454-0.651,1.454-1.454V15.152C60.24,14.349,59.59,13.698,58.786,13.698z M31.71,27.366
	c-0.157-0.241-0.463-0.34-0.731-0.34c-0.498,0-0.942,0.255-1.05,0.784c-0.022,0.118-0.109,0.233-0.228,0.239l-1.266-0.136
	c-0.107-0.024-0.226-0.11-0.194-0.274c0.29-1.536,1.679-1.999,2.921-1.999c0.635,0,1.466,0.168,1.967,0.65
	c0.635,0.594,0.576,1.386,0.576,2.247v2.036c0,0.612,0.252,0.88,0.491,1.211c0.083,0.118,0.101,0.259-0.006,0.347
	c-0.265,0.222-0.74,0.636-1.001,0.867l-0.001-0.003c-0.087,0.077-0.212,0.083-0.31,0.031c-0.434-0.36-0.513-0.527-0.749-0.871
	c-0.716,0.731-1.227,0.95-2.154,0.95c-1.1,0-1.953-0.678-1.953-2.036c0-1.06,0.572-1.782,1.392-2.135
	c0.709-0.312,1.699-0.367,2.456-0.454v-0.168C31.87,28.002,31.895,27.634,31.71,27.366z M18.092,26.087
	c0-0.134,0.113-0.241,0.252-0.241h1.218c0.127,0.005,0.229,0.103,0.237,0.224v0.876h0.022c0.319-0.847,0.916-1.242,1.721-1.242
	c0.817,0,1.329,0.396,1.695,1.242c0.317-0.847,1.035-1.242,1.806-1.242c0.546,0,1.145,0.226,1.511,0.733
	c0.413,0.564,0.329,1.383,0.329,2.102l-0.002,4.23c0,0.134-0.112,0.243-0.251,0.243h-1.305c-0.13-0.009-0.235-0.114-0.235-0.243
	v-3.553c0-0.283,0.025-0.988-0.037-1.257c-0.097-0.45-0.389-0.577-0.768-0.577c-0.316,0-0.647,0.211-0.781,0.549
	c-0.133,0.338-0.121,0.904-0.121,1.285v3.553c0,0.134-0.111,0.243-0.252,0.243h-1.304c-0.132-0.009-0.236-0.114-0.236-0.243v-3.553
	c0-0.748,0.121-1.848-0.807-1.848c-0.938,0-0.9,1.073-0.9,1.848v3.553c0,0.134-0.112,0.243-0.251,0.243h-1.307
	c-0.125-0.009-0.226-0.103-0.234-0.222V26.087z M16.064,32.995c-0.087,0.077-0.211,0.083-0.309,0.031
	c-0.434-0.36-0.512-0.527-0.749-0.871c-0.717,0.731-1.225,0.95-2.154,0.95c-1.099,0-1.955-0.678-1.955-2.036
	c0-1.06,0.576-1.782,1.393-2.135c0.71-0.312,1.7-0.367,2.456-0.454v-0.168c0-0.311,0.024-0.678-0.157-0.946
	c-0.16-0.241-0.465-0.34-0.732-0.34c-0.498,0-0.943,0.255-1.051,0.784c-0.022,0.118-0.109,0.233-0.226,0.239l-1.27-0.136
	c-0.104-0.024-0.225-0.11-0.194-0.274c0.293-1.536,1.679-1.999,2.921-1.999c0.637,0,1.467,0.168,1.969,0.65
	c0.635,0.594,0.574,1.386,0.574,2.247v2.036c0,0.612,0.253,0.88,0.492,1.211c0.085,0.118,0.103,0.259-0.003,0.347
	c-0.268,0.222-0.741,0.636-1.001,0.867L16.064,32.995z M37.08,35.587c-2.452,1.808-6.006,2.772-9.068,2.772
	c-4.291,0-8.153-1.587-11.076-4.227c-0.229-0.208-0.024-0.491,0.251-0.329c3.153,1.835,7.055,2.939,11.082,2.939
	c2.719,0,5.707-0.563,8.456-1.729C37.14,34.838,37.486,35.286,37.08,35.587z M37.761,37.361c-0.203,0.169-0.396,0.079-0.306-0.145
	c0.297-0.739,0.959-2.394,0.646-2.796c-0.313-0.4-2.073-0.189-2.862-0.096c-0.241,0.029-0.277-0.18-0.061-0.331
	c1.401-0.986,3.701-0.702,3.969-0.371C39.415,33.956,39.077,36.261,37.761,37.361z M40.206,32.593c0,0.14-0.154,0.303-0.317,0.219
	c-1.32-0.693-3.073-0.768-4.534,0.007c-0.149,0.081-0.306-0.081-0.306-0.22v-0.972c0-0.156,0.002-0.422,0.158-0.659l2.578-3.696
	h-2.243c-0.139,0-0.248-0.098-0.248-0.241v-0.959c0-0.145,0.109-0.243,0.241-0.243h4.293c0.139,0,0.248,0.099,0.248,0.243v0.821
	c0,0.138-0.116,0.317-0.322,0.603l-2.226,3.176c0.827-0.021,1.699,0.103,2.449,0.525c0.17,0.096,0.215,0.235,0.229,0.373V32.593z
	 M43.772,33.153c-1.903,0-2.938-1.665-2.938-3.739c0-2.086,1.05-3.709,2.938-3.709c1.939,0,2.988,1.665,2.988,3.781
	C46.761,31.531,45.601,33.153,43.772,33.153z M53.103,32.802c-0.016,0.117-0.123,0.211-0.253,0.211h-1.31
	c-0.118-0.009-0.219-0.097-0.231-0.211v-3.641c0-0.733,0.086-1.806-0.816-1.806c-0.319,0-0.61,0.213-0.755,0.536
	c-0.186,0.41-0.208,0.817-0.208,1.27v3.609c-0.003,0.134-0.116,0.243-0.257,0.243h-1.299c-0.132-0.009-0.236-0.114-0.236-0.243
	l-0.001-6.705c0.01-0.123,0.119-0.219,0.251-0.219h1.211c0.114,0.005,0.208,0.083,0.234,0.188v1.025h0.022
	c0.365-0.917,0.879-1.354,1.781-1.354c0.584,0,1.157,0.211,1.524,0.79c0.342,0.537,0.342,1.438,0.342,2.087V32.802z M31.87,29.528
	v0.283c0,0.509,0.014,0.933-0.245,1.385c-0.206,0.368-0.537,0.593-0.901,0.593c-0.503,0-0.797-0.382-0.797-0.946
	C29.927,29.73,30.925,29.528,31.87,29.528z M44.638,27.723c0.172,0.536,0.196,1.212,0.196,1.778c0,0.86-0.049,2.271-1.062,2.271
	c-1.025,0-1.012-1.749-1.012-2.568c0-0.817,0.062-2.129,1.023-2.129C44.199,27.074,44.492,27.255,44.638,27.723z M14.746,29.528
	v0.283c0,0.509,0.014,0.933-0.244,1.385c-0.207,0.368-0.536,0.593-0.904,0.593c-0.501,0-0.792-0.382-0.792-0.946
	C12.806,29.73,13.803,29.528,14.746,29.528z"/>
</svg>
