<?xml version="1.0" encoding="utf-8"?>
<!-- Generator: Adobe Illustrator 16.0.0, SVG Export Plug-In . SVG Version: 6.00 Build 0)  -->
<!DOCTYPE svg PUBLIC "-//W3C//DTD SVG 1.1//EN" "http://www.w3.org/Graphics/SVG/1.1/DTD/svg11.dtd">
<svg version="1.1" id="Layer_1" xmlns="http://www.w3.org/2000/svg" xmlns:xlink="http://www.w3.org/1999/xlink" x="0px" y="0px"
	 width="64px" height="64px" viewBox="0 0 64 64" enable-background="new 0 0 64 64" xml:space="preserve">
<path d="M35.178,25.979c0.708-0.202,1.415-0.202,1.771-0.202v2.781c0,0.303-0.912,0.658-1.771,0.708h-0.303
	c-0.963,0-1.468-0.758-1.468-1.516C33.407,26.636,34.268,26.181,35.178,25.979z M26.123,33.87c-0.1,0-0.139,0-0.253,0.019
	c-1.214,0.052-1.974,0.74-1.974,1.295v5.109c0.559,0.303,1.114,0.558,1.923,0.607h0.204c1.566,0,1.72-1.819,1.72-3.642
	C27.743,35.691,27.642,33.87,26.123,33.87z M16.498,27.75c0,0.758,0.505,1.516,1.468,1.516h0.303c0.859-0.05,1.77-0.406,1.77-0.708
	v-2.781c-0.353,0-1.062,0-1.77,0.202C17.358,26.181,16.498,26.636,16.498,27.75z M47.678,33.563c0-0.042-0.008-0.077-0.021-0.108
	c-0.013-0.031-0.038-0.057-0.07-0.08c-0.028-0.018-0.062-0.031-0.096-0.037c-0.036-0.006-0.082-0.01-0.137-0.01h-0.198v0.529h0.168
	c0.055,0,0.105-0.006,0.154-0.017c0.047-0.011,0.086-0.029,0.116-0.054c0.029-0.027,0.05-0.057,0.064-0.091
	C47.67,33.661,47.678,33.617,47.678,33.563z M31.527,39.461c0,0.758,0.506,1.517,1.468,1.517h0.304
	c0.86-0.052,1.771-0.406,1.771-0.709v-2.781c-0.354,0-1.062,0-1.771,0.203C32.388,37.891,31.527,38.348,31.527,39.461z
	 M48.294,33.017c0.249,0.251,0.375,0.554,0.375,0.911c0,0.356-0.126,0.661-0.375,0.912c-0.25,0.252-0.553,0.376-0.906,0.376
	s-0.656-0.124-0.906-0.376c-0.249-0.251-0.375-0.556-0.375-0.912c0-0.357,0.126-0.66,0.375-0.911
	c0.25-0.251,0.553-0.376,0.906-0.376S48.044,32.766,48.294,33.017z M48.239,34.68l-0.593-0.683c0.103-0.042,0.184-0.099,0.247-0.172
	c0.064-0.073,0.096-0.167,0.096-0.28c0-0.085-0.016-0.156-0.046-0.21c-0.031-0.055-0.081-0.102-0.148-0.141
	c-0.064-0.036-0.128-0.059-0.19-0.067c-0.062-0.007-0.147-0.012-0.255-0.012h-0.477v1.565h0.282v-0.606h0.211l0.484,0.606H48.239z
	 M60.24,15.152v33.695c0,0.803-0.65,1.454-1.454,1.454H5.214c-0.804,0-1.454-0.651-1.454-1.454V15.152
	c0-0.803,0.65-1.454,1.454-1.454h53.572C59.59,13.698,60.24,14.349,60.24,15.152z M28.654,17.936c0,0.658,0.504,1.163,1.163,1.163
	c0.606,0,1.111-0.505,1.111-1.163c0-0.607-0.505-1.113-1.111-1.113C29.158,16.822,28.654,17.328,28.654,17.936z M21.456,23.652
	c0-1.618-0.758-2.631-2.884-2.631h-0.304c-1.162,0.051-2.63,0.557-2.63,0.86c0,0.101,0,0.153,0.051,0.252l0.252,0.607
	c0.043,0.098,0.051,0.102,0.103,0.102c0.202,0,1.026-0.61,2.242-0.61c0.052,0,0.034,0.004,0.085,0.004
	c1.314,0,1.667,0.606,1.667,1.72v0.658c-0.405,0-1.062,0.051-1.77,0.151c-1.466,0.253-3.136,1.013-3.136,3.138
	c0,1.667,0.911,2.63,2.428,2.63h0.708c1.164-0.103,1.922-0.355,2.125-0.507c0.962-0.606,1.063-1.771,1.063-2.731V23.652z
	 M25.212,30.531c1.619,0,3.037-0.911,3.037-2.681c0-2.935-4.2-2.328-4.2-4.402c0-0.909,0.657-1.264,1.418-1.264
	c0.959,0,1.77,0.506,1.87,0.506c0.102,0,0.152-0.052,0.253-0.204l0.254-0.506c0-0.101,0.05-0.15,0.05-0.202
	c0-0.1-0.05-0.202-0.2-0.253c-0.508-0.252-1.569-0.557-2.227-0.557c-1.673,0-2.834,1.063-2.834,2.63
	c0,2.834,4.147,2.378,4.147,4.351c0,0.911-0.656,1.365-1.468,1.365c-1.314,0-2.275-0.658-2.426-0.658c-0.052,0-0.154,0-0.204,0.153
	l-0.253,0.607c-0.049,0.05-0.049,0.101-0.049,0.202C22.381,29.973,24.302,30.531,25.212,30.531z M29.311,37.208
	c0-2.328-0.911-4.553-2.935-4.553h-0.557c-1.113,0.101-1.871,0.506-2.276,0.759c-1.062,0.557-1.062,1.921-1.062,2.428v9.762
	c0,0.102,0,0.254,0.101,0.254c0.15-0.051,0.101,0,0.253-0.051l0.909-0.253c0.102,0,0.152-0.101,0.152-0.202v-3.846
	c0.455,0.304,1.011,0.608,1.923,0.659h0.354C28.35,42.166,29.311,39.89,29.311,37.208z M29.411,30.278h0.962
	c0.151,0,0.252-0.051,0.252-0.203v-8.549c0-0.152-0.051-0.252-0.252-0.252h-0.962c-0.152,0-0.253,0.052-0.253,0.203v8.598
	C29.158,30.227,29.259,30.278,29.411,30.278z M36.487,35.362c0-1.618-0.76-2.63-2.884-2.63h-0.305
	c-1.162,0.051-2.63,0.557-2.63,0.86c0,0.101,0,0.152,0.052,0.252l0.251,0.607c0.044,0.098,0.05,0.101,0.102,0.101
	c0.203,0,1.028-0.61,2.244-0.61c0.05,0,0.033,0.003,0.083,0.003c1.314,0,1.669,0.607,1.669,1.72v0.658
	c-0.404,0-1.062,0.051-1.771,0.151c-1.467,0.254-3.136,1.013-3.136,3.138c0,1.668,0.91,2.63,2.428,2.63h0.708
	c1.163-0.102,1.923-0.356,2.124-0.507c0.963-0.607,1.064-1.771,1.064-2.731V35.362z M38.365,27.294v-3.642
	c0-1.618-0.76-2.631-2.884-2.631h-0.304c-1.163,0.051-2.63,0.557-2.63,0.86c0,0.101,0,0.153,0.051,0.252l0.252,0.607
	c0.043,0.098,0.051,0.102,0.103,0.102c0.201,0,1.028-0.61,2.242-0.61c0.052,0,0.033,0.004,0.085,0.004
	c1.313,0,1.669,0.606,1.669,1.72v0.658c-0.406,0-1.063,0.051-1.771,0.151c-1.466,0.253-3.136,1.013-3.136,3.138
	c0,1.667,0.911,2.63,2.427,2.63h0.709c1.164-0.103,1.922-0.355,2.125-0.507C38.265,29.418,38.365,28.253,38.365,27.294z
	 M44.639,40.8l-0.052-7.74c0-0.152,0.052-0.353-0.101-0.353l-1.013-0.052c-0.152,0-0.252,0-0.252,0.101l-0.052,7.589
	c-0.504,0.455-1.111,0.606-2.022,0.606c-1.163,0.051-1.871-1.162-1.923-2.63c-0.101-1.872,0-3.542,0-5.413
	c0-0.049-0.203-0.201-0.354-0.201H37.96c0,0-0.2,0.251-0.2,0.303c0.049,1.011,0.401,7.283,0.656,7.74
	c0.102,0.15,0.303,0.456,0.505,0.707c0.203,0.204,0.456,0.355,0.759,0.557c0.656,0.406,2.73,0.254,3.542-0.455l0.051,0.86
	l-0.051,0.96c-0.052,0.962-0.052,2.529-1.518,2.58c-0.961,0-1.417-0.606-1.569-0.1c0,0.049-0.15,0.759-0.101,0.859
	c0.151,0.203,0.606,0.404,1.417,0.457c1.062,0.05,2.275-0.507,2.631-1.266C44.688,44.694,44.639,41.862,44.639,40.8z M48.867,33.928
	c0-0.408-0.145-0.756-0.434-1.044c-0.289-0.29-0.638-0.434-1.046-0.434s-0.757,0.144-1.046,0.434
	c-0.289,0.288-0.434,0.636-0.434,1.044c0,0.409,0.145,0.757,0.434,1.046c0.289,0.289,0.638,0.433,1.046,0.433
	s0.757-0.145,1.046-0.433C48.723,34.685,48.867,34.336,48.867,33.928z"/>
</svg>
