<?xml version="1.0" encoding="utf-8"?>
<!-- Generator: Adobe Illustrator 16.0.0, SVG Export Plug-In . SVG Version: 6.00 Build 0)  -->
<!DOCTYPE svg PUBLIC "-//W3C//DTD SVG 1.1//EN" "http://www.w3.org/Graphics/SVG/1.1/DTD/svg11.dtd">
<svg version="1.1" id="Layer_1" xmlns="http://www.w3.org/2000/svg" xmlns:xlink="http://www.w3.org/1999/xlink" x="0px" y="0px"
	 width="64px" height="64px" viewBox="0 0 64 64" enable-background="new 0 0 64 64" xml:space="preserve">
<path d="M32.51,43.221h-1.869v-1.542l1.891,0.038C33.178,41.714,33.479,43.261,32.51,43.221z M25.943,41.717l-1.89-0.038v1.542
	h1.869C26.891,43.261,26.59,41.714,25.943,41.717z M26.245,44.467l-2.191,0.04v1.597l2.17,0.018
	C27.046,46.145,27.1,44.479,26.245,44.467z M32.832,44.467l-2.191,0.04v1.597l2.17,0.018C33.634,46.145,33.687,44.479,32.832,44.467
	z M60.24,15.152v33.695c0,0.803-0.65,1.454-1.454,1.454H5.214c-0.804,0-1.454-0.651-1.454-1.454V15.152
	c0-0.803,0.65-1.454,1.454-1.454h53.572C59.59,13.698,60.24,14.349,60.24,15.152z M31.756,26.332c1.6,1.19,4.283,1.902,2.911,4.702
	c-0.084,0.148-0.009,0.221,0.109,0.2c0.062,0.014,0.154-0.014,0.242-0.088c1.956-2.27,5.142-5.852,2.461-8.776
	c-1.522-1.647-4.646-2.734-5.271-4.298c-0.121-0.303,0.013-0.741,0.18-1.087c0.103-0.247-0.108-0.354-0.244-0.333
	c-0.07-0.01-0.137,0.008-0.163,0.053C30.663,19.444,25.96,22.101,31.756,26.332z M29.742,32.613
	c1.058,0.632,2.426,1.422,2.276,2.579c-0.057,0.147,0.076,0.167,0.177,0.048c1.507-1.727,2.639-4.198,0.793-5.854
	c-0.964-0.935-3.245-1.439-3.493-3.038c0.056-0.218-0.191-0.239-0.224-0.152C28.594,28.041,25.167,30.163,29.742,32.613z
	 M27.082,43.844c1.58-1.177,0.642-3.362-0.58-3.33l-2.47-0.021l-0.001,0h-1.503v6.857h1.525v-0.005l2.686-0.042
	C28.438,47.298,29.192,44.435,27.082,43.844z M33.669,43.844c1.58-1.177,0.642-3.362-0.58-3.33l-2.47-0.021l-0.001,0h-1.502v6.857
	h1.525v-0.005l2.686-0.042C35.025,47.298,35.78,44.435,33.669,43.844z M35.123,37.333h2.605v-0.018l0.5-0.007l-0.51-1.434
	l-0.01,0.04H26.193l-0.01-0.04l-0.51,1.434l0.496,0.007v0.018h2.578l0.712,1.936l5.01-0.017L35.123,37.333z M40.187,43.844
	c1.58-1.177,0.642-3.362-0.58-3.33l-2.471-0.021l0,0h-1.503v6.857h1.525v-0.005l2.685-0.042
	C41.542,47.298,42.297,44.435,40.187,43.844z M39.048,41.717l-1.891-0.038v1.542h1.869C39.995,43.261,39.695,41.714,39.048,41.717z
	 M39.349,44.467l-2.191,0.04v1.597l2.169,0.018C40.151,46.145,40.204,44.479,39.349,44.467z"/>
</svg>
