<?xml version="1.0" encoding="utf-8"?>
<!-- Generator: Adobe Illustrator 16.0.0, SVG Export Plug-In . SVG Version: 6.00 Build 0)  -->
<!DOCTYPE svg PUBLIC "-//W3C//DTD SVG 1.1//EN" "http://www.w3.org/Graphics/SVG/1.1/DTD/svg11.dtd">
<svg version="1.1" id="Layer_1" xmlns="http://www.w3.org/2000/svg" xmlns:xlink="http://www.w3.org/1999/xlink" x="0px" y="0px"
	 width="64px" height="64px" viewBox="0 0 64 64" enable-background="new 0 0 64 64" xml:space="preserve">
<path fill-rule="evenodd" clip-rule="evenodd" d="M46.247,36.377c0,0.796-0.635,1.253-1.74,1.253h-1.508v-2.531h1.508
	C45.597,35.099,46.247,35.577,46.247,36.377z M36.819,38.081h-1.594v2.642h1.824c1.116,0,1.731-0.454,1.731-1.278
	C38.781,38.317,37.715,38.081,36.819,38.081z M60.24,15.152v33.695c0,0.803-0.65,1.454-1.454,1.454H5.214
	c-0.804,0-1.454-0.651-1.454-1.454V15.152c0-0.803,0.65-1.454,1.454-1.454h53.572C59.59,13.698,60.24,14.349,60.24,15.152z
	 M36.33,23.722h2.459v-2.585H36.33V23.722z M27.444,41.539c-0.001-2.111-0.001-4.222-0.001-6.333c0-0.033,0-0.066,0-0.098
	c-0.548,0-1.084,0-1.626,0c0,1.637,0,3.265,0,4.897c-0.2,0.036-0.389,0.07-0.577,0.102c-0.316,0.053-0.633,0.102-0.949,0.155
	c-0.311,0.051-0.62,0.106-0.93,0.158c-0.283,0.048-0.565,0.095-0.849,0.142c-0.253,0.042-0.505,0.084-0.757,0.126
	c-0.237,0.04-0.475,0.08-0.713,0.119c-0.313,0.052-0.627,0.104-0.939,0.156c-0.32,0.054-0.639,0.11-0.958,0.164
	c-0.313,0.053-0.627,0.105-0.94,0.159c-0.319,0.053-0.64,0.108-0.959,0.162c-0.317,0.053-0.635,0.105-0.952,0.159
	c-0.349,0.059-0.696,0.121-1.044,0.18c-0.401,0.069-0.802,0.14-1.203,0.2c-0.028,0.004-0.048,0.011-0.064,0.02V21.966
	c0.01,0.004,0.02,0.007,0.032,0.008c0.077,0.008,0.153,0.024,0.23,0.037c0.534,0.091,1.068,0.182,1.603,0.272
	c0.506,0.086,1.013,0.172,1.519,0.258c0.537,0.091,1.074,0.181,1.611,0.272c0.512,0.086,1.024,0.173,1.536,0.259
	c0.467,0.078,0.933,0.157,1.398,0.235c0.321,0.054,0.644,0.107,0.965,0.162c0.428,0.073,0.854,0.149,1.282,0.221
	c0.317,0.054,0.635,0.104,0.952,0.157c0.234,0.039,0.468,0.08,0.71,0.121c0,1.237,0,2.467,0,3.703c0.543,0,1.077,0,1.622,0
	c0-0.042,0-0.072,0-0.104c0-1.711,0-3.421,0-5.132c0-0.013,0-0.025,0-0.038c0.005-0.047-0.009-0.073-0.063-0.081
	c-0.098-0.015-0.192-0.041-0.289-0.062c-0.456-0.104-0.912-0.208-1.369-0.312c-0.663-0.152-1.326-0.305-1.989-0.456
	c-0.514-0.118-1.027-0.233-1.542-0.35c-0.691-0.157-1.383-0.313-2.073-0.471c-0.518-0.118-1.035-0.234-1.552-0.354
	c-0.645-0.147-1.288-0.298-1.932-0.446c-0.741-0.169-1.482-0.337-2.223-0.505c-0.144-0.033-0.286-0.063-0.429-0.096v0l-3.449-0.825
	L10.524,45.56l3.458-0.862v-0.002c0.016-0.001,0.028-0.002,0.041-0.006c0.551-0.124,1.101-0.248,1.65-0.373
	c0.875-0.198,1.751-0.396,2.625-0.595c0.763-0.173,1.524-0.347,2.286-0.52c0.825-0.187,1.65-0.372,2.476-0.56
	c0.778-0.177,1.557-0.357,2.335-0.536c0.653-0.15,1.307-0.301,1.961-0.447C27.436,41.643,27.444,41.606,27.444,41.539z
	 M22.992,37.907v-3.289h-3.295v3.289H22.992z M28.467,28.691H23.11v-2.768h-5.047v4.995h5.047v3.134h5.356V28.691z M31.832,34.705
	h-3.248v3.186h3.248V34.705z M31.832,27.017v4.371h4.381v-4.371H31.832v-3.295h-3.248v3.295H31.832z M39.309,39.444
	c0-1.02-0.654-1.464-1.218-1.658c0.504-0.245,0.919-0.708,0.919-1.442c0-1.555-1.294-1.755-2.421-1.755h-1.891v6.635h2.335
	C38.458,41.224,39.309,40.559,39.309,39.444z M40.957,34.589H40.43v6.635h0.527V34.589z M46.774,36.377
	c0-1.103-0.872-1.789-2.275-1.789h-2.028v6.635h0.528V38.14h1.5C45.902,38.14,46.774,37.465,46.774,36.377z M51.729,39.581
	c0-1.305-0.867-1.685-2.09-2.08c-1.343-0.436-1.652-0.705-1.652-1.439c0-0.525,0.448-1.09,1.433-1.09
	c0.819,0,1.363,0.402,1.663,1.229l0.053,0.144l0.5-0.167l-0.052-0.15c-0.351-1.01-1.12-1.566-2.164-1.566
	c-1.286,0-1.959,0.805-1.959,1.601c0,1.088,0.524,1.453,2.004,1.935c1.38,0.449,1.737,0.774,1.737,1.584
	c0,0.778-0.641,1.261-1.671,1.261c-1.053,0-1.613-0.423-1.935-1.461l-0.048-0.153l-0.502,0.167l0.045,0.146
	c0.256,0.843,0.764,1.811,2.439,1.811C50.845,41.352,51.729,40.64,51.729,39.581z M53.476,35.402c0-0.379-0.299-0.682-0.679-0.682
	c-0.382,0-0.682,0.305-0.682,0.686c0,0.379,0.298,0.682,0.681,0.682C53.175,36.088,53.476,35.783,53.476,35.402z M52.972,35.235
	c0-0.091-0.063-0.125-0.171-0.125h-0.15v0.254h0.152C52.909,35.365,52.972,35.331,52.972,35.235z M38.482,36.344
	c0-0.896-0.526-1.245-1.876-1.245h-1.381v2.471h1.594C37.319,37.57,38.482,37.451,38.482,36.344z M53.387,35.406
	c0,0.333-0.258,0.6-0.59,0.6s-0.593-0.269-0.593-0.604c0-0.333,0.259-0.6,0.592-0.6C53.127,34.803,53.387,35.071,53.387,35.406z
	 M53.089,35.766l-0.177-0.33c0.1-0.025,0.165-0.087,0.165-0.206c0-0.139-0.098-0.214-0.269-0.214h-0.264c0,0.005,0,0.75,0,0.75
	c0.007,0,0.105,0,0.105,0c0-0.007,0-0.276,0-0.317h0.156l0.169,0.317H53.089z"/>
</svg>
