<?xml version="1.0" encoding="utf-8"?>
<!-- Generator: Adobe Illustrator 16.0.0, SVG Export Plug-In . SVG Version: 6.00 Build 0)  -->
<!DOCTYPE svg PUBLIC "-//W3C//DTD SVG 1.1//EN" "http://www.w3.org/Graphics/SVG/1.1/DTD/svg11.dtd">
<svg version="1.1" id="Layer_1" xmlns="http://www.w3.org/2000/svg" xmlns:xlink="http://www.w3.org/1999/xlink" x="0px" y="0px"
	 width="64px" height="64px" viewBox="0 0 64 64" enable-background="new 0 0 64 64" xml:space="preserve">
<path fill-rule="evenodd" clip-rule="evenodd" d="M27.006,42.058c-0.04,0.214-0.104,0.434-0.205,0.625
	c-0.138,0.264-0.425,0.347-0.688,0.363c-0.475,0.029-0.949,0.008-1.426,0.008c-0.061,0-0.124,0-0.201,0c0-0.697,0-1.38,0-2.041
	c0.605,0,1.188-0.029,1.769,0.008C26.735,41.054,27.097,41.577,27.006,42.058z M30.782,44.181c0.614,0,1.204,0,1.827,0
	c-0.298-0.931-0.587-1.84-0.894-2.802C31.393,42.349,31.09,43.261,30.782,44.181z M60.24,15.152v33.695
	c0,0.803-0.65,1.454-1.454,1.454H5.214c-0.804,0-1.454-0.651-1.454-1.454V15.152c0-0.803,0.65-1.454,1.454-1.454h53.572
	C59.59,13.698,60.24,14.349,60.24,15.152z M23.069,19.69c0.951,0,1.886,0,2.83,0c0-0.93,0-1.846,0-2.782c-0.957,0-1.897,0-2.83,0
	C23.069,17.849,23.069,18.772,23.069,19.69z M23.065,38.115c5.985,0,11.952,0,17.915,0c0-7.081,0-14.141,0-21.207
	c-3.978,0-7.939,0-11.905,0c0,0.936,0,1.854,0,2.795c0.1,0,0.186-0.001,0.273,0l4.596,0.002c0.511,0,1.141,0.135,1.708,0.425
	c1.454,0.744,2.446,2.023,2.476,3.583c0.007,0.389-0.036,0.783-0.098,1.168c-0.102,0.628-0.318,1.181-0.8,1.628
	c-0.188,0.175-0.401,0.357-0.618,0.529c0.188,0.096,0.353,0.188,0.523,0.267c0.434,0.2,0.825,0.5,1.114,0.875
	c0.817,1.064,0.935,2.266,0.729,3.532c-0.113,0.693-0.409,1.341-0.845,1.913c-0.529,0.694-1.18,1.211-2.008,1.51
	c-0.888,0.321-1.818,0.403-2.742,0.417c-2.401,0.035-4.802,0.011-7.203,0.011c-0.086,0-0.169,0-0.282,0c0-4.4,0-8.768,0-13.129
	c-0.962,0-1.895,0-2.834,0C23.065,27.671,23.065,32.895,23.065,38.115z M31.89,28.579c0-0.906,0-1.843,0-2.709l1.45,0.003
	c0.675,0,1.676-0.251,1.599-2.01c0-0.746-0.64-1.444-1.271-1.444l-4.585,0.001c0,3.508,0,6.985,0,10.476
	c0.646,0,1.276,0.006,1.906-0.001c0.91-0.011,1.82-0.025,2.729-0.052c0.212-0.006,0.427-0.052,0.63-0.117
	c1.333-0.43,1.615-1.685,1.371-2.746c-0.181-0.784-0.795-1.275-1.536-1.39C34.182,28.59,31.979,28.579,31.89,28.579z M28.416,42.998
	c0.228-0.53,0.236-1.08,0.131-1.631c-0.084-0.429-0.273-0.812-0.592-1.128c-0.449-0.442-1.017-0.577-1.602-0.592
	c-1.154-0.031-2.309-0.009-3.48-0.009c0,2.5,0,4.971,0,7.441c0.535,0,1.057,0,1.602,0c0-0.9,0-1.789,0-2.694
	c0.119,0,0.215,0.002,0.307,0c0.631-0.015,1.263-0.009,1.889-0.052C27.537,44.275,28.084,43.77,28.416,42.998z M35.262,47.091
	c-0.025-0.111-0.036-0.195-0.065-0.273c-0.375-1.047-0.757-2.092-1.132-3.14c-0.459-1.289-0.91-2.58-1.373-3.867
	c-0.025-0.072-0.127-0.164-0.194-0.166c-0.513-0.013-1.028-0.011-1.54-0.002c-0.06,0.001-0.147,0.061-0.168,0.113
	c-0.465,1.27-0.921,2.543-1.384,3.814c-0.342,0.944-0.689,1.887-1.03,2.832c-0.079,0.219-0.143,0.442-0.222,0.689
	c0.545,0,1.044,0.005,1.541-0.007c0.063-0.001,0.155-0.085,0.183-0.152c0.106-0.273,0.194-0.554,0.287-0.833
	c0.189-0.574,0.189-0.574,0.776-0.574c0.703,0,1.405,0,2.092,0c0.158,0.503,0.308,0.982,0.465,1.459
	c0.017,0.045,0.084,0.101,0.129,0.102C34.164,47.093,34.699,47.091,35.262,47.091z M41.127,39.637c-0.619,0-1.172-0.001-1.726,0.004
	c-0.054,0-0.136,0.034-0.156,0.075c-0.198,0.42-0.386,0.847-0.578,1.269c-0.272,0.593-0.549,1.183-0.838,1.808
	c-0.063-0.121-0.11-0.202-0.151-0.285c-0.442-0.916-0.883-1.833-1.33-2.747c-0.024-0.053-0.097-0.117-0.146-0.117
	c-0.583-0.008-1.163-0.006-1.777-0.006c0.047,0.094,0.074,0.155,0.108,0.215c0.395,0.72,0.792,1.44,1.192,2.158
	c0.267,0.481,0.517,0.973,0.813,1.435c0.355,0.551,0.533,1.122,0.477,1.785c-0.047,0.542-0.009,1.091-0.009,1.637
	c0,0.069,0.007,0.137,0.012,0.208c0.523,0,1.032,0,1.556,0c0-0.839-0.009-1.66,0.005-2.481c0.005-0.187,0.059-0.387,0.146-0.552
	c0.332-0.632,0.687-1.252,1.032-1.876c0.314-0.563,0.628-1.125,0.938-1.69C40.838,40.213,40.969,39.944,41.127,39.637z"/>
</svg>
