<?xml version="1.0" encoding="utf-8"?>
<!-- Generator: Adobe Illustrator 16.0.0, SVG Export Plug-In . SVG Version: 6.00 Build 0)  -->
<!DOCTYPE svg PUBLIC "-//W3C//DTD SVG 1.1//EN" "http://www.w3.org/Graphics/SVG/1.1/DTD/svg11.dtd">
<svg version="1.1" id="Layer_1" xmlns="http://www.w3.org/2000/svg" xmlns:xlink="http://www.w3.org/1999/xlink" x="0px" y="0px"
	 width="64px" height="64px" viewBox="0 0 64 64" enable-background="new 0 0 64 64" xml:space="preserve">
<path fill-rule="evenodd" clip-rule="evenodd" d="M31.616,30.511c-0.59,1.491-0.224,3.13,0.935,4.182
	c0.989,0.899,2.33,1.034,3.663,0.365l0.777-0.5l0.772,1.127c-0.05,0.106-0.243,0.213-0.405,0.328
	c-0.836,0.591-1.757,0.866-2.589,0.815c-2.366,0.002-4.033-1.188-4.737-3.18c-0.669-1.892-0.062-4.255,1.397-5.432
	c1.676-1.352,4.138-1.518,5.906-0.379l0.59,0.392l-0.803,1.123c0,0-0.38-0.205-0.529-0.283c-0.57-0.298-1.138-0.563-1.81-0.571
	C33.279,28.482,32.139,29.188,31.616,30.511z M27.628,32.061c1.258-1.412,1.086-3.468-0.354-4.408
	c-1.47-0.959-3.707-0.602-4.813,0.776c-0.108,0.135-0.475,0.647-0.475,0.647l1.098,0.704c0,0,0.222-0.252,0.346-0.417
	c0.26-0.346,0.628-0.618,1.039-0.752c0.735-0.241,1.48-0.235,2.031,0.393c0.573,0.654,0.505,1.4,0.071,2.122
	c-0.253,0.421-0.58,0.775-0.96,1.093c-1.095,0.921-2.173,1.837-3.264,2.765c-0.171,0.146-1.063,0.839-1.063,0.839l-0.007,0.773
	l7.171,0l-0.006-1.26l-0.694,0.003l-3.795-0.003c0,0,0.673-0.622,0.874-0.789C25.789,33.748,26.793,32.998,27.628,32.061z
	 M60.24,15.152v33.695c0,0.803-0.65,1.454-1.454,1.454H5.214c-0.804,0-1.454-0.651-1.454-1.454V15.152
	c0-0.803,0.65-1.454,1.454-1.454h53.572C59.59,13.698,60.24,14.349,60.24,15.152z M46.261,36.145c0,0-1.135,0.43-1.551,0.525
	c-2.644,0.606-5.222-0.722-5.977-3.118c-0.811-2.575,0.411-5.168,2.885-6.137c1.455-0.57,2.87-0.322,4.501,0.342
	c-0.183-0.567-0.274-0.915-0.405-1.246c-2.296-5.782-8.367-9.845-14.975-9.19c-8.731,0.865-14.761,8.755-13.216,17.303
	c1.146,6.338,6.386,11.283,12.741,12.023c6.529,0.76,12.803-2.879,15.346-8.912C45.864,37.148,46.261,36.145,46.261,36.145z
	 M46.719,31.98c0.008-1.959-1.38-3.454-3.224-3.476c-1.987-0.023-3.445,1.441-3.433,3.448c0.012,1.919,1.511,3.504,3.342,3.533
	C45.258,35.515,46.712,33.978,46.719,31.98z"/>
</svg>
