<?xml version="1.0" encoding="utf-8"?>
<!-- Generator: Adobe Illustrator 16.0.0, SVG Export Plug-In . SVG Version: 6.00 Build 0)  -->
<!DOCTYPE svg PUBLIC "-//W3C//DTD SVG 1.1//EN" "http://www.w3.org/Graphics/SVG/1.1/DTD/svg11.dtd">
<svg version="1.1" id="Layer_1" xmlns="http://www.w3.org/2000/svg" xmlns:xlink="http://www.w3.org/1999/xlink" x="0px" y="0px"
	 width="64px" height="64px" viewBox="0 0 64 64" enable-background="new 0 0 64 64" xml:space="preserve">
<path d="M35.763,27.668H28.26c0.073-0.14,0.336-0.706,0.731-1.453h6.187C35.399,26.685,35.595,27.17,35.763,27.668z M33.342,23.335
	h-2.579c-0.347,0.469-0.673,0.967-0.967,1.454h4.6C34.077,24.28,33.724,23.795,33.342,23.335z M31.029,29.622
	c-1.627-0.215-2.088,0.585-2.524,0.982c0.031-0.321,0.177-0.628,0.129-0.948h-2.022c-0.291,1.911-0.808,3.839-1.212,5.75
	l-0.106,0.415l2.301-0.001c0.274-1.254,0.441-2.555,0.959-3.717c0.271-0.465,0.813-0.913,1.408-0.826l0.365,0.071L31.029,29.622z
	 M17.77,34.095c-0.591-0.236-1.009-0.781-1.087-1.34c-0.077-1.159,0.279-2.206,1.334-2.877c1.116-0.698,2.573-0.457,3.658,0.004
	c0.176-0.69,0.243-1.011,0.372-1.579c-1.736-0.446-3.612-0.574-5.255,0.166c-1.768,0.852-2.636,2.709-2.372,4.524
	c0.077,1.131,1.023,2.178,2.186,2.582c1.303,0.433,2.539,0.313,3.842-0.05c0.135-0.5,0.252-1.048,0.406-1.746
	C19.768,34.334,18.791,34.472,17.77,34.095z M30.579,40.582h0.028 M32.03,42.036C32.03,42.036,32.029,42.036,32.03,42.036
	l0.002-0.001c0.493-0.449,0.954-0.936,1.378-1.453h-2.803c0.43,0.525,0.885,1.029,1.388,1.484
	C32.007,42.056,32.019,42.047,32.03,42.036z M35.203,37.73h-6.407c0.235,0.504,0.51,0.985,0.802,1.453h4.815
	C34.705,38.717,34.969,38.232,35.203,37.73z M29.598,39.184h-0.03 M21.669,35.825h2.21l1.314-6.172h-2.21L21.669,35.825z
	 M50.59,35.83c0.039,0.069,0.059,0.144,0.059,0.22c0,0.075-0.02,0.148-0.058,0.218c-0.039,0.07-0.093,0.124-0.163,0.163
	c-0.068,0.038-0.142,0.058-0.218,0.058s-0.149-0.02-0.219-0.058c-0.069-0.039-0.123-0.093-0.163-0.163
	c-0.038-0.069-0.058-0.143-0.058-0.218c0-0.076,0.02-0.15,0.06-0.22c0.039-0.07,0.094-0.125,0.164-0.163
	c0.07-0.037,0.143-0.057,0.216-0.057c0.074,0,0.146,0.02,0.216,0.057C50.496,35.705,50.551,35.76,50.59,35.83z M50.575,36.05
	c0-0.063-0.016-0.124-0.049-0.183c-0.032-0.06-0.078-0.104-0.137-0.137c-0.059-0.031-0.118-0.047-0.18-0.047
	s-0.121,0.016-0.18,0.047c-0.059,0.032-0.104,0.077-0.137,0.137c-0.033,0.059-0.05,0.119-0.05,0.183s0.017,0.124,0.048,0.183
	c0.033,0.058,0.078,0.103,0.136,0.135c0.059,0.032,0.119,0.049,0.183,0.049s0.124-0.017,0.182-0.049
	c0.059-0.032,0.104-0.077,0.136-0.135C50.56,36.174,50.575,36.113,50.575,36.05z M53.461,39.685l0.058,0.093h-0.093l-0.042-0.074
	c-0.032-0.059-0.06-0.095-0.079-0.11c-0.014-0.011-0.034-0.016-0.062-0.016h-0.045v0.2h-0.076v-0.473h0.162
	c0.056,0,0.096,0.005,0.12,0.014c0.025,0.009,0.045,0.023,0.06,0.046c0.015,0.021,0.022,0.044,0.022,0.068
	c0,0.035-0.013,0.064-0.037,0.091c-0.024,0.025-0.058,0.04-0.099,0.043c0.018,0.007,0.03,0.016,0.041,0.024
	C53.411,39.609,53.434,39.641,53.461,39.685z M53.381,39.491c0.017-0.013,0.024-0.03,0.024-0.052c0-0.015-0.004-0.027-0.012-0.038
	s-0.019-0.019-0.032-0.024s-0.039-0.009-0.076-0.009h-0.087v0.144h0.093C53.335,39.512,53.365,39.505,53.381,39.491z M60.24,15.152
	v33.695c0,0.803-0.65,1.454-1.454,1.454H5.214c-0.804,0-1.454-0.651-1.454-1.454V15.152c0-0.803,0.65-1.454,1.454-1.454h53.572
	C59.59,13.698,60.24,14.349,60.24,15.152z M53.753,39.534c0-0.076-0.02-0.149-0.06-0.219c-0.039-0.071-0.093-0.125-0.163-0.163
	s-0.143-0.057-0.216-0.057c-0.074,0-0.146,0.019-0.217,0.057c-0.069,0.038-0.124,0.092-0.164,0.163
	c-0.039,0.069-0.059,0.143-0.059,0.219s0.02,0.148,0.058,0.219c0.039,0.069,0.094,0.124,0.163,0.163
	c0.069,0.038,0.143,0.058,0.219,0.058s0.148-0.02,0.218-0.058c0.069-0.039,0.124-0.094,0.162-0.163
	C53.733,39.683,53.753,39.61,53.753,39.534z M54.676,31.993c-0.002-7.496-6.08-13.571-13.576-13.569
	c-3.503,0.001-6.696,1.329-9.104,3.51c-2.408-2.178-5.6-3.506-9.1-3.506c-0.029,0-0.058,0-0.087,0
	C15.357,18.475,9.324,24.537,9.324,32c0,7.492,6.08,13.572,13.572,13.572c3.5,0,6.691-1.328,9.099-3.506
	c2.409,2.182,5.605,3.511,9.111,3.51c7.496-0.002,13.571-6.08,13.569-13.576C54.676,31.998,54.676,31.995,54.676,31.993z
	 M50.357,36.2l0.058,0.092h-0.094l-0.041-0.074c-0.033-0.059-0.06-0.095-0.08-0.11c-0.014-0.01-0.034-0.016-0.061-0.016h-0.045
	v0.201h-0.077v-0.001V35.82h0.163c0.055,0,0.095,0.004,0.12,0.013c0.024,0.01,0.044,0.024,0.06,0.046
	c0.014,0.021,0.021,0.045,0.021,0.069c0,0.034-0.012,0.064-0.037,0.09c-0.024,0.025-0.057,0.04-0.098,0.043
	c0.017,0.007,0.03,0.016,0.04,0.025C50.307,36.125,50.329,36.156,50.357,36.2z M50.276,36.007c0.017-0.014,0.024-0.03,0.024-0.053
	c0-0.014-0.004-0.026-0.012-0.037s-0.019-0.02-0.032-0.025c-0.014-0.005-0.039-0.008-0.076-0.008h-0.087v0.143h0.093
	C50.23,36.026,50.261,36.02,50.276,36.007z M41.392,29.678l-0.636,2.83c-0.162,0.908-0.724,1.687-1.672,1.687
	c-0.624,0.023-0.99-0.342-0.99-0.708c0-0.318,0.088-0.625,0.149-0.932l0.624-2.877h-2.203l-0.599,2.865
	c-0.138,0.649-0.175,0.885-0.175,1.298c0,1.203,0.711,2.123,2.021,2.123c1.186,0,1.859-0.46,2.508-1.145h0.024l-0.175,1.003h2.083
	c0.063-0.555,0.162-1.073,0.274-1.604l1.011-4.54H41.392z M33.531,30.605c0.031-0.321,0.178-0.627,0.129-0.947h-2.021
	c-0.292,1.91-0.809,3.838-1.213,5.749l-0.106,0.415h2.302c0.274-1.254,0.44-2.556,0.958-3.718c0.271-0.465,0.814-0.912,1.409-0.826
	l0.364,0.071l0.703-1.727C34.43,29.408,33.968,30.208,33.531,30.605z M44.261,31.666c0,0.793,0.524,1.339,1.715,1.749
	c0.912,0.314,1.053,0.407,1.053,0.692c0,0.391-0.401,0.567-1.292,0.567c-0.673,0-1.298-0.077-2.02-0.249l-0.309,1.448l0.1,0.014
	l0.413,0.064c0.133,0.02,0.329,0.038,0.588,0.055c0.536,0.035,0.951,0.053,1.243,0.053c2.376,0,3.474-0.663,3.474-2.095
	c0-0.861-0.459-1.366-1.587-1.747c-0.944-0.317-1.054-0.388-1.054-0.681c0-0.338,0.375-0.513,1.103-0.513
	c0.442,0,1.046,0.036,1.618,0.095l0.321-1.453c-0.584-0.068-1.468-0.123-1.982-0.123C45.125,29.544,44.253,30.508,44.261,31.666z"/>
</svg>
