<?xml version="1.0" encoding="utf-8"?>
<!-- Generator: Adobe Illustrator 16.0.0, SVG Export Plug-In . SVG Version: 6.00 Build 0)  -->
<!DOCTYPE svg PUBLIC "-//W3C//DTD SVG 1.1//EN" "http://www.w3.org/Graphics/SVG/1.1/DTD/svg11.dtd">
<svg version="1.1" id="Layer_1" xmlns="http://www.w3.org/2000/svg" xmlns:xlink="http://www.w3.org/1999/xlink" x="0px" y="0px"
	 width="64px" height="64px" viewBox="0 0 64 64" enable-background="new 0 0 64 64" xml:space="preserve">
<path d="M33.539,32.399c0,2.187-0.667,3.295-1.982,3.295c-0.852,0-1.652-0.455-2.144-1.215l-0.016-0.024v-3.94l0.021-0.028
	c0.608-0.77,1.313-1.161,2.094-1.161C32.8,29.327,33.539,30.446,33.539,32.399z M60.24,15.152v33.695
	c0,0.803-0.65,1.454-1.454,1.454H5.214c-0.804,0-1.454-0.651-1.454-1.454V15.152c0-0.803,0.65-1.454,1.454-1.454h53.572
	C59.59,13.698,60.24,14.349,60.24,15.152z M9.881,32.495c0-1.419,0.997-2.451,2.371-2.451c0.658,0,1.296,0.299,1.848,0.863
	l0.035,0.034l0.883-1.068l-0.024-0.029c-0.734-0.869-1.616-1.291-2.7-1.291c-1.087,0-2.082,0.366-2.798,1.026
	c-0.778,0.714-1.189,1.723-1.189,2.916c0,1.193,0.411,2.204,1.189,2.918c0.716,0.663,1.71,1.027,2.798,1.027
	c1.083,0,1.965-0.423,2.7-1.292l0.024-0.026l-0.883-1.068L14.1,34.087c-0.552,0.563-1.19,0.86-1.848,0.86
	C10.878,34.947,9.881,33.917,9.881,32.495z M17.471,28.677H15.91v7.618h1.561V28.677z M23.676,34.582l-0.092,0.056
	c-0.417,0.254-0.804,0.381-1.152,0.381c-0.504,0-0.732-0.266-0.732-0.858v-4.042h1.589v-1.435H21.7v-2.371l-1.53,0.819v1.552h-1.319
	v1.435h1.319v4.3c0,1.171,0.694,1.972,1.73,1.992c0.703,0.014,1.127-0.195,1.385-0.349l0.016-0.011L23.676,34.582z M26.438,28.677
	h-1.562v7.618h1.562V28.677z M27.445,27.429l-0.072-0.104c-1.428-2.023-3.801-3.23-6.215-3.23c-2.412,0-4.785,1.207-6.211,3.23
	l-0.073,0.104h1.799l0.02-0.021c1.224-1.264,2.822-1.932,4.466-1.932c1.645,0,3.242,0.668,4.469,1.932l0.02,0.021H27.445z
	 M34.416,32.383c0-2.428-0.958-3.821-2.629-3.821c-0.835,0-1.561,0.353-2.217,1.077l-0.173,0.188v-4.049
	c-0.209,0.118-0.813,0.464-0.889,0.508v10.008h0.889v-1.041l0.173,0.202c0.591,0.684,1.249,1.002,2.07,1.002
	C33.327,36.458,34.416,34.859,34.416,32.383z M41.105,30.978c0-1.626-0.84-2.416-2.568-2.416c-0.874,0-1.73,0.204-2.423,0.57
	c0.057,0.129,0.263,0.585,0.322,0.719c0.663-0.374,1.311-0.555,2.028-0.555c1.163,0,1.751,0.61,1.751,1.815v1.086l-0.146-0.081
	c-0.49-0.275-1.166-0.432-1.85-0.432c-1.362,0-2.816,0.625-2.816,2.387c0,2.155,1.633,2.387,2.335,2.387
	c0.896,0,1.648-0.354,2.304-1.077l0.173-0.191v1.104h0.891V30.978z M48.602,31.66c0-2.026-0.89-3.098-2.569-3.098
	c-0.842,0-1.562,0.379-2.021,1.065l-0.181,0.271v-1.174H42.94v7.57h0.891v-4.443c0-1.581,0.741-2.525,1.982-2.525
	c1.297,0,1.896,0.801,1.896,2.525v4.443h0.893V31.66z M55.693,36.295c-0.129-0.266-2.367-4.928-2.367-4.928s1.718-2.364,1.925-2.642
	h-0.974c-0.28,0.403-2.464,3.566-2.463,3.563l-0.487,0.757v-7.267c-0.209,0.118-0.812,0.464-0.891,0.508v10.008h0.891v-2.167
	l1.436-2.01c0,0,1.922,4.068,1.974,4.177H55.693z M38.158,32.375c-1.178,0-1.883,0.606-1.883,1.622c0,1.131,0.586,1.755,1.651,1.755
	c0.907,0,1.712-0.429,2.271-1.208l0.017-0.027v-1.66l-0.049-0.028C39.596,32.506,39.014,32.375,38.158,32.375z"/>
</svg>
