<?xml version="1.0" encoding="utf-8"?>
<!-- Generator: Adobe Illustrator 16.0.0, SVG Export Plug-In . SVG Version: 6.00 Build 0)  -->
<!DOCTYPE svg PUBLIC "-//W3C//DTD SVG 1.1//EN" "http://www.w3.org/Graphics/SVG/1.1/DTD/svg11.dtd">
<svg version="1.1" id="Layer_1" xmlns="http://www.w3.org/2000/svg" xmlns:xlink="http://www.w3.org/1999/xlink" x="0px" y="0px"
	 width="64px" height="64px" viewBox="0 0 64 64" enable-background="new 0 0 64 64" xml:space="preserve">
<path d="M58.786,13.698H5.214c-0.804,0-1.454,0.651-1.454,1.454v33.695c0,0.803,0.65,1.454,1.454,1.454h53.572
	c0.804,0,1.454-0.651,1.454-1.454V15.152C60.24,14.349,59.59,13.698,58.786,13.698z M27.905,24.403
	c0.742-0.748,1.803-0.748,1.803-0.748h5.344l-1.393-1.387c-0.742-0.741-0.742-1.789-0.742-1.789c0-1.049,0.742-1.79,0.742-1.79
	c0.742-0.742,1.79-0.742,1.79-0.742c1.048,0,1.79,0.742,1.79,0.742l5.728,5.721c0.736,0.742,0.736,1.79,0.736,1.79
	c0,1.048-0.742,1.79-0.742,1.79l-5.721,5.728c-0.742,0.735-1.79,0.735-1.79,0.735c-1.048,0-1.79-0.735-1.79-0.735
	c-0.742-0.742-0.742-1.79-0.742-1.79c0-1.048,0.742-1.79,0.742-1.79l1.393-1.393h-5.344c-1.061,0-1.803-0.742-1.803-0.742
	c-0.749-0.748-0.749-1.803-0.749-1.803C27.156,25.146,27.905,24.403,27.905,24.403z M13.473,39.819c0,0.113-0.071,0.175-0.194,0.164
	c0,0-0.44-0.062-0.817-0.062c-0.665,0-0.879,0.389-0.879,0.94v1.379c0,0.572,0.235,0.951,0.889,0.951
	c0.398,0,0.817-0.062,0.817-0.062c0.112-0.011,0.184,0.041,0.184,0.153v0.623c0,0.112-0.051,0.184-0.194,0.215
	c0,0-0.47,0.092-0.889,0.092c-1.236,0-1.931-0.675-1.931-1.941v-1.431c0-1.267,0.685-1.941,1.931-1.941
	c0.46,0,0.889,0.092,0.889,0.092c0.132,0.021,0.194,0.092,0.194,0.204V39.819z M15.312,43.917c0,0.113-0.082,0.194-0.194,0.194
	h-0.736c-0.112,0-0.194-0.081-0.194-0.194v-6.866c0-0.112,0.082-0.194,0.194-0.194h0.736c0.112,0,0.194,0.082,0.194,0.194V43.917z
	 M17.305,43.917c0,0.113-0.082,0.194-0.195,0.194h-0.735c-0.112,0-0.194-0.081-0.194-0.194v-4.721c0-0.112,0.082-0.193,0.194-0.193
	h0.735c0.113,0,0.195,0.081,0.195,0.193V43.917z M17.305,37.786c0,0.113-0.082,0.194-0.195,0.194h-0.735
	c-0.112,0-0.194-0.081-0.194-0.194v-0.735c0-0.112,0.082-0.194,0.194-0.194h0.735c0.113,0,0.195,0.082,0.195,0.194V37.786z
	 M21.188,39.819c0,0.113-0.071,0.175-0.194,0.164c0,0-0.439-0.062-0.817-0.062c-0.664,0-0.879,0.389-0.879,0.94v1.379
	c0,0.572,0.235,0.951,0.889,0.951c0.398,0,0.817-0.062,0.817-0.062c0.112-0.011,0.184,0.041,0.184,0.153v0.623
	c0,0.112-0.051,0.184-0.194,0.215c0,0-0.47,0.092-0.889,0.092c-1.237,0-1.932-0.675-1.932-1.941v-1.431
	c0-1.267,0.685-1.941,1.932-1.941c0.459,0,0.889,0.092,0.889,0.092c0.133,0.021,0.194,0.092,0.194,0.204V39.819z M23.027,43.917
	c0,0.113-0.082,0.194-0.194,0.194h-0.736c-0.112,0-0.194-0.081-0.194-0.194v-6.866c0-0.112,0.082-0.194,0.194-0.194h0.736
	c0.112,0,0.194,0.082,0.194,0.194V43.917z M25.562,44.111h-0.828c-0.112,0-0.204-0.092-0.255-0.194l-1.39-2.666l1.267-2.055
	c0.062-0.092,0.153-0.193,0.266-0.193h0.828c0.112,0,0.173,0.102,0.112,0.193l-1.267,2.034l1.4,2.687
	C25.745,44.01,25.674,44.111,25.562,44.111z M24.742,28.439c0,0-0.99,0.989-2.389,0.989c0,0-1.399,0-2.389-0.989
	c0,0-0.99-0.989-0.99-2.389c0,0,0-1.399,0.99-2.389c0,0,0.989-0.99,2.389-0.99c0,0,1.399,0,2.389,0.99c0,0,0.989,0.989,0.989,2.389
	C25.731,26.051,25.731,27.45,24.742,28.439z M29.72,43.917c0,0.113-0.082,0.194-0.194,0.194h-0.684
	c-0.113,0-0.194-0.081-0.194-0.194v-0.092c-0.327,0.205-0.756,0.389-1.236,0.389c-0.991,0-1.574-0.501-1.574-1.533
	c0-1.052,0.644-1.573,1.778-1.573c0.348,0,0.848,0.041,0.981,0.062V40.76c0-0.531-0.235-0.817-0.838-0.817
	c-0.603,0-1.369,0.174-1.369,0.174c-0.123,0.03-0.194-0.051-0.194-0.164v-0.623c0-0.112,0.071-0.184,0.194-0.214
	c0,0,0.664-0.215,1.522-0.215c1.359,0,1.809,0.633,1.809,1.859V43.917z M34.472,43.917c0,0.113-0.082,0.194-0.194,0.194h-0.735
	c-0.113,0-0.194-0.081-0.194-0.194v-3.178c0-0.479-0.144-0.787-0.685-0.787c-0.317,0-0.665,0.144-0.95,0.297v3.668
	c0,0.113-0.082,0.194-0.194,0.194h-0.736c-0.112,0-0.194-0.081-0.194-0.194v-4.721c0-0.112,0.082-0.193,0.194-0.193h0.685
	c0.112,0,0.194,0.081,0.194,0.193v0.153c0.296-0.225,0.735-0.449,1.318-0.449c1.114,0,1.492,0.675,1.492,1.736V43.917z
	 M39.02,43.917c0,0.113-0.082,0.194-0.194,0.194H38.14c-0.112,0-0.194-0.081-0.194-0.194v-0.061
	c-0.317,0.194-0.705,0.357-1.145,0.357c-1.134,0-1.666-0.695-1.666-1.788v-1.737c0-1.094,0.531-1.788,1.666-1.788
	c0.419,0,0.787,0.123,1.094,0.275v-2.125c0-0.112,0.082-0.194,0.194-0.194h0.736c0.112,0,0.194,0.082,0.194,0.194V43.917z
	 M43.771,42.323c0,1.113-0.603,1.788-1.87,1.788h-1.819c-0.112,0-0.194-0.081-0.194-0.194v-6.866c0-0.112,0.082-0.194,0.194-0.194
	h0.736c0.112,0,0.194,0.082,0.194,0.194v2.166c0.307-0.184,0.685-0.316,1.104-0.316c1.134,0,1.655,0.694,1.655,1.788V42.323z
	 M48.523,43.917c0,0.113-0.082,0.194-0.194,0.194h-0.685c-0.113,0-0.194-0.081-0.194-0.194v-0.152
	c-0.296,0.225-0.735,0.449-1.318,0.449c-1.114,0-1.492-0.675-1.492-1.737v-3.28c0-0.112,0.082-0.193,0.194-0.193h0.736
	c0.112,0,0.194,0.081,0.194,0.193v3.179c0,0.479,0.143,0.786,0.684,0.786c0.317,0,0.665-0.143,0.951-0.296v-3.669
	c0-0.112,0.082-0.193,0.194-0.193h0.736c0.112,0,0.194,0.081,0.194,0.193V43.917z M51.261,45.869
	c-0.041,0.102-0.102,0.184-0.214,0.184h-0.828c-0.112,0-0.194-0.092-0.153-0.193l0.583-1.707l-1.625-4.956
	c-0.03-0.102,0.031-0.193,0.153-0.193h0.808c0.112,0,0.194,0.071,0.225,0.184l1.042,3.239l1.094-3.239
	c0.041-0.103,0.112-0.184,0.225-0.184h0.807c0.123,0,0.194,0.102,0.153,0.204L51.261,45.869z M27.738,41.976h0.858v1.012
	c-0.296,0.153-0.644,0.276-0.96,0.276c-0.45,0-0.674-0.225-0.674-0.613C26.961,42.211,27.186,41.976,27.738,41.976z M37.037,39.892
	c0.276,0,0.583,0.082,0.858,0.194v2.892c-0.276,0.133-0.583,0.235-0.858,0.235c-0.562,0-0.777-0.358-0.777-0.869V40.76
	C36.26,40.249,36.475,39.892,37.037,39.892z M42.647,40.76v1.533c0,0.511-0.235,0.848-0.848,0.848h-0.787v-3.014
	c0.276-0.133,0.592-0.235,0.869-0.235C42.442,39.892,42.647,40.249,42.647,40.76z"/>
</svg>
