<?xml version="1.0" encoding="utf-8"?>
<!-- Generator: Adobe Illustrator 16.0.0, SVG Export Plug-In . SVG Version: 6.00 Build 0)  -->
<!DOCTYPE svg PUBLIC "-//W3C//DTD SVG 1.1//EN" "http://www.w3.org/Graphics/SVG/1.1/DTD/svg11.dtd">
<svg version="1.1" id="Layer_1" xmlns="http://www.w3.org/2000/svg" xmlns:xlink="http://www.w3.org/1999/xlink" x="0px" y="0px"
	 width="64px" height="64px" viewBox="0 0 64 64" enable-background="new 0 0 64 64" xml:space="preserve">
<path fill-rule="evenodd" clip-rule="evenodd" d="M54.068,19.732c0.116,0.388,0.222,0.742,0.335,1.119c-0.233,0-0.445,0-0.694,0
	C53.828,20.479,53.942,20.124,54.068,19.732z M60.24,15.152v33.695c0,0.803-0.65,1.454-1.454,1.454H5.214
	c-0.804,0-1.454-0.651-1.454-1.454V15.152c0-0.803,0.65-1.454,1.454-1.454h53.572C59.59,13.698,60.24,14.349,60.24,15.152z
	 M46.944,19.346c0.379,0,0.742,0,1.123,0c0,1.004,0,1.991,0,2.988c0.461,0,0.893,0,1.347,0c0-1.003,0-1.994,0-3.002
	c0.4,0,0.776,0,1.151,0c0-0.38,0-0.742,0-1.102c-1.217,0-2.417,0-3.621,0C46.944,18.605,46.944,18.967,46.944,19.346z
	 M42.542,22.332c1.058,0,2.104,0,3.153,0c0-0.359,0-0.704,0-1.067c-0.606,0-1.202,0-1.829,0c0-1.03,0-2.029,0-3.031
	c-0.453,0-0.888,0-1.325,0C42.542,19.608,42.542,20.967,42.542,22.332z M36.788,22.333c1.18,0,2.347,0,3.521,0
	c0-0.359,0-0.704,0-1.08c-0.74,0-1.458,0-2.178,0c0-0.155,0-0.292,0-0.453c0.647,0,1.284,0,1.92,0c0-0.346,0-0.666,0-1.01
	c-0.648,0-1.286,0-1.918,0c0-0.162,0-0.299,0-0.454c0.707,0,1.399,0,2.099,0c0-0.38,0-0.741,0-1.102c-1.157,0-2.3,0-3.443,0
	C36.788,19.609,36.788,20.968,36.788,22.333z M30.59,22.346c0.084,0,0.15,0,0.217,0c0.573,0,1.147,0.007,1.72-0.002
	c0.222-0.004,0.447-0.027,0.662-0.077c0.532-0.121,0.955-0.407,1.187-0.913c0.264-0.574,0.282-1.175,0.126-1.78
	c-0.135-0.526-0.41-0.944-0.928-1.172c-0.305-0.135-0.627-0.171-0.95-0.179c-0.609-0.015-1.22-0.004-1.831-0.004
	c-0.064,0-0.129,0-0.203,0C30.59,19.602,30.59,20.96,30.59,22.346z M16.349,49.166c-3.84-2.26-7.643-4.499-11.461-6.745
	c0,2.261,0,4.499,0,6.745C8.71,49.166,12.509,49.166,16.349,49.166z M51.141,49.18c-0.05-0.054-0.062-0.076-0.08-0.087
	c-0.781-0.466-1.564-0.931-2.345-1.396c-0.839-0.499-1.677-0.997-2.516-1.498c-0.915-0.546-1.829-1.096-2.744-1.642
	c-0.843-0.503-1.688-1.003-2.531-1.507c-0.822-0.492-1.64-0.99-2.462-1.48c-0.937-0.559-1.877-1.11-2.813-1.67
	c-0.822-0.491-1.639-0.99-2.462-1.481c-0.936-0.559-1.877-1.11-2.813-1.668c-0.765-0.457-1.526-0.921-2.292-1.378
	c-0.993-0.592-1.99-1.179-2.984-1.772c-0.978-0.583-1.952-1.171-2.929-1.755c-0.967-0.578-1.937-1.152-2.903-1.73
	c-1.396-0.835-2.788-1.675-4.184-2.509c-1.117-0.667-2.239-1.327-3.357-1.992c-0.875-0.521-1.748-1.043-2.622-1.566
	c-1.256-0.752-2.514-1.5-3.766-2.258c-0.151-0.092-0.289-0.093-0.468-0.068c0,4.575,0,9.147,0,13.723h23.148v13.563L4.87,35.613
	c0,2.258,0,4.518,0,6.78c3.88,0,7.731,0,11.601,0c0,2.268,0,4.52,0,6.788C28.025,49.18,39.561,49.18,51.141,49.18z M56.229,22.346
	c-0.022-0.083-0.032-0.136-0.051-0.186c-0.472-1.271-0.946-2.542-1.417-3.814c-0.035-0.095-0.081-0.131-0.183-0.129
	c-0.324,0.006-0.648,0.011-0.971-0.001c-0.143-0.006-0.21,0.053-0.254,0.173c-0.074,0.202-0.149,0.405-0.226,0.607
	c-0.316,0.837-0.633,1.673-0.946,2.51c-0.102,0.272-0.196,0.547-0.301,0.841c0.433,0,0.835,0.004,1.238-0.005
	c0.048,0,0.117-0.057,0.137-0.104c0.066-0.153,0.114-0.313,0.17-0.477c0.388,0,0.766-0.003,1.144,0.005
	c0.045,0.001,0.11,0.06,0.128,0.106c0.05,0.122,0.072,0.254,0.119,0.376c0.016,0.041,0.071,0.093,0.11,0.093
	C55.352,22.349,55.778,22.346,56.229,22.346z M33.086,20.896c0.235-0.376,0.25-0.79,0.014-1.167
	c-0.269-0.428-0.714-0.415-1.165-0.378c0,0.643,0,1.268,0,1.908C32.366,21.255,32.815,21.329,33.086,20.896z"/>
</svg>
