<?xml version="1.0" encoding="utf-8"?>
<!-- Generator: Adobe Illustrator 16.0.0, SVG Export Plug-In . SVG Version: 6.00 Build 0)  -->
<!DOCTYPE svg PUBLIC "-//W3C//DTD SVG 1.1//EN" "http://www.w3.org/Graphics/SVG/1.1/DTD/svg11.dtd">
<svg version="1.1" id="Layer_1" xmlns="http://www.w3.org/2000/svg" xmlns:xlink="http://www.w3.org/1999/xlink" x="0px" y="0px"
	 width="64px" height="64px" viewBox="0 0 64 64" enable-background="new 0 0 64 64" xml:space="preserve">
<path d="M40.284,45.07c-0.002,0.609-0.139,1.305-0.934,1.306c-0.66-0.001-1-0.7-1-1.444c0.002-0.557,0.213-1.191,0.929-1.192
	C39.958,43.74,40.284,44.465,40.284,45.07z M36.966,43.616c0.21,0,0.461-0.016,0.657-0.016v0.125h-0.058
	c-0.151,0-0.31,0.02-0.31,0.238v2.187c0,0.218,0.159,0.238,0.31,0.238h0.058v0.125c-0.2,0-0.451-0.016-0.659-0.016
	c-0.205,0-0.451,0.016-0.614,0.016v-0.125h0.059c0.151,0,0.309-0.02,0.309-0.238v-2.187c0-0.218-0.158-0.238-0.309-0.238h-0.059
	V43.6C36.513,43.6,36.762,43.616,36.966,43.616z M36.967,43.635c-0.198,0-0.438-0.015-0.599-0.017v0.089h0.04
	c0.148,0,0.327,0.026,0.327,0.257v2.187c0,0.23-0.178,0.257-0.327,0.257h-0.04v0.088c0.16-0.002,0.396-0.016,0.595-0.016
	c0.202,0,0.443,0.016,0.64,0.016v-0.088h-0.039c-0.151,0-0.328-0.026-0.328-0.257v-2.187c0-0.231,0.177-0.257,0.328-0.257h0.039
	v-0.089C37.411,43.62,37.169,43.635,36.967,43.635z M40.32,45.07c-0.001,0.609-0.144,1.341-0.97,1.341
	c-0.692-0.001-1.035-0.728-1.037-1.479c0.001-0.562,0.221-1.229,0.965-1.229C39.988,43.705,40.319,44.457,40.32,45.07z
	 M40.302,45.07c0-0.61-0.329-1.349-1.023-1.349c-0.73,0-0.947,0.652-0.947,1.211c0,0.747,0.343,1.462,1.019,1.462
	C40.161,46.394,40.302,45.679,40.302,45.07z M16.141,41.682c1.658,0,2.202-1.25,2.202-2.394c0-1.434-0.921-2.47-2.401-2.47
	c-0.315,0-0.46,0.022-0.599,0.03v4.174C15.342,41.612,15.766,41.682,16.141,41.682z M40.886,44.978c0,0.961-0.689,1.6-1.577,1.6
	c-0.886,0-1.562-0.602-1.562-1.5c0-0.868,0.672-1.541,1.54-1.541C40.177,43.538,40.886,44.089,40.886,44.978z M40.87,44.978
	c-0.001-0.877-0.7-1.421-1.582-1.422c-0.858,0-1.522,0.665-1.524,1.523c0.002,0.888,0.669,1.48,1.545,1.481
	C40.189,46.558,40.867,45.928,40.87,44.978z M27.238,46.389v0.125c-0.137,0-0.271-0.016-0.408-0.016
	c-0.129,0-0.264,0.016-0.393,0.016c-0.321-0.422-0.597-0.873-0.869-1.354h-0.275v0.895c0,0.322,0.149,0.334,0.342,0.334h0.076v0.125
	c-0.239,0-0.48-0.016-0.718-0.016c-0.201,0-0.397,0.016-0.605,0.016v-0.125h0.074c0.156,0,0.297-0.071,0.297-0.225v-2.122
	c0-0.304-0.167-0.317-0.297-0.317h-0.074V43.6c0.133,0,0.392,0.016,0.647,0.016c0.25,0,0.451-0.016,0.672-0.016
	c0.526,0,0.994,0.143,0.994,0.735c0,0.375-0.25,0.605-0.581,0.734l0.713,1.068C26.95,46.315,27.033,46.365,27.238,46.389z
	 M27.22,46.405c-0.196-0.025-0.288-0.083-0.402-0.257l-0.727-1.087l0.021-0.008c0.326-0.128,0.569-0.352,0.569-0.719
	c0-0.579-0.451-0.714-0.976-0.716c-0.22,0-0.421,0.017-0.672,0.017c-0.245,0-0.493-0.015-0.629-0.017v0.089h0.057
	c0.13,0,0.315,0.022,0.315,0.335v2.122c0,0.167-0.157,0.245-0.315,0.245h-0.057v0.087c0.2,0,0.391-0.017,0.586-0.017
	c0.234,0,0.47,0.016,0.7,0.017v-0.087h-0.057c-0.19,0-0.361-0.025-0.361-0.354v-0.912h0.019h0.285l0.004,0.01
	c0.273,0.479,0.547,0.931,0.855,1.344c0.127,0,0.26-0.018,0.391-0.018c0.134,0,0.262,0.014,0.392,0.017V46.405z M27.327,39.373
	c0-0.392-0.238-0.707-0.668-0.707c-0.467,0-0.789,0.344-0.881,0.898h1.335C27.305,39.564,27.327,39.464,27.327,39.373z
	 M25.53,43.768c-0.113,0-0.166,0.011-0.219,0.016v1.209h0.186c0.413-0.003,0.622-0.146,0.625-0.632
	C26.12,43.996,25.893,43.77,25.53,43.768z M32.017,44.05l0.397,1.217h-0.832l0.4-1.217h0.013h0.009H32.017z M32.389,45.25
	l-0.384-1.182h-0.009v0.002l-0.387,1.18H32.389z M30.724,43.726h-0.063c-0.175,0-0.371,0.033-0.371,0.53v1.9
	c0,0.146,0.003,0.292,0.024,0.421h-0.159l-2.149-2.396v1.721c0,0.364,0.071,0.488,0.393,0.488h0.07v0.125
	c-0.179,0-0.358-0.016-0.537-0.016c-0.189,0-0.381,0.016-0.568,0.016v-0.125h0.058c0.289,0,0.375-0.196,0.375-0.529v-1.759
	c0-0.233-0.191-0.375-0.38-0.375h-0.053V43.6c0.157,0,0.322,0.016,0.479,0.016c0.124,0,0.247-0.016,0.371-0.016l1.858,2.092h0
	l0.004-0.006l0.003-0.002v-1.565c0-0.343-0.237-0.393-0.363-0.393h-0.091V43.6c0.196,0,0.388,0.016,0.584,0.016
	c0.171,0,0.342-0.016,0.514-0.016V43.726z M30.059,45.679l0.003,0.005v0L30.059,45.679z M30.705,43.618
	c-0.165,0.002-0.329,0.017-0.495,0.017c-0.191,0-0.377-0.015-0.566-0.017v0.089h0.073c0.129,0.001,0.382,0.058,0.382,0.412
	l-0.005,1.579l-0.008,0.008l-0.013,0.014l-1.858-2.101c-0.124,0-0.245,0.017-0.371,0.017c-0.155,0-0.311-0.015-0.463-0.017v0.089
	h0.037c0.197,0.001,0.397,0.149,0.397,0.394v1.758c0,0.335-0.094,0.548-0.393,0.55l-0.041-0.001v0.088
	c0.18,0,0.366-0.016,0.55-0.016c0.176,0,0.349,0.016,0.521,0.016v-0.087h-0.052c-0.33-0.001-0.411-0.145-0.412-0.508v-1.767
	l2.168,2.425h0.138c-0.019-0.126-0.022-0.265-0.022-0.403v-1.9c0-0.501,0.21-0.548,0.39-0.549h0.044V43.618z M18.156,43.616
	c0.171,0,0.342-0.016,0.514-0.016v0.125h-0.062c-0.176,0-0.372,0.033-0.372,0.53v1.9c0,0.146,0.003,0.292,0.024,0.421h-0.159
	l-2.15-2.396v1.721c0,0.364,0.071,0.488,0.393,0.488h0.07v0.125c-0.179,0-0.358-0.016-0.538-0.016c-0.187,0-0.38,0.016-0.568,0.016
	v-0.125h0.058c0.288,0,0.376-0.196,0.376-0.529v-1.759c0-0.233-0.193-0.375-0.381-0.375h-0.054V43.6c0.158,0,0.32,0.016,0.48,0.016
	c0.125,0,0.246-0.016,0.372-0.016l1.858,2.092l0.007-0.008v-1.565c0-0.343-0.238-0.393-0.363-0.393h-0.092V43.6
	C17.768,43.6,17.959,43.616,18.156,43.616z M18.005,45.679l0.003,0.005v-0.001L18.005,45.679z M18.651,43.618
	c-0.165,0.002-0.33,0.017-0.495,0.017c-0.191,0-0.377-0.015-0.566-0.017v0.089h0.074c0.128,0,0.382,0.057,0.382,0.411l-0.007,1.579
	l-0.008,0.008l-0.014,0.013l-1.857-2.1c-0.124,0-0.245,0.017-0.372,0.017c-0.152,0-0.309-0.015-0.46-0.017l-0.001,0.089h0.037
	c0.197,0,0.397,0.149,0.397,0.394v1.759c0,0.333-0.092,0.547-0.393,0.549l-0.04-0.002v0.09c0.18-0.001,0.366-0.017,0.55-0.017
	c0.174,0,0.347,0.016,0.52,0.017v-0.088h-0.052c-0.329-0.002-0.411-0.145-0.411-0.508v-1.768l2.167,2.426h0.138
	c-0.018-0.126-0.021-0.265-0.021-0.403v-1.9c0-0.501,0.209-0.549,0.39-0.549h0.043V43.618z M33.595,46.389h0.024v0.125
	c-0.187-0.009-0.375-0.016-0.576-0.016c-0.205,0-0.414,0.007-0.626,0.016v-0.125h0.047c0.096,0,0.258-0.017,0.258-0.122
	c0-0.054-0.038-0.166-0.083-0.3l-0.163-0.484h-0.948l-0.133,0.435c-0.042,0.141-0.093,0.251-0.093,0.325
	c0,0.126,0.176,0.146,0.313,0.146h0.047v0.125c-0.168-0.009-0.338-0.016-0.506-0.016c-0.15,0-0.299,0.007-0.45,0.016v-0.125h0.024
	c0.163,0,0.302-0.097,0.363-0.272l0.668-1.916c0.055-0.154,0.13-0.363,0.156-0.518c0.132-0.045,0.3-0.129,0.378-0.179
	c0.013-0.004,0.02-0.009,0.034-0.009c0.013,0,0.021,0,0.03,0.013c0.012,0.033,0.025,0.071,0.038,0.104l0.768,2.184
	c0.05,0.146,0.099,0.3,0.154,0.426C33.369,46.339,33.457,46.389,33.595,46.389z M33.601,46.409h-0.006
	c-0.143,0-0.242-0.056-0.293-0.179c-0.055-0.127-0.104-0.282-0.155-0.428l-0.768-2.184c-0.013-0.032-0.025-0.071-0.036-0.1
	c-0.003-0.004-0.002-0.004-0.006-0.004h-0.007c-0.009,0-0.015,0.003-0.024,0.006c-0.08,0.052-0.248,0.134-0.372,0.167
	c-0.026,0.157-0.102,0.367-0.156,0.521l-0.667,1.916c-0.063,0.181-0.209,0.285-0.38,0.285h-0.007v0.087
	c0.143-0.007,0.287-0.016,0.433-0.016c0.162,0,0.326,0.009,0.486,0.016v-0.087h-0.027c-0.135-0.002-0.326-0.018-0.332-0.165
	c0.001-0.083,0.052-0.191,0.094-0.332l0.137-0.447h0.973l0.168,0.497c0.046,0.134,0.084,0.245,0.084,0.306
	c-0.005,0.129-0.182,0.138-0.277,0.141h-0.026v0.087c0.206-0.007,0.409-0.016,0.607-0.016c0.194,0,0.375,0.009,0.557,0.016V46.409z
	 M21.587,43.471l0.099,0.017c-0.017,0.112-0.032,0.225-0.046,0.337c-0.007,0.114-0.007,0.226-0.007,0.338l-0.126,0.047
	c-0.009-0.154-0.029-0.401-0.309-0.401h-0.685v2.221c0,0.322,0.146,0.359,0.345,0.359h0.081v0.125c-0.163,0-0.456-0.016-0.68-0.016
	c-0.251,0-0.543,0.016-0.706,0.016v-0.125h0.079c0.23,0,0.347-0.021,0.347-0.351v-2.23h-0.685c-0.313,0-0.325,0.076-0.388,0.38
	h-0.125c0.017-0.117,0.038-0.233,0.05-0.355c0.016-0.117,0.024-0.233,0.024-0.355h0.101c0.034,0.125,0.138,0.122,0.25,0.122h2.154
	C21.474,43.6,21.579,43.596,21.587,43.471z M21.602,43.492c-0.019,0.122-0.135,0.128-0.241,0.126h-2.153h-0.021
	c-0.098,0-0.206-0.004-0.244-0.121h-0.068c-0.001,0.115-0.009,0.228-0.025,0.339c-0.011,0.114-0.03,0.225-0.047,0.334h0.09
	c0.055-0.29,0.091-0.384,0.402-0.38h0.703v2.249c0,0.335-0.135,0.369-0.364,0.37h-0.063v0.087c0.165,0,0.447-0.016,0.688-0.016
	c0.218,0,0.496,0.016,0.662,0.016v-0.087H20.86c-0.201-0.001-0.365-0.05-0.365-0.379v-2.24h0.704
	c0.281,0.001,0.316,0.24,0.326,0.395l0.089-0.035c0-0.108,0.001-0.217,0.009-0.327c0.012-0.108,0.028-0.214,0.043-0.321
	L21.602,43.492z M14.496,43.616c0.208,0,0.458-0.016,0.655-0.016v0.125h-0.058c-0.15,0-0.31,0.02-0.31,0.238v2.187
	c0,0.218,0.159,0.238,0.31,0.238h0.058v0.125c-0.201,0-0.451-0.016-0.66-0.016c-0.205,0-0.451,0.016-0.614,0.016v-0.125h0.059
	c0.15,0,0.309-0.02,0.309-0.238v-2.187c0-0.218-0.158-0.238-0.309-0.238h-0.059V43.6C14.04,43.6,14.291,43.616,14.496,43.616z
	 M15.132,43.618c-0.192,0-0.434,0.017-0.637,0.017c-0.198,0-0.438-0.015-0.6-0.017v0.089h0.04c0.149,0,0.327,0.026,0.327,0.257
	v2.187c0,0.231-0.178,0.257-0.327,0.257h-0.04v0.089c0.162-0.001,0.397-0.017,0.595-0.017c0.203,0,0.444,0.016,0.642,0.017v-0.089
	h-0.04c-0.149,0-0.328-0.026-0.328-0.257v-2.187c0-0.231,0.178-0.257,0.328-0.257h0.04V43.618z M36.095,43.471l0.101,0.017
	c-0.017,0.112-0.032,0.225-0.046,0.337c-0.009,0.114-0.009,0.226-0.009,0.338l-0.125,0.047c-0.009-0.154-0.029-0.401-0.308-0.401
	h-0.686v2.221c0,0.322,0.146,0.359,0.346,0.359h0.079v0.125c-0.161,0-0.454-0.016-0.68-0.016c-0.249,0-0.542,0.016-0.705,0.016
	v-0.125h0.079c0.23,0,0.347-0.021,0.347-0.351v-2.23h-0.686c-0.313,0-0.325,0.076-0.388,0.38h-0.125
	c0.015-0.117,0.038-0.233,0.05-0.355c0.017-0.117,0.024-0.233,0.024-0.355h0.102c0.033,0.125,0.138,0.122,0.249,0.122h2.155
	C35.983,43.6,36.086,43.596,36.095,43.471z M36.111,43.492c-0.02,0.122-0.137,0.128-0.241,0.126h-2.155h-0.021
	c-0.098,0.002-0.205-0.004-0.243-0.121h-0.068c-0.002,0.116-0.009,0.229-0.026,0.339c-0.011,0.115-0.032,0.225-0.047,0.334H33.4
	c0.054-0.29,0.091-0.384,0.403-0.38h0.703v2.249c0,0.335-0.135,0.368-0.364,0.369H34.08v0.089c0.165-0.001,0.446-0.017,0.688-0.017
	c0.218,0,0.496,0.016,0.661,0.017v-0.089h-0.061c-0.201-0.001-0.364-0.049-0.364-0.378v-2.24h0.704
	c0.279,0.001,0.316,0.24,0.324,0.395l0.091-0.035c0-0.108,0-0.217,0.009-0.327c0.011-0.108,0.027-0.215,0.042-0.322L36.111,43.492z
	 M31.633,45.231h0.73L32,44.113L31.633,45.231z M26.158,44.36c-0.001,0.499-0.241,0.668-0.661,0.668h-0.204h-0.019V43.75
	l0.017-0.001c0.057-0.005,0.113-0.016,0.239-0.016C25.911,43.733,26.158,43.98,26.158,44.36z M26.139,44.36
	c0-0.373-0.237-0.61-0.609-0.61c-0.125,0-0.179,0.013-0.237,0.017v1.244h0.204C25.915,45.011,26.139,44.853,26.139,44.36z
	 M21.553,25.567c0.001-4.527,3.669-8.197,8.195-8.198c4.527,0.001,8.195,3.671,8.195,8.198c0,4.526-3.668,8.195-8.195,8.197
	C25.222,33.762,21.554,30.093,21.553,25.567z M31.606,30.417c1.949-0.75,3.334-2.635,3.337-4.85
	c-0.003-2.214-1.388-4.102-3.337-4.85V30.417z M24.554,25.567c0.004,2.213,1.385,4.098,3.333,4.848v-9.697
	C25.938,21.468,24.558,23.354,24.554,25.567z M44.352,43.726h-0.063c-0.175,0-0.372,0.033-0.372,0.53v1.9
	c0,0.146,0.004,0.292,0.025,0.421h-0.158l-2.15-2.396v1.721c0,0.364,0.071,0.488,0.392,0.488h0.072v0.125
	c-0.18,0-0.359-0.016-0.538-0.016c-0.188,0-0.381,0.016-0.568,0.016v-0.125h0.059c0.288,0,0.375-0.196,0.375-0.529v-1.759
	c0-0.233-0.19-0.375-0.379-0.375H40.99V43.6c0.159,0,0.321,0.016,0.479,0.016c0.126,0,0.247-0.016,0.372-0.016l1.858,2.092
	l0.006-0.006l0.003-0.002v-1.565c0-0.343-0.238-0.393-0.364-0.393h-0.09V43.6c0.196,0,0.388,0.016,0.583,0.016
	c0.171,0,0.343-0.016,0.514-0.016V43.726z M43.686,45.679l0.004,0.005v0L43.686,45.679z M44.333,43.618
	c-0.165,0.002-0.331,0.017-0.496,0.017c-0.19,0-0.377-0.015-0.567-0.017v0.089h0.074c0.129,0.001,0.382,0.059,0.382,0.412
	l-0.004,1.579l-0.009,0.008l-0.014,0.014l-1.858-2.101c-0.123,0-0.245,0.017-0.372,0.017c-0.153,0-0.309-0.015-0.461-0.017v0.089
	h0.037c0.196,0.001,0.398,0.149,0.398,0.394v1.759c0,0.333-0.093,0.547-0.394,0.549l-0.041-0.001v0.088
	c0.181,0,0.367-0.016,0.551-0.016c0.174,0,0.347,0.016,0.52,0.016v-0.087h-0.054c-0.328-0.001-0.41-0.145-0.41-0.508v-1.768
	l2.168,2.426h0.136c-0.018-0.126-0.02-0.265-0.02-0.403v-1.9c0-0.503,0.21-0.548,0.388-0.549h0.045V43.618z M47.223,46.389h0.025
	v0.125c-0.188-0.009-0.376-0.016-0.577-0.016c-0.204,0-0.413,0.007-0.625,0.016v-0.125h0.045c0.096,0,0.259-0.017,0.259-0.122
	c0-0.054-0.038-0.166-0.084-0.3l-0.162-0.484h-0.947l-0.135,0.435c-0.041,0.141-0.091,0.251-0.091,0.325
	c0,0.126,0.176,0.146,0.313,0.146h0.047v0.125c-0.167-0.009-0.338-0.016-0.505-0.016c-0.151,0-0.301,0.007-0.451,0.016v-0.125h0.025
	c0.164,0,0.301-0.097,0.364-0.272l0.668-1.916c0.054-0.154,0.129-0.363,0.154-0.518c0.134-0.045,0.3-0.129,0.38-0.179
	c0.013-0.004,0.02-0.009,0.034-0.009c0.012,0,0.02,0,0.029,0.013c0.013,0.033,0.026,0.071,0.038,0.104l0.769,2.184
	c0.049,0.146,0.099,0.3,0.155,0.426C46.998,46.339,47.085,46.389,47.223,46.389z M47.229,46.409h-0.007
	c-0.142,0-0.241-0.056-0.293-0.179c-0.054-0.127-0.104-0.282-0.154-0.428l-0.769-2.184c-0.012-0.032-0.024-0.071-0.036-0.099
	c-0.003-0.006-0.002-0.006-0.005-0.006h-0.008c-0.009,0-0.014,0.003-0.023,0.006c-0.081,0.052-0.248,0.135-0.373,0.167
	c-0.025,0.157-0.101,0.367-0.155,0.521l-0.669,1.916c-0.063,0.181-0.209,0.285-0.379,0.285h-0.007v0.087
	c0.144-0.007,0.288-0.016,0.433-0.016c0.162,0,0.326,0.009,0.487,0.016v-0.087h-0.029c-0.136-0.002-0.326-0.017-0.33-0.166
	c0-0.083,0.052-0.189,0.092-0.331l0.137-0.447h0.974l0.168,0.497c0.046,0.134,0.083,0.245,0.083,0.306
	c-0.007,0.129-0.181,0.138-0.277,0.141h-0.028v0.087h0.001c0.206-0.007,0.41-0.016,0.608-0.016c0.194,0,0.376,0.009,0.558,0.016
	V46.409z M49.679,43.715H49.63v0.208h0.053c0.057,0,0.083-0.042,0.083-0.112C49.766,43.74,49.725,43.715,49.679,43.715z
	 M50.049,43.923c0,0.188-0.151,0.356-0.347,0.356c-0.198,0-0.35-0.168-0.35-0.356c0-0.19,0.152-0.359,0.35-0.359
	C49.899,43.564,50.049,43.733,50.049,43.923z M49.923,44.14c-0.025-0.015-0.063-0.058-0.097-0.104l-0.072-0.101
	c0.06-0.019,0.104-0.067,0.104-0.133c0-0.08-0.07-0.116-0.148-0.116h-0.225v0.022c0.057-0.002,0.063,0.013,0.063,0.059v0.326
	c0,0.034-0.01,0.032-0.065,0.04v0.021h0.213v-0.021c-0.055-0.007-0.065-0.006-0.065-0.035v-0.146h0.049
	c0.081,0.116,0.117,0.203,0.158,0.203h0.085V44.14z M60.24,15.152v33.695c0,0.803-0.65,1.454-1.454,1.454H5.214
	c-0.804,0-1.454-0.651-1.454-1.454V15.152c0-0.803,0.65-1.454,1.454-1.454h53.572C59.59,13.698,60.24,14.349,60.24,15.152z
	 M45.955,36.603c0.292,0.084,0.408,0.1,0.408,0.598V40.5c0,0.468-0.039,0.914-0.107,1.367l0.161,0.083l0.23-0.177
	c0.199,0.085,0.499,0.27,1.065,0.27c1.099,0,1.835-1.006,1.835-2.01c0-0.836-0.537-1.611-1.427-1.611
	c-0.422,0-0.836,0.291-1.142,0.552v-2.801c0-0.062-0.016-0.108-0.062-0.108c-0.024,0-0.085,0.038-0.169,0.084
	c-0.161,0.093-0.482,0.231-0.791,0.33V36.603z M43.24,40.738v-1.979c0-0.169,0-0.222-0.084-0.222c-0.101,0-0.714,0.046-0.99,0.053
	v0.146c0.429,0.038,0.459,0.229,0.459,0.43v1.965c0,0.643,0.43,0.913,0.844,0.913c0.544,0,0.898-0.27,1.358-0.645v0.621l0.038,0.023
	c0.147-0.046,0.776-0.208,1.106-0.238v-0.161c-0.101,0-0.215,0.007-0.308,0.007c-0.13,0-0.214-0.007-0.214-0.146v-2.831
	c0-0.084,0-0.138-0.063-0.138c-0.076,0-0.506,0.061-1.195,0.107v0.139c0.275,0.076,0.644,0.161,0.644,0.314v2.065
	c-0.322,0.267-0.667,0.467-0.928,0.467C43.24,41.628,43.24,40.968,43.24,40.738z M20.697,25.661c0,4.886,4.077,8.9,9.03,8.876h4.212
	c4.895,0.024,9.363-3.992,9.363-8.876c0-5.342-4.469-9.034-9.363-9.032h-4.212C24.774,16.626,20.697,20.32,20.697,25.661z
	 M41.038,37.202v4.272c0,0.254-0.154,0.254-0.369,0.254h-0.146v0.198c0.284-0.007,0.56-0.014,0.836-0.014
	c0.277,0,0.546,0.014,0.805,0.014v-0.198h-0.129c-0.215,0-0.384,0-0.384-0.254v-5.301c0-0.062-0.015-0.108-0.062-0.108
	c-0.023,0-0.086,0.038-0.169,0.084c-0.162,0.093-0.483,0.231-0.791,0.33v0.123C40.923,36.687,41.038,36.702,41.038,37.202z
	 M32.705,41.252c0,0.269-0.169,0.545-0.62,0.545c-0.561,0-0.867-0.43-0.967-0.937l-0.138,0.039l0.084,0.883
	c0.269,0.153,0.628,0.261,0.936,0.261c0.913,0,1.32-0.538,1.32-1.044c0-1.204-1.78-0.927-1.78-1.826
	c0-0.329,0.292-0.506,0.598-0.506c0.492,0,0.761,0.276,0.837,0.759h0.176l-0.053-0.782c-0.299-0.154-0.629-0.223-0.875-0.223
	c-0.843,0-1.189,0.552-1.189,0.982C31.033,40.638,32.705,40.346,32.705,41.252z M29.353,41.474v-1.803c0-0.46,0.43-0.636,0.56-0.636
	c0.268,0,0.268,0.184,0.506,0.184c0.215,0,0.361-0.184,0.361-0.392c0-0.277-0.247-0.406-0.438-0.406c-0.467,0-0.79,0.491-0.981,0.79
	h-0.016V38.52c0-0.076-0.023-0.099-0.068-0.099c-0.069,0-0.376,0.199-0.937,0.437v0.116c0.116,0.062,0.398,0.107,0.398,0.345v2.155
	c0,0.254-0.153,0.254-0.367,0.254h-0.207v0.198c0.276-0.007,0.598-0.014,0.913-0.014c0.331,0,0.651,0.007,1.073,0.014v-0.198h-0.429
	C29.507,41.729,29.353,41.729,29.353,41.474z M25.755,39.81h2.155l0.07-0.046c0.007-0.046,0.007-0.092,0.007-0.139
	c-0.007-0.813-0.675-1.203-1.296-1.203c-0.537,0-1.55,0.445-1.55,1.948c0,0.491,0.246,1.673,1.466,1.673
	c0.629,0,1.065-0.399,1.418-0.867l-0.107-0.107c-0.283,0.283-0.613,0.513-1.036,0.513c-0.612,0-1.082-0.598-1.127-1.328
	C25.738,39.994,25.738,39.879,25.755,39.81z M19.901,36.856c0,0.199,0.176,0.383,0.375,0.383c0.208,0,0.376-0.177,0.376-0.383
	c0-0.208-0.177-0.37-0.376-0.37C20.084,36.486,19.901,36.664,19.901,36.856z M19.456,41.927c0.284-0.007,0.56-0.014,0.836-0.014
	c0.276,0,0.544,0.014,0.806,0.014v-0.198h-0.13c-0.214,0-0.384,0-0.384-0.254v-2.945c0-0.062-0.016-0.107-0.054-0.107
	c-0.039,0-0.084,0.007-0.139,0.038c-0.03,0.023-0.459,0.168-0.82,0.277v0.122c0.283,0.153,0.399,0.2,0.399,0.538v2.079
	c0,0.254-0.155,0.254-0.369,0.254h-0.146V41.927z M13.886,41.927c0.345-0.007,0.683-0.014,1.028-0.014
	c0.359,0,0.721,0.014,1.112,0.014c2.716,0,3.16-1.91,3.16-2.67c0-1.358-1.081-2.686-3.068-2.686c-0.567,0-1.005,0.016-1.328,0.016
	c-0.3,0-0.605,0-0.905-0.016v0.201c0.345,0.007,0.706-0.039,0.706,0.651H14.59v3.722c-0.021,0.521-0.245,0.537-0.705,0.583V41.927z
	 M15.169,43.582H15.15c-0.197,0-0.447,0.016-0.655,0.016c-0.204,0-0.454-0.016-0.619-0.016H13.86v0.144v0.018h0.076
	c0.151,0.002,0.29,0.016,0.291,0.221v2.187c-0.001,0.205-0.139,0.217-0.291,0.22h-0.059H13.86v0.019v0.125v0.018h0.017
	c0.165,0,0.411-0.017,0.614-0.017c0.208,0,0.458,0.017,0.66,0.017h0.019v-0.143v-0.019h-0.077c-0.152-0.003-0.291-0.015-0.292-0.22
	v-2.187c0-0.205,0.14-0.218,0.292-0.221h0.058h0.019v-0.142V43.582z M18.688,43.583H18.67c-0.174,0-0.344,0.015-0.514,0.015
	c-0.195,0-0.388-0.015-0.584-0.015h-0.018v0.143v0.018h0.11c0.121,0.002,0.343,0.043,0.345,0.375v1.536l-1.834-2.065
	c-0.142-0.006-0.262,0.009-0.387,0.009c-0.156,0-0.319-0.015-0.479-0.015H15.29v0.143v0.018h0.073
	c0.179,0.001,0.362,0.135,0.362,0.358v1.758c-0.002,0.332-0.082,0.509-0.357,0.511h-0.059H15.29v0.144v0.018h0.018
	c0.189,0,0.382-0.017,0.568-0.017c0.178,0,0.358,0.017,0.539,0.017h0.019v-0.143v-0.019h-0.09c-0.314-0.004-0.369-0.107-0.374-0.47
	v-1.673l2.118,2.361l0.173,0.006h0.021l-0.003-0.022c-0.02-0.126-0.024-0.271-0.024-0.417v-1.9c0.004-0.493,0.181-0.508,0.354-0.513
	h0.062h0.018V43.6V43.583z M21.708,43.472l-0.118-0.018l-0.019-0.004l-0.002,0.02c-0.006,0.109-0.091,0.111-0.208,0.112h-2.153
	h-0.021c-0.107-0.001-0.184-0.002-0.213-0.107l-0.002-0.013h-0.116h-0.017v0.018c0,0.121-0.007,0.237-0.025,0.353
	c-0.012,0.121-0.033,0.238-0.051,0.354l-0.001,0.022h0.146h0.015l0.002-0.015c0.069-0.308,0.063-0.36,0.371-0.366h0.667v2.211
	c-0.005,0.324-0.098,0.327-0.327,0.332h-0.08h-0.018v0.144v0.018h0.018c0.164,0,0.457-0.017,0.706-0.017
	c0.224,0,0.516,0.017,0.681,0.017l0.018,0v-0.143v-0.019H20.86c-0.199-0.004-0.324-0.026-0.328-0.341v-2.203h0.667
	c0.264,0,0.281,0.227,0.292,0.384l0.001,0.024l0.148-0.054l0.011-0.005v-0.013c0-0.112,0-0.225,0.008-0.336
	c0.012-0.112,0.029-0.226,0.046-0.337L21.708,43.472z M24.217,45.837l-0.134-0.035L24.065,45.8l-0.004,0.016
	c-0.126,0.47-0.328,0.493-0.83,0.497c-0.272-0.002-0.492,0-0.492-0.254v-0.954h0.483c0.277,0.003,0.279,0.143,0.308,0.397
	l0.002,0.02l0.145-0.029l0.016-0.004l-0.001-0.015c-0.008-0.159-0.013-0.318-0.013-0.476c0-0.163,0.005-0.326,0.013-0.488
	l0.001-0.019h-0.145h-0.016l-0.002,0.016c-0.028,0.225-0.071,0.349-0.312,0.351H22.74v-1.057h0.562
	c0.431,0.004,0.466,0.2,0.491,0.471l0.001,0.022l0.147-0.038l0.013-0.004v-0.016c-0.009-0.119-0.013-0.276-0.013-0.421
	c0-0.079,0.002-0.153,0.004-0.215l0.001-0.019h-0.019c-0.284,0-0.717,0.015-1.068,0.015c-0.35,0-0.784-0.015-1.039-0.015h-0.018
	v0.143v0.018h0.077c0.152,0.003,0.289,0.017,0.29,0.221v2.187c-0.001,0.205-0.138,0.218-0.29,0.22H21.82h-0.018v0.019v0.125v0.018
	h0.018c0.238,0,0.734-0.017,1.109-0.017c0.375,0,0.856,0.017,1.123,0.017h0.015l0.003-0.015c0.038-0.22,0.088-0.441,0.142-0.663
	L24.217,45.837z M24.358,41.913c0.276,0,0.544,0.014,0.813,0.014v-0.198h-0.139c-0.215,0-0.383,0-0.383-0.254v-1.98
	c0-0.598-0.23-1.073-0.882-1.073c-0.514,0-0.891,0.26-1.329,0.575v-0.499c0-0.062-0.022-0.076-0.044-0.076
	c-0.37,0.161-0.683,0.26-1.013,0.368v0.146c0.36,0.146,0.445,0.222,0.445,0.506h-0.001v2.033c0,0.254-0.153,0.254-0.368,0.254H21.32
	v0.198c0.276-0.007,0.552-0.014,0.828-0.014c0.276,0,0.545,0.014,0.813,0.014v-0.198h-0.138c-0.215,0-0.385,0-0.385-0.254v-2.271
	c0.255-0.168,0.646-0.369,0.891-0.369c0.438,0,0.706,0.215,0.706,0.653v1.986c0,0.254-0.152,0.254-0.367,0.254H23.53v0.198
	C23.805,41.92,24.082,41.913,24.358,41.913z M27.256,46.373l-0.015-0.002c-0.204-0.026-0.276-0.068-0.393-0.242l-0.701-1.05
	c0.322-0.131,0.571-0.366,0.571-0.744c-0.001-0.606-0.486-0.751-1.012-0.753c-0.223,0-0.423,0.016-0.672,0.016
	c-0.254,0-0.512-0.016-0.647-0.016h-0.018v0.144v0.019h0.092c0.13,0.004,0.275,0.001,0.278,0.298v2.122
	c-0.001,0.141-0.126,0.206-0.278,0.207h-0.074h-0.018v0.144v0.018h0.018c0.209,0,0.405-0.017,0.604-0.017
	c0.237,0,0.48,0.017,0.718,0.017h0.019v-0.143v-0.019h-0.094c-0.193-0.004-0.319-0.001-0.324-0.316V45.18h0.247
	c0.27,0.477,0.544,0.925,0.864,1.346c0.146,0.006,0.279-0.01,0.406-0.01c0.137,0,0.271,0.017,0.41,0.017h0.018v-0.143V46.373z
	 M30.661,43.743h0.062h0.018V43.6v-0.019h-0.018c-0.172,0-0.343,0.016-0.513,0.016c-0.195,0-0.387-0.016-0.584-0.016h-0.019v0.144
	v0.018h0.11c0.121,0.002,0.344,0.043,0.345,0.375v1.536l-1.835-2.066c-0.139-0.006-0.261,0.01-0.383,0.01
	c-0.158,0-0.32-0.016-0.479-0.016h-0.019v0.144v0.018h0.072c0.18,0,0.361,0.135,0.361,0.357v1.758
	c-0.002,0.333-0.081,0.512-0.356,0.512h-0.058h-0.019v0.144v0.018h0.019c0.187,0,0.381-0.017,0.566-0.017
	c0.179,0,0.357,0.017,0.539,0.017h0.018v-0.143v-0.019h-0.088c-0.315-0.004-0.371-0.107-0.375-0.47v-1.673l2.119,2.362l0.172,0.006
	h0.021l-0.002-0.02c-0.022-0.129-0.025-0.273-0.025-0.419v-1.9C30.312,43.763,30.488,43.748,30.661,43.743z M33.637,46.371h-0.042
	c-0.133,0-0.21-0.045-0.259-0.156c-0.054-0.123-0.104-0.278-0.153-0.424l-0.769-2.183c-0.014-0.035-0.025-0.072-0.038-0.105
	c-0.013-0.022-0.035-0.025-0.045-0.025c-0.018,0-0.029,0.006-0.041,0.01c-0.081,0.051-0.249,0.135-0.378,0.179
	c-0.036,0.167-0.111,0.374-0.166,0.529l-0.669,1.917c-0.061,0.17-0.189,0.258-0.345,0.259h-0.024h-0.019v0.144v0.019l0.02-0.001
	c0.149-0.008,0.299-0.017,0.45-0.017c0.167,0,0.337,0.009,0.503,0.017l0.019,0.001v-0.144v-0.019h-0.063
	c-0.139,0-0.294-0.025-0.296-0.127c0-0.068,0.05-0.179,0.093-0.321l0.129-0.422h0.92l0.159,0.472
	c0.046,0.133,0.085,0.248,0.083,0.294c0,0.081-0.143,0.103-0.241,0.103h-0.045H32.4v0.144v0.019l0.019-0.001
	c0.213-0.008,0.42-0.017,0.625-0.017c0.199,0,0.388,0.009,0.575,0.017l0.019,0.002v-0.145V46.371z M36.216,43.472l-0.119-0.018
	l-0.019-0.004l-0.002,0.021c-0.007,0.109-0.091,0.11-0.206,0.112h-2.155h-0.021c-0.107-0.001-0.183-0.002-0.212-0.107l-0.004-0.013
	h-0.113h-0.018v0.018c0,0.121-0.009,0.237-0.026,0.353c-0.012,0.121-0.033,0.237-0.05,0.355l-0.002,0.021h0.146h0.014l0.003-0.015
	c0.069-0.308,0.061-0.361,0.371-0.366h0.666l0.001,2.211c-0.007,0.324-0.098,0.327-0.329,0.332h-0.079h-0.019v0.144v0.018h0.019
	c0.164,0,0.456-0.017,0.706-0.017c0.224,0,0.515,0.017,0.68,0.017h0.018v-0.143v-0.019h-0.098c-0.198-0.004-0.324-0.026-0.329-0.341
	v-2.203h0.668c0.263,0,0.279,0.227,0.291,0.384L36,44.235l0.147-0.054l0.013-0.005v-0.013c0-0.112,0-0.225,0.007-0.336
	c0.013-0.112,0.029-0.226,0.045-0.337L36.216,43.472z M38.382,42.043c0.507,0,1.375-0.208,1.696-0.408l0.176-1.12l-0.176-0.046
	c-0.154,0.806-0.783,1.328-1.542,1.328c-1.181,0-2.287-1.112-2.287-2.663c0-1.841,1.28-2.432,2.163-2.432
	c0.859,0,1.496,0.36,1.642,1.258h0.191l-0.075-1.097c-0.591-0.208-1.19-0.408-1.812-0.408c-1.504,0-2.908,1.128-2.908,2.701
	C35.452,40.884,36.587,42.043,38.382,42.043z M37.64,43.583h-0.018c-0.197,0-0.448,0.015-0.656,0.015
	c-0.204,0-0.454-0.015-0.618-0.015h-0.018v0.143v0.018h0.077c0.151,0.002,0.289,0.017,0.29,0.221v2.187
	c-0.001,0.205-0.139,0.218-0.29,0.22h-0.059h-0.018v0.019v0.125v0.018h0.018c0.164,0,0.41-0.017,0.614-0.017
	c0.208,0,0.458,0.017,0.659,0.017h0.018v-0.143v-0.019h-0.075c-0.153-0.001-0.29-0.015-0.292-0.22v-2.187
	c0.002-0.204,0.139-0.218,0.292-0.221h0.058h0.018V43.6V43.583z M40.905,44.978c-0.002-0.9-0.721-1.457-1.618-1.458
	c-0.877,0.001-1.557,0.681-1.559,1.559h0.001c0.001,0.908,0.687,1.515,1.58,1.517C40.206,46.593,40.904,45.948,40.905,44.978z
	 M44.288,43.743h0.063h0.018V43.6v-0.018h-0.018c-0.173,0-0.344,0.015-0.516,0.015c-0.193,0-0.386-0.015-0.583-0.015h-0.019v0.143
	v0.018h0.11c0.122,0.002,0.344,0.043,0.346,0.375v1.536l-1.834-2.065c-0.142-0.006-0.262,0.009-0.387,0.009
	c-0.157,0-0.319-0.015-0.479-0.015h-0.019v0.143v0.018h0.073c0.179,0,0.362,0.135,0.363,0.357v1.759
	c-0.004,0.332-0.083,0.509-0.358,0.511H40.99h-0.019v0.144v0.018h0.019c0.19,0,0.381-0.017,0.568-0.017
	c0.178,0,0.357,0.017,0.538,0.017h0.019v-0.143v-0.019h-0.09c-0.313-0.004-0.369-0.107-0.374-0.47v-1.673l2.118,2.361l0.172,0.006
	h0.02l-0.003-0.02c-0.021-0.128-0.023-0.273-0.023-0.419v-1.9C43.938,43.764,44.117,43.748,44.288,43.743z M47.266,46.371h-0.043
	c-0.134,0-0.21-0.045-0.258-0.155c-0.055-0.124-0.104-0.278-0.155-0.425l-0.768-2.183c-0.013-0.035-0.026-0.072-0.038-0.105
	c-0.014-0.022-0.035-0.025-0.046-0.024c-0.018,0-0.029,0.005-0.039,0.009c-0.082,0.051-0.25,0.134-0.381,0.18
	c-0.036,0.166-0.112,0.373-0.165,0.528l-0.669,1.917c-0.06,0.169-0.19,0.259-0.346,0.259h-0.025h-0.018v0.144v0.019l0.018-0.001
	c0.152-0.008,0.302-0.017,0.451-0.017c0.166,0,0.337,0.009,0.504,0.017l0.018,0.001v-0.144v-0.019h-0.063
	c-0.138,0-0.293-0.025-0.293-0.128c-0.001-0.067,0.048-0.177,0.09-0.32l0.129-0.422h0.922l0.158,0.472
	c0.047,0.134,0.084,0.248,0.083,0.294c0,0.081-0.144,0.103-0.241,0.103h-0.045h-0.019v0.144v0.019l0.019-0.001
	c0.212-0.008,0.422-0.017,0.625-0.017c0.2,0,0.387,0.009,0.574,0.017l0.02,0.001v-0.144V46.371z M49.774,45.787H49.63h-0.013
	L49.612,45.8c-0.024,0.091-0.061,0.206-0.126,0.295c-0.072,0.1-0.218,0.198-0.388,0.217c-0.108,0.012-0.214,0.017-0.316,0.017
	c-0.081,0-0.158-0.003-0.231-0.008c-0.13-0.02-0.232-0.061-0.234-0.216v-2.154c0.003-0.211,0.104-0.203,0.266-0.208h0.105h0.018
	V43.6v-0.018h-0.018c-0.214,0-0.423,0.015-0.634,0.015c-0.221,0-0.439-0.015-0.66-0.015h-0.018v0.143v0.018h0.076
	c0.153,0.002,0.295,0.017,0.296,0.22v2.146c-0.001,0.248-0.145,0.258-0.296,0.261h-0.058h-0.018v0.144v0.018h0.018
	c0.367,0,0.735-0.017,1.103-0.017c0.366,0,0.733,0.017,1.101,0.017h0.015l0.003-0.014c0.051-0.237,0.108-0.471,0.156-0.709
	L49.774,45.787z M50.14,43.923c0-0.248-0.188-0.441-0.438-0.441c-0.252,0-0.44,0.193-0.44,0.441c0,0.246,0.188,0.438,0.44,0.438
	C49.952,44.36,50.14,44.169,50.14,43.923z M47.766,41.843c0.822,0,1.167-0.806,1.167-1.49c0-0.828-0.629-1.519-1.228-1.519
	c-0.284,0-0.522,0.185-0.728,0.362v1.863C46.977,41.352,47.251,41.843,47.766,41.843z M49.63,45.804h0.122
	c-0.045,0.238-0.103,0.472-0.155,0.71c-0.366,0-0.734-0.016-1.101-0.016c-0.369,0-0.735,0.016-1.103,0.016v-0.125h0.057
	c0.151,0,0.315-0.02,0.315-0.28v-2.146c0-0.218-0.164-0.238-0.315-0.238h-0.057V43.6c0.221,0,0.438,0.016,0.66,0.016
	c0.213,0,0.422-0.016,0.634-0.016v0.125h-0.105c-0.158,0-0.283,0.004-0.283,0.226v2.154c0,0.167,0.116,0.217,0.25,0.234
	c0.171,0.013,0.36,0.013,0.552-0.008c0.175-0.021,0.325-0.121,0.399-0.226C49.568,46.014,49.605,45.896,49.63,45.804z
	 M49.645,45.822c-0.026,0.091-0.063,0.203-0.129,0.294c-0.078,0.107-0.232,0.21-0.413,0.232c-0.11,0.011-0.219,0.017-0.321,0.017
	c-0.082,0-0.159-0.004-0.235-0.009c-0.136-0.015-0.268-0.073-0.268-0.251v-2.154c0-0.232,0.147-0.244,0.303-0.244h0.087v-0.089
	c-0.206,0.002-0.409,0.017-0.616,0.017c-0.216,0-0.428-0.015-0.643-0.017v0.089h0.04c0.149,0,0.332,0.026,0.332,0.256v2.146
	c0,0.27-0.181,0.298-0.332,0.298h-0.04v0.088c0.362,0,0.722-0.016,1.085-0.016c0.363,0,0.725,0.016,1.086,0.016
	c0.048-0.226,0.104-0.448,0.148-0.673H49.645z M24.079,45.822l0.117,0.029c-0.055,0.221-0.104,0.441-0.142,0.664
	c-0.269,0-0.748-0.016-1.123-0.016c-0.376,0-0.873,0.016-1.111,0.016v-0.125h0.059c0.15,0,0.309-0.02,0.309-0.238v-2.187
	c0-0.218-0.158-0.238-0.309-0.238H21.82V43.6c0.254,0,0.689,0.016,1.04,0.016s0.784-0.016,1.067-0.016
	c-0.007,0.18-0.003,0.456,0.01,0.639l-0.127,0.033c-0.021-0.271-0.07-0.488-0.509-0.488h-0.579v1.093h0.497
	c0.249,0,0.304-0.142,0.328-0.368h0.126c-0.008,0.164-0.013,0.327-0.013,0.489c0,0.159,0.004,0.317,0.013,0.476L23.548,45.5
	c-0.024-0.251-0.037-0.414-0.325-0.414h-0.5v0.972c0,0.272,0.241,0.272,0.509,0.272C23.732,46.331,23.953,46.297,24.079,45.822z
	 M24.091,45.844c-0.125,0.467-0.368,0.508-0.861,0.505c-0.263,0-0.526,0-0.526-0.291v-0.99h0.519
	c0.291-0.003,0.321,0.173,0.342,0.411l0.09-0.02c-0.008-0.153-0.013-0.308-0.013-0.461c0-0.157,0.004-0.313,0.013-0.471h-0.09
	c-0.023,0.217-0.091,0.37-0.346,0.367h-0.514v-1.13h0.598c0.434-0.002,0.507,0.221,0.525,0.483l0.09-0.023
	c-0.008-0.118-0.013-0.27-0.013-0.409c0-0.071,0.001-0.139,0.004-0.199c-0.283,0.002-0.707,0.017-1.049,0.017
	c-0.344,0-0.766-0.015-1.022-0.017v0.089h0.041c0.148,0,0.326,0.026,0.326,0.257v2.187c0,0.23-0.178,0.256-0.326,0.258h-0.041v0.087
	c0.244,0,0.726-0.016,1.092-0.016c0.369,0,0.84,0.016,1.109,0.016c0.036-0.209,0.083-0.421,0.135-0.632L24.091,45.844z
	 M45.26,45.231h0.73l-0.363-1.119L45.26,45.231z M45.646,44.05l0.395,1.217h-0.83l0.4-1.217h0.013h0.008H45.646z M46.017,45.25
	l-0.385-1.182h-0.008l-0.001,0.002l-0.388,1.18H46.017z"/>
</svg>
