<?xml version="1.0" encoding="utf-8"?>
<!-- Generator: Adobe Illustrator 16.0.0, SVG Export Plug-In . SVG Version: 6.00 Build 0)  -->
<!DOCTYPE svg PUBLIC "-//W3C//DTD SVG 1.1//EN" "http://www.w3.org/Graphics/SVG/1.1/DTD/svg11.dtd">
<svg version="1.1" id="Layer_1" xmlns="http://www.w3.org/2000/svg" xmlns:xlink="http://www.w3.org/1999/xlink" x="0px" y="0px"
	 width="64px" height="64px" viewBox="0 0 64 64" enable-background="new 0 0 64 64" xml:space="preserve">
<path fill-rule="evenodd" clip-rule="evenodd" d="M34.658,43.249c0.508,0.468,0.374,1.213-0.221,1.532
	c-0.445,0.239-1.008,0.168-1.377-0.174c-0.188-0.173-0.298-0.394-0.26-0.651c-0.079-0.542,0.486-0.956,0.927-0.991
	C34.082,42.938,34.397,43.008,34.658,43.249z M21.729,38.884c0.617-0.511,0.623-1.499,0.081-2.019
	c-0.264-0.253-0.577-0.429-0.952-0.463c-0.209-0.02-0.418-0.046-0.628-0.056c-0.204-0.009-0.408-0.001-0.618-0.001
	c0,0.982,0,1.977,0,3.001c0.121-0.014,0.229-0.031,0.337-0.037c0.273-0.013,0.549-0.006,0.821-0.034
	C21.124,39.239,21.451,39.115,21.729,38.884z M27.922,42.856c-0.428-0.191-0.853-0.156-1.261,0.059
	c-0.212,0.111-0.334,0.376-0.293,0.572c0.657,0,1.314,0,1.981,0C28.248,43.121,28.146,42.956,27.922,42.856z M21.212,41.952
	c-0.515-0.197-1.063-0.08-1.597-0.182c0,1.025,0,2.024,0,3.001c0.247,0,0.487-0.002,0.728,0c0.327,0.003,0.641-0.051,0.948-0.171
	c0.764-0.298,1.063-1.008,0.844-1.739C21.994,42.396,21.65,42.121,21.212,41.952z M29.071,36.399c-0.343,0.002-0.687,0-1.032,0
	c0,0.37,0,0.744,0,1.136c0.268,0,0.518,0.002,0.769,0c0.242-0.003,0.463-0.073,0.667-0.208c0.213-0.141,0.271-0.538,0.063-0.715
	C29.401,36.494,29.262,36.397,29.071,36.399z M60.24,15.152v33.695c0,0.803-0.65,1.454-1.454,1.454H5.214
	c-0.804,0-1.454-0.651-1.454-1.454V15.152c0-0.803,0.65-1.454,1.454-1.454h53.572C59.59,13.698,60.24,14.349,60.24,15.152z
	 M18.27,40.064c0.792-0.01,1.583-0.031,2.375-0.025c0.522,0.003,1.024-0.076,1.507-0.267c0.437-0.173,0.819-0.427,1.099-0.812
	c0.378-0.521,0.442-1.102,0.238-1.696c-0.181-0.528-0.572-0.89-1.059-1.149c-0.572-0.306-1.193-0.43-1.838-0.437
	c-0.773-0.008-1.549-0.001-2.322-0.001C18.27,37.138,18.27,38.601,18.27,40.064z M23.367,42.454c-0.36-0.638-0.965-0.97-1.643-1.162
	c-0.461-0.13-0.941-0.156-1.422-0.154c-0.678,0.004-1.355,0.001-2.033,0.001c0,1.462,0,2.925,0,4.388
	c0.874-0.009,1.749-0.019,2.624-0.029c0.437-0.006,0.858-0.093,1.261-0.264c0.59-0.25,1.089-0.603,1.323-1.236
	C23.674,43.467,23.642,42.94,23.367,42.454z M26.346,44.13c1.068,0,2.138,0,3.221,0c0.033-0.385-0.032-0.736-0.195-1.067
	c-0.239-0.483-0.662-0.736-1.158-0.875c-0.364-0.102-0.734-0.131-1.117-0.096c-0.631,0.059-1.203,0.228-1.661,0.695
	c-0.38,0.389-0.518,0.847-0.405,1.378c0.091,0.43,0.355,0.742,0.708,0.981c0.432,0.294,0.922,0.417,1.436,0.434
	c0.361,0.012,0.725,0.006,1.083-0.031c0.309-0.033,0.611-0.119,0.914-0.19c0.034-0.008,0.078-0.073,0.08-0.112
	c0.008-0.226,0.003-0.452,0.003-0.674c-0.151,0.068-0.292,0.151-0.443,0.193c-0.582,0.161-1.175,0.22-1.771,0.088
	C26.697,44.78,26.331,44.546,26.346,44.13z M25.611,40c0-1.457,0-2.9,0-4.34c-0.448,0-0.886,0-1.319,0c0,1.452,0,2.893,0,4.34
	C24.734,40,25.168,40,25.611,40z M31.303,40.016c-0.461-0.692-0.749-1.466-1.267-2.089c0.308-0.083,0.601-0.186,0.793-0.487
	c0.143-0.224,0.176-0.457,0.169-0.708c-0.009-0.343-0.188-0.595-0.462-0.756c-0.421-0.249-0.893-0.332-1.382-0.329
	c-0.28,0.002-0.562,0-0.842,0c-0.521,0-1.044,0-1.576,0c0,1.472,0,2.926,0,4.376c0.438,0,0.865,0,1.303,0c0-0.582,0-1.151,0-1.731
	c0.198,0,0.388-0.012,0.574,0.002c0.228,0.017,0.425,0.112,0.539,0.32c0.241,0.439,0.476,0.881,0.707,1.326
	c0.035,0.068,0.068,0.097,0.147,0.097c0.397-0.005,0.795-0.002,1.191-0.003C31.228,40.034,31.257,40.024,31.303,40.016z
	 M36.227,43.567c-0.054-0.294-0.173-0.559-0.375-0.784c-0.32-0.358-0.742-0.527-1.197-0.561c-0.657-0.048-1.313-0.019-1.871,0.501
	c0-0.666,0-1.294,0-1.923c-0.448,0-0.866,0-1.281,0c0,1.581,0,3.15,0,4.719c0.436,0,0.859,0,1.296,0c0-0.111,0-0.216,0-0.325
	c0.028,0.007,0.053,0.005,0.064,0.016c0.3,0.286,0.682,0.391,1.072,0.426c0.447,0.041,0.9,0.029,1.321-0.174
	c0.392-0.189,0.691-0.464,0.86-0.875C36.253,44.255,36.288,43.917,36.227,43.567z M33.333,37.475c0-0.366,0-0.716,0-1.077
	c0.774,0,1.537,0,2.305,0c0-0.254,0-0.498,0-0.74c-1.173,0-2.337,0-3.499,0c0,1.461,0,2.912,0,4.37c1.156,0,2.308,0,3.468,0
	c0-0.254,0-0.498,0-0.752c-0.764,0-1.518,0-2.275,0c0-0.352,0-0.691,0-1.048c0.727,0,1.446,0,2.163,0c0-0.256,0-0.497,0-0.752
	C34.769,37.475,34.05,37.475,33.333,37.475z M39.763,42.342c-0.428,0-0.846,0-1.261,0c0,1.075,0,2.138,0,3.207
	c0.421,0,0.836,0,1.261,0C39.763,44.472,39.763,43.405,39.763,42.342z M39.761,41.651c0-0.283,0-0.555,0-0.824
	c-0.425,0-0.84,0-1.26,0c0,0.277,0,0.546,0,0.824C38.931,41.651,39.347,41.651,39.761,41.651z M37.428,37.454
	c0.066-0.274,0.195-0.51,0.405-0.688c0.364-0.31,0.812-0.398,1.272-0.418c0.212-0.009,0.425,0.006,0.635,0.029
	c0.276,0.029,0.552,0.077,0.853,0.121c0.034-0.185,0.073-0.393,0.105-0.601c0.005-0.021-0.029-0.062-0.055-0.071
	c-0.336-0.122-0.678-0.218-1.036-0.234c-0.267-0.011-0.535-0.015-0.801,0.001c-0.26,0.017-0.524,0.042-0.776,0.103
	c-0.523,0.126-1.021,0.315-1.43,0.691c-0.214,0.196-0.387,0.414-0.489,0.684c-0.121,0.324-0.17,0.655-0.12,1.007
	c0.06,0.424,0.219,0.795,0.507,1.106c0.356,0.383,0.805,0.621,1.301,0.759c0.513,0.144,1.037,0.214,1.576,0.186
	c0.42-0.023,0.83-0.083,1.249-0.194c-0.023-0.24-0.044-0.475-0.066-0.709c-0.22,0.03-0.416,0.075-0.615,0.081
	c-0.517,0.014-1.034,0.019-1.537-0.141c-0.399-0.127-0.742-0.325-0.924-0.722C37.335,38.124,37.345,37.792,37.428,37.454z
	 M40.836,31.341c0.19-0.185,0.376-0.374,0.547-0.578c0.218-0.262,0.438-0.528,0.624-0.815c0.313-0.485,0.562-1.003,0.746-1.556
	c0.197-0.587,0.3-1.189,0.324-1.801c0.016-0.409-0.021-0.826-0.087-1.23c-0.104-0.637-0.316-1.247-0.613-1.819
	c-0.302-0.579-0.664-1.123-1.106-1.603c-0.501-0.544-1.046-1.042-1.659-1.463c-0.737-0.505-1.516-0.936-2.353-1.25
	c-0.459-0.172-0.925-0.338-1.397-0.463c-0.571-0.15-1.153-0.259-1.733-0.374c-0.266-0.053-0.535-0.086-0.805-0.114
	c-0.228-0.023-0.457-0.027-0.719-0.042c0.059,0.116-0.063,0.251,0.127,0.3c0.43,0.112,0.868,0.205,1.279,0.366
	c0.511,0.2,1.018,0.425,1.486,0.704c0.678,0.402,1.288,0.898,1.781,1.525c0.287,0.367,0.558,0.748,0.746,1.173
	c0.179,0.404,0.346,0.817,0.482,1.238c0.096,0.291,0.144,0.598,0.193,0.901c0.059,0.371,0.121,0.744,0.137,1.119
	c0.018,0.433,0.006,0.869-0.028,1.301c-0.031,0.402-0.09,0.804-0.173,1.198c-0.185,0.87-0.534,1.676-1.029,2.414
	c-0.362,0.539-0.796,1.016-1.289,1.442c-0.476,0.413-1,0.751-1.563,1.021c-0.773,0.371-1.595,0.604-2.446,0.699
	c-0.45,0.05-0.909,0.046-1.363,0.032c-0.476-0.016-0.955-0.053-1.428-0.116c-0.493-0.066-0.987-0.147-1.468-0.27
	c-0.815-0.208-1.616-0.475-2.363-0.873c-0.463-0.247-0.925-0.499-1.363-0.785c-0.519-0.339-0.988-0.743-1.399-1.214
	c-0.445-0.508-0.798-1.062-0.945-1.73c-0.099-0.451-0.07-0.893,0.141-1.31c0.268-0.528,0.685-0.92,1.16-1.258
	c0.49-0.347,1.017-0.623,1.568-0.858c0.792-0.339,1.61-0.604,2.458-0.765c0.563-0.107,1.128-0.216,1.697-0.286
	c0.541-0.066,1.087-0.099,1.633-0.117c0.447-0.015,0.896,0.015,1.346,0.024c0.046,0,0.094-0.004,0.149-0.007
	c0-1.971,0-3.931,0-5.891c-0.29,0-0.58,0-0.871,0c-0.015,0.009-0.029,0.026-0.044,0.027c-0.399,0.021-0.796,0.037-1.195,0.062
	c-0.219,0.013-0.438,0.031-0.655,0.063c-0.339,0.049-0.676,0.105-1.011,0.17c-0.449,0.087-0.905,0.161-1.345,0.286
	c-0.599,0.172-1.193,0.362-1.772,0.591c-0.486,0.192-0.96,0.429-1.416,0.685c-0.548,0.307-1.057,0.676-1.525,1.099
	c-0.407,0.369-0.774,0.77-1.096,1.215c-0.372,0.519-0.673,1.077-0.884,1.68c-0.082,0.236-0.165,0.476-0.21,0.721
	c-0.068,0.369-0.098,0.745-0.152,1.116c-0.076,0.52-0.016,1.036,0.074,1.543c0.082,0.459,0.226,0.906,0.413,1.338
	c0.271,0.624,0.624,1.195,1.062,1.709c0.294,0.347,0.61,0.683,0.955,0.981c0.406,0.352,0.836,0.686,1.289,0.976
	c0.473,0.302,0.977,0.555,1.479,0.806c0.342,0.17,0.696,0.322,1.061,0.441c0.528,0.173,1.066,0.324,1.607,0.456
	c0.469,0.114,0.946,0.204,1.423,0.274c0.426,0.062,0.854,0.097,1.284,0.117c0.407,0.019,0.816,0.019,1.223,0.001
	c0.584-0.025,1.169-0.063,1.75-0.117c0.416-0.039,0.833-0.09,1.24-0.182c0.557-0.125,1.104-0.293,1.655-0.444
	c0.609-0.167,1.191-0.41,1.753-0.692c0.44-0.221,0.859-0.485,1.28-0.741C39.987,32.096,40.429,31.738,40.836,31.341z M31.915,24.458
	c-0.316,0.041-0.638,0.056-0.947,0.124c-0.503,0.112-0.992,0.287-1.446,0.531c-0.611,0.327-1.154,0.747-1.59,1.293
	c-0.264,0.331-0.485,0.687-0.63,1.087c-0.115,0.318-0.229,0.635-0.229,0.979c-0.001,0.325-0.025,0.654,0.019,0.974
	c0.046,0.331,0.165,0.646,0.326,0.946c0.215,0.396,0.487,0.747,0.816,1.043c0.263,0.236,0.561,0.441,0.859,0.632
	c0.474,0.302,0.981,0.532,1.527,0.675c0.307,0.08,0.612,0.16,0.923,0.226c0.176,0.038,0.357,0.048,0.549,0.072
	c0-2.885,0-5.745,0-8.614C32.026,24.438,31.971,24.452,31.915,24.458z M45.178,44.96c-0.303,0.066-0.592,0.082-0.865-0.056
	c-0.152-0.076-0.254-0.19-0.241-0.386c0.013-0.222,0.002-0.445,0.002-0.668c0-0.27,0-0.54,0-0.825c0.366,0,0.717,0,1.064,0
	c0-0.241,0-0.465,0-0.7c-0.358,0-0.706,0-1.068,0c0-0.284,0-0.557,0-0.826c-0.443,0-0.871,0-1.311,0c0,0.281,0,0.551,0,0.836
	c-0.341,0-0.672,0-1.002,0c0,0.237,0,0.458,0,0.694c0.337,0,0.669,0,1.009,0c0,0.069,0,0.122,0,0.174
	c0,0.538-0.004,1.075,0.002,1.612c0.003,0.205,0.079,0.393,0.224,0.541c0.213,0.219,0.487,0.321,0.782,0.374
	c0.101,0.018,0.2,0.039,0.3,0.058c0.164,0,0.33,0,0.495,0c0.129-0.019,0.26-0.028,0.385-0.062c0.08-0.021,0.217,0.028,0.223-0.118
	C45.184,45.393,45.178,45.177,45.178,44.96z M45.73,35.676c-1.587,0-3.173,0-4.76,0c0,0.251,0,0.481,0,0.728
	c0.591,0,1.173,0,1.771,0c0,1.229,0,2.44,0,3.653c0.42,0,0.826,0,1.246,0c0-1.219,0-2.432,0-3.654c0.59,0,1.166,0,1.742,0
	C45.73,36.16,45.73,35.918,45.73,35.676z"/>
</svg>
