<?xml version="1.0" encoding="utf-8"?>
<!-- Generator: Adobe Illustrator 16.0.0, SVG Export Plug-In . SVG Version: 6.00 Build 0)  -->
<!DOCTYPE svg PUBLIC "-//W3C//DTD SVG 1.1//EN" "http://www.w3.org/Graphics/SVG/1.1/DTD/svg11.dtd">
<svg version="1.1" id="Layer_1" xmlns="http://www.w3.org/2000/svg" xmlns:xlink="http://www.w3.org/1999/xlink" x="0px" y="0px"
	 width="64px" height="64px" viewBox="0 0 64 64" enable-background="new 0 0 64 64" xml:space="preserve">
<path d="M53.313,29.718l1.38,3.661h-2.811L53.313,29.718z M21.958,30.308c-0.239-0.24-0.545-0.415-0.915-0.525
	c-0.37-0.109-0.813-0.165-1.325-0.165h-1.451V35.6h1.451c0.513,0,0.955-0.055,1.325-0.165c0.37-0.109,0.676-0.284,0.915-0.524
	c0.241-0.24,0.417-0.551,0.53-0.931c0.114-0.38,0.17-0.837,0.17-1.37c0-0.534-0.056-0.991-0.17-1.371
	C22.375,30.858,22.199,30.548,21.958,30.308z M38.15,30.453c-0.217-0.297-0.493-0.535-0.83-0.716c-0.337-0.18-0.742-0.27-1.216-0.27
	s-0.88,0.09-1.221,0.27c-0.34,0.181-0.618,0.419-0.835,0.716s-0.377,0.632-0.48,1.005c-0.104,0.374-0.155,0.757-0.155,1.151
	c0,0.387,0.052,0.769,0.155,1.146s0.264,0.713,0.48,1.01s0.495,0.536,0.835,0.716c0.341,0.18,0.747,0.27,1.221,0.27
	s0.879-0.09,1.216-0.27s0.613-0.419,0.83-0.716s0.377-0.633,0.48-1.01s0.155-0.759,0.155-1.146c0-0.395-0.052-0.777-0.155-1.151
	C38.527,31.085,38.367,30.75,38.15,30.453z M60.24,15.152v33.695c0,0.803-0.65,1.454-1.454,1.454H5.214
	c-0.804,0-1.454-0.651-1.454-1.454V15.152c0-0.803,0.65-1.454,1.454-1.454h53.572C59.59,13.698,60.24,14.349,60.24,15.152z
	 M15.273,34.38c0.014-0.73-0.223-1.329-0.638-1.939s-0.939-1.159-1.391-1.754c-0.461-0.608-0.968-1.203-1.301-1.88
	c-0.484-0.98-0.572-2.328,0.7-3.243c-1.265,0.574-2.534,1.14-3.793,1.726c-0.862,0.402-1.283,1.104-1.266,2.052
	c0.017,0.912,0.402,1.692,0.956,2.388c0.521,0.654,1.074,1.284,1.627,1.913c0.047,0.055,0.085,0.104,0.115,0.151
	c0.004,0.005,0.011,0.012,0.015,0.017c-0.308,0.13-0.613,0.271-0.909,0.408c-0.21,0.097-0.42,0.193-0.632,0.287
	c-1.164,0.516-1.56,1.511-1.083,2.731c0.287,0.74,0.946,1.2,1.718,1.2c0.159,0,0.324-0.02,0.487-0.059l0.029-0.01
	c0.176-0.069,0.334-0.155,0.479-0.251c1.26-0.547,2.507-1.125,3.739-1.727C14.936,35.997,15.256,35.266,15.273,34.38z
	 M23.339,32.609c0-1.188-0.275-2.073-0.825-2.657c-0.551-0.583-1.369-0.888-2.457-0.915h-2.471v7.144h2.471
	c1.088-0.026,1.906-0.332,2.457-0.916C23.063,34.682,23.339,33.796,23.339,32.609z M32.563,29.037h-0.681l-1.63,6.253h-0.02
	l-1.752-6.253h-0.85L25.89,35.29h-0.02l-1.621-6.253h-0.73l1.98,7.144h0.74l1.801-6.393h0.021l1.811,6.393h0.722L32.563,29.037z
	 M39.466,32.609c0-0.494-0.07-0.964-0.21-1.411c-0.14-0.446-0.35-0.842-0.63-1.186s-0.631-0.616-1.051-0.82
	c-0.42-0.203-0.91-0.305-1.471-0.305s-1.053,0.102-1.476,0.305c-0.424,0.204-0.775,0.477-1.056,0.82s-0.49,0.739-0.631,1.186
	c-0.14,0.447-0.21,0.917-0.21,1.411c0,0.493,0.07,0.964,0.21,1.41c0.141,0.447,0.351,0.84,0.631,1.181
	c0.28,0.34,0.632,0.612,1.056,0.815c0.423,0.203,0.915,0.305,1.476,0.305s1.051-0.102,1.471-0.305s0.771-0.476,1.051-0.815
	c0.28-0.341,0.49-0.733,0.63-1.181C39.396,33.573,39.466,33.103,39.466,32.609z M45.009,35.6h-4.002v-6.563h-0.681v7.144h4.683V35.6
	z M56.523,36.181l-2.801-7.144h-0.761L50.324,35.6h-3.945v-6.563h-0.681v7.144h4.393h0.29h0.43l0.861-2.221h3.25l0.871,2.221H56.523
	z M10.596,34.146c-0.02,0.01-0.039,0.019-0.062,0.027c-0.324,0.135-0.649,0.286-0.965,0.432c-0.213,0.099-0.424,0.196-0.638,0.291
	c-0.954,0.422-1.25,1.178-0.859,2.185c0.227,0.58,0.72,0.927,1.32,0.927c0.122,0,0.247-0.015,0.373-0.043
	c0.987-0.4,1.393-1.354,1.443-2.115c0.029-0.442-0.099-0.848-0.269-1.181C10.828,34.465,10.706,34.288,10.596,34.146z"/>
</svg>
