<?xml version="1.0" encoding="utf-8"?>
<!-- Generator: Adobe Illustrator 16.0.0, SVG Export Plug-In . SVG Version: 6.00 Build 0)  -->
<!DOCTYPE svg PUBLIC "-//W3C//DTD SVG 1.1//EN" "http://www.w3.org/Graphics/SVG/1.1/DTD/svg11.dtd">
<svg version="1.1" id="Layer_1" xmlns="http://www.w3.org/2000/svg" xmlns:xlink="http://www.w3.org/1999/xlink" x="0px" y="0px"
	 width="64px" height="64px" viewBox="0 0 64 64" enable-background="new 0 0 64 64" xml:space="preserve">
<path d="M58.786,13.698H5.214c-0.804,0-1.454,0.651-1.454,1.454v33.695c0,0.803,0.65,1.454,1.454,1.454h53.572
	c0.804,0,1.454-0.651,1.454-1.454V15.152C60.24,14.349,59.59,13.698,58.786,13.698z M45.272,39.707h-2.172l1.72-3.261l-3.661-6.871
	c0.165,0.396,0.259,0.869,0.259,1.434v4.223c0,0.488,0.07,1.252,0.07,1.252h-1.806c0,0-0.048-0.616-0.048-1.241
	c0,0-0.917,1.572-3.761,1.572c-2.087,0-3.632-1.005-3.632-2.853c0-0.106,0.006-0.209,0.017-0.309
	c-0.539,1.902-2.164,3.138-4.36,3.138c-2.575,0-3.522-1.482-3.522-1.482c0,0.562-0.069,1.175-0.069,1.175H22.39
	c0,0,0.043-0.855,0.043-1.463v-2.286h-7.679c0,1.616,1.228,2.769,2.934,2.769c2.096,0,2.526-1.471,2.526-1.471h2.01
	c0,0-0.266,2.732-4.414,2.732c-3.523,0-5.044-1.732-5.044-4.483c0-3.473,2.261-4.624,4.974-4.624c3.626,0,4.664,2.395,4.692,3.994
	v-7.357h1.961v4.834c0,0,0.832-1.445,3.507-1.445c2.857,0,4.549,2.018,4.549,4.527c0,0.312-0.026,0.612-0.073,0.9
	c0.457-1.306,2.057-1.951,4.697-1.951h2.382v-0.42c0-1.181-1.04-1.795-2.382-1.795c-2.065,0-2.171,1.305-2.171,1.305h-2.032
	c0-0.357,0.262-2.592,4.343-2.592c1.395,0,2.921,0.293,3.694,1.447l-0.584-1.097h2.286l3.28,6.572l3.273-6.572h2.07L45.272,39.707z
	 M30.419,32.21c0,1.967-1.353,3.253-2.999,3.253c-1.966,0-3.026-1.535-3.026-3.236c0-1.585,0.952-3.218,3.013-3.218
	C29.249,29.009,30.419,30.376,30.419,32.21z M20.403,31.439h-5.604c0-1.583,1.445-2.487,2.872-2.487
	C19.295,28.953,20.403,29.948,20.403,31.439z M39.457,32.42v0.56c0,0.731-0.451,2.548-3.107,2.548c-1.454,0-2.078-0.726-2.078-1.567
	C34.272,32.43,36.372,32.42,39.457,32.42z"/>
</svg>
