<?xml version="1.0" encoding="utf-8"?>
<!-- Generator: Adobe Illustrator 16.0.0, SVG Export Plug-In . SVG Version: 6.00 Build 0)  -->
<!DOCTYPE svg PUBLIC "-//W3C//DTD SVG 1.1//EN" "http://www.w3.org/Graphics/SVG/1.1/DTD/svg11.dtd">
<svg version="1.1" id="Layer_1" xmlns="http://www.w3.org/2000/svg" xmlns:xlink="http://www.w3.org/1999/xlink" x="0px" y="0px"
	 width="64px" height="64px" viewBox="0 0 64 64" enable-background="new 0 0 64 64" xml:space="preserve">
<path d="M58.786,13.698H5.214c-0.804,0-1.454,0.651-1.454,1.454v33.695c0,0.803,0.65,1.454,1.454,1.454h53.572
	c0.804,0,1.454-0.651,1.454-1.454V15.152C60.24,14.349,59.59,13.698,58.786,13.698z M13.437,38.465
	c-2.107-1.697-3.341-3.788-3.312-6.032c0.07-5.551,7.854-9.949,17.383-9.824c5.969,0.083,11.206,1.918,14.266,4.645
	c-3.092-2.177-7.656-3.59-12.781-3.655c-9.394-0.126-17.069,4.312-17.144,9.91C11.83,35.204,12.4,36.9,13.437,38.465z
	 M19.971,37.389c0.59,0.308,1.322,0.465,2.179,0.465c0.665,0,1.468-0.204,2.405-0.611c0.94-0.406,1.539-0.61,1.801-0.61
	c0.474,0,0.878,0.163,1.209,0.487c0.332,0.326,0.502,0.717,0.502,1.173c0,1.043-0.841,1.858-2.524,2.442
	c-1.28,0.442-2.589,0.659-3.92,0.659c-2.136,0-3.864-0.659-5.187-1.977c-1.326-1.318-1.986-2.979-1.986-4.983
	c0-1.908,0.688-3.536,2.064-4.893c1.375-1.364,3.079-2.042,5.108-2.042c1.897,0,3.475,0.644,4.747,1.927
	c1.271,1.287,1.905,2.818,1.905,4.591c0,0.636-0.161,1.076-0.485,1.321c-0.324,0.244-0.829,0.369-1.511,0.369h-7.411
	C18.867,36.438,19.231,37,19.971,37.389z M38.606,40.786c-0.966,0.405-1.982,0.607-3.052,0.607c-2.069,0-3.751-0.69-5.044-2.074
	c-1.244-1.321-1.866-2.947-1.866-4.885s0.632-3.578,1.906-4.922c1.27-1.34,2.935-2.013,5.004-2.013c1.192,0,2.219,0.163,3.076,0.489
	c1.193,0.437,1.787,1.123,1.787,2.05c0,0.474-0.156,0.889-0.472,1.246c-0.312,0.357-0.719,0.54-1.204,0.54
	c-0.334,0-0.811-0.104-1.441-0.309c-0.628-0.201-1.126-0.304-1.493-0.304c-0.979,0-1.737,0.322-2.28,0.967
	c-0.506,0.585-0.759,1.334-0.759,2.257c0,0.87,0.229,1.608,0.681,2.206c0.508,0.695,1.212,1.042,2.122,1.042
	c0.404,0,0.951-0.108,1.648-0.331c0.699-0.218,1.208-0.329,1.522-0.329c0.45,0,0.846,0.181,1.177,0.538
	c0.334,0.36,0.499,0.751,0.499,1.171C40.418,39.595,39.812,40.28,38.606,40.786z M52.01,39.319
	c-1.299,1.384-2.981,2.074-5.049,2.074s-3.75-0.69-5.045-2.074c-1.243-1.321-1.865-2.947-1.865-4.885s0.622-3.564,1.865-4.885
	c1.313-1.369,2.995-2.05,5.045-2.05c2.067,0,3.75,0.681,5.049,2.05c1.241,1.32,1.866,2.946,1.866,4.885S53.251,37.998,52.01,39.319z
	 M49.072,32.228c0.449,0.597,0.676,1.335,0.676,2.206c0,0.87-0.227,1.616-0.676,2.229c-0.506,0.683-1.208,1.019-2.111,1.019
	c-0.901,0-1.604-0.335-2.107-1.019c-0.452-0.613-0.676-1.359-0.676-2.229c0-0.871,0.224-1.609,0.676-2.206
	c0.503-0.679,1.206-1.018,2.107-1.018C47.864,31.21,48.566,31.548,49.072,32.228z M23.287,31.483
	c0.553,0.476,0.844,1.003,0.86,1.583h-5.28c0-0.579,0.277-1.107,0.836-1.583c0.557-0.477,1.157-0.712,1.802-0.712
	C22.136,30.771,22.726,31.006,23.287,31.483z"/>
</svg>
