<?xml version="1.0" encoding="utf-8"?>
<!-- Generator: Adobe Illustrator 16.0.0, SVG Export Plug-In . SVG Version: 6.00 Build 0)  -->
<!DOCTYPE svg PUBLIC "-//W3C//DTD SVG 1.1//EN" "http://www.w3.org/Graphics/SVG/1.1/DTD/svg11.dtd">
<svg version="1.1" id="Layer_1" xmlns="http://www.w3.org/2000/svg" xmlns:xlink="http://www.w3.org/1999/xlink" x="0px" y="0px"
	 width="64px" height="64px" viewBox="0 0 64 64" enable-background="new 0 0 64 64" xml:space="preserve">
<path d="M30.452,30.64v1.362h-2.499v3.441h-0.851c-0.567,0-1.035-0.474-1.035-1.074V30.64H30.452z M36.181,34.441v-0.085
	l-0.005-0.017L36.181,34.441z M24.061,44.001c-0.276,0-0.259,0.303-0.259,0.617v0.138h0.537v-0.303
	C24.338,44.117,24.278,44.001,24.061,44.001z M36.175,22.762l0.005-0.014v-0.399L36.175,22.762z M60.24,15.152v33.695
	c0,0.803-0.65,1.454-1.454,1.454H5.214c-0.804,0-1.454-0.651-1.454-1.454V15.152c0-0.803,0.65-1.454,1.454-1.454h53.572
	C59.59,13.698,60.24,14.349,60.24,15.152z M21.919,44.904c0-0.941-0.08-1.503-0.834-1.503c-0.529,0-0.818,0.46-0.788,1.269v0.895
	c-0.013,1.004,0.242,1.434,0.867,1.434c0.55,0,0.768-0.482,0.746-1.247h-0.536c0.008,0.438-0.055,0.647-0.251,0.647
	c-0.163,0-0.278-0.085-0.289-0.537v-0.498h1.085V44.904z M22.861,42.358h-0.514v4.555h0.514V42.358z M24.886,44.904
	c0-0.941-0.08-1.503-0.837-1.503c-0.528,0-0.81,0.46-0.785,1.269v0.895c-0.008,1.004,0.243,1.434,0.865,1.434
	c0.553,0,0.771-0.482,0.746-1.247h-0.542c0.006,0.438-0.046,0.647-0.25,0.647c-0.154,0-0.273-0.085-0.281-0.537v-0.498h1.085V44.904
	z M26.659,44.406c0.008-0.506-0.184-1.004-0.732-1.004c-0.413,0-0.738,0.25-0.732,1.217v1.104c-0.022,0.912,0.25,1.277,0.732,1.277
	c0.54,0,0.732-0.391,0.732-1.106v-0.316h-0.537v0.316c-0.016,0.272-0.022,0.498-0.185,0.506c-0.157-0.03-0.212-0.154-0.207-0.823
	v-0.812c0-0.413,0-0.763,0.207-0.763c0.116,0,0.176,0.11,0.185,0.297v0.38h0.537V44.406z M27.757,43.489h-0.233v-0.944h-0.545v0.944
	h-0.209v0.573h0.217v2.323c0,0.639,0.443,0.589,0.771,0.542v-0.623c-0.068,0.008-0.217,0.033-0.233-0.107v-2.136h0.233V43.489z
	 M29.057,43.426c-0.085,0.008-0.193,0-0.341,0.188c-0.077,0.093-0.141,0.231-0.209,0.481h-0.008v-0.605h-0.523v3.424h0.545v-1.977
	c0.009-0.506,0.234-0.616,0.537-0.569V43.426z M30.835,45.326c0-1.176-0.011-1.924-0.812-1.924c-0.817,0-0.826,0.749-0.826,1.924
	c-0.008,1.184,0.119,1.698,0.826,1.673C30.725,47.024,30.84,46.509,30.835,45.326z M32.748,44.266
	c0.017-0.608-0.234-0.864-0.536-0.864c-0.124,0-0.366,0.039-0.49,0.438h-0.008v-0.35h-0.537v3.424h0.537v-2.218
	c-0.008-0.358,0.063-0.639,0.265-0.633c0.203,0.019,0.234,0.237,0.234,0.57v2.282h0.536V44.266z M33.714,43.486h-0.545v3.427h0.545
	V43.486z M33.714,42.358h-0.545v0.715h0.545V42.358z M33.838,32.002v8.121h9.841v-9.488h-5.596l-0.025,0.085v4.715
	c-0.886,0.146-1.822-0.055-1.877-1.079V22.748c0.052-1.021,0.994-1.219,1.864-1.082v4.404h5.635V17h-9.841v13.64h-3.386V19.618
	c0.017-0.694,0.25-1.313,0.732-1.814c0.237-0.253,0.529-0.457,0.848-0.591l0.107-0.05l0.11-0.039l0.118-0.03l0.108-0.03l0.124-0.025
	l0.119-0.014l0.115-0.017L32.958,17H22.83c-1.456,0-2.516,1.178-2.516,2.64v17.846c0,1.454,1.06,2.637,2.516,2.637H32.88
	l-0.125-0.014l-0.115-0.016l-0.127-0.022l-0.115-0.03l-0.11-0.042l-0.116-0.039l-0.11-0.038c-0.355-0.16-0.583-0.322-0.864-0.592
	c-0.242-0.256-0.438-0.559-0.567-0.889l-0.039-0.107l-0.033-0.127l-0.03-0.115l-0.03-0.116l-0.017-0.127l-0.017-0.115l-0.005-0.132
	l-0.008-0.116v-5.483H33.838z M35.559,44.406c0-0.506-0.196-1.004-0.741-1.004c-0.41,0-0.732,0.25-0.732,1.217v1.104
	c-0.022,0.912,0.259,1.277,0.732,1.277c0.537,0,0.741-0.391,0.741-1.106v-0.316h-0.542v0.316C35,46.165,35,46.391,34.834,46.399
	c-0.162-0.03-0.217-0.154-0.204-0.823v-0.812c-0.006-0.413-0.006-0.763,0.204-0.763c0.11,0,0.17,0.11,0.182,0.297v0.38h0.542V44.406
	z M38.173,44.406c0.011-0.506-0.192-1.004-0.738-1.004c-0.413,0-0.732,0.25-0.724,1.217v1.104c-0.022,0.912,0.248,1.277,0.724,1.277
	c0.537,0,0.738-0.391,0.738-1.106v-0.316h-0.536v0.316c-0.014,0.272-0.022,0.498-0.188,0.506c-0.163-0.03-0.226-0.154-0.207-0.823
	v-0.812c0-0.413,0-0.763,0.207-0.763c0.11,0,0.179,0.11,0.188,0.297v0.38h0.536V44.406z M40.043,46.914
	c-0.03-0.165-0.039-0.319-0.039-0.476v-2.026c0-0.457-0.039-1.01-0.779-1.01c-0.677,0-0.817,0.451-0.817,1.098h0.515
	c0-0.311,0.041-0.498,0.289-0.498c0.141,0,0.226,0.024,0.248,0.179c0.042,0.273-0.038,0.438-0.264,0.57
	c-0.426,0.256-0.801,0.452-0.801,1.223c0,0.715,0.188,1.026,0.622,1.026c0.188,0,0.353-0.157,0.485-0.435
	c0,0.124,0,0.239,0.03,0.349H40.043z M41.834,45.785c-0.017-0.226-0.226-0.553-0.358-0.671l-0.451-0.435
	c-0.102-0.102-0.204-0.195-0.204-0.396c0-0.195,0.102-0.281,0.229-0.281c0.193,0,0.264,0.148,0.253,0.528h0.54
	c0.016-0.732-0.226-1.128-0.757-1.128c-0.512,0-0.801,0.297-0.801,0.826c0,0.49,0.179,0.81,0.452,1.082l0.289,0.297
	c0.102,0.099,0.256,0.209,0.264,0.405c0.039,0.218-0.063,0.388-0.225,0.388c-0.119,0-0.29,0.017-0.25-0.614h-0.537
	c-0.061,1.043,0.477,1.214,0.754,1.214C41.788,46.999,41.89,46.385,41.834,45.785z M43.704,44.266
	c0.017-0.608-0.234-0.865-0.545-0.865c-0.11,0-0.336,0.034-0.484,0.438h-0.005v-1.48h-0.545v4.555h0.545V44.64
	c-0.008-0.374,0.06-0.646,0.264-0.638c0.204,0.017,0.226,0.234,0.226,0.567v2.345h0.545V44.266z M30.023,44.001
	c-0.289,0-0.289,0.335-0.289,0.655v1.137c0,0.418,0.033,0.605,0.289,0.605c0.25,0,0.272-0.187,0.272-0.605v-1.137
	C30.295,44.337,30.295,44.001,30.023,44.001z M27.953,21.68h-0.865c-0.553,0-1.021,0.452-1.021,1.021v3.377h1.886V21.68z
	 M38.931,45.956c0,0.264,0.063,0.443,0.256,0.443c0.314,0,0.264-0.592,0.272-0.924v-0.367c-0.132,0.132-0.294,0.27-0.443,0.435
	C38.944,45.645,38.931,45.815,38.931,45.956z M21.093,44.001c-0.264,0-0.259,0.303-0.259,0.617v0.138h0.548v-0.303
	C21.374,44.117,21.31,44.001,21.093,44.001z"/>
</svg>
