<?xml version="1.0" encoding="utf-8"?>
<!-- Generator: Adobe Illustrator 16.0.0, SVG Export Plug-In . SVG Version: 6.00 Build 0)  -->
<!DOCTYPE svg PUBLIC "-//W3C//DTD SVG 1.1//EN" "http://www.w3.org/Graphics/SVG/1.1/DTD/svg11.dtd">
<svg version="1.1" id="Layer_1" xmlns="http://www.w3.org/2000/svg" xmlns:xlink="http://www.w3.org/1999/xlink" x="0px" y="0px"
	 width="64px" height="64px" viewBox="0 0 64 64" enable-background="new 0 0 64 64" xml:space="preserve">
<path fill-rule="evenodd" clip-rule="evenodd" d="M23.406,24.52c-0.295,0-0.576,0-0.9,0c0-0.294,0-0.559,0-0.861
	C22.811,23.951,23.097,24.222,23.406,24.52z M16.235,25.678c0.191-0.154,0.352-0.293,0.524-0.419
	c0.163-0.12,0.338-0.227,0.513-0.342c-0.938-0.664-0.938-0.664-1.408-1.664C15.352,24.013,15.531,25.103,16.235,25.678z
	 M17.99,29.387c-1.044,0-1.62-0.398-1.996-1.376c-0.047-0.125-0.097-0.249-0.182-0.458c-0.253,0.831-0.253,1.57-0.02,2.297
	c0.388,1.2,1.295,1.842,2.548,1.842c2.334,0,4.669,0.001,7.003,0.002c0.165,0,0.331,0,0.522,0c0-0.783,0-1.512,0-2.308
	c-0.18,0-0.333,0-0.484,0C22.917,29.387,20.455,29.388,17.99,29.387z M16.57,26.239c-0.33,0.7-0.305,1.412,0.076,2.19
	c0.361-1.065,0.494-1.16,1.526-1.159c1.146,0,2.292,0,3.44,0c0.146,0,0.295,0,0.406,0c0.052-0.468,0.042-0.875,0.153-1.247
	c0.106-0.364,0.336-0.679,0.52-1.043l-4.392-0.001C17.479,25.005,16.911,25.517,16.57,26.239z M42.739,43.896
	c1.396,0.075,1.16,0.141,1.264-0.715c-0.364,0-0.726,0-1.137,0C42.821,43.438,42.781,43.664,42.739,43.896z M22.567,26.222
	c-0.083,0.678-0.017,1.373-0.017,2.098c0.647-0.958,0.827-1.051,1.973-1.051c0.447,0,0.894,0,1.348,0c0-0.803,0-1.533,0-2.305
	c-0.614,0-1.208-0.001-1.799,0C23.27,24.966,22.662,25.419,22.567,26.222z M40.301,22.74c1.486,0,2.973,0,4.458,0
	c0.948,0,1.897,0.008,2.845-0.011c0.121-0.002,0.338-0.142,0.341-0.225c0.028-0.674,0.017-1.35,0.017-2.048
	c-0.17-0.012-0.296-0.028-0.418-0.028c-2.28-0.001-4.559-0.002-6.838,0c-0.154,0-0.313,0.003-0.464,0.033
	c-0.721,0.138-1.188,0.584-1.422,1.256c-0.234,0.67-0.189,1.32,0.283,1.977C39.379,22.811,39.474,22.741,40.301,22.74z
	 M35.081,24.964c-1.829-0.001-3.657,0-5.486,0c-0.153,0-0.305,0-0.471,0c0,0.787,0,1.527,0,2.266
	c0.071,0.017,0.111,0.034,0.151,0.034c1.9,0.002,3.8,0.052,5.697-0.011c1.935-0.063,3.31-2.166,2.648-4.021
	C37.042,24.688,36.626,24.965,35.081,24.964z M45.898,29.404c-2.323-0.061-4.648-0.017-6.973-0.017c-0.151,0-0.303,0-0.48,0
	c0,0.777,0,1.508,0,2.306c0.178,0,0.317,0,0.456,0c2.312,0,4.62-0.005,6.931,0.002c0.907,0.003,1.64-0.366,2.261-1
	c0.704-0.719,0.905-1.987,0.501-2.964C48.129,29.011,47.207,29.438,45.898,29.404z M18.707,20.415
	c-1.348-0.027-2.212,1.078-2.316,2.146c-0.052,0.525,0.138,1.01,0.452,1.212c0.243-0.938,0.368-1.033,1.347-1.033
	c2.396,0,4.792,0,7.188,0c0.163,0,0.328,0,0.503,0c0-0.788,0-1.507,0-2.313c-0.193,0-0.347,0-0.498,0
	C23.156,20.427,20.93,20.459,18.707,20.415z M39.497,26.632c0.714,0.452,1.513,0.626,2.344,0.633
	c1.543,0.012,3.086,0.007,4.627,0.004c0.531,0,0.886,0.238,1.067,0.737c0.028,0.084,0.066,0.165,0.126,0.306
	c0.092-0.152,0.16-0.241,0.205-0.339c0.607-1.37-0.418-2.993-1.916-3.006c-1.77-0.015-3.54-0.007-5.31-0.002
	c-0.628,0.002-1.172-0.218-1.6-0.661c-0.288-0.3-0.513-0.662-0.782-1.018C37.893,24.744,38.307,25.878,39.497,26.632z M60.24,15.152
	v33.695c0,0.803-0.65,1.454-1.454,1.454H5.214c-0.804,0-1.454-0.651-1.454-1.454V15.152c0-0.803,0.65-1.454,1.454-1.454h53.572
	C59.59,13.698,60.24,14.349,60.24,15.152z M22.033,45.585c0.364-0.504,0.724-1.014,1.035-1.551c0.314-0.542,0.572-1.117,0.902-1.775
	c-0.741,0-1.32,0.016-1.899-0.007c-0.27-0.011-0.373,0.105-0.506,0.326c-0.574,0.967-1.184,1.914-1.784,2.867
	c-0.068,0.11-0.155,0.208-0.278,0.368c0.771,0,1.448,0.013,2.127-0.01C21.769,45.799,21.951,45.699,22.033,45.585z M26.397,41.498
	c-2.715,0-5.302,0-7.89,0.003c-0.077,0-0.182,0.025-0.229,0.078c-0.319,0.365-0.629,0.74-1.002,1.186c0.47,0,0.853,0,1.285,0
	c-0.543,1.221-1.435,2.09-2.36,3.048c0.836,0,1.581,0.002,2.325-0.005c0.073,0,0.163-0.049,0.217-0.104
	c0.948-0.986,1.713-2.097,2.316-3.362c-0.183-0.021-0.326-0.039-0.473-0.056c-0.005-0.058-0.01-0.117-0.015-0.175
	c1.137-0.615,2.394-0.212,3.639-0.356c-0.142,0.789-0.265,1.496-0.396,2.202c-0.171,0.904-0.173,0.904-1.068,0.988
	c-0.015,0.001-0.026,0.013-0.073,0.038c-0.043,0.248-0.092,0.52-0.142,0.805c1.047,0,2.061,0,3.093,0
	C25.88,44.368,26.131,42.971,26.397,41.498z M21.471,41.013c0.066-0.167,0.114-0.281,0.185-0.455c-0.701,0-1.342,0.047-1.968-0.013
	c-0.612-0.059-0.943,0.198-1.148,0.747c2.514,0,5.016,0,7.521,0c-0.132-0.146-0.29-0.241-0.453-0.258
	c-0.308-0.031-0.617-0.021-0.927-0.021C23.619,41.012,22.561,41.013,21.471,41.013z M26.702,39.668c-2.895,0-5.758,0-8.674,0
	c0.406,0.459,0.78,0.75,1.42,0.735c2.162-0.048,4.324-0.019,6.488-0.019C26.62,40.385,26.62,40.386,26.702,39.668z M20.645,38.214
	c0.118-0.158,0.203-0.272,0.313-0.424c-0.881,0-1.705,0-2.568,0c0.428,0.574,0.922,0.765,1.593,0.741
	c1.524-0.055,3.051-0.017,4.574-0.016c0.775,0,1.553,0,2.361,0c0.045-0.247,0.087-0.473,0.134-0.733c-0.659,0-1.262-0.01-1.864,0.01
	c-0.102,0.003-0.267,0.125-0.285,0.214c-0.05,0.253-0.199,0.265-0.399,0.263c-1.188-0.006-2.377-0.003-3.565-0.006
	C20.853,38.263,20.765,38.235,20.645,38.214z M27.109,37.623c-0.095-0.311-0.221-0.516-0.393-0.644
	c-0.173-0.128-0.397-0.178-0.686-0.18c-1.16,0.007-2.266,0.007-3.485,0.005c-0.285,0.006-0.569,0.029-0.859,0.059
	c-0.291,0.029-0.589,0.064-0.896,0.091c-0.012-0.057-0.038-0.182-0.06-0.293c-0.609-0.007-1.217-0.014-1.824-0.018
	c-0.18,0.001-0.358,0.004-0.541,0.008c0.17,0.182,0.333,0.333,0.473,0.506c0.3,0.379,0.692,0.481,1.158,0.455L27.109,37.623z
	 M18.234,38.719c0.489,0.78,1.205,0.822,1.991,0.682c0.026-0.131,0.053-0.262,0.081-0.397c1.467,0,2.903,0,4.363,0
	c0,0.154,0,0.285,0,0.426c0.702,0,1.378,0,2.089,0c0.043-0.224,0.085-0.441,0.138-0.71C23.974,38.719,21.104,38.719,18.234,38.719z
	 M28.503,45.576c0.326-0.576,0.671-1.151,0.902-1.767c0.175-0.458,0.319-0.811,0.924-0.63c0.04-0.267,0.073-0.482,0.109-0.723
	c-0.196-0.017-0.348-0.029-0.554-0.047c0.062-0.32,0.114-0.602,0.168-0.893c-0.609,0-1.174,0-1.786,0
	c0.113,0.921-0.461,1.022-1.153,0.916c-0.049,0.265-0.087,0.47-0.135,0.725c0.306,0,0.567,0,0.948,0
	c-0.454,0.935-0.87,1.788-1.29,2.656c0.484,0,0.978,0.017,1.469-0.01C28.245,45.795,28.437,45.693,28.503,45.576z M33.826,39.679
	c-1.065-0.168-1.137-0.126-1.162,0.667C33.919,40.446,33.728,40.446,33.826,39.679z M32.466,41.29c0.382,0,0.728,0,1.084,0
	c0.043-0.242,0.083-0.46,0.123-0.678C32.636,40.423,32.584,40.453,32.466,41.29z M33.888,39.427c0.043-0.229,0.083-0.446,0.13-0.698
	c-1.205-0.088-1.17-0.139-1.162,0.698C33.193,39.427,33.528,39.427,33.888,39.427z M34.051,38.493
	c0.047-0.242,0.09-0.458,0.137-0.697c-0.879,0-1.715,0-2.568,0c-0.042,0.237-0.08,0.454-0.122,0.699c0.38,0,0.728,0,1.049,0
	c0.106-0.193,0.2-0.367,0.295-0.542c0.038,0.008,0.073,0.016,0.109,0.023c0.017,0.168,0.032,0.337,0.049,0.516
	C33.354,38.493,33.699,38.493,34.051,38.493z M34.188,37.567c-0.316-0.534-0.798-0.58-1.275-0.636
	c-0.015-0.104-0.028-0.196-0.04-0.294c-0.341,0-0.664,0-1.012,0c-0.144,0.292-0.288,0.587-0.453,0.93
	C32.393,37.567,33.262,37.567,34.188,37.567z M31.322,39.414c0.383,0,0.739,0,1.11,0c0.035-0.247,0.068-0.464,0.104-0.701
	c-0.39,0-0.734,0-1.084,0C31.407,38.944,31.369,39.15,31.322,39.414z M29.285,39.395c0.03-0.22,0.063-0.449,0.1-0.696
	c-0.551,0-1.043,0-1.633,0C28.212,39.19,28.586,39.638,29.285,39.395z M27.631,39.64c0.459,0.552,0.912,0.938,1.616,0.698
	c0-0.232,0-0.459,0-0.698C28.706,39.64,28.205,39.64,27.631,39.64z M29.613,37.811c-0.664,0-1.238,0-1.909,0
	c0.229,0.203,0.404,0.323,0.534,0.48c0.305,0.366,0.714,0.244,1.061,0.186C29.427,38.456,29.495,38.077,29.613,37.811z
	 M29.533,40.346c0.942,0.146,1.027,0.099,1.177-0.667C29.824,39.5,29.698,39.57,29.533,40.346z M30.977,38.733
	c-0.952-0.171-1.002-0.141-1.124,0.674C30.932,39.488,30.895,39.545,30.977,38.733z M31.213,37.834
	c-0.934-0.204-1.039-0.145-1.134,0.632C31.024,38.652,31.118,38.6,31.213,37.834z M30.986,41.297c0.383,0,0.732,0,1.097,0
	c0.042-0.233,0.082-0.45,0.13-0.707c-0.406,0-0.752,0-1.099,0C31.069,40.84,31.029,41.057,30.986,41.297z M32.26,40.366
	c0.04-0.25,0.073-0.478,0.113-0.732c-0.316,0-0.569-0.002-0.822,0.001c-0.082,0.001-0.165,0.018-0.283,0.031
	c-0.038,0.253-0.071,0.465-0.106,0.7C31.556,40.366,31.903,40.366,32.26,40.366z M31.386,36.976
	c-0.225-0.014-0.39-0.024-0.564-0.035c-0.015-0.114-0.028-0.212-0.038-0.313c-0.076,0.001-0.149,0-0.22-0.001
	c-0.303,0.009-0.607,0.017-0.91,0.025c-0.118,0.021-0.241,0.052-0.366,0.102c-0.115,0.063-0.227,0.189-0.343,0.194
	c-0.456,0.023-0.911,0.009-1.367,0.009c-0.013,0.038-0.024,0.075-0.033,0.113c0.225,0.176,0.439,0.492,0.673,0.504
	c1.017,0.056,2.037,0.024,3.069,0.024C31.322,37.378,31.348,37.202,31.386,36.976z M27.121,40.591
	c0.245,0.301,0.517,0.667,0.822,0.694c0.893,0.082,1.798,0.029,2.71,0.029c0.047-0.258,0.085-0.476,0.13-0.724
	C29.517,40.591,28.318,40.591,27.121,40.591z M33.205,43.296c0.104-0.588,0.196-1.179,0.3-1.793c-0.241,0-0.428,0.023-0.604-0.005
	c-0.399-0.065-0.524,0.101-0.584,0.491c-0.146,0.989-0.352,1.969-0.534,2.952c-0.238,0-0.441,0-0.671,0
	c0.459-1.111,0.78-2.226,0.91-3.424c-0.381,0-0.716,0-1.085,0c-0.248,1.532-0.564,3.031-1.651,4.282
	c0.739-0.001,1.517,0.276,1.801-0.718c0,0.229,0,0.459,0,0.73c0.437,0,0.857-0.014,1.277,0.004c0.272,0.013,0.399-0.051,0.442-0.353
	C32.914,44.737,33.075,44.019,33.205,43.296z M36.617,42.418c-0.319,0-0.584,0-0.872,0c0.045-0.317,0.085-0.592,0.132-0.917
	c-0.238,0-0.432,0-0.626,0c-0.886-0.003-0.886-0.003-1.117,0.821c-0.007,0.025-0.028,0.047-0.043,0.069
	c-0.598,0.087-0.619,0.114-0.588,0.748c0.137,0.011,0.276,0.023,0.484,0.041c-0.156,0.882-0.308,1.734-0.468,2.63
	c0.432,0,0.813-0.024,1.19,0.007c0.333,0.027,0.435-0.102,0.482-0.417c0.113-0.748,0.271-1.489,0.416-2.261c0.325,0,0.604,0,0.897,0
	C36.546,42.89,36.579,42.678,36.617,42.418z M36.955,40.56c-0.915,0-1.787-0.01-2.658,0.011c-0.109,0.002-0.253,0.14-0.308,0.251
	c-0.063,0.13-0.05,0.299-0.075,0.493c0.921,0,1.821,0.006,2.724-0.01c0.081-0.001,0.191-0.132,0.228-0.227
	C36.922,40.938,36.922,40.777,36.955,40.56z M40.74,41.16c-0.945,0.004-1.893-0.002-2.84-0.002c-0.173,0-0.346,0.014-0.516,0.022
	c0.002,0.033,0.002,0.066,0.005,0.099c2.835,0,5.671,0,8.506,0c0.003-0.03,0.007-0.06,0.012-0.091c-0.879,0-1.755,0-2.625,0
	c-0.07-0.392,0.135-0.383,0.343-0.383c0.865,0.001,1.729,0.002,2.595,0c0.142-0.001,0.285-0.019,0.473-0.033
	c-0.225-0.239-6.919-0.313-7.618-0.101c0.734,0.264,1.403,0.037,2.021,0.174C41.182,41.209,40.924,41.159,40.74,41.16z
	 M39.514,40.406c1.824-0.06,3.65-0.022,5.475-0.022c0.576,0,1.153,0,1.739,0c0.04-0.266,0.075-0.484,0.115-0.756
	c-0.685,0-2.103,0.006-2.103,0.006l-0.033,0.268l-1.146-0.012l-0.008-0.289L41.388,39.6l-0.183,0.313
	c-0.028,0.036-0.137,0.012-0.207,0.013c-0.199,0.001-0.396,0.001-0.594,0.001c-0.059-0.151-0.156-0.284-0.255-0.286
	c-0.659-0.019-1.321-0.01-2.099-0.01C38.538,40.061,38.856,40.428,39.514,40.406z M37.18,38.719
	c-0.053-0.01-0.104-0.028-0.159-0.029c-0.265-0.003-0.531-0.001-0.826-0.001c-0.071,0.242-0.14,0.478-0.213,0.721
	C37.15,39.473,37.054,39.575,37.18,38.719z M35.565,40.353c0.992,0.124,1.101,0.07,1.305-0.686
	C35.677,39.605,35.953,39.497,35.565,40.353z M37.42,37.795c-0.333,0-0.664,0-1.021,0c-0.05,0.222-0.097,0.435-0.151,0.676
	C37.295,38.615,37.39,38.558,37.42,37.795z M37.571,36.975c-0.205-0.011-0.413-0.022-0.621-0.034
	c-0.019-0.115-0.035-0.213-0.055-0.363h-1.611c-0.002,0-0.007,0-0.012,0l-0.1,0.36c-0.03,0.042-0.163,0.016-0.245,0.017
	c-0.151,0.002-0.301,0-0.466,0c-0.038,0.233-0.066,0.41-0.104,0.647c0.888,0,1.743-0.002,2.597,0
	C37.531,37.605,37.531,37.607,37.571,36.975z M35.519,37.803c-0.359,0-0.684,0-1.017,0c-0.04,0.236-0.075,0.44-0.118,0.692
	c0.378,0,0.692,0,1.017,0C35.44,38.257,35.478,38.041,35.519,37.803z M35.324,39.656c-0.335,0-0.638,0-0.976,0
	c0.023,0.254,0.045,0.473,0.068,0.707c0.343,0,0.659,0,1.009,0C35.389,40.104,35.355,39.877,35.324,39.656z M34.412,39.422
	c0.308,0,0.612,0,0.927,0c0.014-0.244,0.028-0.464,0.042-0.682C34.391,38.622,34.212,38.594,34.412,39.422z M46.942,42.467
	c-0.205-0.028-0.378-0.052-0.546-0.075c0.043-0.873,0.021-0.894-0.806-0.893c-1.881,0.001-3.759,0-5.64,0c-0.726,0-1.449,0-2.174,0
	c-0.01,0.053-0.02,0.105-0.028,0.158c0.179,0.053,0.358,0.149,0.541,0.152c0.876,0.016,1.753,0.007,2.672,0.007
	c-0.05,0.227-0.087,0.412-0.132,0.626c-1.168,0-2.304,0-3.476,0c-0.033,0.247-0.064,0.461-0.1,0.732c1.179,0,2.299,0,3.424,0
	c-0.066,0.758-0.066,0.758-0.756,0.758c-0.752,0-1.503,0-2.255,0c-0.638,0-0.638,0-0.671,0.719c1.142,0,2.278,0,3.485,0
	c-0.241,0.57-0.742,0.176-1.049,0.413c-0.038,0.217-0.083,0.462-0.133,0.723c1.059,0,2.072,0,3.086,0
	c0.073-0.385,0.142-0.744,0.218-1.147c1.124,0,2.235,0,3.343,0c0.1-0.516,0.189-0.984,0.279-1.458
	c0.225-0.018,0.413-0.034,0.626-0.052C46.884,42.897,46.912,42.69,46.942,42.467z M46.335,38.689c-2.5,0-4.999-0.001-7.497-0.001
	c-0.145,0-0.286,0.014-0.433,0.021c0.378,0.703,0.969,0.802,1.643,0.743c0.258-0.022,0.475-0.032,0.685-0.233
	c0.076-0.071,0.156-0.365,0.156-0.365l0.581,0.008c-0.03,0.268-0.045,0.406-0.065,0.583c0.607,0,1.2-0.007,1.793,0.003
	c0.095,0.002,0.395-0.001,0.395-0.001l0.043-0.511l1.146-0.001c-0.012,0.192-0.021,0.328-0.03,0.488c0.721,0,1.422,0,2.121,0
	C47.059,38.713,47.039,38.689,46.335,38.689z M47.75,37.955c0-0.047-0.002-0.095-0.004-0.142c-2.956,0-5.91,0-8.865,0
	c-0.003,0.052-0.005,0.105-0.008,0.157c0.912,0,1.824,0,2.736,0c-0.002,0.065-0.005,0.13-0.005,0.195c-1.042,0-2.081,0-3.123,0
	c-0.015,0.055-0.026,0.109-0.04,0.163c0.22,0.063,0.439,0.18,0.656,0.181c2.403,0.013,4.802,0.008,7.202,0.007
	c0.135,0,0.267-0.013,0.399-0.02c0.005-0.045,0.01-0.09,0.012-0.135c-0.91-0.47-1.947-0.044-2.893-0.267
	c0-0.046,0.003-0.092,0.003-0.138C45.133,37.955,46.441,37.955,47.75,37.955z M47.911,36.956c-0.177,0-0.331,0-0.484,0
	c-1.007,0-2.013,0.009-3.018-0.009c-0.16-0.003-0.321-0.126-0.479-0.193c-0.002-0.034-0.002-0.119-0.002-0.119
	c-0.681,0.085-1.361-0.085-2.016,0.053c-0.055,0.388-0.35,0.262-0.563,0.265c-0.779,0.01-1.56,0.003-2.337,0.003
	c-0.348,0-0.692,0-1.037,0c0.298,0.338,0.513,0.671,1.025,0.662c2.207-0.036,4.414-0.021,6.618-0.025c0.728-0.001,1.455,0,2.181,0
	C47.838,37.374,47.866,37.207,47.911,36.956z M50.102,20.846c0-1.593-0.274-2.679-1.751-2.679c-10.888,0-21.778,0-32.666,0
	c-1.042,0-1.531,0.852-1.786,1.786c0,4.112,0,8.224,0,12.335c0,0.88,0.827,1.57,1.821,1.743c0.166,0.029,0.338,0.034,0.506,0.034
	c10.531,0.002,21.063,0.002,31.594,0.001c1.377,0,2.282-0.906,2.282-2.292C50.104,28.131,50.102,24.489,50.102,20.846z
	 M43.013,42.411c0.407,0,0.78,0,1.168,0c0.035-0.2,0.065-0.376,0.099-0.573c-0.413,0-0.791,0-1.174,0
	C43.072,42.033,43.044,42.207,43.013,42.411z M29.259,20.724c0.052-0.058,0.088-0.13,0.156-0.234
	c-0.158-0.045-0.274-0.096-0.397-0.109c-1.443-0.167-2.7,0.932-2.705,2.387c-0.007,2.849-0.002,5.699,0,8.547
	c0,0.121,0.017,0.242,0.026,0.365c0.761,0,1.481,0,2.275,0c0-0.227,0-0.408,0-0.588c0-2.875,0.007-5.749-0.005-8.624
	C28.607,21.793,28.811,21.218,29.259,20.724z M30.034,22.758c1.897-0.034,3.797-0.022,5.696-0.014
	c0.521,0.002,0.773,0.208,0.929,0.706c0.04,0.128,0.064,0.262,0.111,0.464c0.095-0.133,0.161-0.202,0.201-0.283
	c0.689-1.389-0.386-3.181-1.934-3.2c-1.332-0.017-2.665,0.025-3.997-0.011c-1.531-0.042-2.25,1.173-1.886,2.701
	C29.438,22.998,29.734,22.764,30.034,22.758z"/>
</svg>
