<?xml version="1.0" encoding="utf-8"?>
<!-- Generator: Adobe Illustrator 16.0.0, SVG Export Plug-In . SVG Version: 6.00 Build 0)  -->
<!DOCTYPE svg PUBLIC "-//W3C//DTD SVG 1.1//EN" "http://www.w3.org/Graphics/SVG/1.1/DTD/svg11.dtd">
<svg version="1.1" id="Layer_1" xmlns="http://www.w3.org/2000/svg" xmlns:xlink="http://www.w3.org/1999/xlink" x="0px" y="0px"
	 width="64px" height="64px" viewBox="0 0 64 64" enable-background="new 0 0 64 64" xml:space="preserve">
<g>
	<path d="M41.867,30.881c-0.389-0.008-0.778-0.003-1.166,0c-0.225,0.001-0.382,0.116-0.453,0.324
		c-0.06,0.175-0.097,0.362-0.158,0.601c0.518,0,0.983,0,1.45,0c0.518,0,0.518,0,0.619-0.511c0.004-0.008,0.005-0.02,0.007-0.027
		C42.213,30.99,42.144,30.889,41.867,30.881z"/>
	<path d="M28.307,32.862c-0.376,0.016-0.791,0.355-0.876,0.672c-0.079,0.293,0.052,0.631,0.341,0.832
		c0.341,0.238,0.684,0.156,1.006-0.043c0.54-0.332,0.876-0.818,1.071-1.465C29.301,32.858,28.803,32.845,28.307,32.862z"/>
	<path d="M12.656,31.257c0.048-0.27-0.026-0.369-0.306-0.376c-0.378-0.008-0.757-0.003-1.136-0.001
		c-0.25,0.001-0.418,0.122-0.49,0.36c-0.051,0.17-0.087,0.343-0.144,0.565c0.511,0,0.968,0,1.425,0
		C12.559,31.806,12.559,31.806,12.656,31.257z"/>
	<path d="M58.786,13.698H5.214c-0.804,0-1.454,0.651-1.454,1.454v33.696c0,0.803,0.65,1.453,1.454,1.453h53.572
		c0.804,0,1.454-0.65,1.454-1.453V15.152C60.24,14.349,59.59,13.698,58.786,13.698z M10.8,34.317
		c0.978,0.014,1.955,0.006,2.933,0.006c0.107,0,0.214,0,0.373,0c-0.119,0.492-0.224,0.945-0.344,1.395
		c-0.012,0.043-0.126,0.088-0.192,0.088c-1.716,0-3.432-0.004-5.147-0.014c-0.371-0.006-0.676-0.148-0.809-0.531
		c0-0.062,0-0.123,0-0.18c0.24-0.984,0.482-1.969,0.722-2.953c0.123-0.504,0.234-1.009,0.367-1.51
		c0.194-0.734,0.486-1.007,1.236-1.015c1.406-0.018,2.812,0,4.217,0.031c0.568,0.012,0.857,0.281,0.869,0.711
		c0.003,0.098-0.015,0.197-0.038,0.294c-0.181,0.776-0.364,1.552-0.552,2.34c-0.426,0-0.834,0-1.242,0
		c-0.868,0-1.736,0.008-2.604-0.002c-0.21-0.004-0.347,0.033-0.361,0.275c-0.005,0.086-0.04,0.172-0.06,0.26
		C10.043,34.05,10.24,34.313,10.8,34.317z M20.618,30.792c-0.014,0.047-0.144,0.082-0.221,0.083c-0.528,0.008-1.058,0-1.586,0.006
		c-0.489,0.005-0.688,0.347-0.426,0.762c0.108,0.172,0.274,0.314,0.434,0.447c0.355,0.289,0.736,0.546,1.081,0.851
		c0.69,0.602,0.86,1.398,0.486,2.086c-0.251,0.469-0.665,0.727-1.159,0.736c-1.563,0.033-3.127,0.014-4.739,0.014
		c0.11-0.457,0.206-0.895,0.329-1.322c0.018-0.062,0.163-0.123,0.25-0.125c0.678-0.012,1.356-0.002,2.035-0.012
		c0.177-0.002,0.362-0.018,0.529-0.072c0.36-0.119,0.432-0.406,0.176-0.695c-0.117-0.133-0.263-0.242-0.409-0.346
		c-0.319-0.225-0.654-0.42-0.968-0.65c-0.835-0.609-1.015-1.345-0.575-2.282c0.2-0.425,0.552-0.633,1-0.645
		c1.056-0.024,2.113-0.024,3.17-0.035c0.278-0.001,0.556,0,0.892,0C20.815,30.014,20.728,30.407,20.618,30.792z M24.609,34.546
		c0.038,0.004,0.075,0.02,0.137,0.035c-0.089,0.375-0.168,0.742-0.271,1.104c-0.015,0.055-0.132,0.117-0.202,0.117
		c-0.599,0.006-1.199,0.02-1.795-0.014c-0.589-0.031-0.918-0.377-0.837-0.961c0.094-0.688,0.283-1.363,0.44-2.043
		c0.142-0.617,0.297-1.236,0.455-1.888c-0.405,0-0.788,0-1.21,0c0.097-0.412,0.178-0.787,0.281-1.155
		c0.019-0.063,0.136-0.137,0.211-0.141c0.268-0.018,0.539-0.015,0.808-0.004c0.167,0.005,0.246-0.044,0.282-0.222
		c0.078-0.391,0.177-0.777,0.287-1.16c0.023-0.082,0.125-0.199,0.193-0.201c0.666-0.015,1.333-0.009,2.051-0.009
		c-0.127,0.545-0.244,1.045-0.369,1.584c0.385,0,0.729,0,1.123,0c-0.108,0.451-0.206,0.862-0.308,1.287c-0.378,0-0.735,0-1.128,0
		c-0.117,0.478-0.23,0.948-0.344,1.417c-0.117,0.484-0.235,0.968-0.351,1.453C23.926,34.308,24.041,34.47,24.609,34.546z
		 M32.574,30.518c-0.126,0.765-0.326,1.517-0.502,2.272c-0.14,0.602-0.295,1.197-0.437,1.799c-0.1,0.414-0.157,0.828,0.223,1.203
		c-0.787,0-1.52,0-2.251-0.004c-0.038,0-0.084-0.014-0.112-0.039c-0.321-0.289-0.592-0.09-0.91,0.045
		c-0.849,0.361-1.663,0.248-2.375-0.352c-0.648-0.541-0.891-1.244-0.646-2.064c0.267-0.886,0.889-1.429,1.803-1.521
		c0.78-0.078,1.573-0.034,2.359-0.055c0.115-0.002,0.309-0.037,0.328-0.102c0.068-0.219,0.102-0.46,0.088-0.689
		c-0.002-0.052-0.252-0.125-0.389-0.126c-0.926-0.012-1.854-0.006-2.781-0.006c-0.109-0.001-0.219-0.001-0.37-0.001
		c0.105-0.436,0.205-0.853,0.308-1.286c0.601,0,1.178-0.004,1.756,0c1.056,0.008,2.114,0,3.169,0.038
		C32.399,29.65,32.666,29.959,32.574,30.518z M35.745,33.093c-0.124,0.512-0.232,1.027-0.375,1.537
		c-0.072,0.266-0.187,0.527-0.319,0.77c-0.15,0.279-0.406,0.418-0.742,0.412c-0.507-0.01-1.015-0.004-1.491-0.004
		c0.099-0.289,0.204-0.543,0.271-0.805c0.321-1.305,0.633-2.611,0.946-3.918c0.015-0.056,0.022-0.114,0.039-0.203
		c-0.304,0-0.587,0-0.909,0c0.097-0.411,0.176-0.789,0.284-1.16c0.016-0.059,0.145-0.113,0.227-0.123
		c0.234-0.028,0.531,0.049,0.689-0.068c0.146-0.105,0.14-0.414,0.21-0.63c0.195-0.601,0.537-0.875,1.163-0.89
		c0.766-0.019,1.531-0.004,2.307-0.004c-0.01,0.103-0.014,0.173-0.031,0.239c-0.057,0.231-0.054,0.533-0.202,0.672
		c-0.128,0.119-0.429,0.053-0.652,0.069c-0.354,0.026-0.474,0.149-0.538,0.596c0.344,0,0.682,0,1.065,0
		c-0.112,0.463-0.211,0.875-0.313,1.299c-0.369,0-0.718,0-1.088,0C36.104,31.626,35.925,32.361,35.745,33.093z M44.493,30.666
		c-0.179,0.764-0.36,1.527-0.548,2.314c-1.297,0-2.554,0.008-3.811-0.006c-0.257-0.002-0.358,0.07-0.418,0.326
		c-0.183,0.807-0.028,1.023,0.797,1.023c0.909,0,1.816,0,2.724,0c0.108,0,0.218,0,0.375,0c-0.113,0.484-0.214,0.938-0.336,1.383
		c-0.012,0.049-0.141,0.1-0.214,0.1c-1.666,0.002-3.333,0.002-4.998-0.004c-0.108,0-0.221-0.016-0.327-0.039
		c-0.5-0.111-0.666-0.334-0.552-0.836c0.341-1.475,0.692-2.947,1.06-4.414c0.159-0.632,0.479-0.898,1.165-0.907
		c1.437-0.018,2.873,0.001,4.309,0.033c0.534,0.012,0.812,0.298,0.813,0.73C44.532,30.467,44.517,30.569,44.493,30.666z
		 M48.844,30.874c-0.262-0.032-0.343,0.086-0.395,0.316c-0.186,0.823-0.391,1.647-0.589,2.469c-0.163,0.664-0.055,0.82,0.671,0.906
		c-0.093,0.385-0.178,0.768-0.279,1.146c-0.012,0.043-0.122,0.092-0.188,0.092c-0.587,0.004-1.179,0.02-1.766-0.012
		c-0.688-0.037-1.017-0.477-0.863-1.166c0.245-1.1,0.519-2.193,0.779-3.285c0.035-0.144,0.062-0.285,0.099-0.456
		c-0.411,0-0.788,0-1.201,0c0.106-0.442,0.203-0.855,0.31-1.293c0.311,0,0.609-0.02,0.906,0.007
		c0.258,0.023,0.346-0.085,0.391-0.319c0.065-0.36,0.156-0.719,0.258-1.074c0.023-0.08,0.129-0.192,0.199-0.193
		c0.669-0.015,1.334-0.01,2.045-0.01c-0.125,0.536-0.243,1.042-0.369,1.585c0.374,0,0.719,0,1.119,0
		c-0.101,0.425-0.185,0.809-0.288,1.188c-0.011,0.047-0.118,0.094-0.182,0.098C49.282,30.885,49.059,30.901,48.844,30.874z
		 M56.358,30.583c-0.271,1.255-0.581,2.499-0.874,3.749c-0.037,0.156-0.068,0.312-0.102,0.469c-0.075,0.346-0.057,0.674,0.256,0.969
		c-0.104,0.018-0.165,0.039-0.226,0.039c-0.599,0.002-1.198,0.008-1.795-0.004c-0.154-0.004-0.336-0.027-0.452-0.113
		c-0.23-0.172-0.406-0.107-0.619,0.016c-0.787,0.447-1.788,0.359-2.498-0.209c-0.67-0.533-0.932-1.312-0.711-2.104
		c0.228-0.809,0.945-1.474,1.765-1.537c0.793-0.059,1.594-0.032,2.391-0.053c0.117-0.002,0.313-0.029,0.335-0.088
		c0.072-0.223,0.111-0.463,0.104-0.694c-0.002-0.052-0.248-0.134-0.383-0.137c-0.927-0.012-1.853-0.006-2.782-0.006
		c-0.108-0.001-0.218,0-0.382,0c0.098-0.401,0.18-0.771,0.28-1.134c0.017-0.062,0.115-0.145,0.174-0.145
		c1.597,0.001,3.192-0.003,4.787,0.031C56.2,29.643,56.48,30.015,56.358,30.583z"/>
	<path d="M52.065,32.87c-0.174,0.008-0.36,0.111-0.51,0.219c-0.362,0.258-0.459,0.625-0.28,0.961
		c0.211,0.393,0.623,0.562,1.038,0.393c0.691-0.283,1.073-0.838,1.329-1.58C53.079,32.862,52.571,32.841,52.065,32.87z"/>
</g>
</svg>
