<?xml version="1.0" encoding="utf-8"?>
<!-- Generator: Adobe Illustrator 16.0.0, SVG Export Plug-In . SVG Version: 6.00 Build 0)  -->
<!DOCTYPE svg PUBLIC "-//W3C//DTD SVG 1.1//EN" "http://www.w3.org/Graphics/SVG/1.1/DTD/svg11.dtd">
<svg version="1.1" id="Layer_1" xmlns="http://www.w3.org/2000/svg" xmlns:xlink="http://www.w3.org/1999/xlink" x="0px" y="0px"
	 width="64px" height="64px" viewBox="0 0 64 64" enable-background="new 0 0 64 64" xml:space="preserve">
<path fill-rule="evenodd" clip-rule="evenodd" d="M31.882,31.947c0.319,0.125,0.649,0.177,0.99,0.167
	c0.082,0,0.163,0.005,0.245-0.001c0.989-0.075,1.873-0.629,1.951-1.791c0.049-0.716-0.211-1.404-0.912-1.802
	c-0.529-0.3-1.104-0.366-1.694-0.265c-0.964,0.166-1.718,0.86-1.744,1.91C30.697,30.995,31.109,31.645,31.882,31.947z
	 M32.192,29.331c0.05-0.175,0.136-0.355,0.253-0.493c0.234-0.275,0.627-0.252,0.856,0.028c0.236,0.289,0.303,0.639,0.35,0.994
	c0.021,0.158,0.025,0.316,0.038,0.475c0.008,0.001,0.016,0.004,0.024,0.006c-0.05,0.288-0.083,0.58-0.154,0.862
	c-0.067,0.263-0.232,0.458-0.527,0.484c-0.286,0.026-0.486-0.117-0.634-0.349c-0.15-0.236-0.218-0.501-0.255-0.775
	C32.088,30.149,32.077,29.734,32.192,29.331z M22.757,28.599c0.008-0.106,0.068-0.144,0.174-0.149
	c0.462-0.025,0.922-0.062,1.365-0.215c0.132-0.046,0.194,0.016,0.191,0.164c-0.009,0.622-0.02,1.244-0.025,1.866
	c-0.002,0.188,0.008,0.376,0.015,0.564c0.02,0.477,0.309,0.644,0.762,0.599c0.085-0.007,0.167-0.046,0.246-0.078
	c0.168-0.069,0.236-0.198,0.235-0.377c-0.004-0.569,0-1.139-0.001-1.708c-0.001-0.33-0.077-0.416-0.409-0.451
	c-0.111-0.012-0.185-0.044-0.18-0.173c0.003-0.129,0.062-0.185,0.194-0.194c0.504-0.039,1.01-0.071,1.5-0.215
	c0.132-0.039,0.185,0.015,0.184,0.158c-0.01,0.825-0.021,1.65-0.025,2.475c0,0.159,0.014,0.319,0.042,0.473
	c0.034,0.185,0.114,0.228,0.301,0.2c0.038-0.006,0.077-0.009,0.114-0.017c0.21-0.044,0.21-0.044,0.269,0.151
	c0.27,0.005,0.374-0.07,0.379-0.335c0.011-0.684,0.006-1.37,0.004-2.055c-0.001-0.147-0.103-0.227-0.214-0.305
	c-0.06-0.042-0.112-0.115-0.134-0.184c-0.026-0.087,0.026-0.146,0.119-0.182c0.429-0.161,0.852-0.333,1.278-0.494
	c0.052-0.019,0.133-0.018,0.172,0.012c0.036,0.028,0.046,0.105,0.047,0.161c0.003,0.091-0.017,0.183-0.017,0.273
	c0,0.096,0.049,0.123,0.132,0.066c0.115-0.078,0.223-0.172,0.346-0.235c0.14-0.071,0.289-0.144,0.439-0.165
	c0.331-0.047,0.591,0.149,0.623,0.438c0.042,0.386-0.162,0.655-0.525,0.695c-0.168,0.019-0.31-0.034-0.442-0.136
	c-0.092-0.069-0.19-0.129-0.292-0.184c-0.107-0.06-0.181-0.004-0.211,0.097c-0.025,0.087-0.039,0.18-0.04,0.271
	c-0.002,0.627-0.003,1.254,0.004,1.882c0.005,0.297,0.076,0.362,0.368,0.382c0.054,0.003,0.105,0.02,0.157,0.018
	c0.148-0.006,0.177,0.078,0.173,0.202c-0.004,0.141-0.091,0.145-0.196,0.145c-0.733-0.002-1.467-0.001-2.199-0.003
	c-0.045,0-0.121-0.013-0.128-0.035c-0.037-0.131-0.127-0.109-0.218-0.092c-0.467,0.091-0.935,0.178-1.4,0.276
	c-0.198,0.042-0.248,0.006-0.229-0.191c0.009-0.091-0.011-0.185-0.019-0.277c-0.081,0.03-0.169,0.046-0.242,0.09
	c-0.456,0.276-0.944,0.383-1.47,0.284c-0.436-0.082-0.699-0.363-0.744-0.806c-0.026-0.258-0.026-0.52-0.03-0.779
	c-0.005-0.42,0.001-0.84-0.002-1.26c-0.002-0.283-0.043-0.345-0.313-0.424C22.756,28.783,22.75,28.7,22.757,28.599z M17.556,31.868
	c-0.003-0.105,0.02-0.187,0.153-0.2c0.182-0.019,0.361-0.053,0.542-0.083c0.14-0.023,0.226-0.109,0.251-0.246
	c0.02-0.104,0.035-0.21,0.035-0.315c0.002-1.38,0.003-2.761-0.004-4.142c-0.002-0.383-0.087-0.469-0.461-0.536
	c-0.048-0.009-0.095-0.022-0.143-0.027c-0.127-0.011-0.178-0.084-0.164-0.204c0.012-0.117,0.069-0.155,0.193-0.155
	c1.255,0.013,2.51,0.019,3.764,0.026c0.266,0.001,0.529,0,0.817,0c0.038,0.431,0.075,0.868,0.117,1.304
	c0.011,0.11-0.036,0.167-0.137,0.181c-0.104,0.014-0.205,0.014-0.252-0.109c-0.042-0.108-0.088-0.214-0.131-0.321
	c-0.157-0.398-0.473-0.578-0.877-0.598c-0.38-0.019-0.763-0.006-1.144-0.011c-0.134-0.002-0.182,0.069-0.182,0.188
	c0,0.608,0,1.217,0,1.825c0,0.114,0.052,0.166,0.168,0.164c0.314-0.003,0.628,0.003,0.941-0.003
	c0.278-0.007,0.387-0.096,0.466-0.365c0.024-0.083,0.04-0.168,0.062-0.252c0.03-0.131,0.096-0.163,0.262-0.146
	c0.118,0.012,0.129,0.08,0.128,0.179c-0.003,0.564-0.004,1.128,0.001,1.692c0.002,0.114-0.019,0.192-0.146,0.197
	c-0.113,0.005-0.225,0.007-0.248-0.152c-0.016-0.113-0.051-0.225-0.086-0.335c-0.056-0.182-0.187-0.283-0.373-0.288
	c-0.343-0.011-0.687-0.006-1.028-0.009c-0.089,0-0.146,0.042-0.144,0.126c0.014,0.607,0.021,1.215,0.054,1.821
	c0.014,0.248,0.18,0.419,0.431,0.431c0.44,0.021,0.884,0.024,1.325,0c0.249-0.012,0.452-0.168,0.599-0.37
	c0.134-0.182,0.253-0.375,0.365-0.571c0.074-0.13,0.18-0.133,0.298-0.101c0.125,0.035,0.123,0.135,0.097,0.235
	c-0.108,0.398-0.219,0.796-0.329,1.195c-0.028,0.104-0.09,0.133-0.201,0.132c-1.366-0.013-2.731-0.019-4.098-0.023
	c-0.245,0-0.491,0.006-0.736,0.024C17.613,32.035,17.561,31.983,17.556,31.868z M35.2,28.954c-0.062-0.039-0.113-0.127-0.126-0.2
	c-0.007-0.044,0.06-0.13,0.111-0.151c0.435-0.171,0.872-0.33,1.309-0.494c0.133-0.049,0.23,0.019,0.222,0.16
	c-0.007,0.119-0.012,0.239-0.021,0.405c0.14-0.068,0.243-0.117,0.345-0.169c0.347-0.178,0.701-0.308,1.104-0.283
	c0.616,0.038,1.054,0.48,1.06,1.098c0.004,0.454-0.001,0.907,0.002,1.36c0,0.184,0.007,0.366,0.014,0.55
	c0.013,0.344,0.071,0.411,0.415,0.438c0.129,0.011,0.169,0.077,0.167,0.186c-0.004,0.108-0.04,0.172-0.176,0.172
	c-0.665-0.007-1.33-0.007-1.995,0c-0.117,0-0.162-0.05-0.168-0.147c-0.005-0.099,0.002-0.19,0.14-0.21
	c0.297-0.044,0.338-0.092,0.339-0.391c0.004-0.593,0.003-1.188,0-1.781c-0.001-0.27-0.136-0.464-0.369-0.548
	c-0.277-0.1-0.646-0.032-0.791,0.157c-0.046,0.06-0.076,0.149-0.076,0.226c-0.005,0.675-0.005,1.351,0.001,2.026
	c0.002,0.218,0.073,0.292,0.298,0.308c0.146,0.011,0.177,0.087,0.171,0.21c-0.007,0.131-0.082,0.148-0.195,0.147
	c-0.646-0.005-1.292-0.003-1.938-0.001c-0.163,0.001-0.218-0.054-0.2-0.213c0.01-0.083,0.048-0.126,0.136-0.138
	c0.402-0.053,0.444-0.101,0.445-0.502c0.001-0.602-0.004-1.206,0.002-1.81C35.426,29.175,35.357,29.051,35.2,28.954z M46.629,42.9
	c0-0.236,0.002-0.473-0.001-0.709c-0.001-0.133,0.06-0.214,0.192-0.225c0.543-0.043,1.167,0.209,1.254,0.902
	c0.05,0.401-0.262,0.844-0.713,0.969c-0.148,0.042-0.313,0.05-0.469,0.039c-0.195-0.014-0.261-0.108-0.264-0.31
	C46.627,43.344,46.629,43.122,46.629,42.9z M51.889,31.208c0.034,0.019,0.053,0.142,0.027,0.188
	c-0.077,0.134-0.215,0.117-0.379,0.098c0.021-0.124,0.038-0.24,0.057-0.357C51.692,31.156,51.801,31.162,51.889,31.208z
	 M32.121,43.565c-0.003-0.227-0.001-0.453-0.001-0.68c0-0.232,0.001-0.463,0-0.695c-0.001-0.132,0.062-0.214,0.193-0.225
	c0.525-0.042,1.134,0.189,1.248,0.86c0.062,0.354-0.148,0.741-0.52,0.936c-0.205,0.107-0.423,0.16-0.656,0.12
	C32.194,43.848,32.123,43.764,32.121,43.565z M41.555,32.122c0.724-0.002,1.277-0.315,1.647-0.942
	c0.076-0.129,0.06-0.22-0.046-0.287c-0.11-0.072-0.178-0.024-0.248,0.074c-0.118,0.165-0.283,0.279-0.482,0.322
	c-0.911,0.196-1.634-0.4-1.646-1.264c-0.002-0.133,0.046-0.18,0.176-0.178c0.313,0.004,0.627,0.001,0.94,0.001
	c0.318,0,0.638,0.003,0.955-0.002c0.257-0.004,0.353-0.104,0.34-0.357c-0.016-0.33-0.129-0.621-0.37-0.854
	c-0.309-0.3-0.69-0.401-1.108-0.42c-0.848-0.038-1.634,0.44-1.96,1.197c-0.335,0.777-0.187,1.645,0.386,2.193
	C40.531,31.985,41.021,32.123,41.555,32.122z M41.897,28.676c0.233,0.074,0.38,0.369,0.287,0.597c-0.02,0.049-0.084,0.1-0.135,0.11
	c-0.174,0.032-0.351,0.045-0.47,0.06c-0.197-0.012-0.337-0.019-0.476-0.03c-0.118-0.009-0.155-0.073-0.133-0.188
	C41.051,28.84,41.523,28.557,41.897,28.676z M43.085,28.712c-0.02-0.095,0.022-0.15,0.112-0.187c0.553-0.22,1.031-0.543,1.383-1.033
	c0.07-0.098,0.163-0.087,0.26-0.063c0.103,0.025,0.09,0.11,0.09,0.187c0,0.184,0.006,0.367-0.002,0.55
	c-0.005,0.129,0.038,0.183,0.175,0.178c0.25-0.009,0.501,0.001,0.752-0.004c0.127-0.003,0.172,0.059,0.179,0.174
	c0.014,0.258-0.071,0.351-0.324,0.351c-0.213,0-0.425,0.004-0.637-0.001c-0.104-0.003-0.15,0.025-0.149,0.136
	c0.006,0.603-0.007,1.207,0.014,1.809c0.019,0.568,0.447,0.82,0.95,0.574c0.082-0.04,0.146-0.05,0.198,0.032
	c0.049,0.08,0.063,0.159-0.021,0.232c-0.264,0.233-0.573,0.38-0.916,0.434c-0.222,0.035-0.453,0.051-0.675,0.022
	c-0.538-0.068-0.811-0.413-0.819-0.996c-0.005-0.343,0-0.685,0-1.028c0-0.352-0.004-0.705,0-1.057
	c0.002-0.117-0.037-0.169-0.158-0.159c-0.082,0.007-0.164,0.002-0.246,0C43.151,28.86,43.102,28.803,43.085,28.712z M51.746,30.723
	c-0.415-0.008-0.771,0.364-0.772,0.807c-0.001,0.459,0.339,0.82,0.772,0.818c0.416-0.002,0.757-0.36,0.765-0.803
	C52.519,31.111,52.164,30.73,51.746,30.723z M51.933,31.945c-0.061-0.301-0.104-0.333-0.374-0.314c0,0.144,0,0.29,0,0.443
	c-0.063,0-0.104,0-0.167,0c0-0.231,0-0.46,0-0.689c0-0.408,0.012-0.418,0.429-0.37c0.211,0.024,0.32,0.143,0.279,0.334
	c-0.017,0.08-0.09,0.148-0.12,0.196c0.057,0.175,0.111,0.342,0.166,0.513C52.008,32.112,51.958,32.07,51.933,31.945z M58.786,13.698
	H5.214c-0.804,0-1.454,0.651-1.454,1.454v33.695c0,0.803,0.65,1.454,1.454,1.454h53.572c0.804,0,1.454-0.651,1.454-1.454V15.152
	C60.24,14.349,59.59,13.698,58.786,13.698z M51.74,32.483c-0.534,0.001-0.935-0.405-0.936-0.945c-0.001-0.54,0.4-0.948,0.934-0.95
	c0.515-0.001,0.928,0.413,0.936,0.94C52.682,32.056,52.266,32.482,51.74,32.483z M52.647,34.373c0,1.09,0,2.165,0,3.247
	c-4.34,0-8.67,0-13.001,0c-0.001-0.009-0.004-0.017-0.006-0.026c0.036-0.02,0.069-0.042,0.106-0.06
	c2.056-1.03,4.11-2.059,6.168-3.085c0.09-0.045,0.2-0.072,0.3-0.073c2.086-0.003,4.171-0.002,6.256-0.002
	C52.526,34.373,52.583,34.373,52.647,34.373z M12.479,28.359c2.779-1.423,5.56-2.846,8.339-4.27
	c2.252-1.153,4.505-2.305,6.757-3.458c1.29-0.662,2.583-1.322,3.872-1.986c0.094-0.048,0.166-0.054,0.267-0.004
	c4.185,2.095,8.37,4.187,12.557,6.278c2.745,1.372,5.491,2.744,8.237,4.115c0.043,0.022,0.086,0.044,0.145,0.074
	c-0.051,0.029-0.088,0.053-0.127,0.072c-2.52,1.267-5.039,2.532-7.558,3.797c-2.718,1.366-5.435,2.732-8.151,4.098
	c-1.653,0.832-3.308,1.663-4.959,2.498c-0.105,0.053-0.188,0.054-0.293,0c-2.635-1.345-5.272-2.688-7.91-4.03
	c-1.545-0.788-3.092-1.574-4.638-2.361c-2.616-1.331-5.232-2.661-7.848-3.992c-0.043-0.022-0.084-0.046-0.148-0.081
	C11.521,28.852,12,28.605,12.479,28.359z M24.063,37.59c-0.005,0.011-0.008,0.021-0.011,0.033c-4.327,0-8.655,0-12.994,0
	c-0.003-0.044-0.008-0.092-0.008-0.139c-0.001-0.984,0.003-1.969-0.004-2.953c-0.001-0.139,0.045-0.167,0.173-0.166
	c2.1,0.003,4.199,0.001,6.297,0.004c0.083,0,0.173,0.022,0.248,0.06c2.069,1.033,4.137,2.069,6.203,3.105
	C24,37.551,24.031,37.572,24.063,37.59z M11.113,40.266c0.045-0.011,0.096-0.003,0.144-0.003c13.729,0,27.456,0,41.185,0.002
	c0.061,0,0.169-0.056,0.187,0.089c-13.866,0-27.722,0-41.577,0c-0.006-0.009-0.012-0.018-0.018-0.027
	C11.061,40.305,11.083,40.273,11.113,40.266z M45.959,42.039c-0.04,0.003-0.079,0-0.119,0c-0.002-0.017-0.005-0.034-0.008-0.051
	c0.123-0.022,0.243-0.054,0.366-0.065c0.491-0.045,0.981-0.08,1.468,0.039c0.223,0.055,0.426,0.155,0.592,0.317
	c0.414,0.402,0.399,0.961-0.034,1.347c-0.222,0.197-0.486,0.309-0.775,0.321c-0.516,0.02-1.031,0.009-1.548,0.011
	c-0.021,0-0.042-0.011-0.066-0.051c0.045-0.011,0.089-0.027,0.134-0.032c0.175-0.017,0.217-0.059,0.217-0.236
	c0.001-0.463,0.001-0.927,0-1.39C46.185,42.045,46.155,42.02,45.959,42.039z M43.416,43.874c0.042,0.004,0.084,0.017,0.125,0.025
	c-0.001,0.013-0.002,0.027-0.003,0.042c-0.373,0-0.746,0-1.118,0c-0.004-0.013-0.007-0.025-0.011-0.038
	c0.045-0.01,0.091-0.023,0.136-0.029c0.159-0.019,0.211-0.07,0.212-0.231c0.001-0.474,0.001-0.945,0-1.418
	c0-0.185-0.039-0.223-0.226-0.245c-0.042-0.004-0.083-0.022-0.125-0.034c0.002-0.013,0.004-0.027,0.007-0.042
	c0.374,0,0.749,0,1.123,0c0.003,0.013,0.006,0.024,0.009,0.036c-0.044,0.013-0.088,0.034-0.133,0.04
	c-0.181,0.02-0.221,0.057-0.221,0.231c-0.002,0.478-0.002,0.955,0,1.432C43.192,43.813,43.24,43.857,43.416,43.874z M37.107,42.131
	c0.248,0.437,0.495,0.872,0.743,1.308c0.007,0.011,0.016,0.023,0.039,0.057c0.115-0.18,0.224-0.342,0.323-0.51
	c0.016-0.026-0.003-0.083-0.021-0.118c-0.136-0.244-0.264-0.494-0.418-0.726c-0.064-0.097-0.188-0.155-0.283-0.23
	c0.298,0,0.619,0,0.939,0c0.003,0.01,0.005,0.02,0.007,0.03c-0.069,0.018-0.14,0.036-0.245,0.063c0.1,0.187,0.193,0.362,0.306,0.571
	c0.104-0.179,0.194-0.324,0.272-0.476c0.013-0.025-0.02-0.09-0.048-0.116c-0.031-0.028-0.085-0.033-0.123-0.079
	c0.236,0,0.472,0,0.707,0c0.003,0.011,0.006,0.023,0.009,0.034c-0.045,0.015-0.092,0.023-0.134,0.044
	c-0.077,0.037-0.176,0.063-0.225,0.127c-0.124,0.16-0.227,0.335-0.332,0.508c-0.02,0.031-0.03,0.087-0.015,0.117
	c0.122,0.24,0.252,0.476,0.391,0.734c0.035-0.058,0.061-0.097,0.082-0.136c0.198-0.365,0.395-0.729,0.59-1.095
	c0.108-0.204,0.107-0.204-0.111-0.273c-0.018-0.006-0.031-0.018-0.042-0.057c0.245,0,0.49,0,0.734,0
	c0.002,0.01,0.004,0.021,0.005,0.029c-0.019,0.01-0.039,0.03-0.059,0.029c-0.215-0.008-0.296,0.148-0.378,0.304
	c-0.289,0.545-0.578,1.09-0.87,1.634c-0.022,0.041-0.067,0.071-0.102,0.105c-0.034-0.036-0.078-0.068-0.101-0.111
	c-0.14-0.262-0.275-0.527-0.423-0.813c-0.038,0.052-0.063,0.083-0.084,0.118c-0.137,0.227-0.271,0.456-0.409,0.682
	c-0.104,0.173-0.141,0.173-0.237,0.001c-0.277-0.487-0.549-0.975-0.828-1.46c-0.121-0.209-0.183-0.485-0.522-0.473
	c0.007-0.017,0.013-0.035,0.02-0.052c0.334,0,0.669,0,1.004,0c0.003,0.011,0.005,0.021,0.01,0.032
	c-0.031,0.013-0.06,0.036-0.091,0.038C37.064,41.979,37.052,42.033,37.107,42.131z M31.454,42.038
	c-0.038,0.012-0.083,0.001-0.133-0.027c0.035-0.016,0.068-0.041,0.105-0.046c0.578-0.092,1.157-0.131,1.735,0
	c0.244,0.055,0.458,0.174,0.633,0.357c0.396,0.415,0.323,1.022-0.169,1.377c-0.221,0.16-0.472,0.248-0.741,0.254
	c-0.495,0.011-0.992,0.006-1.488,0.006c-0.019,0-0.036-0.006-0.056-0.01c-0.004-0.015-0.007-0.03-0.011-0.044
	c0.05-0.01,0.099-0.026,0.148-0.029c0.14-0.01,0.209-0.08,0.208-0.222c-0.001-0.472,0.001-0.944,0-1.416
	C31.687,42.087,31.625,41.987,31.454,42.038z M27.305,41.979c-0.044-0.004-0.086-0.02-0.129-0.03
	c0.001-0.013,0.004-0.027,0.004-0.042c0.38,0,0.758,0,1.136,0c0.003,0.012,0.007,0.025,0.009,0.037
	c-0.053,0.012-0.104,0.032-0.158,0.035c-0.134,0.009-0.2,0.071-0.198,0.211c0.002,0.454-0.001,0.906,0.001,1.36
	c0,0.22,0.096,0.317,0.317,0.321c0.281,0.004,0.52-0.089,0.698-0.314c0.031-0.038,0.074-0.066,0.11-0.099
	c0.013,0.009,0.026,0.017,0.039,0.025c-0.021,0.141-0.033,0.284-0.071,0.42c-0.008,0.031-0.103,0.053-0.157,0.053
	c-0.473,0.002-0.945-0.002-1.418-0.003c-0.1,0-0.2,0-0.301,0c-0.004-0.014-0.007-0.029-0.011-0.043
	c0.045-0.013,0.09-0.031,0.137-0.037c0.164-0.02,0.211-0.065,0.211-0.229c0.001-0.478,0.001-0.955,0-1.432
	C27.523,42.034,27.486,42,27.305,41.979z M23.559,43.876c0.024,0.002,0.048,0.004,0.07,0.011c0.012,0.004,0.021,0.02,0.048,0.052
	c-0.39,0-0.76,0-1.13,0c-0.003-0.013-0.005-0.027-0.008-0.041c0.049-0.008,0.097-0.02,0.145-0.024
	c0.127-0.011,0.197-0.073,0.197-0.202c0.001-0.498,0.001-0.994,0-1.492c0-0.126-0.058-0.198-0.191-0.204
	c-0.053-0.001-0.105-0.019-0.158-0.029c0-0.015-0.001-0.03-0.001-0.044c0.046-0.007,0.094-0.018,0.14-0.018
	c0.376-0.003,0.752-0.008,1.128,0.002c0.142,0.003,0.287,0.03,0.423,0.073c0.221,0.072,0.342,0.25,0.339,0.453
	c-0.003,0.196-0.118,0.338-0.34,0.419c-0.059,0.021-0.119,0.038-0.177,0.056c0.207,0.289,0.408,0.579,0.624,0.858
	c0.05,0.064,0.149,0.09,0.229,0.129c0.037,0.017,0.08,0.022,0.12,0.033c0,0.013,0,0.026,0,0.039
	c-0.047,0.004-0.094,0.011-0.142,0.011c-0.102,0-0.205-0.02-0.303-0.001c-0.236,0.043-0.372-0.058-0.481-0.259
	c-0.119-0.215-0.266-0.414-0.406-0.616c-0.034-0.048-0.084-0.097-0.138-0.116c-0.168-0.064-0.23-0.015-0.231,0.161
	c0,0.165-0.001,0.329,0,0.492C23.315,43.82,23.35,43.855,23.559,43.876z M19.951,43.489c-0.557,0.63-1.733,0.667-2.329,0.072
	c-0.39-0.389-0.369-0.965,0.054-1.328c0.314-0.27,0.691-0.367,1.068-0.365c0.445-0.001,0.823,0.102,1.139,0.382
	C20.261,42.589,20.288,43.108,19.951,43.489z M12.049,42.237c0.209,0.368,0.418,0.738,0.627,1.106
	c0.026,0.045,0.054,0.088,0.093,0.155c0.116-0.178,0.224-0.335,0.321-0.5c0.017-0.031,0.002-0.094-0.019-0.13
	c-0.137-0.25-0.269-0.502-0.426-0.739c-0.062-0.092-0.183-0.146-0.282-0.22c0.31,0,0.63,0,0.951,0
	c0.001,0.012,0.003,0.024,0.005,0.035c-0.071,0.018-0.143,0.034-0.25,0.059c0.102,0.188,0.197,0.364,0.31,0.572
	c0.105-0.18,0.196-0.326,0.273-0.479c0.013-0.024-0.021-0.086-0.051-0.113c-0.029-0.026-0.078-0.028-0.118-0.071
	c0.233,0,0.468,0,0.701,0c0.002,0.008,0.005,0.018,0.006,0.026c-0.032,0.013-0.065,0.041-0.097,0.038
	c-0.162-0.01-0.242,0.092-0.316,0.211c-0.085,0.139-0.178,0.275-0.262,0.416c-0.021,0.036-0.042,0.097-0.026,0.128
	c0.123,0.244,0.255,0.482,0.398,0.751c0.25-0.471,0.484-0.912,0.719-1.354c0.042-0.081,0.016-0.128-0.073-0.144
	c-0.045-0.009-0.09-0.021-0.135-0.032c0.001-0.014,0.003-0.028,0.005-0.041c0.244,0,0.489,0,0.778,0
	c-0.059,0.034-0.082,0.059-0.104,0.058c-0.211-0.012-0.29,0.141-0.371,0.292c-0.289,0.544-0.577,1.09-0.869,1.633
	c-0.023,0.043-0.063,0.078-0.096,0.116c-0.038-0.038-0.088-0.069-0.112-0.116c-0.142-0.261-0.276-0.526-0.427-0.815
	c-0.08,0.131-0.146,0.24-0.212,0.349c-0.093,0.152-0.185,0.305-0.276,0.458c-0.104,0.174-0.141,0.174-0.237,0.002
	c-0.153-0.268-0.304-0.537-0.456-0.805c-0.158-0.282-0.319-0.562-0.474-0.845c-0.08-0.145-0.162-0.277-0.354-0.274
	c-0.015,0-0.028-0.008-0.042-0.014c-0.006-0.003-0.011-0.013-0.032-0.043c0.356,0,0.696,0,1.059,0
	c-0.027,0.034-0.028,0.039-0.033,0.041C11.93,42.03,11.93,42.029,12.049,42.237z M52.572,45.388c-0.042,0.01-0.086,0.004-0.13,0.004
	c-13.729,0-27.458,0-41.188-0.001c-0.068,0-0.137-0.018-0.206-0.028c0.006-0.021,0.011-0.041,0.017-0.062
	c13.851,0,27.702,0,41.599,0C52.615,45.348,52.597,45.38,52.572,45.388z M52.89,43.919c-0.005,0.02-0.065,0.038-0.101,0.038
	c-0.593,0.001-1.188,0-1.78,0c-0.017,0-0.034-0.011-0.058-0.047c0.033-0.012,0.065-0.031,0.101-0.035
	c0.22-0.027,0.249-0.061,0.25-0.284c0-0.449,0.001-0.898,0-1.347c-0.001-0.212-0.026-0.24-0.232-0.265
	c-0.029-0.002-0.058-0.01-0.085-0.018c-0.013-0.003-0.023-0.013-0.032-0.054c0.047-0.007,0.092-0.021,0.139-0.021
	c0.545-0.001,1.09,0.002,1.635-0.003c0.105,0,0.165,0.019,0.154,0.142c-0.008,0.098-0.001,0.199-0.001,0.298
	c-0.014,0.005-0.027,0.011-0.039,0.018c-0.031-0.027-0.074-0.048-0.091-0.082c-0.08-0.156-0.219-0.217-0.375-0.239
	c-0.152-0.02-0.308-0.024-0.462-0.03c-0.116-0.003-0.18,0.051-0.177,0.175c0.002,0.164,0.002,0.328,0,0.492
	c-0.001,0.095,0.04,0.146,0.137,0.146c0.12,0,0.241,0.005,0.362-0.005c0.14-0.013,0.262-0.063,0.316-0.212
	c0.011-0.03,0.043-0.054,0.086-0.106c0.011,0.066,0.021,0.096,0.02,0.125c-0.003,0.178-0.006,0.356-0.013,0.534
	c-0.001,0.03-0.021,0.06-0.03,0.088c-0.029-0.019-0.063-0.035-0.086-0.059c-0.072-0.078-0.128-0.208-0.213-0.228
	c-0.164-0.041-0.344-0.025-0.515-0.021c-0.022,0.001-0.06,0.073-0.062,0.113c-0.006,0.192-0.007,0.385-0.001,0.579
	c0.005,0.153,0.069,0.224,0.219,0.233c0.145,0.01,0.29,0.012,0.435,0c0.178-0.016,0.312-0.117,0.412-0.263
	c0.035-0.051,0.074-0.096,0.111-0.144c0.021,0.007,0.044,0.013,0.065,0.018C52.951,43.61,52.926,43.766,52.89,43.919z
	 M18.733,41.945c0.542,0.001,0.967,0.432,0.962,0.979c-0.006,0.563-0.391,0.983-0.901,0.981c-0.53-0.001-0.958-0.475-0.957-1.06
	C17.838,42.306,18.198,41.945,18.733,41.945z M23.351,42.846c-0.018-0.136-0.035-0.271-0.053-0.406
	c0.006-0.001,0.012-0.001,0.017-0.002c0-0.097,0.001-0.193,0-0.289c0-0.111,0.054-0.165,0.164-0.179
	c0.302-0.04,0.564,0.135,0.615,0.416c0.034,0.191-0.061,0.391-0.247,0.436C23.688,42.858,23.516,42.84,23.351,42.846z"/>
</svg>
