<?xml version="1.0" encoding="utf-8"?>
<!-- Generator: Adobe Illustrator 16.0.0, SVG Export Plug-In . SVG Version: 6.00 Build 0)  -->
<!DOCTYPE svg PUBLIC "-//W3C//DTD SVG 1.1//EN" "http://www.w3.org/Graphics/SVG/1.1/DTD/svg11.dtd">
<svg version="1.1" id="Layer_1" xmlns="http://www.w3.org/2000/svg" xmlns:xlink="http://www.w3.org/1999/xlink" x="0px" y="0px"
	 width="64px" height="64px" viewBox="0 0 64 64" enable-background="new 0 0 64 64" xml:space="preserve">
<path fill-rule="evenodd" clip-rule="evenodd" d="M27.961,32.453l-3.033-0.041c-0.192,0.457-0.299,0.604-0.752,0.935
	c-0.233,0.17-0.597,0.215-1.245,0.215c-0.874,0-1.391-0.319-1.756-0.708c-0.383-0.406-0.574-0.67-0.584-1.747h7.484
	c0.008-0.2-0.002-0.676-0.002-0.776c0-1.642-0.594-3.17-1.482-4.074c-0.89-0.905-2.333-1.305-3.736-1.305
	c-1.449,0-2.979,0.489-3.889,1.413c-0.91,0.924-1.432,2.398-1.432,4.071c0,1.618,0.584,3.145,1.485,4.04
	c0.896,0.895,2.399,1.289,3.935,1.289c1.219,0,2.463-0.306,3.247-0.868C26.985,34.336,27.67,33.468,27.961,32.453z M21.345,27.767
	c0.384-0.35,0.847-0.53,1.446-0.53c0.628,0,1.308,0.297,1.654,0.71c0.18,0.213,0.537,0.54,0.534,1.358h-4.285
	C20.686,28.618,20.918,28.153,21.345,27.767z M58.786,13.698H5.214c-0.804,0-1.454,0.651-1.454,1.454v33.695
	c0,0.803,0.65,1.454,1.454,1.454h53.572c0.804,0,1.454-0.651,1.454-1.454V15.152C60.24,14.349,59.59,13.698,58.786,13.698z
	 M51.923,28.825h1.07v0.241h-0.391v1.067h-0.288v-1.067h-0.392V28.825z M44.749,28.825h2.989v0.303H46.69l2.045,4.879l1.686-4.879
	h-1.219v-0.303h2.234v0.303h-0.629l-2.564,7.364c-0.131,0.392-0.259,0.708-0.386,0.952c-0.125,0.241-0.259,0.431-0.398,0.566
	c-0.14,0.134-0.29,0.227-0.449,0.272c-0.158,0.047-0.337,0.07-0.531,0.07c-0.505,0-0.859-0.109-1.064-0.33v-2.18h0.302l0.378,1.356
	c0.102,0.363,0.207,0.596,0.314,0.699c0.106,0.101,0.216,0.153,0.329,0.153c0.139,0,0.271-0.056,0.396-0.168
	c0.127-0.111,0.244-0.265,0.357-0.461c0.11-0.196,0.217-0.427,0.314-0.692c0.096-0.265,0.188-0.547,0.271-0.846l-2.803-6.754h-0.525
	V28.825z M43.316,29.05c-0.221-0.191-0.518-0.287-0.891-0.287c-0.243,0-0.449,0.036-0.617,0.111
	c-0.168,0.074-0.321,0.203-0.456,0.385c-0.134,0.182-0.268,0.433-0.401,0.754c-0.129,0.322-0.279,0.725-0.447,1.209h-0.303v-2.266
	c0.364-0.148,0.718-0.269,1.063-0.36c0.345-0.092,0.702-0.138,1.075-0.138c0.438,0,0.814,0.055,1.132,0.161
	c0.316,0.108,0.579,0.245,0.788,0.413c0.211,0.168,0.365,0.359,0.461,0.573c0.098,0.214,0.148,0.429,0.148,0.644v5.229h0.669v0.302
	h-1.892v-1.228h-0.038c-0.167,0.439-0.438,0.791-0.811,1.055c-0.372,0.265-0.811,0.399-1.313,0.399c-0.636,0-1.148-0.17-1.539-0.511
	c-0.392-0.339-0.587-0.817-0.587-1.433c0-0.411,0.072-0.739,0.216-0.986c0.146-0.247,0.339-0.443,0.583-0.587
	c0.243-0.146,0.515-0.251,0.819-0.322c0.303-0.071,0.615-0.133,0.932-0.189c0.317-0.057,0.628-0.118,0.931-0.188
	c0.305-0.071,0.572-0.175,0.808-0.315v-1.47C43.646,29.561,43.533,29.241,43.316,29.05z M52.39,41.177
	c-1.249-0.195-2.496-0.398-3.747-0.58c-1.122-0.164-2.247-0.321-3.374-0.453c-1.091-0.126-2.183-0.238-3.276-0.318
	c-1.218-0.09-2.438-0.152-3.657-0.2c-1.04-0.041-2.082-0.053-3.124-0.062c-1.72-0.013-3.438-0.021-5.159-0.016
	c-1.161,0.003-2.323,0.014-3.483,0.053c-1.846,0.062-3.692,0.126-5.535,0.235c-1.574,0.093-3.146,0.231-4.715,0.383
	c-1.753,0.171-3.498,0.411-5.225,0.764c-0.545,0.111-1.084,0.245-1.646,0.372c0.05-0.025,0.085-0.046,0.122-0.063
	c1.721-0.802,3.516-1.395,5.349-1.874c1.963-0.512,3.953-0.884,5.961-1.169c0.531-0.075,1.066-0.13,1.601-0.191
	c-4.108-0.172-7.389-3.549-7.389-7.699c0-4.261,3.453-7.715,7.714-7.715c3.737,0,6.853,2.657,7.563,6.184h2.344v0.303h-0.894
	l1.875,5.372h0.028l1.09-3.189l-0.728-2.183h-0.838v-0.303h3.464v0.303h-1.312l1.845,5.372h0.026l1.901-5.372h-1.144v-0.303h1.871
	v0.303h-0.308l-2.458,6.854h-0.729l-1.397-4.138h-0.028l-1.453,4.138h-0.699l-2.375-6.854h-0.036
	c0.063,0.401,0.105,0.809,0.105,1.228c0,3.604-2.474,6.622-5.813,7.469c0.671-0.058,1.343-0.119,2.017-0.158
	c1.164-0.066,2.328-0.095,3.494-0.141c0.031-0.001,0.063-0.014,0.095-0.021c1.133,0,2.265,0,3.397,0
	c0.186,0.01,0.372,0.02,0.558,0.03c1.03,0.057,2.063,0.096,3.092,0.176c1.063,0.083,2.128,0.177,3.184,0.32
	c1.315,0.18,2.628,0.393,3.934,0.63c1.906,0.346,3.779,0.827,5.626,1.415c1.053,0.336,2.093,0.706,3.101,1.162
	c0.047,0.021,0.09,0.043,0.129,0.088C53.018,41.279,52.704,41.227,52.39,41.177z M54.552,30.133h-0.268v-0.928h-0.005l-0.32,0.928
	h-0.221l-0.322-0.918h-0.003v0.918h-0.269v-1.308h0.403l0.306,0.9h0.004l0.289-0.9h0.405V30.133z M42.531,32.222
	c0.351-0.066,0.722-0.192,1.114-0.379v1.065c0,0.774-0.16,1.397-0.478,1.871c-0.316,0.47-0.742,0.714-1.273,0.734
	c-0.373,0-0.655-0.108-0.847-0.323s-0.287-0.586-0.287-1.12c0-0.504,0.077-0.868,0.232-1.093c0.151-0.223,0.359-0.389,0.621-0.497
	C41.876,32.372,42.183,32.287,42.531,32.222z"/>
</svg>
