<?xml version="1.0" encoding="utf-8"?>
<!-- Generator: Adobe Illustrator 16.0.0, SVG Export Plug-In . SVG Version: 6.00 Build 0)  -->
<!DOCTYPE svg PUBLIC "-//W3C//DTD SVG 1.1//EN" "http://www.w3.org/Graphics/SVG/1.1/DTD/svg11.dtd">
<svg version="1.1" id="Layer_1" xmlns="http://www.w3.org/2000/svg" xmlns:xlink="http://www.w3.org/1999/xlink" x="0px" y="0px"
	 width="64px" height="64px" viewBox="0 0 64 64" enable-background="new 0 0 64 64" xml:space="preserve">
<path d="M48.809,37.513c0.051,0.19,0.07,0.475,0.07,0.677v1.76c0,0.292-0.021,0.503-0.072,0.708
	c-0.278,1.145-1.218,1.914-2.339,1.914c-1.933,0-2.621-1.744-2.621-3.375c0-2.152,1.045-3.542,2.663-3.542
	C47.799,35.653,48.592,36.58,48.809,37.513z M27.021,41.312c0,1.285,1.044,1.385,1.364,1.385c1.183,0,1.869-0.777,2.096-1.443
	c0.054-0.163,0.084-0.329,0.084-0.465V39.4C28.214,39.414,27.021,40.057,27.021,41.312z M60.24,15.152v33.695
	c0,0.803-0.65,1.454-1.454,1.454H5.214c-0.804,0-1.454-0.651-1.454-1.454V15.152c0-0.803,0.65-1.454,1.454-1.454h53.572
	C59.59,13.698,60.24,14.349,60.24,15.152z M15.12,37.205c0-3.412,1.919-5.449,5.135-5.449c1.002,0,1.956,0.195,2.686,0.549
	c0.097,0.047,0.213,0.049,0.315,0.006c0.101-0.044,0.177-0.131,0.208-0.237l0.44-1.488c0.051-0.172-0.027-0.356-0.187-0.439
	c-0.302-0.158-1.45-0.671-3.525-0.671c-4.563,0-7.749,3.204-7.749,7.792c0,4.568,2.885,7.519,7.351,7.519
	c1.828,0,3.212-0.367,3.897-0.71c0.158-0.08,0.24-0.259,0.195-0.43l-0.377-1.445c-0.028-0.108-0.104-0.199-0.206-0.246
	c-0.102-0.049-0.221-0.046-0.32,0.003c-0.698,0.338-1.775,0.549-2.811,0.549C17.009,42.508,15.12,40.525,15.12,37.205z
	 M33.259,44.135c-0.109-0.598-0.162-1.371-0.162-2.363V37.98c0-2.917-1.502-4.523-4.229-4.523c-1.307,0-2.595,0.351-3.535,0.961
	c-0.145,0.094-0.207,0.274-0.15,0.437l0.419,1.215c0.038,0.109,0.123,0.195,0.232,0.232c0.107,0.037,0.229,0.022,0.326-0.04
	c0.671-0.435,1.582-0.694,2.436-0.694c1.244,0,1.875,0.592,1.926,1.808c-5.292,0.089-6.093,2.623-6.093,4.144
	c0,1.633,1.194,3.287,3.476,3.287c1.103,0,2.131-0.391,2.879-1.073l0.059,0.51c0.021,0.189,0.182,0.333,0.373,0.333h1.676
	c0.111,0,0.217-0.049,0.288-0.135S33.278,44.245,33.259,44.135z M33.601,25.707c0-0.207-0.168-0.375-0.375-0.375h-3.713
	c-0.207,0-0.375,0.168-0.375,0.375v1.171c0,0.207,0.168,0.375,0.375,0.375h1.917v2.732c-0.256,0.08-0.742,0.181-1.566,0.181
	c-2.488,0-3.974-1.561-3.974-4.175c0-2.565,1.593-4.158,4.158-4.158c1.171,0,1.866,0.242,2.34,0.453
	c0.098,0.043,0.211,0.042,0.31-0.002c0.098-0.045,0.172-0.13,0.202-0.234l0.352-1.188c0.052-0.176-0.031-0.364-0.196-0.444
	c-0.556-0.269-1.628-0.556-2.973-0.556c-3.858,0-6.463,2.49-6.481,6.197c0,1.805,0.615,3.434,1.688,4.471
	c1.122,1.07,2.586,1.591,4.475,1.591c1.493,0,2.776-0.348,3.589-0.64c0.149-0.054,0.248-0.195,0.248-0.353V25.707z M34.848,21.256
	c0,0.717,0.555,1.278,1.263,1.278c0.386,0,0.731-0.138,0.973-0.388c0.229-0.238,0.349-0.559,0.337-0.89
	c0-0.75-0.537-1.295-1.277-1.295C35.405,19.961,34.848,20.518,34.848,21.256z M35.407,32.003h1.472c0.207,0,0.375-0.168,0.375-0.375
	v-8.097c0-0.207-0.168-0.375-0.375-0.375h-1.472c-0.207,0-0.375,0.168-0.375,0.375v8.097C35.032,31.835,35.2,32.003,35.407,32.003z
	 M41.081,33.895c0-0.172-0.117-0.322-0.284-0.364c-1.148-0.288-2.4,0.233-3.171,1.249l-0.023-0.729
	c-0.007-0.203-0.172-0.363-0.375-0.363h-1.612c-0.104,0-0.203,0.043-0.274,0.119s-0.107,0.178-0.1,0.281
	c0.057,0.857,0.082,1.825,0.082,3.139v6.977c0,0.207,0.168,0.375,0.375,0.375h1.823c0.207,0,0.375-0.168,0.375-0.375v-5.405
	c0-0.286,0.04-0.563,0.078-0.792c0.23-1.27,1.036-2.059,2.103-2.059c0.213,0,0.377,0.016,0.548,0.054
	c0.11,0.023,0.227-0.003,0.315-0.074c0.089-0.071,0.14-0.179,0.14-0.292V33.895z M41.305,31.628v-6.601h1.582
	c0.123,0,0.226-0.063,0.294-0.153c0.068,0.091,0.172,0.153,0.294,0.153h0.88v4.041c0,1.138,0.214,1.89,0.661,2.354
	c0.427,0.49,1.075,0.749,1.871,0.749c0.574,0,1.088-0.082,1.448-0.229c0.148-0.061,0.242-0.209,0.232-0.37L48.5,30.469
	c-0.007-0.112-0.064-0.215-0.155-0.281c-0.091-0.065-0.208-0.088-0.315-0.058c-0.15,0.04-0.404,0.087-0.757,0.087
	c-0.369,0-0.729-0.092-0.729-1.197v-3.991h1.732c0.207,0,0.375-0.168,0.375-0.375v-1.121c0-0.207-0.168-0.375-0.375-0.375h-1.732
	v-1.95c0-0.117-0.054-0.227-0.146-0.297c-0.093-0.072-0.214-0.095-0.325-0.065l-1.438,0.385c-0.164,0.044-0.278,0.192-0.278,0.362
	v1.565h-0.88c-0.123,0-0.226,0.063-0.294,0.153c-0.068-0.091-0.172-0.153-0.294-0.153h-1.582v-0.061
	c0-1.967,0.871-1.967,1.198-1.967c0.302,0,0.563,0.05,0.778,0.15c0.104,0.048,0.228,0.046,0.331-0.008s0.176-0.152,0.196-0.267
	l0.201-1.138c0.031-0.173-0.063-0.345-0.226-0.412c-0.191-0.079-0.71-0.263-1.397-0.263c-0.87,0-1.664,0.305-2.232,0.856
	c-0.7,0.665-1.054,1.708-1.054,3.099l-0.763,0.01c-0.207,0-0.375,0.168-0.375,0.375v1.121c0,0.207,0.168,0.375,0.375,0.375H39.1
	v6.601c0,0.207,0.168,0.375,0.375,0.375h1.455C41.137,32.003,41.305,31.835,41.305,31.628z M51.555,44.169
	c-0.072-0.794-0.083-1.96-0.083-2.585V29.328c0-0.207-0.168-0.375-0.375-0.375h-1.844c-0.207,0-0.375,0.168-0.375,0.375v5.063
	c-0.682-0.596-1.642-0.934-2.726-0.934c-1.241,0-2.41,0.488-3.29,1.373c-1.063,1.069-1.642,2.65-1.631,4.449
	c0,3.204,1.981,5.529,4.712,5.529c1.259,0,2.399-0.484,3.173-1.31l0.035,0.722c0.009,0.2,0.174,0.357,0.375,0.357h1.655
	c0.105,0,0.206-0.044,0.277-0.122C51.529,44.378,51.564,44.274,51.555,44.169z"/>
</svg>
