<?xml version="1.0" encoding="utf-8"?>
<!-- Generator: Adobe Illustrator 16.0.0, SVG Export Plug-In . SVG Version: 6.00 Build 0)  -->
<!DOCTYPE svg PUBLIC "-//W3C//DTD SVG 1.1//EN" "http://www.w3.org/Graphics/SVG/1.1/DTD/svg11.dtd">
<svg version="1.1" id="Layer_1" xmlns="http://www.w3.org/2000/svg" xmlns:xlink="http://www.w3.org/1999/xlink" x="0px" y="0px"
	 width="64px" height="64px" viewBox="0 0 64 64" enable-background="new 0 0 64 64" xml:space="preserve">
<path d="M29.619,44.813c0.408,0.29,0.586,0.435,0.586,0.708c0,0.332-0.274,0.579-0.79,0.579c-0.574,0-0.944-0.273-0.944-0.654
	s0.344-0.509,0.462-0.553c0.225-0.075,0.514-0.086,0.563-0.086C29.549,44.808,29.576,44.808,29.619,44.813z M26.62,42.334
	c-0.177,0-0.353,0.07-0.482,0.181c-0.209,0.188-0.248,0.425-0.248,0.656c0,0.531,0.264,1.405,0.914,1.405
	c0.209,0,0.422-0.102,0.546-0.274c0.129-0.171,0.161-0.386,0.161-0.595C27.511,43.236,27.286,42.334,26.62,42.334z M33.498,42.806
	c0-0.214-0.241-0.461-0.532-0.461c-0.214,0-0.616,0.167-0.616,0.747c0,0.091,0.01,0.188,0.016,0.284l0.976-0.424
	C33.444,42.914,33.498,42.882,33.498,42.806z M29.232,42.415c-0.14,0-0.29,0.07-0.375,0.177c-0.09,0.113-0.118,0.259-0.118,0.398
	c0,0.359,0.21,0.956,0.671,0.956c0.134,0,0.28-0.066,0.366-0.151c0.123-0.124,0.133-0.295,0.133-0.392
	C29.909,43.017,29.679,42.415,29.232,42.415z M38.669,43.91c0,0.376,0.226,0.557,0.538,0.557c0.275,0,0.526-0.201,0.627-0.417
	v-0.547c-0.135-0.065-0.326-0.12-0.583-0.12C38.91,43.383,38.669,43.554,38.669,43.91z M43.138,42.439
	c-0.376,0-0.583,0.316-0.603,0.813h1.186v-0.01C43.705,42.791,43.524,42.439,43.138,42.439z M23.766,42.334
	c-0.177,0-0.354,0.07-0.483,0.181c-0.209,0.188-0.248,0.425-0.248,0.656c0,0.531,0.263,1.405,0.913,1.405
	c0.209,0,0.423-0.102,0.547-0.274c0.128-0.171,0.161-0.386,0.161-0.595C24.657,43.236,24.431,42.334,23.766,42.334z M60.24,15.152
	v33.695c0,0.803-0.65,1.454-1.454,1.454H5.214c-0.804,0-1.454-0.651-1.454-1.454V15.152c0-0.803,0.65-1.454,1.454-1.454h53.572
	C59.59,13.698,60.24,14.349,60.24,15.152z M26.746,23.215c0.723,1.163,1.149,2.482,1.305,3.841c0.042,0.362,0.068,0.726,0.068,1.093
	c0,1.749-0.477,3.458-1.378,4.943c-0.032,0.052-0.06,0.105-0.086,0.159c-0.175,0.354-0.239,0.737-0.204,1.11
	c0.06,0.631,0.403,1.229,0.986,1.582c0.15,0.09,0.31,0.159,0.475,0.21c0.195,0.059,0.397,0.091,0.601,0.091
	c0.731,0,1.396-0.373,1.776-0.998c1.142-1.881,1.809-4.01,1.951-6.205c0.02-0.296,0.029-0.594,0.029-0.893
	c0-2.502-0.682-4.952-1.971-7.083c-0.039-0.064-0.083-0.124-0.127-0.182c-0.145-0.19-0.318-0.349-0.512-0.476
	c-0.329-0.215-0.724-0.341-1.125-0.341c-0.333,0-0.503,0.041-0.743,0.137c-0.245,0.098-0.506,0.231-0.742,0.48
	c-0.234,0.247-0.374,0.499-0.472,0.76C26.378,21.97,26.401,22.662,26.746,23.215z M21.18,26.358c2.89,1.546,4.754,4.495,4.975,7.903
	c0-0.001,0-0.003,0-0.003c-0.033-0.38,0.029-0.751,0.204-1.104c0.024-0.05,0.053-0.102,0.086-0.159
	c0.903-1.485,1.378-3.195,1.378-4.943c0-0.367-0.025-0.731-0.067-1.093c-1.188-1.638-2.842-3.072-4.715-4.076
	c-0.286-0.152-0.606-0.233-0.928-0.233c-0.731,0-1.396,0.398-1.74,1.041C19.859,24.648,20.222,25.844,21.18,26.358z M22.36,43.49
	h-1.066l-0.403,0.216l0.76-0.041v0.81c-0.149,0.061-0.316,0.126-0.638,0.126c-1.097,0-1.78-0.891-1.78-1.836
	c0-0.879,0.598-1.484,1.392-1.484c0.594,0,0.907,0.307,1.078,0.474l-0.126,0.201l0.176-0.041l0.418-0.397
	c-0.111-0.076-0.288-0.206-0.665-0.312c-0.237-0.065-0.499-0.105-0.77-0.105c-1.283,0-2.033,0.905-2.033,1.882
	c0,0.799,0.529,1.82,1.917,1.82c0.276,0,0.538-0.041,0.83-0.086l0.72-0.165v-0.614c0-0.05,0.004-0.196,0.008-0.241
	c0.011-0.04,0.016-0.05,0.051-0.08L22.36,43.49z M25.188,43.434c0-0.649-0.494-1.266-1.281-1.266c-0.816,0-1.39,0.6-1.39,1.304
	c0,0.601,0.456,1.266,1.309,1.266C24.7,44.738,25.188,44.068,25.188,43.434z M28.043,43.434c0-0.649-0.495-1.266-1.283-1.266
	c-0.815,0-1.389,0.6-1.389,1.304c0,0.601,0.456,1.266,1.309,1.266C27.554,44.738,28.043,44.068,28.043,43.434z M30.001,42.43h0.332
	l0.344-0.193h-1.105c-0.29,0-0.654,0.042-0.96,0.295c-0.231,0.198-0.344,0.473-0.344,0.72c0,0.418,0.322,0.842,0.891,0.842
	c0.053,0,0.112-0.005,0.171-0.011c-0.026,0.065-0.054,0.118-0.054,0.209c0,0.167,0.086,0.268,0.161,0.365
	c-0.241,0.016-0.691,0.043-1.024,0.246C28.095,45.092,28,45.366,28,45.559c0,0.397,0.375,0.768,1.153,0.768
	c0.922,0,1.41-0.51,1.41-1.014c0-0.37-0.214-0.552-0.45-0.751l-0.193-0.15c-0.059-0.048-0.14-0.113-0.14-0.23
	c0-0.118,0.081-0.194,0.15-0.263c0.225-0.177,0.45-0.365,0.45-0.762C30.38,42.747,30.124,42.532,30.001,42.43z M31.958,44.551
	c-0.091-0.01-0.184-0.016-0.274-0.028c-0.177-0.015-0.214-0.048-0.214-0.257v-1.239c0-0.762,0.005-1.417,0.049-1.83
	c0.021-0.188,0.075-0.221,0.241-0.317h-0.767l-0.402,0.193h0.417c-0.004,0.247-0.025,0.59-0.031,0.864
	c-0.016,0.557-0.022,1.154-0.022,1.572v0.875c0,0.106-0.021,0.123-0.144,0.283h0.949L31.958,44.551z M34.131,44.282
	c-0.182,0.092-0.381,0.188-0.655,0.188c-0.51,0-0.971-0.397-1.104-1.078l0.412-0.033l1.261-0.509
	c-0.037-0.124-0.107-0.355-0.375-0.531c-0.16-0.103-0.359-0.151-0.552-0.151c-0.552,0-1.228,0.407-1.228,1.24
	c0,0.402,0.165,0.863,0.547,1.132c0.273,0.198,0.541,0.209,0.712,0.209c0.161,0,0.344-0.021,0.521-0.103
	c0.059-0.026,0.12-0.064,0.177-0.096L34.131,44.282z M34.435,35.467c1.086-2.295,1.635-4.758,1.635-7.318
	c0-0.88-0.06-1.522-0.105-1.928c-1.42-2.273-3.479-4.304-5.888-5.796c-0.015-0.01-0.029-0.02-0.031-0.021
	c0.011,0.006,0.021,0.014,0.031,0.021c0.014,0.009,0.028,0.019,0.03,0.02c0.167,0.121,0.308,0.247,0.456,0.438
	c0.036,0.047,0.086,0.113,0.128,0.182c1.29,2.132,1.972,4.581,1.972,7.083c0,0.298-0.01,0.596-0.029,0.893
	c1.035,1.969,1.599,4.207,1.599,6.555c0,0.187,0.003,0.487-0.001,0.706c0.01-0.246,0.072-0.505,0.16-0.731
	C34.405,35.536,34.418,35.5,34.435,35.467z M38.061,42.238h-0.296l-0.447,2.179l-0.481-2.179h-0.387l-0.477,2.179l-0.457-2.179
	h-0.301l0.557,2.43h0.382l0.492-2.169l0.481,2.169h0.382L38.061,42.238z M40.149,44.668c-0.03-0.121-0.045-0.266-0.045-0.477v-1.24
	c0-0.538-0.302-0.769-0.838-0.769c-0.457,0-0.768,0.267-0.824,0.663l0.271,0.04c0.046-0.281,0.231-0.452,0.543-0.452
	c0.401,0,0.577,0.15,0.577,0.547v0.261c-0.131-0.06-0.332-0.105-0.577-0.105c-0.508,0-0.864,0.275-0.864,0.773
	c0,0.542,0.351,0.813,0.799,0.813c0.255,0,0.527-0.141,0.642-0.311c0,0.07,0.01,0.19,0.034,0.256H40.149z M40.225,32.952
	c0.354-1.558,0.54-3.163,0.54-4.803c0-1.622-0.186-3.25-0.539-4.804c-0.348-1.525-0.865-3.015-1.537-4.428
	c-0.361-0.755-1.133-1.243-1.97-1.243c-0.323,0-0.639,0.071-0.934,0.211c-1.085,0.517-1.547,1.822-1.032,2.904
	c1.107,2.333,1.654,4.799,1.654,7.36c0,2.56-0.55,5.023-1.635,7.318c-0.017,0.035-0.207,0.441-0.207,0.91
	c-0.001,0.132,0.014,0.329,0.055,0.505c0.141,0.617,0.544,1.177,1.189,1.486c0.296,0.14,0.607,0.21,0.93,0.21
	c0.795,0,1.531-0.439,1.911-1.13c0.434-0.815,0.874-1.887,1.255-3.267C40.029,33.765,40.13,33.374,40.225,32.952z M40.934,41.204
	h-0.276v3.464h0.276V41.204z M41.797,41.204h-0.276v3.464h0.276V41.204z M44.016,43.412c0-0.707-0.25-1.229-0.878-1.229
	c-0.598,0-0.889,0.472-0.889,1.25c0,0.869,0.341,1.29,0.918,1.29c0.442,0,0.779-0.267,0.848-0.854l-0.281-0.04
	c-0.055,0.457-0.271,0.632-0.567,0.632c-0.382,0-0.633-0.291-0.633-0.959h1.481V43.412z M45.297,42.238h-0.486v-0.894l-0.282,0.11
	v0.784h-0.316v0.251h0.316v1.681c0,0.346,0.115,0.527,0.477,0.527c0.12,0,0.23-0.02,0.291-0.045v-0.276
	c-0.065,0.035-0.15,0.055-0.247,0.055c-0.195,0-0.24-0.065-0.24-0.296V42.49h0.486V42.238z"/>
</svg>
