<?xml version="1.0" encoding="utf-8"?>
<!-- Generator: Adobe Illustrator 16.0.0, SVG Export Plug-In . SVG Version: 6.00 Build 0)  -->
<!DOCTYPE svg PUBLIC "-//W3C//DTD SVG 1.1//EN" "http://www.w3.org/Graphics/SVG/1.1/DTD/svg11.dtd">
<svg version="1.1" id="Layer_1" xmlns="http://www.w3.org/2000/svg" xmlns:xlink="http://www.w3.org/1999/xlink" x="0px" y="0px"
	 width="64px" height="64px" viewBox="0 0 64 64" enable-background="new 0 0 64 64" xml:space="preserve">
<path fill-rule="evenodd" clip-rule="evenodd" d="M18.234,39.514c0.002,0.013,0,0.027,0,0.054c-0.914,0.01-1.822-0.007-2.75,0.015
	c0.084-0.359,0.252-0.638,0.531-0.843c0.182-0.134,0.387-0.208,0.607-0.237c0.26-0.033,0.518-0.031,0.768,0.057
	C17.85,38.719,18.109,39.057,18.234,39.514z M11.277,45.855c-0.047,0.246-0.092,0.484-0.139,0.73c0.158,0,0.303,0,0.469,0
	c-0.047-0.249-0.09-0.487-0.135-0.73C11.404,45.855,11.344,45.855,11.277,45.855z M53.676,39.328
	c-0.494-0.889-1.664-1.063-2.389-0.35c-0.598,0.589-0.631,1.596-0.066,2.218c0.395,0.435,0.885,0.603,1.461,0.478
	c0.654-0.141,1.191-0.746,1.201-1.551C53.883,39.841,53.813,39.577,53.676,39.328z M8.5,45.17c-0.154-0.006-0.311,0-0.473,0
	c0,0.227,0,0.445,0,0.68c0.055,0,0.096,0,0.137,0c0.09,0,0.184,0.008,0.271-0.007c0.063-0.009,0.129-0.038,0.178-0.078
	c0.127-0.104,0.15-0.358,0.053-0.491C8.625,45.217,8.568,45.174,8.5,45.17z M24.322,39.045c-0.422-0.459-1.1-0.607-1.662-0.343
	c-0.613,0.288-0.891,0.8-0.924,1.412c0.014,0.526,0.182,0.938,0.543,1.257c0.355,0.314,0.775,0.436,1.246,0.346
	c0.666-0.127,1.232-0.738,1.232-1.566C24.758,39.729,24.609,39.357,24.322,39.045z M60.24,15.152v33.695
	c0,0.803-0.65,1.454-1.454,1.454H5.214c-0.804,0-1.454-0.651-1.454-1.454V15.152c0-0.803,0.65-1.454,1.454-1.454h53.572
	C59.59,13.698,60.24,14.349,60.24,15.152z M34.26,16.843c0.41,0.443,0.797,0.909,1.164,1.395c0.045,0.059,0.078,0.071,0.146,0.042
	c1.256-0.551,2.557-0.954,3.908-1.192c0.275-0.047,0.555-0.086,0.832-0.127v-0.117H34.26z M36.619,29.951
	c-0.045,1.202-0.264,2.374-0.604,3.524h0.875c1.746-3.417,1.904-6.947,0.592-10.601c-0.84,0.254-1.621,0.581-2.371,1.011
	c0.072,0.127,0.141,0.246,0.205,0.366c0.586,1.076,0.975,2.218,1.168,3.426C36.607,28.431,36.648,29.189,36.619,29.951z
	 M34.102,33.476h1.229c0.012-0.034,0.023-0.069,0.033-0.103c0.244-0.78,0.424-1.575,0.525-2.388c0.072-0.591,0.107-1.186,0.09-1.781
	c-0.055-1.754-0.498-3.402-1.359-4.933c-0.01-0.02-0.023-0.036-0.039-0.059c-0.902,0.596-1.688,1.313-2.334,2.171
	C33.666,28.561,34.271,30.922,34.102,33.476z M29.813,33.01c-0.021-0.556,0.002-1.11,0.07-1.665
	c0.223-1.765,0.797-3.401,1.795-4.881c0.043-0.063,0.037-0.097-0.006-0.153c-0.619-0.81-1.357-1.493-2.201-2.064
	c-0.021-0.015-0.045-0.03-0.078-0.051c-0.117,0.227-0.236,0.444-0.346,0.667c-0.432,0.888-0.73,1.819-0.896,2.793
	c-0.092,0.539-0.143,1.083-0.152,1.632c-0.01,0.537,0.014,1.074,0.076,1.608c0.105,0.88,0.299,1.739,0.568,2.58h1.195
	C29.826,33.32,29.816,33.166,29.813,33.01z M29.119,23.476c0.678-1.031,1.49-1.923,2.424-2.718c-0.023-0.02-0.035-0.032-0.049-0.044
	c-0.877-0.676-1.824-1.234-2.828-1.698c-0.066-0.029-0.094-0.01-0.129,0.042c-0.609,0.893-1.15,1.824-1.594,2.808
	c-0.084,0.183-0.16,0.368-0.244,0.56C27.551,22.684,28.357,23.027,29.119,23.476z M31.984,26.033c0.336-0.436,0.695-0.84,1.09-1.209
	c0.395-0.372,0.818-0.706,1.271-1.012c-0.648-1.025-1.439-1.917-2.357-2.7c-0.92,0.785-1.707,1.668-2.354,2.69
	c0.453,0.307,0.873,0.642,1.264,1.013C31.291,25.188,31.65,25.591,31.984,26.033z M34.863,23.49
	c0.777-0.449,1.586-0.788,2.443-1.046c-0.506-1.234-1.152-2.379-1.91-3.467c-1.061,0.48-2.049,1.062-2.969,1.776
	C33.373,21.562,34.189,22.461,34.863,23.49z M37.482,33.476h2.828V22.351c-0.369,0.038-0.732,0.078-1.098,0.135
	c-0.43,0.066-0.857,0.164-1.297,0.249c0.066,0.195,0.125,0.364,0.182,0.534c0.283,0.856,0.488,1.73,0.607,2.625
	c0.098,0.734,0.143,1.472,0.117,2.211c-0.061,1.759-0.463,3.439-1.186,5.043C37.588,33.257,37.537,33.366,37.482,33.476z
	 M40.311,21.92v-4.309c-1.539,0.2-3.035,0.58-4.48,1.181c0.773,1.11,1.42,2.28,1.926,3.53C38.598,22.109,39.447,21.979,40.311,21.92
	z M30.279,16.843c-0.475,0.534-0.928,1.091-1.354,1.671c1.092,0.521,2.113,1.14,3.063,1.882c0.951-0.745,1.977-1.364,3.072-1.889
	c-0.43-0.578-0.881-1.131-1.354-1.664H30.279z M23.689,16.964c1.672,0.211,3.268,0.677,4.814,1.354
	c0.385-0.512,0.789-1.007,1.219-1.476h-6.033V16.964z M23.689,21.881c0.064,0.004,0.131,0.007,0.197,0.014
	c0.773,0.073,1.541,0.19,2.295,0.389c0.055,0.015,0.086,0.012,0.109-0.05c0.484-1.194,1.102-2.316,1.828-3.376
	c0.012-0.015,0.02-0.031,0.039-0.061c-1.439-0.599-2.93-0.98-4.469-1.182V21.881z M9.264,45.566
	c-0.006-0.51-0.379-0.878-0.889-0.878c-0.365-0.003-0.734-0.001-1.102,0c0,0.95,0,1.903,0,2.854c0.17,0,0.34,0,0.52,0
	c0-0.205,0-0.398,0-0.59s0-0.383,0-0.578c0.193,0,0.375-0.007,0.555,0.003c0.15,0.007,0.295-0.007,0.434-0.056
	c0.268-0.092,0.436-0.271,0.477-0.558C9.268,45.699,9.266,45.633,9.264,45.566z M12.613,47.537c-0.318-0.957-0.635-1.9-0.949-2.845
	c-0.182,0-0.355,0-0.531,0c-0.273,0.704-0.988,2.763-0.988,2.844c0.205,0,0.412,0,0.623,0c0.051-0.151,0.098-0.3,0.146-0.452
	c0.322,0,0.639,0,0.965,0c0.045,0.153,0.092,0.307,0.137,0.453C12.219,47.537,12.41,47.537,12.613,47.537z M13.039,35.543
	c-0.402,0-0.799,0-1.207,0c0,0.959,0,1.91,0,2.863c-0.102,0.025-3.225,0.025-3.32-0.002c0-0.963,0-1.928,0-2.893
	c-0.412,0-0.824,0-1.238,0c0,2.407,0,4.814,0,7.223c0.102,0,0.203,0,0.305,0c0.104,0,0.211,0,0.314,0c0.102,0,0.203,0.002,0.305,0
	c0.104,0,0.207,0.004,0.318-0.006c0-1.063,0-2.115,0-3.164c0.02-0.007,0.029-0.014,0.039-0.014c1.057-0.002,2.113-0.003,3.17-0.003
	c0.029,0,0.057,0.005,0.084,0.009c0.002,0.001,0.006,0.004,0.008,0.006s0.006,0.005,0.016,0.015c0,0.258,0,0.524,0,0.79
	c0,0.262,0,0.524,0,0.787c0,0.266-0.002,0.531,0,0.798c0,0.264-0.006,0.528,0.004,0.792c0.18,0.02,1.129,0.012,1.203-0.01
	C13.039,40.34,13.039,37.943,13.039,35.543z M15.48,44.695c-0.236,0-0.459,0-0.682,0c-0.123,0.359-0.246,0.714-0.369,1.068
	c-0.006,0-0.016,0-0.023,0c-0.127-0.355-0.256-0.713-0.385-1.07c-0.227,0-0.443,0-0.676,0c0.02,0.047,0.035,0.09,0.053,0.129
	c0.209,0.474,0.418,0.947,0.627,1.42c0.027,0.059,0.039,0.117,0.039,0.182c-0.002,0.332,0,0.665,0,0.996c0,0.037,0,0.075,0,0.119
	c0.234,0,0.457,0,0.699,0c0-0.047,0-0.084,0-0.123c0-0.332,0-0.663,0-0.994c0-0.065,0.012-0.123,0.037-0.184
	c0.213-0.475,0.422-0.952,0.633-1.428C15.449,44.773,15.465,44.735,15.48,44.695z M19.307,44.688c-0.219,0-0.438,0-0.664,0
	c-0.174,0.406-0.342,0.804-0.51,1.201c-0.039,0-0.063-0.005-0.088,0c-0.098,0.018-0.146-0.026-0.186-0.118
	c-0.143-0.337-0.297-0.67-0.443-1.007c-0.025-0.061-0.059-0.084-0.125-0.082c-0.168,0.004-0.334,0-0.504,0.002
	c-0.025,0-0.051,0.006-0.076,0.01c-0.02,0.178-0.012,2.757,0.008,2.834c0.164,0.021,0.594,0.015,0.67-0.014c0-0.147,0-0.299,0-0.449
	c0-0.152-0.002-0.307,0-0.461c0-0.148-0.004-0.295,0.002-0.442c0.008-0.003,0.016-0.005,0.023-0.007
	c0.152,0.233,0.305,0.465,0.455,0.693c0.098,0,0.186,0,0.275,0c0.018-0.023,0.037-0.049,0.055-0.074
	c0.121-0.182,0.242-0.36,0.365-0.539c0.016-0.023,0.021-0.061,0.072-0.055c0,0.451,0,0.902,0,1.359
	c0.232,0.006,0.457,0.01,0.682-0.006C19.338,47.291,19.328,44.771,19.307,44.688z M15.434,40.485c1.363,0,2.717,0,4.084,0
	c0-0.122,0-0.229-0.002-0.333c-0.01-0.426-0.09-0.84-0.254-1.236c-0.266-0.633-0.713-1.082-1.375-1.293
	c-0.605-0.193-1.227-0.211-1.838-0.027c-0.727,0.22-1.246,0.682-1.535,1.386c-0.254,0.617-0.287,1.257-0.121,1.901
	c0.201,0.773,0.674,1.327,1.41,1.642c0.48,0.204,0.984,0.261,1.5,0.212c0.645-0.058,1.209-0.304,1.691-0.734
	c0.139-0.127,0.271-0.262,0.379-0.434c-0.305-0.195-0.605-0.391-0.906-0.586c-0.027,0.028-0.045,0.048-0.064,0.068
	c-0.111,0.131-0.238,0.244-0.387,0.336c-0.473,0.293-0.984,0.367-1.521,0.24c-0.551-0.131-0.891-0.486-1.039-1.028
	C15.445,40.566,15.443,40.531,15.434,40.485z M22.74,47.063c-0.139,0-0.27,0-0.402,0c-0.137,0-0.273,0.001-0.408,0
	c-0.133-0.001-0.264,0.005-0.393-0.003c-0.02-0.184-0.012-0.619,0.012-0.703c0.311,0,0.623,0,0.938,0c0-0.175,0-0.336,0-0.51
	c-0.32,0-0.633,0-0.943,0c-0.025-0.141-0.02-0.624,0.01-0.703c0.391,0,0.785,0,1.186,0c0-0.156,0-0.301,0-0.451
	c-0.568,0-1.129,0-1.697,0c0,0.949,0,1.893,0,2.844c0.57,0,1.133,0,1.699,0C22.74,47.378,22.74,47.227,22.74,47.063z M23.771,42.679
	c0.354-0.077,0.664-0.241,0.895-0.53c0.006-0.006,0.018-0.008,0.037-0.015c0,0.102-0.002,0.195,0.002,0.29
	c0.002,0.091-0.014,0.186,0.01,0.275c0.211,0.021,1.041,0.014,1.113-0.012c0-1.68,0-3.356,0-5.033
	c-0.119-0.025-0.984-0.02-1.072,0.008c0,0.168,0,0.342,0,0.531c-0.029-0.023-0.043-0.033-0.055-0.045
	c-0.135-0.136-0.289-0.244-0.459-0.328c-0.551-0.279-1.133-0.354-1.732-0.226c-0.914,0.194-1.523,0.739-1.791,1.638
	c-0.168,0.559-0.162,1.125-0.031,1.691c0.127,0.553,0.404,1.016,0.873,1.34C22.234,42.731,22.979,42.852,23.771,42.679z
	 M26.324,44.689c-0.232,0-0.465,0-0.711,0c0,0.111,0,0.216,0,0.32c0,0.107,0,0.217,0,0.324c0,0.105,0.002,0.21,0,0.314
	c-0.004,0.105,0.012,0.211-0.016,0.334c-0.025-0.047-0.043-0.076-0.059-0.105c-0.205-0.367-0.412-0.732-0.611-1.102
	c-0.039-0.072-0.084-0.098-0.164-0.094c-0.15,0.004-0.301,0.001-0.449,0.002c-0.035,0-0.068,0.002-0.107,0.005
	c0,0.952,0,1.897,0,2.847c0.232,0,0.459,0,0.699,0c0-0.475,0-0.943,0-1.412c0.008-0.002,0.016-0.003,0.021-0.004
	c0.018,0.032,0.037,0.063,0.053,0.098c0.205,0.408,0.412,0.816,0.611,1.229c0.037,0.075,0.08,0.103,0.16,0.097
	c0.098-0.007,0.197-0.003,0.295-0.003c0.094,0,0.188,0,0.277,0C26.35,47.422,26.346,44.768,26.324,44.689z M26.539,33.476
	c-0.371-0.775-0.674-1.576-0.898-2.407c-0.191-0.707-0.324-1.423-0.393-2.149c-0.068-0.72-0.076-1.439-0.027-2.162
	c0.092-1.354,0.385-2.664,0.844-3.938c0.01-0.028,0.018-0.056,0.029-0.092c-0.793-0.215-1.592-0.343-2.404-0.411v11.159H26.539z
	 M27.137,33.476h0.82c-0.221-0.733-0.393-1.479-0.486-2.239c-0.063-0.507-0.1-1.018-0.117-1.526
	c-0.045-1.499,0.217-2.947,0.773-4.338c0.197-0.491,0.432-0.965,0.701-1.421c0.014-0.024,0.025-0.048,0.043-0.083
	c-0.736-0.431-1.516-0.759-2.344-1.017C25.211,26.516,25.377,30.053,27.137,33.476z M29.721,44.667
	c-0.016-0.007-0.025-0.013-0.035-0.013c-0.598,0-1.197-0.002-1.795-0.002c-0.023,0-0.049,0.004-0.072,0.008
	c-0.002,0-0.006,0.003-0.008,0.006c-0.002,0.002-0.004,0.004-0.008,0.006c0,0.207,0,0.412,0,0.631c0.234,0,0.465,0,0.705,0
	c0,0.751,0,1.487,0,2.236c0.094,0,0.17,0.002,0.248,0c0.076,0,0.15-0.002,0.23-0.003c0-0.259,0-0.503,0-0.749
	c0-0.248,0-0.496,0-0.744c0.004-0.244-0.006-0.486,0.006-0.734c0.25-0.016,0.49,0.006,0.729-0.014
	C29.721,45.076,29.721,44.871,29.721,44.667z M30.098,37.627c-0.133,0-0.26,0.002-0.383-0.001c-0.377-0.013-0.707,0.112-1.006,0.334
	c-0.023,0.017-0.051,0.034-0.09,0.063c-0.004-0.069-0.004-0.119-0.006-0.171c-0.002-0.051-0.004-0.102-0.006-0.156
	c-0.377,0-0.744,0-1.119,0c0,1.691,0,3.369,0,5.051c0.375,0,0.744,0,1.127,0c0-0.051,0-0.096,0-0.14c0-0.944,0-1.89,0-2.835
	c0-0.041-0.006-0.084,0.006-0.125c0.057-0.224,0.133-0.441,0.268-0.633c0.098-0.141,0.232-0.232,0.4-0.27
	c0.244-0.057,0.49-0.059,0.734,0.006c0.023,0.006,0.045,0.006,0.074,0.009C30.098,38.381,30.098,38.01,30.098,37.627z
	 M30.365,33.476h3.215c0.041-0.541,0.049-1.082,0.023-1.624c-0.059-1.147-0.275-2.262-0.695-3.333
	c-0.23-0.596-0.521-1.161-0.873-1.693c-0.016-0.023-0.031-0.044-0.057-0.075c-0.088,0.14-0.176,0.269-0.256,0.4
	c-0.607,1.01-1.004,2.098-1.215,3.254c-0.121,0.659-0.193,1.322-0.184,1.989C30.33,32.756,30.35,33.115,30.365,33.476z
	 M32.082,42.471c0.225,0.193,0.494,0.273,0.783,0.28c0.225,0.006,0.449,0.001,0.674,0.001c0.025,0,0.053-0.005,0.082-0.008
	c0-0.355,0-0.701,0-1.059c-0.047-0.002-0.084-0.005-0.121-0.005c-0.146-0.003-0.295,0.003-0.441-0.003
	c-0.186-0.006-0.234-0.105-0.234-0.242c0.004-0.928,0.002-1.854,0.002-2.781c0-0.034,0.004-0.068,0.008-0.115
	c0.264,0,0.521,0,0.783,0c0-0.326,0-0.639,0-0.963c-0.092,0-0.18,0-0.266,0c-0.088,0-0.176,0.003-0.264-0.001
	c-0.084-0.003-0.172,0.015-0.262-0.015c0-0.189,0-0.375,0-0.561c-0.002-0.183,0.002-0.365-0.002-0.551c-0.381,0-0.748,0-1.125,0
	c0,0.131,0,0.255,0,0.381c0,0.123,0,0.245,0,0.368c-0.002,0.123,0.004,0.248-0.004,0.384c-0.217,0-0.418,0-0.617,0
	c-0.021,0.18-0.012,0.877,0.012,0.959c0.195,0,0.395,0,0.609,0c0,0.058,0,0.1,0,0.142c0,0.913-0.002,1.827,0.002,2.74
	c0,0.11,0.006,0.224,0.02,0.334C31.758,42.035,31.863,42.283,32.082,42.471z M34.58,46.525c-0.031-0.328-0.215-0.529-0.525-0.621
	c-0.092-0.027-0.191-0.039-0.287-0.062c-0.113-0.026-0.232-0.047-0.342-0.091c-0.135-0.059-0.156-0.232-0.047-0.332
	c0.037-0.035,0.088-0.064,0.137-0.073c0.084-0.017,0.172-0.024,0.258-0.021c0.135,0.006,0.258,0.061,0.379,0.137
	c0.129-0.136,0.254-0.271,0.383-0.408c-0.012-0.012-0.027-0.031-0.047-0.045c-0.318-0.249-0.676-0.343-1.074-0.271
	c-0.215,0.04-0.404,0.132-0.555,0.294c-0.293,0.311-0.354,0.917,0.182,1.219c0.154,0.088,0.32,0.136,0.496,0.157
	c0.08,0.01,0.162,0.021,0.236,0.046c0.057,0.02,0.117,0.052,0.16,0.094c0.098,0.096,0.074,0.234-0.043,0.301
	c-0.035,0.021-0.076,0.035-0.117,0.044c-0.141,0.036-0.285,0.029-0.428,0.013c-0.141-0.016-0.27-0.064-0.393-0.143
	c-0.139,0.145-0.273,0.285-0.412,0.432c0.086,0.102,0.188,0.167,0.299,0.217c0.283,0.125,0.582,0.148,0.885,0.117
	c0.082-0.009,0.166-0.025,0.246-0.05C34.443,47.34,34.619,46.938,34.58,46.525z M36.199,42.734c0.021-0.209,0.012-7.077-0.01-7.156
	c-0.365,0-0.732,0-1.109,0c0,2.394,0,4.777,0,7.16C35.205,42.764,36.127,42.757,36.199,42.734z M38.037,44.693
	c-0.234,0-0.453,0-0.68,0c-0.125,0.357-0.248,0.715-0.371,1.071c-0.008-0.001-0.016-0.001-0.021-0.003
	c-0.129-0.355-0.258-0.714-0.385-1.066c-0.229,0-0.447,0-0.676,0c0.02,0.044,0.031,0.078,0.047,0.113
	c0.207,0.471,0.414,0.941,0.623,1.41c0.035,0.08,0.053,0.156,0.053,0.244c-0.002,0.317-0.002,0.636-0.002,0.953
	c0,0.039,0.004,0.075,0.006,0.111c0.133,0.021,0.611,0.018,0.689-0.008c0-0.037,0-0.074,0-0.113c0-0.318,0.002-0.637-0.002-0.955
	c-0.002-0.086,0.018-0.164,0.053-0.242c0.207-0.467,0.414-0.933,0.619-1.4C38.006,44.773,38.02,44.734,38.037,44.693z
	 M41.076,46.584c0-0.311-0.16-0.546-0.451-0.652c-0.109-0.041-0.23-0.057-0.346-0.086c-0.117-0.029-0.242-0.047-0.352-0.092
	c-0.15-0.062-0.164-0.254-0.035-0.352c0.031-0.024,0.072-0.05,0.111-0.056c0.088-0.015,0.18-0.025,0.27-0.021
	c0.133,0.006,0.256,0.061,0.369,0.133c0.131-0.142,0.254-0.276,0.383-0.414c-0.094-0.088-0.211-0.164-0.34-0.217
	c-0.393-0.164-0.779-0.164-1.148,0.057c-0.281,0.168-0.418,0.43-0.402,0.758c0.02,0.32,0.207,0.523,0.488,0.653
	c0.133,0.063,0.275,0.099,0.424,0.113c0.111,0.013,0.221,0.028,0.32,0.087c0.076,0.047,0.127,0.113,0.117,0.207
	c-0.006,0.092-0.068,0.141-0.148,0.172c-0.027,0.01-0.053,0.016-0.08,0.022c-0.139,0.03-0.277,0.025-0.418,0.009
	c-0.141-0.018-0.27-0.063-0.389-0.145c-0.141,0.146-0.275,0.289-0.41,0.431c0.066,0.089,0.146,0.146,0.234,0.187
	c0.41,0.197,0.836,0.221,1.264,0.074c0.27-0.092,0.445-0.289,0.51-0.568C41.07,46.787,41.076,46.684,41.076,46.584z M41.629,42.699
	c0.385,0,0.752,0,1.131,0c-0.004-1.688,0.008-3.371,0-5.048c-0.158-0.024-0.992-0.017-1.076,0.01c0,0.169,0,0.343,0,0.534
	c-0.031-0.025-0.047-0.038-0.061-0.053c-0.156-0.152-0.336-0.271-0.535-0.363c-0.533-0.246-1.096-0.309-1.668-0.182
	c-0.908,0.199-1.521,0.743-1.783,1.645c-0.182,0.627-0.164,1.259,0.027,1.882c0.166,0.535,0.488,0.96,0.975,1.243
	c0.65,0.381,1.35,0.478,2.082,0.307c0.342-0.08,0.641-0.238,0.867-0.518c0.008-0.008,0.021-0.01,0.039-0.019
	C41.629,42.332,41.627,42.515,41.629,42.699z M44.416,44.664c-0.146-0.022-1.836-0.017-1.91,0.006
	c-0.018,0.125-0.014,0.549,0.01,0.631c0.225,0.008,0.455-0.005,0.693,0.008c0,0.749,0,1.484,0,2.225c0.164,0,0.314,0,0.477,0
	c0-0.742,0-1.479,0-2.23c0.25,0,0.488-0.001,0.73-0.002C44.416,45.082,44.416,44.875,44.416,44.664z M47.604,47.063
	c-0.111,0-0.209,0-0.307,0c-0.102,0-0.203,0-0.303,0s-0.197,0.001-0.295,0c-0.1-0.001-0.201,0.007-0.303-0.006
	c0-0.239,0-0.464,0-0.706c0.109,0,0.213,0,0.316,0c0.109,0,0.217,0.002,0.326,0c0.104-0.002,0.209,0.014,0.313-0.012
	c0-0.164,0-0.323,0-0.494c-0.111,0-0.215,0-0.32,0c-0.107,0-0.217,0.002-0.324,0c-0.104-0.002-0.207,0.007-0.309-0.006
	c-0.018-0.205-0.012-0.616,0.014-0.697c0.096,0,0.193,0,0.291,0c0.102,0,0.203,0,0.305,0c0.098,0,0.195,0.002,0.293,0
	c0.1-0.001,0.201,0.008,0.299-0.006c0-0.156,0-0.299,0-0.444c-0.566,0-1.125,0-1.695,0c0,0.952,0,1.894,0,2.841
	c0.568,0,1.129,0,1.699,0C47.605,47.375,47.609,47.225,47.604,47.063z M48.551,42.134c-0.004-0.833-0.006-1.665-0.01-2.497
	c-0.002-0.322-0.053-0.636-0.172-0.935c-0.205-0.513-0.566-0.858-1.102-1.015c-0.219-0.063-0.443-0.082-0.674-0.082
	c-0.422,0-0.795,0.131-1.125,0.396c-0.02,0.016-0.041,0.03-0.082,0.058c0-0.135,0-0.25,0-0.371c-0.375,0-0.736,0-1.102,0
	c0,1.685,0,3.361,0,5.047c0.365,0,0.725,0,1.102,0c0-0.051,0-0.092,0-0.133c0-0.977,0.002-1.952-0.002-2.928
	c0-0.152,0.033-0.291,0.092-0.426c0.164-0.367,0.438-0.592,0.842-0.643c0.172-0.021,0.344-0.014,0.508,0.043
	c0.307,0.105,0.469,0.338,0.555,0.637c0.057,0.2,0.063,0.404,0.061,0.613c-0.004,0.91-0.002,1.818-0.002,2.729
	c0,0.036,0.004,0.075,0.006,0.118c0.369,0,0.73,0,1.1,0c0.002-0.041,0.006-0.074,0.006-0.108
	C48.551,42.469,48.551,42.301,48.551,42.134z M51.648,44.688c-0.219,0-0.438,0-0.662,0c-0.016,0.032-0.025,0.055-0.035,0.076
	c-0.148,0.348-0.295,0.695-0.441,1.043c-0.023,0.061-0.057,0.092-0.123,0.082c-0.014-0.002-0.027-0.002-0.043,0
	c-0.066,0.01-0.1-0.021-0.125-0.082c-0.055-0.135-0.117-0.269-0.176-0.402c-0.098-0.222-0.195-0.441-0.293-0.662
	c-0.018-0.041-0.035-0.07-0.09-0.068c-0.164,0.006-0.328,0.006-0.492,0.009c-0.039,0.001-0.076,0.003-0.117,0.006
	c0,0.952,0,1.895,0,2.849c0.227-0.005,0.447,0.008,0.676-0.008c0-0.129,0-0.242,0-0.358c0-0.112,0-0.224,0-0.337
	s-0.002-0.229,0-0.346c0.002-0.111-0.006-0.224,0.008-0.361c0.037,0.051,0.057,0.078,0.076,0.106
	c0.102,0.154,0.213,0.306,0.301,0.468c0.066,0.123,0.154,0.161,0.285,0.148c0.066-0.006,0.109-0.021,0.146-0.078
	c0.121-0.186,0.248-0.371,0.375-0.557c0.012-0.017,0.029-0.029,0.061-0.061c0,0.475,0,0.925,0,1.379c0.232,0,0.453,0,0.674,0
	C51.674,47.41,51.67,44.766,51.648,44.688z M52.801,42.704c0.408-0.073,0.771-0.249,1.057-0.56c0.01-0.008,0.021-0.016,0.045-0.032
	c0,0.2,0,0.386,0,0.569c0.113,0.025,0.992,0.021,1.082-0.007c0-2.384,0-4.775,0-7.163c-0.379,0-0.758,0-1.135,0
	c0.002,0.014,0.004,0.028,0.004,0.041c-0.002,0.828-0.002,1.658-0.006,2.488c0,0.02-0.004,0.037-0.008,0.066
	c-0.02-0.016-0.033-0.022-0.041-0.031c-0.178-0.177-0.389-0.299-0.623-0.378c-0.791-0.261-1.559-0.208-2.295,0.186
	c-0.615,0.329-1.016,0.84-1.176,1.521c-0.141,0.584-0.115,1.168,0.068,1.739c0.191,0.597,0.57,1.038,1.135,1.31
	C51.512,42.744,52.146,42.82,52.801,42.704z M55.051,46.568c-0.004-0.307-0.164-0.535-0.453-0.64
	c-0.111-0.04-0.23-0.056-0.346-0.083c-0.113-0.029-0.234-0.045-0.344-0.09c-0.158-0.063-0.172-0.265-0.029-0.362
	c0.033-0.022,0.074-0.047,0.113-0.052c0.09-0.012,0.18-0.02,0.27-0.015c0.127,0.007,0.242,0.062,0.355,0.133
	c0.127-0.136,0.254-0.271,0.383-0.407c0,0-0.002-0.01-0.01-0.018c-0.016-0.014-0.031-0.028-0.047-0.041
	c-0.316-0.238-0.668-0.326-1.057-0.255c-0.219,0.04-0.412,0.134-0.564,0.302c-0.285,0.311-0.336,0.9,0.17,1.199
	c0.117,0.07,0.246,0.119,0.381,0.145c0.092,0.019,0.186,0.027,0.277,0.044c0.088,0.015,0.172,0.041,0.238,0.101
	c0.111,0.101,0.096,0.252-0.035,0.323c-0.033,0.02-0.07,0.034-0.107,0.041c-0.283,0.051-0.557,0.032-0.822-0.132
	c-0.139,0.145-0.273,0.289-0.41,0.431c0.086,0.106,0.186,0.171,0.295,0.218c0.375,0.156,0.762,0.18,1.148,0.063
	c0.318-0.096,0.518-0.314,0.578-0.645C55.053,46.744,55.053,46.655,55.051,46.568z M56.018,44.771c0-0.026-0.004-0.054-0.006-0.089
	c-0.16,0-0.307,0-0.455,0c0,0.053,0,0.096,0,0.145c0.053,0.004,0.102,0.007,0.162,0.014c0,0.179,0,0.355,0,0.539
	c0.047-0.004,0.08-0.006,0.123-0.011c0-0.181,0-0.354,0-0.53c0.061-0.005,0.111-0.01,0.166-0.012
	C56.012,44.805,56.018,44.787,56.018,44.771z M56.727,44.667c-0.045,0.003-0.092,0.005-0.139,0.007
	c-0.016,0.03-0.029,0.059-0.043,0.084c-0.023,0.053-0.043,0.104-0.07,0.154c-0.012,0.022-0.033,0.041-0.051,0.061
	c-0.02-0.021-0.043-0.042-0.057-0.067c-0.018-0.028-0.027-0.063-0.043-0.094c-0.021-0.048-0.045-0.095-0.063-0.134
	c-0.059,0-0.105,0-0.152,0c-0.02,0.146-0.014,0.621,0.008,0.69c0.047,0,0.094,0,0.146,0c0-0.057-0.002-0.106,0-0.154
	c0.004-0.046-0.012-0.095,0.02-0.154c0.029,0.041,0.051,0.073,0.072,0.104c0.047,0.063,0.078,0.063,0.127-0.003
	c0.023-0.03,0.043-0.061,0.064-0.092c0.008,0.003,0.014,0.005,0.021,0.006c0.004,0.098,0.008,0.196,0.012,0.298
	c0.057,0.002,0.102,0.005,0.146,0.008C56.727,45.143,56.727,44.905,56.727,44.667z M40.238,38.572
	c-0.305,0.002-0.533,0.058-0.748,0.174c-0.928,0.498-1.113,1.795-0.369,2.549c0.564,0.571,1.424,0.604,2.027,0.075
	c0.563-0.491,0.705-1.364,0.324-2.02C41.184,38.856,40.748,38.596,40.238,38.572z"/>
</svg>
