<?xml version="1.0" encoding="utf-8"?>
<!-- Generator: Adobe Illustrator 16.0.0, SVG Export Plug-In . SVG Version: 6.00 Build 0)  -->
<!DOCTYPE svg PUBLIC "-//W3C//DTD SVG 1.1//EN" "http://www.w3.org/Graphics/SVG/1.1/DTD/svg11.dtd">
<svg version="1.1" id="Layer_1" xmlns="http://www.w3.org/2000/svg" xmlns:xlink="http://www.w3.org/1999/xlink" x="0px" y="0px"
	 width="64px" height="64px" viewBox="0 0 64 64" enable-background="new 0 0 64 64" xml:space="preserve">
<path d="M25.027,31.68V28.5c0.516-0.158,1.505-0.236,2.189,0.247c0.348,0.244,0.55,0.597,0.628,0.978
	c0.13,0.634-0.115,1.351-0.818,1.797C26.577,31.808,25.42,31.78,25.027,31.68z M27.196,32.335c-0.501-0.324-1.754-0.302-2.169-0.204
	v3.41c0.555,0.171,1.61,0.304,2.347-0.225C28.257,34.685,28.443,33.14,27.196,32.335z M60.24,15.152v33.695
	c0,0.803-0.65,1.454-1.454,1.454H5.214c-0.804,0-1.454-0.651-1.454-1.454V15.152c0-0.803,0.65-1.454,1.454-1.454h53.572
	C59.59,13.698,60.24,14.35,60.24,15.152z M43.447,27.99l4.002,4.002l4.001-4.002H43.447z M16.794,27.983h-3.28v0.146h0.388
	c0.409,0,0.713,0.325,0.713,0.674v3.106h-3.886v-3.106c0-0.349,0.313-0.674,0.713-0.674h0.387v-0.146h-3.28v0.146h0.389
	c0.403,0,0.713,0.325,0.713,0.674v3.466v2.903c0,0.354-0.31,0.675-0.713,0.675H8.548v0.146h3.28v-0.146h-0.387
	c-0.399,0-0.713-0.32-0.713-0.675c0,0,0.005-2.858,0-2.858h3.886c-0.006,0,0,2.858,0,2.858c0,0.359-0.309,0.675-0.713,0.675h-0.388
	v0.146h3.28v-0.146h-0.388c-0.399,0-0.713-0.32-0.713-0.675V32.27v-3.466c0-0.349,0.309-0.674,0.713-0.674h0.388V27.983z
	 M22.415,33.897c-0.044-0.753-0.369-1.18-0.786-1.538c-0.807-0.698-2.589-1.709-2.869-2.046c-0.138-0.165-0.378-0.436-0.326-0.876
	c0.066-0.578,0.418-0.904,1.14-1.044c0.753-0.146,1.258,0.18,1.517,0.415c0.259,0.236,0.629,0.877,0.741,1.73h0.124v-2.63h-0.124
	c-0.033,0.271-0.112,0.371-0.229,0.438c-0.121,0.069-0.332,0.09-0.523,0c-0.19-0.089-0.752-0.482-1.493-0.482
	c-0.742,0-1.259,0.27-1.641,0.629s-0.562,0.898-0.562,1.371c0,0.551,0.262,0.895,0.473,1.134c0.16,0.183,0.73,0.634,1.358,1.051
	c0.498,0.331,1.023,0.674,1.393,0.915c0.59,0.386,0.652,0.798,0.678,1.081c0.069,0.786-0.569,1.42-1.155,1.514
	c-0.735,0.119-1.499-0.146-1.903-0.612c-0.247-0.284-0.646-0.785-0.759-1.64h-0.123v2.775h0.123c0.034-0.271,0.123-0.416,0.27-0.506
	c0.125-0.077,0.335-0.084,0.495-0.022c0.264,0.101,0.988,0.551,1.831,0.551c0.741,0,1.295-0.307,1.685-0.658
	C22.152,35.083,22.443,34.369,22.415,33.897z M27.61,31.903c1.039-0.309,1.465-1.383,1.247-2.235
	c-0.28-1.101-1.461-1.449-1.865-1.527c-0.24-0.047-0.612-0.112-1.297-0.112c-0.848,0-2.034,0-2.849,0v0.146h0.473
	c0.297,0,0.64,0.258,0.64,0.64v6.396c0,0.381-0.343,0.635-0.643,0.635h-0.473v0.146c0.923,0,2.07,0.003,2.978,0.002
	c0.509,0,1.023,0.002,1.226-0.024c0.445-0.059,1.822-0.307,2.134-1.528C29.445,33.401,29.038,32.394,27.61,31.903z M37.057,34.247
	l-0.169-0.112c-1.056,1.425-2.441,1.454-3.066,1.358c-0.733-0.111-1.685-0.545-2.179-1.584c-0.61-1.279-0.383-2.798-0.023-3.685
	c0.292-0.722,0.876-1.472,2.012-1.674c0.756-0.135,1.392,0.104,1.818,0.373c0.257,0.162,0.436,0.345,0.529,0.436
	c0.325,0.314,0.584,0.798,0.662,1.482l0.164-0.006l-0.116-2.712h-0.138c0,0.264-0.127,0.398-0.284,0.466
	c-0.156,0.067-0.319,0.048-0.608-0.117c-0.579-0.332-1.257-0.533-2.286-0.433c-1.376,0.135-2.421,1.033-2.921,1.938
	c-0.291,0.526-0.469,1.427-0.466,2.235c0.005,0.91,0.375,1.955,0.859,2.506c0.457,0.521,1.46,1.401,3.055,1.415
	C35.146,36.145,36.236,35.403,37.057,34.247z M43.446,27.991l-4.001,4.001l4.001,4.002V27.991z M55.452,31.992l-4.002-4.001v8.002
	l-4.002-4.001l-4.001,4.001h8.003v0.001L55.452,31.992z"/>
</svg>
