<?xml version="1.0" encoding="utf-8"?>
<!-- Generator: Adobe Illustrator 16.0.0, SVG Export Plug-In . SVG Version: 6.00 Build 0)  -->
<!DOCTYPE svg PUBLIC "-//W3C//DTD SVG 1.1//EN" "http://www.w3.org/Graphics/SVG/1.1/DTD/svg11.dtd">
<svg version="1.1" id="Layer_1" xmlns="http://www.w3.org/2000/svg" xmlns:xlink="http://www.w3.org/1999/xlink" x="0px" y="0px"
	 width="64px" height="64px" viewBox="0 0 64 64" enable-background="new 0 0 64 64" xml:space="preserve">
<path fill-rule="evenodd" clip-rule="evenodd" d="M58.786,13.698H5.214c-0.804,0-1.454,0.651-1.454,1.454v33.695
	c0,0.803,0.65,1.454,1.454,1.454h53.572c0.804,0,1.454-0.651,1.454-1.454V15.152C60.24,14.35,59.59,13.698,58.786,13.698z
	 M11.561,38.3c-0.55,0-1.095,0-1.644,0c0-2.928,0-5.853,0-8.781c0.549,0,1.093,0,1.644,0C11.561,32.444,11.561,35.368,11.561,38.3z
	 M10.762,28.431c-0.579,0.004-1.051-0.458-1.069-1.015c-0.018-0.582,0.455-1.076,1.037-1.08c0.593-0.003,1.057,0.452,1.059,1.036
	C11.791,27.96,11.34,28.426,10.762,28.431z M21.221,38.301c-2.804,0-5.601,0-8.41,0c0-0.037,0-0.07,0-0.104
	c0-0.408-0.002-0.816,0.002-1.225c0-0.055,0.019-0.117,0.049-0.163c1.061-1.597,2.123-3.191,3.185-4.786
	c0.945-1.419,1.89-2.839,2.834-4.26c0.015-0.022,0.03-0.046,0.055-0.086c-1.858,0-3.703,0-5.551,0c0-0.483,0-0.953,0-1.429
	c2.562,0,5.122,0,7.691,0c0,0.037,0,0.07,0,0.104c0,0.386,0.002,0.772-0.002,1.159c-0.001,0.066-0.021,0.142-0.057,0.197
	c-0.433,0.677-0.871,1.349-1.307,2.022c-0.729,1.125-1.457,2.25-2.186,3.375c-0.505,0.781-1.012,1.562-1.517,2.341
	c-0.294,0.454-0.588,0.909-0.89,1.376c2.039,0,4.068,0,6.102,0C21.221,37.322,21.221,37.81,21.221,38.301z M29.001,34.177
	c-1.919,0-3.836,0-5.765,0c-0.002,0.345,0.042,0.664,0.117,0.979c0.114,0.475,0.297,0.918,0.613,1.296
	c0.374,0.447,0.847,0.683,1.439,0.677c0.896-0.01,1.641-0.353,2.253-0.997c0.041-0.042,0.078-0.089,0.116-0.134
	c0.029-0.035,0.054-0.04,0.093-0.007c0.321,0.278,0.644,0.555,0.977,0.841c-0.095,0.104-0.184,0.21-0.28,0.31
	c-0.485,0.501-1.046,0.889-1.71,1.115c-0.372,0.126-0.756,0.197-1.149,0.219c-0.447,0.024-0.889-0.001-1.323-0.117
	c-0.824-0.221-1.471-0.693-1.959-1.388c-0.457-0.647-0.71-1.377-0.849-2.15c-0.082-0.455-0.122-0.913-0.111-1.374
	c0.025-1.128,0.35-2.153,1.077-3.032c0.554-0.669,1.251-1.117,2.109-1.278c0.956-0.179,1.871-0.069,2.702,0.475
	c0.46,0.302,0.799,0.716,1.058,1.196c0.362,0.675,0.532,1.402,0.598,2.159C29.04,33.364,29.042,33.765,29.001,34.177z
	 M34.576,38.118c-0.474,0.186-0.965,0.284-1.473,0.297c-0.246,0.006-0.493,0.02-0.737-0.001c-0.597-0.051-1.024-0.37-1.311-0.884
	c-0.201-0.36-0.301-0.752-0.308-1.161c-0.012-0.642-0.011-1.283-0.011-1.925c-0.001-1.303,0-2.606,0-3.908c0-0.037,0-0.074,0-0.122
	c-0.478,0-0.949,0-1.43,0c0-0.182-0.003-0.353,0.002-0.522c0-0.025,0.035-0.054,0.06-0.072c0.281-0.21,0.579-0.4,0.841-0.631
	c0.549-0.484,1.011-1.046,1.366-1.689c0.066-0.119,0.126-0.243,0.192-0.362c0.012-0.022,0.042-0.05,0.065-0.051
	c0.186-0.004,0.372-0.002,0.566-0.002c0,0.728,0,1.445,0,2.174c0.689,0,1.37,0,2.059,0c0,0.388,0,0.766,0,1.154
	c-0.686,0-1.364,0-2.058,0c0,0.037,0,0.07,0,0.102c0,1.783-0.001,3.565,0.001,5.349c0,0.225,0.032,0.445,0.119,0.656
	c0.144,0.35,0.41,0.532,0.777,0.59c0.412,0.064,0.817,0.029,1.219-0.072c0.041-0.011,0.083-0.019,0.133-0.029
	c0.002,0.035,0.005,0.063,0.005,0.089c0,0.303-0.002,0.605,0.002,0.907C34.656,38.067,34.634,38.096,34.576,38.118z M40.372,38.119
	c-0.474,0.188-0.966,0.284-1.474,0.295c-0.276,0.007-0.556,0.022-0.829-0.013c-0.559-0.072-0.954-0.396-1.219-0.884
	c-0.218-0.399-0.308-0.832-0.308-1.283c-0.001-1.896-0.001-3.79-0.001-5.685c0-0.043,0-0.085,0-0.136c-0.48,0-0.95,0-1.43,0
	c0-0.182-0.002-0.354,0.003-0.527c0-0.025,0.036-0.053,0.061-0.071c0.277-0.205,0.574-0.388,0.829-0.617
	c0.545-0.491,1.016-1.05,1.371-1.698c0.066-0.12,0.125-0.243,0.189-0.364c0.012-0.021,0.037-0.049,0.056-0.049
	c0.189-0.004,0.378-0.003,0.576-0.003c0,0.728,0,1.446,0,2.177c0.694,0,1.381,0,2.072,0c0,0.388,0,0.764,0,1.149
	c-0.688,0-1.375,0-2.071,0c0,0.04,0,0.07,0,0.101c0,1.758-0.003,3.516,0.004,5.273c0,0.218,0.034,0.442,0.094,0.651
	c0.111,0.391,0.392,0.605,0.791,0.672c0.425,0.069,0.842,0.029,1.256-0.077c0.032-0.008,0.065-0.015,0.103-0.023
	c0.002,0.033,0.006,0.058,0.006,0.082c0,0.305-0.002,0.61,0.002,0.916C40.453,38.069,40.43,38.096,40.372,38.119z M44.761,38.2
	c-0.429,0.137-0.864,0.225-1.315,0.247c-0.315,0.016-0.622-0.009-0.913-0.136c-0.475-0.209-0.775-0.578-0.95-1.059
	c-0.093-0.257-0.133-0.522-0.133-0.796c0.001-3.606,0.001-7.212,0.001-10.817c0-0.041,0-0.081,0-0.129c0.557,0,1.109,0,1.674,0
	c0,0.053,0,0.097,0,0.141c0,3.462-0.001,6.924,0.003,10.387c0,0.204,0.029,0.409,0.069,0.609c0.06,0.296,0.237,0.483,0.543,0.558
	c0.332,0.08,0.659,0.066,0.989,0.004c0.03-0.006,0.06-0.013,0.099-0.021c0.003,0.03,0.008,0.053,0.008,0.076
	c0,0.277-0.001,0.555,0.002,0.832C44.837,38.156,44.819,38.182,44.761,38.2z M52.284,34.178c-1.922,0-3.842,0-5.776,0
	c0.01,0.15,0.016,0.286,0.03,0.421c0.062,0.568,0.213,1.11,0.522,1.598c0.293,0.462,0.687,0.798,1.239,0.899
	c0.446,0.082,0.887,0.023,1.316-0.113c0.566-0.18,1.032-0.512,1.418-0.959c0.013-0.015,0.025-0.027,0.038-0.041
	c0.007-0.007,0.015-0.012,0.033-0.025c0.334,0.286,0.67,0.574,1.015,0.87c-0.061,0.071-0.115,0.142-0.175,0.207
	c-0.604,0.65-1.314,1.131-2.191,1.328c-0.925,0.208-1.835,0.181-2.707-0.231c-0.546-0.257-0.983-0.649-1.332-1.14
	c-0.45-0.633-0.712-1.343-0.85-2.101c-0.143-0.786-0.186-1.575-0.031-2.364c0.188-0.956,0.604-1.795,1.318-2.47
	c0.605-0.571,1.326-0.903,2.158-0.979c0.605-0.056,1.198,0.01,1.766,0.238c0.641,0.258,1.128,0.696,1.488,1.278
	c0.435,0.702,0.633,1.48,0.713,2.294C52.32,33.313,52.316,33.738,52.284,34.178z M53.399,30.89c-0.513,0-0.906-0.396-0.906-0.911
	c0-0.505,0.399-0.903,0.905-0.903c0.51,0,0.909,0.401,0.909,0.912C54.307,30.492,53.906,30.89,53.399,30.89z M53.49,29.923
	c-0.088,0.009-0.178,0.002-0.272,0.002c0-0.093,0-0.179,0-0.281c0.094,0.004,0.188,0.005,0.282,0.014
	c0.078,0.008,0.126,0.055,0.124,0.136C53.621,29.876,53.562,29.916,53.49,29.923z M27.117,31.407
	c0.241,0.504,0.327,1.04,0.316,1.595c0,0.012-0.003,0.024-0.006,0.042c-1.396,0-2.785,0-4.193,0c0.026-0.23,0.04-0.457,0.079-0.678
	c0.094-0.532,0.293-1.019,0.648-1.435c0.559-0.656,1.481-0.858,2.252-0.483C26.633,30.653,26.919,30.992,27.117,31.407z
	 M50.707,32.742c0.003,0.099,0,0.197,0,0.302c-1.399,0-2.784,0-4.188,0c0.019-0.193,0.028-0.382,0.056-0.567
	c0.084-0.567,0.278-1.09,0.655-1.531c0.392-0.461,0.893-0.701,1.5-0.68c0.741,0.025,1.271,0.399,1.617,1.044
	C50.586,31.756,50.693,32.237,50.707,32.742z M53.401,29.234c-0.412,0-0.749,0.336-0.749,0.747c0,0.414,0.333,0.749,0.745,0.749
	c0.413,0,0.75-0.335,0.751-0.745C54.149,29.577,53.809,29.234,53.401,29.234z M53.59,30.354c-0.027-0.048-0.055-0.097-0.085-0.144
	c-0.081-0.123-0.129-0.144-0.291-0.127c0,0.131,0,0.264,0,0.4c-0.059,0-0.107,0-0.163,0c0-0.323,0-0.646,0-0.962
	c0.181,0,0.361-0.009,0.54,0.003c0.115,0.008,0.188,0.1,0.207,0.211c0.019,0.114-0.035,0.223-0.141,0.281
	c-0.024,0.013-0.051,0.021-0.081,0.034c0.052,0.069,0.104,0.136,0.152,0.205c0.048,0.071,0.092,0.146,0.14,0.221
	C53.674,30.505,53.675,30.505,53.59,30.354z"/>
</svg>
