<?xml version="1.0" encoding="utf-8"?>
<!-- Generator: Adobe Illustrator 16.0.0, SVG Export Plug-In . SVG Version: 6.00 Build 0)  -->
<!DOCTYPE svg PUBLIC "-//W3C//DTD SVG 1.1//EN" "http://www.w3.org/Graphics/SVG/1.1/DTD/svg11.dtd">
<svg version="1.1" id="Layer_1" xmlns="http://www.w3.org/2000/svg" xmlns:xlink="http://www.w3.org/1999/xlink" x="0px" y="0px"
	 width="64px" height="64px" viewBox="0 0 64 64" enable-background="new 0 0 64 64" xml:space="preserve">
<path d="M58.786,13.698H5.214c-0.804,0-1.454,0.651-1.454,1.454v33.695c0,0.803,0.65,1.454,1.454,1.454h53.572
	c0.804,0,1.454-0.651,1.454-1.454V15.152C60.24,14.349,59.59,13.698,58.786,13.698z M25.479,40.506c0,0.184-0.012,0.367-0.035,0.545
	c-0.011,0.086-0.025,0.171-0.042,0.255c-0.012,0.065-0.026,0.128-0.041,0.192c-0.012,0.053-0.026,0.105-0.041,0.158
	c-0.013,0.046-0.026,0.092-0.041,0.137c-0.013,0.041-0.027,0.082-0.041,0.123c-0.014,0.037-0.027,0.074-0.041,0.111
	c-0.013,0.035-0.027,0.069-0.042,0.103c-0.013,0.032-0.027,0.063-0.041,0.096c-0.013,0.03-0.027,0.06-0.041,0.089
	c-0.014,0.029-0.027,0.056-0.041,0.084c-0.013,0.027-0.027,0.054-0.041,0.08c-0.014,0.026-0.027,0.051-0.041,0.076
	c-0.013,0.025-0.027,0.049-0.041,0.073c-0.013,0.024-0.027,0.047-0.041,0.069c-0.014,0.022-0.027,0.044-0.041,0.066
	c-0.014,0.021-0.027,0.043-0.042,0.064c-0.013,0.021-0.027,0.041-0.041,0.062c-0.013,0.019-0.027,0.039-0.041,0.059
	c-0.013,0.019-0.027,0.038-0.041,0.057c-0.014,0.019-0.027,0.038-0.041,0.056c-0.014,0.018-0.027,0.036-0.041,0.053
	s-0.027,0.035-0.041,0.052s-0.027,0.034-0.041,0.05c-0.013,0.017-0.027,0.033-0.041,0.049c-0.014,0.016-0.027,0.032-0.041,0.047
	c-0.014,0.016-0.027,0.031-0.041,0.047c-0.014,0.015-0.027,0.029-0.042,0.044c-0.013,0.015-0.027,0.029-0.041,0.043
	s-0.027,0.028-0.042,0.042c-0.013,0.013-0.027,0.027-0.041,0.041c-0.014,0.013-0.027,0.026-0.041,0.04s-0.027,0.026-0.041,0.039
	c-0.014,0.013-0.027,0.026-0.041,0.039c-0.014,0.012-0.027,0.024-0.041,0.037c-0.014,0.012-0.027,0.024-0.041,0.036
	s-0.027,0.023-0.041,0.035s-0.027,0.023-0.041,0.034c-0.014,0.012-0.027,0.022-0.041,0.034c-0.013,0.011-0.027,0.022-0.041,0.033
	c-0.014,0.01-0.027,0.021-0.042,0.031c-0.014,0.01-0.027,0.021-0.041,0.031c-0.013,0.01-0.027,0.02-0.041,0.03
	c-0.013,0.01-0.027,0.02-0.041,0.03c-0.014,0.01-0.027,0.019-0.041,0.028c-0.014,0.009-0.027,0.019-0.041,0.028
	c-0.014,0.009-0.028,0.018-0.042,0.027c-0.013,0.008-0.026,0.018-0.041,0.026c-0.014,0.008-0.027,0.017-0.041,0.025
	c-0.013,0.009-0.027,0.018-0.041,0.026s-0.027,0.017-0.041,0.025c-0.014,0.008-0.027,0.016-0.042,0.024
	c-0.013,0.008-0.027,0.016-0.041,0.023c-0.014,0.007-0.027,0.015-0.041,0.022c-0.013,0.008-0.027,0.016-0.041,0.023l-0.041,0.021
	c-0.014,0.007-0.027,0.014-0.041,0.021c-0.014,0.007-0.027,0.013-0.042,0.02c-0.013,0.007-0.027,0.014-0.041,0.02
	c-0.014,0.007-0.027,0.013-0.041,0.02c-0.014,0.006-0.027,0.013-0.041,0.019c-0.014,0.006-0.027,0.012-0.042,0.018l-0.041,0.018
	l-0.041,0.018c-0.013,0.005-0.027,0.011-0.041,0.017c-0.014,0.006-0.027,0.011-0.041,0.017c-0.014,0.006-0.027,0.01-0.042,0.015
	c-0.013,0.005-0.027,0.011-0.041,0.016c-0.014,0.005-0.027,0.009-0.042,0.015l-0.041,0.014l-0.041,0.015
	c-0.014,0.004-0.027,0.009-0.041,0.013s-0.027,0.009-0.041,0.013c-0.013,0.005-0.028,0.008-0.041,0.013l-0.042,0.012l-0.041,0.011
	c-0.014,0.004-0.027,0.007-0.042,0.011c-0.013,0.004-0.027,0.007-0.041,0.011c-0.014,0.003-0.028,0.007-0.041,0.01
	c-0.014,0.003-0.027,0.007-0.041,0.01l-0.041,0.01l-0.042,0.009c-0.013,0.003-0.027,0.006-0.041,0.009
	c-0.014,0.003-0.027,0.005-0.041,0.008c-0.013,0.003-0.027,0.005-0.041,0.008l-0.042,0.007c-0.014,0.002-0.027,0.004-0.041,0.007
	c-0.014,0.002-0.027,0.004-0.041,0.007c-0.013,0.002-0.027,0.003-0.041,0.006l-0.041,0.005c-0.014,0.002-0.027,0.004-0.041,0.006
	c-0.014,0.001-0.027,0.002-0.042,0.004c-0.013,0.002-0.027,0.004-0.041,0.005c-0.014,0.001-0.027,0.002-0.041,0.004l-0.041,0.004
	c-0.014,0.001-0.027,0.002-0.041,0.003s-0.027,0.001-0.041,0.002l-0.041,0.003l-0.041,0.002c-0.013,0-0.027,0-0.041,0.001
	c-0.014,0-0.027,0.001-0.041,0.001s-0.028,0.001-0.042,0.001l-0.041,0c-0.012,0-0.025,0-0.038,0h-0.003h-0.041h-0.041H21.1H21.06
	h-0.041h-0.041h-0.041h-0.042h-0.041h-0.041h-0.041h-0.041h-0.041H20.65h-0.041h-0.041h-0.041h-0.042h-0.041h-0.042h-0.041h-0.041
	h-0.042H20.24h-0.041h-0.041h-0.041h-0.041h-0.041h-0.041h-0.042h-0.041h-0.041h-0.041H19.79h-0.041h-0.042h-0.041h-0.041h-0.041
	h-0.041h-0.042h-0.041H19.42H19.38h-0.041h-0.041h-0.042h-0.041h-0.041h-0.041h-0.041h-0.041h-0.041H18.97h-0.041h-0.042h-0.041
	h-0.042h-0.041h-0.041h-0.041h-0.041h-0.041H18.56H18.52h-0.042h-0.041h-0.041h-0.042h-0.041h-0.042h-0.041h-0.041h-0.041h-0.042
	h-0.041h-0.041h-0.041h-0.041h-0.041h-0.042h-0.041h-0.041h-0.041H17.7h-0.042h-0.041h-0.041h-0.041h-0.042h-0.041h-0.041h-0.041
	h-0.041H17.29h-0.042h-0.041h-0.041h-0.041h-0.041h-0.042h-0.041h-0.041h-0.041H16.88h-0.041h-0.042h-0.041h-0.041h-0.041h-0.042
	h-0.041h-0.041h-0.041h-0.041h-0.042h-0.041h-0.042h-0.041h-0.041h-0.041h-0.041h-0.041h-0.042h-0.041H16.02h-0.041h-0.041h-0.041
	h-0.041h-0.042h-0.041h-0.041h-0.041h-0.042H15.61h-0.041h-0.041h-0.041h-0.041h-0.042h-0.041h-0.041h-0.041h-0.041H15.2h-0.041
	h-0.041h-0.041h-0.088v-8.962c0,0,0.03,0.008,0.088,0.023l0.041,0.01l0.041,0.01l0.041,0.01l0.042,0.01l0.041,0.01l0.041,0.009
	l0.041,0.009l0.041,0.009l0.042,0.009l0.041,0.009l0.041,0.008l0.041,0.009l0.041,0.008l0.041,0.009l0.042,0.008l0.041,0.009
	l0.041,0.008l0.041,0.008l0.042,0.008l0.041,0.007l0.041,0.008l0.041,0.007l0.041,0.008l0.042,0.007l0.041,0.007l0.042,0.007
	l0.041,0.007l0.041,0.007l0.041,0.007l0.041,0.007l0.041,0.007l0.042,0.006l0.041,0.006l0.042,0.006l0.041,0.007l0.041,0.006
	l0.041,0.006l0.041,0.006l0.042,0.006l0.041,0.005l0.041,0.006l0.041,0.006l0.042,0.005l0.041,0.005l0.041,0.006l0.041,0.005
	l0.041,0.005l0.041,0.005l0.042,0.005l0.041,0.005l0.041,0.005l0.041,0.005l0.041,0.005l0.042,0.005l0.041,0.004l0.041,0.004
	l0.041,0.004l0.041,0.004l0.041,0.005l0.042,0.004l0.041,0.004l0.041,0.004l0.041,0.003l0.042,0.004l0.041,0.004l0.041,0.003
	l0.041,0.003l0.041,0.003l0.042,0.003l0.041,0.003l0.041,0.004l0.041,0.002l0.041,0.003l0.041,0.003l0.042,0.002l0.041,0.003
	l0.041,0.002l0.041,0.003l0.042,0.002l0.041,0.002l0.042,0.002l0.041,0.002l0.041,0.002l0.042,0.002l0.041,0.002l0.041,0.002
	l0.041,0.001l0.041,0.001l0.041,0.001l0.041,0.001l0.041,0.001l0.042,0.001l0.041,0.001l0.042,0l0.041,0.001l0.041,0l0.041,0.001
	l0.041,0.001l0.041,0l0.041,0l0.041,0l0.041,0h0.042h0.041h0.016h0.025l0.041,0h0.041l0.041,0h0.042l0.041-0.001l0.041,0
	l0.041-0.001l0.041-0.001l0.042-0.001l0.041-0.001l0.041-0.001l0.041-0.001l0.041-0.001l0.041-0.002l0.042-0.002l0.041-0.002
	l0.041-0.001l0.041-0.002l0.041-0.002l0.041-0.002l0.041-0.002l0.041-0.003l0.042-0.003l0.041-0.002l0.041-0.003l0.042-0.003
	l0.041-0.003l0.042-0.004l0.041-0.003l0.041-0.004l0.041-0.003l0.041-0.005l0.041-0.004l0.041-0.004l0.041-0.005l0.041-0.005
	l0.041-0.005l0.042-0.005l0.041-0.006l0.041-0.005l0.041-0.006c0.014-0.001,0.027-0.004,0.041-0.006l0.042-0.006l0.041-0.006
	l0.041-0.007c0.013-0.001,0.027-0.004,0.041-0.007l0.041-0.006c0.014-0.002,0.028-0.004,0.042-0.007s0.026-0.005,0.041-0.007
	l0.041-0.008l0.041-0.008l0.041-0.008c0.014-0.002,0.027-0.005,0.041-0.009l0.041-0.008l0.041-0.008
	c0.014-0.003,0.027-0.006,0.041-0.009l0.041-0.009c0.014-0.003,0.028-0.006,0.042-0.009c0.014-0.003,0.027-0.007,0.041-0.01
	l0.041-0.01c0.013-0.004,0.027-0.007,0.041-0.011c0.014-0.003,0.027-0.007,0.041-0.011l0.041-0.011
	c0.014-0.004,0.027-0.007,0.042-0.011c0.013-0.004,0.027-0.007,0.041-0.011l0.041-0.012c0.014-0.004,0.027-0.008,0.041-0.012
	l0.042-0.012l0.041-0.013c0.013-0.004,0.027-0.008,0.041-0.013l0.041-0.014l0.041-0.014c0.014-0.005,0.028-0.009,0.042-0.014
	s0.027-0.01,0.041-0.015l0.042-0.015c0.013-0.005,0.027-0.01,0.041-0.015c0.014-0.005,0.027-0.011,0.041-0.016
	s0.027-0.01,0.041-0.016l0.041-0.017l0.041-0.017c0.014-0.006,0.028-0.012,0.042-0.017c0.014-0.006,0.027-0.013,0.041-0.019
	l0.042-0.018l0.041-0.02c0.013-0.006,0.027-0.013,0.041-0.02c0.014-0.006,0.028-0.013,0.041-0.019
	c0.014-0.007,0.028-0.014,0.041-0.021c0.014-0.007,0.027-0.014,0.042-0.021c0.013-0.007,0.027-0.015,0.041-0.022
	s0.028-0.015,0.041-0.022c0.014-0.008,0.028-0.016,0.041-0.023c0.015-0.008,0.028-0.016,0.042-0.024
	c0.014-0.008,0.027-0.016,0.041-0.024s0.027-0.017,0.041-0.025c0.013-0.009,0.028-0.018,0.041-0.026
	c0.014-0.009,0.027-0.018,0.041-0.027c0.014-0.009,0.028-0.018,0.041-0.027c0.014-0.009,0.027-0.019,0.042-0.029
	c0.013-0.009,0.027-0.02,0.041-0.029c0.014-0.01,0.028-0.021,0.041-0.031c0.014-0.011,0.028-0.021,0.041-0.031
	c0.014-0.011,0.027-0.022,0.041-0.033c0.015-0.012,0.028-0.023,0.042-0.034c0.013-0.012,0.027-0.023,0.041-0.035
	c0.014-0.013,0.027-0.024,0.041-0.038c0.013-0.013,0.028-0.025,0.041-0.038c0.015-0.013,0.028-0.026,0.041-0.041
	c0.014-0.013,0.028-0.027,0.041-0.041c0.014-0.014,0.027-0.028,0.042-0.043c0.014-0.015,0.027-0.03,0.041-0.045
	c0.014-0.016,0.028-0.032,0.041-0.048c0.014-0.016,0.028-0.033,0.041-0.049c0.014-0.018,0.027-0.035,0.041-0.052
	c0.014-0.018,0.027-0.037,0.041-0.055c0.014-0.019,0.027-0.039,0.041-0.059s0.028-0.041,0.041-0.061
	c0.014-0.022,0.027-0.043,0.041-0.066c0.014-0.023,0.027-0.046,0.041-0.07c0.014-0.025,0.027-0.05,0.041-0.075
	c0.014-0.027,0.028-0.054,0.042-0.082c0.014-0.03,0.027-0.059,0.041-0.09c0.015-0.032,0.028-0.065,0.042-0.098
	c0.014-0.037,0.027-0.073,0.041-0.11c0.015-0.042,0.028-0.084,0.041-0.127c0.015-0.05,0.029-0.101,0.041-0.152
	c0.016-0.063,0.029-0.127,0.041-0.192c0.017-0.097,0.031-0.195,0.041-0.294c0.014-0.138,0.02-0.28,0.02-0.423v-4.935h-0.02h-0.041
	h-0.041H24.46h-0.041h-0.041h-0.042h-0.041h-0.042h-0.041h-0.041h-0.041h-0.041h-0.041H24.01h-0.041h-0.041h-0.041h-0.041h-0.042
	h-0.041h-0.041h-0.041h-0.041h-0.041h-0.042h-0.041h-0.041h-0.041h-0.041h-0.042h-0.041h-0.041h-0.041H23.19h-0.041h-0.042h-0.041
	h-0.041h-0.041h-0.042h-0.041h-0.041h-0.041h-0.041h-0.042h-0.041h-0.042h-0.041h-0.041h-0.041h-0.041h-0.041h-0.042h-0.041H22.33
	h-0.041h-0.041h-0.041h-0.041h-0.042h-0.041h-0.041h-0.041h-0.042H21.92h-0.041h-0.041h-0.041h-0.041h-0.042h-0.041h-0.041h-0.041
	h-0.041H21.51h-0.041h-0.041h-0.041h-0.041h-0.042h-0.041h-0.041h-0.041h-0.041H21.1H21.06h-0.041h-0.041h-0.031v4.935
	c0,0.077-0.003,0.153-0.009,0.228c-0.008,0.095-0.022,0.188-0.042,0.278c-0.011,0.055-0.025,0.11-0.041,0.164
	c-0.012,0.043-0.026,0.085-0.041,0.125c-0.013,0.036-0.026,0.07-0.041,0.104c-0.013,0.03-0.027,0.061-0.041,0.09
	c-0.013,0.027-0.027,0.054-0.041,0.08c-0.013,0.024-0.027,0.047-0.041,0.071c-0.013,0.022-0.027,0.044-0.041,0.065
	c-0.013,0.02-0.027,0.04-0.041,0.059c-0.014,0.019-0.027,0.038-0.041,0.055s-0.027,0.034-0.042,0.051
	c-0.013,0.016-0.027,0.032-0.041,0.047s-0.028,0.03-0.042,0.044c-0.013,0.014-0.027,0.028-0.041,0.042
	c-0.014,0.014-0.027,0.026-0.041,0.04c-0.014,0.012-0.027,0.024-0.042,0.036c-0.013,0.012-0.027,0.023-0.041,0.035
	s-0.027,0.022-0.041,0.032s-0.027,0.021-0.041,0.031s-0.027,0.02-0.041,0.029c-0.014,0.009-0.027,0.019-0.041,0.028
	c-0.014,0.009-0.027,0.018-0.041,0.026c-0.013,0.008-0.027,0.017-0.041,0.024c-0.014,0.008-0.027,0.016-0.042,0.023
	c-0.013,0.008-0.027,0.015-0.041,0.023c-0.013,0.007-0.027,0.014-0.041,0.021c-0.013,0.007-0.027,0.014-0.041,0.02
	c-0.014,0.006-0.027,0.013-0.041,0.019c-0.014,0.006-0.027,0.012-0.041,0.018c-0.014,0.005-0.027,0.011-0.042,0.017
	c-0.013,0.005-0.027,0.011-0.041,0.016s-0.027,0.01-0.041,0.015s-0.027,0.009-0.041,0.014c-0.014,0.004-0.027,0.009-0.041,0.013
	c-0.014,0.004-0.027,0.008-0.042,0.013c-0.013,0.004-0.027,0.008-0.041,0.011c-0.014,0.004-0.027,0.007-0.041,0.011
	c-0.013,0.003-0.027,0.007-0.041,0.011c-0.014,0.003-0.027,0.006-0.041,0.009c-0.014,0.003-0.027,0.006-0.041,0.009
	c-0.014,0.002-0.027,0.006-0.042,0.008c-0.013,0.002-0.027,0.004-0.041,0.007c-0.014,0.002-0.027,0.004-0.041,0.007l-0.041,0.006
	c-0.014,0.002-0.027,0.004-0.041,0.005c-0.014,0.002-0.027,0.004-0.041,0.005l-0.041,0.004c-0.014,0.002-0.027,0.003-0.041,0.004
	c-0.014,0.001-0.027,0.003-0.041,0.003c-0.014,0.001-0.027,0.002-0.042,0.003c-0.013,0.001-0.027,0.002-0.041,0.002
	s-0.027,0.001-0.042,0.002c-0.013,0.001-0.027,0.001-0.041,0.001l-0.041,0.001c-0.014,0-0.027,0-0.041,0h-0.016h-0.025h-0.041
	l-0.041-0.001l-0.041,0l-0.042-0.001l-0.041-0.001l-0.041-0.002l-0.042-0.002l-0.041-0.002l-0.042-0.001l-0.041-0.003l-0.041-0.003
	l-0.041-0.003l-0.042-0.003l-0.041-0.003l-0.041-0.004l-0.041-0.004l-0.041-0.005l-0.041-0.004l-0.042-0.005l-0.041-0.005
	l-0.041-0.006l-0.041-0.005L17.7,34.879l-0.042-0.006l-0.041-0.007l-0.041-0.007l-0.041-0.007l-0.042-0.007l-0.041-0.007
	l-0.041-0.008l-0.041-0.008l-0.041-0.008l-0.041-0.008l-0.042-0.008l-0.041-0.009l-0.041-0.009l-0.041-0.01l-0.041-0.009
	l-0.042-0.01l-0.041-0.01l-0.041-0.011l-0.041-0.01l-0.041-0.011l-0.041-0.01l-0.042-0.011l-0.041-0.012l-0.041-0.011l-0.041-0.011
	l-0.042-0.012l-0.041-0.012l-0.041-0.012l-0.041-0.012l-0.041-0.013l-0.042-0.013l-0.041-0.014l-0.042-0.013l-0.041-0.013
	l-0.041-0.015l-0.041-0.014l-0.041-0.014l-0.041-0.015l-0.042-0.014l-0.041-0.015l-0.042-0.016l-0.041-0.015l-0.041-0.016
	l-0.041-0.015l-0.041-0.016l-0.042-0.016l-0.041-0.017l-0.041-0.017l-0.041-0.017l-0.042-0.017l-0.041-0.017l-0.041-0.017
	l-0.041-0.018l-0.041-0.018l-0.041-0.018l-0.042-0.017l-0.041-0.019l-0.041-0.018l-0.041-0.019l-0.041-0.019L15.2,34.097
	l-0.041-0.019l-0.041-0.02l-0.041-0.019c-0.03-0.014-0.059-0.028-0.088-0.042V23.495c0-0.296,0.03-0.585,0.088-0.865
	c0.012-0.06,0.026-0.119,0.041-0.178c0.012-0.051,0.027-0.101,0.041-0.151c0.013-0.044,0.026-0.088,0.041-0.132
	c0.014-0.04,0.027-0.08,0.042-0.12c0.014-0.037,0.026-0.073,0.041-0.109c0.013-0.034,0.027-0.067,0.041-0.101
	c0.013-0.031,0.027-0.063,0.041-0.093c0.014-0.03,0.027-0.059,0.041-0.088c0.014-0.028,0.027-0.056,0.042-0.083
	c0.013-0.026,0.027-0.053,0.041-0.079c0.013-0.025,0.027-0.05,0.041-0.075c0.013-0.023,0.027-0.048,0.041-0.072
	c0.014-0.023,0.027-0.046,0.041-0.069c0.014-0.021,0.027-0.044,0.041-0.065s0.027-0.042,0.042-0.063
	c0.013-0.02,0.027-0.041,0.041-0.061c0.014-0.02,0.027-0.04,0.041-0.059c0.014-0.019,0.027-0.037,0.041-0.056
	c0.014-0.019,0.027-0.037,0.042-0.055c0.013-0.018,0.027-0.036,0.041-0.053c0.013-0.017,0.027-0.034,0.041-0.051
	c0.013-0.017,0.027-0.034,0.041-0.05c0.014-0.016,0.027-0.032,0.041-0.048c0.014-0.016,0.027-0.031,0.042-0.047
	c0.013-0.015,0.027-0.031,0.041-0.045s0.027-0.029,0.042-0.044c0.013-0.014,0.027-0.029,0.041-0.043
	c0.014-0.014,0.027-0.028,0.041-0.042c0.014-0.014,0.027-0.027,0.041-0.041c0.014-0.014,0.027-0.027,0.041-0.041
	c0.013-0.013,0.027-0.025,0.041-0.038c0.014-0.013,0.027-0.025,0.042-0.038c0.013-0.012,0.027-0.024,0.041-0.036
	c0.014-0.012,0.027-0.024,0.042-0.035c0.013-0.012,0.027-0.024,0.041-0.035c0.014-0.012,0.028-0.023,0.041-0.035
	c0.014-0.011,0.027-0.022,0.041-0.033c0.014-0.011,0.027-0.022,0.041-0.033c0.014-0.01,0.027-0.021,0.042-0.031
	c0.013-0.01,0.027-0.021,0.041-0.031l0.041-0.03c0.013-0.01,0.027-0.02,0.041-0.029c0.014-0.01,0.027-0.02,0.042-0.029
	c0.013-0.009,0.027-0.019,0.041-0.028s0.027-0.019,0.041-0.027c0.013-0.009,0.027-0.018,0.041-0.026
	c0.014-0.008,0.027-0.017,0.041-0.025c0.014-0.009,0.027-0.017,0.041-0.025s0.027-0.016,0.042-0.024
	c0.013-0.008,0.027-0.016,0.041-0.024c0.014-0.007,0.027-0.015,0.041-0.022c0.013-0.007,0.027-0.016,0.041-0.023
	s0.027-0.015,0.041-0.022c0.014-0.007,0.027-0.014,0.042-0.021c0.013-0.007,0.027-0.014,0.041-0.021l0.041-0.021
	c0.013-0.006,0.027-0.013,0.041-0.02c0.014-0.007,0.027-0.013,0.041-0.02c0.014-0.006,0.027-0.013,0.041-0.019
	c0.014-0.006,0.027-0.012,0.042-0.018c0.013-0.006,0.027-0.012,0.041-0.019c0.014-0.005,0.027-0.011,0.041-0.017l0.041-0.017
	L17.7,19.53l0.041-0.016c0.014-0.005,0.027-0.01,0.041-0.015c0.013-0.005,0.027-0.01,0.041-0.014
	c0.014-0.005,0.027-0.01,0.041-0.015l0.042-0.014l0.041-0.014c0.014-0.004,0.027-0.009,0.041-0.013
	c0.013-0.004,0.027-0.008,0.041-0.013c0.014-0.003,0.027-0.008,0.041-0.012c0.014-0.004,0.027-0.007,0.041-0.012l0.042-0.011
	c0.013-0.003,0.027-0.007,0.041-0.01s0.027-0.007,0.041-0.01c0.014-0.003,0.027-0.007,0.041-0.01
	c0.014-0.003,0.027-0.006,0.042-0.009l0.041-0.009c0.014-0.003,0.028-0.006,0.042-0.009c0.013-0.002,0.027-0.005,0.041-0.008
	c0.014-0.002,0.027-0.005,0.041-0.008s0.027-0.004,0.042-0.007l0.041-0.007c0.014-0.002,0.027-0.005,0.041-0.007
	c0.013-0.001,0.028-0.003,0.041-0.005c0.014-0.002,0.027-0.004,0.041-0.006l0.041-0.005l0.041-0.005
	c0.013-0.001,0.027-0.003,0.041-0.004c0.014-0.001,0.028-0.002,0.042-0.003l0.041-0.004c0.014-0.001,0.027-0.002,0.042-0.003
	c0.013-0.001,0.027-0.002,0.041-0.003c0.014,0,0.027-0.002,0.041-0.002c0.014-0.001,0.027-0.001,0.041-0.002l0.041-0.001
	c0.014,0,0.027-0.001,0.041-0.002c0.014,0,0.027,0,0.041,0c0.014,0,0.027,0,0.041,0l0.019,0h0.022h0.042h0.041h0.041h0.041h0.041
	h0.041h0.042h0.041h0.041h0.041h0.041h0.042h0.041h0.041h0.041h0.041h0.041h0.042h0.041h0.041h0.041h0.041h0.041h0.041h0.041h0.042
	h0.041h0.041h0.042h0.041h0.042h0.041h0.041h0.041h0.041h0.041h0.041h0.041h0.041h0.041h0.042h0.041h0.041h0.041H21.1h0.042h0.041
	h0.041h0.041h0.041h0.042h0.041h0.041h0.041h0.041h0.041h0.041h0.041h0.041h0.041h0.042h0.041h0.041h0.041h0.041h0.041h0.042h0.041
	h0.041h0.041h0.042h0.041h0.041h0.041h0.041h0.042h0.041h0.042h0.041h0.041h0.041h0.041h0.041h0.042h0.041h0.042h0.041h0.041h0.041
	h0.041h0.042h0.041h0.041h0.041h0.042h0.041h0.041h0.041h0.041h0.041h0.042h0.041h0.041h0.041h0.041h0.042h0.041h0.041h0.041h0.041
	h0.041h0.042h0.041h0.041h0.041h0.041h0.041h0.041h0.041h0.041h0.041h0.041h0.042h0.041h0.042h0.041h0.041h0.041h0.041h0.041h0.041
	h0.041h0.041h0.041h0.041h0.042h0.041h0.041h0.041h0.041h0.041h0.041h0.041h0.041h0.042h0.041h0.041h0.041h0.041h0.041h0.042h0.035
	V40.506z M37.245,40.506c0,0.184-0.012,0.367-0.035,0.545c-0.011,0.086-0.025,0.171-0.041,0.255
	c-0.013,0.064-0.026,0.128-0.042,0.191c-0.013,0.053-0.026,0.106-0.041,0.158c-0.013,0.046-0.027,0.092-0.041,0.137
	c-0.013,0.041-0.027,0.082-0.041,0.122c-0.014,0.038-0.027,0.075-0.041,0.112c-0.014,0.035-0.027,0.069-0.042,0.103
	c-0.013,0.032-0.027,0.064-0.041,0.096c-0.013,0.03-0.027,0.06-0.041,0.089c-0.013,0.028-0.027,0.056-0.041,0.084
	c-0.013,0.027-0.027,0.054-0.041,0.08c-0.014,0.026-0.027,0.051-0.042,0.076c-0.013,0.024-0.026,0.049-0.041,0.073
	c-0.013,0.024-0.026,0.046-0.041,0.069c-0.013,0.022-0.027,0.044-0.041,0.066c-0.013,0.022-0.027,0.043-0.041,0.064
	c-0.014,0.021-0.027,0.042-0.041,0.062c-0.014,0.02-0.027,0.039-0.042,0.059c-0.013,0.019-0.027,0.038-0.041,0.057
	c-0.013,0.019-0.027,0.038-0.041,0.056c-0.014,0.018-0.027,0.035-0.041,0.053c-0.014,0.017-0.027,0.035-0.041,0.051
	c-0.014,0.017-0.027,0.034-0.041,0.051c-0.014,0.016-0.027,0.033-0.041,0.049c-0.013,0.016-0.027,0.031-0.041,0.047
	s-0.027,0.031-0.041,0.046c-0.014,0.015-0.027,0.029-0.041,0.044c-0.014,0.015-0.027,0.029-0.042,0.043
	c-0.013,0.014-0.027,0.028-0.041,0.042c-0.013,0.014-0.027,0.027-0.041,0.041c-0.013,0.013-0.027,0.027-0.041,0.04
	c-0.014,0.014-0.027,0.026-0.042,0.039c-0.013,0.013-0.027,0.025-0.041,0.038c-0.013,0.013-0.027,0.024-0.041,0.037
	c-0.013,0.012-0.027,0.024-0.041,0.036s-0.027,0.023-0.041,0.034c-0.014,0.012-0.027,0.023-0.042,0.035
	c-0.013,0.011-0.027,0.022-0.041,0.034c-0.014,0.01-0.027,0.021-0.041,0.033c-0.013,0.01-0.027,0.021-0.041,0.031
	c-0.015,0.01-0.028,0.021-0.042,0.031s-0.027,0.02-0.041,0.03c-0.014,0.01-0.027,0.02-0.041,0.029
	c-0.013,0.01-0.027,0.019-0.041,0.028c-0.014,0.01-0.027,0.02-0.042,0.029c-0.013,0.009-0.027,0.018-0.041,0.027
	c-0.014,0.009-0.027,0.018-0.042,0.026c-0.013,0.009-0.027,0.018-0.041,0.026c-0.014,0.009-0.027,0.018-0.041,0.025
	c-0.013,0.009-0.027,0.017-0.041,0.025c-0.014,0.008-0.027,0.017-0.041,0.024c-0.014,0.007-0.027,0.015-0.041,0.023l-0.041,0.022
	l-0.041,0.023l-0.041,0.021c-0.014,0.007-0.028,0.015-0.041,0.022c-0.014,0.007-0.028,0.013-0.042,0.02
	c-0.014,0.007-0.027,0.015-0.041,0.021c-0.013,0.007-0.027,0.013-0.041,0.02c-0.014,0.006-0.027,0.013-0.041,0.019
	c-0.014,0.007-0.028,0.013-0.041,0.019l-0.042,0.018l-0.041,0.017l-0.041,0.017c-0.013,0.006-0.027,0.011-0.041,0.017
	c-0.014,0.005-0.027,0.01-0.041,0.015c-0.014,0.005-0.027,0.011-0.042,0.016c-0.013,0.005-0.027,0.009-0.041,0.015l-0.041,0.014
	l-0.041,0.015c-0.014,0.004-0.027,0.009-0.041,0.013c-0.014,0.005-0.028,0.009-0.042,0.013c-0.013,0.004-0.027,0.008-0.041,0.013
	l-0.041,0.012l-0.041,0.011c-0.014,0.004-0.027,0.007-0.041,0.011c-0.015,0.004-0.027,0.007-0.042,0.011
	c-0.013,0.003-0.027,0.007-0.041,0.01c-0.014,0.003-0.027,0.007-0.041,0.01l-0.041,0.01l-0.041,0.009
	c-0.014,0.003-0.027,0.006-0.042,0.009c-0.013,0.003-0.027,0.005-0.041,0.008l-0.041,0.008l-0.041,0.007
	c-0.014,0.002-0.027,0.004-0.041,0.007c-0.014,0.002-0.027,0.004-0.041,0.007c-0.014,0.002-0.027,0.003-0.042,0.006l-0.041,0.005
	c-0.014,0.002-0.027,0.004-0.041,0.006c-0.014,0.001-0.027,0.002-0.041,0.004c-0.014,0.002-0.027,0.004-0.042,0.005
	c-0.013,0.001-0.027,0.002-0.041,0.004l-0.042,0.004c-0.013,0.001-0.027,0.002-0.041,0.003c-0.014,0.001-0.027,0.001-0.041,0.002
	l-0.041,0.003l-0.041,0.002c-0.014,0-0.028,0-0.041,0.001c-0.014,0-0.027,0.001-0.041,0.001s-0.027,0.001-0.041,0.001l-0.041,0
	c-0.013,0-0.025,0-0.038,0h-0.003h-0.041h-0.041h-0.041h-0.042h-0.041h-0.042h-0.041h-0.041h-0.041H32.58h-0.041h-0.041h-0.041
	h-0.042h-0.041h-0.041h-0.042h-0.041H32.21H32.17h-0.041h-0.041h-0.041h-0.041h-0.041h-0.041h-0.041h-0.041h-0.041H31.76h-0.041
	h-0.041h-0.041h-0.042h-0.041h-0.041h-0.041h-0.042h-0.041H31.35H31.31h-0.041h-0.041h-0.042h-0.041h-0.041h-0.041h-0.041h-0.041
	H30.94h-0.041h-0.041h-0.042h-0.041h-0.041h-0.041h-0.041h-0.042h-0.041h-0.041H30.49h-0.041h-0.041h-0.041h-0.041h-0.041h-0.041
	h-0.042h-0.041h-0.041H30.08h-0.041h-0.041h-0.041h-0.041h-0.041h-0.041h-0.041h-0.041h-0.041H29.67h-0.041h-0.042h-0.041h-0.041
	h-0.041h-0.042h-0.041h-0.041h-0.041h-0.041H29.22h-0.042h-0.041h-0.041h-0.041h-0.041h-0.042h-0.041h-0.041h-0.041H28.81h-0.041
	h-0.041h-0.041h-0.041h-0.041h-0.042h-0.041h-0.041h-0.041H28.4h-0.042h-0.041h-0.041h-0.041h-0.041h-0.041h-0.042h-0.041h-0.041
	H27.99h-0.041h-0.041h-0.041h-0.041h-0.041h-0.042h-0.041h-0.042h-0.041h-0.041H27.54h-0.041h-0.041h-0.041h-0.041h-0.041h-0.041
	h-0.041h-0.042h-0.041h-0.042h-0.041h-0.041h-0.041h-0.041h-0.041h-0.041h-0.041h-0.088v-9.819c0.029,0.024,0.058,0.049,0.088,0.073
	c0.013,0.011,0.027,0.022,0.041,0.033s0.027,0.021,0.041,0.032c0.014,0.011,0.027,0.021,0.041,0.031s0.027,0.021,0.041,0.03
	c0.013,0.01,0.027,0.02,0.041,0.029c0.013,0.01,0.027,0.02,0.041,0.029l0.041,0.027c0.014,0.009,0.027,0.019,0.042,0.028
	l0.041,0.027c0.014,0.008,0.027,0.017,0.042,0.026c0.013,0.009,0.027,0.017,0.041,0.025l0.041,0.025
	c0.014,0.008,0.027,0.016,0.041,0.024c0.014,0.008,0.027,0.016,0.041,0.023l0.041,0.024l0.041,0.022l0.041,0.022
	c0.014,0.007,0.027,0.015,0.041,0.022c0.014,0.007,0.027,0.014,0.041,0.021l0.041,0.021l0.042,0.021l0.041,0.019
	c0.014,0.007,0.027,0.014,0.042,0.02l0.041,0.019l0.041,0.019l0.041,0.018l0.041,0.018l0.041,0.017l0.041,0.018l0.041,0.017
	l0.041,0.017l0.042,0.016l0.041,0.016c0.014,0.005,0.027,0.01,0.041,0.016l0.041,0.015c0.014,0.005,0.027,0.01,0.041,0.015
	c0.014,0.005,0.027,0.009,0.041,0.015l0.042,0.014l0.041,0.014c0.014,0.005,0.027,0.009,0.041,0.014
	c0.013,0.004,0.027,0.008,0.041,0.013l0.041,0.013l0.042,0.013l0.041,0.013l0.041,0.012l0.041,0.012l0.041,0.012l0.041,0.011
	l0.042,0.011l0.041,0.011l0.041,0.011l0.041,0.01l0.042,0.011l0.041,0.01l0.041,0.01l0.041,0.009l0.041,0.009l0.042,0.009
	l0.041,0.009l0.041,0.009l0.041,0.008l0.041,0.008l0.041,0.008l0.042,0.008l0.041,0.008l0.041,0.007l0.041,0.007l0.042,0.007
	l0.041,0.007l0.042,0.007l0.041,0.007l0.041,0.007l0.041,0.006l0.041,0.006l0.041,0.006l0.041,0.005l0.041,0.006l0.041,0.006
	l0.041,0.005l0.041,0.005l0.041,0.005l0.041,0.005l0.042,0.005l0.041,0.004l0.041,0.005l0.041,0.004l0.041,0.004l0.041,0.004
	l0.041,0.004l0.041,0.003l0.041,0.004l0.041,0.003l0.042,0.003l0.041,0.003l0.041,0.002l0.041,0.003l0.041,0.003l0.042,0.003
	l0.041,0.002l0.041,0.002l0.041,0.002l0.041,0.002l0.041,0.002l0.041,0.002l0.041,0.002l0.041,0.001l0.042,0.002l0.041,0.001
	l0.041,0.002l0.041,0.001l0.041,0.001l0.041,0.001l0.042,0.001l0.041,0.001l0.041,0l0.041,0.001l0.042,0l0.041,0l0.041,0l0.041,0
	h0.041h0.041h0.041h0.041h0.041l0.041,0h0.041l0.041-0.001l0.041,0l0.041,0l0.041-0.001l0.042,0l0.041-0.001l0.042-0.001
	l0.041-0.001l0.041-0.001l0.042-0.001l0.041-0.001l0.041-0.002l0.041-0.001l0.041-0.002l0.041-0.001l0.041-0.001l0.02-0.001l0.021,0
	l0.042-0.002l0.041-0.002l0.042-0.002l0.041-0.002l0.041-0.003l0.041-0.002l0.041-0.003l0.041-0.003l0.041-0.003l0.041-0.003
	l0.041-0.003l0.041-0.004l0.041-0.003l0.041-0.003l0.041-0.004l0.042-0.003l0.041-0.004l0.042-0.004l0.041-0.005l0.041-0.003
	l0.041-0.005l0.042-0.004l0.041-0.005l0.041-0.004l0.041-0.005l0.041-0.005l0.041-0.005l0.042-0.005l0.041-0.005l0.041-0.005
	l0.041-0.005l0.041-0.006l0.042-0.006l0.041-0.006l0.041-0.005l0.041-0.006l0.041-0.007l0.042-0.006l0.041-0.006l0.041-0.007
	l0.041-0.006l0.041-0.006l0.042-0.007l0.041-0.006l0.041-0.007l0.041-0.007l0.041-0.007l0.042-0.007l0.041-0.007l0.041-0.008
	l0.041-0.007l0.041-0.007l0.042-0.007l0.041-0.007l0.041-0.008l0.041-0.008l0.041-0.007l0.041-0.008l0.041-0.009l0.041-0.007
	l0.041-0.008l0.041-0.008l0.042-0.008l0.041-0.008l0.042-0.009l0.041-0.008l0.041-0.009l0.041-0.009l0.042-0.008l0.041-0.009
	l0.041-0.009l0.041-0.009l0.042-0.009l0.041-0.009l0.041-0.009l0.041-0.01l0.041-0.01l0.042-0.01l0.041-0.009l0.041-0.01l0.041-0.01
	v-1.799l-0.041,0.021l-0.041,0.02l-0.041,0.021l-0.042,0.02l-0.041,0.019l-0.041,0.02l-0.041,0.02l-0.041,0.019l-0.042,0.019
	l-0.041,0.019l-0.041,0.019l-0.041,0.019l-0.042,0.018l-0.041,0.018l-0.041,0.018l-0.041,0.018l-0.042,0.017l-0.041,0.017
	l-0.042,0.017l-0.041,0.017l-0.041,0.016l-0.041,0.016l-0.041,0.016l-0.041,0.016l-0.041,0.015l-0.041,0.016l-0.041,0.015
	l-0.041,0.015l-0.042,0.014l-0.041,0.014l-0.041,0.014l-0.041,0.014l-0.041,0.014l-0.042,0.013l-0.041,0.013l-0.041,0.013
	l-0.041,0.013l-0.041,0.012l-0.042,0.012l-0.041,0.012l-0.041,0.011l-0.041,0.012l-0.041,0.011l-0.042,0.011l-0.041,0.011
	l-0.041,0.011l-0.041,0.011l-0.041,0.009l-0.042,0.01l-0.041,0.009l-0.041,0.009l-0.041,0.009l-0.041,0.009l-0.042,0.009
	l-0.041,0.008l-0.041,0.009l-0.041,0.008l-0.041,0.008l-0.041,0.007l-0.042,0.007l-0.041,0.007l-0.041,0.007l-0.041,0.006
	l-0.042,0.006l-0.041,0.006l-0.042,0.006l-0.041,0.006l-0.041,0.005l-0.041,0.006l-0.041,0.005l-0.041,0.005l-0.041,0.004
	l-0.041,0.005L33.03,34.92l-0.041,0.004l-0.041,0.003l-0.041,0.004l-0.041,0.003l-0.025,0.002l-0.016,0.001l-0.041,0.003
	l-0.042,0.002l-0.041,0.002l-0.041,0.002l-0.041,0.002L32.58,34.95l-0.041,0.001l-0.041,0.001l-0.041,0l-0.042,0.001
	c-0.014,0-0.027,0-0.041,0h-0.041l-0.042-0.001l-0.041,0l-0.042-0.001c-0.013,0-0.027,0-0.041-0.001s-0.027-0.001-0.041-0.002
	l-0.041-0.002l-0.041-0.002l-0.041-0.003l-0.041-0.003c-0.013-0.001-0.027-0.002-0.041-0.003s-0.027-0.003-0.041-0.004l-0.041-0.004
	l-0.041-0.005l-0.041-0.004l-0.041-0.006l-0.041-0.006c-0.014-0.002-0.028-0.004-0.041-0.006c-0.014-0.002-0.027-0.004-0.042-0.007
	c-0.013-0.002-0.027-0.004-0.041-0.006c-0.014-0.003-0.027-0.005-0.041-0.008s-0.028-0.004-0.041-0.008
	c-0.015-0.002-0.027-0.005-0.042-0.008c-0.014-0.003-0.027-0.005-0.041-0.008c-0.014-0.003-0.027-0.006-0.041-0.01l-0.041-0.01
	c-0.014-0.003-0.027-0.007-0.041-0.01c-0.014-0.003-0.028-0.007-0.041-0.01c-0.014-0.004-0.027-0.007-0.042-0.011
	c-0.013-0.004-0.027-0.008-0.041-0.012c-0.013-0.004-0.027-0.008-0.041-0.012c-0.014-0.004-0.027-0.008-0.041-0.013
	c-0.014-0.004-0.027-0.009-0.041-0.013c-0.014-0.005-0.027-0.009-0.041-0.014c-0.014-0.005-0.027-0.01-0.041-0.015
	s-0.027-0.01-0.041-0.015c-0.014-0.005-0.027-0.011-0.041-0.016c-0.014-0.005-0.027-0.011-0.042-0.016
	c-0.014-0.006-0.027-0.012-0.041-0.018c-0.014-0.006-0.027-0.012-0.041-0.018c-0.013-0.006-0.027-0.013-0.041-0.019
	c-0.014-0.006-0.027-0.013-0.041-0.02c-0.014-0.006-0.027-0.013-0.042-0.02c-0.014-0.007-0.027-0.014-0.041-0.021
	c-0.014-0.007-0.028-0.014-0.041-0.021c-0.014-0.008-0.028-0.016-0.041-0.023c-0.014-0.008-0.027-0.016-0.041-0.023
	c-0.014-0.008-0.027-0.017-0.041-0.025s-0.027-0.017-0.041-0.025c-0.014-0.009-0.028-0.018-0.041-0.026
	c-0.014-0.009-0.027-0.019-0.041-0.028s-0.027-0.019-0.041-0.029c-0.014-0.01-0.028-0.02-0.042-0.03s-0.027-0.021-0.041-0.031
	c-0.014-0.011-0.028-0.021-0.041-0.033c-0.014-0.012-0.028-0.022-0.041-0.034c-0.014-0.012-0.027-0.024-0.041-0.036
	s-0.027-0.025-0.041-0.037c-0.014-0.013-0.027-0.026-0.041-0.04c-0.014-0.013-0.028-0.027-0.041-0.041
	c-0.014-0.014-0.027-0.029-0.041-0.043c-0.014-0.015-0.027-0.03-0.041-0.045s-0.027-0.032-0.041-0.048s-0.027-0.033-0.041-0.05
	c-0.014-0.018-0.027-0.035-0.041-0.053c-0.014-0.019-0.028-0.038-0.042-0.056c-0.014-0.02-0.027-0.04-0.041-0.06
	c-0.014-0.021-0.028-0.042-0.042-0.064c-0.014-0.022-0.027-0.046-0.041-0.069c-0.014-0.024-0.028-0.049-0.041-0.074
	c-0.014-0.026-0.028-0.053-0.041-0.08c-0.015-0.029-0.028-0.059-0.042-0.088c-0.014-0.032-0.028-0.063-0.041-0.096
	c-0.015-0.037-0.028-0.073-0.041-0.11c-0.014-0.042-0.028-0.083-0.041-0.125c-0.014-0.049-0.029-0.099-0.041-0.15
	c-0.016-0.063-0.029-0.128-0.041-0.194c-0.018-0.098-0.032-0.198-0.042-0.301c-0.011-0.119-0.017-0.242-0.017-0.368
	c0-0.126,0.006-0.249,0.017-0.368c0.01-0.104,0.023-0.204,0.042-0.302c0.012-0.065,0.025-0.13,0.041-0.194
	c0.012-0.051,0.026-0.101,0.041-0.15c0.013-0.042,0.027-0.084,0.041-0.125c0.013-0.037,0.026-0.074,0.041-0.11
	c0.013-0.032,0.027-0.064,0.041-0.096c0.013-0.03,0.027-0.06,0.042-0.088c0.012-0.027,0.026-0.054,0.041-0.081
	c0.013-0.025,0.027-0.05,0.041-0.074c0.013-0.023,0.027-0.046,0.041-0.069c0.014-0.022,0.027-0.042,0.042-0.064
	c0.013-0.02,0.027-0.04,0.041-0.06c0.014-0.018,0.027-0.037,0.042-0.056c0.013-0.018,0.027-0.036,0.041-0.053
	c0.014-0.017,0.027-0.034,0.041-0.05c0.014-0.017,0.027-0.032,0.041-0.048s0.027-0.031,0.041-0.045
	c0.014-0.015,0.027-0.029,0.041-0.044c0.013-0.013,0.027-0.027,0.041-0.04c0.014-0.014,0.027-0.026,0.041-0.04
	c0.014-0.012,0.027-0.025,0.041-0.037c0.014-0.013,0.027-0.024,0.041-0.036c0.013-0.012,0.027-0.022,0.041-0.034
	c0.013-0.011,0.027-0.022,0.041-0.033c0.013-0.011,0.027-0.021,0.041-0.032s0.027-0.02,0.042-0.03
	c0.013-0.01,0.027-0.02,0.041-0.029c0.014-0.009,0.027-0.019,0.041-0.028c0.013-0.009,0.027-0.018,0.041-0.026
	c0.014-0.009,0.027-0.018,0.041-0.026s0.027-0.017,0.041-0.025c0.014-0.008,0.027-0.015,0.041-0.023
	c0.013-0.008,0.027-0.016,0.041-0.023c0.013-0.007,0.027-0.014,0.041-0.021s0.027-0.015,0.041-0.021
	c0.014-0.007,0.028-0.013,0.042-0.02s0.027-0.013,0.041-0.02c0.013-0.006,0.027-0.013,0.041-0.019
	c0.014-0.005,0.027-0.012,0.041-0.018c0.014-0.006,0.027-0.012,0.041-0.018c0.014-0.005,0.027-0.011,0.042-0.016
	c0.013-0.005,0.027-0.011,0.041-0.016s0.027-0.01,0.041-0.015c0.014-0.005,0.027-0.01,0.041-0.016
	c0.014-0.004,0.027-0.009,0.041-0.014c0.014-0.004,0.027-0.009,0.041-0.013c0.014-0.005,0.027-0.008,0.041-0.013
	c0.013-0.004,0.027-0.008,0.041-0.012l0.041-0.012c0.014-0.004,0.027-0.008,0.042-0.012c0.013-0.003,0.027-0.007,0.041-0.01
	c0.014-0.003,0.027-0.007,0.041-0.01l0.041-0.01c0.014-0.003,0.027-0.006,0.041-0.01c0.014-0.003,0.027-0.005,0.041-0.008
	c0.014-0.003,0.027-0.006,0.042-0.008c0.013-0.003,0.027-0.005,0.041-0.008s0.027-0.005,0.041-0.008
	c0.014-0.002,0.027-0.004,0.041-0.006c0.014-0.003,0.027-0.005,0.042-0.007l0.041-0.006l0.041-0.006l0.041-0.006l0.041-0.004
	l0.041-0.005l0.041-0.004c0.014-0.002,0.027-0.003,0.041-0.004s0.028-0.002,0.041-0.003l0.041-0.003l0.041-0.003l0.041-0.002
	l0.041-0.002c0.014-0.001,0.027-0.001,0.041-0.002s0.027-0.001,0.041-0.001l0.042-0.001l0.041,0l0.042-0.001h0.041
	c0.014,0,0.027,0,0.041,0l0.042,0.001l0.041,0l0.041,0.001l0.041,0.001l0.041,0.001l0.041,0.002l0.041,0.002l0.041,0.002
	l0.042,0.002l0.041,0.003l0.016,0.001l0.025,0.002l0.041,0.003l0.041,0.004l0.041,0.003l0.041,0.004l0.041,0.004l0.041,0.005
	l0.041,0.004l0.041,0.005l0.041,0.004l0.041,0.006l0.041,0.005l0.041,0.006l0.042,0.006l0.041,0.006l0.042,0.006l0.041,0.006
	l0.041,0.008l0.041,0.007l0.042,0.007l0.041,0.008l0.041,0.007l0.041,0.008l0.041,0.008l0.041,0.008l0.042,0.008l0.041,0.009
	l0.041,0.009l0.041,0.009l0.041,0.01l0.042,0.01l0.041,0.01l0.041,0.01l0.041,0.01l0.041,0.011l0.042,0.011l0.041,0.011l0.041,0.012
	l0.041,0.012l0.041,0.012l0.042,0.012l0.041,0.013l0.041,0.013l0.041,0.013l0.041,0.013l0.042,0.013l0.041,0.014l0.041,0.013
	l0.041,0.014l0.041,0.015l0.042,0.014l0.041,0.015l0.041,0.015l0.041,0.015l0.041,0.016l0.041,0.016l0.041,0.016l0.041,0.017
	l0.041,0.017l0.041,0.017l0.042,0.017l0.041,0.017l0.042,0.018l0.041,0.018l0.041,0.018l0.041,0.018l0.042,0.018l0.041,0.019
	l0.041,0.019l0.041,0.019l0.042,0.019l0.041,0.02l0.041,0.019l0.041,0.021l0.041,0.02l0.042,0.02l0.041,0.021l0.041,0.02
	l0.041,0.021v-1.8l-0.041-0.01l-0.041-0.01l-0.041-0.009l-0.042-0.01l-0.041-0.01l-0.041-0.009l-0.041-0.009l-0.041-0.009
	l-0.042-0.009l-0.041-0.009L35.612,28.1l-0.041-0.009l-0.042-0.008l-0.041-0.009l-0.041-0.008l-0.041-0.008l-0.042-0.009
	l-0.041-0.008l-0.042-0.008l-0.041-0.008l-0.041-0.008l-0.041-0.008l-0.041-0.009l-0.041-0.008l-0.041-0.007l-0.041-0.008
	l-0.041-0.007l-0.041-0.007l-0.042-0.008l-0.041-0.007l-0.041-0.007l-0.041-0.008l-0.041-0.007l-0.042-0.007l-0.041-0.007
	l-0.041-0.007l-0.041-0.007l-0.041-0.006l-0.042-0.006l-0.041-0.006l-0.041-0.007l-0.041-0.006l-0.041-0.006l-0.042-0.005
	l-0.041-0.007l-0.041-0.006l-0.041-0.006l-0.041-0.006l-0.042-0.005l-0.041-0.006l-0.041-0.005l-0.041-0.005l-0.041-0.005
	l-0.042-0.005l-0.041-0.005l-0.041-0.005l-0.041-0.005l-0.041-0.004l-0.041-0.005l-0.042-0.004l-0.041-0.005l-0.041-0.004
	l-0.041-0.004L33.44,27.75l-0.041-0.004l-0.042-0.003l-0.041-0.004l-0.041-0.003l-0.041-0.004l-0.041-0.004l-0.041-0.003
	l-0.041-0.003l-0.041-0.003l-0.041-0.003l-0.041-0.003l-0.041-0.002l-0.041-0.002l-0.041-0.003l-0.042-0.002L32.785,27.7
	l-0.042-0.002l-0.021-0.001l-0.02,0l-0.041-0.002l-0.041-0.002L32.58,27.69l-0.041-0.001l-0.041-0.001l-0.041-0.001l-0.042-0.001
	l-0.041-0.001l-0.041,0l-0.042-0.001l-0.041,0L32.21,27.68l-0.041-0.001l-0.041,0l-0.041-0.001l-0.041,0h-0.041l-0.041,0h-0.041
	l-0.041,0l-0.041,0h-0.041H31.76l-0.041,0h-0.041l-0.041,0l-0.042,0.001l-0.041,0l-0.041,0.001l-0.041,0.001l-0.042,0.001l-0.041,0
	l-0.041,0.001l-0.041,0.001l-0.041,0.001l-0.041,0.001l-0.042,0.002l-0.041,0.001l-0.041,0.002l-0.041,0.002l-0.041,0.002
	l-0.041,0.002l-0.041,0.002l-0.041,0.002l-0.041,0.003l-0.042,0.002l-0.041,0.003l-0.041,0.003l-0.041,0.002l-0.041,0.003
	l-0.042,0.003l-0.041,0.003l-0.041,0.004l-0.041,0.004l-0.041,0.004l-0.041,0.003l-0.041,0.005l-0.041,0.004l-0.041,0.005
	l-0.041,0.004l-0.042,0.005l-0.041,0.005l-0.041,0.005l-0.041,0.006l-0.041,0.005l-0.041,0.005L29.957,27.8l-0.041,0.005
	l-0.041,0.006l-0.041,0.007l-0.041,0.005l-0.041,0.007l-0.041,0.007l-0.042,0.007l-0.041,0.007l-0.042,0.007l-0.041,0.007
	l-0.041,0.008l-0.041,0.008l-0.042,0.008l-0.041,0.008l-0.041,0.008l-0.041,0.009l-0.041,0.009l-0.041,0.009l-0.042,0.009
	l-0.041,0.009l-0.041,0.01l-0.041,0.01l-0.041,0.01l-0.042,0.01L28.933,28l-0.041,0.011l-0.041,0.011l-0.042,0.011l-0.041,0.012
	l-0.041,0.012l-0.041,0.012l-0.041,0.012l-0.041,0.012l-0.042,0.013l-0.041,0.013c-0.013,0.004-0.027,0.009-0.041,0.013
	l-0.041,0.014c-0.014,0.005-0.028,0.009-0.041,0.014l-0.042,0.015l-0.041,0.014c-0.014,0.005-0.027,0.01-0.041,0.015
	c-0.013,0.005-0.027,0.01-0.041,0.015l-0.041,0.016c-0.014,0.005-0.028,0.01-0.041,0.016l-0.042,0.016l-0.041,0.016l-0.041,0.017
	l-0.041,0.017l-0.041,0.017l-0.041,0.018l-0.041,0.018l-0.041,0.019l-0.041,0.019c-0.014,0.006-0.027,0.013-0.042,0.019l-0.041,0.02
	l-0.042,0.021l-0.041,0.021c-0.014,0.007-0.027,0.014-0.041,0.021c-0.014,0.007-0.027,0.015-0.041,0.022l-0.041,0.022l-0.041,0.022
	c-0.014,0.008-0.027,0.016-0.041,0.023c-0.014,0.007-0.027,0.016-0.041,0.024c-0.014,0.008-0.027,0.016-0.041,0.024
	c-0.014,0.009-0.027,0.017-0.041,0.025c-0.014,0.008-0.027,0.017-0.041,0.025c-0.014,0.008-0.028,0.017-0.042,0.026l-0.041,0.027
	c-0.014,0.009-0.027,0.018-0.042,0.027l-0.041,0.028c-0.014,0.01-0.028,0.02-0.041,0.029c-0.014,0.01-0.028,0.02-0.041,0.029
	c-0.014,0.01-0.027,0.02-0.041,0.031c-0.014,0.01-0.027,0.02-0.041,0.031s-0.027,0.021-0.041,0.032
	c-0.014,0.011-0.028,0.022-0.041,0.033c-0.03,0.024-0.06,0.049-0.088,0.073v-5.567c0-0.296,0.03-0.585,0.088-0.864
	c0.012-0.06,0.025-0.12,0.041-0.178c0.013-0.051,0.027-0.101,0.041-0.151c0.013-0.044,0.026-0.088,0.041-0.132
	c0.013-0.04,0.026-0.08,0.041-0.119c0.013-0.037,0.027-0.073,0.041-0.109c0.013-0.034,0.027-0.067,0.041-0.101
	c0.013-0.032,0.027-0.063,0.041-0.094c0.014-0.03,0.027-0.059,0.042-0.088c0.013-0.028,0.026-0.056,0.041-0.083
	c0.014-0.026,0.027-0.053,0.042-0.079c0.013-0.025,0.027-0.05,0.041-0.075c0.014-0.024,0.027-0.048,0.041-0.072
	c0.014-0.023,0.027-0.046,0.041-0.069c0.013-0.022,0.027-0.044,0.041-0.066c0.014-0.021,0.027-0.042,0.041-0.063
	c0.013-0.021,0.027-0.041,0.041-0.062c0.014-0.019,0.027-0.039,0.041-0.059c0.013-0.019,0.027-0.038,0.041-0.056
	c0.014-0.018,0.027-0.037,0.041-0.055c0.013-0.019,0.027-0.036,0.041-0.054c0.014-0.017,0.027-0.034,0.042-0.051
	c0.013-0.017,0.027-0.034,0.041-0.05c0.014-0.016,0.027-0.032,0.042-0.048c0.013-0.016,0.027-0.031,0.041-0.047
	c0.014-0.015,0.027-0.03,0.041-0.045c0.013-0.015,0.027-0.03,0.041-0.044c0.014-0.014,0.027-0.029,0.041-0.043
	c0.014-0.014,0.027-0.028,0.041-0.042c0.014-0.014,0.027-0.027,0.041-0.041c0.014-0.014,0.027-0.027,0.041-0.041
	c0.013-0.013,0.027-0.025,0.041-0.038c0.014-0.013,0.027-0.025,0.042-0.038c0.013-0.012,0.027-0.024,0.041-0.037
	s0.027-0.024,0.041-0.036c0.013-0.012,0.027-0.023,0.041-0.035c0.014-0.012,0.027-0.023,0.041-0.034s0.027-0.022,0.041-0.033
	c0.014-0.011,0.027-0.022,0.042-0.033c0.013-0.01,0.027-0.021,0.041-0.031s0.027-0.021,0.041-0.031
	c0.013-0.01,0.027-0.02,0.041-0.03c0.014-0.009,0.028-0.02,0.041-0.029c0.014-0.009,0.027-0.019,0.042-0.028
	c0.014-0.01,0.027-0.019,0.041-0.028c0.013-0.009,0.027-0.018,0.041-0.027c0.013-0.009,0.027-0.018,0.041-0.026
	c0.014-0.009,0.027-0.018,0.041-0.026c0.014-0.009,0.027-0.017,0.041-0.025s0.027-0.016,0.042-0.024
	c0.013-0.008,0.027-0.017,0.041-0.024c0.014-0.008,0.027-0.015,0.041-0.022c0.014-0.008,0.027-0.016,0.041-0.023
	c0.014-0.007,0.027-0.015,0.042-0.021c0.013-0.007,0.027-0.015,0.041-0.021l0.041-0.021l0.041-0.021
	c0.014-0.007,0.027-0.013,0.041-0.02c0.014-0.007,0.027-0.013,0.042-0.02c0.014-0.006,0.027-0.013,0.041-0.019
	c0.013-0.006,0.027-0.012,0.041-0.018c0.014-0.006,0.028-0.012,0.041-0.018c0.014-0.006,0.027-0.011,0.041-0.017l0.041-0.017
	c0.014-0.005,0.027-0.011,0.042-0.016c0.013-0.005,0.027-0.011,0.041-0.016c0.014-0.005,0.027-0.011,0.041-0.015
	c0.014-0.005,0.027-0.01,0.041-0.015c0.014-0.005,0.027-0.01,0.042-0.015c0.013-0.004,0.027-0.009,0.041-0.014l0.042-0.014
	c0.013-0.004,0.027-0.009,0.041-0.012c0.014-0.005,0.027-0.009,0.041-0.013s0.027-0.008,0.041-0.012s0.027-0.007,0.041-0.011
	l0.041-0.012c0.014-0.003,0.027-0.007,0.041-0.01c0.014-0.003,0.027-0.007,0.041-0.01c0.014-0.003,0.027-0.007,0.041-0.01
	s0.027-0.006,0.041-0.009l0.041-0.009c0.014-0.003,0.027-0.006,0.041-0.008c0.014-0.003,0.027-0.005,0.041-0.008
	c0.014-0.002,0.027-0.005,0.042-0.008l0.041-0.007l0.041-0.007c0.014-0.002,0.027-0.005,0.041-0.007
	c0.014-0.001,0.027-0.003,0.041-0.005s0.027-0.004,0.041-0.006l0.041-0.005l0.041-0.004c0.013-0.002,0.027-0.003,0.041-0.005
	c0.014-0.001,0.027-0.002,0.041-0.003l0.042-0.004c0.014-0.001,0.027-0.002,0.041-0.003c0.013-0.001,0.027-0.002,0.041-0.003
	c0.014,0,0.027-0.002,0.041-0.002c0.014-0.001,0.028-0.001,0.041-0.002l0.042-0.001c0.013,0,0.027-0.001,0.041-0.002
	c0.014,0,0.027,0,0.041,0s0.027,0,0.041,0l0.018,0h0.023h0.041h0.041h0.041h0.041h0.042h0.041h0.041h0.041h0.041h0.041h0.042h0.041
	h0.041h0.041h0.042h0.041h0.041h0.041h0.041h0.041h0.041h0.041h0.041h0.041h0.041h0.041h0.041h0.041h0.041h0.042h0.041h0.042h0.041
	h0.041h0.042h0.041h0.041h0.041h0.041h0.041h0.041h0.041h0.042h0.041h0.042h0.041h0.041h0.041h0.041h0.041h0.041h0.041h0.041h0.041
	h0.041h0.041h0.041h0.042h0.041h0.042h0.041h0.041h0.041h0.042h0.041h0.041h0.041h0.041h0.041h0.042h0.041h0.041h0.041h0.041h0.042
	h0.041h0.041h0.041h0.041h0.042h0.041h0.041h0.041h0.041h0.042h0.041h0.041h0.041h0.041h0.042h0.041h0.041h0.041h0.041h0.042h0.041
	h0.041h0.041h0.041h0.041h0.041h0.041h0.041h0.041h0.042h0.041h0.042h0.041h0.041h0.041h0.042h0.041h0.041h0.041h0.042h0.041h0.041
	h0.041h0.041h0.042h0.041h0.041h0.041h0.042h0.041h0.041h0.041h0.041h0.041h0.041h0.041h0.041h0.041h0.042h0.041h0.041h0.041h0.041
	h0.041h0.042H36.8h0.041h0.041h0.041h0.042h0.041h0.041h0.041h0.041h0.042h0.041h0.035V40.506z M49.011,40.506
	c0,0.126-0.006,0.252-0.017,0.376c-0.01,0.109-0.023,0.217-0.041,0.324c-0.013,0.072-0.026,0.143-0.042,0.213
	c-0.013,0.058-0.026,0.114-0.041,0.171c-0.013,0.048-0.027,0.097-0.041,0.145c-0.013,0.043-0.027,0.087-0.041,0.129
	c-0.013,0.039-0.027,0.078-0.041,0.116c-0.014,0.036-0.027,0.071-0.041,0.106c-0.014,0.033-0.027,0.066-0.042,0.099
	c-0.013,0.031-0.026,0.062-0.041,0.092c-0.013,0.029-0.027,0.059-0.041,0.086c-0.013,0.028-0.027,0.056-0.041,0.083
	c-0.014,0.026-0.027,0.052-0.042,0.077c-0.014,0.025-0.027,0.05-0.041,0.074c-0.014,0.024-0.027,0.047-0.041,0.071
	c-0.013,0.023-0.027,0.045-0.041,0.068c-0.013,0.022-0.027,0.043-0.041,0.065c-0.014,0.021-0.027,0.042-0.041,0.063
	c-0.014,0.02-0.027,0.04-0.041,0.06c-0.014,0.019-0.027,0.039-0.041,0.059c-0.014,0.019-0.027,0.037-0.042,0.056
	c-0.013,0.019-0.027,0.036-0.041,0.054c-0.014,0.018-0.027,0.036-0.041,0.053s-0.027,0.035-0.041,0.051
	c-0.014,0.016-0.027,0.033-0.042,0.049c-0.013,0.016-0.027,0.032-0.041,0.048c-0.013,0.016-0.027,0.031-0.041,0.047
	c-0.013,0.015-0.027,0.03-0.041,0.045c-0.014,0.015-0.027,0.029-0.042,0.043c-0.014,0.015-0.027,0.028-0.041,0.042
	s-0.027,0.028-0.041,0.042c-0.013,0.013-0.028,0.026-0.041,0.04c-0.014,0.013-0.027,0.026-0.041,0.039
	c-0.014,0.013-0.027,0.026-0.041,0.039c-0.014,0.012-0.027,0.025-0.042,0.037c-0.013,0.013-0.027,0.025-0.041,0.037
	c-0.013,0.012-0.027,0.023-0.041,0.035c-0.013,0.012-0.027,0.023-0.041,0.035c-0.014,0.011-0.027,0.022-0.041,0.033
	s-0.027,0.022-0.042,0.033c-0.014,0.011-0.027,0.021-0.041,0.032c-0.013,0.01-0.027,0.021-0.041,0.032
	c-0.014,0.01-0.028,0.02-0.042,0.03c-0.014,0.01-0.027,0.021-0.041,0.03c-0.014,0.009-0.027,0.019-0.042,0.028
	c-0.014,0.01-0.027,0.02-0.041,0.029s-0.027,0.018-0.041,0.027s-0.027,0.018-0.041,0.027c-0.014,0.009-0.027,0.017-0.041,0.025
	c-0.014,0.009-0.027,0.018-0.041,0.026s-0.027,0.017-0.042,0.025L46.9,44.18c-0.014,0.008-0.028,0.016-0.042,0.023
	c-0.013,0.008-0.027,0.016-0.041,0.023c-0.014,0.007-0.027,0.015-0.042,0.022c-0.014,0.007-0.027,0.014-0.041,0.021
	c-0.014,0.007-0.027,0.014-0.041,0.022c-0.013,0.007-0.027,0.014-0.041,0.021c-0.014,0.006-0.027,0.014-0.041,0.021
	c-0.014,0.006-0.027,0.013-0.041,0.019l-0.042,0.02l-0.041,0.019c-0.014,0.006-0.027,0.012-0.041,0.018s-0.028,0.012-0.041,0.018
	c-0.014,0.006-0.027,0.011-0.041,0.017c-0.014,0.006-0.027,0.012-0.042,0.017c-0.013,0.005-0.027,0.011-0.041,0.016
	c-0.013,0.005-0.027,0.011-0.041,0.016l-0.041,0.015c-0.014,0.005-0.027,0.01-0.041,0.015c-0.014,0.004-0.027,0.01-0.042,0.014
	c-0.014,0.005-0.027,0.009-0.041,0.014l-0.041,0.013c-0.014,0.004-0.028,0.008-0.042,0.012l-0.041,0.012
	c-0.014,0.005-0.028,0.008-0.042,0.012s-0.027,0.007-0.041,0.011c-0.014,0.004-0.027,0.008-0.041,0.011l-0.041,0.011l-0.041,0.01
	l-0.041,0.01c-0.014,0.003-0.027,0.006-0.042,0.009c-0.013,0.003-0.027,0.006-0.041,0.009l-0.042,0.008l-0.041,0.009
	c-0.014,0.002-0.027,0.005-0.041,0.008c-0.014,0.002-0.028,0.004-0.042,0.006l-0.041,0.006l-0.041,0.006l-0.041,0.006
	c-0.014,0.001-0.028,0.003-0.041,0.005c-0.014,0.002-0.027,0.003-0.042,0.004c-0.014,0.001-0.027,0.003-0.041,0.005
	c-0.014,0.001-0.027,0.002-0.041,0.003c-0.013,0.001-0.027,0.003-0.041,0.004c-0.014,0.001-0.027,0.003-0.041,0.004
	s-0.027,0.001-0.041,0.003l-0.042,0.002c-0.013,0.001-0.027,0.002-0.041,0.002c-0.014,0.001-0.027,0.001-0.042,0.001l-0.041,0.001
	l-0.042,0.001c-0.013,0-0.027,0-0.041,0l-0.041,0.001h-0.008h-0.032h-0.042h-0.041h-0.041h-0.041H44.52h-0.041h-0.041h-0.042h-0.041
	h-0.041h-0.041h-0.041h-0.042H44.15h-0.041h-0.041h-0.041h-0.041h-0.042h-0.041h-0.041h-0.041H43.78H43.74h-0.042h-0.041h-0.041
	h-0.042h-0.041h-0.041h-0.041h-0.041H43.37h-0.041h-0.041h-0.041h-0.041h-0.041h-0.041h-0.041h-0.041h-0.041H42.96h-0.042h-0.041
	h-0.041h-0.041h-0.041h-0.042h-0.041h-0.041H42.59h-0.041h-0.042h-0.041h-0.042h-0.041h-0.041h-0.042h-0.041h-0.041H42.18h-0.041
	h-0.042h-0.041h-0.041h-0.041h-0.041h-0.041h-0.042h-0.041H41.77h-0.041h-0.041h-0.042h-0.041h-0.041h-0.042h-0.041H41.44H41.4
	h-0.042h-0.041h-0.041h-0.041h-0.042h-0.041h-0.041h-0.041H41.03h-0.041h-0.041h-0.041h-0.041h-0.041h-0.042h-0.041h-0.041h-0.041
	H40.62h-0.042h-0.041h-0.041h-0.042h-0.041h-0.042h-0.041h-0.041H40.25h-0.041h-0.041h-0.041h-0.041h-0.041h-0.041h-0.042h-0.041
	h-0.041H39.84h-0.041h-0.042h-0.041h-0.041h-0.041h-0.041h-0.042h-0.041h-0.041H39.43h-0.041h-0.041h-0.041h-0.042h-0.041h-0.041
	h-0.041h-0.042H39.06h-0.041h-0.041h-0.042h-0.041h-0.041h-0.041h-0.041h-0.041H38.69H38.65h-0.042h-0.088v-8.67h0.088h0.042h0.041
	h0.042h0.041h0.041h0.041h0.041h0.041h0.042h0.041h0.041h0.041h0.042h0.041h0.041h0.041h0.042h0.041h0.041h0.041h0.041h0.041h0.041
	h0.042h0.041h0.041h0.041h0.041h0.042h0.041h0.042h0.041h0.041h0.042h0.041h0.041h0.041h0.041h0.041h0.041h0.041h0.041h0.041h0.042
	h0.041h0.042h0.041h0.041h0.042h0.041h0.041h0.041h0.041h0.042h0.041h0.041h0.041h0.041h0.041h0.042h0.041h0.041h0.041h0.042h0.041
	h0.041h0.041H41.4h0.041h0.042h0.041h0.042h0.041h0.041h0.042h0.041h0.041h0.041h0.041h0.042h0.041h0.041h0.041h0.041h0.041h0.042
	h0.041h0.042h0.041h0.041h0.042h0.041h0.041h0.042h0.041h0.042h0.041h0.041h0.041h0.041h0.042h0.041h0.041h0.041h0.041h0.042h0.041
	h0.041h0.041h0.041h0.041h0.041h0.041h0.041h0.041h0.041h0.041h0.041h0.041h0.041h0.041h0.042h0.041h0.041h0.042h0.041h0.042h0.041
	h0.041h0.041h0.042h0.041h0.041h0.041h0.041h0.041h0.042h0.041h0.041h0.041h0.041h0.042h0.041h0.041h0.041h0.041h0.041h0.041h0.042
	h0.041h0.041h0.041h0.042h0.041h0.042h0.041h0.042h0.041h0.021l0.02,0h0.041l0.041-0.001c0.014,0,0.027,0,0.041-0.001
	c0.014,0,0.027-0.001,0.042-0.002l0.041-0.002l0.041-0.002l0.041-0.002l0.041-0.003l0.042-0.004
	c0.014-0.001,0.027-0.002,0.041-0.004c0.014-0.001,0.027-0.003,0.041-0.004l0.042-0.005c0.014-0.002,0.027-0.003,0.041-0.005
	c0.015-0.002,0.027-0.004,0.042-0.006c0.014-0.002,0.027-0.004,0.041-0.006l0.041-0.007l0.041-0.007
	c0.014-0.003,0.027-0.005,0.041-0.008c0.014-0.002,0.027-0.006,0.041-0.008L45.957,36c0.013-0.003,0.027-0.006,0.041-0.009
	c0.014-0.003,0.028-0.007,0.042-0.011c0.013-0.003,0.027-0.006,0.041-0.01c0.014-0.003,0.027-0.007,0.041-0.011
	c0.014-0.003,0.027-0.008,0.042-0.011c0.014-0.004,0.027-0.008,0.041-0.013l0.041-0.012c0.013-0.005,0.027-0.009,0.041-0.014
	c0.014-0.005,0.028-0.009,0.041-0.014c0.014-0.005,0.028-0.01,0.042-0.015c0.014-0.005,0.027-0.01,0.041-0.015
	c0.013-0.006,0.027-0.011,0.041-0.017c0.014-0.006,0.027-0.011,0.041-0.017c0.014-0.005,0.027-0.011,0.041-0.018
	c0.014-0.006,0.027-0.012,0.042-0.018c0.013-0.007,0.027-0.013,0.041-0.02c0.014-0.006,0.027-0.013,0.041-0.02
	s0.028-0.014,0.041-0.021c0.014-0.007,0.027-0.015,0.041-0.022c0.014-0.007,0.028-0.015,0.041-0.023
	c0.014-0.007,0.027-0.016,0.042-0.023c0.013-0.008,0.027-0.017,0.041-0.025c0.014-0.008,0.028-0.017,0.042-0.026
	c0.014-0.009,0.027-0.018,0.041-0.027c0.015-0.009,0.028-0.019,0.042-0.028c0.014-0.01,0.027-0.02,0.041-0.03
	s0.027-0.021,0.041-0.032c0.014-0.01,0.028-0.021,0.041-0.033c0.014-0.011,0.027-0.022,0.041-0.034
	c0.014-0.012,0.028-0.024,0.041-0.036c0.014-0.013,0.027-0.025,0.042-0.038c0.013-0.014,0.027-0.026,0.041-0.04
	c0.014-0.015,0.028-0.028,0.042-0.043c0.013-0.015,0.027-0.03,0.041-0.045c0.014-0.016,0.028-0.032,0.041-0.048
	c0.014-0.017,0.028-0.034,0.042-0.052c0.014-0.019,0.027-0.037,0.041-0.056c0.014-0.02,0.028-0.04,0.041-0.06
	c0.015-0.021,0.028-0.044,0.041-0.065c0.015-0.023,0.028-0.048,0.041-0.073c0.015-0.026,0.028-0.053,0.042-0.081
	c0.015-0.031,0.028-0.062,0.041-0.093c0.015-0.036,0.029-0.073,0.041-0.11c0.015-0.046,0.029-0.093,0.041-0.14
	c0.018-0.07,0.031-0.142,0.041-0.214c0.012-0.089,0.018-0.18,0.018-0.274c0-0.091-0.006-0.18-0.018-0.266
	c-0.01-0.07-0.023-0.139-0.041-0.207c-0.012-0.046-0.026-0.091-0.041-0.135c-0.012-0.036-0.026-0.071-0.041-0.106
	c-0.013-0.031-0.027-0.06-0.041-0.09c-0.013-0.026-0.027-0.053-0.042-0.079c-0.013-0.023-0.026-0.046-0.041-0.069
	c-0.013-0.021-0.026-0.042-0.041-0.063c-0.013-0.02-0.027-0.04-0.041-0.058c-0.014-0.018-0.027-0.036-0.041-0.054
	c-0.014-0.017-0.027-0.033-0.042-0.049c-0.013-0.016-0.026-0.032-0.041-0.047c-0.013-0.015-0.027-0.029-0.041-0.044
	c-0.014-0.013-0.027-0.027-0.042-0.041c-0.014-0.013-0.027-0.026-0.041-0.039c-0.014-0.012-0.027-0.024-0.042-0.037
	c-0.013-0.012-0.027-0.023-0.041-0.035c-0.014-0.012-0.027-0.022-0.041-0.034c-0.013-0.01-0.027-0.021-0.041-0.031
	s-0.027-0.021-0.041-0.03c-0.014-0.01-0.027-0.02-0.041-0.029s-0.027-0.019-0.042-0.028c-0.013-0.009-0.027-0.018-0.041-0.026
	c-0.014-0.008-0.027-0.017-0.042-0.025c-0.013-0.008-0.027-0.016-0.041-0.024c-0.014-0.008-0.027-0.015-0.042-0.023
	c-0.013-0.008-0.027-0.015-0.041-0.022c-0.014-0.007-0.027-0.014-0.041-0.021c-0.013-0.008-0.027-0.014-0.041-0.021
	c-0.014-0.006-0.027-0.013-0.041-0.02c-0.014-0.006-0.027-0.013-0.041-0.019c-0.014-0.006-0.027-0.012-0.042-0.018
	c-0.014-0.005-0.027-0.011-0.041-0.017s-0.027-0.011-0.041-0.017c-0.014-0.005-0.028-0.01-0.041-0.016
	c-0.014-0.005-0.027-0.01-0.041-0.015c-0.014-0.004-0.027-0.01-0.042-0.014c-0.013-0.005-0.027-0.009-0.041-0.014
	c-0.013-0.004-0.027-0.009-0.041-0.013c-0.014-0.004-0.028-0.009-0.041-0.013l-0.041-0.012c-0.014-0.004-0.027-0.008-0.042-0.012
	c-0.014-0.003-0.027-0.007-0.041-0.011c-0.014-0.003-0.027-0.007-0.041-0.01c-0.014-0.003-0.028-0.007-0.042-0.01
	c-0.014-0.004-0.027-0.006-0.041-0.009c-0.014-0.004-0.028-0.006-0.042-0.009c-0.014-0.003-0.027-0.005-0.041-0.008l-0.041-0.008
	l-0.041-0.007c-0.014-0.002-0.027-0.005-0.041-0.007l-0.041-0.007c-0.014-0.002-0.027-0.003-0.042-0.006l-0.041-0.005l-0.042-0.005
	l-0.041-0.004l-0.041-0.004l-0.042-0.004l-0.041-0.003l-0.038-0.003v-0.049l0.038-0.005l0.041-0.007
	c0.014-0.002,0.028-0.004,0.042-0.007l0.041-0.008c0.014-0.003,0.027-0.006,0.041-0.009l0.042-0.009
	c0.014-0.003,0.027-0.006,0.041-0.009c0.015-0.004,0.028-0.007,0.042-0.01c0.014-0.004,0.027-0.007,0.041-0.011
	c0.014-0.003,0.027-0.007,0.041-0.012c0.014-0.004,0.028-0.007,0.041-0.012c0.014-0.004,0.027-0.008,0.041-0.013
	c0.014-0.004,0.027-0.009,0.041-0.014c0.014-0.005,0.027-0.009,0.042-0.014c0.013-0.005,0.027-0.01,0.041-0.015
	c0.014-0.005,0.028-0.01,0.042-0.016c0.013-0.005,0.027-0.011,0.041-0.017c0.014-0.006,0.028-0.012,0.041-0.018
	c0.014-0.006,0.027-0.012,0.042-0.018c0.014-0.006,0.027-0.013,0.041-0.02c0.014-0.007,0.027-0.013,0.041-0.021
	c0.013-0.007,0.027-0.014,0.041-0.021c0.014-0.007,0.028-0.015,0.041-0.022c0.014-0.007,0.028-0.015,0.042-0.023
	c0.014-0.008,0.027-0.016,0.041-0.024c0.014-0.009,0.028-0.017,0.041-0.026c0.014-0.009,0.027-0.018,0.041-0.027
	c0.014-0.009,0.028-0.019,0.041-0.028c0.014-0.01,0.027-0.02,0.042-0.03c0.013-0.011,0.027-0.021,0.041-0.032
	c0.014-0.011,0.028-0.022,0.041-0.033c0.014-0.012,0.028-0.023,0.041-0.036c0.014-0.012,0.028-0.024,0.041-0.037
	c0.014-0.013,0.028-0.026,0.041-0.04c0.014-0.014,0.027-0.027,0.042-0.042c0.014-0.015,0.027-0.03,0.041-0.045
	c0.014-0.016,0.028-0.031,0.042-0.047c0.014-0.017,0.028-0.034,0.041-0.051c0.015-0.018,0.028-0.037,0.042-0.055
	c0.014-0.02,0.028-0.04,0.041-0.06c0.014-0.021,0.027-0.043,0.041-0.065c0.014-0.024,0.028-0.048,0.041-0.072
	c0.014-0.027,0.028-0.054,0.041-0.082c0.015-0.031,0.028-0.063,0.041-0.094c0.015-0.038,0.029-0.074,0.042-0.112
	c0.015-0.047,0.029-0.096,0.041-0.145c0.019-0.08,0.033-0.161,0.042-0.243c0.006-0.065,0.01-0.131,0.01-0.198
	c0-0.07-0.004-0.139-0.01-0.206c-0.009-0.085-0.022-0.168-0.042-0.248c-0.012-0.05-0.025-0.099-0.041-0.146
	c-0.013-0.038-0.026-0.075-0.042-0.112c-0.013-0.032-0.026-0.063-0.041-0.093c-0.013-0.027-0.027-0.054-0.041-0.08
	c-0.013-0.024-0.027-0.047-0.041-0.07c-0.014-0.022-0.027-0.043-0.041-0.064c-0.013-0.02-0.027-0.039-0.041-0.058
	c-0.014-0.018-0.027-0.036-0.042-0.053c-0.013-0.017-0.027-0.033-0.041-0.049c-0.014-0.016-0.027-0.03-0.042-0.046
	c-0.013-0.014-0.027-0.028-0.041-0.043c-0.014-0.014-0.027-0.027-0.042-0.04c-0.013-0.013-0.027-0.026-0.041-0.038
	c-0.013-0.012-0.027-0.024-0.041-0.036c-0.013-0.012-0.027-0.023-0.041-0.034c-0.014-0.011-0.027-0.022-0.041-0.033
	c-0.014-0.01-0.027-0.02-0.041-0.03c-0.014-0.01-0.027-0.02-0.042-0.029c-0.013-0.009-0.027-0.018-0.041-0.027
	c-0.014-0.009-0.027-0.018-0.041-0.026c-0.013-0.008-0.028-0.017-0.041-0.025c-0.014-0.008-0.027-0.016-0.041-0.024
	c-0.014-0.007-0.027-0.015-0.042-0.022c-0.013-0.007-0.027-0.014-0.041-0.021c-0.013-0.007-0.027-0.014-0.041-0.021
	c-0.014-0.006-0.027-0.014-0.041-0.02c-0.014-0.006-0.027-0.012-0.041-0.019c-0.014-0.006-0.027-0.011-0.042-0.017
	c-0.013-0.006-0.027-0.012-0.041-0.018c-0.014-0.005-0.027-0.011-0.041-0.017c-0.014-0.005-0.028-0.01-0.042-0.015
	c-0.014-0.005-0.027-0.01-0.041-0.015c-0.014-0.005-0.028-0.01-0.042-0.014c-0.014-0.005-0.027-0.009-0.041-0.014
	c-0.014-0.004-0.027-0.008-0.041-0.012c-0.013-0.005-0.027-0.008-0.041-0.013c-0.014-0.004-0.027-0.008-0.041-0.012
	c-0.014-0.003-0.027-0.007-0.041-0.01l-0.042-0.011c-0.013-0.003-0.027-0.007-0.041-0.01c-0.014-0.002-0.027-0.006-0.042-0.009
	l-0.041-0.008c-0.014-0.002-0.027-0.006-0.041-0.008c-0.014-0.003-0.028-0.005-0.042-0.008l-0.041-0.007
	c-0.013-0.003-0.027-0.005-0.041-0.007l-0.041-0.006L45.3,27.959l-0.042-0.005l-0.041-0.005l-0.041-0.004l-0.041-0.005l-0.041-0.003
	l-0.041-0.003l-0.042-0.003l-0.041-0.002l-0.016-0.001l-0.025-0.002l-0.041-0.002l-0.042-0.002l-0.041-0.002l-0.041-0.002
	l-0.041-0.002l-0.042-0.001l-0.041-0.001l-0.041-0.001l-0.041,0h-0.022H44.52h-0.041h-0.041h-0.042h-0.041h-0.041h-0.041h-0.041
	h-0.042H44.15h-0.041h-0.041h-0.041h-0.041h-0.042h-0.041h-0.041h-0.041H43.78H43.74h-0.042h-0.041h-0.041h-0.042h-0.041h-0.041
	h-0.041h-0.041H43.37h-0.041h-0.041h-0.041h-0.041h-0.041h-0.041h-0.041h-0.041h-0.041H42.96h-0.042h-0.041h-0.041h-0.041h-0.041
	h-0.042h-0.041h-0.041H42.59H42.55h-0.042h-0.041h-0.042h-0.041h-0.041h-0.042h-0.041h-0.041H42.18h-0.041h-0.042h-0.041h-0.041
	h-0.041h-0.041h-0.041h-0.042h-0.041H41.77h-0.041h-0.041h-0.042h-0.041h-0.041h-0.042h-0.041H41.44H41.4h-0.042h-0.041h-0.041
	h-0.041h-0.042h-0.041h-0.041h-0.041H41.03h-0.041h-0.041h-0.041h-0.041h-0.041h-0.042h-0.041h-0.041h-0.041H40.62h-0.042h-0.041
	h-0.041h-0.042h-0.041h-0.042h-0.041h-0.041H40.25h-0.041h-0.041h-0.041h-0.041h-0.041h-0.041h-0.042h-0.041h-0.041H39.84h-0.041
	h-0.042h-0.041h-0.041h-0.041h-0.041h-0.042h-0.041h-0.041H39.43h-0.041h-0.041h-0.041h-0.042h-0.041h-0.041h-0.041h-0.042H39.06
	h-0.041h-0.041h-0.042h-0.041h-0.041h-0.041h-0.041h-0.041H38.69H38.65h-0.042h-0.088v-4.416c0-0.297,0.03-0.587,0.088-0.867
	c0.013-0.06,0.026-0.12,0.042-0.179c0.013-0.05,0.026-0.101,0.041-0.15c0.013-0.044,0.027-0.089,0.042-0.132
	c0.013-0.04,0.027-0.08,0.041-0.12c0.013-0.036,0.027-0.073,0.041-0.109c0.013-0.034,0.027-0.067,0.041-0.101
	c0.014-0.031,0.027-0.063,0.041-0.094c0.013-0.03,0.027-0.059,0.041-0.088c0.014-0.028,0.027-0.055,0.042-0.083
	c0.013-0.026,0.027-0.053,0.041-0.079c0.014-0.025,0.027-0.05,0.041-0.075c0.014-0.024,0.027-0.048,0.041-0.072
	c0.014-0.022,0.027-0.045,0.042-0.068c0.013-0.022,0.027-0.044,0.041-0.066c0.013-0.021,0.027-0.042,0.041-0.063
	c0.013-0.02,0.027-0.041,0.041-0.061c0.014-0.02,0.027-0.04,0.042-0.059c0.013-0.019,0.027-0.038,0.041-0.057
	c0.014-0.019,0.027-0.037,0.041-0.054c0.013-0.018,0.027-0.036,0.041-0.054c0.014-0.017,0.027-0.034,0.041-0.051
	c0.014-0.017,0.027-0.033,0.041-0.049c0.014-0.017,0.027-0.033,0.041-0.049s0.027-0.031,0.042-0.046
	c0.013-0.016,0.027-0.031,0.041-0.046c0.013-0.015,0.027-0.029,0.041-0.044c0.014-0.014,0.027-0.028,0.041-0.043
	c0.014-0.014,0.027-0.028,0.041-0.042c0.014-0.014,0.027-0.027,0.042-0.041c0.013-0.014,0.027-0.027,0.041-0.04
	s0.028-0.025,0.042-0.038c0.013-0.013,0.027-0.025,0.041-0.038c0.014-0.012,0.027-0.024,0.041-0.036
	c0.014-0.012,0.028-0.024,0.042-0.036c0.014-0.012,0.027-0.023,0.041-0.035c0.014-0.012,0.027-0.022,0.041-0.034
	c0.013-0.011,0.027-0.022,0.041-0.033l0.041-0.032l0.041-0.032c0.014-0.01,0.027-0.02,0.041-0.03s0.028-0.021,0.041-0.03
	l0.041-0.029c0.014-0.01,0.027-0.02,0.041-0.029l0.042-0.028l0.041-0.026c0.014-0.009,0.028-0.018,0.042-0.027l0.041-0.026
	c0.014-0.008,0.027-0.017,0.041-0.025c0.014-0.008,0.028-0.016,0.042-0.024s0.027-0.017,0.041-0.024
	c0.013-0.007,0.027-0.015,0.041-0.023s0.027-0.015,0.041-0.022s0.027-0.015,0.041-0.022c0.014-0.007,0.027-0.015,0.042-0.021
	c0.014-0.007,0.027-0.014,0.041-0.021s0.027-0.014,0.041-0.021l0.041-0.02c0.014-0.007,0.027-0.013,0.041-0.02
	c0.014-0.006,0.027-0.013,0.041-0.019c0.014-0.006,0.027-0.012,0.042-0.018c0.013-0.006,0.027-0.012,0.041-0.018
	c0.013-0.006,0.027-0.011,0.041-0.017c0.013-0.006,0.027-0.012,0.041-0.017l0.042-0.016l0.041-0.016
	c0.014-0.005,0.027-0.01,0.041-0.015c0.013-0.004,0.028-0.01,0.041-0.014c0.014-0.005,0.028-0.01,0.042-0.015
	s0.027-0.009,0.041-0.014l0.042-0.013c0.013-0.004,0.027-0.009,0.041-0.013c0.014-0.004,0.027-0.008,0.042-0.012
	c0.013-0.004,0.027-0.008,0.041-0.012c0.014-0.004,0.027-0.008,0.041-0.012c0.014-0.003,0.027-0.007,0.042-0.011l0.041-0.011
	c0.013-0.003,0.027-0.006,0.041-0.01c0.014-0.003,0.027-0.007,0.041-0.01c0.014-0.002,0.027-0.006,0.041-0.009l0.042-0.009
	l0.041-0.008c0.014-0.002,0.027-0.005,0.041-0.008c0.013-0.002,0.027-0.005,0.041-0.008c0.014-0.002,0.027-0.004,0.041-0.006
	l0.041-0.007c0.014-0.002,0.027-0.005,0.042-0.006c0.013-0.002,0.027-0.004,0.041-0.006s0.027-0.003,0.042-0.005
	c0.013-0.002,0.027-0.004,0.041-0.005l0.041-0.004c0.014-0.001,0.027-0.003,0.042-0.004c0.014-0.001,0.027-0.002,0.041-0.004
	l0.041-0.004l0.042-0.002c0.014-0.001,0.027-0.002,0.041-0.003c0.014,0,0.027-0.002,0.042-0.002
	c0.013-0.001,0.027-0.001,0.041-0.001l0.041-0.001c0.014,0,0.027-0.001,0.041-0.002c0.014,0,0.027,0,0.041,0
	c0.014,0,0.027,0,0.042,0l0.01,0h0.031h0.041h0.041h0.041h0.042h0.041h0.041h0.041h0.041h0.041h0.041h0.041h0.041h0.041h0.041h0.041
	h0.041h0.041h0.041h0.041h0.042h0.041h0.041h0.042h0.041h0.042h0.041h0.041h0.041h0.042h0.041h0.041h0.041h0.041h0.041h0.042h0.041
	h0.041h0.041h0.041h0.042h0.041h0.041h0.041h0.041h0.041h0.041h0.042h0.041h0.041h0.041h0.042h0.041h0.042h0.041h0.042h0.041h0.041
	h0.041h0.041h0.041H45.3h0.041h0.041h0.041h0.041h0.042h0.041h0.041h0.042h0.041h0.042h0.041h0.041h0.041h0.041h0.041h0.042h0.041
	h0.042h0.041h0.041h0.042h0.041h0.041h0.041h0.041h0.042h0.041h0.041h0.041h0.041h0.042h0.041h0.041h0.041h0.041h0.041h0.042h0.041
	H46.9h0.041h0.042h0.041h0.041h0.041h0.041h0.041h0.042h0.041h0.042h0.041h0.041h0.042h0.041h0.041h0.041h0.041h0.042h0.041h0.041
	h0.041h0.041h0.041h0.042h0.041h0.041h0.041h0.042h0.041h0.041h0.041h0.042h0.041h0.041h0.041h0.041h0.041h0.041h0.041h0.042h0.041
	h0.041h0.041h0.042h0.041h0.041h0.041h0.041h0.041h0.042h0.041h0.017V40.506z M40.62,32.517h0.042h0.041h0.041h0.041h0.042h0.041
	h0.042h0.041h0.041h0.042h0.041h0.041h0.042h0.041h0.041h0.042h0.041h0.041H41.4h0.041h0.042h0.041h0.041h0.041h0.041h0.041h0.042
	h0.041h0.041h0.041h0.041h0.042h0.041h0.041h0.041h0.041h0.042h0.041h0.041h0.041h0.041h0.042h0.041h0.041h0.041h0.041h0.042h0.041
	h0.041h0.041h0.041h0.042h0.041h0.041h0.041h0.041h0.042h0.041h0.041h0.034h0.007c0.013,0.001,0.026,0.001,0.041,0.002
	c0.013,0.001,0.027,0.002,0.041,0.003c0.014,0.001,0.027,0.002,0.041,0.004c0.014,0,0.027,0.002,0.041,0.003
	c0.014,0.002,0.028,0.004,0.041,0.005c0.015,0.002,0.029,0.004,0.041,0.006c0.009,0.001,0.017,0.003,0.024,0.004l0.017,0.004
	c0.014,0.003,0.027,0.006,0.042,0.01c0.013,0.003,0.027,0.008,0.041,0.012c0.014,0.005,0.028,0.009,0.041,0.014
	c0.014,0.005,0.028,0.01,0.041,0.016c0.014,0.006,0.027,0.012,0.041,0.018c0.014,0.006,0.027,0.013,0.042,0.019
	c0.014,0.007,0.027,0.015,0.041,0.022c0.013,0.008,0.028,0.016,0.041,0.024c0.014,0.008,0.028,0.018,0.041,0.027
	c0.014,0.009,0.028,0.019,0.041,0.029c0.015,0.01,0.028,0.021,0.042,0.032c0.014,0.012,0.027,0.024,0.041,0.036
	c0.014,0.013,0.028,0.026,0.042,0.04c0.014,0.014,0.028,0.029,0.041,0.044c0.015,0.016,0.028,0.033,0.042,0.05
	C44,32.961,44.014,32.98,44.027,33c0.015,0.021,0.028,0.043,0.041,0.065c0.015,0.025,0.028,0.051,0.041,0.077
	c0.015,0.032,0.029,0.064,0.041,0.097c0.017,0.045,0.03,0.091,0.041,0.139c0.019,0.083,0.029,0.17,0.029,0.261
	c0,0.091-0.01,0.179-0.029,0.262c-0.011,0.048-0.024,0.094-0.041,0.139c-0.012,0.033-0.026,0.065-0.041,0.098
	c-0.013,0.026-0.026,0.052-0.041,0.077c-0.013,0.022-0.026,0.044-0.041,0.065c-0.013,0.019-0.027,0.038-0.041,0.056
	c-0.014,0.017-0.026,0.034-0.042,0.05c-0.013,0.015-0.027,0.029-0.041,0.044c-0.013,0.014-0.027,0.027-0.042,0.04
	c-0.013,0.012-0.027,0.023-0.041,0.036c-0.014,0.011-0.027,0.022-0.042,0.032c-0.013,0.01-0.027,0.02-0.041,0.029
	c-0.013,0.009-0.027,0.018-0.041,0.026c-0.013,0.009-0.027,0.017-0.041,0.024c-0.014,0.008-0.027,0.015-0.041,0.022
	c-0.014,0.006-0.027,0.013-0.042,0.02c-0.014,0.006-0.027,0.012-0.041,0.018c-0.013,0.006-0.027,0.011-0.041,0.016
	c-0.013,0.004-0.027,0.01-0.041,0.014c-0.014,0.004-0.027,0.008-0.041,0.012c-0.014,0.003-0.028,0.007-0.042,0.01l-0.017,0.004
	c-0.007,0.001-0.016,0.003-0.024,0.005c-0.012,0.002-0.026,0.004-0.041,0.006c-0.013,0.001-0.027,0.003-0.041,0.005
	c-0.014,0.002-0.027,0.003-0.041,0.004s-0.027,0.002-0.041,0.003c-0.014,0.001-0.028,0.002-0.041,0.003
	c-0.015,0-0.028,0.001-0.041,0.002h-0.022h-0.019h-0.041H42.96h-0.042h-0.041h-0.041h-0.041h-0.041h-0.042h-0.041h-0.041H42.59
	H42.55h-0.042h-0.041h-0.041h-0.041h-0.041h-0.042h-0.041h-0.041H42.18h-0.041h-0.042h-0.041h-0.041h-0.041h-0.041h-0.042h-0.041
	h-0.041H41.77h-0.041h-0.042h-0.041h-0.041h-0.041h-0.041h-0.041h-0.042H41.4h-0.041h-0.041h-0.041h-0.042h-0.041h-0.041h-0.042
	h-0.041h-0.041H40.99h-0.041h-0.041h-0.042h-0.041h-0.042h-0.041h-0.041h-0.041H40.62H40.6v-2.244H40.62z M40.6,31.252v-2.071h0.021
	h0.041h0.041h0.041h0.041h0.042h0.041h0.041h0.041h0.041h0.042h0.041h0.042h0.041h0.041h0.041h0.042h0.041h0.041H41.4h0.041h0.042
	h0.041h0.041h0.042h0.041h0.041h0.042h0.041h0.041h0.042h0.041h0.042h0.041h0.041h0.041h0.042h0.041h0.042h0.041h0.041h0.041h0.042
	h0.041h0.042h0.041h0.041h0.042h0.041h0.041h0.042h0.041h0.042h0.041h0.041h0.017l0.024,0c0.014,0,0.027,0.001,0.041,0.002
	c0.014,0.001,0.028,0.002,0.041,0.003c0.015,0.001,0.028,0.002,0.042,0.004c0.015,0.001,0.028,0.003,0.041,0.004
	c0.013,0.001,0.023,0.003,0.031,0.004l0.01,0.002c0.014,0.002,0.028,0.005,0.041,0.009c0.014,0.002,0.027,0.006,0.041,0.01
	c0.014,0.003,0.027,0.007,0.042,0.011c0.014,0.004,0.027,0.009,0.041,0.014c0.013,0.005,0.027,0.01,0.041,0.015
	c0.015,0.005,0.028,0.012,0.041,0.018c0.014,0.006,0.028,0.012,0.041,0.02c0.015,0.006,0.028,0.014,0.042,0.021
	c0.014,0.008,0.027,0.016,0.041,0.024s0.027,0.017,0.041,0.027c0.014,0.009,0.028,0.02,0.041,0.03
	c0.015,0.01,0.028,0.021,0.042,0.033c0.014,0.012,0.028,0.024,0.041,0.037c0.014,0.013,0.027,0.026,0.041,0.041
	c0.014,0.015,0.028,0.03,0.041,0.046c0.014,0.018,0.028,0.035,0.041,0.053c0.015,0.02,0.028,0.041,0.041,0.062
	c0.015,0.024,0.029,0.049,0.042,0.074c0.015,0.031,0.028,0.062,0.041,0.095c0.017,0.044,0.03,0.091,0.041,0.139
	c0.017,0.075,0.025,0.155,0.025,0.239c0,0.083-0.009,0.164-0.025,0.239c-0.011,0.048-0.024,0.095-0.041,0.14
	c-0.012,0.032-0.025,0.064-0.041,0.094c-0.013,0.025-0.027,0.05-0.042,0.074c-0.013,0.021-0.026,0.042-0.041,0.062
	c-0.013,0.018-0.027,0.036-0.041,0.053c-0.013,0.016-0.027,0.032-0.041,0.046c-0.014,0.014-0.027,0.028-0.041,0.041
	c-0.013,0.013-0.027,0.024-0.041,0.037c-0.014,0.012-0.027,0.022-0.042,0.033c-0.013,0.01-0.027,0.021-0.041,0.03
	c-0.014,0.009-0.027,0.018-0.041,0.026c-0.014,0.008-0.027,0.017-0.041,0.024c-0.014,0.007-0.027,0.015-0.042,0.021
	c-0.013,0.006-0.027,0.014-0.041,0.02c-0.013,0.006-0.027,0.011-0.041,0.017c-0.013,0.005-0.027,0.011-0.041,0.016
	c-0.014,0.004-0.027,0.009-0.041,0.013c-0.014,0.004-0.028,0.008-0.042,0.012c-0.014,0.004-0.027,0.007-0.041,0.01
	c-0.013,0.003-0.027,0.005-0.041,0.008l-0.01,0.002c-0.008,0.001-0.019,0.002-0.031,0.004c-0.012,0.001-0.026,0.003-0.041,0.004
	c-0.014,0.001-0.027,0.003-0.042,0.004c-0.013,0.001-0.027,0.002-0.041,0.003c-0.014,0.001-0.027,0.002-0.041,0.002
	c-0.014,0-0.028,0.001-0.041,0.001h-0.006h-0.035h-0.041h-0.042h-0.041h-0.042h-0.041H42.55h-0.042h-0.041h-0.041h-0.042h-0.041
	h-0.042h-0.041h-0.041h-0.041h-0.042h-0.041h-0.042h-0.041h-0.041h-0.041h-0.042h-0.041h-0.042H41.77h-0.041h-0.042h-0.041h-0.041
	h-0.042h-0.041h-0.041h-0.042H41.4h-0.041h-0.041h-0.041h-0.042h-0.041h-0.041h-0.041h-0.042h-0.041H40.99h-0.041h-0.041h-0.041
	h-0.041h-0.042h-0.041h-0.041h-0.041h-0.041H40.6z"/>
</svg>
