<?xml version="1.0" encoding="utf-8"?>
<!-- Generator: Adobe Illustrator 16.0.0, SVG Export Plug-In . SVG Version: 6.00 Build 0)  -->
<!DOCTYPE svg PUBLIC "-//W3C//DTD SVG 1.1//EN" "http://www.w3.org/Graphics/SVG/1.1/DTD/svg11.dtd">
<svg version="1.1" id="Layer_1" xmlns="http://www.w3.org/2000/svg" xmlns:xlink="http://www.w3.org/1999/xlink" x="0px" y="0px"
	 width="64px" height="64px" viewBox="0 0 64 64" enable-background="new 0 0 64 64" xml:space="preserve">
<path fill="#010101" d="M51.254,35.065c0,0.239-0.007,0.477,0.003,0.715c0.007,0.168-0.065,0.256-0.213,0.321
	c-0.542,0.239-1.1,0.365-1.696,0.267c-0.429-0.072-0.68-0.362-0.672-0.903c0.012-0.918,0.215-1.333,1.331-1.417
	c0.334-0.025,0.671,0.001,1.006-0.007c0.188-0.006,0.248,0.08,0.244,0.256C51.249,34.554,51.254,34.81,51.254,35.065z
	 M27.656,35.061c0-0.273,0.01-0.548-0.007-0.82c-0.004-0.068-0.098-0.188-0.147-0.187c-0.553,0.021-1.108,0.034-1.657,0.103
	c-0.337,0.043-0.584,0.288-0.651,0.624c-0.063,0.314-0.082,0.647-0.056,0.968c0.029,0.353,0.283,0.559,0.631,0.618
	c0.557,0.095,1.083-0.01,1.601-0.214c0.222-0.088,0.317-0.212,0.291-0.455C27.64,35.487,27.657,35.272,27.656,35.061z M60.24,15.152
	v33.695c0,0.803-0.65,1.454-1.454,1.454H5.214c-0.804,0-1.454-0.651-1.454-1.454V15.152c0-0.803,0.65-1.454,1.454-1.454h53.572
	C59.59,13.698,60.24,14.35,60.24,15.152z M11.432,26.217c0-0.323-0.069-0.396-0.384-0.399c-0.469-0.003-0.937-0.005-1.406,0.001
	c-0.49,0.007-0.762,0.287-0.762,0.78c0,1.82,0,3.642,0,5.462c0,1.848,0,3.694,0,5.542c0,0.323,0.044,0.368,0.368,0.369
	c0.477,0.003,0.955,0.004,1.432,0c0.5-0.005,0.751-0.256,0.751-0.751C11.433,33.553,11.433,29.884,11.432,26.217z M17.898,37.693
	c-0.137-1.358-0.631-2.563-1.582-3.558c-1.023-1.07-2.283-1.659-3.656-1.795c-0.443-0.008-0.447-0.008-0.435,0.325
	c0.004,0.123,0.029,0.244,0.047,0.367c0.246,1.627,1.042,2.925,2.366,3.894c0.868,0.637,1.85,0.969,2.919,1.07
	C17.875,38.027,17.93,38.005,17.898,37.693z M17.563,25.848c-0.122,0.02-0.248,0.012-0.369,0.03
	c-1.393,0.222-2.575,0.839-3.516,1.895c-0.861,0.967-1.34,2.105-1.453,3.394c-0.029,0.336-0.01,0.337,0.343,0.382
	c0.485-0.119,0.989-0.192,1.453-0.369c2.315-0.88,3.583-2.586,3.875-5.033C17.935,25.834,17.884,25.799,17.563,25.848z
	 M21.56,27.834c0-0.53,0.001-1.06,0-1.59c-0.001-0.363-0.067-0.427-0.438-0.428c-0.512,0-1.024,0-1.537,0
	c-0.384,0.001-0.421,0.039-0.421,0.429c0,1.882,0,3.764,0,5.646c0,1.917,0,3.833,0,5.752c0,0.317,0.055,0.373,0.368,0.375
	c0.503,0.002,1.007,0,1.511,0c0.474,0,0.517-0.042,0.517-0.509C21.56,34.284,21.56,31.059,21.56,27.834z M30.043,37.659
	c-0.012-2.021-0.002-4.045-0.055-6.064c-0.035-1.351-0.803-2.256-2.104-2.579c-1.441-0.357-2.871-0.148-4.292,0.155
	c-0.169,0.035-0.239,0.156-0.235,0.334c0.008,0.317,0.002,0.636,0.002,0.954c0,0.453,0.06,0.476,0.508,0.449
	c0.915-0.052,1.832-0.091,2.749-0.091c0.548,0,0.879,0.309,0.97,0.804c0.028,0.154,0.017,0.317,0.017,0.476
	c0.002,0.614,0.001,0.62-0.605,0.613c-0.848-0.008-1.693,0.02-2.514,0.268c-0.847,0.255-1.456,0.757-1.64,1.659
	c-0.118,0.585-0.106,1.174,0.036,1.758c0.197,0.814,0.689,1.367,1.492,1.605c0.892,0.264,1.776,0.226,2.624-0.187
	c0.243-0.118,0.474-0.263,0.746-0.415c0.011,0.084,0.02,0.127,0.021,0.17c0.02,0.4,0.071,0.449,0.475,0.449
	c0.477,0.001,0.954,0.002,1.431,0C29.946,38.016,30.044,37.93,30.043,37.659z M36.413,30.467c-0.01-0.434-0.008-0.865-0.001-1.299
	c0.004-0.238-0.101-0.34-0.336-0.33c-0.689,0.029-1.313,0.246-1.872,0.65c-0.075,0.055-0.151,0.106-0.266,0.188
	c-0.009-0.126-0.019-0.201-0.02-0.277c-0.008-0.381-0.075-0.451-0.448-0.451c-0.477-0.002-0.955-0.001-1.432-0.001
	c-0.437,0.001-0.509,0.071-0.509,0.506c0,1.22,0,2.439,0,3.659c0,1.477-0.001,2.952,0,4.428c0,0.391,0.086,0.478,0.458,0.479
	c0.504,0.001,1.008,0.001,1.512,0c0.407,0,0.471-0.063,0.471-0.479c0.001-1.961,0.003-3.924-0.004-5.886
	c0-0.194,0.057-0.305,0.235-0.389c0.59-0.277,1.194-0.485,1.857-0.458C36.299,30.815,36.418,30.724,36.413,30.467z M45.161,37.552
	c0-1.785,0.011-3.569-0.007-5.354c-0.005-0.481-0.063-0.97-0.163-1.441c-0.209-0.979-0.77-1.667-1.8-1.848
	c-1.126-0.199-2.197-0.04-3.164,0.615c-0.094,0.063-0.19,0.12-0.352,0.224c-0.01-0.19-0.02-0.309-0.022-0.428
	c-0.007-0.312-0.062-0.37-0.375-0.372c-0.495-0.003-0.989-0.004-1.484,0.001c-0.291,0.002-0.378,0.092-0.378,0.383
	c-0.001,2.757-0.001,5.515,0,8.271c0,0.325,0.087,0.414,0.404,0.416c0.548,0.002,1.096-0.006,1.644,0.003
	c0.245,0.003,0.355-0.092,0.351-0.345c-0.009-0.548-0.002-1.096-0.002-1.644c0-1.458-0.002-2.916,0.005-4.374
	c0.001-0.12,0.033-0.301,0.113-0.351c0.605-0.375,1.259-0.605,1.986-0.485c0.4,0.065,0.681,0.3,0.756,0.713
	c0.052,0.285,0.092,0.576,0.093,0.865c0.009,1.732,0.004,3.464,0.005,5.196c0,0.38,0.042,0.421,0.429,0.421
	c0.495,0.001,0.99,0.001,1.484,0C45.112,38.018,45.161,37.971,45.161,37.552z M53.594,37.609c0-1.838,0.003-3.677-0.002-5.516
	c0-0.271-0.014-0.547-0.055-0.816c-0.164-1.058-0.729-1.813-1.757-2.154c-0.431-0.145-0.89-0.243-1.341-0.271
	c-1.079-0.068-2.147,0.062-3.202,0.3c-0.231,0.053-0.33,0.179-0.329,0.405c0.001,0.292,0,0.583,0,0.875
	c0,0.469,0.066,0.505,0.522,0.48c0.907-0.052,1.815-0.092,2.723-0.098c0.586-0.002,0.914,0.3,1.014,0.88
	c0.044,0.259,0.021,0.528,0.034,0.791c0.009,0.176-0.073,0.231-0.239,0.228c-0.38-0.007-0.765-0.038-1.139,0.007
	c-0.645,0.076-1.299,0.149-1.921,0.322c-0.828,0.233-1.362,0.811-1.499,1.681c-0.057,0.361-0.046,0.736-0.029,1.103
	c0.07,1.492,1.207,2.471,2.696,2.351c0.753-0.061,1.461-0.236,2.078-0.697c0.041-0.029,0.092-0.044,0.15-0.072
	c0.028,0.041,0.043,0.054,0.046,0.069c0.008,0.043,0.012,0.087,0.014,0.132c0.02,0.385,0.045,0.41,0.44,0.41
	c0.459,0.001,0.919,0.001,1.378,0C53.549,38.018,53.594,37.974,53.594,37.609z M54.415,28.323h-0.474v0.069h0.195v0.569h0.083
	v-0.569h0.195V28.323z M55.12,28.962l-0.04-0.639h-0.105l-0.114,0.309c-0.029,0.081-0.051,0.15-0.069,0.216H54.79
	c-0.017-0.067-0.038-0.138-0.064-0.216l-0.109-0.309h-0.106l-0.044,0.639h0.079l0.017-0.274c0.006-0.098,0.01-0.203,0.012-0.282
	h0.002c0.018,0.075,0.043,0.158,0.073,0.248l0.104,0.305h0.063l0.113-0.311c0.032-0.088,0.058-0.168,0.08-0.242h0.002
	c0,0.078,0.005,0.188,0.01,0.275l0.015,0.281H55.12z"/>
</svg>
