<?xml version="1.0" encoding="utf-8"?>
<!-- Generator: Adobe Illustrator 16.0.0, SVG Export Plug-In . SVG Version: 6.00 Build 0)  -->
<!DOCTYPE svg PUBLIC "-//W3C//DTD SVG 1.1//EN" "http://www.w3.org/Graphics/SVG/1.1/DTD/svg11.dtd">
<svg version="1.1" id="Layer_1" xmlns="http://www.w3.org/2000/svg" xmlns:xlink="http://www.w3.org/1999/xlink" x="0px" y="0px"
	 width="64px" height="64px" viewBox="0 0 64 64" enable-background="new 0 0 64 64" xml:space="preserve">
<path fill-rule="evenodd" clip-rule="evenodd" d="M27.157,44.204c0.125,0.415,0.246,0.813,0.368,1.217c-0.256,0-0.501,0-0.762,0
	C26.895,45.015,27.024,44.616,27.157,44.204z M60.24,15.152v33.695c0,0.803-0.65,1.454-1.454,1.454H5.214
	c-0.804,0-1.454-0.651-1.454-1.454V15.152c0-0.803,0.65-1.454,1.454-1.454h53.572C59.59,13.698,60.24,14.349,60.24,15.152z
	 M19.326,18.034h10.776l13.654,0.533l0.812-1.395l-15.825,0.533h-9.416V18.034z M23.831,46.186c-0.45,0-0.888,0-1.333,0
	c0-0.941,0-1.869,0-2.801c-0.289,0-0.57,0-0.851,0c0,1.129,0,2.251,0,3.372c0.705,0,1.337,0,2.037,0
	C23.71,46.569,23.802,46.388,23.831,46.186z M28.849,46.785c-0.006-0.026-0.01-0.049-0.017-0.07
	c-0.359-1.075-0.719-2.194-1.076-3.269c-0.021-0.062-0.054-0.071-0.11-0.071c-0.263,0.002-0.826,0.005-1.089-0.001
	c-0.092-0.002,0.147,0.125,0.117,0.213c-0.321,0.919-0.626,1.736-0.95,2.654c-0.059,0.165-0.116,0.353-0.176,0.525l0.75,0.016
	l0.04-0.067c0.074-0.228,0.15-0.454,0.23-0.679c0.01-0.029,0.016-0.067,0.042-0.067c0.346-0.005,0.726-0.003,1.076-0.003
	c0.015,0.041,0.029,0.077,0.041,0.115c0.063,0.21,0.125,0.42,0.186,0.631l0.026,0.074L28.849,46.785z M32.266,44.878
	c-0.18-0.085-0.362-0.168-0.541-0.256c-0.089-0.044-0.179-0.09-0.257-0.15c-0.114-0.087-0.145-0.209-0.11-0.349
	c0.033-0.133,0.124-0.205,0.253-0.22c0.108-0.013,0.219-0.019,0.327-0.007c0.188,0.019,0.374,0.054,0.57,0.083
	c0.043-0.179,0.087-0.358,0.136-0.563c-0.212-0.036-0.414-0.081-0.618-0.103c-0.314-0.033-0.624-0.013-0.923,0.107
	c-0.751,0.299-0.789,1.296-0.308,1.663c0.134,0.102,0.287,0.179,0.436,0.259c0.149,0.08,0.31,0.14,0.455,0.226
	c0.174,0.103,0.221,0.231,0.177,0.414c-0.035,0.143-0.148,0.238-0.338,0.242c-0.188,0.004-0.379-0.008-0.565-0.036
	c-0.156-0.023-0.307-0.077-0.466-0.119c-0.053,0.185-0.105,0.37-0.16,0.561c0.362,0.132,0.724,0.205,1.102,0.197
	c0.308-0.006,0.597-0.071,0.868-0.228C32.836,46.289,33.021,45.236,32.266,44.878z M37.243,46.188c-0.502,0-0.927,0-1.422,0
	c0-0.299,0-0.587,0-0.887c0.39,0,0.775,0,1.161,0c0-0.192,0-0.372,0-0.56c-0.391,0-0.773,0-1.16,0c0-0.272,0-0.531,0-0.799
	c0.412,0,0.817,0,1.225,0c0.028-0.191,0.056-0.374,0.083-0.558c-0.73,0-1.448,0-2.167,0c0,1.129,0,2.251,0,3.372
	c0.758,0,1.443,0,2.195,0C37.187,46.565,37.213,46.382,37.243,46.188z M42.247,46.792l-1.001-1.71
	c0.016-0.004,0.031-0.009,0.047-0.014c0.016-0.005,0.031-0.011,0.046-0.017c0.264-0.1,0.466-0.264,0.538-0.546
	c0.104-0.412,0.015-0.834-0.437-1.01c-0.107-0.042-0.188-0.073-0.302-0.092c-0.07-0.012-0.173-0.021-0.243-0.028l-1.52,0.003v3.386
	h0.858l-0.001-2.831c0.192-0.021,0.38-0.027,0.561,0.041c0.124,0.045,0.207,0.134,0.231,0.266c0.058,0.311-0.031,0.586-0.435,0.623
	c-0.074,0.007-0.249,0.006-0.326,0.004l1.092,1.923L42.247,46.792z M44.674,40.675H31.571l0.311-0.533l-1.106,0.533H19.326v0.328
	h11.337l0.407,0.533l0.31-0.533h13.294V40.675z M44.674,39.034H32.5l0.278-0.479l-1.24,0.479H19.326v0.328h11.918l0.722,0.588
	l0.343-0.588h12.365V39.034z M44.674,37.394H33.365l0.311-0.533l-2.106,0.533H19.326v0.328h12.23l1.307,0.533l0.31-0.533h11.5
	V37.394z M44.674,35.753H34.262l0.311-0.533l-2.83,0.533H19.326v0.328h12.476l1.959,0.533l0.31-0.533h10.603V35.753z M44.674,34.112
	h-9.515l0.311-0.533l-4.002,0.533H19.326v0.328h12.318l3.014,0.533l0.31-0.533h9.706V34.112z M44.674,32.472h-8.618l0.311-0.533
	l-5.173,0.533H19.326V32.8h12.16l4.069,0.533l0.31-0.533h8.809V32.472z M44.674,30.831h-7.721l0.31-0.533l-6.347,0.533h-11.59v0.328
	h12.003l5.123,0.533l0.31-0.533h7.912V30.831z M44.674,29.19H37.85l0.311-0.533l-7.519,0.533H19.326v0.328h11.845l6.177,0.533
	l0.311-0.533h7.015V29.19z M44.674,27.55h-5.927l0.31-0.533l-8.69,0.533H19.326v0.328h11.688l7.232,0.533l0.311-0.533h6.118V27.55z
	 M44.674,25.909h-4.99l0.271-0.465l-8.598,0.465h-12.03v0.328h10.468l9.349,0.602l0.35-0.602h5.181V25.909z M44.674,24.269h-4.005
	l0.311-0.533l-11.138,0.533H19.326v0.328h11.407l9.434,0.533l0.311-0.533h4.196V24.269z M44.674,22.628h-3.108l0.311-0.533
	l-12.31,0.533H19.326v0.328h11.25l10.489,0.533l0.311-0.533h3.299V22.628z M44.674,20.987h-2.211l0.311-0.533l-13.481,0.533h-9.966
	v0.328h11.091l11.544,0.533l0.31-0.533h2.402V20.987z M44.674,19.346H43.36l0.311-0.533l-14.653,0.533h-9.691v0.328H30.26
	l12.599,0.533l0.311-0.533h1.505V19.346z"/>
</svg>
