<?xml version="1.0" encoding="utf-8"?>
<!-- Generator: Adobe Illustrator 16.0.0, SVG Export Plug-In . SVG Version: 6.00 Build 0)  -->
<!DOCTYPE svg PUBLIC "-//W3C//DTD SVG 1.1//EN" "http://www.w3.org/Graphics/SVG/1.1/DTD/svg11.dtd">
<svg version="1.1" id="Layer_1" xmlns="http://www.w3.org/2000/svg" xmlns:xlink="http://www.w3.org/1999/xlink" x="0px" y="0px"
	 width="64px" height="64px" viewBox="0 0 64 64" enable-background="new 0 0 64 64" xml:space="preserve">
<path d="M30.928,35.583c0.594,0,1.167-0.075,1.741-0.229l0.286-1.421c-0.614,0.249-1.167,0.361-1.782,0.361
	c-0.983,0-1.495-0.335-1.495-0.993c0-0.053,0-0.092,0.021-0.179h3.399c0.144-0.576,0.206-0.984,0.206-1.404
	c0-1.259-0.901-2.062-2.314-2.062c-1.721,0-2.99,1.435-2.99,3.382C27.999,34.711,29.003,35.583,30.928,35.583z M30.969,30.954
	c0.512,0,0.799,0.269,0.799,0.73c0,0.076,0,0.171,0,0.292l-1.905-0.003C30.027,31.314,30.417,30.954,30.969,30.954z M39.838,33.547
	c-0.021,0.104-0.021,0.182-0.021,0.235c0,0.294,0.185,0.42,0.594,0.42c0.185,0,0.329-0.017,0.451-0.054l-0.225,1.259
	c-0.471,0.129-0.84,0.185-1.229,0.185c-0.88,0-1.352-0.442-1.352-1.248c0-0.16,0.02-0.33,0.041-0.509l0.103-0.558l0.082-0.45
	l0.799-4.336h1.7l-0.246,1.304h0.88l-0.246,1.382h-0.881L39.838,33.547z M36.438,29.669c0.409,0,1.085,0.05,1.536,0.112
	l-0.246,1.314c-0.45-0.053-0.901-0.083-1.25-0.083c-0.553,0-0.84,0.156-0.84,0.461c0,0.266,0.083,0.331,0.799,0.618
	c0.881,0.345,1.229,0.801,1.229,1.581c0,1.295-0.84,1.894-2.683,1.894c-0.226,0-0.533-0.017-0.942-0.047
	c-0.205-0.014-0.369-0.031-0.471-0.051l-0.307-0.056l-0.082-0.014l0.246-1.31c0.553,0.154,1.024,0.224,1.557,0.224
	c0.676,0,0.983-0.16,0.983-0.512c0-0.26-0.103-0.344-0.799-0.627c-0.921-0.372-1.331-0.867-1.331-1.583
	C33.836,30.542,34.513,29.669,36.438,29.669z M28.578,38.121h6.843c-0.25,0.536-0.533,1.053-0.844,1.552h-5.143
	C29.122,39.172,28.829,38.659,28.578,38.121z M25.438,29.669c-0.635,0-1.188,0.081-2.048,0.299l-0.225,1.279l0.143-0.037
	l0.246-0.062c0.368-0.098,0.921-0.157,1.413-0.157c0.798,0,1.106,0.14,1.106,0.515c0,0.104-0.021,0.182-0.062,0.369
	c-0.266-0.028-0.512-0.044-0.696-0.044c-1.904,0-3.01,0.808-3.01,2.19c0,0.917,0.635,1.55,1.557,1.55
	c0.778,0,1.373-0.218,1.802-0.685l-0.041,0.587h1.433l0.02-0.154l0.021-0.195l0.041-0.288l0.061-0.361l0.369-2.017
	c0.103-0.632,0.123-0.845,0.123-1.125C27.691,30.246,26.913,29.669,25.438,29.669z M24.579,34.367c-0.389,0-0.614-0.227-0.614-0.579
	c0-0.574,0.492-0.864,1.454-0.864c0.123,0,0.205,0.003,0.39,0.022C25.767,33.785,25.275,34.367,24.579,34.367z M32.032,42.718
	c-0.012,0.012-0.025,0.021-0.037,0.032c-0.537-0.486-1.023-1.023-1.482-1.584h2.993c-0.452,0.553-0.944,1.072-1.472,1.552
	L32.032,42.718C32.032,42.718,32.032,42.718,32.032,42.718z M34.559,24.298h-4.913c0.315-0.52,0.663-1.052,1.033-1.552h2.755
	C33.841,23.238,34.218,23.756,34.559,24.298z M36.019,27.374h-8.013c0.079-0.15,0.359-0.754,0.781-1.553h6.607
	C35.631,26.323,35.839,26.841,36.019,27.374z M22.837,28.492l-1.352,6.983h-1.72l1.024-5.369l-2.355,5.369h-1.557L16.59,30.14
	l-1.024,5.335H14.01l1.332-6.983h2.683l0.123,4.325l1.905-4.325H22.837z M51.287,34.857c-0.041-0.02-0.082-0.023-0.102-0.023h-0.164
	v0.392h0.082v-0.154h0.061l0.062,0.154h0.102l-0.061-0.171c0.041-0.017,0.061-0.059,0.061-0.101
	C51.327,34.916,51.307,34.876,51.287,34.857z M51.205,34.997c-0.02,0.008-0.041,0.008-0.041,0.008h-0.062v-0.101h0.042
	c0.02,0,0.061,0,0.061,0.008c0.021,0.008,0.021,0.025,0.021,0.039C51.226,34.969,51.225,34.988,51.205,34.997z M54.882,39.851
	c-0.041-0.02-0.082-0.023-0.102-0.023h-0.164v0.392h0.082v-0.154h0.061l0.062,0.154h0.102l-0.061-0.171
	c0.041-0.017,0.061-0.059,0.061-0.101C54.922,39.909,54.902,39.87,54.882,39.851z M54.8,39.99c-0.02,0.008-0.041,0.008-0.041,0.008
	h-0.062v-0.101h0.042c0.02,0,0.061,0,0.061,0.008c0.021,0.008,0.021,0.025,0.021,0.039C54.821,39.962,54.82,39.981,54.8,39.99z
	 M58.786,13.698H5.214c-0.804,0-1.454,0.651-1.454,1.454v33.695c0,0.803,0.65,1.454,1.454,1.454h53.572
	c0.804,0,1.454-0.651,1.454-1.454V15.152C60.24,14.349,59.59,13.698,58.786,13.698z M55.169,40.279
	c-0.042,0.075-0.099,0.133-0.173,0.174c-0.074,0.041-0.152,0.062-0.233,0.062s-0.159-0.021-0.233-0.062
	c-0.074-0.041-0.132-0.099-0.174-0.174c-0.041-0.074-0.062-0.152-0.062-0.233s0.021-0.159,0.063-0.234
	c0.042-0.076,0.101-0.133,0.175-0.174c0.076-0.04,0.152-0.06,0.231-0.06c0.08,0,0.156,0.021,0.23,0.06
	c0.075,0.041,0.134,0.098,0.175,0.174c0.042,0.075,0.063,0.154,0.063,0.234S55.211,40.206,55.169,40.279z M56.217,32
	c0.002,8.005-6.485,14.497-14.491,14.499c-3.744,0.001-7.158-1.418-9.73-3.749c-2.572,2.327-5.979,3.745-9.717,3.745
	c-8.001,0-14.495-6.493-14.495-14.495c0-7.97,6.443-14.444,14.402-14.496c0.031,0,0.062,0,0.093,0c3.738,0,7.146,1.418,9.718,3.745
	c2.571-2.328,5.981-3.747,9.722-3.748c8.006-0.003,14.497,6.486,14.499,14.492C56.217,31.995,56.217,31.997,56.217,32z
	 M51.164,34.588c-0.246,0-0.451,0.199-0.451,0.442c0,0.246,0.205,0.445,0.451,0.445s0.451-0.199,0.451-0.445
	C51.615,34.787,51.41,34.588,51.164,34.588z M51.164,35.369c-0.184,0-0.348-0.151-0.348-0.339c0-0.185,0.164-0.336,0.348-0.336
	c0.185,0,0.328,0.151,0.328,0.336C51.492,35.217,51.349,35.369,51.164,35.369z M51.021,32.196c0-1.441-0.942-2.563-2.724-2.563
	c-2.048,0-3.379,1.365-3.379,3.376c0,1.441,0.778,2.619,2.724,2.619c1.761,0,3.072-0.839,3.338-2.727
	C51.021,32.571,51.021,32.548,51.021,32.196z M49.137,32.853c-0.143,0.884-0.941,1.391-1.31,1.391
	c-0.615,0.012-0.983-0.506-0.983-1.278c0-0.912,0.532-1.947,1.413-1.947c0.696,0,0.941,0.563,0.941,1.155
	C49.198,32.42,49.178,32.646,49.137,32.853z M45.02,31.449l-0.205-0.042c-0.082-0.009-0.143-0.014-0.205-0.014
	c-0.82,0-1.085,0.61-1.7,4.082h-1.72l1.044-5.679h1.557l-0.164,0.862c0.532-0.671,0.942-0.923,1.495-0.923
	c0.062,0,0.124,0.005,0.185,0.014c0,0.003,0.062,0.014,0.144,0.034c0.02,0.006,0.041,0.006,0.184,0.062L45.02,31.449z"/>
</svg>
