<?xml version="1.0" encoding="utf-8"?>
<!-- Generator: Adobe Illustrator 16.0.0, SVG Export Plug-In . SVG Version: 6.00 Build 0)  -->
<!DOCTYPE svg PUBLIC "-//W3C//DTD SVG 1.1//EN" "http://www.w3.org/Graphics/SVG/1.1/DTD/svg11.dtd">
<svg version="1.1" id="Layer_1" xmlns="http://www.w3.org/2000/svg" xmlns:xlink="http://www.w3.org/1999/xlink" x="0px" y="0px"
	 width="64px" height="64px" viewBox="0 0 64 64" enable-background="new 0 0 64 64" xml:space="preserve">
<path d="M58.786,13.698H5.214c-0.804,0-1.454,0.651-1.454,1.454v33.695c0,0.803,0.65,1.454,1.454,1.454h53.572
	c0.804,0,1.454-0.651,1.454-1.454V15.152C60.24,14.349,59.59,13.698,58.786,13.698z M53.694,39.752
	c-0.038,0.07-0.093,0.125-0.162,0.164c-0.069,0.037-0.142,0.057-0.218,0.057s-0.149-0.02-0.219-0.057
	c-0.069-0.039-0.124-0.094-0.163-0.164c-0.038-0.07-0.058-0.143-0.058-0.219s0.02-0.148,0.059-0.219
	c0.04-0.07,0.095-0.125,0.164-0.162c0.071-0.039,0.143-0.057,0.217-0.057c0.073,0,0.146,0.018,0.216,0.057
	c0.07,0.037,0.124,0.092,0.163,0.162c0.04,0.07,0.06,0.143,0.06,0.219S53.733,39.682,53.694,39.752z M54.676,32
	c0.002,7.496-6.073,13.574-13.569,13.576c-3.506,0-6.702-1.328-9.111-3.51c-2.407,2.178-5.599,3.506-9.099,3.506
	c-7.492,0-13.572-6.08-13.572-13.572c0-7.463,6.033-13.525,13.485-13.572c0.029,0,0.058,0,0.087,0c3.5,0,6.691,1.328,9.1,3.506
	c2.407-2.182,5.601-3.51,9.104-3.51c7.496-0.002,13.574,6.072,13.576,13.568C54.676,31.994,54.676,31.998,54.676,32z M53.392,39.59
	c-0.011-0.008-0.023-0.018-0.041-0.023c0.041-0.004,0.074-0.018,0.099-0.043c0.024-0.027,0.037-0.057,0.037-0.092
	c0-0.023-0.008-0.047-0.022-0.068s-0.034-0.037-0.06-0.045c-0.024-0.01-0.064-0.014-0.12-0.014h-0.162v0.473h0.076v-0.201h0.045
	c0.027,0,0.048,0.006,0.062,0.016c0.02,0.016,0.047,0.053,0.079,0.111l0.042,0.074h0.093l-0.058-0.094
	C53.434,39.641,53.411,39.609,53.392,39.59z M53.291,39.512h-0.093v-0.145h0.087c0.037,0,0.063,0.004,0.076,0.01
	s0.024,0.014,0.032,0.023c0.008,0.012,0.012,0.023,0.012,0.039c0,0.021-0.008,0.039-0.024,0.051
	C53.365,39.504,53.335,39.512,53.291,39.512z M22.764,28.979l-1.221,6.305h-1.535l0.906-4.846l-2.107,4.846h-1.405l-0.259-4.817
	l-0.924,4.817h-1.405l1.201-6.305h2.404l0.129,3.904l1.7-3.904H22.764z M35.763,27.668H28.26c0.073-0.141,0.336-0.707,0.731-1.453
	h6.187C35.399,26.684,35.595,27.17,35.763,27.668z M32.03,42.035c-0.012,0.012-0.023,0.02-0.035,0.031
	c-0.503-0.456-0.958-0.959-1.388-1.484h2.803c-0.424,0.518-0.885,1.004-1.378,1.453H32.03z M34.396,24.789h-4.6
	c0.294-0.488,0.62-0.986,0.967-1.455h2.579C33.724,23.795,34.077,24.279,34.396,24.789z M48.85,34.69h0.462v0.097h-0.167v0.507
	h-0.128v-0.507H48.85V34.69z M49.865,34.69h0.204v0.604h-0.13v-0.497l-0.166,0.497h-0.11l-0.167-0.497v0.002v0.495h-0.11V34.69
	h0.203l0.13,0.457L49.865,34.69z M47.519,32.66l1.053,2.613h-1.553l-0.517-1.596l-1.036,1.596h-1.849l2.053-2.682l-0.999-2.463
	h1.591l0.498,1.544l0.962-1.544h1.72L47.519,32.66z M25.573,30.009c-1.849,0-3.05,1.231-3.05,3.047c0,1.302,0.702,2.364,2.458,2.364
	c1.59,0,2.773-0.755,3.014-2.462c0.037-0.298,0.037-0.317,0.037-0.637C28.032,31.021,27.182,30.009,25.573,30.009z M26.294,32.905
	c-0.129,0.798-0.851,1.255-1.183,1.255c-0.555,0.01-0.888-0.457-0.888-1.152c0-0.825,0.48-1.757,1.275-1.757
	c0.629,0,0.851,0.505,0.851,1.04C26.35,32.514,26.331,32.719,26.294,32.905z M43.617,33.993c-0.573,0.189-0.702,0.21-1.258,0.21
	c-0.905,0-1.349-0.303-1.349-0.899c0-0.045,0-0.081,0-0.161h3.087c0.129-0.519,0.186-0.887,0.186-1.265
	c0-1.137-0.813-1.864-2.09-1.864c-1.553,0-2.699,1.295-2.699,3.055c0,1.508,0.906,2.297,2.625,2.299
	c0.555,0,0.759-0.008,1.258-0.192v0.001L43.617,33.993z M42.157,31.185c0.462,0,0.739,0.245,0.739,0.662c0,0.068,0,0.154-0.019,0.26
	l-1.701-0.002C41.325,31.514,41.677,31.185,42.157,31.185z M29.622,35.278h-1.553l0.702-3.808c0.074-0.444,0.147-0.882,0.186-1.346
	h1.441l-0.111,0.84h0.019c0.444-0.573,0.925-0.959,1.738-0.959c0.906,0,1.405,0.772,1.405,1.78c0,0.347-0.019,0.546-0.111,1.089
	l-0.425,2.403h-1.608l0.426-2.414c0.055-0.257,0.11-0.513,0.11-0.779c0-0.31-0.167-0.614-0.61-0.595
	c-0.665,0-1.054,0.651-1.165,1.415L29.622,35.278z M38.182,28.933l-0.352,1.813c-0.425-0.49-0.887-0.708-1.479-0.708
	c-1.387,0-2.533,1.447-2.533,3.165c0,1.29,0.739,2.144,1.867,2.144c0.573,0,1.018-0.177,1.442-0.573l-0.074,0.505h1.479l1.185-6.346
	H38.182z M36.24,34.063c-0.535,0-0.813-0.34-0.813-1.017c0-1.016,0.499-1.735,1.22-1.735c0.537,0,0.814,0.356,0.814,1.013
	C37.461,33.347,36.962,34.063,36.24,34.063z M28.796,37.73h6.407c-0.234,0.502-0.498,0.986-0.79,1.453h-4.815
	C29.306,38.715,29.031,38.234,28.796,37.73z"/>
</svg>
