<?xml version="1.0" encoding="utf-8"?>
<!-- Generator: Adobe Illustrator 16.0.0, SVG Export Plug-In . SVG Version: 6.00 Build 0)  -->
<!DOCTYPE svg PUBLIC "-//W3C//DTD SVG 1.1//EN" "http://www.w3.org/Graphics/SVG/1.1/DTD/svg11.dtd">
<svg version="1.1" id="Layer_1" xmlns="http://www.w3.org/2000/svg" xmlns:xlink="http://www.w3.org/1999/xlink" x="0px" y="0px"
	 width="64px" height="64px" viewBox="0 0 64 64" enable-background="new 0 0 64 64" xml:space="preserve">
<path fill-rule="evenodd" clip-rule="evenodd" d="M56.759,34.408c0.018,0.02,0.017,0.079,0,0.103
	c-0.053,0.08-0.134,0.044-0.218,0.046c0.012-0.066,0.021-0.118,0.031-0.169C56.644,34.36,56.71,34.353,56.759,34.408z
	 M47.952,32.214c-0.426-0.066-0.778,0.069-1.043,0.409c-0.216,0.277-0.302,0.601-0.311,0.952c0.003,0.063,0.002,0.129,0.01,0.195
	c0.043,0.41,0.276,0.684,0.645,0.744c0.265,0.043,0.519,0.001,0.752-0.142c0.516-0.315,0.781-1.096,0.561-1.657
	C48.455,32.436,48.253,32.261,47.952,32.214z M33.883,32.208c-0.569-0.124-1.132,0.098-1.402,0.633
	c-0.018,0.038-0.027,0.08-0.046,0.134c0.651,0,1.285,0,1.93,0C34.436,32.542,34.178,32.271,33.883,32.208z M25.9,32.251
	c-0.393-0.123-0.82,0.018-1.097,0.365c-0.206,0.256-0.296,0.554-0.307,0.879c0.007,0.083,0.011,0.167,0.024,0.248
	c0.065,0.412,0.364,0.722,0.76,0.773c0.404,0.053,0.743-0.076,1-0.397c0.225-0.282,0.307-0.612,0.285-0.965
	C26.536,32.703,26.286,32.372,25.9,32.251z M60.24,15.152v33.695c0,0.803-0.65,1.454-1.454,1.454H5.214
	c-0.804,0-1.454-0.651-1.454-1.454V15.152c0-0.803,0.65-1.454,1.454-1.454h53.572C59.59,13.698,60.24,14.349,60.24,15.152z
	 M16.423,31.317c-0.161-1.112-0.651-2.056-1.466-2.825c-0.789-0.745-1.731-1.167-2.81-1.285c-1.835-0.19-4.079,1.378-3.986,4.008
	c0.049,0.681,0.4,1.148,1.029,1.407c0.416,0.17,0.846,0.168,1.277,0.079c0.799-0.164,1.476-0.564,2.075-1.107
	c0.014-0.013,0.021-0.032,0.046-0.069c-0.219,0-0.412,0-0.604,0c-0.184,0-0.367,0.005-0.549-0.002
	c-0.224-0.01-0.374-0.162-0.376-0.368c-0.006-0.32,0.19-0.54,0.508-0.569c0.05-0.004,0.1-0.003,0.15-0.003
	c0.7-0.003,1.399-0.006,2.099-0.008c0.049,0,0.1-0.002,0.149,0.002c0.19,0.018,0.329,0.159,0.337,0.35
	c0.002,0.065-0.005,0.133-0.017,0.198c-0.117,0.655-0.235,1.31-0.355,1.965c-0.022,0.12-0.035,0.244-0.077,0.357
	c-0.125,0.339-0.385,0.401-0.684,0.33c-0.107-0.025-0.19-0.104-0.217-0.212c-0.021-0.089-0.031-0.187-0.017-0.277
	c0.039-0.268,0.094-0.535,0.142-0.802c0.008-0.044,0.006-0.09,0.008-0.138c-0.023,0.005-0.03,0.005-0.033,0.008
	c-0.039,0.032-0.078,0.063-0.115,0.095c-0.672,0.571-1.417,1.01-2.27,1.256c-0.627,0.182-1.263,0.25-1.905,0.083
	c-0.854-0.221-1.427-0.737-1.654-1.605C7.027,31.875,7,31.559,7.023,31.242c0.023-0.302,0.071-0.603,0.104-0.879
	C7.126,30.366,7.11,30.394,7.1,30.423c-0.285,0.822-0.339,1.659-0.17,2.51c0.513,2.596,3.062,4.345,5.753,3.762
	C15.134,36.165,16.785,33.82,16.423,31.317z M23.707,30.887c0.038-0.261-0.1-0.431-0.361-0.456c-0.044-0.004-0.09,0.002-0.133-0.003
	c-0.368-0.049-0.6,0.118-0.784,0.43c-0.418,0.707-0.859,1.4-1.291,2.098c-0.031,0.051-0.065,0.1-0.113,0.173
	c-0.024-0.076-0.043-0.126-0.056-0.177c-0.173-0.666-0.345-1.332-0.518-1.997c-0.026-0.102-0.057-0.203-0.091-0.302
	c-0.042-0.12-0.132-0.193-0.258-0.209c-0.104-0.012-0.21-0.015-0.315-0.015c-0.351,0.002-0.533,0.155-0.595,0.501
	c-0.221,1.234-0.441,2.468-0.661,3.702c-0.013,0.076-0.02,0.155-0.015,0.231c0.01,0.15,0.086,0.238,0.233,0.261
	c0.436,0.065,0.569-0.08,0.62-0.408c0.002-0.011,0.006-0.022,0.008-0.033c0.115-0.655,0.23-1.311,0.346-1.966
	c0.057-0.32,0.115-0.64,0.172-0.96c0.051,0.062,0.072,0.127,0.089,0.194c0.154,0.602,0.308,1.203,0.46,1.805
	c0.024,0.093,0.05,0.182,0.139,0.237c0.152,0.094,0.533,0.091,0.67-0.021c0.071-0.057,0.128-0.138,0.177-0.217
	c0.38-0.62,0.757-1.241,1.135-1.862c0.031-0.05,0.065-0.098,0.098-0.147c0.009,0.003,0.019,0.007,0.027,0.01
	c-0.007,0.052-0.012,0.104-0.021,0.156c-0.16,0.901-0.321,1.802-0.479,2.703c-0.014,0.082-0.026,0.166-0.021,0.248
	c0.01,0.157,0.092,0.245,0.248,0.265c0.092,0.012,0.188,0.007,0.281-0.001c0.135-0.011,0.228-0.09,0.271-0.214
	c0.036-0.099,0.058-0.203,0.076-0.307c0.187-1.042,0.371-2.085,0.557-3.128C23.639,31.28,23.678,31.084,23.707,30.887z
	 M27.27,32.719c-0.144-0.566-0.513-0.932-1.077-1.097c-0.238-0.07-0.48-0.083-0.725-0.066c-0.443,0.03-0.831,0.192-1.147,0.506
	c-0.437,0.432-0.617,0.968-0.587,1.572c0.028,0.551,0.247,1.009,0.731,1.31c0.295,0.184,0.624,0.255,0.97,0.251
	c0.661-0.005,1.201-0.253,1.566-0.816C27.333,33.869,27.418,33.305,27.27,32.719z M31.205,32.674
	c-0.009-0.575-0.354-0.997-0.903-1.098c-0.518-0.096-0.968,0.041-1.315,0.455c-0.033,0.039-0.068,0.077-0.112,0.125
	c-0.095-0.494-0.313-0.642-0.741-0.511c-0.006,0.034-0.013,0.06-0.018,0.087c-0.109,0.617-0.219,1.234-0.328,1.851
	c-0.066,0.371-0.134,0.742-0.196,1.114c-0.051,0.305,0.048,0.424,0.354,0.442c0.318,0.019,0.442-0.08,0.5-0.402
	c0.098-0.551,0.204-1.101,0.288-1.655c0.034-0.224,0.143-0.393,0.292-0.545c0.228-0.237,0.513-0.3,0.825-0.241
	c0.219,0.042,0.375,0.18,0.426,0.398c0.031,0.131,0.038,0.275,0.025,0.41c-0.02,0.204-0.064,0.405-0.101,0.607
	c-0.058,0.333-0.122,0.666-0.177,1c-0.047,0.286,0.049,0.404,0.337,0.427c0.331,0.027,0.459-0.069,0.518-0.396
	c0.089-0.497,0.18-0.993,0.263-1.491C31.173,33.06,31.207,32.865,31.205,32.674z M35.134,33.117c0.003-0.149-0.008-0.3-0.031-0.448
	c-0.09-0.57-0.453-0.951-1.013-1.079c-0.258-0.06-0.519-0.061-0.777-0.029c-0.779,0.097-1.324,0.501-1.6,1.247
	c-0.105,0.284-0.144,0.579-0.139,0.882c0.012,0.707,0.417,1.246,1.099,1.43c0.547,0.147,1.09,0.111,1.614-0.103
	c0.151-0.062,0.292-0.16,0.417-0.267c0.08-0.067,0.14-0.173,0.176-0.273c0.073-0.207-0.029-0.373-0.239-0.435
	c-0.074-0.021-0.118-0.001-0.174,0.051c-0.109,0.101-0.22,0.208-0.35,0.277c-0.362,0.193-0.753,0.225-1.146,0.116
	c-0.404-0.112-0.661-0.507-0.61-0.93c0.057,0,0.117,0,0.176,0c0.715,0,1.431,0.001,2.147-0.001
	C34.97,33.554,35.129,33.403,35.134,33.117z M42.782,32.896c-0.009-0.154-0.094-0.243-0.247-0.268
	c-0.054-0.008-0.111-0.006-0.166-0.007c-0.389,0-0.777,0-1.166,0c-0.089,0-0.178-0.001-0.266,0.002
	c-0.143,0.006-0.241,0.077-0.286,0.214c-0.021,0.063-0.038,0.128-0.044,0.193c-0.016,0.158,0.044,0.242,0.199,0.275
	c0.07,0.015,0.144,0.014,0.216,0.015c0.299,0.002,0.598,0,0.91,0c-0.07,0.534-0.433,1.065-1.075,1.157
	c-0.152,0.022-0.313,0.024-0.464,0.004c-0.526-0.069-0.907-0.345-1.056-0.861c-0.218-0.756-0.07-1.447,0.491-2.012
	c0.727-0.732,1.951-0.544,2.346,0.225c0.015,0.03,0.052,0.061,0.084,0.067c0.273,0.054,0.534-0.197,0.5-0.479
	c-0.021-0.172-0.104-0.315-0.218-0.44c-0.152-0.167-0.336-0.29-0.541-0.382c-0.479-0.215-0.984-0.27-1.499-0.19
	c-0.777,0.12-1.36,0.537-1.771,1.203c-0.025,0.04-0.053,0.078-0.08,0.118c-0.026-0.016-0.04-0.023-0.054-0.032
	c-0.265-0.18-0.537-0.146-0.736,0.101c-0.073,0.09-0.134,0.191-0.192,0.292c-0.321,0.557-0.639,1.118-0.959,1.676
	c-0.028,0.048-0.044,0.111-0.118,0.14c-0.107-0.498-0.211-0.985-0.317-1.472c-0.043-0.195-0.081-0.392-0.144-0.581
	c-0.068-0.208-0.208-0.286-0.426-0.262c-0.071,0.008-0.142,0.029-0.207,0.058c-0.203,0.089-0.221,0.132-0.167,0.343
	c0.233,0.925,0.466,1.85,0.703,2.774c0.025,0.1,0.012,0.178-0.042,0.265c-0.232,0.365-0.458,0.735-0.685,1.103
	c-0.029,0.047-0.061,0.094-0.08,0.145c-0.055,0.143,0.003,0.245,0.155,0.264c0.099,0.012,0.2,0.007,0.299,0.005
	c0.148-0.003,0.269-0.066,0.357-0.183c0.061-0.08,0.114-0.164,0.166-0.25c0.684-1.155,1.368-2.312,2.052-3.467
	c0.029-0.05,0.064-0.099,0.096-0.147c0.019,0.042,0.019,0.073,0.014,0.104c-0.063,0.354-0.06,0.708,0.017,1.059
	c0.131,0.6,0.458,1.051,1.018,1.32c0.375,0.18,0.773,0.232,1.184,0.208c0.419-0.024,0.792-0.16,1.09-0.467
	c0.013-0.014,0.035-0.02,0.06-0.033c0.005,0.032,0.009,0.053,0.012,0.075c0.048,0.289,0.254,0.43,0.54,0.372
	c0.091-0.019,0.14-0.06,0.158-0.161c0.104-0.613,0.217-1.224,0.325-1.835C42.781,33.063,42.787,32.979,42.782,32.896z
	 M45.564,32.532c0.249-0.103,0.37-0.308,0.346-0.571c-0.017-0.187-0.168-0.335-0.399-0.391c-0.017-0.004-0.033-0.007-0.049-0.009
	c-0.338-0.045-0.627,0.048-0.852,0.309c-0.068,0.08-0.126,0.167-0.211,0.28c-0.01-0.059-0.015-0.09-0.021-0.121
	c-0.048-0.314-0.269-0.474-0.58-0.421c-0.126,0.021-0.133,0.027-0.156,0.154c-0.063,0.349-0.125,0.698-0.187,1.048
	c-0.113,0.633-0.228,1.266-0.339,1.899c-0.046,0.263,0.051,0.391,0.312,0.424c0.351,0.044,0.48-0.049,0.544-0.396
	c0.058-0.316,0.112-0.633,0.167-0.95c0.051-0.29,0.111-0.577,0.23-0.848c0.072-0.164,0.161-0.316,0.295-0.438
	c0.22-0.198,0.541-0.219,0.784-0.05C45.49,32.477,45.529,32.506,45.564,32.532z M49.767,31.695
	c-0.173-0.116-0.347-0.116-0.522-0.064c-0.25,0.074-0.33,0.293-0.418,0.533c-0.032-0.041-0.05-0.062-0.065-0.084
	c-0.191-0.264-0.446-0.431-0.764-0.494c-0.579-0.114-1.09,0.029-1.522,0.429c-0.428,0.397-0.626,0.906-0.663,1.48
	c-0.021,0.315,0.024,0.621,0.162,0.907c0.238,0.493,0.633,0.757,1.181,0.788c0.511,0.029,0.938-0.133,1.245-0.559
	c0.011-0.015,0.03-0.024,0.058-0.045c0.005,0.1,0.006,0.183,0.014,0.264c0.009,0.098,0.046,0.183,0.135,0.236
	c0.283,0.168,0.623,0.008,0.662-0.313c0.018-0.143,0.022-0.288,0.046-0.43c0.111-0.667,0.226-1.333,0.339-1.999
	C49.692,32.127,49.729,31.91,49.767,31.695z M55.818,32.811c0.065-0.644-0.311-1.164-0.91-1.246
	c-0.535-0.074-0.987,0.087-1.335,0.511c-0.048,0.06-0.094,0.122-0.157,0.204c-0.022-0.05-0.037-0.08-0.05-0.11
	c-0.147-0.329-0.402-0.53-0.751-0.595c-0.49-0.09-0.911,0.048-1.25,0.42c-0.036,0.04-0.072,0.079-0.115,0.125
	c-0.106-0.465-0.362-0.623-0.741-0.466c-0.01,0.045-0.024,0.093-0.032,0.142c-0.132,0.748-0.265,1.497-0.396,2.245
	c-0.042,0.24-0.085,0.48-0.121,0.722c-0.033,0.223,0.058,0.336,0.278,0.366c0.375,0.051,0.525-0.057,0.591-0.429
	c0.1-0.568,0.201-1.136,0.299-1.705c0.057-0.321,0.343-0.626,0.657-0.699c0.454-0.105,0.773,0.134,0.792,0.598
	c0.003,0.094-0.001,0.189-0.017,0.282c-0.057,0.345-0.12,0.689-0.179,1.033c-0.033,0.191-0.068,0.382-0.094,0.575
	c-0.022,0.168,0.05,0.284,0.189,0.329c0.37,0.118,0.613-0.024,0.682-0.405c0.083-0.464,0.161-0.929,0.244-1.393
	c0.03-0.169,0.028-0.358,0.105-0.502c0.206-0.379,0.501-0.581,0.934-0.529c0.232,0.028,0.396,0.157,0.451,0.383
	c0.034,0.136,0.039,0.287,0.022,0.427c-0.03,0.271-0.086,0.537-0.132,0.805c-0.047,0.273-0.102,0.545-0.143,0.819
	c-0.043,0.283,0.049,0.394,0.33,0.418c0.337,0.03,0.467-0.069,0.527-0.406c0.077-0.431,0.155-0.863,0.229-1.294
	C55.761,33.229,55.796,33.02,55.818,32.811z M57.166,34.6c-0.002-0.293-0.237-0.525-0.531-0.524
	c-0.294,0.001-0.528,0.234-0.529,0.527c-0.002,0.298,0.245,0.542,0.541,0.535C56.938,35.131,57.168,34.893,57.166,34.6z
	 M57.095,34.616c-0.007,0.249-0.214,0.447-0.465,0.444c-0.25-0.002-0.451-0.207-0.45-0.456c0.001-0.25,0.206-0.454,0.455-0.454
	C56.889,34.149,57.103,34.365,57.095,34.616z M56.69,34.644c0.044-0.021,0.072-0.03,0.094-0.044c0.073-0.051,0.101-0.124,0.079-0.2
	c-0.023-0.078-0.089-0.096-0.156-0.101c-0.065-0.006-0.13-0.001-0.2-0.001c-0.024,0.108-0.054,0.199-0.062,0.291
	c-0.007,0.084-0.074,0.171,0.007,0.283c0.036-0.093,0.063-0.164,0.092-0.239c0.121,0.04,0.105,0.225,0.273,0.214
	C56.77,34.772,56.733,34.714,56.69,34.644z"/>
</svg>
