<?xml version="1.0" encoding="utf-8"?>
<!-- Generator: Adobe Illustrator 16.0.0, SVG Export Plug-In . SVG Version: 6.00 Build 0)  -->
<!DOCTYPE svg PUBLIC "-//W3C//DTD SVG 1.1//EN" "http://www.w3.org/Graphics/SVG/1.1/DTD/svg11.dtd">
<svg version="1.1" id="Layer_1" xmlns="http://www.w3.org/2000/svg" xmlns:xlink="http://www.w3.org/1999/xlink" x="0px" y="0px"
	 width="64px" height="64px" viewBox="0 0 64 64" enable-background="new 0 0 64 64" xml:space="preserve">
<path fill-rule="evenodd" clip-rule="evenodd" d="M54.196,34.546c-0.04,0.021-0.081,0.031-0.125,0.036
	c-0.099,0.009-0.199,0.004-0.298,0.016c-0.008,0-0.017,0-0.025,0c-0.061,0-0.058-0.001-0.064-0.062
	c-0.008-0.08-0.001-0.16-0.014-0.242c-0.011-0.074-0.002-0.077,0.078-0.081c0.089-0.004,0.179,0,0.267-0.015
	c0.049-0.008,0.098,0,0.145,0.014c0.078,0.021,0.133,0.084,0.137,0.162C54.298,34.45,54.266,34.509,54.196,34.546z M60.24,15.152
	v33.695c0,0.803-0.65,1.454-1.454,1.454H5.214c-0.804,0-1.454-0.651-1.454-1.454V15.152c0-0.803,0.65-1.454,1.454-1.454h53.572
	C59.59,13.698,60.24,14.35,60.24,15.152z M52.45,30.534c0.008-0.223-0.004-0.441-0.053-0.66c-0.065-0.287-0.194-0.542-0.393-0.763
	c-0.243-0.271-0.546-0.447-0.882-0.577c-0.354-0.136-0.721-0.209-1.097-0.249c-0.11-0.012-0.22-0.022-0.33-0.035
	c-0.049-0.004-0.099,0.016-0.146-0.011c-1.09,0-2.18,0-3.271,0c-0.054,0.287-0.108,0.573-0.161,0.861
	c-0.131,0.716-0.263,1.43-0.395,2.146c-0.117,0.637-0.235,1.271-0.353,1.907c-0.049,0.272-0.099,0.543-0.148,0.814
	c-0.015,0.082-0.016,0.084-0.096,0.084c-1.198,0-2.397,0-3.595,0c-0.026,0-0.054,0.002-0.085-0.012
	c0.017-0.093,0.033-0.186,0.05-0.278c0.058-0.313,0.117-0.627,0.174-0.94c0.014-0.077,0.015-0.077,0.091-0.077
	c0.442,0,0.884,0,1.326,0c0.255,0,0.509,0,0.765,0c0.114,0,0.103,0.011,0.123-0.1c0.079-0.444,0.162-0.889,0.242-1.332
	c0.01-0.059,0.009-0.06-0.049-0.06c-0.141-0.002-0.282,0-0.423,0c-0.564,0-1.128,0-1.692,0c-0.096,0-0.095,0-0.077-0.096
	c0.069-0.366,0.135-0.734,0.205-1.101c0.023-0.12-0.002-0.104,0.125-0.104c0.705-0.002,1.41-0.002,2.114-0.002
	c0.022,0,0.044-0.002,0.066,0.002c0.045,0.004,0.06-0.02,0.068-0.061c0.037-0.214,0.076-0.426,0.114-0.639
	c0.058-0.311,0.115-0.622,0.172-0.934c0.005-0.025,0.011-0.053,0.009-0.08c-1.589,0-3.179,0-4.769,0
	c-0.001,0.117-0.034,0.23-0.055,0.343c-0.064,0.368-0.135,0.734-0.203,1.103c-0.08,0.429-0.158,0.86-0.238,1.292
	c-0.095,0.516-0.19,1.03-0.284,1.546c-0.072,0.389-0.144,0.777-0.215,1.166c-0.011,0.063-0.013,0.064-0.079,0.064
	c-0.531,0-1.063,0-1.593,0c-0.072,0-0.075-0.005-0.062-0.074c0.1-0.534,0.199-1.069,0.299-1.603
	c0.095-0.513,0.189-1.027,0.285-1.539c0.1-0.544,0.202-1.085,0.303-1.627c0.039-0.204,0.077-0.41,0.114-0.614
	c0.003-0.019,0.003-0.038,0.003-0.057c-0.83,0-1.66,0-2.489,0c-0.118,0.642-0.237,1.28-0.354,1.922
	c-0.11,0.599-0.22,1.196-0.329,1.795c-0.107,0.577-0.214,1.154-0.321,1.73c-0.012,0.064-0.014,0.066-0.076,0.066
	c-0.517,0-1.035,0-1.552,0c-0.073,0-0.073-0.003-0.06-0.074c0.128-0.692,0.257-1.383,0.385-2.074c0.133-0.712,0.267-1.425,0.4-2.137
	c0.071-0.381,0.141-0.76,0.211-1.141c0.005-0.027,0.015-0.059,0.005-0.088c-0.83,0-1.66,0-2.49,0
	c-0.005,0.114-0.036,0.225-0.055,0.335c-0.061,0.339-0.125,0.676-0.187,1.014c-0.08,0.432-0.159,0.861-0.239,1.292
	c-0.083,0.455-0.167,0.91-0.25,1.365c-0.089,0.479-0.177,0.957-0.265,1.436c-0.02,0.106-0.043,0.213-0.059,0.319
	c-0.007,0.043-0.026,0.054-0.064,0.052c-0.016-0.002-0.032,0-0.049,0c-1.192,0-2.385,0-3.578-0.002
	c-0.102,0-0.114,0.026-0.089-0.109c0.069-0.373,0.135-0.745,0.202-1.117c0.014-0.079,0.014-0.079,0.1-0.079c0.693,0,1.388,0,2.082,0
	c0.022,0,0.043-0.002,0.065,0c0.036,0.003,0.054-0.011,0.06-0.048c0.084-0.472,0.17-0.942,0.255-1.414
	c0.001-0.002,0-0.005-0.001-0.009c-0.03-0.018-0.063-0.01-0.094-0.01c-0.692,0-1.382,0-2.074,0c-0.102,0-0.104,0-0.085-0.098
	c0.07-0.387,0.141-0.771,0.211-1.157c0.007-0.042,0.023-0.061,0.069-0.059c0.094,0.003,0.189,0,0.284,0c0.638,0,1.274,0,1.912,0
	c0.019,0,0.038-0.002,0.058,0.002c0.043,0.004,0.061-0.018,0.068-0.061c0.025-0.152,0.054-0.304,0.082-0.455
	c0.068-0.375,0.137-0.749,0.204-1.125c0.004-0.024,0.004-0.048,0.007-0.072c-4.941,0-9.882,0-14.824,0
	c-0.016,0.146-0.048,0.287-0.074,0.431c-0.095,0.521-0.19,1.044-0.286,1.563c-0.084,0.458-0.167,0.916-0.25,1.373
	c-0.068,0.371-0.137,0.743-0.205,1.115c-0.004,0.024-0.01,0.047-0.015,0.072c-0.026,0.001-0.026-0.02-0.031-0.031
	c-0.3-0.823-0.6-1.647-0.899-2.471c-0.241-0.662-0.484-1.321-0.726-1.983c-0.008-0.021-0.013-0.046-0.02-0.069
	c-0.862,0-1.725,0-2.587,0c-0.037,0.193-0.075,0.388-0.111,0.581c-0.116,0.627-0.23,1.255-0.347,1.88
	c-0.117,0.632-0.234,1.26-0.351,1.891c-0.111,0.603-0.221,1.207-0.332,1.81c-0.077,0.415-0.153,0.828-0.229,1.242
	c-0.005,0.025-0.012,0.048-0.031,0.065c0.001,0.025-0.01,0.063,0.041,0.05c0.01-0.004,0.021,0,0.033,0c0.805,0,1.61,0,2.416,0
	c-0.008-0.042,0.005-0.081,0.012-0.121c0.083-0.468,0.165-0.937,0.248-1.404c0.09-0.506,0.182-1.011,0.271-1.516
	c0.084-0.476,0.167-0.949,0.25-1.423c0.013-0.069,0.026-0.137,0.037-0.206c0.027-0.002,0.026,0.018,0.03,0.032
	c0.111,0.319,0.222,0.64,0.332,0.96c0.271,0.784,0.542,1.569,0.813,2.354c0.141,0.41,0.282,0.818,0.423,1.229
	c0.01,0.031,0.026,0.061,0.024,0.095c2.95,0,5.901,0,8.852,0c0.006-0.118,0.037-0.23,0.057-0.345
	c0.088-0.487,0.179-0.974,0.269-1.461c0.089-0.48,0.179-0.963,0.268-1.443c0.079-0.425,0.157-0.852,0.235-1.276
	c0.075-0.405,0.151-0.809,0.225-1.213c0.012-0.066,0.007-0.069,0.082-0.069c0.407,0,0.813,0,1.22,0c0.011,0,0.021,0.002,0.032,0.002
	c0.033-0.004,0.044,0.014,0.04,0.043c-0.013,0.078-0.025,0.156-0.04,0.233c-0.118,0.638-0.236,1.276-0.354,1.914
	c-0.117,0.627-0.233,1.255-0.349,1.882c-0.08,0.429-0.158,0.856-0.236,1.285c-0.028,0.149-0.054,0.298-0.081,0.448
	c7.746,0,15.491,0,23.236,0c0.005-0.115,0.035-0.225,0.055-0.338c0.067-0.373,0.136-0.749,0.205-1.124
	c0.095-0.516,0.19-1.031,0.286-1.547c0.037-0.2,0.073-0.399,0.109-0.599c0.028,0.003,0.025,0.026,0.029,0.043
	c0.168,0.562,0.336,1.125,0.503,1.688c0.182,0.614,0.366,1.228,0.547,1.843c0.003,0.011,0.005,0.022,0.007,0.033
	c0.825,0,1.649,0,2.474,0c-0.087-0.233-0.172-0.469-0.261-0.7c-0.276-0.736-0.552-1.47-0.828-2.204
	c-0.034-0.088-0.033-0.089,0.06-0.107c0.23-0.047,0.459-0.103,0.675-0.198c0.596-0.264,0.986-0.708,1.168-1.334
	C52.413,30.992,52.441,30.766,52.45,30.534z M55.065,34.504c-0.026-0.047-0.017-0.101-0.031-0.15
	c-0.156-0.544-0.691-0.893-1.268-0.791c-0.578,0.103-0.984,0.649-0.9,1.235c0.065,0.451,0.321,0.749,0.746,0.91
	c0.05,0.019,0.105,0.021,0.152,0.05c0.131,0,0.26,0,0.39,0c0.087-0.034,0.182-0.049,0.268-0.09c0.322-0.153,0.529-0.4,0.62-0.745
	c0.011-0.042,0-0.088,0.023-0.127C55.065,34.699,55.065,34.602,55.065,34.504z M21.239,29.95c-0.019,0-0.038,0-0.058,0
	c-0.379,0-0.759,0-1.139,0c-0.8,0-1.6,0-2.4,0c-0.086,0-0.086,0.002-0.101,0.086c-0.065,0.371-0.129,0.742-0.193,1.111
	c-0.017,0.099-0.017,0.099,0.086,0.099c0.706,0,1.41,0,2.115,0c0.021,0,0.043,0,0.065,0c0.053,0.003,0.054,0.003,0.046,0.055
	c-0.005,0.036-0.012,0.069-0.018,0.104c-0.074,0.411-0.147,0.82-0.222,1.229c-0.021,0.11-0.022,0.11-0.131,0.11
	c-0.724,0-1.448,0-2.172,0c-0.083,0-0.082,0-0.096,0.08c-0.02,0.106-0.04,0.213-0.06,0.32c-0.054,0.296-0.109,0.595-0.164,0.896
	c0.027,0.014,0.049,0.012,0.071,0.012c1.204,0,2.408,0,3.612,0c0.075,0,0.075-0.002,0.088-0.075
	c0.071-0.391,0.143-0.781,0.214-1.173c0.08-0.428,0.16-0.855,0.238-1.283c0.07-0.378,0.14-0.757,0.208-1.133
	c0.022-0.123,0.046-0.246,0.066-0.368C21.31,29.956,21.306,29.952,21.239,29.95z M49.54,29.894
	c-0.154-0.063-0.314-0.095-0.479-0.111c-0.172-0.018-0.345-0.016-0.518-0.016c-0.126,0-0.126,0-0.149,0.125
	c-0.081,0.438-0.162,0.876-0.243,1.314c-0.03,0.162-0.061,0.325-0.091,0.487c-0.015,0.079-0.015,0.079,0.069,0.08
	c0.111,0,0.222,0,0.333,0c0.151-0.001,0.303,0.003,0.453-0.018c0.187-0.022,0.369-0.062,0.54-0.14
	c0.23-0.109,0.399-0.274,0.496-0.513c0.063-0.156,0.078-0.319,0.075-0.486C50.021,30.293,49.84,30.021,49.54,29.894z M54.873,34.654
	c0.02,0.47-0.403,0.916-0.911,0.913c-0.448-0.002-0.908-0.364-0.91-0.912c-0.001-0.506,0.404-0.913,0.915-0.912
	C54.491,33.743,54.888,34.188,54.873,34.654z M54.601,35.21c-0.133-0.176-0.232-0.37-0.419-0.505
	c0.03-0.012,0.054-0.017,0.077-0.025c0.221-0.083,0.28-0.365,0.113-0.533c-0.064-0.064-0.143-0.083-0.229-0.084
	c-0.179-0.005-0.357,0.014-0.535,0.02c-0.113,0.005-0.113,0.005-0.107,0.119c0,0.011,0.002,0.021,0.003,0.032
	c0.009,0.179,0.02,0.355,0.028,0.533c0.007,0.138,0.011,0.277,0.019,0.414c0.004,0.098,0.006,0.095,0.101,0.092
	c0.068-0.002,0.067-0.01,0.065-0.071c-0.005-0.113-0.012-0.226-0.015-0.34c-0.001-0.034-0.02-0.075,0.002-0.103
	c0.022-0.029,0.066-0.009,0.1-0.017c0.139-0.031,0.247,0.012,0.333,0.128c0.078,0.104,0.151,0.21,0.229,0.315
	c0.014,0.019,0.025,0.047,0.052,0.047C54.475,35.232,54.535,35.248,54.601,35.21z"/>
</svg>
