<?xml version="1.0" encoding="utf-8"?>
<!-- Generator: Adobe Illustrator 16.0.0, SVG Export Plug-In . SVG Version: 6.00 Build 0)  -->
<!DOCTYPE svg PUBLIC "-//W3C//DTD SVG 1.1//EN" "http://www.w3.org/Graphics/SVG/1.1/DTD/svg11.dtd">
<svg version="1.1" id="Layer_1" xmlns="http://www.w3.org/2000/svg" xmlns:xlink="http://www.w3.org/1999/xlink" x="0px" y="0px"
	 width="64px" height="64px" viewBox="0 0 64 64" enable-background="new 0 0 64 64" xml:space="preserve">
<path fill-rule="evenodd" clip-rule="evenodd" d="M33.735,29.387c0.142,1.019-0.138,1.924-0.872,2.658
	c-0.504,0.502-1.128,0.744-1.644,0.754c-1.05,0.002-1.701-0.505-1.858-1.318c-0.106-0.543-0.003-1.072,0.199-1.577
	c0.349-0.877,0.938-1.514,1.866-1.787c0.401-0.117,0.811-0.13,1.215-0.007C33.276,28.301,33.647,28.748,33.735,29.387z
	 M19.857,35.04c-0.217,0.142-0.208,0.362,0.003,0.516c0.138,0.099,0.298,0.177,0.459,0.231c0.628,0.214,1.287,0.208,2.059,0.254
	c0.27-0.034,0.659-0.069,1.043-0.135c0.28-0.049,0.552-0.146,0.762-0.355c0.196-0.195,0.187-0.404-0.032-0.57
	c-0.108-0.081-0.228-0.159-0.354-0.203c-0.331-0.113-0.665-0.217-1.003-0.306c-0.209-0.055-0.435-0.133-0.64-0.104
	c-0.529,0.078-1.057,0.189-1.574,0.327C20.324,34.763,20.08,34.896,19.857,35.04z M14.158,28.032
	c-0.669,0.02-1.357,0.432-1.88,1.145c-0.379,0.517-0.573,1.105-0.622,1.739c-0.039,0.514,0.07,0.993,0.442,1.377
	c0.478,0.491,1.076,0.591,1.716,0.465c1.719-0.337,2.456-2.003,2.253-3.352C15.932,28.518,15.303,28.031,14.158,28.032z
	 M23.837,28.458c-0.386-0.18-0.791-0.241-1.214-0.183c-0.595,0.083-1.096,0.335-1.443,0.837c-0.329,0.475-0.246,1.06,0.188,1.44
	c0.38,0.334,0.84,0.429,1.364,0.451c0.094-0.01,0.226-0.018,0.355-0.037c0.484-0.073,0.9-0.276,1.21-0.666
	c0.19-0.241,0.306-0.521,0.284-0.83C24.55,28.982,24.268,28.658,23.837,28.458z M60.24,15.152v33.695
	c0,0.803-0.65,1.454-1.454,1.454H5.214c-0.804,0-1.454-0.651-1.454-1.454V15.152c0-0.803,0.65-1.454,1.454-1.454h53.572
	C59.59,13.698,60.24,14.35,60.24,15.152z M17.286,32.134c0.641-0.86,0.886-1.833,0.677-2.891c-0.183-0.918-0.789-1.503-1.622-1.863
	c-0.701-0.304-1.44-0.384-2.201-0.353c-0.847,0.034-1.651,0.223-2.383,0.65c-1.335,0.782-2.084,1.915-2.022,3.507
	c0.039,0.991,0.501,1.729,1.366,2.209c0.703,0.388,1.472,0.498,2.269,0.536c0.42-0.054,0.849-0.08,1.263-0.169
	C15.703,33.532,16.623,33.028,17.286,32.134z M35.695,29.684c-0.041-0.859-0.424-1.532-1.133-2.001
	c-1.024-0.68-2.175-0.761-3.35-0.598c-0.482,0.067-0.959,0.138-1.449,0.135c-2.323-0.01-4.646-0.004-6.971-0.004
	c-0.464,0-0.921,0.061-1.365,0.189c-0.712,0.209-1.356,0.538-1.809,1.146c-0.469,0.632-0.619,1.319-0.232,2.051
	c0.199,0.377,0.534,0.62,0.907,0.811c0.163,0.084,0.336,0.152,0.499,0.226c-0.262,0.082-0.524,0.155-0.78,0.248
	c-0.293,0.105-0.569,0.248-0.789,0.477c-0.302,0.313-0.302,0.728,0.024,1.008c0.166,0.143,0.368,0.252,0.57,0.341
	c0.259,0.112,0.534,0.188,0.77,0.267c-0.368,0.073-0.771,0.141-1.168,0.234c-0.41,0.097-0.813,0.222-1.162,0.474
	c-0.248,0.18-0.387,0.412-0.347,0.73c0.029,0.234,0.153,0.417,0.318,0.574c0.296,0.285,0.658,0.457,1.041,0.585
	c1.048,0.35,2.128,0.438,3.226,0.402c0.524-0.019,1.042-0.073,1.551-0.193c0.598-0.14,1.169-0.347,1.641-0.761
	c0.602-0.526,0.56-1.347-0.007-1.821c-0.343-0.287-0.746-0.449-1.165-0.579c-0.86-0.265-1.756-0.356-2.636-0.524
	c-0.312-0.06-0.621-0.146-0.917-0.26c-0.21-0.08-0.215-0.273-0.023-0.396c0.117-0.076,0.253-0.144,0.389-0.167
	c0.589-0.102,1.178-0.196,1.77-0.274c0.597-0.078,1.181-0.19,1.73-0.443c0.498-0.228,0.942-0.529,1.239-1.002
	c0.417-0.66,0.485-1.523-0.119-2.167c-0.048-0.05-0.093-0.102-0.148-0.162c0.952,0,1.887,0,2.832,0
	c-0.135,0.147-0.264,0.277-0.38,0.417c-0.702,0.851-0.984,1.828-0.809,2.914c0.16,0.975,0.752,1.632,1.656,1.988
	c1.175,0.463,2.381,0.464,3.584,0.12C34.389,33.177,35.792,31.749,35.695,29.684z M44.059,27.415
	c-0.652-0.336-1.35-0.347-2.053-0.248c-0.772,0.109-1.468,0.424-2.106,0.866c-0.148,0.101-0.293,0.206-0.467,0.328
	c0.072-0.349,0.127-0.668,0.204-0.981c0.035-0.145-0.016-0.165-0.14-0.164c-0.467,0.003-0.936-0.001-1.403,0.001
	c-0.374,0.002-0.304-0.045-0.38,0.313c-0.375,1.754-0.745,3.508-1.117,5.261c-0.062,0.292-0.121,0.583-0.187,0.894
	c0.085,0.007,0.144,0.017,0.202,0.017c0.487,0,0.976-0.005,1.464,0.004c0.15,0.002,0.212-0.047,0.243-0.194
	c0.268-1.258,0.541-2.516,0.819-3.771c0.02-0.086,0.07-0.188,0.139-0.236c0.413-0.297,0.818-0.605,1.256-0.861
	c0.516-0.302,1.074-0.504,1.693-0.459c0.422,0.031,0.798,0.301,0.871,0.686c0.04,0.213,0.045,0.448,0.001,0.66
	c-0.235,1.146-0.491,2.288-0.74,3.432c-0.051,0.235-0.097,0.473-0.146,0.705c0.032,0.017,0.046,0.029,0.059,0.029
	c0.569,0.002,1.139,0.006,1.709,0.001c0.036,0,0.093-0.058,0.106-0.099c0.043-0.14,0.072-0.285,0.104-0.428
	c0.283-1.245,0.59-2.484,0.841-3.736C45.197,28.608,44.839,27.816,44.059,27.415z M54.255,29.401
	c-0.114-0.879-0.622-1.494-1.385-1.904c-0.71-0.382-1.476-0.502-2.277-0.472c-0.647,0.024-1.271,0.138-1.869,0.377
	c-0.965,0.388-1.76,0.99-2.209,1.95c-0.483,1.033-0.481,2.069,0.169,3.043c0.434,0.648,1.08,1.019,1.811,1.248
	c0.805,0.253,1.631,0.287,2.469,0.221c0.774-0.061,1.518-0.245,2.24-0.529c0.242-0.096,0.393-0.222,0.424-0.499
	c0.032-0.279,0.115-0.552,0.186-0.873c-0.102,0.043-0.155,0.067-0.211,0.088c-0.507,0.192-1.007,0.41-1.523,0.569
	c-0.813,0.25-1.644,0.316-2.475,0.086c-1.014-0.281-1.689-0.996-1.494-2.146c0.025-0.146,0.069-0.212,0.238-0.212
	c1.881,0.008,3.763,0.005,5.645,0.005c0.04,0,0.087,0.013,0.12-0.003c0.047-0.022,0.117-0.063,0.119-0.1
	C54.25,29.967,54.292,29.679,54.255,29.401z M51.511,28.185c-0.356-0.112-0.72-0.134-1.096-0.098
	c-0.908,0.085-1.524,0.571-1.956,1.385c0.077,0,0.128,0,0.177,0c1.204,0,2.409,0,3.612,0c0.211,0,0.234-0.03,0.193-0.241
	C52.339,28.697,52.026,28.348,51.511,28.185z"/>
</svg>
