<?xml version="1.0" encoding="utf-8"?>
<!-- Generator: Adobe Illustrator 16.0.0, SVG Export Plug-In . SVG Version: 6.00 Build 0)  -->
<!DOCTYPE svg PUBLIC "-//W3C//DTD SVG 1.1//EN" "http://www.w3.org/Graphics/SVG/1.1/DTD/svg11.dtd">
<svg version="1.1" id="Layer_1" xmlns="http://www.w3.org/2000/svg" xmlns:xlink="http://www.w3.org/1999/xlink" x="0px" y="0px"
	 width="64px" height="64px" viewBox="0 0 64 64" enable-background="new 0 0 64 64" xml:space="preserve">
<g>
	<path d="M19.007,28.576c-0.766-0.365-1.553-0.338-2.348-0.12c-2.267,0.627-3.215,2.807-2.71,4.704
		c0.504,1.865,2.336,2.892,4.21,2.582c1.843-0.312,3.061-1.896,3.038-3.618c0.003-0.463-0.078-0.919-0.239-1.35
		C20.593,29.789,19.97,29.024,19.007,28.576z"/>
	<path d="M47.23,35.816c1.83-0.309,3.049-1.789,3.049-3.622c0-0.483-0.05-0.895-0.233-1.355c-0.376-0.971-0.985-1.735-1.952-2.197
		c-0.821-0.384-1.658-0.327-2.497-0.062c-2.378,0.745-3.175,3.242-2.417,5.074C43.824,35.244,45.503,36.111,47.23,35.816z"/>
	<path d="M60.24,23.2v-8.048c0-0.803-0.65-1.454-1.454-1.454H5.214c-0.804,0-1.454,0.651-1.454,1.454V23.2H60.24z"/>
	<path d="M28.352,34.049c-0.025,0.032-0.05,0.06-0.07,0.089c-0.356,0.457-0.709,0.91-1.061,1.37
		c-0.719,0.934-1.429,1.874-2.153,2.799c-0.355,0.464-0.726,0.926-1.28,1.193H60.24v-15H44.952c-0.312,0.021-0.611,0.07-0.928,0.177
		c-1.328,0.457-2.394,1.325-3.243,2.427c-1.229,1.582-2.396,3.208-3.595,4.819c-0.067,0.102-0.082,0.162,0,0.271
		c1.035,1.38,2.058,2.771,3.093,4.161c0.039,0.053,0.078,0.119,0.106,0.178c0.178,0.505,0.117,0.967-0.264,1.371
		c-0.483,0.522-1.327,0.484-1.763-0.08c-0.903-1.156-1.807-2.316-2.714-3.482c-0.043-0.049-0.082-0.104-0.136-0.165
		c-0.032,0.042-0.068,0.083-0.093,0.116c-0.924,1.195-1.829,2.385-2.756,3.574c-0.248,0.322-0.587,0.504-0.991,0.442
		c-0.582-0.083-0.937-0.443-1.115-0.985c-0.106-0.319-0.039-0.62,0.159-0.891c1.04-1.408,2.083-2.824,3.133-4.24
		c0.063-0.069,0.063-0.122,0.003-0.19c-0.383-0.523-0.774-1.048-1.171-1.571c-0.058-0.08-0.058-0.122,0-0.202
		c0.44-0.638,0.884-1.268,1.329-1.91c0.021-0.039,0.062-0.074,0.093-0.125c0.469,0.596,0.938,1.17,1.407,1.758
		c0.048-0.05,0.071-0.088,0.106-0.126c0.918-1.204,1.841-2.396,2.768-3.586c0.493-0.644,0.928-1.35,1.681-1.742H3.76v15h15.05
		c0.354-0.01,0.695-0.066,1.021-0.184c1.336-0.453,2.395-1.312,3.237-2.399c1.232-1.608,2.421-3.253,3.628-4.873
		c0.06-0.081,0.049-0.14-0.009-0.211c-0.917-1.239-1.842-2.477-2.762-3.717c-0.139-0.188-0.308-0.361-0.41-0.58
		c-0.381-0.77,0.061-1.575,0.766-1.757c0.503-0.134,0.906-0.003,1.219,0.402c0.867,1.11,1.732,2.219,2.599,3.325
		c0.082,0.104,0.167,0.213,0.25,0.322c0.041-0.042,0.065-0.08,0.092-0.112c0.917-1.197,1.842-2.393,2.765-3.594
		c0.226-0.296,0.532-0.463,0.916-0.443c0.458,0.037,0.798,0.282,1.042,0.665c0.265,0.444,0.25,0.867-0.058,1.273
		c-1.031,1.392-2.058,2.784-3.086,4.173c-0.06,0.088-0.068,0.139,0,0.235c0.326,0.423,0.651,0.864,0.98,1.309
		c0.088,0.11,0.168,0.222,0.249,0.344c-0.495,0.704-0.988,1.407-1.489,2.134C29.29,35.211,28.825,34.638,28.352,34.049z
		 M42.333,27.632c0.777-0.829,1.73-1.389,2.858-1.66c0.728-0.173,1.452-0.18,2.211-0.071c0.936,0.141,1.806,0.442,2.586,0.976
		c1.328,0.887,2.135,2.125,2.483,3.668c0.099,0.491,0.162,0.979,0.156,1.479c-0.021,1.751-0.582,3.302-1.769,4.591
		c-0.949,1.006-2.08,1.632-3.457,1.786c-2.285,0.246-4.138-0.554-5.562-2.309c-0.719-0.868-1.161-1.895-1.298-3.013
		C40.274,30.985,40.881,29.164,42.333,27.632z M22.205,36.011c-0.91,1.228-2.127,2.017-3.644,2.276
		c-1.789,0.301-3.404-0.131-4.823-1.267c-1.292-1.028-2.037-2.392-2.289-4.017c-0.018-0.076-0.027-0.156-0.036-0.234
		c-0.014-0.234-0.023-0.464-0.043-0.686c0.125-2.578,1.245-4.537,3.545-5.76c0.926-0.484,1.92-0.645,2.96-0.545
		c1.251,0.106,2.397,0.504,3.383,1.29c1.108,0.855,1.813,1.977,2.099,3.345C23.797,32.446,23.441,34.328,22.205,36.011z"/>
	<path d="M3.76,40.8v8.048c0,0.803,0.65,1.453,1.454,1.453h53.572c0.804,0,1.454-0.65,1.454-1.453V40.8H3.76z"/>
</g>
</svg>
