<?xml version="1.0" encoding="utf-8"?>
<!-- Generator: Adobe Illustrator 16.0.0, SVG Export Plug-In . SVG Version: 6.00 Build 0)  -->
<!DOCTYPE svg PUBLIC "-//W3C//DTD SVG 1.1//EN" "http://www.w3.org/Graphics/SVG/1.1/DTD/svg11.dtd">
<svg version="1.1" id="Layer_1" xmlns="http://www.w3.org/2000/svg" xmlns:xlink="http://www.w3.org/1999/xlink" x="0px" y="0px"
	 width="64px" height="64px" viewBox="0 0 64 64" enable-background="new 0 0 64 64" xml:space="preserve">
<path fill-rule="evenodd" clip-rule="evenodd" d="M34.663,26.73c0.471-0.007,0.996,0.034,1.343-0.085
	c0.188-0.058,0.342-0.144,0.465-0.259c0.246-0.23,0.367-0.548,0.367-0.957c0-0.199-0.028-0.375-0.083-0.527
	c-0.057-0.153-0.141-0.283-0.253-0.391c-0.226-0.214-0.564-0.322-1.017-0.322h-2.076v4.042h1.254V26.73z M34.663,25.01
	c0.229,0.004,0.496-0.015,0.65,0.033c0.079,0.022,0.14,0.055,0.183,0.1c0.084,0.088,0.126,0.196,0.126,0.322
	c-0.001,0.116-0.034,0.224-0.146,0.321c-0.098,0.084-0.267,0.125-0.507,0.125h-0.306V25.01z M40.658,30.02h1.122v2.928h-1.122V30.02
	z M38.015,26.091c0.082-0.117,0.155-0.136,0.27-0.166c0.068-0.015,0.149-0.022,0.241-0.022c0.118,0.001,0.22,0.012,0.3,0.083
	c0.057,0.055,0.085,0.152,0.085,0.29c-0.135,0.054-0.267,0.099-0.397,0.134c-0.125,0.034-0.398,0.093-0.819,0.178
	c-0.176,0.035-0.323,0.08-0.444,0.132c-0.121,0.054-0.214,0.116-0.279,0.188c-0.065,0.072-0.114,0.154-0.146,0.245
	c-0.033,0.092-0.049,0.193-0.049,0.305c0,0.118,0.022,0.228,0.068,0.327c0.045,0.099,0.113,0.189,0.204,0.271
	c0.181,0.162,0.446,0.243,0.795,0.243c0.243-0.001,0.474-0.034,0.692-0.122c0.146-0.061,0.292-0.162,0.438-0.304
	c0.007,0.043,0.013,0.079,0.02,0.11c0.016,0.068,0.022,0.104,0.102,0.249h1.054c-0.03-0.061-0.054-0.116-0.073-0.166
	c-0.046-0.121-0.067-0.22-0.067-0.457v-1.293c-0.001-0.292-0.128-0.639-0.31-0.786c-0.067-0.06-0.145-0.109-0.229-0.149
	c-0.085-0.039-0.179-0.068-0.281-0.087c-0.204-0.037-0.474-0.057-0.811-0.057c-0.354-0.002-0.799,0.058-1.009,0.18
	c-0.071,0.04-0.134,0.082-0.189,0.129c-0.055,0.046-0.102,0.097-0.14,0.15c-0.076,0.108-0.134,0.255-0.175,0.443l1.072,0.112
	C37.96,26.188,37.986,26.135,38.015,26.091z M38.894,27.21c-0.024,0.133-0.097,0.273-0.279,0.373
	c-0.107,0.061-0.224,0.091-0.349,0.091c-0.102-0.001-0.193-0.016-0.271-0.084c-0.062-0.056-0.093-0.128-0.093-0.217
	c0-0.071,0.026-0.141,0.094-0.207c0.03-0.029,0.082-0.059,0.154-0.088c0.071-0.03,0.165-0.061,0.279-0.091
	c0.163-0.042,0.324-0.09,0.482-0.146C38.91,26.969,38.917,27.107,38.894,27.21z M34.663,31.448c0.471-0.008,0.996,0.033,1.343-0.086
	c0.188-0.057,0.342-0.144,0.465-0.259c0.246-0.229,0.367-0.548,0.367-0.957c0-0.198-0.028-0.375-0.083-0.527
	c-0.057-0.152-0.141-0.283-0.253-0.391c-0.226-0.214-0.564-0.322-1.017-0.322h-2.076v4.042h1.254V31.448z M34.663,29.728
	c0.229,0.004,0.496-0.016,0.65,0.032c0.079,0.023,0.14,0.055,0.183,0.1c0.084,0.089,0.126,0.196,0.126,0.323
	c-0.001,0.116-0.034,0.224-0.146,0.321c-0.098,0.084-0.267,0.126-0.507,0.126h-0.306V29.728z M43.421,30.497
	c0.156-0.195,0.314-0.334,0.474-0.418c0.181-0.094,0.376-0.125,0.584-0.125c0.311,0,0.554,0.091,0.729,0.276
	c0.088,0.093,0.154,0.21,0.198,0.353c0.043,0.143,0.065,0.311,0.065,0.503v1.861h-1.127v-1.61c0-0.184-0.034-0.314-0.102-0.39
	c-0.084-0.091-0.181-0.113-0.287-0.115c-0.136,0-0.246,0.052-0.331,0.154c-0.042,0.051-0.074,0.124-0.095,0.216
	c-0.021,0.092-0.032,0.205-0.032,0.338v1.407h-1.122V30.02h1.045V30.497z M46.25,30.841h-0.413V30.02h0.413v-0.538l1.125-0.577
	v1.114h0.618v0.821h-0.618v1.038c0,0.062,0.003,0.114,0.009,0.155s0.015,0.072,0.027,0.092c0.105,0.137,0.211,0.093,0.342,0.076
	c0.058-0.012,0.124-0.03,0.198-0.054l0.083,0.775c-0.264,0.057-0.524,0.091-0.777,0.091c-0.28,0-0.485-0.036-0.618-0.107
	c-0.132-0.071-0.23-0.18-0.294-0.326c-0.032-0.073-0.055-0.168-0.071-0.287c-0.016-0.118-0.023-0.259-0.023-0.423V30.841z
	 M41.253,28.23l-1.229-2.927h1.184l0.604,1.949l0.561-1.949h1.106l-1.162,3.128c-0.066,0.178-0.133,0.328-0.2,0.448
	c-0.068,0.121-0.135,0.211-0.205,0.274c-0.097,0.089-0.22,0.155-0.368,0.199c-0.148,0.043-0.323,0.066-0.521,0.066
	c-0.082,0-0.184-0.005-0.31-0.017c-0.125-0.012-0.272-0.028-0.44-0.049l-0.088-0.784c0.173,0.055,0.354,0.077,0.54,0.077
	c0.132,0,0.239-0.03,0.321-0.091c0.041-0.03,0.079-0.072,0.113-0.127C41.193,28.375,41.224,28.309,41.253,28.23z M32.315,28.775
	c0.176-0.27,0.312-0.58,0.4-0.932c0.088-0.353,0.127-0.747,0.117-1.129s-0.073-0.752-0.177-1.075
	c-0.104-0.322-0.249-0.595-0.44-0.837c-0.191-0.242-0.427-0.451-0.708-0.623c-0.281-0.173-0.607-0.309-1.006-0.401
	c-0.399-0.093-0.872-0.134-1.342-0.134h-5.636v0.006c0.375,0.046,0.748,0.135,1.072,0.272c0.312,0.132,0.579,0.304,0.804,0.504
	c0.225,0.201,0.409,0.431,0.552,0.698c0.144,0.268,0.25,0.574,0.311,0.917c0.062,0.342,0.08,0.723,0.052,1.088
	c-0.028,0.365-0.101,0.715-0.217,1.027c-0.117,0.312-0.276,0.586-0.475,0.824c-0.2,0.238-0.439,0.439-0.72,0.608
	c-0.28,0.169-0.599,0.312-0.934,0.395c-0.151,0.047-0.305,0.069-0.452,0.098v-6.419c-0.27-0.033-0.553-0.05-0.839-0.05h-5.635v9.278
	h3.405v-2.701c0.727-0.002,1.454,0.006,2.182-0.005c0.109-0.005,0.218-0.003,0.325-0.019c0.192-0.012,0.382-0.036,0.569-0.066v2.823
	h3.405v-2.701c0.728-0.002,1.455,0.006,2.182-0.006c0.109-0.004,0.218-0.002,0.326-0.018c0.44-0.029,0.88-0.106,1.258-0.232
	c0.377-0.126,0.694-0.295,0.962-0.494C31.921,29.272,32.138,29.044,32.315,28.775z M23.027,27.14
	c-0.038,0.177-0.109,0.346-0.265,0.507c-0.068,0.07-0.151,0.133-0.247,0.188c-0.336,0.199-0.803,0.238-1.239,0.236h-0.831v-2.333
	c0.538,0.011,1.074-0.039,1.615,0.047c0.117,0.02,0.23,0.053,0.331,0.098c0.101,0.043,0.188,0.098,0.265,0.161
	C23.025,26.373,23.093,26.733,23.027,27.14z M29.508,27.171c-0.038,0.178-0.109,0.346-0.265,0.506
	c-0.069,0.07-0.151,0.134-0.247,0.189c-0.336,0.2-0.804,0.238-1.239,0.235h-0.831V25.77c0.539,0.012,1.074-0.039,1.616,0.047
	c0.117,0.02,0.23,0.054,0.331,0.097c0.101,0.044,0.188,0.098,0.265,0.161C29.506,26.403,29.574,26.764,29.508,27.171z
	 M39.837,30.464c-0.15-0.17-0.336-0.298-0.557-0.382c-0.222-0.085-0.479-0.127-0.772-0.127c-0.256,0-0.486,0.036-0.69,0.108
	c-0.204,0.073-0.381,0.181-0.531,0.326c-0.302,0.29-0.453,0.658-0.453,1.104c0,0.24,0.044,0.457,0.134,0.651
	c0.089,0.193,0.223,0.364,0.401,0.513c0.146,0.119,0.313,0.209,0.504,0.269c0.19,0.059,0.402,0.089,0.638,0.089
	c0.264,0,0.499-0.036,0.706-0.108c0.207-0.072,0.385-0.18,0.534-0.323c0.299-0.288,0.448-0.657,0.448-1.107
	c0-0.201-0.03-0.385-0.09-0.553C40.047,30.753,39.958,30.601,39.837,30.464z M39.031,31.831c-0.026,0.099-0.065,0.179-0.117,0.241
	c-0.104,0.123-0.236,0.185-0.399,0.185c-0.143-0.001-0.276-0.045-0.397-0.188c-0.106-0.125-0.159-0.318-0.159-0.579
	c0-0.129,0.013-0.241,0.04-0.336c0.026-0.096,0.067-0.175,0.121-0.238c0.106-0.126,0.241-0.189,0.405-0.189
	c0.139,0.001,0.269,0.046,0.389,0.187c0.104,0.124,0.158,0.313,0.158,0.566C39.071,31.615,39.058,31.732,39.031,31.831z
	 M58.786,13.698H5.214c-0.804,0-1.454,0.651-1.454,1.454v33.695c0,0.803,0.65,1.454,1.454,1.454h53.572
	c0.804,0,1.454-0.651,1.454-1.454V15.152C60.24,14.349,59.59,13.698,58.786,13.698z M14.813,20.313h34.342l-0.001,14.39
	l-17.16,4.283l-17.181-4.286V20.313z M53.162,43.687H10.838v-15.47h2.824v7.085L31.9,39.85l18.216-4.547l0-7.087h3.045V43.687z"/>
</svg>
