<?xml version="1.0" encoding="utf-8"?>
<!-- Generator: Adobe Illustrator 16.0.0, SVG Export Plug-In . SVG Version: 6.00 Build 0)  -->
<!DOCTYPE svg PUBLIC "-//W3C//DTD SVG 1.1//EN" "http://www.w3.org/Graphics/SVG/1.1/DTD/svg11.dtd">
<svg version="1.1" id="Layer_1" xmlns="http://www.w3.org/2000/svg" xmlns:xlink="http://www.w3.org/1999/xlink" x="0px" y="0px"
	 width="64px" height="64px" viewBox="0 0 64 64" enable-background="new 0 0 64 64" xml:space="preserve">
<path fill-rule="evenodd" clip-rule="evenodd" d="M25.736,44.019c0.042-0.003,0.083-0.006,0.125-0.009
	c-0.006,0.4-0.073,0.708-0.305,0.959c-0.151,0.163-0.343,0.207-0.561,0.13c-0.119-0.042-0.243-0.128-0.261-0.445
	c-0.003-0.051-0.001-0.103,0.001-0.153c0.017-0.321,0.172-0.391,0.321-0.416C25.276,44.046,25.5,44.032,25.736,44.019z
	 M22.786,43.777c0.001-0.05,0.002-0.1-0.001-0.149c-0.027-0.345-0.081-0.623-0.256-0.857c-0.093-0.125-0.228-0.196-0.368-0.196
	c-0.138,0-0.264,0.066-0.354,0.188c-0.068,0.091-0.126,0.205-0.169,0.33c-0.11,0.329-0.139,0.689-0.085,1.072
	c0.036,0.254,0.096,0.48,0.179,0.671c0.1,0.23,0.292,0.33,0.526,0.285c0.188-0.036,0.317-0.165,0.384-0.383
	c0.061-0.199,0.099-0.404,0.14-0.621c0.007-0.036,0.014-0.072,0.021-0.107l-0.016-0.004L22.786,43.777z M36.538,43.92
	c-0.271,0.102-0.386,0.33-0.352,0.62c0.032,0.268,0.197,0.439,0.489,0.479c0.123,0.017,0.253,0.007,0.376-0.017
	c0.398-0.076,0.719-0.394,0.736-0.726c0.011-0.217,0.002-0.435,0.002-0.646c-0.217,0.045-0.42,0.084-0.621,0.13
	C36.957,43.809,36.74,43.845,36.538,43.92z M42.294,42.207c-0.51-0.03-0.929,0.445-0.941,1.085c0.603,0,1.197,0,1.79,0
	C43.2,42.737,42.804,42.237,42.294,42.207z M60.24,15.152v33.695c0,0.803-0.65,1.454-1.454,1.454H5.214
	c-0.804,0-1.454-0.651-1.454-1.454V15.152c0-0.803,0.65-1.454,1.454-1.454h53.572C59.59,13.698,60.24,14.35,60.24,15.152z
	 M20.469,39.628c7.543,0,15.087-0.001,22.631,0.003c0.141,0,0.175-0.04,0.175-0.177c0-2.085-0.001-4.169,0.011-6.254
	c0.007-1.275,0.036-2.551,0.05-3.826c0.002-0.2-0.02-0.399-0.032-0.622c-0.079,0.033-0.127,0.052-0.173,0.072
	c-3.421,1.517-6.753,3.215-10.091,4.902c-1.463,0.74-2.93,1.471-4.396,2.205c-0.054,0.026-0.109,0.051-0.185,0.05
	c0.03-0.039,0.06-0.079,0.09-0.118c0.845-1.092,1.698-2.179,2.532-3.279c0.29-0.383,0.533-0.801,0.805-1.197
	c0.053-0.077,0.136-0.148,0.222-0.187c2.158-0.956,4.326-1.889,6.474-2.865c1.177-0.534,2.321-1.14,3.48-1.713
	c0.046-0.022,0.091-0.05,0.156-0.087c-1.66-0.596-3.298-1.185-4.956-1.78c0.039-0.055,0.068-0.096,0.099-0.137
	c0.302-0.405,0.608-0.808,0.903-1.217c0.078-0.108,0.14-0.13,0.27-0.084c0.995,0.356,1.987,0.722,2.993,1.044
	c0.556,0.178,1.137,0.277,1.737,0.419c0-0.151,0-0.261,0-0.37c0.003-2.522,0.006-5.045,0.01-7.567c0-0.066,0.009-0.134,0.014-0.2
	c-7.665,0-15.329,0-22.994,0c0,0.067,0.001,0.135,0.001,0.202c0,7.521,0,15.039,0,22.559c0,0.067,0,0.134,0,0.225
	C20.357,39.628,20.413,39.628,20.469,39.628z M23.622,43.405c-0.049-0.522-0.204-0.938-0.471-1.271
	c-0.411-0.51-1.171-0.564-1.626-0.151v-0.186h-0.833l0,5.223c0,0.043,0.005,0.086,0.011,0.129l0.022,0.208h0.806v-1.628
	c0.462,0.411,1.217,0.349,1.618-0.158c0.097-0.122,0.18-0.258,0.247-0.404C23.684,44.541,23.667,43.896,23.622,43.405z
	 M26.703,45.032c0.002-0.553,0.005-1.105-0.011-1.658c-0.008-0.263-0.064-0.546-0.173-0.867c-0.146-0.433-0.488-0.711-0.961-0.785
	c-0.429-0.067-0.836,0.011-1.279,0.227c-0.091,0.044-0.163,0.151-0.167,0.25c-0.005,0.117-0.004,0.235-0.003,0.365v0.482
	l0.281-0.188c0.315-0.21,0.609-0.298,0.938-0.269c0.174,0.014,0.341,0.116,0.445,0.275c0.066,0.101,0.099,0.211,0.095,0.317
	l-0.352-0.003c-0.104,0-0.208,0.001-0.311,0.006c-0.704,0.027-1.167,0.418-1.273,1.071c-0.034,0.211-0.037,0.45-0.007,0.709
	c0.06,0.522,0.403,0.923,0.874,1.021c0.092,0.02,0.184,0.028,0.274,0.028c0.302,0,0.581-0.109,0.802-0.31v0.198h0.639l0.15-0.021
	l0.03-0.143L26.703,45.032z M30.228,41.791l-0.471,0.003c-0.041,0-0.08-0.001-0.163-0.006c-0.167,0-0.279,0.09-0.332,0.268
	c-0.205,0.681-0.415,1.358-0.624,2.038L28.575,44.3l-0.04-0.127c-0.218-0.709-0.436-1.418-0.657-2.127
	c-0.025-0.078-0.11-0.231-0.254-0.247c-0.068-0.008-0.138-0.01-0.209-0.01l-0.481,0.002l0.083,0.297
	c0.013,0.047,0.024,0.089,0.037,0.131l0.142,0.446c0.311,0.981,0.623,1.964,0.932,2.947c0.014,0.041,0.015,0.06,0.016,0.06
	c-0.065,0.217-0.137,0.432-0.215,0.644c-0.027,0.074-0.077,0.15-0.234,0.151h-0.473l0.056,0.891h0.584l0.009-0.001
	c0.543-0.06,0.753-0.474,0.865-0.78l0.018-0.047c0.019-0.051,0.037-0.101,0.053-0.151L30.228,41.791z M34.933,45.331
	c0-0.938,0.006-1.876-0.007-2.813c-0.004-0.283-0.123-0.535-0.373-0.696c-0.397-0.256-1.032-0.168-1.356,0.185
	c-0.063,0.067-0.123,0.138-0.196,0.22c-0.197-0.404-0.508-0.561-0.926-0.546c-0.414,0.014-0.692,0.238-0.942,0.552
	c0-0.147,0-0.295,0-0.447c-0.161,0-0.301,0-0.458,0c0,1.2,0,2.388,0,3.58c0.171,0,0.331,0,0.509,0c0-0.066,0-0.126,0-0.186
	c0.002-0.72,0-1.44,0.009-2.159c0.003-0.252,0.106-0.475,0.293-0.648c0.198-0.185,0.431-0.244,0.688-0.149
	c0.251,0.094,0.335,0.307,0.358,0.553c0.008,0.085,0.007,0.172,0.007,0.259c0,0.72,0,1.439,0,2.159c0,0.055,0,0.109,0,0.17
	c0.181,0,0.345,0,0.52,0c0-0.071,0-0.132,0-0.191c0-0.654,0-1.309,0-1.962c0-0.319,0.065-0.617,0.311-0.844
	c0.185-0.17,0.404-0.23,0.647-0.156c0.229,0.071,0.34,0.245,0.378,0.471c0.017,0.1,0.023,0.201,0.023,0.303
	c0.002,0.74,0.001,1.48,0.001,2.22c0,0.054,0,0.108,0,0.163c0.182,0,0.342,0,0.499,0C34.925,45.349,34.933,45.34,34.933,45.331z
	 M38.69,45.06c-0.341-0.026-0.386-0.077-0.386-0.416c0-0.639,0.002-1.278-0.001-1.917c-0.002-0.527-0.194-0.823-0.645-0.965
	c-0.408-0.128-0.822-0.12-1.223,0.034c-0.441,0.171-0.667,0.551-0.636,1.039c0.165,0,0.33,0,0.501,0
	c0.038-0.193,0.083-0.381,0.257-0.501c0.25-0.174,0.782-0.174,1.03,0.005c0.224,0.161,0.223,0.397,0.19,0.634
	c-0.027,0.203-0.198,0.254-0.367,0.285c-0.264,0.049-0.529,0.092-0.794,0.132c-0.607,0.09-0.939,0.438-0.973,1.021
	c-0.026,0.459,0.174,0.853,0.554,1.013c0.497,0.209,0.961,0.124,1.379-0.216c0.072-0.058,0.142-0.119,0.225-0.19
	c0.041,0.196,0.081,0.367,0.254,0.454c0.189,0.095,0.385,0.064,0.578,0.011c0.024-0.006,0.051-0.05,0.053-0.077
	C38.694,45.289,38.69,45.174,38.69,45.06z M40.385,45.021c-0.024-0.001-0.039-0.004-0.052-0.003c-0.401,0.049-0.469-0.01-0.469-0.41
	c0-0.73,0-1.459,0-2.19c0-0.053,0-0.106,0-0.177c0.186,0,0.351,0,0.52,0c0-0.16,0-0.304,0-0.463c-0.175,0-0.34,0-0.524,0
	c0-0.334,0-0.655,0-0.972c-0.179,0-0.338,0-0.513,0c0,0.327,0,0.645,0,0.977c-0.149,0-0.285,0-0.422,0c0,0.159,0,0.304,0,0.465
	c0.144,0,0.278,0,0.425,0c0,0.193,0,0.37,0,0.547c0,0.715-0.002,1.43,0.001,2.144c0.001,0.338,0.163,0.547,0.462,0.577
	c0.188,0.019,0.379-0.005,0.573-0.009C40.385,45.322,40.385,45.173,40.385,45.021z M43.565,42.599
	c-0.098-0.201-0.213-0.414-0.375-0.563c-0.713-0.652-1.801-0.401-2.19,0.505c-0.274,0.639-0.283,1.305-0.078,1.963
	c0.256,0.827,0.963,1.193,1.792,0.957c0.485-0.137,0.921-0.703,0.902-1.179c-0.09,0-0.183,0.01-0.272-0.002
	c-0.16-0.021-0.236,0.034-0.298,0.191c-0.123,0.314-0.361,0.51-0.713,0.528c-0.363,0.021-0.635-0.14-0.823-0.445
	c-0.143-0.231-0.183-0.489-0.181-0.786c0.799,0,1.582,0,2.362,0C43.737,43.447,43.691,42.854,43.565,42.599z"/>
</svg>
