<?xml version="1.0" encoding="utf-8"?>
<!-- Generator: Adobe Illustrator 16.0.0, SVG Export Plug-In . SVG Version: 6.00 Build 0)  -->
<!DOCTYPE svg PUBLIC "-//W3C//DTD SVG 1.1//EN" "http://www.w3.org/Graphics/SVG/1.1/DTD/svg11.dtd">
<svg version="1.1" id="Layer_1" xmlns="http://www.w3.org/2000/svg" xmlns:xlink="http://www.w3.org/1999/xlink" x="0px" y="0px"
	 width="64px" height="64px" viewBox="0 0 64 64" enable-background="new 0 0 64 64" xml:space="preserve">
<path fill-rule="evenodd" clip-rule="evenodd" d="M18.59,31.835c-0.204,0.969-0.218,1.969-0.774,2.824
	c-0.105,0.163-0.244,0.313-0.393,0.439c-0.245,0.21-0.534,0.301-0.852,0.174c-0.316-0.128-0.43-0.415-0.449-0.717
	c-0.065-0.977,0.274-1.802,1.025-2.434C17.547,31.786,18.021,31.677,18.59,31.835z M29.87,31.81
	c-0.303,0.069-0.53,0.259-0.712,0.504c-0.407,0.551-0.571,1.181-0.59,1.854c0,0.091-0.006,0.182,0.001,0.272
	c0.048,0.613,0.487,1.012,1.064,0.959c0.322-0.03,0.577-0.199,0.771-0.446c0.521-0.661,0.725-1.427,0.654-2.251
	C31.003,32.028,30.493,31.667,29.87,31.81z M12.171,29.741c-0.416-0.148-0.846-0.116-1.272-0.06
	c-0.052,0.008-0.123,0.087-0.135,0.144c-0.151,0.768-0.294,1.535-0.457,2.4c0.359,0,0.679,0.028,0.992-0.006
	c0.607-0.066,1.1-0.34,1.371-0.919C12.979,30.645,12.757,29.949,12.171,29.741z M60.24,15.152v33.695
	c0,0.803-0.65,1.454-1.454,1.454H5.214c-0.804,0-1.454-0.651-1.454-1.454V15.152c0-0.803,0.65-1.454,1.454-1.454h53.572
	C59.59,13.698,60.24,14.35,60.24,15.152z M20.864,24.809c0.013,0.155,0.026,0.312,0.054,0.466c0.189,1.069,0.372,2.14,0.575,3.207
	c0.159,0.834,0.333,1.666,0.522,2.494c0.062,0.269,0.17,0.532,0.298,0.777c0.098,0.186,0.237,0.172,0.367,0.001
	c0.055-0.07,0.114-0.144,0.144-0.226c0.28-0.767,0.426-1.559,0.442-2.377c-0.022-0.263-0.036-0.527-0.067-0.789
	c-0.16-1.359-0.746-2.519-1.678-3.507c-0.108-0.116-0.265-0.201-0.415-0.256C20.951,24.544,20.85,24.632,20.864,24.809z
	 M14.522,30.107c-0.113-0.791-0.778-1.462-1.736-1.698c-1.097-0.271-2.197-0.159-3.296,0.007c-0.145,0.022-0.186,0.119-0.212,0.259
	c-0.42,2.221-0.848,4.44-1.271,6.66c-0.077,0.402-0.146,0.806-0.226,1.248c0.562,0,1.088,0.004,1.613-0.009
	c0.042-0.001,0.104-0.113,0.116-0.181c0.17-0.857,0.338-1.716,0.494-2.575c0.03-0.166,0.083-0.213,0.259-0.196
	c0.746,0.068,1.48,0.014,2.2-0.224C13.833,32.947,14.751,31.685,14.522,30.107z M19.698,36.338c0.04-0.626,0.07-1.256,0.172-1.874
	c0.19-1.163,0.427-2.318,0.647-3.476c0.033-0.174,0.006-0.285-0.195-0.314c-0.498-0.068-0.993-0.187-1.492-0.215
	c-0.977-0.055-1.919,0.117-2.741,0.678c-1.31,0.894-1.85,2.179-1.787,3.73c0.029,0.739,0.318,1.366,1.022,1.689
	c0.712,0.328,1.415,0.219,2.029-0.255c0.296-0.228,0.529-0.537,0.824-0.844c-0.02,0.307-0.031,0.6-0.058,0.891
	c-0.018,0.182,0.044,0.252,0.231,0.245c0.363-0.011,0.729-0.011,1.092,0.001C19.641,36.601,19.686,36.527,19.698,36.338z
	 M23.152,35.525c1.137-1.611,2.44-3.087,3.834-4.483c1.316-1.32,2.665-2.606,4.326-3.497c0.763-0.409,1.538-0.806,2.338-1.134
	c1.378-0.566,2.813-0.953,4.291-1.173c0.157-0.022,0.369-0.147,0.42-0.277c0.044-0.112-0.178-0.449-0.178-0.449
	c-0.809-1.387-2.657-1.031-2.657-1.031c-0.149,0.032-0.298,0.068-0.448,0.097c-0.897,0.168-1.745,0.477-2.559,0.889
	c-1.764,0.894-3.344,2.049-4.764,3.415c-0.944,0.908-1.861,1.849-2.745,2.817c-1.553,1.702-2.882,3.572-3.943,5.623
	c-0.547,1.058-1.035,2.144-1.26,3.322c-0.042,0.217,0.027,0.468,0.098,0.687c0.029,0.089,0.189,0.154,0.302,0.188
	c0.03,0.009,0.121-0.135,0.161-0.219c0.26-0.561,0.463-1.154,0.78-1.681C21.781,37.567,22.443,36.528,23.152,35.525z M32.885,32.714
	c-0.045-0.722-0.33-1.329-0.917-1.765c-0.617-0.458-1.319-0.552-2.071-0.469c-2.512,0.279-3.538,2.935-3.004,4.636
	c0.326,1.036,1.211,1.611,2.765,1.608c1.07-0.031,2.128-0.635,2.792-1.878C32.805,34.183,32.931,33.463,32.885,32.714z
	 M39.338,31.707c-0.072-0.65-0.511-1.117-1.146-1.221c-0.768-0.126-1.435,0.098-2.014,0.603c-0.159,0.138-0.309,0.285-0.481,0.446
	c0.025-0.314,0.049-0.618,0.075-0.935c-0.517,0-0.993,0-1.49,0c-0.366,1.993-0.729,3.971-1.1,5.986c0.574,0,1.093,0.007,1.611-0.009
	c0.059-0.002,0.148-0.121,0.162-0.197c0.129-0.646,0.245-1.296,0.359-1.944c0.105-0.595,0.212-1.188,0.517-1.721
	c0.208-0.365,0.459-0.691,0.883-0.826c0.438-0.14,0.766,0.07,0.815,0.52c0.015,0.13,0.024,0.266,0.004,0.395
	c-0.122,0.756-0.252,1.511-0.385,2.266c-0.087,0.492-0.185,0.982-0.276,1.471c0.048,0.022,0.069,0.04,0.092,0.04
	c0.504,0.004,1.008,0.013,1.512,0c0.058-0.002,0.147-0.117,0.162-0.191c0.172-0.848,0.333-1.697,0.495-2.548
	C39.268,33.137,39.418,32.433,39.338,31.707z M45.606,32.135c-0.056-0.77-0.472-1.325-1.216-1.546
	c-1.114-0.332-2.139-0.099-3.014,0.646c-1.063,0.903-1.462,2.101-1.31,3.465c0.108,0.964,0.633,1.655,1.597,1.903
	c1.033,0.267,2.049,0.128,3.029-0.274c0.067-0.027,0.147-0.141,0.144-0.211c-0.018-0.358-0.062-0.716-0.096-1.071
	c-0.042,0-0.06-0.004-0.074,0.001c-0.063,0.021-0.124,0.045-0.186,0.068c-0.564,0.216-1.146,0.312-1.749,0.238
	c-0.622-0.076-1.034-0.508-0.994-1.117c0.387,0,0.767,0.018,1.145-0.004c0.604-0.036,1.197-0.138,1.746-0.411
	C45.33,33.471,45.66,32.892,45.606,32.135z M51.46,32.153c-0.048-0.792-0.464-1.354-1.246-1.57
	c-1.277-0.352-2.391-0.011-3.291,0.944c-0.838,0.889-1.146,1.977-1,3.178c0.113,0.941,0.61,1.626,1.552,1.884
	c1.048,0.286,2.078,0.146,3.074-0.263c0.068-0.027,0.146-0.142,0.143-0.212c-0.019-0.357-0.063-0.715-0.101-1.094
	c-0.122,0.046-0.214,0.081-0.306,0.114c-0.551,0.202-1.117,0.289-1.703,0.218c-0.627-0.076-1.041-0.517-0.985-1.094
	c0.175,0,0.339,0.003,0.503,0c0.795-0.017,1.586-0.067,2.322-0.409C51.154,33.51,51.507,32.927,51.46,32.153z M56.219,30.467
	c-1.114-0.116-1.736,0.526-2.277,1.321c0.031-0.391,0.063-0.781,0.096-1.198c-0.484,0-0.93-0.006-1.374,0.008
	c-0.051,0.002-0.138,0.11-0.143,0.174c-0.124,1.55-0.44,3.068-0.743,4.589c-0.078,0.394-0.145,0.789-0.224,1.223
	c0.578,0,1.12,0.004,1.662-0.008c0.042-0.001,0.103-0.112,0.116-0.181c0.169-0.831,0.301-1.672,0.502-2.496
	c0.289-1.183,0.774-1.594,1.931-1.746c0.051-0.007,0.128-0.06,0.137-0.102C56.011,31.537,56.109,31.022,56.219,30.467z
	 M43.527,31.742c-0.701-0.17-1.524,0.442-1.617,1.221c0.454,0.093,1.378-0.018,1.733-0.203c0.244-0.127,0.367-0.337,0.329-0.582
	C43.934,31.927,43.765,31.8,43.527,31.742z M49.4,31.748c-0.696-0.192-1.558,0.442-1.637,1.264c0.374-0.024,0.729-0.028,1.076-0.075
	c0.232-0.032,0.467-0.103,0.682-0.197c0.231-0.101,0.34-0.309,0.304-0.567C49.792,31.928,49.624,31.81,49.4,31.748z"/>
</svg>
