<?xml version="1.0" encoding="utf-8"?>
<!-- Generator: Adobe Illustrator 16.0.0, SVG Export Plug-In . SVG Version: 6.00 Build 0)  -->
<!DOCTYPE svg PUBLIC "-//W3C//DTD SVG 1.1//EN" "http://www.w3.org/Graphics/SVG/1.1/DTD/svg11.dtd">
<svg version="1.1" id="Layer_1" xmlns="http://www.w3.org/2000/svg" xmlns:xlink="http://www.w3.org/1999/xlink" x="0px" y="0px"
	 width="64px" height="64px" viewBox="0 0 64 64" enable-background="new 0 0 64 64" xml:space="preserve">
<path fill="#010101" d="M58.786,13.698H5.214c-0.804,0-1.454,0.651-1.454,1.454v33.695c0,0.803,0.65,1.454,1.454,1.454h53.572
	c0.804,0,1.454-0.651,1.454-1.454V15.152C60.24,14.35,59.59,13.698,58.786,13.698z M37.748,28.666
	c0.083-0.207,0.228-0.352,0.432-0.439c0.122-0.051,0.25-0.078,0.382-0.088c0.041-0.004,0.082-0.004,0.123-0.004
	c0.478,0,0.953,0,1.43,0c0.119,0,0.236,0.012,0.35,0.045c0.302,0.082,0.496,0.271,0.586,0.57c0.04,0.129,0.058,0.262,0.058,0.395
	c0.001,0.277,0.001,0.555,0.001,0.832c0,0.01-0.001,0.021-0.003,0.033c0,0.01-0.006,0.018-0.015,0.021
	c-0.012,0.006-0.024,0.01-0.037,0.016c-0.427,0.168-0.852,0.336-1.279,0.502c-0.331,0.131-0.662,0.262-0.993,0.393
	c-0.011,0.004-0.021,0.008-0.031,0.014c-0.009,0.004-0.014,0.01-0.014,0.021c-0.006,0.084,0,0.168,0.055,0.24
	c0.012,0.016,0.021,0.033,0.034,0.049c0.029,0.039,0.067,0.061,0.116,0.061c0.021,0,0.041,0,0.062,0c0.671,0,1.344,0,2.016,0
	c0.094,0,0.085-0.01,0.085,0.082c0,0.309,0,0.617,0,0.926c0,0.078,0.005,0.078-0.078,0.078c-0.381,0-0.763,0-1.144,0
	c-0.358,0-0.718,0-1.075,0c-0.137-0.002-0.273-0.008-0.407-0.037c-0.194-0.043-0.356-0.141-0.487-0.291
	c-0.086-0.1-0.155-0.207-0.188-0.336c-0.018-0.068-0.029-0.137-0.038-0.207c-0.02-0.156-0.011-0.313-0.013-0.469
	c-0.003-0.379,0.002-0.758-0.004-1.137c-0.004-0.266-0.007-0.531-0.005-0.797C37.665,28.977,37.688,28.818,37.748,28.666z
	 M35.239,29.936c0-0.785,0-1.57,0-2.355c0-0.105,0.009-0.209,0.035-0.311c0.047-0.176,0.142-0.322,0.279-0.443
	c0.178-0.154,0.386-0.238,0.619-0.27c0.065-0.01,0.131-0.014,0.197-0.014c0.204-0.002,0.408-0.002,0.612,0
	c0.061,0,0.062,0,0.062,0.059c0,0.309,0,0.617,0,0.926c0,0.063-0.001,0.063-0.061,0.063c-0.115,0-0.23,0-0.348,0
	c-0.055,0-0.107,0.008-0.159,0.027c-0.082,0.031-0.137,0.088-0.162,0.172c-0.008,0.027-0.015,0.057-0.016,0.086
	c-0.002,0.076-0.002,0.15-0.001,0.225c0,0.029,0.006,0.035,0.037,0.035c0.071,0,0.145,0,0.218,0c0.141,0,0.281,0,0.422,0
	c0.012,0,0.022,0,0.034,0c0.026,0.002,0.033,0.008,0.034,0.031c0.001,0.012,0.001,0.023,0.001,0.035c0,0.316,0,0.635,0,0.953
	c0,0.063,0,0.063-0.065,0.063c-0.201,0-0.404,0-0.605,0c-0.083,0-0.076-0.006-0.076,0.078c0,0.758,0,1.516,0,2.275
	c0,0.25,0,0.504,0,0.756c0,0.018,0.001,0.035,0,0.055c-0.002,0.025-0.007,0.029-0.034,0.031c-0.014,0-0.027,0-0.041,0
	c-0.302,0-0.604,0-0.906,0c-0.08,0-0.076,0.002-0.076-0.078C35.239,31.535,35.239,30.734,35.239,29.936z M7.895,27.615
	c0.063-0.375,0.213-0.713,0.453-1.006c0.324-0.398,0.739-0.65,1.242-0.754c0.066-0.014,0.135-0.021,0.202-0.033
	c0-0.004-0.001-0.008-0.001-0.014c0.046,0,0.092,0,0.137,0c0.087,0,0.172,0,0.259,0c0.007,0.018,0.022,0.014,0.034,0.014
	c0.12,0.014,0.237,0.035,0.354,0.066c0.726,0.195,1.3,0.764,1.504,1.488c0.035,0.123,0.058,0.25,0.071,0.379
	c0.011,0.105,0.021,0.209,0.021,0.313c0,0.029-0.002,0.059-0.003,0.086c-0.018,0.012-0.023-0.002-0.031-0.008
	c-0.144-0.123-0.312-0.201-0.496-0.244c-0.061-0.014-0.06-0.014-0.076-0.076c-0.122-0.465-0.397-0.809-0.821-1.031
	c-0.194-0.104-0.404-0.158-0.626-0.172c-0.709-0.047-1.355,0.383-1.599,1.035c-0.024,0.064-0.045,0.133-0.061,0.201
	c-0.005,0.021-0.014,0.031-0.034,0.035c-0.075,0.02-0.147,0.045-0.218,0.076c-0.109,0.047-0.209,0.109-0.303,0.182
	c-0.008,0.006-0.015,0.012-0.021,0.016c-0.009,0.006-0.02,0-0.02-0.01c-0.001-0.049-0.003-0.096-0.001-0.143
	C7.869,27.881,7.873,27.748,7.895,27.615z M12.283,31.295c0,0.168-0.019,0.332-0.068,0.492c-0.04,0.129-0.102,0.246-0.195,0.346
	c-0.117,0.127-0.263,0.199-0.427,0.24c-0.11,0.027-0.224,0.039-0.338,0.039c-0.847,0-1.693,0-2.539-0.002
	c-0.264,0-0.49-0.1-0.691-0.266c-0.037-0.031-0.063-0.07-0.089-0.109c-0.072-0.113-0.117-0.236-0.146-0.367
	c-0.015-0.066-0.025-0.133-0.03-0.199c-0.002-0.027,0-0.057-0.025-0.076c0-0.748,0-1.498,0-2.246
	c0.028-0.018,0.022-0.047,0.025-0.074c0.008-0.086,0.022-0.17,0.043-0.254c0.032-0.121,0.079-0.236,0.151-0.342
	c0.024-0.035,0.053-0.066,0.087-0.094c0.155-0.123,0.33-0.205,0.526-0.24c0.04-0.008,0.082-0.008,0.122-0.008
	c0.864,0,1.729,0,2.595,0c0.132,0,0.263,0.016,0.388,0.057c0.236,0.076,0.403,0.23,0.503,0.457c0.052,0.117,0.079,0.242,0.094,0.367
	c0.013,0.096,0.015,0.189,0.015,0.285C12.283,29.967,12.283,30.631,12.283,31.295z M17.231,32.094
	c-0.075,0.076-0.157,0.145-0.25,0.197c-0.116,0.064-0.242,0.1-0.375,0.113c-0.079,0.008-0.159,0.008-0.238,0.008
	c-0.39,0-0.78,0-1.171,0c-0.02,0-0.04,0-0.061,0c-0.024,0.002-0.03,0.008-0.031,0.035c-0.001,0.02-0.001,0.041-0.001,0.061
	c0,0.471,0,0.939,0,1.41c0,0.02,0.001,0.039,0,0.061c-0.002,0.025-0.007,0.029-0.034,0.031c-0.014,0-0.027,0-0.04,0
	c-0.301,0-0.6,0-0.899,0c-0.016,0-0.032,0-0.049,0c-0.021-0.002-0.027-0.008-0.029-0.027c0-0.023,0-0.047,0-0.068
	c0-0.791,0-1.58,0-2.369c0-0.76,0-1.518,0-2.275c0-0.156,0.016-0.313,0.057-0.465c0.024-0.092,0.06-0.18,0.106-0.264
	c0.044-0.078,0.101-0.145,0.176-0.197c0.144-0.098,0.298-0.17,0.471-0.199c0.038-0.008,0.077-0.01,0.116-0.01c0.52,0,1.039,0,1.56,0
	c0.104,0,0.207,0.014,0.309,0.041c0.285,0.072,0.479,0.246,0.583,0.521c0.037,0.1,0.06,0.205,0.072,0.311
	c0.013,0.092,0.014,0.182,0.014,0.271c0,0.711-0.002,1.42,0.001,2.131C17.518,31.68,17.421,31.906,17.231,32.094z M21.829,31.383
	c0,0.174-0.03,0.342-0.106,0.5c-0.085,0.178-0.21,0.316-0.382,0.414c-0.106,0.061-0.22,0.094-0.342,0.105
	c-0.079,0.01-0.158,0.01-0.238,0.01c-0.436,0-0.871,0-1.307,0c-0.163-0.002-0.326-0.018-0.484-0.066
	c-0.129-0.039-0.247-0.1-0.347-0.193c-0.113-0.107-0.183-0.242-0.221-0.393c-0.027-0.104-0.04-0.209-0.041-0.316
	c-0.001-0.295-0.002-0.59,0-0.885c0.002-0.139,0.02-0.275,0.063-0.41c0.085-0.262,0.258-0.436,0.519-0.525
	c0.119-0.041,0.242-0.059,0.367-0.066c0.033-0.002,0.068-0.002,0.102-0.002c0.427,0,0.854,0,1.28,0c0.105,0,0.091,0.014,0.092-0.096
	c0.001-0.033-0.001-0.068-0.011-0.102c-0.019-0.059-0.057-0.098-0.112-0.119c-0.037-0.014-0.074-0.021-0.113-0.021
	c-0.022-0.002-0.045-0.002-0.068-0.002c-0.669,0-1.339,0-2.008,0c-0.019,0-0.037,0.002-0.056,0c-0.033,0-0.036-0.004-0.037-0.041
	c-0.001-0.014,0-0.027,0-0.041c0-0.305-0.001-0.607,0-0.912c0-0.096-0.008-0.086,0.082-0.086c0.402,0,0.804,0,1.205,0
	c0.365,0,0.731,0,1.097,0c0.132,0,0.263,0.012,0.39,0.045c0.141,0.037,0.271,0.096,0.38,0.191c0.136,0.121,0.217,0.273,0.258,0.447
	c0.028,0.115,0.041,0.232,0.041,0.352C21.83,29.906,21.831,30.645,21.829,31.383z M26.131,30.523c0,0.76,0.001,1.521,0,2.281
	c0,0.164-0.016,0.326-0.063,0.484c-0.055,0.184-0.144,0.348-0.284,0.48c-0.135,0.127-0.296,0.199-0.478,0.227
	c-0.07,0.012-0.14,0.014-0.21,0.014c-0.777,0-1.554,0-2.329,0c-0.019,0-0.037,0-0.056,0c-0.024-0.002-0.03-0.008-0.03-0.035
	c-0.001-0.014,0-0.027,0-0.039c0-0.311,0-0.619,0-0.928c0-0.082-0.006-0.078,0.076-0.078c0.652,0,1.307,0,1.961,0
	c0.036,0,0.072-0.002,0.108-0.008c0.079-0.012,0.145-0.051,0.198-0.109c0.038-0.043,0.06-0.092,0.061-0.148
	c0.002-0.072,0.001-0.145,0-0.217c0-0.027-0.007-0.033-0.031-0.035c-0.021,0-0.041,0-0.061,0c-0.416,0-0.831,0-1.247,0
	c-0.103,0-0.204-0.008-0.304-0.031c-0.211-0.045-0.378-0.162-0.515-0.324c-0.107-0.129-0.181-0.277-0.217-0.441
	c-0.024-0.109-0.03-0.219-0.03-0.332c0-0.393,0-0.785,0-1.178c0-0.629,0-1.258,0-1.887c0-0.092-0.009-0.084,0.083-0.084
	c0.299,0,0.595,0,0.893,0c0.089,0,0.082-0.006,0.082,0.08c0,0.912,0,1.824,0,2.738c0,0.057,0,0.113,0.014,0.168
	c0.033,0.131,0.118,0.203,0.253,0.205c0.257,0,0.513,0,0.77,0c0.113-0.002,0.199-0.057,0.267-0.143
	c0.03-0.035,0.043-0.08,0.045-0.127c0-0.02,0-0.039,0-0.061c0-0.924,0-1.848,0-2.771c0-0.102-0.012-0.09,0.092-0.09
	c0.288,0,0.576,0,0.865,0c0.097,0,0.088-0.01,0.088,0.088C26.131,28.988,26.131,29.756,26.131,30.523z M26.955,32.342
	c0-0.316,0-0.631,0-0.947c0-0.074-0.003-0.068,0.071-0.068c0.593,0,1.185,0,1.777,0c0.058,0,0.113-0.006,0.166-0.025
	c0.052-0.02,0.092-0.051,0.112-0.104c0-0.002,0.001-0.004,0.002-0.006c0.018-0.105,0.03-0.207-0.036-0.303
	c-0.038-0.055-0.086-0.082-0.154-0.08c-0.275,0.002-0.55,0-0.824,0c-0.029,0-0.059,0-0.088,0c-0.263-0.006-0.492-0.096-0.688-0.27
	c-0.063-0.059-0.127-0.117-0.177-0.188c-0.094-0.135-0.145-0.285-0.146-0.447c-0.003-0.283-0.003-0.566,0.001-0.852
	c0.001-0.121,0.022-0.242,0.063-0.359c0.08-0.229,0.234-0.385,0.459-0.473c0.127-0.051,0.261-0.076,0.396-0.084
	c0.044-0.002,0.087-0.002,0.131-0.002c0.324,0,0.648,0,0.974,0c0.364,0,0.729,0,1.096,0c0.088,0,0.082-0.006,0.082,0.08
	c0,0.309,0,0.617,0,0.926c0,0.08,0.004,0.074-0.073,0.074c-0.586,0-1.172,0-1.757,0c-0.051,0-0.101,0.002-0.149,0.012
	c-0.028,0.006-0.057,0.016-0.084,0.027c-0.066,0.031-0.101,0.084-0.104,0.154c-0.002,0.039-0.001,0.078,0,0.117
	c0.003,0.074,0.041,0.129,0.109,0.16c0.041,0.018,0.085,0.029,0.131,0.033c0.036,0.002,0.072,0.002,0.108,0.002
	c0.296,0,0.591,0,0.886,0c0.193,0.002,0.373,0.053,0.527,0.172c0.193,0.145,0.327,0.332,0.383,0.57
	c0.016,0.066,0.023,0.133,0.023,0.201c0,0.266-0.001,0.531,0,0.797c0,0.09-0.017,0.178-0.049,0.26
	c-0.086,0.225-0.229,0.406-0.416,0.553c-0.078,0.063-0.168,0.098-0.267,0.115c-0.094,0.016-0.188,0.023-0.284,0.023
	c-0.711,0-1.42,0-2.132,0C26.95,32.412,26.955,32.414,26.955,32.342z M28.633,36.988c0.021,0.221-0.182,0.445-0.417,0.477
	c-0.021,0.002-0.041,0.002-0.062,0.002c-0.193,0-0.387,0-0.579,0c-0.018,0-0.037,0-0.055,0c-0.013,0.002-0.02,0.01-0.021,0.023
	c-0.001,0.02-0.001,0.041-0.001,0.061c0,0.213,0,0.426,0,0.641c-0.169,0-0.337,0-0.504,0c0.008-0.027,0.004-0.055,0.004-0.082
	c0-0.678,0-1.355,0-2.035c0-0.094,0.01-0.186,0.035-0.275c0.04-0.139,0.131-0.225,0.27-0.264c0.063-0.016,0.127-0.027,0.193-0.025
	c0.214,0,0.427,0,0.64,0c0.081,0,0.158,0.016,0.232,0.043c0.135,0.051,0.213,0.15,0.246,0.287c0.01,0.043,0.016,0.084,0.016,0.129
	c0.001,0.051,0.002,0.104,0.002,0.154C28.633,36.412,28.633,36.699,28.633,36.988z M30.604,36.49c0,0.18,0.005,0.357-0.002,0.537
	c-0.007,0.188-0.096,0.328-0.271,0.406c-0.052,0.023-0.107,0.033-0.165,0.033c-0.243,0-0.485,0-0.729,0
	c-0.07-0.002-0.14-0.014-0.206-0.041c-0.149-0.061-0.233-0.172-0.252-0.334c-0.019-0.166-0.006-0.334-0.007-0.502
	c0-0.039,0.008-0.076,0.018-0.113c0.044-0.166,0.153-0.262,0.318-0.301c0.054-0.014,0.108-0.016,0.162-0.016
	c0.139,0.002,0.276,0,0.416,0c0.052,0,0.103,0,0.155,0c0.074,0.002,0.072,0.002,0.067-0.07c-0.006-0.076-0.029-0.1-0.104-0.105
	c-0.019,0-0.036,0-0.055,0c-0.298,0-0.595,0-0.892,0c-0.084,0-0.079,0.006-0.079-0.076c0-0.109,0-0.219,0-0.326
	c0-0.014,0-0.029,0.001-0.041c0.002-0.021,0.009-0.029,0.028-0.031c0.013,0,0.027,0,0.041,0c0.345,0,0.689,0,1.034,0
	c0.078,0,0.154,0.012,0.228,0.031c0.151,0.039,0.239,0.141,0.274,0.291c0.012,0.051,0.02,0.102,0.02,0.154
	C30.604,36.154,30.604,36.322,30.604,36.49z M32.532,37.887c-0.046,0.143-0.142,0.238-0.285,0.287
	c-0.012,0.004-0.027,0.002-0.036,0.018c-0.422,0-0.844,0-1.266,0c-0.001-0.148-0.002-0.295-0.002-0.443
	c0-0.01,0.001-0.018,0.002-0.027c0.001-0.014,0.01-0.02,0.021-0.02c0.021-0.002,0.042-0.002,0.062-0.002c0.291,0,0.582,0,0.872,0
	c0.029,0,0.059,0,0.087-0.012c0.053-0.018,0.078-0.057,0.086-0.111c0.001-0.002,0.001-0.004,0.001-0.006
	c-0.002-0.119,0.017-0.104-0.098-0.104c-0.182,0-0.363,0-0.545,0c-0.046,0-0.092-0.004-0.136-0.014
	c-0.068-0.012-0.129-0.041-0.181-0.088c-0.079-0.074-0.144-0.158-0.163-0.268c-0.007-0.031-0.009-0.063-0.009-0.094
	c0-0.48,0-0.959,0-1.438c0-0.012,0-0.023,0.002-0.035c0.001-0.012,0.008-0.02,0.021-0.021c0.011,0,0.021,0,0.033,0
	c0.127,0,0.255,0,0.382,0c0.011,0,0.022,0,0.034,0c0.013,0.002,0.021,0.012,0.021,0.023c0.002,0.02,0.001,0.041,0.001,0.061
	c0.001,0.396,0.001,0.795,0,1.191c0,0.029,0,0.059,0.009,0.088c0.019,0.063,0.052,0.092,0.117,0.094c0.077,0.002,0.154,0,0.231,0
	c0.049,0,0.096,0.002,0.143,0c0.066-0.004,0.116-0.043,0.131-0.102c0.006-0.021,0.006-0.045,0.006-0.066c0-0.279,0-0.559,0-0.838
	c0-0.127,0-0.254,0-0.381c0-0.018,0-0.033,0.001-0.049c0.001-0.012,0.009-0.02,0.022-0.021c0.012,0,0.022,0,0.034,0
	c0.127,0,0.254,0,0.381,0c0.011,0,0.022,0,0.034,0c0.01,0.002,0.017,0.008,0.018,0.02c0.001,0.02,0.002,0.039,0.002,0.061
	c0,0.398,0,0.797,0,1.197c0,0.295-0.001,0.59,0.001,0.885C32.567,37.746,32.556,37.816,32.532,37.887z M32.021,32.412
	c-0.166,0-0.33-0.016-0.49-0.066c-0.132-0.039-0.253-0.102-0.353-0.197c-0.114-0.111-0.183-0.246-0.221-0.4
	c-0.024-0.098-0.036-0.197-0.036-0.295c-0.003-0.307-0.004-0.613,0-0.92c0.002-0.16,0.026-0.316,0.091-0.465
	c0.08-0.188,0.212-0.324,0.398-0.41c0.11-0.049,0.227-0.076,0.347-0.092c0.086-0.012,0.172-0.012,0.259-0.012
	c0.408,0,0.816,0,1.225,0c0.016,0,0.031,0,0.048,0c0.052,0,0.053,0,0.054-0.053c0-0.031,0.001-0.061-0.001-0.09
	c-0.012-0.111-0.068-0.16-0.153-0.184c-0.045-0.012-0.09-0.014-0.136-0.014c-0.676,0-1.352,0-2.028,0c-0.021,0-0.041,0-0.062,0
	c-0.016,0-0.026-0.01-0.026-0.023c0-0.018,0-0.033,0-0.049c0-0.311,0-0.623,0-0.934c0-0.078-0.003-0.074,0.072-0.074
	c0.407,0,0.813,0,1.22,0c0.365,0,0.731,0,1.096,0c0.133,0,0.263,0.012,0.391,0.047c0.138,0.035,0.265,0.094,0.373,0.189
	c0.138,0.121,0.219,0.275,0.261,0.451c0.028,0.119,0.04,0.238,0.04,0.357c0,0.73,0,1.463,0,2.193
	c-0.001,0.188-0.032,0.371-0.122,0.539c-0.084,0.16-0.201,0.289-0.359,0.381c-0.107,0.063-0.225,0.096-0.347,0.109
	c-0.078,0.01-0.154,0.01-0.232,0.01C32.894,32.412,32.457,32.412,32.021,32.412z M34.708,35.898c0,0.027,0,0.055-0.001,0.082
	c-0.001,0.021-0.009,0.027-0.029,0.029c-0.018,0-0.035,0-0.054,0c-0.192,0-0.386,0-0.578,0c-0.021,0-0.042,0-0.062,0.002
	c-0.06,0.006-0.085,0.029-0.093,0.09c-0.002,0.012-0.002,0.027-0.002,0.041c0,0.215,0.001,0.43,0,0.646
	c0,0.025,0.002,0.049,0.008,0.074c0.016,0.063,0.061,0.102,0.125,0.104c0.07,0.002,0.141,0,0.212,0c0.131,0,0.263,0,0.395,0
	c0.019,0,0.036,0,0.054,0.002c0.013,0,0.021,0.008,0.023,0.02s0.002,0.023,0.002,0.035c0,0.129,0,0.258,0,0.387
	c0,0.012,0,0.023-0.002,0.035s-0.01,0.02-0.023,0.02c-0.015,0.002-0.031,0.002-0.047,0.002c-0.245,0-0.49,0-0.735,0
	c-0.068,0-0.136-0.01-0.201-0.027c-0.163-0.045-0.257-0.154-0.289-0.318c-0.011-0.051-0.014-0.104-0.014-0.156
	c0.001-0.168,0-0.336,0-0.502c0-0.17,0.001-0.336,0-0.504c0-0.047,0.004-0.092,0.013-0.137c0.03-0.162,0.127-0.26,0.288-0.297
	c0.044-0.01,0.089-0.016,0.135-0.016c0.268,0,0.535,0,0.803,0c0.076,0,0.073-0.004,0.073,0.076
	C34.708,35.689,34.708,35.793,34.708,35.898z M36.625,36.494c0,0.178,0.003,0.355,0,0.531c-0.002,0.145-0.062,0.264-0.176,0.354
	c-0.072,0.057-0.155,0.084-0.246,0.088c-0.059,0.002-0.118,0-0.177,0c-0.171,0-0.341,0-0.512,0c-0.078,0-0.158-0.006-0.234-0.029
	c-0.141-0.047-0.232-0.141-0.269-0.283c-0.013-0.055-0.018-0.111-0.019-0.168c-0.004-0.121-0.002-0.242,0-0.361
	c0-0.082,0.015-0.162,0.052-0.238c0.06-0.117,0.16-0.182,0.285-0.211c0.053-0.014,0.107-0.016,0.162-0.016
	c0.19,0.002,0.381,0,0.572,0c0.072,0,0.07,0.004,0.067-0.07c0-0.012,0-0.023-0.001-0.033c-0.004-0.027-0.019-0.047-0.043-0.057
	c-0.026-0.012-0.052-0.016-0.079-0.016c-0.061,0-0.118,0-0.179,0c-0.245,0-0.489,0-0.734,0c-0.015,0-0.027,0-0.041,0
	c-0.052,0-0.053-0.002-0.053-0.055c-0.001-0.123,0-0.244,0-0.367c0-0.012,0-0.021,0.002-0.033c0.001-0.01,0.007-0.018,0.017-0.018
	c0.019-0.002,0.036-0.002,0.055-0.002c0.343,0,0.686,0,1.028,0c0.082,0,0.163,0.012,0.241,0.035
	c0.076,0.021,0.142,0.061,0.191,0.123c0.025,0.033,0.043,0.07,0.057,0.109c0.021,0.061,0.033,0.121,0.033,0.188
	C36.625,36.141,36.625,36.316,36.625,36.494z M38.408,35.986c-0.002,0.014-0.009,0.021-0.021,0.023c-0.021,0-0.041,0-0.062,0
	c-0.252,0-0.504,0-0.756,0c-0.018,0-0.036,0-0.054,0c-0.05,0.004-0.079,0.035-0.097,0.076c-0.018,0.037-0.001,0.098,0.031,0.125
	c0.01,0.008,0.023,0.014,0.036,0.018c0.03,0.008,0.062,0.012,0.094,0.012c0.13,0,0.259,0,0.388,0c0.038,0,0.077,0,0.115,0.01
	c0.084,0.023,0.15,0.072,0.205,0.139c0.055,0.068,0.096,0.145,0.111,0.23c0.005,0.023,0.008,0.045,0.007,0.068
	c-0.003,0.123-0.005,0.248-0.01,0.373c-0.003,0.08-0.036,0.148-0.079,0.215c-0.023,0.033-0.05,0.064-0.08,0.092
	c-0.078,0.072-0.173,0.098-0.274,0.1c-0.166,0-0.332,0-0.497,0c-0.159,0-0.318,0-0.477,0c-0.018,0-0.037,0-0.055-0.002
	c-0.013-0.002-0.02-0.01-0.021-0.021c0-0.012,0-0.023,0-0.035c0-0.127,0-0.254,0-0.381c0-0.012,0-0.021,0-0.033
	c0.001-0.016,0.009-0.025,0.024-0.027c0.019,0,0.036,0,0.055,0c0.252,0,0.504,0,0.755,0c0.023,0,0.046,0,0.068-0.004
	c0.05-0.008,0.074-0.039,0.078-0.088c0.001-0.016,0.001-0.033,0-0.049c-0.004-0.051-0.039-0.086-0.091-0.092
	c-0.016-0.002-0.032,0-0.048,0c-0.122,0-0.245,0-0.368,0c-0.167,0-0.294-0.082-0.396-0.205c-0.043-0.051-0.064-0.115-0.064-0.184
	c-0.001-0.141-0.003-0.279,0-0.422c0.001-0.074,0.025-0.146,0.063-0.213c0.063-0.107,0.161-0.162,0.279-0.188
	c0.046-0.01,0.094-0.014,0.142-0.014c0.309,0,0.616,0,0.926,0c0.016,0,0.032,0,0.048,0c0.013,0.002,0.02,0.01,0.022,0.021
	c0,0.01,0,0.018,0,0.027c0.002,0.131,0.003,0.264,0.003,0.395C38.409,35.965,38.409,35.977,38.408,35.986z M40.343,37.408
	c0,0.008,0.001,0.014,0,0.02c-0.001,0.033-0.004,0.037-0.034,0.039c-0.016,0-0.032,0-0.048,0c-0.108,0-0.218,0-0.327,0
	c-0.017,0-0.031,0-0.047,0c-0.027-0.002-0.033-0.006-0.035-0.031c0-0.021,0-0.041,0-0.063c0-0.398,0-0.797,0-1.199
	c0-0.027,0.002-0.057-0.006-0.088c-0.012-0.047-0.035-0.068-0.084-0.074c-0.008-0.002-0.018-0.002-0.027-0.002
	c-0.129,0-0.258,0-0.388,0c-0.011,0-0.022,0-0.033,0.002c-0.043,0.006-0.096,0.047-0.092,0.102c0.001,0.02,0,0.037,0,0.055
	c0,0.404,0,0.809,0,1.213c0,0.096,0.002,0.086-0.084,0.086c-0.113,0-0.228,0-0.341,0c-0.016,0-0.031,0-0.048,0
	c-0.015-0.002-0.025-0.01-0.026-0.025c-0.001-0.02-0.001-0.041-0.001-0.061c0-0.418,0-0.836,0-1.254c0-0.422,0-0.844,0-1.266
	c0-0.084-0.007-0.078,0.078-0.078c0.118,0,0.236,0,0.354,0c0.016,0,0.032,0,0.048,0.002c0.009,0,0.018,0.006,0.019,0.018
	c0.001,0.02,0.002,0.041,0.002,0.061c0,0.189,0,0.377,0,0.564c0,0.088-0.007,0.082,0.08,0.082c0.191,0,0.381,0,0.573,0
	c0.088,0,0.17,0.021,0.248,0.061c0.105,0.053,0.169,0.143,0.203,0.252c0.012,0.037,0.018,0.076,0.018,0.115
	C40.343,36.428,40.343,36.918,40.343,37.408z M40.911,37.465c-0.193-0.004-0.31-0.15-0.309-0.313c0-0.168,0.14-0.307,0.308-0.307
	c0.188,0,0.32,0.166,0.309,0.313C41.228,37.301,41.098,37.471,40.911,37.465z M42.012,31.711c-0.042-0.141-0.063-0.283-0.063-0.422
	v-2.16c0-0.105,0.01-0.201,0.027-0.293c0.033-0.173,0.107-0.328,0.221-0.461c0.148-0.177,0.313-0.294,0.506-0.357
	c0.113-0.035,0.227-0.048,0.322-0.056c0.127-0.01,0.253-0.011,0.379-0.011h1.342c0.024,0,0.051,0.001,0.076,0.003l0.136,0.013
	l0.025,0.162v0.355l-0.177,0.023c-0.011,0.001-0.036,0.002-0.062,0.002l-1.008-0.001l-0.503,0.001c-0.154,0-0.288,0.021-0.408,0.067
	c-0.071,0.029-0.121,0.06-0.161,0.096c-0.062,0.056-0.104,0.129-0.13,0.225c-0.016,0.058-0.023,0.117-0.028,0.178
	c-0.008,0.104-0.007,0.206-0.007,0.31l-0.001,0.586l0.001,1.17c0.001,0.145,0.015,0.264,0.045,0.372
	c0.031,0.107,0.082,0.203,0.15,0.281c0.061,0.07,0.145,0.121,0.273,0.166c0.053,0.018,0.112,0.025,0.172,0.031
	c0.081,0.01,0.162,0.015,0.242,0.015h1.43c0.088,0,0.193,0.036,0.193,0.21v0.168c-0.005,0.101-0.069,0.169-0.165,0.178l-0.008,0.001
	h-1.491c-0.191,0-0.364-0.02-0.527-0.06c-0.122-0.026-0.242-0.082-0.364-0.167C42.232,32.18,42.086,31.97,42.012,31.711z
	 M43.982,37.361c-0.086,0.07-0.187,0.105-0.301,0.105c-0.192-0.002-0.385,0-0.579,0c-0.018,0-0.035,0-0.054,0
	c-0.013,0.002-0.021,0.01-0.021,0.023c-0.001,0.02-0.001,0.041-0.001,0.061c0,0.213,0,0.426,0,0.641c-0.168,0-0.336,0-0.504,0
	c0.009-0.027,0.005-0.055,0.005-0.082c0-0.674,0-1.348,0-2.021c0-0.08,0.007-0.158,0.023-0.236c0.007-0.037,0.018-0.074,0.033-0.111
	c0.037-0.084,0.099-0.145,0.185-0.182c0.075-0.031,0.155-0.049,0.237-0.049c0.22,0,0.439,0,0.661,0c0.075,0,0.148,0.014,0.219,0.037
	c0.133,0.047,0.216,0.139,0.255,0.273c0.015,0.053,0.02,0.105,0.02,0.16c0,0.117,0,0.232,0,0.348c0,0.223-0.003,0.445,0.001,0.668
	C44.164,37.15,44.097,37.266,43.982,37.361z M46.132,36.494c0,0.178,0.003,0.357-0.001,0.537c-0.002,0.145-0.063,0.264-0.179,0.352
	c-0.076,0.055-0.162,0.08-0.255,0.084c-0.052,0.002-0.104,0-0.156,0c-0.175,0-0.35,0-0.524,0c-0.087,0-0.172-0.01-0.254-0.039
	c-0.085-0.033-0.155-0.086-0.201-0.166c-0.029-0.051-0.047-0.107-0.054-0.166c-0.019-0.166-0.007-0.332-0.009-0.496
	c0-0.041,0.008-0.082,0.019-0.121c0.044-0.17,0.156-0.266,0.323-0.305c0.055-0.012,0.108-0.014,0.163-0.014
	c0.187,0.002,0.372,0,0.558,0c0.019,0,0.037,0,0.055,0c0.013,0,0.021-0.008,0.022-0.021c0-0.016,0.001-0.031,0-0.047
	c-0.001-0.076-0.021-0.09-0.096-0.105c-0.019-0.004-0.04-0.002-0.061-0.002c-0.3,0-0.6,0-0.899,0c-0.078,0-0.073,0.006-0.073-0.074
	c0-0.109,0-0.221,0-0.334c0-0.012,0-0.025,0-0.039c0-0.016,0.008-0.027,0.025-0.027s0.036,0,0.054,0c0.338,0,0.676,0,1.014,0
	c0.076,0,0.149,0.01,0.223,0.027c0.149,0.037,0.247,0.127,0.285,0.279c0.015,0.051,0.022,0.102,0.022,0.152
	C46.131,36.145,46.132,36.32,46.132,36.494z M48.059,37.893c-0.047,0.137-0.135,0.23-0.271,0.277
	c-0.016,0.004-0.036,0.004-0.048,0.021c-0.422,0-0.844,0-1.267,0c-0.001-0.148-0.001-0.295-0.001-0.443c0-0.01,0-0.018,0.002-0.027
	c0-0.014,0.009-0.02,0.021-0.02c0.021-0.002,0.041-0.002,0.062-0.002c0.29,0,0.581,0,0.871,0c0.029,0,0.059,0,0.087-0.012
	c0.051-0.016,0.075-0.053,0.088-0.104c0-0.002,0-0.004,0-0.006c0-0.129,0.02-0.111-0.098-0.111c-0.179,0-0.358,0-0.537,0
	c-0.043,0-0.086-0.004-0.129-0.01c-0.071-0.012-0.135-0.039-0.189-0.086c-0.111-0.098-0.179-0.215-0.178-0.367
	c0.002-0.203,0-0.404,0-0.605c0-0.27,0-0.537,0-0.805c0-0.02,0-0.041,0.001-0.061c0.001-0.012,0.007-0.021,0.021-0.023
	c0.011,0,0.022,0,0.035,0c0.126,0,0.253,0,0.38,0c0.012,0,0.022,0,0.034,0c0.014,0.002,0.021,0.01,0.022,0.021
	c0.001,0.021,0.001,0.041,0.001,0.061c0,0.389,0,0.777,0,1.166c0,0.035,0.002,0.072,0.009,0.107c0.013,0.066,0.049,0.1,0.117,0.102
	c0.073,0.002,0.146,0,0.218,0c0.053,0,0.104,0.002,0.156,0c0.066-0.004,0.115-0.041,0.132-0.102c0.005-0.02,0.005-0.039,0.005-0.061
	c0.001-0.152,0.001-0.305,0.001-0.455c0-0.252,0-0.504,0-0.758c0-0.02,0-0.039,0.001-0.061c0-0.012,0.009-0.02,0.021-0.021
	c0.012,0,0.023,0,0.033,0c0.128,0,0.255,0,0.383,0c0.011,0,0.021,0,0.033,0c0.01,0.002,0.018,0.01,0.018,0.02
	c0.002,0.02,0.003,0.039,0.003,0.061c0,0.357,0,0.717,0,1.076c0,0.33,0,0.662,0.001,0.992C48.097,37.74,48.084,37.818,48.059,37.893
	z M48.443,32.536c-0.087,0.018-0.177,0.026-0.266,0.026h-1.253c-0.194,0-0.362-0.028-0.515-0.086
	c-0.314-0.121-0.539-0.333-0.667-0.63c-0.043-0.101-0.07-0.211-0.088-0.349c-0.011-0.097-0.012-0.19-0.012-0.283v-0.52
	c0-0.144,0.015-0.282,0.043-0.411c0.026-0.128,0.069-0.244,0.132-0.353c0.117-0.208,0.295-0.359,0.528-0.448
	c0.14-0.055,0.292-0.086,0.454-0.092c0.047-0.003,0.095-0.005,0.142-0.005h1.898c0-0.044,0-0.088-0.002-0.132
	c-0.002-0.137-0.024-0.251-0.067-0.35c-0.051-0.115-0.115-0.205-0.195-0.274c-0.056-0.05-0.112-0.079-0.177-0.091
	c-0.102-0.021-0.195-0.03-0.289-0.03l-0.736-0.001l-1.478,0.001c-0.025,0-0.051-0.001-0.076-0.003
	c-0.1-0.008-0.163-0.074-0.167-0.178v-0.188c0.002-0.065,0.026-0.17,0.167-0.188l0.065-0.002c0.697,0,1.395,0,2.092,0.002
	c0.196,0,0.37,0.013,0.532,0.039c0.163,0.026,0.309,0.099,0.433,0.215c0.115,0.107,0.212,0.241,0.293,0.409
	c0.076,0.156,0.123,0.323,0.141,0.498c0.008,0.071,0.01,0.146,0.01,0.22l-0.001,0.631l0.001,1.262
	c0.001,0.136-0.009,0.279-0.028,0.426c-0.016,0.115-0.059,0.228-0.13,0.344C49.048,32.287,48.784,32.468,48.443,32.536z
	 M49.436,36.211c0.011,0.008,0.022,0.014,0.036,0.018c0.031,0.008,0.063,0.012,0.094,0.012c0.137,0,0.272,0,0.409,0
	c0.104,0,0.191,0.037,0.263,0.111c0.104,0.102,0.163,0.227,0.153,0.377c-0.007,0.1-0.007,0.199-0.009,0.299
	c-0.003,0.164-0.083,0.285-0.21,0.379c-0.066,0.049-0.146,0.059-0.228,0.061c-0.129,0-0.258,0-0.388,0c-0.034,0-0.067,0-0.103,0
	c-0.156,0-0.313,0-0.47,0c-0.015,0-0.031,0-0.047,0c-0.035-0.002-0.04-0.004-0.04-0.041c0-0.141,0-0.281,0-0.422
	c0-0.031,0.006-0.035,0.036-0.037c0.019,0,0.036,0,0.055,0c0.247,0,0.495,0,0.742,0c0.021,0,0.041,0,0.062-0.002
	c0.056-0.008,0.085-0.037,0.089-0.094c0.001-0.016,0.001-0.031-0.001-0.047c-0.006-0.049-0.039-0.084-0.089-0.09
	c-0.016-0.002-0.032,0-0.047,0c-0.125,0-0.25,0-0.375,0c-0.171-0.002-0.298-0.086-0.399-0.215c-0.042-0.051-0.06-0.117-0.059-0.184
	c0-0.135-0.004-0.268,0.001-0.402c0.006-0.189,0.113-0.369,0.353-0.412c0.047-0.008,0.095-0.012,0.143-0.012
	c0.302,0,0.604,0,0.906,0c0.016,0,0.031,0,0.047,0c0.025,0,0.031,0.006,0.031,0.033c0.001,0.107,0.001,0.213,0.001,0.32
	c0.001,0.039,0.002,0.078,0.001,0.117c0,0.021-0.007,0.027-0.027,0.029c-0.019,0-0.036,0-0.055,0c-0.252,0-0.504,0-0.756,0
	c-0.019,0-0.036,0-0.055,0c-0.048,0.004-0.078,0.035-0.097,0.076C49.388,36.125,49.404,36.184,49.436,36.211z M50.365,32.563
	l-0.037-0.23v-3.029c0-0.184,0.02-0.349,0.06-0.503c0.048-0.188,0.13-0.346,0.251-0.48c0.137-0.149,0.316-0.253,0.533-0.309
	c0.098-0.027,0.207-0.044,0.33-0.051c0.136-0.01,0.275-0.024,0.415-0.005l0.132,0.016l0.021,0.154v0.338l-0.147,0.043
	c-0.027,0.003-0.051,0.004-0.072,0.004l-0.159-0.001l-0.075,0.001c-0.109,0.002-0.195,0.013-0.273,0.033
	c-0.06,0.015-0.116,0.038-0.173,0.07c-0.094,0.057-0.163,0.137-0.208,0.242c-0.032,0.073-0.054,0.155-0.066,0.255
	c-0.01,0.075-0.009,0.15-0.009,0.226v2.994c0,0.063,0,0.128-0.052,0.18c-0.052,0.053-0.117,0.053-0.151,0.053H50.365z
	 M52.342,36.998c0,0.063-0.01,0.123-0.032,0.18c-0.069,0.178-0.202,0.273-0.394,0.289c-0.011,0-0.021,0-0.033,0
	c-0.225,0-0.449,0-0.674,0c-0.063,0-0.127-0.008-0.188-0.023c-0.187-0.047-0.3-0.195-0.309-0.377
	c-0.003-0.033-0.004-0.066-0.004-0.102c-0.001-0.115-0.001-0.23,0-0.348c0-0.037,0.003-0.076,0.011-0.113
	c0.039-0.184,0.151-0.289,0.33-0.33c0.052-0.012,0.104-0.014,0.157-0.014c0.185,0,0.372,0,0.558,0c0.019,0,0.036,0,0.055,0
	c0.016,0,0.023-0.012,0.023-0.027c0-0.025-0.001-0.049-0.001-0.074c-0.001-0.031-0.018-0.051-0.046-0.061
	c-0.022-0.008-0.048-0.014-0.073-0.014c-0.042,0-0.086,0-0.129,0c-0.265,0-0.531,0-0.796,0c-0.021,0-0.042,0-0.062,0
	c-0.013-0.002-0.021-0.01-0.022-0.023c-0.001-0.012-0.001-0.021-0.001-0.033c0-0.121,0-0.24,0-0.361c0-0.01,0-0.023,0.001-0.033
	c0.001-0.014,0.009-0.021,0.021-0.023c0.019,0,0.036,0,0.055,0c0.174,0,0.35,0,0.523,0c0.17,0,0.341,0,0.511,0
	c0.082,0,0.163,0.014,0.241,0.037c0.128,0.037,0.21,0.123,0.248,0.25c0.02,0.063,0.029,0.127,0.029,0.193
	C52.341,36.326,52.341,36.662,52.342,36.998z M53.523,34.842c0,0.119,0,0.24,0,0.361c0,0.01,0,0.021-0.003,0.033
	c-0.001,0.016-0.01,0.023-0.026,0.025c-0.016,0-0.031,0-0.048,0c-0.033,0-0.068,0-0.102,0c-0.03,0-0.059,0.006-0.087,0.016
	c-0.045,0.02-0.072,0.055-0.081,0.102c-0.002,0.01-0.003,0.02-0.002,0.027c0,0.119-0.017,0.102,0.098,0.104c0.068,0,0.136,0,0.204,0
	c0.04,0,0.047,0.006,0.047,0.041c0.001,0.139,0,0.277,0,0.416c0,0.004,0,0.008-0.001,0.014c-0.002,0.02-0.009,0.027-0.029,0.029
	c-0.016,0-0.032,0-0.048,0c-0.067,0-0.137,0-0.204,0c-0.016,0-0.031,0-0.047,0.002c-0.01,0.002-0.018,0.008-0.019,0.018
	c-0.001,0.021-0.002,0.045-0.002,0.068c0,0.426,0,0.854,0,1.279c0,0.102,0.011,0.09-0.092,0.09c-0.109,0-0.219,0-0.326,0
	c-0.02,0-0.037,0-0.056-0.002c-0.01-0.002-0.016-0.008-0.017-0.018c-0.003-0.02-0.003-0.041-0.003-0.061c0-0.361,0-0.723,0-1.082
	c0-0.352,0-0.701,0-1.049c0-0.041-0.002-0.082,0.01-0.123c0.024-0.096,0.076-0.178,0.157-0.238c0.088-0.066,0.188-0.102,0.297-0.107
	c0.113-0.006,0.228-0.002,0.341-0.002c0.03,0,0.035,0.006,0.038,0.037C53.523,34.828,53.523,34.834,53.523,34.842z M55.283,36.336
	c0,0.029-0.011,0.045-0.039,0.057c-0.125,0.045-0.25,0.092-0.375,0.141c-0.219,0.082-0.438,0.164-0.655,0.246
	c-0.062,0.023-0.063,0.027-0.05,0.09c0.004,0.016,0.007,0.031,0.013,0.045c0.015,0.031,0.039,0.049,0.073,0.053
	c0.02,0,0.037,0,0.056,0c0.296,0,0.594,0,0.892,0c0.082,0,0.077-0.006,0.077,0.076c0,0.115,0,0.232,0,0.348c0,0.016,0,0.031,0,0.047
	c-0.001,0.02-0.009,0.027-0.031,0.029c-0.018,0-0.035,0-0.054,0c-0.176,0-0.35,0-0.524,0c-0.17,0-0.34,0-0.51,0
	c-0.054,0-0.104-0.004-0.155-0.014c-0.169-0.033-0.308-0.178-0.335-0.348c-0.008-0.051-0.013-0.102-0.013-0.154
	c0.001-0.324,0.001-0.648,0.001-0.975c0-0.1,0.028-0.191,0.079-0.277c0.05-0.082,0.125-0.137,0.218-0.164
	c0.057-0.016,0.115-0.025,0.175-0.025c0.227,0,0.453,0,0.68,0c0.058,0,0.112,0.01,0.168,0.025c0.166,0.043,0.263,0.152,0.296,0.318
	c0.01,0.043,0.015,0.086,0.015,0.129C55.281,36.1,55.281,36.219,55.283,36.336z M55.824,37.465c-0.185-0.002-0.315-0.146-0.31-0.313
	c-0.011-0.133,0.108-0.305,0.307-0.307c0.187,0,0.309,0.158,0.312,0.307C56.135,37.311,56.003,37.467,55.824,37.465z M56.266,31.189
	c0,0.219-0.034,0.423-0.102,0.604c-0.12,0.328-0.349,0.555-0.679,0.673c-0.12,0.045-0.253,0.072-0.416,0.087
	c-0.103,0.008-0.204,0.009-0.305,0.009h-0.636h-0.318c-0.147-0.003-0.295-0.018-0.439-0.044c-0.095-0.018-0.179-0.047-0.257-0.091
	c-0.304-0.164-0.5-0.411-0.58-0.735c-0.037-0.153-0.056-0.3-0.056-0.448l0.001-1.906c0-0.191,0.025-0.373,0.076-0.539
	c0.057-0.19,0.146-0.347,0.271-0.477c0.137-0.141,0.31-0.241,0.516-0.301c0.149-0.044,0.313-0.064,0.512-0.064h1.855l0.002-1.212
	c-0.001-0.117,0.069-0.187,0.195-0.187h0.17c0.117,0,0.186,0.068,0.189,0.188V31.189z M45.639,36.738c-0.002,0.041,0,0.078,0,0.117
	c0,0.025-0.006,0.049-0.018,0.072c-0.017,0.029-0.041,0.047-0.076,0.051c-0.018,0.002-0.036,0.004-0.054,0.004
	c-0.113,0-0.228,0-0.34,0c-0.021,0-0.041-0.002-0.062-0.006c-0.053-0.012-0.088-0.051-0.09-0.105
	c-0.001-0.049-0.001-0.1-0.001-0.148c0.003-0.066,0.03-0.096,0.097-0.098c0.062-0.004,0.122-0.002,0.184-0.002
	c0.012,0,0.022,0,0.035,0c0.058,0,0.118,0,0.176,0c0.017,0,0.033-0.002,0.048,0.002C45.611,36.645,45.642,36.672,45.639,36.738z
	 M46.916,29.938c0.64,0,1.277,0,1.913,0.001v1.407c0,0.119-0.019,0.226-0.057,0.326c-0.054,0.137-0.146,0.229-0.284,0.28
	c-0.092,0.035-0.191,0.052-0.308,0.052c-0.236,0.002-0.471,0.002-0.707,0.002h-0.377h-0.188c-0.194,0-0.365-0.063-0.523-0.194
	c-0.048-0.039-0.08-0.071-0.103-0.105c-0.02-0.028-0.035-0.062-0.044-0.096c-0.022-0.088-0.035-0.169-0.036-0.244
	c-0.002-0.253-0.002-0.507,0-0.76c0.001-0.093,0.019-0.184,0.051-0.269c0.077-0.205,0.222-0.329,0.441-0.377
	C46.762,29.944,46.835,29.938,46.916,29.938z M43.667,36.133c-0.004,0.117-0.001,0.234-0.001,0.352c0,0.113,0,0.227,0,0.34
	c0,0.023-0.002,0.045-0.012,0.066c-0.021,0.049-0.057,0.074-0.11,0.076c-0.041,0-0.082,0-0.123,0c-0.069,0-0.14,0-0.21,0
	c-0.017,0-0.032,0-0.048,0c-0.093-0.01-0.124-0.053-0.136-0.135c-0.002-0.012-0.001-0.027-0.001-0.039c0-0.201,0-0.404,0-0.605
	c-0.001-0.043,0.01-0.08,0.03-0.117c0.021-0.037,0.053-0.061,0.099-0.061c0.131,0,0.264,0,0.394,0
	C43.623,36.01,43.667,36.063,43.667,36.133z M54.734,36.057c0.014,0.01,0.024,0.021,0.031,0.035c0.01,0.02,0.005,0.035-0.015,0.045
	c-0.01,0.006-0.021,0.01-0.031,0.014c-0.173,0.063-0.345,0.125-0.517,0.188c-0.01,0.004-0.018,0.006-0.026,0.008
	c-0.014,0.006-0.022-0.002-0.023-0.014c-0.001-0.033,0-0.064,0-0.098h-0.001c0-0.023,0-0.049,0-0.074
	c0-0.055,0.03-0.088,0.078-0.107c0.025-0.01,0.052-0.018,0.08-0.018c0.114,0,0.23,0,0.347,0
	C54.685,36.035,54.71,36.041,54.734,36.057z M54.05,28.51h1.66v2.672c0,0.11-0.013,0.21-0.038,0.304
	c-0.026,0.094-0.064,0.171-0.115,0.232c-0.021,0.024-0.043,0.047-0.067,0.066c-0.123,0.1-0.271,0.164-0.45,0.197
	c-0.095,0.017-0.199,0.024-0.311,0.024h-0.872c-0.145,0-0.29-0.023-0.431-0.069c-0.046-0.016-0.09-0.036-0.129-0.054
	c-0.104-0.051-0.172-0.129-0.215-0.245c-0.024-0.067-0.039-0.143-0.044-0.23c-0.002-0.029-0.002-0.058-0.001-0.112l-0.001-2.062
	c0-0.086,0.017-0.175,0.05-0.271c0.02-0.055,0.052-0.11,0.096-0.164c0.043-0.05,0.088-0.099,0.139-0.143
	c0.061-0.051,0.125-0.084,0.2-0.103c0.075-0.02,0.154-0.032,0.238-0.038c0.094-0.005,0.187-0.005,0.282-0.005
	C54.044,28.51,54.047,28.51,54.05,28.51z M51.805,36.65c0.024,0.016,0.036,0.033,0.036,0.063c-0.001,0.053-0.001,0.107,0,0.162
	c0.002,0.055-0.049,0.107-0.103,0.105c-0.053-0.002-0.104,0.002-0.155,0.002c-0.019,0-0.037,0-0.055,0c-0.056,0-0.109,0-0.164,0
	c-0.015,0-0.03,0-0.047-0.002c-0.065-0.008-0.109-0.049-0.114-0.113c-0.003-0.049-0.001-0.096,0-0.143
	c0.001-0.014,0.006-0.027,0.009-0.041c0.008-0.025,0.025-0.043,0.051-0.051c0.017-0.006,0.035-0.01,0.053-0.01
	c0.136,0,0.271,0,0.407,0C51.754,36.623,51.779,36.635,51.805,36.65z M28.135,36.107c0.003,0.018,0.002,0.035,0.002,0.055
	c0,0.105,0,0.213,0,0.318c0,0.113-0.001,0.227,0,0.34c0,0.025-0.002,0.051-0.013,0.074c-0.021,0.043-0.054,0.072-0.104,0.072
	c-0.127,0-0.253,0-0.381,0c-0.021,0-0.04-0.004-0.061-0.012c-0.032-0.014-0.056-0.037-0.067-0.07
	c-0.009-0.023-0.013-0.049-0.013-0.074c0.001-0.213,0.001-0.426,0-0.639c0-0.031,0.008-0.059,0.02-0.086
	c0.025-0.051,0.064-0.078,0.124-0.076c0.123,0.002,0.245,0,0.367,0c0.009,0,0.018,0,0.027,0
	C28.093,36.018,28.127,36.051,28.135,36.107z M38.722,29.896c-0.002-0.016-0.003-0.031-0.003-0.047c0-0.059,0-0.119,0-0.178
	c0-0.061,0.001-0.123,0-0.184c0-0.063,0.023-0.113,0.067-0.158c0.078-0.078,0.169-0.117,0.28-0.115c0.238,0.002,0.478,0,0.715,0
	c0.058,0,0.113,0.01,0.163,0.039c0.056,0.031,0.088,0.076,0.09,0.143c0,0.02-0.006,0.033-0.026,0.041
	c-0.054,0.02-0.105,0.041-0.159,0.061c-0.346,0.131-0.691,0.262-1.037,0.391c-0.023,0.01-0.047,0.016-0.071,0.023
	C38.73,29.914,38.722,29.906,38.722,29.896z M16.449,29.389c0.011,0.039,0.014,0.08,0.014,0.121
	c-0.001,0.254-0.001,0.51-0.001,0.764c0,0.256,0,0.512,0,0.77c0,0.043-0.002,0.088-0.025,0.125
	c-0.057,0.092-0.133,0.158-0.251,0.158c-0.25,0-0.5,0-0.749,0c-0.056,0-0.109-0.01-0.16-0.031c-0.084-0.033-0.135-0.096-0.157-0.184
	c-0.011-0.041-0.015-0.084-0.015-0.127c0.001-0.191,0-0.383,0-0.572c0-0.281,0.001-0.564,0-0.844c0-0.047,0.003-0.092,0.014-0.137
	c0.024-0.104,0.088-0.172,0.191-0.201c0.037-0.01,0.075-0.016,0.114-0.016c0.261,0,0.522,0,0.783,0c0.026,0,0.054,0.002,0.081,0.01
	C16.377,29.244,16.428,29.303,16.449,29.389z M20.782,30.779c0.002,0.033,0.001,0.068,0.002,0.102c0,0.07,0,0.141,0,0.211
	c0,0.027-0.003,0.055-0.011,0.08c-0.016,0.061-0.052,0.1-0.106,0.123c-0.049,0.023-0.101,0.031-0.152,0.031
	c-0.166,0-0.332,0-0.497,0c-0.109,0-0.218-0.002-0.326,0c-0.094,0.002-0.166-0.039-0.229-0.102
	c-0.027-0.025-0.043-0.059-0.043-0.098c0-0.121,0.002-0.244,0.003-0.367c0-0.006,0-0.014,0.002-0.02
	c0.021-0.105,0.041-0.15,0.163-0.168c0.03-0.006,0.062-0.008,0.094-0.008c0.136,0,0.272,0,0.407,0c0.136,0,0.272,0,0.409-0.002
	c0.038,0,0.076,0.006,0.114,0.014C20.713,30.602,20.774,30.674,20.782,30.779z M36.095,36.652c0.021,0.012,0.034,0.031,0.035,0.055
	c0.001,0.057,0.004,0.113,0,0.17c-0.004,0.051-0.033,0.104-0.112,0.104c-0.134,0-0.269,0.002-0.401,0
	c-0.079-0.002-0.122-0.047-0.124-0.123c-0.001-0.045-0.002-0.092,0.001-0.137c0.004-0.066,0.031-0.094,0.098-0.096
	c0.07-0.004,0.141-0.002,0.211-0.002c0.065,0,0.132,0,0.196,0C36.034,36.621,36.064,36.635,36.095,36.652z M30.07,36.65
	c0.021,0.012,0.033,0.031,0.035,0.055c0.006,0.061,0.009,0.121-0.001,0.182c-0.01,0.063-0.044,0.09-0.107,0.094
	c-0.027,0.002-0.054,0.002-0.081,0.002c-0.098,0-0.195,0-0.293,0c-0.02,0-0.041,0-0.061-0.006c-0.053-0.01-0.088-0.049-0.092-0.104
	c-0.001-0.055-0.001-0.109,0.002-0.162c0.002-0.053,0.027-0.078,0.08-0.084c0.019-0.004,0.036-0.004,0.054-0.004
	c0.059,0,0.118,0,0.177,0c0.066,0,0.132,0,0.197,0C30.015,36.623,30.042,36.635,30.07,36.65z M33.342,30.781
	c0.001,0.037,0.001,0.072,0.001,0.109c0,0.072,0,0.145,0,0.217c-0.003,0.109-0.059,0.178-0.164,0.205
	c-0.036,0.01-0.071,0.014-0.108,0.014c-0.136,0-0.271,0-0.407,0c-0.137,0-0.273-0.004-0.409,0c-0.093,0.002-0.165-0.035-0.23-0.098
	c-0.028-0.029-0.046-0.063-0.046-0.104c0-0.117,0.001-0.236,0.002-0.354c0-0.029,0.008-0.059,0.016-0.086
	c0.016-0.059,0.054-0.094,0.112-0.105c0.037-0.01,0.075-0.018,0.114-0.016c0.283,0,0.566,0,0.851-0.002
	c0.036,0,0.071,0.008,0.106,0.018C33.277,30.607,33.335,30.68,33.342,30.781z"/>
</svg>
