<?xml version="1.0" encoding="utf-8"?>
<!-- Generator: Adobe Illustrator 16.0.0, SVG Export Plug-In . SVG Version: 6.00 Build 0)  -->
<!DOCTYPE svg PUBLIC "-//W3C//DTD SVG 1.1//EN" "http://www.w3.org/Graphics/SVG/1.1/DTD/svg11.dtd">
<svg version="1.1" id="Layer_1" xmlns="http://www.w3.org/2000/svg" xmlns:xlink="http://www.w3.org/1999/xlink" x="0px" y="0px"
	 width="64px" height="64px" viewBox="0 0 64 64" enable-background="new 0 0 64 64" xml:space="preserve">
<path fill-rule="evenodd" clip-rule="evenodd" d="M33.602,33.018c0,0.618-0.001,1.235,0.003,1.854c0,0.096-0.03,0.142-0.121,0.16
	c-0.299,0.063-0.598,0.07-0.89-0.032c-0.362-0.128-0.514-0.411-0.552-0.775c-0.054-0.542,0.177-0.931,0.68-1.141
	c0.241-0.101,0.68-0.193,0.88-0.182C33.602,32.938,33.602,32.979,33.602,33.018z M26.146,28.898
	c-0.223-0.037-0.459-0.009-0.688-0.006c-0.09,0.001-0.118,0.05-0.116,0.142c0.004,0.435,0.001,0.869,0.002,1.304
	c0,0.438,0.002,0.878-0.002,1.316c-0.002,0.084,0.027,0.116,0.109,0.116c0.09,0,0.179,0.013,0.268,0.014
	c0.634,0.014,1.045-0.275,1.188-0.846c0.106-0.425,0.105-0.854,0.001-1.28C26.809,29.256,26.57,28.968,26.146,28.898z
	 M53.046,32.888c-0.317,0.034-0.62,0.087-0.906,0.21c-0.419,0.182-0.634,0.499-0.648,0.956c-0.015,0.464,0.168,0.8,0.534,0.937
	c0.297,0.111,0.604,0.105,0.911,0.041c0.092-0.02,0.12-0.067,0.119-0.161c-0.004-0.618-0.001-1.235-0.002-1.853
	C53.054,32.978,53.05,32.938,53.046,32.888z M60.24,15.152v33.695c0,0.803-0.65,1.454-1.454,1.454H5.214
	c-0.804,0-1.454-0.651-1.454-1.454V15.152c0-0.803,0.65-1.454,1.454-1.454h53.572C59.59,13.698,60.24,14.35,60.24,15.152z
	 M18.497,28.203c-0.287-0.758-0.801-1.353-1.443-1.835c-1.073-0.808-2.3-1.191-3.626-1.272c-0.913-0.057-1.816,0.025-2.7,0.285
	c-1.109,0.325-2.069,0.877-2.767,1.825c-0.291,0.396-0.526,0.826-0.63,1.308c-0.213,0.984-0.203,1.971,0.026,2.949
	c0.377,1.622,1.201,2.956,2.584,3.914c0.853,0.59,1.803,0.902,2.848,0.898c0.066,0,0.13-0.017,0.196-0.026
	c0.001-0.015,0.005-0.03,0.006-0.046c-0.041-0.023-0.079-0.051-0.122-0.067c-0.106-0.04-0.216-0.072-0.322-0.111
	c-0.799-0.301-1.377-0.822-1.622-1.658c-0.06-0.199-0.072-0.414-0.092-0.624c-0.011-0.105,0.051-0.168,0.167-0.152
	c0.043,0.005,0.087,0.013,0.132,0.02c0.352,0.061,0.701,0.138,1.055,0.179c1.079,0.124,2.134,0.009,3.16-0.346
	c1.061-0.363,1.985-0.935,2.658-1.852C18.766,30.555,18.96,29.42,18.497,28.203z M29.314,30.524
	c0.074-1.238-0.461-2.293-1.748-2.766c-0.455-0.167-0.927-0.247-1.407-0.268c-1.058-0.048-2.093,0.071-3.092,0.443
	c-0.099,0.036-0.133,0.083-0.133,0.191c0.005,2.649,0.003,5.3,0.003,7.95c0,0.049,0,0.096,0,0.146c0.807,0,1.599,0,2.406,0
	c0-1.023,0-2.04,0-3.063c0.045,0,0.072,0.001,0.101,0c0.412-0.017,0.828-0.011,1.238-0.057c0.542-0.061,1.054-0.234,1.512-0.543
	C28.914,32.073,29.264,31.376,29.314,30.524z M35.821,35.752c-0.004-1.28,0-2.562-0.006-3.842c0-0.21-0.017-0.423-0.052-0.631
	c-0.142-0.864-0.608-1.474-1.456-1.739c-0.317-0.1-0.657-0.153-0.99-0.179c-0.79-0.063-1.565,0.055-2.326,0.264
	c-0.258,0.07-0.509,0.16-0.772,0.245c0.172,0.472,0.336,0.919,0.5,1.368c0.164-0.062,0.31-0.122,0.46-0.169
	c0.547-0.173,1.102-0.287,1.679-0.231c0.438,0.043,0.694,0.252,0.736,0.612c0.015,0.116,0.002,0.233,0.002,0.367
	c-0.217,0.026-0.427,0.048-0.636,0.077c-0.646,0.089-1.284,0.212-1.88,0.49c-0.734,0.345-1.207,0.874-1.245,1.727
	c-0.041,0.915,0.381,1.606,1.227,1.951c0.235,0.096,0.485,0.166,0.734,0.215c0.766,0.146,1.538,0.124,2.308,0.038
	c0.552-0.061,1.091-0.172,1.604-0.394C35.79,35.886,35.821,35.844,35.821,35.752z M43.146,29.496c-0.063,0-0.106,0-0.15,0
	c-0.662,0-1.325,0.004-1.988-0.004c-0.117-0.001-0.158,0.032-0.184,0.146c-0.139,0.627-0.288,1.251-0.428,1.878
	c-0.166,0.74-0.326,1.482-0.484,2.226c-0.033,0.157-0.046,0.32-0.066,0.479c-0.212-1.592-0.605-3.145-0.876-4.721
	c-0.863,0-1.704,0-2.557,0c0.021,0.066,0.039,0.124,0.059,0.182c0.721,2.147,1.443,4.296,2.161,6.446
	c0.02,0.062,0.018,0.146-0.007,0.205c-0.176,0.438-0.36,0.871-0.543,1.307c-0.176,0.418-0.351,0.837-0.534,1.277
	c0.064,0,0.109,0,0.153,0c0.729,0,1.455-0.003,2.184,0.003c0.106,0.001,0.144-0.036,0.175-0.131
	c1.014-3.055,2.031-6.106,3.047-9.159C43.121,29.591,43.131,29.55,43.146,29.496z M48.504,34.712c-0.659,0-1.312,0-1.983,0
	c0.658-1.747,1.308-3.475,1.961-5.209c-1.581,0-3.146,0-4.719,0c0,0.505,0,1.001,0,1.51c0.602,0,1.193,0,1.808,0
	c-0.678,1.745-1.35,3.475-2.022,5.207c1.667,0,3.312,0,4.956,0C48.504,35.716,48.504,35.223,48.504,34.712z M55.273,35.728
	c-0.004-1.249-0.002-2.496-0.004-3.744c-0.002-0.195-0.009-0.392-0.034-0.584c-0.08-0.624-0.317-1.166-0.844-1.547
	c-0.4-0.289-0.859-0.417-1.342-0.472c-0.839-0.095-1.663,0-2.477,0.211c-0.301,0.078-0.595,0.181-0.902,0.273
	c0.173,0.475,0.337,0.923,0.497,1.365c0.244-0.081,0.473-0.168,0.708-0.233c0.471-0.131,0.951-0.212,1.444-0.158
	c0.564,0.061,0.825,0.413,0.718,0.978c-0.263,0.033-0.529,0.063-0.794,0.103c-0.604,0.092-1.199,0.219-1.755,0.487
	c-0.863,0.417-1.249,1.046-1.195,1.974c0.042,0.712,0.37,1.249,1.009,1.587c0.298,0.158,0.615,0.254,0.944,0.313
	c0.768,0.139,1.538,0.121,2.31,0.037c0.542-0.06,1.073-0.172,1.581-0.383C55.24,35.892,55.273,35.838,55.273,35.728z M55.976,29.423
	c-0.002-0.011-0.003-0.021-0.006-0.03c-0.139,0-0.277,0-0.416,0c-0.001,0.012-0.002,0.022-0.003,0.033
	c0.048,0.007,0.097,0.016,0.163,0.026c0,0.213-0.001,0.42,0.002,0.627c0.001,0.025,0.03,0.053,0.047,0.08
	c0.016-0.027,0.045-0.054,0.046-0.08c0.004-0.17,0.002-0.342,0.003-0.513c0.001-0.042,0.007-0.083,0.011-0.115
	C55.886,29.438,55.931,29.43,55.976,29.423z M56.821,30.145c-0.027-0.232-0.054-0.467-0.085-0.699
	c-0.003-0.023-0.037-0.064-0.05-0.063c-0.028,0.008-0.065,0.03-0.074,0.056c-0.037,0.111-0.066,0.227-0.099,0.339
	c-0.021,0.073-0.042,0.147-0.063,0.22c-0.077-0.185-0.131-0.362-0.178-0.543c-0.02-0.074-0.054-0.091-0.127-0.061
	c-0.03,0.251-0.061,0.504-0.09,0.755c0.015,0.007,0.029,0.012,0.044,0.017c0.015-0.032,0.037-0.063,0.042-0.098
	c0.021-0.176,0.039-0.353,0.059-0.53c0.095,0.208,0.133,0.427,0.216,0.631c0.014-0.002,0.029-0.003,0.044-0.005
	c0.062-0.206,0.122-0.413,0.182-0.618c0.009,0,0.016,0,0.024,0.001c0.005,0.037,0.013,0.074,0.017,0.112
	c0.015,0.146,0.027,0.291,0.047,0.437c0.004,0.026,0.037,0.049,0.058,0.072C56.799,30.16,56.81,30.151,56.821,30.145z
	 M15.011,27.836c-0.679-0.349-1.408-0.456-2.273-0.47c-0.129,0.011-0.372,0.026-0.614,0.055c-0.12,0.014-0.24,0.041-0.356,0.073
	c-0.772,0.218-1.303,0.682-1.487,1.484c-0.109,0.472-0.076,0.946,0.038,1.412c0.138,0.565,0.481,0.955,1.027,1.164
	c0.362,0.137,0.739,0.186,1.122,0.193c0.681,0.014,1.346-0.077,1.984-0.317c0.552-0.209,1.049-0.501,1.413-0.98
	c0.42-0.551,0.446-1.228,0.073-1.809C15.708,28.281,15.385,28.027,15.011,27.836z"/>
</svg>
