<?xml version="1.0" encoding="utf-8"?>
<!-- Generator: Adobe Illustrator 16.0.0, SVG Export Plug-In . SVG Version: 6.00 Build 0)  -->
<!DOCTYPE svg PUBLIC "-//W3C//DTD SVG 1.1//EN" "http://www.w3.org/Graphics/SVG/1.1/DTD/svg11.dtd">
<svg version="1.1" id="Layer_1" xmlns="http://www.w3.org/2000/svg" xmlns:xlink="http://www.w3.org/1999/xlink" x="0px" y="0px"
	 width="64px" height="64px" viewBox="0 0 64 64" enable-background="new 0 0 64 64" xml:space="preserve">
<path fill-rule="evenodd" clip-rule="evenodd" d="M38.66,30.871c0.004,0.778-0.641,1.421-1.424,1.425
	c-0.84,0.003-1.443-0.717-1.426-1.446c0.02-0.767,0.648-1.403,1.422-1.402C38.014,29.447,38.656,30.089,38.66,30.871z
	 M21.813,29.448c-0.789,0.01-1.42,0.633-1.42,1.429c0,0.789,0.645,1.421,1.43,1.418c0.832,0.004,1.443-0.724,1.418-1.464
	C23.217,30.079,22.574,29.438,21.813,29.448z M9.131,29.448c-0.773-0.011-1.414,0.626-1.43,1.419
	c-0.016,0.771,0.631,1.422,1.418,1.428c0.787,0.005,1.422-0.626,1.428-1.417C10.551,30.093,9.924,29.458,9.131,29.448z
	 M15.477,29.448c-0.773-0.012-1.426,0.635-1.434,1.419c-0.008,0.776,0.635,1.421,1.42,1.429c0.76,0.006,1.402-0.62,1.432-1.356
	C16.924,30.194,16.346,29.461,15.477,29.448z M49.242,29.14c-0.658-0.058-1.248,0.387-1.326,1.011c0.754,0,1.498,0,2.242,0
	C50.182,29.656,49.75,29.185,49.242,29.14z M60.24,15.152v33.695c0,0.803-0.65,1.454-1.454,1.454H5.214
	c-0.804,0-1.454-0.651-1.454-1.454V15.152c0-0.803,0.65-1.454,1.454-1.454h53.572C59.59,13.698,60.24,14.35,60.24,15.152z
	 M12.02,30.463c-0.18-1.22-1.08-2.185-2.279-2.442c-0.135-0.028-0.271-0.051-0.406-0.076c-0.139,0-0.277,0-0.416,0
	c-0.135,0.025-0.271,0.047-0.406,0.076c-1.201,0.261-2.104,1.229-2.279,2.441c-0.01,0.068-0.023,0.136-0.035,0.203
	c0,1.657,0,3.315,0,4.974c0.445,0.001,0.891,0.003,1.336,0.004c0.162,0,0.162-0.001,0.162-0.162c0-0.629,0-1.257,0.002-1.886
	c0-0.048,0.008-0.098,0.014-0.158c0.049,0.021,0.08,0.032,0.107,0.047c0.574,0.282,1.174,0.367,1.807,0.266
	C11.158,33.501,12.248,32.011,12.02,30.463z M18.348,30.394c-0.18-1.133-1.041-2.073-2.154-2.347
	c-0.17-0.042-0.342-0.068-0.512-0.103c-0.139,0-0.277,0-0.418,0c-0.123,0.021-0.248,0.038-0.369,0.064
	c-1.578,0.34-2.568,1.791-2.297,3.375c0.273,1.596,1.82,2.687,3.451,2.35C17.615,33.409,18.598,31.965,18.348,30.394z
	 M24.695,30.393c-0.203-1.199-1.08-2.114-2.275-2.374c-0.129-0.028-0.262-0.05-0.393-0.074c-0.139,0-0.277,0-0.418,0
	c-0.094,0.018-0.189,0.036-0.285,0.053c-1.385,0.231-2.42,1.438-2.426,2.843c-0.006,1.556,0,3.111-0.004,4.665
	c0,0.109,0.031,0.141,0.137,0.14c0.4-0.005,0.801-0.007,1.201,0c0.125,0.003,0.16-0.036,0.158-0.159
	c-0.006-0.629-0.002-1.257-0.002-1.886c0-0.051,0.01-0.101,0.014-0.163c0.051,0.021,0.086,0.034,0.117,0.05
	c0.566,0.277,1.158,0.366,1.783,0.264C23.887,33.49,24.965,31.979,24.695,30.393z M33.807,33.504c0-1.131,0.004-2.262-0.004-3.393
	c-0.002-0.251-0.025-0.506-0.074-0.753c-0.129-0.663-0.514-1.109-1.182-1.274c-0.242-0.061-0.498-0.095-0.748-0.103
	c-0.75-0.021-1.469,0.117-2.141,0.46c-0.063,0.03-0.104,0.027-0.166-0.014c-0.145-0.096-0.293-0.194-0.453-0.259
	c-0.477-0.189-0.973-0.21-1.48-0.175c-0.732,0.051-1.443,0.189-2.141,0.415c-0.092,0.03-0.127,0.066-0.127,0.169
	c0.004,1.653,0.004,3.309,0.004,4.962c0,0.04,0.004,0.079,0.006,0.125c0.521,0,1.035,0,1.572,0c0-0.051,0-0.101,0-0.152
	c0-1.245,0-2.491,0-3.736c0-0.037-0.01-0.076,0.002-0.109c0.012-0.032,0.037-0.076,0.064-0.084c0.322-0.095,0.648-0.164,0.986-0.146
	c0.387,0.021,0.656,0.203,0.76,0.53c0.039,0.126,0.061,0.264,0.061,0.396c0.006,1.054,0.004,2.106,0.004,3.16
	c0,0.047,0,0.095,0,0.138c0.539,0,1.055,0,1.58,0c0-0.063,0-0.116,0-0.169c-0.002-1.233,0-2.467-0.006-3.699
	c0-0.108,0.035-0.158,0.135-0.197c0.297-0.113,0.604-0.169,0.922-0.16c0.465,0.013,0.758,0.257,0.838,0.702
	c0.02,0.115,0.023,0.235,0.023,0.354c0,1.013,0.002,2.025-0.002,3.038c0,0.111,0.029,0.146,0.145,0.145
	c0.428-0.008,0.857-0.003,1.287-0.003c0.043,0,0.086-0.005,0.135-0.007C33.807,33.602,33.807,33.553,33.807,33.504z M40.125,30.451
	c-0.178-1.183-1.037-2.128-2.195-2.413c-0.162-0.04-0.326-0.063-0.49-0.094c-0.139,0-0.277,0-0.416,0
	c-0.096,0.018-0.189,0.037-0.285,0.053c-1.598,0.267-2.705,1.818-2.365,3.454c0.328,1.571,1.771,2.552,3.354,2.297
	C39.275,33.499,40.359,32.007,40.125,30.451z M45.891,33.499c0-1.106,0.002-2.213-0.004-3.32c0-0.215-0.016-0.433-0.053-0.644
	c-0.129-0.745-0.547-1.248-1.291-1.43c-0.299-0.073-0.611-0.115-0.918-0.121c-0.369-0.007-0.74,0.027-1.109,0.066
	c-0.594,0.063-1.172,0.193-1.738,0.383c-0.078,0.027-0.107,0.064-0.107,0.148c0.002,1.658,0.002,3.315,0,4.974
	c0,0.09,0.027,0.119,0.119,0.118c0.449-0.005,0.898-0.002,1.348-0.002c0.031,0,0.063-0.008,0.1-0.013c0-0.05,0-0.09,0-0.131
	c0-1.241,0.002-2.482-0.002-3.724c0-0.1,0.031-0.144,0.123-0.174c0.381-0.13,0.771-0.171,1.17-0.146
	c0.416,0.025,0.711,0.267,0.814,0.659c0.029,0.112,0.039,0.232,0.039,0.35c0.004,1.009,0.002,2.018,0.002,3.026
	c0,0.047,0,0.095,0,0.147c0.508,0,0.996,0,1.508,0C45.891,33.604,45.891,33.552,45.891,33.499z M51.424,29.601
	c-0.191-0.715-0.594-1.248-1.316-1.49c-0.465-0.157-0.943-0.178-1.426-0.111c-0.863,0.116-1.516,0.55-1.92,1.325
	c-0.365,0.696-0.439,1.443-0.324,2.212c0.188,1.265,1.084,2.039,2.346,2.213c0.455,0.063,0.91,0.053,1.365-0.007
	c0.412-0.054,0.814-0.147,1.193-0.336c0.078-0.04,0.111-0.084,0.111-0.177c-0.008-0.306-0.004-0.611-0.004-0.918
	c0-0.035-0.004-0.068-0.008-0.11c-0.031,0.008-0.051,0.012-0.068,0.019c-0.676,0.278-1.377,0.392-2.105,0.313
	c-0.363-0.04-0.709-0.146-1.006-0.374c-0.242-0.185-0.389-0.425-0.416-0.732c-0.014-0.152-0.016-0.152,0.146-0.152
	c1.127,0,2.254,0,3.379,0c0.053,0,0.105,0,0.172,0C51.551,30.698,51.566,30.144,51.424,29.601z M57.803,28.116
	c-0.51-0.001-1.02,0-1.531-0.006c-0.102,0-0.148,0.032-0.184,0.13c-0.443,1.212-0.891,2.423-1.338,3.634
	c-0.018,0.047-0.041,0.092-0.07,0.161c-0.031-0.076-0.051-0.124-0.07-0.173c-0.453-1.208-0.908-2.416-1.359-3.626
	c-0.033-0.088-0.074-0.127-0.174-0.126c-0.486,0.005-0.973,0.002-1.457,0.003c-0.039,0-0.078,0.005-0.131,0.009
	c0.023,0.063,0.041,0.113,0.061,0.161c0.744,1.856,1.488,3.712,2.229,5.57c0.027,0.067,0.027,0.161,0.004,0.229
	c-0.109,0.311-0.23,0.618-0.35,0.926c-0.135,0.35-0.271,0.698-0.406,1.047c0.555,0,1.109,0,1.666,0
	c0.602-1.539,1.203-3.078,1.805-4.616c0.418-1.069,0.834-2.139,1.252-3.208c0.014-0.032,0.035-0.061,0.055-0.091
	C57.803,28.133,57.803,28.125,57.803,28.116z"/>
</svg>
