<?xml version="1.0" encoding="utf-8"?>
<!-- Generator: Adobe Illustrator 16.0.0, SVG Export Plug-In . SVG Version: 6.00 Build 0)  -->
<!DOCTYPE svg PUBLIC "-//W3C//DTD SVG 1.1//EN" "http://www.w3.org/Graphics/SVG/1.1/DTD/svg11.dtd">
<svg version="1.1" id="Layer_1" xmlns="http://www.w3.org/2000/svg" xmlns:xlink="http://www.w3.org/1999/xlink" x="0px" y="0px"
	 width="64px" height="64px" viewBox="0 0 64 64" enable-background="new 0 0 64 64" xml:space="preserve">
<path d="M58.786,13.698H5.214c-0.804,0-1.454,0.651-1.454,1.454v33.695c0,0.803,0.65,1.454,1.454,1.454h53.572
	c0.804,0,1.454-0.651,1.454-1.454V15.152C60.24,14.35,59.59,13.698,58.786,13.698z M45.381,28.499
	c0.429-0.902,1.103-1.494,2.069-1.749c0.25-0.066,0.507-0.051,0.772-0.063c1.165-0.028,1.991,0.553,2.604,1.5
	c0.123,0.189,0.114,0.336-0.109,0.474c-1.049,0.646-2.084,1.315-3.135,1.957c-0.247,0.151-0.181,0.204,0.014,0.313
	c0.565,0.316,1.104,0.172,1.64-0.075c0.074-0.033,0.144-0.076,0.214-0.118c0.396-0.231,0.394-0.23,0.637,0.15
	c0.164,0.256,0.332,0.51,0.504,0.761c0.103,0.148,0.118,0.252-0.06,0.374c-1.218,0.83-2.74,1.045-4.051,0.221
	C45.271,31.482,44.768,29.786,45.381,28.499z M42.479,25.235c-0.001-0.173,0.057-0.232,0.231-0.229
	c0.439,0.011,0.879,0.014,1.318-0.001c0.211-0.007,0.275,0.052,0.273,0.27c-0.011,1.197-0.005,2.394-0.005,3.59
	c0,1.187-0.006,2.373,0.005,3.56c0.002,0.214-0.057,0.282-0.271,0.275c-0.439-0.014-0.879-0.01-1.319,0
	c-0.168,0.004-0.234-0.045-0.234-0.224C42.482,30.063,42.482,27.649,42.479,25.235z M36.776,29.424
	c0.654-0.655,1.92-0.897,2.813-0.229c0.122-0.598-0.117-0.957-0.708-1.056c-0.57-0.096-1.091,0.092-1.607,0.294
	c-0.104,0.041-0.204,0.087-0.358,0.152c0.109-0.519,0.209-0.976,0.301-1.435c0.021-0.106,0.04-0.183,0.171-0.213
	c0.81-0.184,1.62-0.352,2.454-0.174c0.982,0.21,1.513,0.859,1.516,1.863c0.003,1.248-0.012,2.497,0.01,3.745
	c0.005,0.299-0.108,0.339-0.353,0.323c-0.296-0.021-0.594-0.03-0.89-0.02c-0.25,0.009-0.476,0.02-0.428-0.341
	c-1.404,0.626-2.479,0.481-3.101-0.401C36.054,31.161,36.131,30.071,36.776,29.424z M25.892,27.128
	c-0.001-0.205,0.081-0.236,0.254-0.232c0.409,0.009,0.819,0.017,1.229-0.003c0.232-0.011,0.317,0.059,0.285,0.289
	c-0.016,0.108-0.003,0.219-0.003,0.417c0.489-0.656,1.074-0.896,1.793-0.846c0.164,0.011,0.242,0.028,0.172,0.227
	c-0.165,0.472-0.31,0.951-0.456,1.429c-0.042,0.141-0.099,0.175-0.257,0.161c-0.712-0.058-1.129,0.297-1.204,1.002
	c-0.099,0.929-0.035,1.861-0.038,2.792c-0.001,0.265-0.077,0.328-0.327,0.314c-0.398-0.021-0.799-0.014-1.198-0.002
	c-0.181,0.006-0.25-0.036-0.249-0.234C25.898,30.67,25.899,28.898,25.892,27.128z M9.158,31.051
	c0.011-0.027,0.022-0.055,0.034-0.083c0.412,0.149,0.827,0.293,1.235,0.453c0.129,0.05,0.073,0.189,0.1,0.354
	C10.045,31.52,9.602,31.285,9.158,31.051z M14.058,38.077c-0.518-0.626-1.019-1.269-1.453-1.958
	c-0.044-0.069-0.801-1.376-0.801-1.431c-0.018-0.014-0.734-1.62-0.725-1.658c-0.259-0.779-0.436-1.579-0.457-2.398
	c-0.031-1.192,0.239-2.297,1.189-3.107c0.675-0.576,1.5-0.692,2.361-0.605c0.805,0.082,1.544,0.358,2.238,0.765
	c0.019,0.008,0.037,0.017,0.056,0.024c1.028,0.582,3.039,2.605,3.039,2.605s-1.693-1.025-2.315-1.333
	c-0.16-0.079-1.359-0.64-1.641-0.728c-0.828-0.259-1.662-0.431-2.506-0.086c-0.582,0.239-0.941,0.694-1.115,1.289
	c-0.251,0.853-0.115,1.699,0.071,2.54c0.087,0.387,0.156,0.83,0.597,2.077l0.002,0.002c0.442,1.057,0.872,2.119,1.394,3.141
	c0.291,0.57,0.589,1.138,0.921,1.778C14.535,38.704,14.306,38.376,14.058,38.077z M21.966,32.003
	c-0.16,1.26-1.029,2.056-2.391,2.258c-1.306,0.193-2.567-0.053-3.817-0.387c-1.077-0.287-2.11-0.701-3.144-1.119
	c-0.102-0.042-0.192-0.097-0.242-0.159c-0.108-0.138-0.125-0.479-0.125-0.479l-0.006-0.046c0,0,1.738,0.424,2.498,0.623
	c1.208,0.316,2.426,0.586,3.686,0.57c0.439-0.006,0.878-0.052,1.302-0.182c0.841-0.255,1.258-0.969,1.067-1.832
	c-0.166-0.751-0.593-1.361-1.065-1.944c-1.479-1.821-3.389-2.891-5.701-3.239c-1.811-0.273-3.437,0.234-4.948,1.21
	c-0.83,0.536-1.551,1.199-2.242,1.897c-0.02,0.017-0.048,0.051-0.059,0.046c-0.055-0.023-0.019-0.059-0.003-0.09
	c1.33-2.02,3.085-3.445,5.509-3.933c1.712-0.344,3.332-0.023,4.894,0.692c1.831,0.84,3.283,2.103,4.256,3.879
	C21.811,30.46,22.067,31.204,21.966,32.003z M29.248,37.689c-0.751,0.68-1.707,0.654-2.582-0.111c0,0.422-0.007,0.788,0.003,1.154
	c0.004,0.157-0.043,0.204-0.205,0.21c-0.632,0.02-0.631,0.026-0.631-0.615c0-1.249,0.01-2.497-0.006-3.746
	c-0.003-0.261,0.074-0.331,0.323-0.328c0.483,0.007,0.483-0.006,0.527,0.521c0.471-0.542,1.045-0.696,1.697-0.557
	c0.456,0.098,0.828,0.335,1.104,0.72C30.079,35.773,29.975,37.032,29.248,37.689z M30.049,28.731
	c0.402-1.229,1.583-2.06,3.131-2.063c0.987,0.026,1.852,0.586,2.451,1.593c0.103,0.171,0.073,0.254-0.1,0.36
	c-1.061,0.654-2.112,1.323-3.167,1.988c-0.075,0.048-0.205,0.072-0.199,0.168c0.006,0.105,0.135,0.135,0.227,0.175
	c0.705,0.309,1.346,0.111,1.932-0.295c0.22-0.153,0.304-0.13,0.429,0.082c0.197,0.333,0.42,0.651,0.632,0.977
	c0.059,0.089,0.116,0.169-0.012,0.255c-1.283,0.857-2.793,1.188-4.235,0.19C30.044,31.407,29.622,30.035,30.049,28.731z
	 M33.268,38.104c-0.05-0.007-0.103-0.005-0.152,0c-0.274,0.029-0.487-0.005-0.342-0.434c-0.9,0.613-1.662,0.622-2.214,0.079
	c-0.451-0.443-0.534-1.179-0.193-1.722c0.412-0.655,1.094-0.743,2.273-0.295c0.094-0.552-0.132-0.863-0.672-0.928
	c-0.352-0.042-0.691,0.012-1.026,0.119c-0.103,0.032-0.202,0.097-0.353,0.064c0.047-0.186,0.098-0.367,0.138-0.552
	c0.025-0.113,0.109-0.144,0.2-0.16c0.533-0.098,1.064-0.192,1.61-0.076c0.623,0.133,0.996,0.57,0.999,1.209
	c0.004,0.808-0.007,1.616,0.006,2.423C33.545,38.048,33.482,38.135,33.268,38.104z M37.442,34.743
	c-0.548,1.277-1.105,2.551-1.636,3.834c-0.115,0.279-0.248,0.388-0.557,0.37c-0.522-0.031-0.523-0.009-0.307-0.479
	c0.412-0.893,0.409-0.891-0.04-1.785c-0.395-0.785-0.778-1.573-1.184-2.394c0.889-0.078,0.89-0.078,1.23,0.678
	c0.259,0.577,0.515,1.156,0.783,1.761c0.148-0.211,0.206-0.438,0.294-0.648c0.204-0.491,0.414-0.98,0.589-1.481
	c0.094-0.271,0.236-0.354,0.515-0.335C37.638,34.298,37.64,34.283,37.442,34.743z M42.951,38.108
	c-0.55-0.003-0.549,0.007-0.551-0.551c-0.001-0.645,0.002-1.29-0.009-1.935c-0.006-0.384-0.174-0.62-0.454-0.68
	c-0.331-0.071-0.627,0.095-0.791,0.439c-0.08,0.17-0.11,0.349-0.11,0.535c-0.001,0.635-0.011,1.27-0.001,1.904
	c0.003,0.199-0.029,0.291-0.261,0.288c-0.568-0.005-0.568,0.007-0.568-0.566c0-0.645,0.002-1.29-0.001-1.935
	c-0.001-0.384-0.154-0.607-0.451-0.671c-0.31-0.066-0.598,0.081-0.758,0.388c-0.127,0.243-0.154,0.507-0.155,0.774
	c-0.003,0.573-0.009,1.146,0.003,1.72c0.005,0.202-0.036,0.287-0.263,0.287c-0.552,0.002-0.552,0.015-0.552-0.54
	c0-1.004,0.007-2.007-0.006-3.01c-0.003-0.223,0.044-0.334,0.283-0.29c0.03,0.005,0.063,0.003,0.093,0
	c0.271-0.027,0.52-0.024,0.446,0.441c0.642-0.769,1.697-0.677,2.098,0.07c0.328-0.511,0.796-0.677,1.371-0.595
	c0.373,0.053,0.613,0.258,0.752,0.596c0.119,0.288,0.154,0.594,0.156,0.901c0.005,0.717-0.007,1.434,0.007,2.15
	C43.232,38.05,43.163,38.109,42.951,38.108z M47.315,35.331c-0.758,0.484-1.508,0.98-2.274,1.45c-0.253,0.155-0.19,0.25-0.012,0.394
	c0.46,0.367,1.118,0.354,1.627-0.096c0.229-0.201,0.341-0.166,0.527,0.034c0.285,0.308,0.308,0.304-0.024,0.561
	c-0.736,0.567-1.549,0.684-2.387,0.277c-0.762-0.37-1.113-1.025-1.089-1.871c0.032-1.099,0.896-1.896,2.129-1.894
	c0.627-0.013,1.142,0.359,1.586,0.876C47.535,35.22,47.422,35.263,47.315,35.331z M51.212,37.949
	c0.002,0.098-0.036,0.156-0.144,0.15c-0.03-0.002-0.062,0.001-0.092,0.003c-0.609,0.028-0.609,0.028-0.609-0.575
	s0.001-1.207,0-1.811c0-0.514-0.155-0.743-0.532-0.791c-0.46-0.057-0.857,0.216-0.955,0.668c-0.028,0.128-0.034,0.263-0.035,0.396
	c-0.003,0.624-0.008,1.248,0.003,1.872c0.003,0.185-0.044,0.245-0.238,0.246c-0.6,0.004-0.6,0.014-0.6-0.594
	c0-0.982,0.007-1.964-0.005-2.947c-0.003-0.229,0.04-0.353,0.295-0.311c0.04,0.007,0.083,0.006,0.123,0
	c0.316-0.049,0.508,0.031,0.418,0.435c0.293-0.325,0.618-0.483,1.014-0.521c0.704-0.067,1.216,0.287,1.307,0.989
	C51.28,36.084,51.192,37.019,51.212,37.949z M53.808,37.657c-0.063,0.48-0.057,0.481-0.55,0.478
	c-0.758-0.006-1.171-0.396-1.215-1.164c-0.017-0.306-0.002-0.613-0.002-0.921c-0.002,0-0.004,0-0.005,0c0-0.307,0-0.613,0-0.92
	c0-0.094,0.011-0.198-0.134-0.182c-0.264,0.028-0.208-0.164-0.202-0.304c0.007-0.15-0.099-0.382,0.21-0.362
	c0.118,0.008,0.13-0.065,0.126-0.156c-0.003-0.092,0-0.184,0-0.275c0-0.452,0-0.455,0.448-0.451c0.463,0.004,0.399-0.059,0.402,0.41
	c0.004,0.476,0.001,0.476,0.49,0.477c0.313,0.001,0.492,0.31,0.341,0.589c-0.064,0.119-0.181,0.066-0.275,0.068
	c-0.555,0.008-0.555,0.005-0.555,0.566c0,0.408-0.005,0.818,0.002,1.227c0.007,0.472,0.221,0.691,0.681,0.651
	C53.821,37.365,53.832,37.46,53.808,37.657z M56.531,37.961c-0.271,0.159-0.567,0.224-0.884,0.223
	c-0.392-0.003-0.758-0.114-1.116-0.275c-0.152-0.069-0.176-0.147-0.087-0.277c0.006-0.008,0.01-0.018,0.014-0.027
	c0.196-0.42,0.198-0.424,0.625-0.258c0.289,0.112,0.571,0.134,0.859-0.003c0.172-0.082,0.273-0.203,0.281-0.4
	c0.006-0.196-0.114-0.311-0.266-0.376c-0.233-0.101-0.479-0.171-0.721-0.251c-0.602-0.201-0.828-0.49-0.806-1.033
	c0.021-0.523,0.387-0.955,0.933-1.07c0.516-0.109,1.013-0.04,1.492,0.187c0.159,0.075,0.196,0.151,0.108,0.301
	c-0.046,0.078-0.082,0.165-0.11,0.252c-0.051,0.156-0.123,0.164-0.271,0.097c-0.299-0.136-0.613-0.229-0.947-0.109
	c-0.186,0.066-0.326,0.175-0.342,0.387c-0.017,0.216,0.135,0.307,0.303,0.372c0.275,0.106,0.556,0.201,0.832,0.306
	c0.423,0.16,0.674,0.462,0.688,0.92C57.13,37.379,56.927,37.729,56.531,37.961z M57.229,32.635
	c-0.046,0.069-0.146,0.063-0.228,0.062c-0.563-0.01-1.126-0.024-1.688-0.031c-0.13-0.002-0.199-0.064-0.262-0.172
	c-0.26-0.447-0.529-0.89-0.811-1.36c-0.253,0.236-0.411,0.535-0.541,0.825c-0.253,0.568-0.629,0.81-1.259,0.717
	c-0.371-0.055-0.757-0.011-1.135-0.013c-0.04,0-0.081-0.008-0.127-0.014c-0.022-0.13,0.067-0.206,0.129-0.293
	c0.58-0.818,1.155-1.641,1.746-2.452c0.138-0.189,0.127-0.317-0.006-0.503c-0.538-0.747-1.059-1.507-1.584-2.264
	c-0.038-0.055-0.108-0.113-0.064-0.189c0.042-0.073,0.128-0.05,0.196-0.05c0.532-0.002,1.064,0.006,1.596-0.002
	c0.185-0.003,0.279,0.096,0.361,0.233c0.178,0.296,0.354,0.594,0.536,0.888c0.112,0.179,0.22,0.267,0.366,0.01
	c0.181-0.317,0.398-0.612,0.587-0.926c0.091-0.15,0.204-0.208,0.376-0.206c0.49,0.007,0.982,0,1.474,0.006
	c0.075,0,0.181-0.031,0.224,0.056c0.047,0.095-0.034,0.167-0.088,0.241c-0.389,0.534-0.789,1.059-1.133,1.622
	c-0.021,0.029-0.042,0.059-0.063,0.087l0.001-0.006c-0.22,0.172-0.331,0.428-0.501,0.639c-0.092,0.113-0.056,0.229,0.076,0.303
	c0-0.001,0-0.002,0-0.002l0.002,0.003c-0.001-0.001-0.001-0.001-0.002-0.001c0.011,0.083,0.034,0.157,0.128,0.185
	c0.499,0.813,1.059,1.587,1.602,2.372C57.186,32.469,57.296,32.533,57.229,32.635z M46.405,35.151
	c-0.604,0.386-1.171,0.747-1.736,1.113c-0.161,0.104-0.188,0.026-0.188-0.118c0.004-0.491,0.215-0.872,0.638-1.112
	C45.542,34.795,45.96,34.851,46.405,35.151z M48.718,28.494c-0.616,0.384-1.235,0.763-1.892,1.167
	c-0.007-0.557,0.251-0.932,0.635-1.216c0.376-0.279,0.805-0.313,1.247-0.141C48.861,28.365,48.804,28.439,48.718,28.494z
	 M29.045,36.172c0.008,0.688-0.534,1.234-1.222,1.229c-0.647-0.004-1.165-0.545-1.165-1.215c0-0.687,0.525-1.239,1.18-1.241
	C28.485,34.942,29.037,35.504,29.045,36.172z M37.968,30.909c-0.124-0.491,0.26-0.899,0.845-0.898
	c0.448,0.001,0.777,0.251,0.82,0.623c0.049,0.418-0.168,0.714-0.583,0.796C38.55,31.528,38.065,31.296,37.968,30.909z M33.636,28.38
	c-0.708,0.442-1.356,0.847-2.01,1.255c-0.063-0.394,0.185-0.912,0.591-1.188C32.648,28.154,33.109,28.156,33.636,28.38z
	 M32.693,36.774c0.002,0.447-0.344,0.752-0.853,0.75c-0.505-0.002-0.868-0.317-0.865-0.751c0.002-0.423,0.361-0.739,0.844-0.74
	C32.323,36.03,32.69,36.343,32.693,36.774z"/>
</svg>
