<?xml version="1.0" encoding="utf-8"?>
<!-- Generator: Adobe Illustrator 16.0.0, SVG Export Plug-In . SVG Version: 6.00 Build 0)  -->
<!DOCTYPE svg PUBLIC "-//W3C//DTD SVG 1.1//EN" "http://www.w3.org/Graphics/SVG/1.1/DTD/svg11.dtd">
<svg version="1.1" id="Layer_1" xmlns="http://www.w3.org/2000/svg" xmlns:xlink="http://www.w3.org/1999/xlink" x="0px" y="0px"
	 width="64px" height="64px" viewBox="0 0 64 64" enable-background="new 0 0 64 64" xml:space="preserve">
<path fill-rule="evenodd" clip-rule="evenodd" d="M58.786,13.698H5.214c-0.804,0-1.454,0.651-1.454,1.454v33.695
	c0,0.803,0.65,1.454,1.454,1.454h53.572c0.804,0,1.454-0.651,1.454-1.454V15.152C60.24,14.35,59.59,13.698,58.786,13.698z
	 M16.327,36.226c-0.696,0-1.392-0.004-2.088,0.003c-0.148,0.003-0.234-0.04-0.315-0.17c-0.653-1.029-1.31-2.058-1.979-3.078
	c-0.215-0.328-0.462-0.637-0.708-0.942c-0.368-0.459-0.849-0.642-1.457-0.534c0,1.558,0,3.128,0,4.71c-0.764,0-1.501,0-2.254,0
	c0-2.132,0-4.243,0-6.374c0.091,0,0.169,0,0.247,0c1.129,0,2.258,0.002,3.388-0.001c0.389-0.001,0.771-0.048,1.133-0.21
	c0.776-0.346,1.199-1.078,1.125-1.959c-0.011-0.136-0.027-0.272-0.052-0.408c-0.114-0.631-0.485-1.025-1.113-1.146
	c-0.58-0.111-1.164-0.091-1.731,0.088c-0.574,0.182-0.853,0.605-0.817,1.229c0.415,0,0.832,0,1.249,0
	c0.008,0.016,0.016,0.03,0.022,0.045c-0.738,0.63-1.477,1.259-2.229,1.899c-0.758-0.634-1.51-1.263-2.307-1.929
	c0.396,0,0.732,0,1.062,0c0.045-0.339,0.063-0.66,0.132-0.971c0.209-0.948,0.771-1.625,1.684-1.95
	c1.474-0.527,2.974-0.577,4.438,0.011c1.229,0.493,1.819,1.487,1.93,2.783c0.053,0.613,0.003,1.219-0.222,1.798
	c-0.411,1.06-1.214,1.661-2.287,1.942c-0.074,0.02-0.148,0.037-0.207,0.052c0.276,0.322,0.582,0.622,0.82,0.97
	c0.701,1.021,1.376,2.062,2.061,3.095c0.224,0.337,0.443,0.675,0.688,1.047C16.439,36.226,16.384,36.226,16.327,36.226z
	 M23.906,32.794c-1.641,0-3.266,0-4.887,0c-0.114,0.907,0.65,1.863,1.558,1.977c0.758,0.095,1.474-0.04,2.154-0.378
	c0.087-0.043,0.175-0.084,0.271-0.129c0.227,0.452,0.448,0.896,0.678,1.354c-0.494,0.302-1.016,0.518-1.581,0.625
	c-0.872,0.165-1.748,0.195-2.611-0.037c-1.495-0.4-2.359-1.404-2.649-2.903c-0.19-0.984-0.148-1.965,0.283-2.888
	c0.608-1.307,1.655-2.011,3.085-2.146c0.641-0.061,1.271,0,1.869,0.256c0.977,0.418,1.487,1.206,1.723,2.203
	C23.957,31.398,23.954,32.078,23.906,32.794z M29.886,36.238c-0.908,0.194-1.813,0.192-2.697-0.111
	c-1.136-0.392-1.896-1.173-2.26-2.317c-0.33-1.037-0.33-2.088,0.038-3.11c0.501-1.396,1.551-2.157,2.99-2.384
	c0.99-0.156,1.962-0.075,2.878,0.38c0.098,0.049,0.192,0.105,0.301,0.164c-0.23,0.488-0.454,0.959-0.684,1.445
	c-0.47-0.295-0.967-0.445-1.501-0.459c-0.962-0.025-1.627,0.448-1.875,1.377c-0.242,0.907-0.226,1.811,0.24,2.653
	c0.311,0.563,0.82,0.829,1.457,0.855c0.577,0.025,1.119-0.102,1.624-0.385c0.044-0.024,0.092-0.044,0.155-0.073
	c0.215,0.466,0.426,0.922,0.642,1.389C30.793,35.953,30.356,36.138,29.886,36.238z M37.153,36.175
	c-0.052-0.322-0.103-0.648-0.158-0.999c-0.067,0.071-0.123,0.13-0.179,0.188c-0.875,0.909-1.938,1.186-3.147,0.892
	c-0.794-0.192-1.338-0.896-1.433-1.786c-0.025-0.241-0.04-0.483-0.04-0.727c-0.003-1.687-0.002-3.373-0.002-5.061
	c0-0.077,0-0.155,0-0.241c0.708,0,1.395,0,2.107,0c0,0.089,0,0.172,0,0.255c0,1.576-0.001,3.152,0.001,4.728
	c0,0.138,0.003,0.277,0.026,0.412c0.099,0.56,0.521,0.851,1.13,0.771c0.621-0.083,1.055-0.469,1.429-0.934
	c0.042-0.05,0.036-0.148,0.036-0.225c0.001-1.588,0.001-3.178,0.001-4.766c0-0.077,0-0.155,0-0.241c0.712,0,1.405,0,2.119,0
	c0,0.085,0,0.161,0,0.238c0,1.917-0.011,3.834,0.01,5.751c0.006,0.58,0.1,1.158,0.152,1.745
	C38.55,36.175,37.869,36.175,37.153,36.175z M45.319,30.278c-0.388-0.165-0.772-0.214-1.164-0.118
	c-0.61,0.148-1.002,0.57-1.305,1.09c-0.033,0.056-0.023,0.14-0.023,0.211c-0.002,1.497-0.002,2.992-0.002,4.489
	c0,0.071,0,0.143,0,0.225c-0.72,0-1.407,0-2.107,0c0-2.578,0-5.148,0-7.73c0.695,0,1.388,0,2.099,0c0,0.316,0,0.635,0,0.954
	c0.761-1.091,1.754-1.39,3.01-0.965C45.654,29.059,45.488,29.66,45.319,30.278z M48.912,36.169c-0.707,0-1.401,0-2.113,0
	c0-3.805,0-7.606,0-11.421c0.702,0,1.401,0,2.113,0C48.912,28.549,48.912,32.348,48.912,36.169z M54.316,37.196
	c-0.24,0.64-0.536,1.254-1.013,1.761c-0.504,0.537-1.135,0.802-1.855,0.887c-0.531,0.063-1.059,0.057-1.585-0.039
	c-0.076-0.015-0.15-0.036-0.24-0.058c0.092-0.518,0.178-1.025,0.277-1.53c0.007-0.035,0.119-0.077,0.178-0.07
	c0.385,0.043,0.77,0.063,1.149-0.026c0.489-0.115,0.822-0.429,1.02-0.878c0.163-0.371,0.3-0.754,0.435-1.136
	c0.024-0.069-0.001-0.167-0.029-0.241c-0.912-2.391-1.828-4.781-2.743-7.172c-0.03-0.077-0.057-0.157-0.09-0.254
	c0.719,0,1.414-0.004,2.109,0.008c0.058,0.001,0.142,0.101,0.165,0.17c0.394,1.152,0.779,2.306,1.167,3.46
	c0.148,0.439,0.297,0.881,0.446,1.319c0.02,0.057,0.05,0.11,0.103,0.225c0.051-0.12,0.082-0.179,0.102-0.241
	c0.488-1.581,0.977-3.161,1.46-4.744c0.045-0.151,0.111-0.205,0.273-0.201c0.564,0.012,1.129,0.005,1.694,0.005
	c0.069,0,0.141,0,0.221,0L54.316,37.196z M21.859,31.35c-0.952,0-1.894,0-2.864,0c0.085-0.55,0.238-1.055,0.728-1.358
	c0.492-0.304,1.021-0.325,1.532-0.037C21.658,30.181,21.907,30.771,21.859,31.35z"/>
</svg>
