<?xml version="1.0" encoding="utf-8"?>
<!-- Generator: Adobe Illustrator 16.0.0, SVG Export Plug-In . SVG Version: 6.00 Build 0)  -->
<!DOCTYPE svg PUBLIC "-//W3C//DTD SVG 1.1//EN" "http://www.w3.org/Graphics/SVG/1.1/DTD/svg11.dtd">
<svg version="1.1" id="Layer_1" xmlns="http://www.w3.org/2000/svg" xmlns:xlink="http://www.w3.org/1999/xlink" x="0px" y="0px"
	 width="64px" height="64px" viewBox="0 0 64 64" enable-background="new 0 0 64 64" xml:space="preserve">
<path fill="#010101" d="M58.786,13.698H5.214c-0.804,0-1.454,0.651-1.454,1.454v33.695c0,0.803,0.65,1.454,1.454,1.454h53.572
	c0.804,0,1.454-0.651,1.454-1.454V15.152C60.24,14.35,59.59,13.698,58.786,13.698z M50.919,30.856h-8.045
	c0,1.827,1.248,2.515,3.045,2.515c1.002,0,2.269-0.452,3.036-1.14l1.768,1.286c-1.287,1.277-3.006,1.965-4.754,1.965
	c-1.435,0-2.976-0.334-4.097-1.356v0.944c0,3.38-2.682,4.932-5.668,4.932c-1.67,0-3.37-0.758-4.529-1.877l2.034-1.394
	c0.638,0.549,1.542,1.012,2.544,1.012c1.758,0,2.986-0.856,2.986-2.428v-1.149c-0.815,0.776-2.033,1.307-3.37,1.307
	c-1.473,0-2.534-0.55-3.182-1.11v1.131h-2.623v-1.141h-0.049c-0.541,0.776-1.444,1.13-3.222,1.13c-1.66,0-2.928-0.481-3.704-1.259
	c-0.982,0.807-2.544,1.239-4.332,1.239c-2.112,0-4.067-0.658-5.737-2.004l1.827-1.552c1.13,0.951,2.368,1.444,4.116,1.444
	c1.494,0,2.574-0.493,2.574-1.444c0-0.796-0.697-1.031-1.591-1.1l-2.319-0.178c-2.161-0.156-3.762-1.258-3.762-3.183
	c0-2.279,2.112-3.449,4.873-3.449c1.985,0,3.409,0.453,4.597,1.179c0.963-0.863,2.22-1.168,3.92-1.168
	c2.269,0,4.037,0.462,4.882,1.699c0.088-0.107,0.177-0.216,0.285-0.335c0.589-0.636,1.749-1.375,3.447-1.375
	c1.336,0,2.398,0.442,3.37,1.328v-1.189h2.633v1.228c1.041-0.982,2.437-1.366,3.743-1.366c2.878,0,5.353,1.976,5.364,5.275
	C50.988,29.845,50.919,30.856,50.919,30.856z M26.921,30.698h3.143v0.816c0,1.748-0.747,1.944-2.937,1.944
	c-1.779,0-2.466-0.656-2.466-1.414C24.661,31.229,25.378,30.698,26.921,30.698z M38.708,27.083c0.472,0.512,0.53,0.825,0.53,2.653
	c0,1.808-0.058,2.122-0.53,2.631c-0.373,0.404-1.061,0.875-2.122,0.875c-1.09,0-1.896-0.471-2.269-0.875
	c-0.471-0.509-0.501-0.795-0.531-2.631c-0.02-1.848,0.06-2.142,0.531-2.653c0.373-0.402,1.179-0.875,2.269-0.875
	C37.647,26.208,38.335,26.681,38.708,27.083z M48.945,28.882h-6.071c0-1.956,1.423-2.908,3.025-2.908S48.945,26.936,48.945,28.882z
	 M30.064,27.564v1.15H26.43c-1.396,0-2.457,0.382-3.163,0.991c-0.609-0.59-1.553-0.973-2.888-1.04l-2.161-0.139
	c-1.317-0.089-1.719-0.57-1.719-1.061c0-0.775,0.56-1.346,2.239-1.346c1.415,0,2.466,0.422,3.497,1.041l1.11-1.12l1.1,1.13
	c0.688-0.639,1.572-1.041,2.938-1.041C29.268,26.131,30.064,26.503,30.064,27.564z"/>
</svg>
