<?xml version="1.0" encoding="utf-8"?>
<!-- Generator: Adobe Illustrator 16.0.0, SVG Export Plug-In . SVG Version: 6.00 Build 0)  -->
<!DOCTYPE svg PUBLIC "-//W3C//DTD SVG 1.1//EN" "http://www.w3.org/Graphics/SVG/1.1/DTD/svg11.dtd">
<svg version="1.1" id="Layer_1" xmlns="http://www.w3.org/2000/svg" xmlns:xlink="http://www.w3.org/1999/xlink" x="0px" y="0px"
	 width="64px" height="64px" viewBox="0 0 64 64" enable-background="new 0 0 64 64" xml:space="preserve">
<path d="M38.617,38.909c0,0.453-0.184,0.756-0.516,0.756c-0.326,0-0.51-0.31-0.51-0.762c0-0.458,0.178-0.75,0.51-0.75
	S38.617,38.457,38.617,38.909z M26.195,38.004c-0.24,0-0.412,0.212-0.441,0.642h0.883C26.607,38.222,26.459,38.004,26.195,38.004z
	 M32.117,38.216c-0.184,0-0.334,0.108-0.477,0.269v1.111c0.115,0.035,0.184,0.052,0.314,0.052c0.338,0,0.58-0.206,0.58-0.762
	C32.535,38.416,32.363,38.216,32.117,38.216z M35.084,38.153c-0.332,0-0.51,0.292-0.51,0.75c0,0.453,0.182,0.762,0.51,0.762
	c0.332,0,0.516-0.304,0.516-0.756S35.416,38.153,35.084,38.153z M43.852,38.004c-0.24,0-0.412,0.212-0.441,0.642h0.883
	C44.264,38.222,44.115,38.004,43.852,38.004z M20.146,38.153c-0.332,0-0.51,0.292-0.51,0.75c0,0.453,0.184,0.762,0.51,0.762
	c0.334,0,0.516-0.304,0.516-0.756S20.48,38.153,20.146,38.153z M60.24,15.152v33.695c0,0.803-0.65,1.454-1.454,1.454H5.214
	c-0.804,0-1.454-0.651-1.454-1.454V15.152c0-0.803,0.65-1.454,1.454-1.454h53.572C59.59,13.698,60.24,14.349,60.24,15.152z
	 M46.777,34.705h2.969V23.316l-2.969,0.531V34.705z M38.242,24.114c0,0.808,0.654,1.462,1.461,1.462
	c0.809,0,1.463-0.655,1.463-1.462c0-0.808-0.654-1.463-1.463-1.463C38.896,22.65,38.242,23.306,38.242,24.114z M38.221,34.705h2.967
	v-8.33h-2.967V34.705z M32.412,34.705h2.992v-3.822c0-1.464,0.191-2.093,1.93-2.152v-2.435c-0.293-0.062-0.787-0.043-0.787-0.043
	c-2.742,0.088-4.135,1.319-4.135,3.766V34.705z M23.742,34.705h3.063v-3.333c0.887,1.33,1.326,3.333,1.326,3.333h3.668
	c-0.363-1.508-1.951-4.29-1.951-4.29c1.426-1.806,2.051-3.73,2.15-4.05h-3.502c-0.066,0.166-0.541,1.509-1.691,2.9v-5.949
	l-3.063,0.605V34.705z M18.361,38.313c0-0.544-0.275-0.871-0.797-0.871c-0.35,0-0.625,0.189-0.877,0.441
	c-0.102-0.252-0.314-0.441-0.697-0.441c-0.361,0-0.619,0.183-0.871,0.441L15.055,37.5h-0.762v2.807h0.865v-1.851
	c0.154-0.149,0.299-0.246,0.459-0.246c0.201,0,0.275,0.137,0.275,0.337v1.759h0.865v-1.851c0.154-0.149,0.303-0.246,0.457-0.246
	c0.201,0,0.275,0.137,0.275,0.337v1.759h0.871V38.313z M21.5,38.903c0-0.899-0.574-1.46-1.354-1.46
	c-0.773,0-1.346,0.567-1.346,1.466s0.568,1.455,1.34,1.455C20.92,40.364,21.5,39.803,21.5,38.903z M22.996,31.156
	c0-2.072-1.639-3.419-4.391-3.603c-0.375-0.024-1.242-0.081-1.242-0.863c0-0.943,1.25-0.943,1.719-0.943
	c0.824,0,1.893,0.243,2.654,0.472c0,0,0.426,0.15,0.789,0.304l0.033,0.009v-0.034v-2.549l-0.047-0.014
	c-0.9-0.315-1.947-0.618-3.887-0.618c-3.346,0-4.531,1.949-4.531,3.618c0,0.962,0.412,3.228,4.244,3.489
	c0.324,0.02,1.188,0.07,1.188,0.877c0,0.667-0.707,1.061-1.893,1.061c-1.301,0-2.564-0.332-3.33-0.646v2.661
	c1.148,0.301,2.441,0.451,3.957,0.451C21.531,34.828,22.996,32.983,22.996,31.156z M24.455,38.313c0-0.544-0.275-0.871-0.797-0.871
	c-0.355,0-0.625,0.195-0.877,0.441L22.719,37.5h-0.762v2.807h0.865v-1.845c0.154-0.154,0.309-0.251,0.475-0.251
	c0.207,0,0.287,0.137,0.287,0.337v1.759h0.871V38.313z M25.76,39.121h1.686c0.01-0.045,0.016-0.138,0.016-0.224
	c0-0.813-0.383-1.455-1.242-1.455c-0.762,0-1.324,0.556-1.324,1.472c0,1.002,0.602,1.449,1.443,1.449
	c0.441,0,0.814-0.121,1.117-0.315l-0.086-0.607c-0.309,0.177-0.613,0.292-0.922,0.292C26.068,39.734,25.807,39.562,25.76,39.121z
	 M30.434,37.5h-0.838l-0.516,1.73l-0.543-1.771l-0.928,0.109l1.02,2.744l-0.035,0.085c-0.092,0.195-0.264,0.27-0.457,0.27
	c-0.168,0-0.254-0.018-0.346-0.046l0.109,0.693c0.08,0.017,0.154,0.034,0.326,0.034c0.613,0,0.957-0.252,1.209-0.985L30.434,37.5z
	 M33.4,38.829c0-0.951-0.436-1.386-1.01-1.386c-0.332,0-0.572,0.183-0.75,0.366v-1.638l-0.865,0.137v3.833
	c0.326,0.126,0.752,0.2,1.203,0.2C32.844,40.341,33.4,39.872,33.4,38.829z M36.436,38.903c0-0.899-0.574-1.46-1.352-1.46
	c-0.773,0-1.348,0.567-1.348,1.466s0.568,1.455,1.342,1.455C35.857,40.364,36.436,39.803,36.436,38.903z M39.453,38.903
	c0-0.899-0.572-1.46-1.352-1.46c-0.773,0-1.346,0.567-1.346,1.466s0.566,1.455,1.34,1.455
	C38.875,40.364,39.453,39.803,39.453,38.903z M42.49,40.221l-0.918-1.444l0.883-1.277h-0.93l-0.75,1.151v-2.48l-0.863,0.137v3.999
	h0.863v-1.306l0.814,1.346L42.49,40.221z M43.416,39.121h1.686c0.01-0.045,0.016-0.138,0.016-0.224c0-0.813-0.383-1.455-1.242-1.455
	c-0.762,0-1.324,0.556-1.324,1.472c0,1.002,0.602,1.449,1.445,1.449c0.439,0,0.813-0.121,1.115-0.315l-0.086-0.607
	c-0.309,0.177-0.611,0.292-0.922,0.292C43.727,39.734,43.463,39.562,43.416,39.121z M45.412,23.316l-2.967,0.531v10.858h2.967
	V23.316z M47.393,38.325l-0.145-0.882c-0.412,0.029-0.646,0.292-0.818,0.612L46.338,37.5H45.58v2.807h0.865v-1.558
	C46.658,38.52,46.973,38.354,47.393,38.325z M49.906,39.442c0-0.521-0.264-0.711-1.01-0.911c-0.395-0.109-0.475-0.171-0.475-0.286
	c0-0.109,0.092-0.184,0.297-0.184c0.27,0,0.619,0.097,0.924,0.263l0.107-0.658c-0.291-0.131-0.658-0.207-1.037-0.207
	c-0.688,0-1.076,0.35-1.076,0.871c0,0.527,0.299,0.716,1.002,0.899c0.396,0.098,0.477,0.161,0.477,0.303
	c0,0.132-0.115,0.212-0.355,0.212c-0.32,0-0.729-0.126-1.061-0.333l-0.104,0.659c0.293,0.155,0.711,0.281,1.158,0.281
	C49.498,40.353,49.906,40.032,49.906,39.442z"/>
</svg>
