<?xml version="1.0" encoding="utf-8"?>
<!-- Generator: Adobe Illustrator 16.0.0, SVG Export Plug-In . SVG Version: 6.00 Build 0)  -->
<!DOCTYPE svg PUBLIC "-//W3C//DTD SVG 1.1//EN" "http://www.w3.org/Graphics/SVG/1.1/DTD/svg11.dtd">
<svg version="1.1" id="Layer_1" xmlns="http://www.w3.org/2000/svg" xmlns:xlink="http://www.w3.org/1999/xlink" x="0px" y="0px"
	 width="64px" height="64px" viewBox="0 0 64 64" enable-background="new 0 0 64 64" xml:space="preserve">
<path fill="#010101" d="M32.115,17.755c-5.979-0.132-11.019,4.78-11.132,10.849c-0.115,6.149,4.744,11.128,10.963,11.236
	c5.977,0.103,10.97-4.813,11.077-10.903C43.132,22.857,38.285,17.892,32.115,17.755z M35.691,33.056
	c-1.087,2.281-2.985,3.494-5.49,3.578c-2.272,0.077-4.075-0.919-5.434-2.846c0.616-0.417,1.191-0.805,1.811-1.224
	c0.829,1.125,1.919,1.789,3.31,1.835c0.864,0.029,1.686-0.206,2.398-0.709c1.746-1.231,2.119-3.034,1.137-5.569
	c0.587-0.375,1.187-0.758,1.866-1.193C36.499,28.958,36.674,30.997,35.691,33.056z M37.672,25.529
	c-2.169-1.995-3.986-2.327-5.737-1.1c-1.34,0.938-2.498,3.038-1.116,5.573c-0.617,0.392-1.205,0.764-1.791,1.136
	c-1.729-2.305-1.514-6.46,1.724-8.64c2.865-1.93,7.048-1.076,8.699,1.823C38.857,24.724,38.261,25.13,37.672,25.529z M37.686,43.961
	c0.177,0.177,0.265,0.421,0.265,0.73c0,0.279-0.07,0.564-0.209,0.858c-0.141,0.294-0.317,0.512-0.531,0.657
	s-0.437,0.216-0.668,0.216c-0.285,0-0.517-0.091-0.69-0.274c-0.175-0.184-0.263-0.411-0.263-0.681c0-0.441,0.133-0.847,0.396-1.217
	s0.604-0.554,1.025-0.554C37.282,43.696,37.508,43.785,37.686,43.961z M30.13,43.961c0.177,0.177,0.265,0.421,0.265,0.73
	c0,0.279-0.069,0.564-0.21,0.858c-0.14,0.294-0.315,0.512-0.53,0.657c-0.214,0.145-0.437,0.216-0.668,0.216
	c-0.286,0-0.516-0.091-0.69-0.274c-0.175-0.184-0.263-0.411-0.263-0.681c0-0.441,0.132-0.847,0.395-1.217
	c0.265-0.37,0.606-0.554,1.026-0.554C29.728,43.696,29.953,43.785,30.13,43.961z M58.786,13.698H5.214
	c-0.804,0-1.454,0.651-1.454,1.454v33.695c0,0.803,0.65,1.454,1.454,1.454h53.572c0.804,0,1.454-0.651,1.454-1.454V15.152
	C60.24,14.349,59.59,13.698,58.786,13.698z M24.617,44.359c0.094,0.075,0.3,0.178,0.619,0.309c0.481,0.195,0.787,0.354,0.918,0.476
	c0.196,0.18,0.294,0.411,0.294,0.692c0,0.349-0.146,0.646-0.438,0.892c-0.292,0.248-0.698,0.37-1.22,0.37
	c-0.359,0-0.669-0.057-0.934-0.17c-0.263-0.114-0.447-0.272-0.557-0.475c-0.108-0.204-0.158-0.437-0.151-0.7l0.819-0.041
	c0.011,0.246,0.056,0.412,0.133,0.498c0.126,0.14,0.357,0.21,0.696,0.21c0.28,0,0.484-0.048,0.61-0.143
	c0.124-0.095,0.188-0.21,0.188-0.345c0-0.117-0.051-0.215-0.153-0.296c-0.072-0.059-0.271-0.155-0.595-0.288
	c-0.324-0.133-0.562-0.244-0.711-0.333c-0.148-0.089-0.266-0.204-0.352-0.345c-0.085-0.142-0.128-0.308-0.128-0.498
	c0-0.333,0.128-0.607,0.383-0.827c0.254-0.219,0.622-0.328,1.105-0.328c0.49,0,0.87,0.108,1.139,0.326
	c0.27,0.217,0.417,0.506,0.444,0.866l-0.825,0.036c-0.021-0.188-0.093-0.333-0.216-0.434c-0.124-0.1-0.307-0.15-0.548-0.15
	c-0.238,0-0.407,0.04-0.509,0.118c-0.102,0.079-0.152,0.179-0.152,0.299C24.479,44.191,24.524,44.285,24.617,44.359z M30.942,45.887
	c-0.207,0.39-0.489,0.689-0.845,0.899c-0.354,0.209-0.758,0.315-1.206,0.315c-0.39,0-0.717-0.083-0.98-0.25
	c-0.265-0.167-0.452-0.374-0.563-0.621c-0.109-0.247-0.165-0.496-0.165-0.748c0-0.232,0.038-0.479,0.111-0.737
	c0.097-0.346,0.245-0.646,0.443-0.901c0.199-0.255,0.45-0.457,0.752-0.604s0.646-0.222,1.031-0.222c0.518,0,0.935,0.151,1.253,0.455
	c0.319,0.303,0.478,0.706,0.478,1.206C31.252,45.094,31.148,45.498,30.942,45.887z M34.467,47.031h-2.988l0.876-3.946h0.856
	l-0.726,3.287h2.126L34.467,47.031z M38.498,45.887c-0.208,0.39-0.488,0.689-0.844,0.899c-0.356,0.209-0.759,0.315-1.206,0.315
	c-0.391,0-0.717-0.083-0.982-0.25c-0.264-0.167-0.45-0.374-0.561-0.621c-0.11-0.247-0.165-0.496-0.165-0.748
	c0-0.232,0.036-0.479,0.11-0.737c0.097-0.346,0.244-0.646,0.443-0.901c0.199-0.255,0.449-0.457,0.751-0.604s0.646-0.222,1.033-0.222
	c0.517,0,0.934,0.151,1.252,0.455c0.319,0.303,0.479,0.706,0.479,1.206C38.809,45.094,38.705,45.498,38.498,45.887z M32.001,40.688
	c-6.488,0.05-11.891-5.319-11.909-11.838c-0.019-6.583,5.292-11.909,11.914-11.951c6.451-0.04,11.845,5.277,11.901,11.733
	C43.968,35.296,38.693,40.637,32.001,40.688z"/>
</svg>
