<?xml version="1.0" encoding="utf-8"?>
<!-- Generator: Adobe Illustrator 16.0.0, SVG Export Plug-In . SVG Version: 6.00 Build 0)  -->
<!DOCTYPE svg PUBLIC "-//W3C//DTD SVG 1.1//EN" "http://www.w3.org/Graphics/SVG/1.1/DTD/svg11.dtd">
<svg version="1.1" id="Layer_1" xmlns="http://www.w3.org/2000/svg" xmlns:xlink="http://www.w3.org/1999/xlink" x="0px" y="0px"
	 width="64px" height="64px" viewBox="0 0 64 64" enable-background="new 0 0 64 64" xml:space="preserve">
<g>
	<path d="M58.786,13.698H5.214c-0.804,0-1.454,0.651-1.454,1.454v33.695c0,0.803,0.65,1.454,1.454,1.454h53.572
		c0.804,0,1.454-0.651,1.454-1.454V15.152C60.24,14.35,59.59,13.698,58.786,13.698z M19.28,44.909
		c-0.477,0.423-1.11,0.654-1.782,0.654h-0.007c-0.71,0-1.393-0.274-1.874-0.753c-0.429-0.429-0.667-0.984-0.667-1.567h0.72
		c0,0.39,0.161,0.766,0.455,1.059c0.347,0.346,0.845,0.544,1.366,0.544h0.006c1.003,0,1.82-0.702,1.82-1.565
		c-0.001-0.646-0.359-1.16-2.101-1.563c-0.708-0.165-1.186-0.384-1.504-0.691c-0.339-0.327-0.504-0.766-0.504-1.335
		c0-1.126,1.01-2.043,2.25-2.043c0.595,0,1.155,0.204,1.579,0.576c0.438,0.383,0.68,0.901,0.68,1.458h-0.72
		c0-0.725-0.689-1.315-1.539-1.315c-0.831,0-1.532,0.606-1.532,1.324c0,0.656,0.225,1.041,1.453,1.325
		c1.313,0.305,2.654,0.81,2.657,2.264C20.036,43.899,19.768,44.478,19.28,44.909z M26.655,47.608H25.96V44.46H25.94
		c-0.467,0.715-1.271,1.082-2.116,1.082c-1.628,0-2.92-1.222-2.92-2.86c0-1.628,1.323-2.84,2.92-2.84
		c0.845,0,1.649,0.367,2.116,1.092h0.021V39.98h0.694V47.608z M32.709,45.42H32.05v-0.848h-0.02
		c-0.319,0.669-1.027,0.979-1.746,0.979c-0.709,0-1.427-0.251-1.876-0.819c-0.389-0.488-0.479-1.146-0.479-1.756v-3.014h0.697v3.004
		c0,1.128,0.41,1.956,1.658,1.956c0.459,0,0.817-0.12,1.157-0.438c0.479-0.46,0.568-0.999,0.568-1.638v-2.884h0.699V45.42z
		 M39.464,45.414H38.77V44.46h-0.021c-0.476,0.715-1.271,1.082-2.115,1.082c-1.629,0-2.92-1.222-2.92-2.86
		c0-1.628,1.322-2.84,2.92-2.84c0.854,0,1.649,0.357,2.115,1.092h0.021V39.98h0.694V45.414z M38.219,35.048H25.782
		c-1.71,0-3.11-1.398-3.11-3.109V19.501c0-1.71,1.399-3.109,3.11-3.109h12.437c1.71,0,3.109,1.399,3.109,3.109v12.438
		C41.329,33.649,39.93,35.048,38.219,35.048z M43.096,40.576c-0.953,0.079-1.549,0.685-1.549,1.658v3.18h-0.695V39.98h0.695v0.785
		h0.019v-0.001c0.298-0.696,0.824-0.874,1.53-0.923V40.576z M49.039,42.95h-4.946c0.05,1.072,1.043,1.967,2.106,1.967
		c0.834,0,1.649-0.477,1.947-1.282h0.734c-0.396,1.133-1.469,1.907-2.671,1.907c-1.57,0-2.831-1.281-2.831-2.841
		c0-1.549,1.261-2.859,2.821-2.859c1.59,0,2.851,1.34,2.851,2.91C49.05,42.821,49.039,42.88,49.039,42.95z"/>
	<path d="M36.633,40.467c-1.291,0-2.225,0.964-2.225,2.245c0,1.271,0.954,2.205,2.225,2.205c1.232,0,2.174-1.004,2.174-2.216
		S37.865,40.467,36.633,40.467z"/>
	<path d="M46.209,40.467c-1.083,0-1.947,0.794-2.116,1.857h4.241C48.155,41.261,47.302,40.467,46.209,40.467z"/>
	<path d="M36.947,19.785h-9.894c-0.544,0-0.989,0.444-0.989,0.988v9.893c0,0.544,0.445,0.989,0.989,0.989h9.894
		c0.543,0,0.989-0.445,0.989-0.989v-9.893C37.936,20.229,37.491,19.785,36.947,19.785z M34.544,27.698
		c0,0.311-0.254,0.565-0.565,0.565h-3.957c-0.312,0-0.565-0.255-0.565-0.565v-3.957c0-0.311,0.253-0.565,0.565-0.565h3.957
		c0.311,0,0.565,0.255,0.565,0.565V27.698z"/>
	<path d="M23.824,40.467c-1.292,0-2.224,0.964-2.224,2.245c0,1.271,0.953,2.205,2.224,2.205c1.233,0,2.176-1.004,2.176-2.216
		S25.057,40.467,23.824,40.467z"/>
</g>
</svg>
