<?xml version="1.0" encoding="utf-8"?>
<!-- Generator: Adobe Illustrator 16.0.0, SVG Export Plug-In . SVG Version: 6.00 Build 0)  -->
<!DOCTYPE svg PUBLIC "-//W3C//DTD SVG 1.1//EN" "http://www.w3.org/Graphics/SVG/1.1/DTD/svg11.dtd">
<svg version="1.1" id="Layer_1" xmlns="http://www.w3.org/2000/svg" xmlns:xlink="http://www.w3.org/1999/xlink" x="0px" y="0px"
	 width="64px" height="64px" viewBox="0 0 64 64" enable-background="new 0 0 64 64" xml:space="preserve">
<path fill-rule="evenodd" clip-rule="evenodd" d="M28.169,31.145c-0.679-1.253-0.98-2.595-0.877-4.013
	c0.135-1.834,0.848-3.423,2.155-4.724c1.145-1.139,2.528-1.854,4.133-2.028c2.88-0.313,5.186,0.735,6.897,3.08
	c0.098,0.134,0.101,0.207-0.052,0.306c-0.653,0.419-1.296,0.852-1.962,1.292c-0.935-1.37-2.226-2.114-3.878-2.144
	c-1.057-0.019-2.005,0.342-2.856,0.977c-1.611,1.201-2.617,3.871-1.119,6.317c-0.708,0.466-1.416,0.933-2.154,1.419
	C28.356,31.46,28.257,31.306,28.169,31.145z M30.642,43.639c0.184,0,0.338,0,0.502,0c0.174-0.823,0.346-1.639,0.52-2.465
	c-0.184,0-0.343,0-0.504,0C30.986,42,30.815,42.814,30.642,43.639z M29.951,41.363c-0.199,0.438-0.413,0.869-0.623,1.302
	c-0.027,0.056-0.063,0.109-0.115,0.196c-0.112-0.595-0.321-1.718-0.321-1.718l-0.492-0.001l-0.122,0.211
	c-0.106,0.205-0.237,0.397-0.358,0.594c-0.182,0.295-0.363,0.59-0.545,0.885c-0.012-0.003-0.024-0.007-0.036-0.01
	c-0.055-0.551-0.108-1.102-0.162-1.655c-0.175,0-0.329,0-0.498,0c0.086,0.827,0.171,1.645,0.258,2.479h0.563
	c0.108-0.211,0.312-0.59,0.432-0.795c0.187-0.316,0.375-0.631,0.587-0.989c0.105,0.623,0.203,1.198,0.302,1.783h0.539l0.083-0.164
	c0.361-0.734,1.104-2.193,1.104-2.193l0.063-0.13l-0.557,0C30.053,41.159,30.02,41.214,29.951,41.363z M30.683,37.962
	c1.604-0.174,2.988-0.889,4.133-2.028c1.308-1.301,2.021-2.89,2.155-4.724c0.104-1.417-0.198-2.759-0.877-4.012
	c-0.087-0.162-0.188-0.316-0.287-0.482c-0.738,0.486-1.446,0.953-2.154,1.419c1.498,2.446,0.492,5.116-1.119,6.317
	c-0.851,0.635-1.8,0.996-2.855,0.977c-1.653-0.029-2.944-0.773-3.879-2.143c-0.666,0.44-1.309,0.873-1.961,1.292
	c-0.153,0.099-0.15,0.172-0.053,0.306C25.497,37.228,27.803,38.275,30.683,37.962z M24.757,41.101
	c-0.295,0.052-0.563,0.172-0.757,0.415c-0.295,0.369-0.161,0.828,0.285,0.974c0.095,0.031,0.193,0.051,0.292,0.064
	c0.224,0.03,0.448,0.045,0.671,0.081c0.135,0.021,0.281,0.054,0.297,0.233c0.016,0.174-0.057,0.305-0.218,0.378
	c-0.063,0.028-0.13,0.046-0.197,0.058c-0.479,0.079-0.889-0.052-1.229-0.415c-0.117,0.069-0.205,0.139-0.388,0.247
	c0.18,0.151,0.285,0.3,0.451,0.397c0.321,0.189,0.686,0.235,1.052,0.207c0.377-0.029,0.709-0.162,0.917-0.503
	c0.264-0.431,0.081-0.891-0.407-1.029c-0.054-0.016-0.11-0.023-0.165-0.031c-0.273-0.039-0.547-0.069-0.817-0.116
	c-0.208-0.036-0.273-0.204-0.147-0.373c0.05-0.066,0.128-0.126,0.206-0.153c0.354-0.126,0.72-0.146,1.052,0.043
	c0.079,0.045,0.235,0.146,0.235,0.146s0.117-0.103,0.19-0.167c0.036-0.031,0.079-0.055,0.161-0.112
	c-0.148-0.093-0.264-0.189-0.396-0.244C25.477,41.045,25.125,41.035,24.757,41.101z M35.979,41.461
	c0.451-0.099,0.826,0.023,1.087,0.429l0.398-0.186c-0.162-0.236-0.223-0.343-0.382-0.45c-0.701-0.469-2.21-0.268-2.36,1.105
	c-0.077,0.704,0.226,1.193,0.853,1.338c0.18,0.042,0.372,0.055,0.558,0.046c0.484-0.021,0.87-0.226,1.137-0.667
	c-0.156-0.067-0.296-0.127-0.429-0.185c-0.364,0.417-0.826,0.546-1.25,0.331c-0.129-0.065-0.258-0.189-0.319-0.318
	C35.009,42.361,35.393,41.59,35.979,41.461z M32.123,41.569c0.326,0,0.637,0,0.966,0c-0.146,0.701-0.288,1.381-0.434,2.079
	c0.131,0,0.237-0.009,0.342,0.002c0.123,0.013,0.161-0.043,0.182-0.154c0.043-0.239,0.099-0.477,0.149-0.714
	c0.085-0.401,0.172-0.803,0.259-1.213c0.222,0,0.778,0,0.984,0l0.073-0.395c0,0-1.634,0-2.438,0
	C32.178,41.306,32.153,41.427,32.123,41.569z M60.24,15.152v33.695c0,0.803-0.65,1.454-1.454,1.454H5.214
	c-0.804,0-1.454-0.651-1.454-1.454V15.152c0-0.803,0.65-1.454,1.454-1.454h53.572C59.59,13.698,60.24,14.349,60.24,15.152z
	 M42.481,43.562c-0.008-1.382-0.027-2.765-0.032-4.147c-0.006-1.741-0.001-3.481-0.001-5.222c0-4.552,0-9.104-0.001-13.657
	c0-0.943-0.705-1.648-1.64-1.647c-3.019,0.001-6.037,0-9.055,0c-2.925,0-5.849,0.002-8.773,0.002c-0.265,0-0.502,0.088-0.716,0.24
	c-0.534,0.379-0.746,0.902-0.745,1.551c0.008,3.794,0.004,7.589,0.004,11.384c0,3.832,0.001,7.665-0.001,11.496
	c0,0.349,0.069,0.669,0.293,0.946c0.342,0.425,0.784,0.605,1.329,0.604c5.835-0.005,11.671-0.003,17.507-0.003
	c0.126,0,0.251,0.002,0.376-0.006C41.808,45.054,42.485,44.34,42.481,43.562z M39.863,42.008h-1.368
	c0.058-0.293,0.11-0.562,0.164-0.837c-0.184,0-0.345,0-0.514,0c-0.173,0.822-0.344,1.638-0.521,2.478c0.126,0,0.515,0,0.515,0
	s0.191-0.883,0.267-1.229c0.472,0,0.919,0,1.379,0c-0.086,0.413-0.169,0.812-0.255,1.221c0.195,0,0.368,0,0.553,0
	c0.174-0.823,0.346-1.64,0.52-2.469c-0.188,0-0.361,0-0.551,0C40.001,41.406,39.863,42.008,39.863,42.008z"/>
</svg>
