<?xml version="1.0" encoding="utf-8"?>
<!-- Generator: Adobe Illustrator 16.0.0, SVG Export Plug-In . SVG Version: 6.00 Build 0)  -->
<!DOCTYPE svg PUBLIC "-//W3C//DTD SVG 1.1//EN" "http://www.w3.org/Graphics/SVG/1.1/DTD/svg11.dtd">
<svg version="1.1" id="Layer_1" xmlns="http://www.w3.org/2000/svg" xmlns:xlink="http://www.w3.org/1999/xlink" x="0px" y="0px"
	 width="64px" height="64px" viewBox="0 0 64 64" enable-background="new 0 0 64 64" xml:space="preserve">
<path fill-rule="evenodd" clip-rule="evenodd" d="M39.547,43.708c0.1,0,0.248,0.07,0.408,0.167l-1.346,1.351
	c-0.064-0.118-0.102-0.248-0.102-0.386C38.508,44.262,38.979,43.708,39.547,43.708z M23.539,44.84c0,0.138,0.037,0.268,0.104,0.386
	l1.344-1.351c-0.16-0.097-0.309-0.167-0.406-0.167C24.01,43.708,23.539,44.262,23.539,44.84z M17.023,44.84
	c0,0.138,0.037,0.268,0.102,0.386l1.346-1.351c-0.16-0.097-0.309-0.167-0.408-0.167C17.494,43.708,17.023,44.262,17.023,44.84z
	 M60.24,15.152v33.695c0,0.803-0.65,1.454-1.454,1.454H5.214c-0.804,0-1.454-0.651-1.454-1.454v-19.39h16.921
	c3.367,0,4.082,1.559,4.311,2.246c0.135,0.404,0.584,0.314,0.449-0.135c-0.584-2.694-1.886-3.368-5.12-3.368H3.76v-1.213h16.921
	c3.367,0,4.082,1.559,4.311,2.246c0.135,0.404,0.584,0.314,0.449-0.135c-0.584-2.695-1.886-3.368-5.12-3.368H3.76v-1.213h16.921
	c3.367,0,4.082,1.559,4.311,2.246c0.135,0.404,0.584,0.314,0.449-0.135c-0.584-2.695-1.886-3.368-5.12-3.368H3.76v-1.213h16.921
	c3.367,0,4.082,1.559,4.311,2.246c0.135,0.404,0.584,0.314,0.449-0.135c-0.584-2.695-1.886-3.369-5.12-3.369H3.76v-1.212h16.921
	c3.367,0,4.082,1.559,4.311,2.246c0.135,0.404,0.584,0.314,0.449-0.135c-0.584-2.695-1.886-3.368-5.12-3.368H3.76v-3.168
	c0-0.803,0.65-1.454,1.454-1.454h34.392L25.563,27.74l0.359,0.875l15.016-14.917h1.228L25.563,30.3l0.359,0.875l17.598-17.478h1.205
	L25.44,32.984v1.212l20.681-20.498h1.164L25.44,35.543v1.213l23.263-23.058h1.207l-24.47,24.45v1.212L51.31,13.698h7.477
	C59.59,13.698,60.24,14.349,60.24,15.152z M15.266,42.703h1.199v-1.228h-3.848v1.228h1.199v4.349h1.449V42.703z M17.834,45.805
	l2.064-2.064c-0.551-0.887-1.162-1.07-1.793-1.072c-1.309-0.003-2.334,0.928-2.334,2.27c0,1.261,1.033,2.18,2.27,2.18
	c0.359,0,1.215-0.106,1.674-0.351v-1.468c-0.488,0.397-0.703,0.642-1.373,0.615C18.176,45.909,18,45.87,17.834,45.805z
	 M21.752,41.475h-1.346v5.57h1.346V41.475z M24.35,45.805l2.064-2.064c-0.551-0.887-1.162-1.07-1.791-1.072
	c-1.311-0.003-2.336,0.928-2.336,2.27c0,1.261,1.033,2.18,2.27,2.18c0.359,0,1.215-0.106,1.674-0.351v-1.468
	c-0.488,0.397-0.703,0.642-1.371,0.615C24.691,45.909,24.516,45.87,24.35,45.805z M32.313,46.031l-1.07-0.795
	c-0.371,0.444-0.805,0.541-1.184,0.541c-0.902,0-1.508-0.636-1.508-1.517c0-0.865,0.6-1.546,1.486-1.546
	c0.496,0,0.977,0.215,1.271,0.614l0.975-0.906c-0.766-1.132-1.832-1.113-2.299-1.113c-0.783,0-1.574,0.34-2.121,0.903
	c-0.533,0.547-0.822,1.28-0.822,2.041c0,0.829,0.281,1.553,0.895,2.108c0.578,0.525,1.318,0.821,2.094,0.821
	C30.48,47.183,31.762,47.041,32.313,46.031z M36.762,44.245c0-0.962-0.467-1.598-1.428-1.598c-0.525,0-0.902,0.192-1.213,0.607
	h-0.016v-1.779H32.76v5.566h1.346v-2.418c0-0.444,0.17-0.902,0.703-0.902c0.539,0,0.605,0.458,0.605,0.902v2.418h1.348V44.245z
	 M39.318,45.805l2.064-2.064c-0.551-0.887-1.162-1.07-1.793-1.072c-1.309-0.003-2.334,0.928-2.334,2.27
	c0,1.261,1.033,2.18,2.27,2.18c0.359,0,1.215-0.106,1.674-0.351v-1.468c-0.488,0.397-0.703,0.642-1.373,0.615
	C39.66,45.909,39.484,45.87,39.318,45.805z M45.084,42.883c-0.293-0.163-0.635-0.244-0.977-0.244c-1.311,0-2.336,0.928-2.336,2.27
	c0,1.262,1.033,2.181,2.271,2.181c0.357,0,0.715-0.073,1.041-0.235v-1.253c-0.195,0.178-0.48,0.285-0.74,0.285
	c-0.611,0-1.041-0.423-1.041-1.025c0-0.578,0.445-1.017,1.016-1.017c0.285,0,0.545,0.13,0.766,0.292V42.883z M48.521,44.839
	l1.559-2.08h-1.59l-1.438,1.804l0.012-3.089h-1.346v5.566h1.346v-1.896l1.158,1.896h1.828L48.521,44.839z M53.674,47.18
	c0-0.61-0.496-1.108-1.107-1.108c-0.617,0-1.113,0.498-1.113,1.108c0,0.616,0.496,1.113,1.113,1.113
	C53.178,48.293,53.674,47.796,53.674,47.18z M52.744,47.229l0.375,0.573h-0.182l-0.354-0.573h-0.279v0.573h-0.152v-1.241h0.541
	c0.105,0,0.209,0.006,0.303,0.061c0.094,0.052,0.141,0.163,0.141,0.268C53.137,47.133,52.965,47.223,52.744,47.229z M52.982,46.885
	c0-0.192-0.17-0.215-0.322-0.215h-0.355v0.439h0.232C52.711,47.108,52.982,47.138,52.982,46.885z"/>
</svg>
