<?xml version="1.0" encoding="utf-8"?>
<!-- Generator: Adobe Illustrator 16.0.0, SVG Export Plug-In . SVG Version: 6.00 Build 0)  -->
<!DOCTYPE svg PUBLIC "-//W3C//DTD SVG 1.1//EN" "http://www.w3.org/Graphics/SVG/1.1/DTD/svg11.dtd">
<svg version="1.1" id="Layer_1" xmlns="http://www.w3.org/2000/svg" xmlns:xlink="http://www.w3.org/1999/xlink" x="0px" y="0px"
	 width="64px" height="64px" viewBox="0 0 64 64" enable-background="new 0 0 64 64" xml:space="preserve">
<path fill-rule="evenodd" clip-rule="evenodd" d="M58.786,13.698H5.214c-0.804,0-1.454,0.651-1.454,1.454v33.695
	c0,0.803,0.65,1.454,1.454,1.454h53.572c0.804,0,1.454-0.651,1.454-1.454V15.152C60.24,14.35,59.59,13.698,58.786,13.698z
	 M38.989,28.629c0-0.351,0.154-0.583,0.482-0.693c0.42-0.141,0.85-0.141,1.271,0.002c0.304,0.103,0.456,0.334,0.457,0.657
	c0.001,0.647,0,1.295,0,1.943c0,0.624,0,1.248,0,1.873c0,0.438-0.182,0.682-0.607,0.782c-0.36,0.084-0.723,0.083-1.079-0.03
	c-0.346-0.108-0.524-0.354-0.524-0.718C38.987,31.174,38.987,29.9,38.989,28.629z M13.506,35.794
	c-0.083,0.255-0.271,0.398-0.534,0.404c-0.614,0.012-1.228-0.003-1.832-0.138c-0.503-0.112-0.974-0.295-1.356-0.657
	c-0.354-0.336-0.54-0.759-0.611-1.235c-0.076-0.51-0.028-1.023-0.041-1.536c-0.001-0.033,0-0.067,0-0.101c0-0.389,0-0.777,0-1.165
	c0-0.484,0.196-0.733,0.673-0.838c0.334-0.073,0.671-0.07,1.004,0.006c0.42,0.096,0.621,0.355,0.622,0.788
	c0.001,0.719,0.011,1.438-0.003,2.156c-0.012,0.587,0.269,0.811,0.816,0.858c0.231,0.021,0.465,0.004,0.697,0.019
	c0.339,0.021,0.508,0.161,0.591,0.491C13.611,35.163,13.608,35.482,13.506,35.794z M15.531,29.242
	c-0.087,0.303-0.294,0.459-0.61,0.459c-2.41,0-4.819,0-7.229,0c-0.335,0-0.546-0.18-0.627-0.519c-0.01-0.044-0.003-0.095-0.04-0.13
	c0-0.182,0-0.364,0-0.547c0.019-0.07,0.037-0.141,0.058-0.209c0.091-0.307,0.29-0.458,0.608-0.459c0.583-0.001,1.167,0,1.751,0
	c1.802,0,3.604,0,5.407,0c0.431,0,0.623,0.15,0.71,0.572C15.617,28.688,15.61,28.968,15.531,29.242z M18.407,36.151
	c-0.34,0.073-0.684,0.071-1.021-0.023c-0.379-0.107-0.559-0.348-0.56-0.739c-0.001-0.631,0-1.263,0-1.894
	c0-0.607,0.011-1.215-0.003-1.823c-0.012-0.532,0.275-0.749,0.67-0.826c0.338-0.064,0.678-0.065,1.012,0.029
	c0.357,0.102,0.532,0.343,0.532,0.716c0,1.255,0,2.511,0,3.767C19.037,35.813,18.852,36.055,18.407,36.151z M18.39,30.05
	c-0.354,0.071-0.71,0.071-1.058-0.042c-0.333-0.11-0.496-0.338-0.506-0.688c-0.003-0.121,0-0.242,0-0.364
	c0-0.117-0.002-0.235,0-0.354c0.008-0.339,0.17-0.571,0.493-0.674c0.402-0.129,0.811-0.131,1.214-0.01
	c0.338,0.103,0.503,0.341,0.503,0.694c0,0.213,0,0.426,0,0.638C19.037,29.716,18.85,29.957,18.39,30.05z M32.455,32.201
	c0,1.058,0.001,2.113,0,3.171c0,0.416-0.182,0.662-0.565,0.767c-0.056,0.015-0.112,0.026-0.169,0.034
	c-0.276,0.038-0.551,0.04-0.824-0.024c-0.411-0.097-0.599-0.336-0.599-0.756c0-1.972,0-3.942,0-5.914c0-0.037,0-0.072,0-0.138
	c-0.604,0.828-1.188,1.633-1.774,2.438c-0.26,0.356-0.526,0.709-0.777,1.072c-0.154,0.225-0.357,0.353-0.623,0.385
	c-0.269,0.032-0.538,0.037-0.804-0.025c-0.196-0.046-0.346-0.151-0.465-0.314c-0.838-1.149-1.68-2.298-2.52-3.445
	c-0.019-0.026-0.03-0.061-0.066-0.072c-0.02,0.035-0.01,0.073-0.01,0.108c-0.001,1.941,0,3.883-0.001,5.824
	c0,0.09-0.002,0.183-0.017,0.271c-0.052,0.309-0.248,0.485-0.542,0.558c-0.343,0.084-0.689,0.084-1.031-0.002
	c-0.377-0.095-0.566-0.346-0.566-0.732c0-2.215,0-4.43,0-6.644c0-0.535,0.283-0.847,0.818-0.905c0.125-0.014,0.249-0.02,0.374-0.019
	c0.537,0,1.073,0,1.61,0c0.152,0,0.303,0.015,0.45,0.053c0.187,0.048,0.335,0.148,0.449,0.307c0.638,0.887,1.279,1.771,1.919,2.656
	c0.034,0.047,0.067,0.093,0.104,0.145c0.171-0.234,0.34-0.466,0.509-0.697c0.488-0.67,0.987-1.334,1.459-2.016
	c0.201-0.29,0.46-0.435,0.795-0.439c0.681-0.01,1.363-0.028,2.044,0.012c0.104,0.006,0.206,0.034,0.304,0.071
	c0.35,0.132,0.517,0.401,0.517,0.84C32.456,29.913,32.455,31.057,32.455,32.201z M45.75,34.092c-0.008,0.438-0.115,0.854-0.37,1.221
	c-0.316,0.452-0.778,0.671-1.298,0.787c-0.317,0.071-0.64,0.099-0.963,0.1c-1.006,0.002-2.012,0.001-3.018,0.001
	c-1.026,0-2.052,0.004-3.078-0.003c-0.47-0.002-0.935-0.063-1.376-0.239c-0.708-0.283-1.102-0.813-1.218-1.561
	c-0.03-0.194-0.04-0.389-0.04-0.584c0.001-1.691,0.008-3.382-0.003-5.074c-0.004-0.575,0.259-0.8,0.742-0.875
	c0.292-0.046,0.584-0.04,0.873,0.033c0.394,0.101,0.586,0.345,0.586,0.748c0,1.674,0,3.349,0,5.023c0,0.087,0.003,0.176,0.018,0.261
	c0.049,0.29,0.239,0.441,0.511,0.506c0.119,0.028,0.24,0.042,0.362,0.042c1.749,0,3.497,0,5.245,0c0.122,0,0.243-0.014,0.361-0.041
	c0.35-0.083,0.519-0.305,0.519-0.682c0-1.157,0-2.316,0-3.474c0-0.52,0.012-1.039-0.003-1.56c-0.017-0.57,0.289-0.781,0.709-0.852
	c0.299-0.051,0.598-0.049,0.893,0.027c0.375,0.097,0.554,0.331,0.554,0.716c0.001,1.132,0.001,2.262,0.001,3.393
	C45.756,32.701,45.763,33.396,45.75,34.092z M56.975,30.146c0,0.283,0,0.567,0,0.851c0,0.014,0,0.027,0,0.04
	c-0.034,0.017-0.019,0.049-0.021,0.071c-0.049,0.387-0.187,0.718-0.555,0.908c-0.208,0.106-0.432,0.153-0.664,0.154
	c-1.576,0.004-3.152,0.004-4.729,0.004c-0.261,0-0.411-0.124-0.473-0.382c-0.05-0.205-0.048-0.413-0.02-0.623
	c0.046-0.341,0.208-0.485,0.551-0.485c1.151,0,2.303,0,3.454-0.001c0.093,0,0.219,0.031,0.273-0.017
	c0.063-0.055,0.013-0.185,0.02-0.28c0.018-0.262-0.104-0.454-0.309-0.6c-0.235-0.168-0.505-0.254-0.785-0.309
	c-0.913-0.175-1.83-0.17-2.747-0.035c-0.311,0.045-0.614,0.128-0.886,0.295c-0.252,0.156-0.382,0.372-0.38,0.677
	c0.006,1.03,0.003,2.06,0.001,3.09c0,0.2,0.069,0.367,0.217,0.504c0.097,0.09,0.209,0.157,0.33,0.211
	c0.308,0.138,0.635,0.2,0.966,0.24c0.571,0.069,1.145,0.073,1.717,0.038c0.397-0.025,0.792-0.068,1.173-0.197
	c0.272-0.092,0.469-0.252,0.559-0.536c0.08-0.254,0.26-0.412,0.515-0.482c0.414-0.114,0.833-0.114,1.25-0.021
	c0.262,0.06,0.464,0.196,0.543,0.47c0,0.142,0,0.284,0,0.426c-0.038,0.059-0.033,0.127-0.049,0.191
	c-0.138,0.529-0.48,0.894-0.94,1.16c-0.466,0.271-0.977,0.414-1.502,0.512c-0.635,0.119-1.277,0.161-1.921,0.173
	c-0.719,0.014-1.436-0.011-2.148-0.113c-0.644-0.091-1.271-0.238-1.841-0.569c-0.693-0.403-1.048-1.005-1.047-1.812
	c0-1.141,0-2.281,0-3.423c0.001-0.588,0.194-1.096,0.637-1.497c0.293-0.267,0.641-0.442,1.011-0.575
	c0.539-0.193,1.099-0.289,1.667-0.346c0.191-0.019,0.383-0.027,0.575-0.041c0.015-0.001,0.026-0.004,0.03-0.021
	c0.533,0,1.066,0,1.6,0c0.005,0.022,0.023,0.021,0.039,0.021c0.357,0.014,0.712,0.048,1.066,0.102
	c0.568,0.087,1.124,0.218,1.637,0.485c0.56,0.291,0.965,0.712,1.12,1.343c0.029,0.118,0.024,0.243,0.068,0.359
	C56.975,30.12,56.975,30.133,56.975,30.146z"/>
</svg>
