<?xml version="1.0" encoding="utf-8"?>
<!-- Generator: Adobe Illustrator 16.0.0, SVG Export Plug-In . SVG Version: 6.00 Build 0)  -->
<!DOCTYPE svg PUBLIC "-//W3C//DTD SVG 1.1//EN" "http://www.w3.org/Graphics/SVG/1.1/DTD/svg11.dtd">
<svg version="1.1" id="Layer_1" xmlns="http://www.w3.org/2000/svg" xmlns:xlink="http://www.w3.org/1999/xlink" x="0px" y="0px"
	 width="64px" height="64px" viewBox="0 0 64 64" enable-background="new 0 0 64 64" xml:space="preserve">
<path fill="#010101" d="M15.087,31.918c0.001,0.028,0.003,0.055,0.004,0.082h-0.534c-0.011-0.233-0.051-0.465-0.119-0.687
	c-0.138-0.46-0.384-0.868-0.729-1.212c-0.388-0.387-0.852-0.645-1.379-0.765c-0.228-0.052-0.454-0.078-0.674-0.078
	c-0.458,0-0.9,0.114-1.315,0.339c-0.845,0.457-1.353,1.18-1.512,2.149C8.816,31.83,8.811,31.915,8.809,32H8.27
	c0.015-0.486,0.133-0.948,0.35-1.374c0.458-0.896,1.177-1.493,2.136-1.775c0.362-0.107,0.729-0.15,1.084-0.128
	c0.839,0.052,1.565,0.357,2.158,0.905c0.573,0.531,0.929,1.192,1.059,1.967C15.074,31.701,15.081,31.811,15.087,31.918z
	 M27.776,29.791c-0.608-0.099-1.224-0.023-1.836-0.039c-0.126-0.004-0.135,0.089-0.135,0.183c0,0.281,0,0.561,0,0.843
	c0,0.295,0.002,0.59-0.001,0.886c-0.002,0.128,0.043,0.191,0.18,0.188c0.576-0.02,1.152,0.035,1.727-0.04
	c0.564-0.074,0.944-0.459,0.958-0.986C28.682,30.279,28.357,29.885,27.776,29.791z M13.629,30.961
	c-0.256-0.457-0.621-0.793-1.11-0.997c-0.35-0.145-0.71-0.196-1.08-0.151c-0.695,0.083-1.234,0.429-1.614,1.02
	c-0.294,0.456-0.401,0.959-0.313,1.49c0.137,0.835,0.605,1.431,1.398,1.729c0.828,0.313,1.587,0.148,2.261-0.422
	c0.055-0.047,0.057-0.104,0.004-0.149c-0.111-0.096-0.215-0.199-0.313-0.307c-0.049-0.052-0.083-0.045-0.129-0.001
	c-0.125,0.122-0.273,0.207-0.433,0.275c-0.561,0.244-1.267,0.12-1.7-0.311c-0.354-0.35-0.517-0.774-0.477-1.275
	c0.036-0.451,0.243-0.814,0.583-1.096c0.2-0.167,0.439-0.268,0.702-0.314c0.623-0.11,1.255,0.165,1.596,0.697
	c0.139,0.218,0.226,0.451,0.244,0.708h0.632c-0.001-0.018-0.002-0.04-0.004-0.063C13.854,31.499,13.773,31.219,13.629,30.961z
	 M54.094,31.251c-0.62-0.144-1.269,0.215-1.442,1.004c-0.03,0.135,0.062,0.127,0.143,0.127c0.332,0.002,0.664,0.001,0.996,0.001
	c0.347,0,0.694,0,1.041-0.001c0.081,0,0.173,0.008,0.144-0.126C54.878,31.82,54.617,31.373,54.094,31.251z M60.24,15.152v33.695
	c0,0.803-0.65,1.454-1.454,1.454H5.214c-0.804,0-1.454-0.651-1.454-1.454V15.152c0-0.803,0.65-1.454,1.454-1.454h53.572
	C59.59,13.698,60.24,14.349,60.24,15.152z M16.007,28.262c0-0.331-0.268-0.599-0.599-0.599H7.933c-0.331,0-0.599,0.268-0.599,0.599
	v7.476c0,0.331,0.268,0.599,0.599,0.599h7.475c0.331,0,0.599-0.268,0.599-0.599V28.262z M23.286,28.461
	c0.01-0.225-0.066-0.294-0.29-0.292c-0.947,0.01-1.894,0.004-2.841,0.004c-0.961,0-1.923,0.004-2.885-0.003
	c-0.196-0.001-0.282,0.055-0.274,0.265c0.013,0.361,0.012,0.725,0,1.087c-0.007,0.206,0.071,0.271,0.271,0.267
	c0.576-0.009,1.154-0.002,1.731-0.002c0.302,0,0.303,0,0.303,0.308c0,1.798,0.003,3.596-0.004,5.393
	c0,0.217,0.055,0.307,0.285,0.296c0.377-0.015,0.754-0.002,1.132-0.004c0.303-0.001,0.303-0.002,0.303-0.313
	c0-1.797,0.003-3.594-0.003-5.393c-0.001-0.219,0.052-0.299,0.283-0.293c0.591,0.015,1.184,0,1.775,0.008
	c0.167,0.003,0.218-0.055,0.214-0.218C23.274,29.201,23.269,28.831,23.286,28.461z M30.582,35.74
	c0.049-0.085-0.041-0.148-0.085-0.211c-0.515-0.758-1.031-1.517-1.555-2.268c-0.108-0.156-0.083-0.211,0.086-0.284
	c0.424-0.185,0.757-0.482,1.01-0.872c0.333-0.51,0.377-1.08,0.346-1.664c-0.042-0.777-0.381-1.387-1.041-1.808
	c-0.599-0.381-1.279-0.444-1.961-0.455c-0.999-0.016-1.998-0.004-2.996-0.004c-0.325,0-0.326,0.002-0.326,0.318
	c0,1.162,0,2.323,0,3.485s0,2.323,0,3.485c0,0.317,0.001,0.318,0.325,0.318c0.385,0.001,0.77-0.008,1.154,0.003
	c0.202,0.006,0.273-0.064,0.27-0.269c-0.01-0.628,0.001-1.258-0.006-1.887c-0.003-0.178,0.05-0.256,0.239-0.248
	c0.258,0.012,0.518,0.01,0.776,0c0.159-0.006,0.258,0.056,0.345,0.188c0.45,0.678,0.91,1.349,1.359,2.028
	c0.086,0.131,0.183,0.19,0.343,0.188c0.503-0.009,1.006-0.001,1.51-0.004C30.446,35.779,30.541,35.812,30.582,35.74z M38.113,28.408
	c0.001-0.192-0.08-0.24-0.252-0.237c-0.384,0.008-0.769,0.002-1.154,0.002c-0.311,0.001-0.312,0.002-0.312,0.306
	c0,1.279-0.002,2.559,0.001,3.838c0,0.223-0.009,0.443-0.046,0.662c-0.096,0.57-0.354,1.031-0.935,1.213
	c-0.634,0.199-1.245,0.163-1.747-0.344c-0.358-0.361-0.445-0.826-0.446-1.309c-0.006-1.36-0.005-2.722,0.001-4.082
	c0.001-0.206-0.055-0.295-0.275-0.287c-0.391,0.013-0.784,0.012-1.176,0.001c-0.204-0.006-0.268,0.067-0.265,0.27
	c0.009,0.754,0.003,1.509,0.003,2.263c0,0.651,0.002,1.302,0,1.953c-0.001,0.237,0.011,0.472,0.053,0.706
	c0.186,1.053,0.697,1.861,1.727,2.27c0.684,0.272,1.398,0.291,2.118,0.216c0.577-0.061,1.111-0.25,1.572-0.609
	c0.784-0.612,1.088-1.472,1.115-2.416C38.134,31.353,38.105,29.88,38.113,28.408z M45,33.5c0.003-0.838-0.352-1.426-1.079-1.814
	c-0.434-0.232-0.901-0.368-1.373-0.496c-0.4-0.108-0.805-0.198-1.178-0.387c-0.228-0.115-0.378-0.291-0.369-0.557
	c0.011-0.285,0.18-0.458,0.439-0.554c0.272-0.1,0.551-0.106,0.831-0.057c0.533,0.094,1.015,0.315,1.457,0.622
	c0.127,0.088,0.199,0.075,0.284-0.054c0.208-0.315,0.416-0.63,0.646-0.928c0.139-0.178,0.096-0.265-0.071-0.38
	c-0.949-0.653-1.99-0.911-3.132-0.776c-1.009,0.119-2.038,0.768-2.149,2.031c-0.066,0.754,0.094,1.429,0.755,1.899
	c0.411,0.293,0.886,0.435,1.36,0.579c0.494,0.15,1.01,0.234,1.477,0.469c0.31,0.157,0.407,0.313,0.383,0.628
	c-0.022,0.292-0.209,0.441-0.464,0.532c-0.323,0.115-0.655,0.11-0.986,0.06c-0.622-0.095-1.166-0.372-1.649-0.765
	c-0.136-0.111-0.224-0.096-0.329,0.036c-0.236,0.294-0.477,0.584-0.725,0.868c-0.13,0.148-0.103,0.239,0.046,0.358
	c0.883,0.706,1.896,1.036,3.017,1.053c0.111,0,0.223,0.007,0.333,0c0.453-0.034,0.896-0.12,1.299-0.338
	C44.625,35.094,44.997,34.417,45,33.5z M49.492,29.782c0.584,0.014,1.168,0,1.752,0.006c0.17,0.002,0.238-0.059,0.234-0.233
	c-0.009-0.37-0.014-0.74,0.002-1.109c0.008-0.22-0.077-0.278-0.284-0.276c-0.955,0.008-1.909,0.003-2.863,0.003
	c-0.961,0-1.923,0.004-2.885-0.002c-0.193-0.001-0.263,0.064-0.257,0.258c0.011,0.354,0.001,0.71,0.003,1.064
	c0.001,0.281,0.012,0.292,0.284,0.293c0.569,0,1.139,0,1.709,0c0.307,0,0.307,0,0.307,0.304c0.001,1.805,0.004,3.61-0.003,5.415
	c-0.001,0.215,0.069,0.286,0.28,0.279c0.362-0.013,0.725-0.003,1.087-0.004c0.346,0,0.346,0,0.346-0.34
	c0-1.791,0.004-3.581-0.005-5.371C49.198,29.841,49.27,29.776,49.492,29.782z M56.665,33.189c0.005-0.468-0.033-0.93-0.174-1.378
	c-0.34-1.087-1.046-1.778-2.192-1.933c-1.145-0.155-2.106,0.2-2.794,1.161c-0.479,0.669-0.618,1.435-0.535,2.237
	c0.101,0.963,0.561,1.72,1.407,2.212c0.671,0.39,1.406,0.482,2.163,0.371c0.655-0.098,1.221-0.385,1.683-0.869
	c0.125-0.132,0.151-0.234-0.008-0.363c-0.23-0.185-0.454-0.379-0.665-0.585c-0.111-0.108-0.185-0.111-0.294-0.006
	c-0.265,0.25-0.583,0.395-0.941,0.463c-0.698,0.134-1.359-0.198-1.589-0.794c-0.069-0.179-0.029-0.238,0.163-0.235
	c0.584,0.007,1.168,0.002,1.753,0.002c0.577,0,1.154-0.007,1.73,0.003C56.583,33.478,56.662,33.395,56.665,33.189z M10.77,31.858
	h1.838c-0.06-0.446-0.51-0.819-0.963-0.79C11.199,31.097,10.843,31.42,10.77,31.858z"/>
</svg>
