<?xml version="1.0" encoding="utf-8"?>
<!-- Generator: Adobe Illustrator 16.0.0, SVG Export Plug-In . SVG Version: 6.00 Build 0)  -->
<!DOCTYPE svg PUBLIC "-//W3C//DTD SVG 1.1//EN" "http://www.w3.org/Graphics/SVG/1.1/DTD/svg11.dtd">
<svg version="1.1" id="Layer_1" xmlns="http://www.w3.org/2000/svg" xmlns:xlink="http://www.w3.org/1999/xlink" x="0px" y="0px"
	 width="64px" height="64px" viewBox="0 0 64 64" enable-background="new 0 0 64 64" xml:space="preserve">
<path fill-rule="evenodd" clip-rule="evenodd" d="M22.644,26.313c-1.389-1.089-2.92-1.616-3.217-1.681
	c-1.616-0.357-3.159-0.116-4.634,0.597c-1.442,0.696-2.583,1.74-3.459,3.075c-0.027,0.041-0.056,0.081-0.084,0.122
	c-0.012-0.009-0.025-0.018-0.037-0.026c0.212-0.322,0.41-0.653,0.638-0.963c1.072-1.458,2.439-2.522,4.171-3.093
	c0.836-0.275,1.695-0.375,2.57-0.303c0.33,0.027,0.688,0.077,0.982,0.165C20.424,24.388,21.82,25.01,22.644,26.313z M53.832,28.225
	c0,0.104,0,0.17,0,0.273c0.106-0.023,0.207-0.04,0.303-0.071c0.014-0.005,0.016-0.112,0.004-0.117
	C54.044,28.275,53.944,28.254,53.832,28.225z M36.048,34.055c-0.309,0.037-0.618,0.077-0.884,0.257
	c-0.278,0.188-0.357,0.462-0.313,0.779c0.038,0.266,0.21,0.428,0.458,0.493c0.474,0.125,0.924,0.063,1.31-0.253
	c0.471-0.386,0.606-0.935,0.699-1.488c-0.213,0.05-0.411,0.106-0.612,0.14C36.488,34.018,36.267,34.029,36.048,34.055z
	 M21.546,27.771c-0.081-0.024-0.168-0.035-0.252-0.035c-0.527,0.001-1.054,0.009-1.581,0.008c-0.118,0-0.167,0.042-0.191,0.155
	c-0.306,1.479-0.611,2.959-0.925,4.437c-0.12,0.563-0.238,1.128-0.481,1.655c-0.188,0.406-0.46,0.732-0.889,0.896
	c-0.414,0.158-0.843,0.183-1.275,0.094c-0.546-0.112-0.956-0.492-0.887-1.172c0.007-0.071,0.006-0.145,0.02-0.215
	c0.097-0.48,0.193-0.961,0.297-1.439c0.275-1.266,0.555-2.53,0.829-3.796c0.083-0.385-0.106-0.611-0.5-0.613
	c-0.262-0.002-0.522,0-0.784-0.001c-0.275,0-0.55,0.003-0.824-0.001c-0.112-0.002-0.157,0.042-0.18,0.15
	c-0.283,1.315-0.574,2.627-0.854,3.942c-0.173,0.813-0.388,1.619-0.39,2.461c-0.001,0.414,0.072,0.806,0.277,1.167
	c0.343,0.607,0.878,0.982,1.518,1.213c1.141,0.411,2.305,0.396,3.473,0.14c0.907-0.2,1.628-0.679,2.111-1.488
	c0.27-0.452,0.458-0.94,0.577-1.45c0.216-0.928,0.413-1.861,0.612-2.793c0.202-0.946,0.398-1.893,0.592-2.84
	C21.884,28.009,21.778,27.839,21.546,27.771z M54.581,28.567c-0.004,0.355-0.281,0.637-0.62,0.634
	c-0.344-0.003-0.607-0.283-0.604-0.645c0.002-0.361,0.271-0.638,0.615-0.633C54.313,27.927,54.586,28.217,54.581,28.567z
	 M54.122,28.631c0.026-0.011,0.046-0.02,0.067-0.027c0.125-0.039,0.162-0.131,0.158-0.251c-0.003-0.124-0.066-0.219-0.184-0.231
	c-0.17-0.018-0.344-0.004-0.514-0.004c0,0.302,0,0.597,0,0.896c0.059,0,0.11,0,0.177,0c0-0.131,0-0.255,0-0.426
	c0.069,0.05,0.116,0.07,0.141,0.105c0.047,0.065,0.091,0.136,0.12,0.21c0.049,0.122,0.133,0.14,0.258,0.104
	C54.269,28.881,54.197,28.758,54.122,28.631z M60.24,15.152v33.695c0,0.803-0.65,1.454-1.454,1.454H5.214
	c-0.804,0-1.454-0.651-1.454-1.454V15.152c0-0.803,0.65-1.454,1.454-1.454h53.572C59.59,13.698,60.24,14.349,60.24,15.152z
	 M24.443,30.173c-0.065-1.083-0.35-2.112-0.868-3.066c-0.985-1.813-2.482-2.943-4.521-3.327c-0.247-0.046-0.498-0.071-0.746-0.106
	c-0.279,0-0.559,0-0.838,0c-0.253,0.035-0.508,0.062-0.759,0.104c-1.426,0.242-2.691,0.846-3.807,1.752
	c-1.97,1.598-3.147,3.666-3.586,6.158c-0.052,0.296-0.067,0.599-0.101,0.898c-0.002,0.021-0.013,0.042-0.02,0.063
	c0,0.333,0,0.667,0,1c0.028,0.231,0.05,0.463,0.084,0.693c0.283,1.88,1.073,3.481,2.594,4.67c0.918,0.718,1.97,1.126,3.127,1.261
	c0.146,0.017,0.293,0.035,0.439,0.052c0.226,0,0.451,0,0.676,0c0.021-0.006,0.042-0.015,0.063-0.018
	c0.422-0.063,0.852-0.093,1.266-0.191c1.62-0.385,3.002-1.206,4.15-2.399C23.621,35.615,24.618,33.109,24.443,30.173z
	 M32.113,36.744c0.015-0.046-0.009-0.121-0.041-0.167c-0.358-0.513-0.722-1.022-1.083-1.533c-0.328-0.463-0.655-0.925-0.992-1.4
	c0.049-0.046,0.087-0.084,0.127-0.121c1.135-1.026,2.271-2.053,3.405-3.082c0.042-0.039,0.056-0.11,0.083-0.166
	c-0.055-0.02-0.109-0.056-0.164-0.056c-0.744-0.004-1.487-0.005-2.23,0.001c-0.07,0-0.157,0.04-0.208,0.089
	c-0.603,0.588-1.2,1.182-1.799,1.774c-0.109,0.107-0.222,0.213-0.355,0.341c0.017-0.089,0.025-0.142,0.036-0.194
	c0.26-1.232,0.522-2.464,0.78-3.697c0.1-0.475-0.146-0.776-0.63-0.781c-0.41-0.004-0.82,0.002-1.23-0.004
	c-0.115-0.001-0.156,0.045-0.178,0.151c-0.607,2.901-1.217,5.803-1.827,8.704c-0.033,0.159-0.006,0.195,0.158,0.195
	c0.446,0.001,0.892,0.002,1.338,0c0.417-0.002,0.676-0.215,0.762-0.623c0.058-0.272,0.112-0.546,0.168-0.82
	c0.053-0.257,0.106-0.515,0.164-0.791c0.032,0.044,0.053,0.071,0.073,0.101c0.442,0.673,0.885,1.347,1.324,2.022
	c0.049,0.076,0.104,0.113,0.196,0.112c0.658-0.003,1.315,0,1.973-0.004C32.016,36.796,32.103,36.775,32.113,36.744z M39.756,31.861
	c0.043-0.667-0.241-1.176-0.84-1.471c-0.121-0.059-0.246-0.114-0.375-0.148c-1.022-0.272-2.056-0.31-3.087-0.07
	c-1.01,0.235-1.633,0.881-1.877,1.89c-0.04,0.162-0.016,0.194,0.15,0.194c0.567,0.001,1.135-0.001,1.703,0.002
	c0.106,0.001,0.162-0.031,0.187-0.144c0.065-0.293,0.24-0.504,0.53-0.596c0.355-0.113,0.718-0.123,1.079-0.025
	c0.217,0.06,0.375,0.192,0.428,0.424c0.075,0.327-0.073,0.642-0.379,0.784c-0.109,0.05-0.228,0.095-0.345,0.108
	c-0.425,0.044-0.851,0.071-1.277,0.11c-0.605,0.057-1.207,0.14-1.775,0.375c-0.532,0.221-0.937,0.567-1.109,1.138
	c-0.104,0.346-0.123,0.7-0.073,1.056c0.095,0.678,0.463,1.136,1.12,1.353c0.39,0.128,0.792,0.153,1.2,0.137
	c0.69-0.026,1.318-0.19,1.787-0.756c-0.034,0.134-0.07,0.268-0.102,0.403c-0.03,0.125,0.002,0.17,0.131,0.171
	c0.441,0.002,0.883,0.009,1.324-0.002c0.368-0.01,0.601-0.209,0.695-0.568c0.143-0.543,0.291-1.086,0.42-1.633
	C39.484,33.693,39.696,32.791,39.756,31.861z M46.503,31.982c-0.001-0.81-0.409-1.434-1.19-1.704
	c-1.174-0.407-2.352-0.352-3.492,0.132c-0.787,0.335-1.209,0.947-1.22,1.824c-0.01,0.779,0.298,1.29,1.02,1.581
	c0.315,0.127,0.652,0.199,0.98,0.294c0.345,0.1,0.698,0.178,1.035,0.299c0.29,0.104,0.396,0.347,0.324,0.644
	c-0.048,0.199-0.186,0.325-0.364,0.409c-0.275,0.13-0.568,0.141-0.86,0.094c-0.507-0.083-0.709-0.293-0.785-0.798
	c-0.014-0.096-0.056-0.132-0.149-0.13c-0.28,0.002-0.559,0-0.838,0c-0.274,0-0.55,0-0.824,0c-0.163,0-0.187,0.027-0.173,0.193
	c0.005,0.063,0.014,0.125,0.022,0.188c0.125,0.911,0.599,1.533,1.494,1.809c0.551,0.17,1.116,0.184,1.685,0.16
	c0.551-0.022,1.094-0.095,1.611-0.298c0.634-0.25,1.094-0.672,1.271-1.349c0.052-0.199,0.086-0.407,0.092-0.612
	c0.026-0.944-0.253-1.464-1.133-1.765c-0.39-0.134-0.797-0.217-1.194-0.332c-0.267-0.077-0.54-0.147-0.791-0.263
	c-0.312-0.143-0.347-0.501-0.095-0.737c0.061-0.057,0.137-0.102,0.214-0.137c0.245-0.112,0.505-0.134,0.768-0.099
	c0.387,0.052,0.597,0.262,0.616,0.615c0.007,0.131,0.057,0.17,0.182,0.169c0.536-0.004,1.072-0.001,1.608-0.002
	C46.488,32.167,46.503,32.15,46.503,31.982z M54.02,31.724c-0.027-0.736-0.43-1.331-1.1-1.565c-0.707-0.247-1.403-0.148-2.081,0.127
	c-0.372,0.15-0.691,0.377-0.957,0.689c0.014-0.07,0.028-0.14,0.043-0.209c0.17-0.801,0.343-1.601,0.509-2.402
	c0.08-0.383-0.113-0.611-0.503-0.612c-0.446-0.001-0.892,0.006-1.338-0.003c-0.146-0.003-0.201,0.042-0.23,0.187
	c-0.257,1.246-0.522,2.491-0.786,3.736c-0.347,1.636-0.694,3.273-1.041,4.91c-0.04,0.186-0.014,0.218,0.173,0.218
	c0.41,0,0.82,0,1.23,0c0.477,0,0.766-0.232,0.866-0.702c0.164-0.77,0.314-1.542,0.489-2.31c0.098-0.428,0.199-0.861,0.361-1.267
	c0.23-0.579,0.696-0.849,1.322-0.831c0.405,0.012,0.683,0.237,0.723,0.639c0.021,0.22-0.003,0.451-0.048,0.668
	c-0.246,1.189-0.504,2.375-0.759,3.563c-0.045,0.213-0.026,0.239,0.187,0.24c0.437,0,0.874,0.002,1.311-0.001
	c0.423-0.003,0.672-0.211,0.764-0.619c0.212-0.953,0.427-1.904,0.639-2.857C53.907,32.795,54.039,32.271,54.02,31.724z
	 M54.803,28.377c-0.122-0.367-0.361-0.59-0.756-0.63c-0.423-0.042-0.803,0.215-0.897,0.611c-0.1,0.417,0.108,0.823,0.493,0.964
	c0.42,0.154,0.881-0.005,1.073-0.373c0.033-0.063,0.058-0.129,0.087-0.194C54.803,28.63,54.803,28.504,54.803,28.377z"/>
</svg>
