<?xml version="1.0" encoding="utf-8"?>
<!-- Generator: Adobe Illustrator 16.0.0, SVG Export Plug-In . SVG Version: 6.00 Build 0)  -->
<!DOCTYPE svg PUBLIC "-//W3C//DTD SVG 1.1//EN" "http://www.w3.org/Graphics/SVG/1.1/DTD/svg11.dtd">
<svg version="1.1" id="Layer_1" xmlns="http://www.w3.org/2000/svg" xmlns:xlink="http://www.w3.org/1999/xlink" x="0px" y="0px"
	 width="64px" height="64px" viewBox="0 0 64 64" enable-background="new 0 0 64 64" xml:space="preserve">
<path d="M26.838,28.709h0.848l-0.665,3.085h-0.846L26.838,28.709z M29.656,37.536l0.246-0.897h1.059l0.172-0.63h-1.058L30.24,35.4
	h1.087l0.172-0.629h-2.704L28.625,35.4h0.646l-0.165,0.608h-0.677l-0.171,0.63h0.676l-0.314,1.146
	c-0.098,0.36,0.009,0.54,0.324,0.54h1.655l0.16-0.585h-0.862C29.675,37.753,29.595,37.686,29.656,37.536z M26.945,28.334H27.8
	l0.16-0.75h-0.856L26.945,28.334z M29.768,33.229l-0.384,0.575c-0.043,0.09-0.134,0.136-0.271,0.136h-0.148l-0.167,0.607h0.765
	c0.251,0.014,0.459-0.105,0.628-0.36h1.468l0.157-0.579h-1.234l0.215-0.379H29.768z M28.437,31.56
	c-0.223-0.212-0.334-0.498-0.336-0.861c0-0.063,0.004-0.133,0.012-0.21c0.009-0.078,0.02-0.154,0.034-0.225
	c0.102-0.501,0.315-0.899,0.645-1.193c0.329-0.294,0.727-0.443,1.192-0.443c0.381,0,0.684,0.107,0.905,0.32
	c0.221,0.214,0.332,0.503,0.332,0.871c0,0.063-0.004,0.136-0.013,0.214c-0.01,0.08-0.022,0.156-0.036,0.231
	c-0.098,0.493-0.312,0.887-0.642,1.175c-0.33,0.291-0.726,0.435-1.188,0.435C28.959,31.874,28.658,31.769,28.437,31.56z
	 M28.916,30.601c0,0.189,0.049,0.335,0.147,0.438c0.096,0.103,0.233,0.154,0.413,0.154c0.236,0,0.427-0.082,0.577-0.245
	c0.15-0.162,0.256-0.408,0.322-0.734c0.01-0.051,0.018-0.104,0.023-0.158c0.004-0.052,0.007-0.101,0.007-0.146
	c0-0.189-0.048-0.337-0.146-0.442c-0.097-0.105-0.234-0.158-0.412-0.158c-0.235,0-0.426,0.083-0.576,0.248
	c-0.151,0.166-0.258,0.415-0.326,0.748c-0.009,0.051-0.017,0.103-0.023,0.152C28.917,30.509,28.916,30.557,28.916,30.601z
	 M24.979,28.629c-0.355,0-0.656,0.132-0.905,0.397l-0.109,0.127l0.087-0.445h-0.765l-0.617,3.087h0.787l0.351-1.773
	c0.045-0.223,0.137-0.398,0.276-0.524c0.139-0.125,0.309-0.188,0.511-0.188c0.165,0,0.279,0.047,0.338,0.142
	c0.061,0.094,0.072,0.241,0.033,0.438l-0.381,1.906h0.787l0.42-2.103c0.068-0.333,0.029-0.593-0.114-0.781
	C25.533,28.723,25.301,28.629,24.979,28.629z M39.743,29.039c0.661-0.307,1.003-0.125,1.378,0.168l0.359-0.247l0.845-0.074
	l-0.64,2.91l-0.976-0.025l-0.142-0.167C38.09,32.658,38.843,29.456,39.743,29.039z M40.145,31.231
	c0.274,0.087,0.624-0.218,0.781-0.681c0.159-0.463,0.061-0.909-0.213-0.994c-0.271-0.086-0.624,0.217-0.78,0.681
	C39.773,30.701,39.871,31.147,40.145,31.231z M32.58,30.022c0.044-0.223,0.136-0.398,0.275-0.524c0.14-0.125,0.31-0.188,0.512-0.188
	c0.164,0,0.276,0.047,0.338,0.142c0.06,0.094,0.07,0.241,0.031,0.438l-0.381,1.906h0.787l0.42-2.103
	c0.07-0.333,0.029-0.593-0.114-0.781c-0.146-0.188-0.377-0.282-0.699-0.282c-0.354,0-0.657,0.132-0.905,0.397l-0.108,0.127
	l0.087-0.445h-0.766l-0.617,3.087h0.786L32.58,30.022z M34.252,36.412c0,0.075-0.059,0.113-0.178,0.113H33.84l0.017-0.381h-0.882
	l-0.067,1.752c-0.003,0.3,0.143,0.441,0.438,0.428h1.059l0.143-0.517h-0.441c-0.195,0-0.289-0.053-0.281-0.157l0.002-0.652h0.47
	c0.357-0.016,0.576-0.172,0.659-0.472l0.098-0.359h-0.733L34.252,36.412z M35.847,31.795h-1.031l1.027-5.001h2.222
	c0.427,0,0.757,0.097,0.985,0.288c0.226,0.192,0.339,0.468,0.339,0.828v0.011c0,0.068-0.004,0.146-0.011,0.229
	c-0.011,0.083-0.025,0.167-0.043,0.253c-0.098,0.477-0.325,0.859-0.676,1.149c-0.353,0.289-0.771,0.435-1.25,0.435h-1.192
	L35.847,31.795z M36.397,29.118h0.988c0.258,0,0.462-0.06,0.611-0.178c0.148-0.12,0.246-0.302,0.3-0.55
	c0.009-0.045,0.014-0.087,0.021-0.125c0.003-0.036,0.008-0.072,0.008-0.106c0-0.177-0.063-0.306-0.189-0.386
	c-0.126-0.082-0.324-0.121-0.599-0.121h-0.838L36.397,29.118z M41.16,33.561l-0.041-0.359h-0.973l0.034,0.786
	c0.013,0.226,0.153,0.329,0.426,0.315h0.715l0.174-0.608h-0.172C41.208,33.696,41.154,33.652,41.16,33.561z M60.24,15.152v33.695
	c0,0.803-0.65,1.454-1.454,1.454H5.214c-0.804,0-1.454-0.651-1.454-1.454V15.152c0-0.803,0.65-1.454,1.454-1.454h53.572
	C59.59,13.698,60.24,14.349,60.24,15.152z M48.344,20.961l-8.515-0.002c-0.001,0-0.002,0-0.002,0c-0.007,0-0.013,0.001-0.019,0.001
	c-1.17,0.036-2.627,0.974-2.892,2.131l-0.757,3.347h-0.702l0.757-3.347c0.266-1.157,1.722-2.095,2.892-2.131
	c0.006,0,0.012-0.001,0.019-0.001l-3.405,0l-6.053-0.003c-0.015,0-0.031,0-0.046,0.002c-1.173,0.024-2.649,0.969-2.914,2.134
	l-0.757,3.347H25.13l0.756-3.347c0.265-1.166,1.742-2.11,2.915-2.134l-7.814-0.002c-1.18,0-2.692,0.956-2.962,2.136l-4.028,17.818
	c-0.024,0.109-0.039,0.216-0.047,0.32v0.33c0.079,0.851,0.729,1.471,1.664,1.485h7.862c-1.161-0.018-1.884-0.967-1.618-2.136
	l0.935-4.136h0.82l-0.935,4.136c-0.267,1.168,0.457,2.118,1.617,2.136h9.51c-1.162-0.018-1.883-0.967-1.618-2.136l0.313-1.386h0.702
	l-0.313,1.386c-0.265,1.168,0.456,2.118,1.618,2.136h8.945c1.144-0.057,2.254-0.984,2.516-2.128l4.027-17.818
	C50.264,21.919,49.524,20.961,48.344,20.961z M35.753,33.211l-0.655,2.369c-0.054,0.271-0.288,0.406-0.697,0.406h-1.94l-0.454,1.664
	c-0.026,0.089,0.01,0.135,0.109,0.135h0.382L32.356,38.3h-0.97c-0.373,0-0.527-0.112-0.466-0.337l1.284-4.738h0.906l-0.042,0.369
	c0,0,0.51-0.383,0.973-0.383H35.753z M34.284,34.906h-1.53l-0.127,0.471h1.38c0.113,0.015,0.176-0.029,0.184-0.135L34.284,34.906z
	 M34.56,33.895h-1.528l-0.182,0.639c0,0,0.254-0.183,0.679-0.19c0.424-0.006,0.908,0,0.908,0L34.56,33.895z M44.027,30.793
	l-0.051-2.084H43.5l-0.567,0.008l0.27,3.322c-0.227,0.452-0.624,1.47-1.357,1.696l-0.076,0.529c0.873,0.033,1.234-0.4,1.417-0.586
	c0.182-0.188,0.494-0.592,0.819-1.286l1.817-3.684H44.92L44.027,30.793z M38.936,37.361l-0.191,0.674h-0.202l-0.084,0.292h-1.001
	l0.084-0.292h-1.976l0.192-0.674h0.198l0.966-3.395h-0.2l0.205-0.719h1.034l-0.045,0.264c0,0,0.529-0.264,0.909-0.264
	c0.381,0,1.279,0,1.279,0L39.9,33.966h-0.201l-0.964,3.395H38.936z M37.845,36.663h-0.772l-0.199,0.698h0.773L37.845,36.663z
	 M38.229,35.316h-0.775l-0.264,0.962c0,0,0.5-0.246,0.841-0.266C38.129,35.64,38.229,35.316,38.229,35.316z M38.611,33.966h-0.773
	l-0.263,0.919c0,0,0.451-0.173,0.838-0.222C38.499,34.343,38.611,33.966,38.611,33.966z M39.677,35.158h1.088l-0.173,0.606h-1.087
	l-0.187,0.651h1.003l-0.778,1.124c-0.087,0.105-0.186,0.158-0.303,0.158h-0.286l-0.179,0.629h0.917
	c0.243,0.016,0.424-0.082,0.542-0.292l0.496-0.743l0.146,0.698c0.013,0.225,0.174,0.33,0.485,0.314h0.6l0.179-0.63h-0.17
	c-0.115,0-0.182-0.037-0.198-0.113l-0.126-0.765H41.1l0.252-0.381h1.116l0.186-0.651h-1.001l0.172-0.606h1.002l0.185-0.652h-3.149
	L39.677,35.158z M21.931,26.611l-0.71,3.418c-0.062,0.302-0.201,0.533-0.414,0.696c-0.213,0.165-0.487,0.246-0.82,0.246
	c-0.291,0-0.499-0.083-0.627-0.25c-0.088-0.112-0.131-0.255-0.13-0.43c-0.001-0.079,0.007-0.167,0.029-0.263l0.708-3.418h-1.083
	l-0.717,3.458c-0.035,0.168-0.052,0.325-0.052,0.471c0,0.352,0.103,0.644,0.308,0.873c0.296,0.323,0.76,0.484,1.394,0.484
	c0.673,0,1.223-0.158,1.648-0.472c0.43-0.32,0.708-0.77,0.827-1.356l0.717-3.458H21.931z"/>
</svg>
