<?xml version="1.0" encoding="utf-8"?>
<!-- Generator: Adobe Illustrator 16.0.0, SVG Export Plug-In . SVG Version: 6.00 Build 0)  -->
<!DOCTYPE svg PUBLIC "-//W3C//DTD SVG 1.1//EN" "http://www.w3.org/Graphics/SVG/1.1/DTD/svg11.dtd">
<svg version="1.1" id="Layer_1" xmlns="http://www.w3.org/2000/svg" xmlns:xlink="http://www.w3.org/1999/xlink" x="0px" y="0px"
	 width="64px" height="64px" viewBox="0 0 64 64" enable-background="new 0 0 64 64" xml:space="preserve">
<path d="M44.987,34.713c0,0.894-0.341,1.847-1.4,1.847c-0.996,0-1.325-1.02-1.325-1.847c0-0.869,0.289-1.901,1.348-1.901
	C44.657,32.812,44.987,33.831,44.987,34.713z M18.147,28.47v-0.758h-0.764v0.758H18.147z M17.384,29.668v0.765h0.77v-0.765H17.384z
	 M19.45,32.812c-1.03,0-1.447,0.784-1.609,1.679h2.274c0.22,0,0.672,0.069,0.672-0.275C20.787,33.361,20.318,32.812,19.45,32.812z
	 M20.851,25.718h0.758v-0.764h-0.758V25.718z M20.109,27.246v-0.77h-0.77v0.77H20.109z M20.851,26.476v-0.758h-0.741v0.758H20.851z
	 M56.124,33.222c0-0.157-0.127-0.194-0.267-0.194h-0.254v0.394h0.185C55.956,33.421,56.124,33.417,56.124,33.222z M56.645,33.479
	c0,0.47-0.353,0.843-0.827,0.843s-0.834-0.373-0.834-0.843c0-0.472,0.359-0.844,0.834-0.844S56.645,33.006,56.645,33.479z
	 M56.321,34.045l-0.342-0.505c0.156-0.026,0.289-0.117,0.289-0.318c0-0.203-0.115-0.313-0.37-0.313h-0.44v1.137h0.146V33.54h0.231
	l0.318,0.505H56.321z M60.24,15.152v33.695c0,0.803-0.65,1.454-1.454,1.454H5.214c-0.804,0-1.454-0.651-1.454-1.454V15.152
	c0-0.803,0.65-1.454,1.454-1.454h53.572C59.59,13.698,60.24,14.349,60.24,15.152z M38.452,30.042c0,0.427,0.359,0.729,0.771,0.729
	c0.388,0,0.706-0.33,0.706-0.729c0-0.415-0.318-0.745-0.729-0.745C38.782,29.298,38.452,29.628,38.452,30.042z M28.387,30.042
	c0,0.427,0.359,0.729,0.77,0.729c0.389,0,0.707-0.33,0.707-0.729c0-0.415-0.318-0.745-0.735-0.745
	C28.717,29.298,28.387,29.628,28.387,30.042z M16.133,32.947h0.614v-0.769h0.637v-0.886h0.77v-0.858h0.752v-0.769h0.608v-0.931
	h0.677v-0.639h0.66v-1.619h0.758v-0.758h0.852v-0.764h-0.852v-0.799h0.724v-0.811h0.811v0.816h0.816v-0.816h-0.816v-0.804h0.816
	v-0.816h-0.816v0.816h-0.811v0.804h-1.481v0.811h-0.741v1.563h-0.77v-0.729h-0.764v0.729h0.764v0.758h-1.273v0.556h-0.683v0.68
	h-0.811v1.191h-0.765v0.762H15.3v0.762h-0.556c-0.631,0.934-2.205,3.846-2.68,5.029c-1.714-2.385-3.045-3.332-4.093-3.673
	c-0.562-0.17-1.25,0.446-0.307,1.414c2.153,2.374,2.836,4.338,3.49,5.905c0.348,0.825,1.904,0.955,2.217,0.113
	c0.66-1.78,1.627-3.778,2.761-5.418V32.947z M22.066,34.74c0-1.488-1.279-2.246-2.628-2.246c-1.795,0-3.103,1.556-3.103,3.278
	c0,1.764,1.406,2.963,3.114,2.963c1.036,0,1.806-0.372,2.454-1.17l-0.29-0.29c-0.411,0.549-1.036,1.019-1.736,1.019
	c-1.476,0-2.165-1.459-2.165-2.768l0.059-0.663h3.953C21.863,34.863,22.066,34.919,22.066,34.74z M27.327,33.21
	c0-0.508-0.55-0.716-0.978-0.716c-0.949,0-1.639,0.552-1.997,1.392h-0.029c0.018-0.497-0.04-0.993-0.162-1.392
	c-0.607,0.137-1.215,0.384-1.863,0.427v0.275c0.439,0,0.787-0.056,0.908,0.44c0.099,0.318,0.081,1.297,0.081,1.669v1.692
	c0,0.91,0.075,1.241-0.961,1.31v0.277c0.539-0.015,1.06-0.043,1.598-0.055c0.521,0.012,1.06,0.041,1.586,0.055v-0.277
	c-1.157-0.055-1.048-0.385-1.048-1.391v-1.364c0-0.633,0-1.308,0.318-1.874c0.203-0.345,0.66-0.688,1.071-0.688
	c0.538,0,0.417,0.717,0.995,0.717C27.107,33.708,27.327,33.473,27.327,33.21z M30.841,38.308c-1.088-0.068-0.938-0.483-0.967-1.391
	v-4.422l-2.176,0.427v0.275c0.277-0.015,0.856-0.042,0.949,0.302c0.058,0.209,0.058,1.269,0.058,1.53v1.969
	c-0.018,0.91,0.069,1.241-0.949,1.31v0.277c0.532-0.015,1.071-0.043,1.609-0.055c0.498,0.012,1.007,0.041,1.476,0.055V38.308z
	 M37.659,36.062c0-1.803-1.597-2.521-3.032-3.112c-0.852-0.359-1.829-0.731-1.829-1.821c0-0.894,0.729-1.459,1.608-1.459
	c1.338,0,1.985,1.033,2.299,2.177h0.317l-0.063-2.383h-0.156L36.484,30c-0.619-0.44-1.319-0.702-2.078-0.702
	c-1.499,0-2.726,0.909-2.726,2.479s1.331,2.233,2.587,2.714c1.007,0.399,2.096,0.896,2.096,2.149c0,1.117-0.897,1.723-1.969,1.723
	c-1.586,0-2.332-1.172-2.604-2.563h-0.318v2.687h0.15l0.33-0.58c0.747,0.551,1.477,0.827,2.414,0.827
	C35.976,38.735,37.659,37.867,37.659,36.062z M39.431,38.529c0.498,0.012,1.007,0.041,1.477,0.055v-0.277
	c-1.089-0.068-0.938-0.483-0.967-1.391v-4.422l-2.177,0.427v0.275c0.278-0.015,0.856-0.042,0.949,0.302
	c0.058,0.209,0.058,1.269,0.058,1.53v1.969c-0.011,0.91,0.07,1.241-0.949,1.31v0.277C38.36,38.57,38.893,38.542,39.431,38.529z
	 M47.581,33.126c0-0.424-0.458-0.592-0.811-0.592c-0.504,0-0.967,0.29-1.337,0.58c-0.47-0.427-1.117-0.62-1.754-0.62
	c-1.349,0-2.588,0.785-2.588,2.246c0,0.881,0.672,1.639,1.471,1.9v0.028c-0.591,0.083-1.21,0.523-1.21,1.185
	c0,1.239,1.25,1.212,2.165,1.239c0.949,0.057,2.466-0.012,2.466,1.337c0,1.117-1.048,1.53-2.015,1.53s-2.188-0.235-2.188-1.434
	c0-0.428,0.26-0.895,0.712-0.977c-0.162-0.152-0.342-0.25-0.573-0.25c-0.597,0-1.019,0.579-1.019,1.145
	c0,1.433,1.748,1.832,2.888,1.832c1.505,0,3.126-0.565,3.126-2.313c0-1.849-1.481-1.904-2.889-2.013l-0.926-0.042
	c-0.301-0.027-1.06,0.028-1.06-0.455c0-0.564,1.06-0.564,1.477-0.578c1.418-0.069,2.645-0.538,2.645-2.163
	c0-0.497-0.168-0.979-0.497-1.352c0.15-0.123,0.37-0.26,0.567-0.26c0.422,0,0.469,0.48,0.891,0.48
	C47.39,33.582,47.581,33.376,47.581,33.126z M55.151,38.308c-1.076-0.068-0.966-0.483-0.966-1.391v-2.521
	c0-1.31-0.741-1.901-2.056-1.901c-0.972,0-1.719,0.398-2.199,1.253h-0.029l-0.179-1.253c-0.678,0.123-1.188,0.344-1.898,0.427v0.275
	c0.439,0,0.81-0.056,0.92,0.44c0.069,0.318,0.069,1.283,0.069,1.669v1.692c0,0.91,0.069,1.241-0.967,1.31v0.277
	c0.538-0.015,1.065-0.043,1.604-0.055c0.492,0.012,1.001,0.041,1.499,0.055v-0.277c-1.088-0.068-0.967-0.483-0.967-1.391v-2.135
	c0-1.006,0.689-1.847,1.766-1.847c1.309,0,1.268,1.35,1.268,2.301v1.762c0,0.91,0.069,1.241-0.967,1.31v0.277
	c0.539-0.015,1.06-0.043,1.598-0.055c0.498,0.012,1.008,0.041,1.505,0.055V38.308z M56.802,33.479c0-0.554-0.429-0.984-0.984-0.984
	s-0.984,0.431-0.984,0.984c0,0.551,0.429,0.984,0.984,0.984S56.802,34.03,56.802,33.479z"/>
</svg>
