<?xml version="1.0" encoding="utf-8"?>
<!-- Generator: Adobe Illustrator 16.0.0, SVG Export Plug-In . SVG Version: 6.00 Build 0)  -->
<!DOCTYPE svg PUBLIC "-//W3C//DTD SVG 1.1//EN" "http://www.w3.org/Graphics/SVG/1.1/DTD/svg11.dtd">
<svg version="1.1" id="Layer_1" xmlns="http://www.w3.org/2000/svg" xmlns:xlink="http://www.w3.org/1999/xlink" x="0px" y="0px"
	 width="64px" height="64px" viewBox="0 0 64 64" enable-background="new 0 0 64 64" xml:space="preserve">
<path fill-rule="evenodd" clip-rule="evenodd" d="M39.194,42.627c0.083,0.246,0.107,0.505,0.099,0.742
	c0.008,0.612-0.157,1.146-0.54,1.6c-0.739,0.875-2.069,0.84-2.783-0.067c-0.64-0.813-0.664-2.134-0.042-2.957
	c0.429-0.565,1.014-0.829,1.713-0.713C38.436,41.364,38.938,41.872,39.194,42.627z M23.387,42.225
	c-0.199-0.68-0.625-1.052-1.201-1.076c-0.717-0.029-1.382,0.346-1.611,0.896c-0.058,0.141-0.038,0.183,0.114,0.182
	C21.58,42.224,22.47,42.225,23.387,42.225z M60.24,15.152v33.695c0,0.803-0.65,1.454-1.454,1.454H5.214
	c-0.804,0-1.454-0.651-1.454-1.454V15.152c0-0.803,0.65-1.454,1.454-1.454h53.572C59.59,13.698,60.24,14.35,60.24,15.152z
	 M20.174,33.431c-0.003,0.656,0.188,1.146,0.771,1.463c4.171,0,8.341,0,12.51,0c0.673-0.433,10.372-9.314,10.372-9.314
	s-8.536-0.007-12.396,0c-0.823,0.002-1.536,0.304-2.124,0.889c-1.243,1.236-2.488,2.473-3.734,3.706
	c-1.355,1.34-2.702,2.691-4.086,4.003c-0.186,0.176-0.686,0.303-0.83,0.188c-0.369-0.296-0.061-0.615,0.179-0.881
	c0.044-0.049,0.091-0.095,0.138-0.142c2.697-2.695,5.396-5.391,8.096-8.086c1.052-1.051,2.105-2.102,3.177-3.17l-6.498-6.729
	c-0.044,0-4.725,4.833-4.725,4.833c-0.539,0.535-0.84,1.173-0.841,1.934C20.179,25.893,20.192,29.661,20.174,33.431z M17.242,46.262
	c1.016-2.797,2.035-5.593,3.069-8.381c0.107-0.295,0.029-0.326-0.228-0.306c-0.217,0.018-0.438,0.02-0.653-0.002
	c-0.216-0.021-0.31,0.061-0.378,0.262c-0.284,0.841-0.585,1.677-0.881,2.515c-0.52,1.47-1.038,2.94-1.582,4.481
	c-0.05-0.121-0.075-0.176-0.096-0.233c-0.71-2.061-1.421-4.122-2.13-6.183c-0.292-0.849-0.291-0.841-1.2-0.843
	c-0.259,0-0.252,0.078-0.181,0.282c0.923,2.633,1.839,5.268,2.758,7.901c0.088,0.253,0.116,0.586,0.296,0.732
	c0.194,0.16,0.537,0.022,0.813,0.056C17.081,46.571,17.169,46.468,17.242,46.262z M24.575,45.911
	c-0.011-0.269-0.003-0.537-0.003-0.831c-0.303,0.137-0.563,0.261-0.828,0.371c-0.277,0.115-0.569,0.189-0.869,0.217
	c-1.197,0.113-2.188-0.291-2.441-1.589c-0.036-0.182-0.044-0.369-0.071-0.554c-0.038-0.256,0.028-0.356,0.324-0.354
	c1.201,0.014,2.403-0.014,3.604-0.007c0.272,0.003,0.296-0.082,0.254-0.319c-0.082-0.449-0.209-0.881-0.401-1.298
	c-0.909-1.962-3.349-1.547-4.189-0.429c-0.954,1.27-0.878,3.485,0.216,4.638c0.957,1.008,3.095,1.235,4.239,0.456
	C24.521,46.136,24.582,46.055,24.575,45.911z M28.493,41.157c0-0.664-0.092-0.761-0.764-0.808c-0.042-0.003-0.083-0.003-0.124-0.003
	c-0.436-0.007-0.835,0.124-1.22,0.313c-0.069,0.035-0.217,0.174-0.205-0.041c0.015-0.273-0.13-0.276-0.322-0.264
	c-0.134,0.008-0.272,0.017-0.404-0.002c-0.239-0.032-0.292,0.065-0.291,0.293c0.01,1.73,0.006,3.461,0.006,5.191
	c0,0.729,0,0.717,0.723,0.729c0.246,0.005,0.287-0.08,0.284-0.3c-0.009-1.316,0.018-2.633-0.017-3.948
	c-0.011-0.432,0.186-0.649,0.511-0.826c0.164-0.088,0.342-0.139,0.531-0.159c0.448-0.046,0.854,0.089,1.292,0.304
	C28.493,41.447,28.493,41.303,28.493,41.157z M30.062,46.277c-0.011-1.729-0.005-3.459-0.005-5.189c0-0.74,0-0.732-0.74-0.734
	c-0.2-0.001-0.264,0.047-0.261,0.256c0.012,0.942,0.005,1.885,0.005,2.828c0,0.808,0,1.616,0,2.425c0,0.701,0,0.691,0.709,0.703
	C29.999,46.568,30.063,46.516,30.062,46.277z M30.063,39.568c-0.018-0.56-0.004-0.56-0.599-0.56c-0.022,0-0.042,0.003-0.063-0.001
	c-0.288-0.054-0.36,0.073-0.349,0.35c0.023,0.504,0.007,0.505,0.492,0.505c0.072,0,0.146-0.01,0.217,0.002
	C30.003,39.902,30.07,39.811,30.063,39.568z M34.363,41.24c-0.001-0.193-0.054-0.247-0.245-0.244
	c-0.632,0.012-1.263-0.002-1.896,0.01c-0.186,0.002-0.246-0.042-0.242-0.238c0.013-0.652,0.015-1.306-0.001-1.958
	c-0.006-0.22,0.055-0.273,0.271-0.27c1.129,0.011,2.259,0.005,3.387,0.005c0.717,0,0.709,0,0.717-0.723
	c0.002-0.207-0.037-0.281-0.264-0.279c-1.658,0.012-3.316,0.011-4.974,0.001c-0.221-0.002-0.271,0.061-0.269,0.273
	c0.011,1.41,0.006,2.818,0.006,4.228c0,1.232-0.004,2.466,0.002,3.698c0.002,0.265-0.119,0.616,0.06,0.769
	c0.152,0.13,0.493,0.024,0.749,0.052c0.255,0.026,0.329-0.05,0.326-0.315c-0.015-1.326-0.002-2.651-0.011-3.978
	c-0.002-0.209,0.039-0.288,0.266-0.278c0.454,0.02,0.912,0.006,1.367,0.006C34.378,41.998,34.371,41.998,34.363,41.24z
	 M40.332,43.381c0.02-0.319-0.045-0.675-0.145-1.024c-0.349-1.229-1.424-2.134-2.604-2.193c-1.292-0.065-2.393,0.632-2.882,1.836
	c-0.264,0.646-0.318,1.316-0.234,2.008c0.246,2.013,2.204,3.203,4.04,2.444C39.638,45.983,40.331,44.835,40.332,43.381z
	 M45.398,46.302c-0.01-1.337,0.008-2.673-0.011-4.009c-0.012-0.758-0.351-1.367-1.038-1.718c-0.871-0.441-1.739-0.495-2.617,0.183
	c0.069-0.346-0.063-0.444-0.34-0.402c-0.102,0.016-0.209,0.015-0.31,0c-0.265-0.04-0.349,0.042-0.347,0.329
	c0.017,1.72,0.008,3.438,0.008,5.159c0,0.705,0,0.693,0.715,0.702c0.237,0.004,0.291-0.067,0.289-0.296
	c-0.013-1.244,0.034-2.489-0.023-3.729c-0.026-0.587,0.245-0.871,0.688-1.104c0.101-0.052,0.206-0.098,0.313-0.133
	c0.887-0.281,1.644,0.27,1.646,1.199c0.004,1.099,0.001,2.197,0.001,3.295c0,0.782-0.001,0.776,0.775,0.767
	C45.335,46.543,45.398,46.496,45.398,46.302z M51.057,45.889c-0.015-0.258-0.004-0.518-0.004-0.835
	c-0.568,0.322-1.117,0.561-1.724,0.614c-1.209,0.109-2.111-0.315-2.388-1.465c-0.062-0.25-0.079-0.509-0.097-0.769
	c-0.015-0.209,0.045-0.26,0.249-0.259c1.036,0.01,2.073,0.005,3.11,0.005c0.943,0,0.955-0.004,0.749-0.93
	c-0.211-0.943-0.672-1.712-1.675-1.965c-1.026-0.26-1.983-0.103-2.735,0.714c-0.577,0.626-0.78,1.414-0.787,2.234
	c-0.009,1.134,0.339,2.142,1.277,2.866c1.075,0.833,2.98,0.623,3.818,0.133C50.989,46.154,51.066,46.06,51.057,45.889z
	 M54.395,46.563c-0.025-0.047-0.017-0.101-0.031-0.15c-0.156-0.544-0.691-0.893-1.268-0.791c-0.578,0.103-0.984,0.649-0.9,1.235
	c0.064,0.451,0.32,0.749,0.746,0.91c0.049,0.019,0.105,0.021,0.152,0.05c0.131,0,0.26,0,0.39,0c0.087-0.034,0.182-0.049,0.268-0.09
	c0.321-0.153,0.529-0.4,0.62-0.745c0.012-0.042,0-0.088,0.023-0.127C54.395,46.758,54.395,46.66,54.395,46.563z M53.625,46.433
	c-0.003-0.078-0.059-0.141-0.137-0.162c-0.047-0.014-0.096-0.021-0.145-0.014c-0.088,0.015-0.178,0.011-0.266,0.015
	c-0.08,0.004-0.09,0.007-0.078,0.081c0.012,0.082,0.006,0.162,0.014,0.242c0.007,0.061,0.004,0.062,0.064,0.062
	c0.008,0,0.017,0,0.025,0c0.099-0.012,0.199-0.007,0.298-0.016c0.044-0.005,0.085-0.015,0.124-0.036
	C53.596,46.567,53.628,46.509,53.625,46.433z M54.202,46.713c0.021,0.47-0.403,0.916-0.911,0.913
	c-0.448-0.002-0.908-0.364-0.91-0.912c-0.001-0.506,0.404-0.913,0.916-0.912C53.82,45.802,54.217,46.246,54.202,46.713z
	 M53.93,47.269c-0.133-0.176-0.232-0.37-0.418-0.505c0.029-0.012,0.054-0.017,0.076-0.025c0.221-0.083,0.28-0.365,0.113-0.533
	c-0.064-0.064-0.143-0.083-0.229-0.084c-0.18-0.005-0.357,0.014-0.535,0.02c-0.112,0.005-0.112,0.005-0.107,0.119
	c0,0.011,0.002,0.021,0.004,0.032c0.009,0.179,0.02,0.355,0.027,0.533c0.008,0.138,0.012,0.277,0.02,0.414
	c0.004,0.098,0.006,0.095,0.102,0.092c0.067-0.002,0.066-0.01,0.064-0.071c-0.005-0.113-0.012-0.226-0.016-0.34
	c0-0.034-0.02-0.075,0.002-0.103c0.023-0.029,0.066-0.009,0.1-0.017c0.139-0.031,0.247,0.012,0.334,0.128
	c0.077,0.104,0.15,0.21,0.229,0.315c0.014,0.019,0.024,0.047,0.051,0.047C53.805,47.291,53.865,47.307,53.93,47.269z M47.169,42.216
	c0.901-0.002,1.8-0.001,2.702-0.001c-0.105-0.645-0.546-1.02-1.229-1.063c-0.76-0.046-1.441,0.345-1.606,0.911
	C46.994,42.209,47.06,42.216,47.169,42.216z"/>
</svg>
