<?xml version="1.0" encoding="utf-8"?>
<!-- Generator: Adobe Illustrator 16.0.0, SVG Export Plug-In . SVG Version: 6.00 Build 0)  -->
<!DOCTYPE svg PUBLIC "-//W3C//DTD SVG 1.1//EN" "http://www.w3.org/Graphics/SVG/1.1/DTD/svg11.dtd">
<svg version="1.1" id="Layer_1" xmlns="http://www.w3.org/2000/svg" xmlns:xlink="http://www.w3.org/1999/xlink" x="0px" y="0px"
	 width="64px" height="64px" viewBox="0 0 64 64" enable-background="new 0 0 64 64" xml:space="preserve">
<path fill-rule="evenodd" clip-rule="evenodd" d="M58.786,13.698H5.214c-0.804,0-1.454,0.651-1.454,1.454v33.695
	c0,0.803,0.65,1.454,1.454,1.454h53.572c0.804,0,1.454-0.651,1.454-1.454V15.152C60.24,14.35,59.59,13.698,58.786,13.698z
	 M11.445,37.786c-0.081-0.154-0.137-0.259-0.188-0.364c-1.103-2.321-2.203-4.642-3.307-6.962c-0.029-0.063-0.075-0.121-0.113-0.181
	c0-0.021,0-0.041,0-0.062c0.568-0.004,1.137,0,1.704-0.016c0.187-0.005,0.271,0.062,0.343,0.229c0.464,1.093,0.939,2.181,1.411,3.27
	c0.035,0.083,0.075,0.164,0.141,0.306c0.07-0.141,0.12-0.235,0.164-0.331c0.485-1.072,0.973-2.142,1.447-3.218
	c0.083-0.186,0.178-0.264,0.392-0.257c0.543,0.018,1.088,0.006,1.681,0.006C13.89,32.742,12.682,35.234,11.445,37.786z
	 M17.569,37.766c-0.672,0-1.337,0-2.027,0c0-2.501,0-5.004,0-7.544c0.678,0,1.345,0,2.027,0
	C17.569,32.741,17.569,35.244,17.569,37.766z M15.327,29.505l0.002-1.008l0.837-0.568l-0.833-0.491l0.003-1.031l0.008-0.008
	l2.44,1.52C16.966,28.447,16.177,28.956,15.327,29.505z M25.572,37.764c-0.64,0-1.315,0-2.039,0c0-0.099,0-0.208,0-0.316
	c0-1.303,0.003-2.604-0.004-3.906c0-0.268-0.023-0.537-0.064-0.802c-0.099-0.643-0.439-0.993-1.02-1.081
	c-0.721-0.11-1.368,0.151-1.587,0.734c-0.152,0.405-0.229,0.859-0.242,1.294c-0.03,1.239-0.011,2.479-0.011,3.72
	c0,0.112,0,0.226,0,0.358c-0.698,0-1.376,0-2.075,0c0-2.499,0-5.005,0-7.534c0.637,0,1.279,0,1.966,0c0,0.329,0,0.635,0,0.94
	c0.034,0.027,0.066,0.053,0.101,0.079c0.006-0.044-0.005-0.098,0.017-0.13c0.916-1.347,2.769-1.348,3.846-0.787
	c0.744,0.387,1.076,1.09,1.098,1.866C25.606,34.045,25.572,35.893,25.572,37.764z M33.914,37.766c-0.665,0-1.309,0-1.98,0
	c0-0.29,0-0.573,0-0.959c-0.419,0.625-0.925,0.966-1.564,1.104c-1.654,0.356-3.133-0.361-3.759-1.93
	c-0.658-1.645-0.637-3.289,0.434-4.777c1.015-1.411,3.223-1.635,4.418-0.501c0.104,0.1,0.197,0.21,0.343,0.365
	c0-1.723,0-3.396,0-5.07c0.704,0,1.407,0,2.109,0C33.914,29.914,33.914,33.83,33.914,37.766z M36.979,37.77c-0.682,0-1.35,0-2.04,0
	c0-2.507,0-5.012,0-7.539c0.676,0,1.35,0,2.04,0C36.979,32.744,36.979,35.25,36.979,37.77z M34.939,29.182l0.002-1.009l0.835-0.567
	l-0.833-0.491l0.003-1.032l0.008-0.007l2.441,1.52C36.576,28.124,35.787,28.633,34.939,29.182z M42.088,37.97
	c-0.916,0.065-1.798-0.041-2.594-0.539c-1.104-0.69-1.635-1.725-1.708-2.997c-0.083-1.438,0.247-2.742,1.436-3.682
	c1.515-1.197,4.185-0.97,5.349,0.435c0.394,0.475,0.605,1.022,0.622,1.673c-0.703,0-1.361,0-2.015,0
	c-0.341-1.084-1.058-1.508-2.031-1.215c-0.518,0.155-0.839,0.524-1.027,1.003c-0.342,0.88-0.363,1.776-0.026,2.664
	c0.283,0.749,0.865,1.14,1.586,1.098c0.787-0.046,1.309-0.478,1.497-1.284c0.048-0.206,0.122-0.264,0.324-0.26
	c0.575,0.013,1.154,0.004,1.733,0.004C45.131,36.549,43.805,37.846,42.088,37.97z M48.083,37.77c-0.68,0-1.348,0-2.04,0
	c0-2.506,0-5.011,0-7.548c0.688,0,1.357,0,2.04,0C48.083,32.743,48.083,35.248,48.083,37.77z M46.04,29.182l0.001-1.009l0.836-0.567
	l-0.834-0.491l0.004-1.032l0.007-0.007l2.441,1.52C47.676,28.124,46.888,28.633,46.04,29.182z M54.138,37.763
	c-0.05-0.197-0.104-0.411-0.165-0.656c-0.779,0.713-1.708,0.922-2.708,0.869c-0.315-0.016-0.642-0.063-0.941-0.161
	c-0.948-0.312-1.446-1.046-1.448-2.074c-0.003-1.064,0.436-1.772,1.435-2.061c0.747-0.217,1.537-0.284,2.309-0.425
	c0.262-0.048,0.524-0.105,0.781-0.181c0.305-0.089,0.511-0.295,0.513-0.622c0.002-0.35-0.063-0.707-0.422-0.871
	c-0.593-0.272-1.228-0.315-1.779,0.041c-0.271,0.175-0.41,0.554-0.656,0.906c-0.575,0-1.244,0-1.944,0
	c0.039-0.771,0.335-1.386,0.946-1.836c0.646-0.478,1.399-0.643,2.185-0.682c0.776-0.04,1.551-0.02,2.298,0.23
	c1.021,0.342,1.467,0.96,1.47,2.036c0.004,1.313-0.015,2.625,0.007,3.938c0.01,0.51,0.096,1.02,0.147,1.547
	C55.543,37.763,54.858,37.763,54.138,37.763z M53.294,34.344c0.198-0.047,0.389-0.124,0.646-0.208
	c-0.025,0.422-0.023,0.815-0.079,1.2c-0.089,0.619-0.438,1.058-1.066,1.172c-0.358,0.065-0.742,0.059-1.102,0.007
	c-0.431-0.06-0.662-0.342-0.721-0.741c-0.063-0.415,0.093-0.834,0.47-0.992c0.383-0.161,0.805-0.235,1.211-0.333
	C52.865,34.398,53.084,34.393,53.294,34.344z M31.841,33.961c0,0,0.067,0.679-0.219,1.453c-0.225,0.606-0.697,0.934-1.339,0.988
	c-0.637,0.055-1.152-0.185-1.521-0.714c-0.599-0.862-0.629-2.481-0.063-3.367c0.375-0.584,0.932-0.788,1.597-0.736
	c0.622,0.049,1.092,0.363,1.311,0.938C31.876,33.406,31.841,33.961,31.841,33.961z"/>
</svg>
