<?xml version="1.0" encoding="utf-8"?>
<!-- Generator: Adobe Illustrator 16.0.0, SVG Export Plug-In . SVG Version: 6.00 Build 0)  -->
<!DOCTYPE svg PUBLIC "-//W3C//DTD SVG 1.1//EN" "http://www.w3.org/Graphics/SVG/1.1/DTD/svg11.dtd">
<svg version="1.1" id="Layer_1" xmlns="http://www.w3.org/2000/svg" xmlns:xlink="http://www.w3.org/1999/xlink" x="0px" y="0px"
	 width="64px" height="64px" viewBox="0 0 64 64" enable-background="new 0 0 64 64" xml:space="preserve">
<g>
	<path d="M58.786,13.698H5.214c-0.804,0-1.454,0.651-1.454,1.454v33.695c0,0.803,0.65,1.454,1.454,1.454h53.572
		c0.804,0,1.454-0.651,1.454-1.454V15.152C60.24,14.349,59.59,13.698,58.786,13.698z M8.133,24.76h6.028
		c0.813,0.031,1.468,0.29,1.694,1.159l1.311,6.304c-1.288-3.297-4.392-6.041-9.083-7.177L8.133,24.76z M15.427,39.14l-3.482-11.897
		c2.503,1.602,4.635,4.144,5.386,5.913l0.406,1.469l3.808-9.729h4.12l-6.123,14.24L15.427,39.14z M28.693,39.151h-3.888
		l2.431-14.267h3.89L28.693,39.151z M35.459,39.364c-1.743-0.018-3.422-0.363-4.332-0.761l0.547-3.194l0.501,0.227
		c1.277,0.533,2.104,0.749,3.661,0.749c1.117,0,2.315-0.437,2.325-1.393c0.007-0.625-0.501-1.071-2.015-1.77
		c-1.475-0.682-3.429-1.826-3.406-3.876c0.022-2.773,2.729-4.708,6.572-4.708c1.507,0,2.714,0.31,3.484,0.599l-0.527,3.092
		l-0.35-0.165c-0.716-0.288-1.637-0.566-2.91-0.546c-1.522,0-2.228,0.634-2.228,1.227c-0.008,0.668,0.824,1.108,2.184,1.769
		c2.243,1.018,3.28,2.253,3.266,3.876C42.201,37.451,39.548,39.364,35.459,39.364z M52.308,39.156c0,0-0.355-1.639-0.472-2.138
		c-0.566,0-4.534-0.006-4.981-0.006c-0.151,0.385-0.817,2.144-0.817,2.144h-4.083l5.774-13.075c0.409-0.929,1.105-1.184,2.036-1.184
		h3.005l3.147,14.258H52.308z"/>
	<path d="M50.04,28.744c-0.198,0.537-0.539,1.4-0.517,1.362c0,0-1.228,3.167-1.549,3.988h3.229c-0.156-0.714-0.901-4.12-0.901-4.12
		L50.04,28.744z"/>
</g>
</svg>
