<?xml version="1.0" encoding="utf-8"?>
<!-- Generator: Adobe Illustrator 16.0.0, SVG Export Plug-In . SVG Version: 6.00 Build 0)  -->
<!DOCTYPE svg PUBLIC "-//W3C//DTD SVG 1.1//EN" "http://www.w3.org/Graphics/SVG/1.1/DTD/svg11.dtd">
<svg version="1.1" id="Layer_1" xmlns="http://www.w3.org/2000/svg" xmlns:xlink="http://www.w3.org/1999/xlink" x="0px" y="0px"
	 width="64px" height="64px" viewBox="0 0 64 64" enable-background="new 0 0 64 64" xml:space="preserve">
<path d="M58.786,13.698H5.214c-0.804,0-1.454,0.651-1.454,1.454v33.695c0,0.803,0.65,1.454,1.454,1.454h53.572
	c0.804,0,1.454-0.651,1.454-1.454V15.152C60.24,14.349,59.59,13.698,58.786,13.698z M55.944,30.013l-0.78,0.703l-0.703-0.781
	l0.78-0.703L55.944,30.013z M51.932,29.333l-1.055-1.172l1.172-1.055l1.054,1.172L51.932,29.333z M53.128,29.461l1.055,1.171
	l-1.171,1.055l-1.055-1.171L53.128,29.461z M50.979,29.073l-1.562,1.406l-1.406-1.562l1.563-1.406L50.979,29.073z M50.69,30.178
	l1.406,1.562l-1.562,1.406l-1.406-1.562L50.69,30.178z M51.801,32.877l1.406,1.562l-1.562,1.407l-1.406-1.562L51.801,32.877z
	 M52.958,32.992l1.172-1.055l1.055,1.171l-1.171,1.055L52.958,32.992z M54.947,27.692l-0.781,0.703l-0.703-0.781l0.781-0.703
	L54.947,27.692z M11.95,34.607h-0.81l-1.019-3.74h-0.053l-0.989,3.74h-0.81l-1.214-5.313h0.84l0.839,3.964h0.053l0.974-3.964h0.667
	l1.042,3.964h0.053l0.765-3.964h0.877L11.95,34.607z M16.598,32.876h-2.442c0,0.899,0.367,1.297,1.139,1.297
	c0.404,0,0.779-0.143,1.191-0.39v0.569c-0.337,0.195-0.787,0.345-1.326,0.345c-1.259,0-1.776-0.779-1.776-1.963
	c0-1.139,0.577-1.963,1.701-1.963c0.937,0,1.514,0.607,1.514,1.829V32.876z M18.741,34.697c-0.397,0-1.012-0.127-1.462-0.367v-5.231
	l0.779-0.187v2.136c0.226-0.12,0.607-0.277,1.013-0.277c0.929,0,1.431,0.645,1.431,1.844C20.502,34.016,19.828,34.697,18.741,34.697
	z M26.482,34.607h-0.809v-3.852h-0.067l-1.529,3.852h-0.479l-1.529-3.762h-0.067v3.762h-0.674v-5.313h0.906l1.679,4.189h0.038
	l1.604-4.189h0.929V34.607z M29.016,34.697c-1.026,0-1.709-0.682-1.709-1.963c0-1.312,0.72-1.963,1.709-1.963
	s1.709,0.652,1.709,1.963C30.725,34.016,30.043,34.697,29.016,34.697z M34.584,34.607h-0.779v-2.541
	c0-0.592-0.292-0.697-0.675-0.697c-0.3,0-0.682,0.135-0.914,0.27v2.968h-0.779v-3.283c0.337-0.202,1.049-0.554,1.91-0.554
	c0.9,0,1.237,0.352,1.237,1.124V34.607z M38.496,32.876h-2.443c0,0.899,0.367,1.297,1.14,1.297c0.404,0,0.779-0.143,1.191-0.39
	v0.569c-0.338,0.195-0.787,0.345-1.327,0.345c-1.259,0-1.775-0.779-1.775-1.963c0-1.139,0.577-1.963,1.701-1.963
	c0.937,0,1.514,0.607,1.514,1.829V32.876z M40.856,34.645c-0.375,1.034-0.832,1.574-1.693,1.574v-0.614
	c0.51,0,0.824-0.405,1.004-0.959l-1.438-3.748h0.824l0.959,2.758h0.045l0.854-2.758h0.802L40.856,34.645z M53.563,37.711
	c-0.956,0.545-2.062,0.857-3.238,0.857c-3.617,0-6.568-2.951-6.568-6.568s2.951-6.568,6.568-6.568c1.031,0,2.008,0.24,2.878,0.666
	c0.137,0.065,0.273,0.137,0.409,0.215l-0.604,0.541L52.1,25.915l-1.533,1.368l-0.91-0.994L46.8,28.863l1.831,2.019l-0.72,0.632
	l1.804,2.021l-0.716,0.632l2.578,2.869l1.529-1.408l1.322,1.509C54.166,37.34,53.88,37.533,53.563,37.711z M55.044,36.529
	l-1.055-1.171l1.171-1.055l1.055,1.171L55.044,36.529z M56.162,33.036l-0.703-0.781l0.781-0.703l0.703,0.781L56.162,33.036z
	 M19.716,32.614c0,1.214-0.42,1.559-0.975,1.559c-0.188,0-0.449-0.015-0.689-0.12v-2.451c0.3-0.165,0.518-0.247,0.816-0.247
	C19.37,31.355,19.716,31.662,19.716,32.614z M15.886,32.374H14.17c0.082-0.749,0.435-1.101,0.892-1.101
	C15.467,31.273,15.849,31.587,15.886,32.374z M37.784,32.374h-1.717c0.083-0.749,0.435-1.101,0.893-1.101
	C37.364,31.273,37.747,31.587,37.784,32.374z M29.938,32.734c0,1.027-0.39,1.439-0.922,1.439s-0.922-0.412-0.922-1.439
	c0-1.012,0.428-1.439,0.922-1.439C29.525,31.295,29.938,31.722,29.938,32.734z"/>
</svg>
