<?xml version="1.0" encoding="utf-8"?>
<!-- Generator: Adobe Illustrator 16.0.0, SVG Export Plug-In . SVG Version: 6.00 Build 0)  -->
<!DOCTYPE svg PUBLIC "-//W3C//DTD SVG 1.1//EN" "http://www.w3.org/Graphics/SVG/1.1/DTD/svg11.dtd">
<svg version="1.1" id="Layer_1" xmlns="http://www.w3.org/2000/svg" xmlns:xlink="http://www.w3.org/1999/xlink" x="0px" y="0px"
	 width="64px" height="64px" viewBox="0 0 64 64" enable-background="new 0 0 64 64" xml:space="preserve">
<path fill-rule="evenodd" clip-rule="evenodd" d="M58.786,13.698H5.214c-0.804,0-1.454,0.651-1.454,1.454v33.695
	c0,0.803,0.65,1.454,1.454,1.454h53.572c0.804,0,1.454-0.651,1.454-1.454V15.152C60.24,14.35,59.59,13.698,58.786,13.698z
	 M20.571,27.911c-0.407,1.855-0.812,3.709-1.216,5.563c-0.178,0.81-0.355,1.617-0.531,2.424c-0.006,0.033-0.005,0.066-0.009,0.098
	c-0.082,0.257-0.082,0.257-0.368,0.257c-0.678,0-1.354-0.005-2.031,0.002c-0.122,0-0.175-0.03-0.213-0.153
	c-0.478-1.601-0.963-3.198-1.446-4.8c-0.013-0.04-0.029-0.077-0.052-0.144c-0.238,0.813-0.47,1.599-0.7,2.387
	c-0.25,0.854-0.503,1.712-0.749,2.568c-0.031,0.106-0.076,0.142-0.189,0.142c-0.736-0.007-1.474-0.007-2.211,0
	c-0.124,0-0.164-0.04-0.188-0.155c-0.261-1.206-0.524-2.41-0.792-3.614c-0.111-0.498-0.256-0.989-0.349-1.49
	c-0.135-0.725-0.324-1.438-0.459-2.162c-0.059-0.312-0.142-0.621-0.216-0.931c-0.025-0.108-0.015-0.163,0.124-0.158
	c0.443,0.007,0.889,0.003,1.332,0.003c0.293,0,0.586,0.004,0.88-0.003c0.092,0,0.134,0.023,0.151,0.12
	c0.269,1.44,0.542,2.883,0.813,4.323c0.013,0.066,0.026,0.135,0.049,0.243c0.144-0.508,0.274-0.973,0.405-1.442
	c0.292-1.034,0.582-2.07,0.872-3.107c0.014-0.045,0.032-0.092,0.046-0.137c0.063-0.002,0.124-0.005,0.187-0.005
	c0.045,0,0.089,0,0.133,0c0.639,0.003,1.278,0.01,1.917,0.005c0.143-0.002,0.192,0.048,0.228,0.177
	c0.398,1.45,0.802,2.897,1.204,4.345c0.013,0.047,0.028,0.092,0.056,0.177c0.095-0.488,0.182-0.939,0.267-1.391
	c0.198-1.053,0.397-2.104,0.594-3.159c0.019-0.101,0.051-0.15,0.175-0.148c0.72,0.007,1.44,0.007,2.161,0
	C20.592,27.741,20.597,27.793,20.571,27.911z M30.067,32.776c-0.438-0.004-0.877-0.002-1.315-0.002
	c-1.447,0-2.894,0.002-4.341-0.002c-0.144,0-0.168,0.03-0.142,0.17c0.057,0.3,0.122,0.595,0.297,0.852
	c0.511,0.751,1.645,0.853,2.278,0.173c0.214-0.229,0.405-0.295,0.707-0.258c0.82,0.104,1.646,0.166,2.49,0.246
	c-0.218,0.41-0.473,0.77-0.776,1.093c-0.53,0.571-1.188,0.911-1.951,1.053c-0.982,0.185-1.969,0.198-2.957,0.038
	c-1.392-0.229-2.302-1.058-2.808-2.33c-0.469-1.174-0.467-2.38-0.017-3.556c0.476-1.244,1.397-2.028,2.691-2.342
	c1.088-0.265,2.188-0.234,3.263,0.07c1.394,0.393,2.206,1.36,2.549,2.746c0.155,0.63,0.179,1.274,0.178,1.919
	C30.214,32.765,30.164,32.776,30.067,32.776z M34.896,33.199c-0.149,0.005-0.34-0.066-0.437,0.035
	c-0.088,0.093-0.026,0.279-0.026,0.423c-0.002,0.836-0.003,1.669,0.003,2.503c0,0.127-0.034,0.163-0.163,0.163
	c-0.833-0.008-1.668-0.008-2.503,0c-0.132,0-0.17-0.033-0.17-0.171c0.005-1.449,0.003-2.901,0.003-4.353
	c0-0.064-0.005-0.13-0.008-0.194c0.002-0.597,0.005-1.192,0.007-1.787c0.001-0.666,0.002-1.331-0.002-1.997
	c-0.001-0.111,0.023-0.148,0.141-0.148c1.474,0.004,2.946,0,4.419,0.007c0.522,0.002,1.031,0.092,1.506,0.33
	c0.596,0.3,0.959,0.784,1.148,1.412c0.017,0.057,0.034,0.113,0.051,0.17c0.088,0.506,0.108,1.011,0.001,1.519
	c-0.229,1.078-0.959,1.771-2.076,1.992C36.161,33.228,35.527,33.189,34.896,33.199z M47.157,36.323
	c-0.882-0.008-1.765-0.005-2.647,0c-0.109,0-0.162-0.026-0.194-0.138c-0.103-0.368-0.223-0.734-0.324-1.103
	c-0.034-0.125-0.09-0.158-0.214-0.155c-0.813,0.005-1.624,0.005-2.438,0c-0.114-0.003-0.17,0.028-0.203,0.146
	c-0.103,0.38-0.223,0.758-0.329,1.138c-0.023,0.083-0.061,0.113-0.146,0.108c-0.141-0.005-0.281,0.005-0.423,0.007
	c-0.777,0-1.558,0-2.361,0c0.099-0.269,0.192-0.515,0.283-0.762c0.266-0.726,0.515-1.46,0.795-2.18
	c0.726-1.854,1.405-3.726,2.106-5.588c0.031-0.088,0.073-0.125,0.172-0.125c0.909,0.004,1.819,0.004,2.729,0
	c0.109,0,0.146,0.045,0.181,0.137c0.455,1.226,0.916,2.45,1.375,3.676c0.004,0.01,0.012,0.017,0.019,0.026
	c0.02,0.061,0.036,0.125,0.059,0.184c0.556,1.49,1.11,2.978,1.671,4.465C47.313,36.287,47.304,36.323,47.157,36.323z M54.546,28.603
	c-0.887,1.334-1.773,2.668-2.661,3.999c-0.056,0.083-0.072,0.163-0.072,0.26c0.002,1.101-0.001,2.198,0.004,3.299
	c0.001,0.127-0.031,0.163-0.16,0.163c-0.835-0.008-1.67-0.008-2.503,0c-0.142,0.002-0.167-0.045-0.165-0.175
	c0.004-1.082,0-2.165,0.004-3.249c0-0.127-0.032-0.229-0.103-0.333c-1.047-1.565-2.092-3.133-3.138-4.7
	c-0.034-0.052-0.069-0.106-0.121-0.189c0.575,0,1.115,0,1.656,0c0.455,0,0.91,0.003,1.365-0.002
	c0.102-0.002,0.154,0.033,0.203,0.118c0.475,0.808,0.954,1.61,1.433,2.415c0.032,0.057,0.065,0.111,0.1,0.168
	c0.07-0.033,0.085-0.095,0.113-0.142c0.483-0.811,0.967-1.617,1.445-2.43c0.057-0.097,0.117-0.13,0.228-0.13
	c0.986,0.005,1.971,0.002,2.984,0.002C54.945,27.998,54.746,28.301,54.546,28.603z M36.184,30.388
	c0.016,0.375-0.162,0.651-0.498,0.771c-0.384,0.138-0.781,0.09-1.175,0.097c-0.069,0-0.076-0.044-0.076-0.097
	c0-0.483,0.001-0.965-0.002-1.447c0-0.073,0.036-0.092,0.101-0.089c0.13,0.002,0.261,0,0.429,0c0.2-0.005,0.439,0,0.671,0.065
	C35.959,29.778,36.168,30.048,36.184,30.388z M43.297,32.748c0.031,0.098,0.016,0.135-0.097,0.133c-0.417-0.005-0.835-0.003-1.253,0
	c-0.085,0-0.134-0.01-0.102-0.116c0.235-0.765,0.466-1.532,0.699-2.297c0.005-0.015,0.017-0.028,0.035-0.059
	c0.14,0.458,0.275,0.903,0.411,1.348C43.093,32.088,43.193,32.418,43.297,32.748z M27.01,30.463c0.077,0.215,0.12,0.437,0.16,0.661
	c0.02,0.116-0.004,0.161-0.136,0.158c-0.439-0.01-0.877-0.002-1.315-0.002c-0.423,0-0.844,0-1.267,0c-0.197,0-0.2-0.003-0.17-0.203
	c0.058-0.385,0.175-0.741,0.439-1.046C25.293,29.372,26.638,29.412,27.01,30.463z"/>
</svg>
