<?xml version="1.0" encoding="utf-8"?>
<!-- Generator: Adobe Illustrator 16.0.0, SVG Export Plug-In . SVG Version: 6.00 Build 0)  -->
<!DOCTYPE svg PUBLIC "-//W3C//DTD SVG 1.1//EN" "http://www.w3.org/Graphics/SVG/1.1/DTD/svg11.dtd">
<svg version="1.1" id="Layer_1" xmlns="http://www.w3.org/2000/svg" xmlns:xlink="http://www.w3.org/1999/xlink" x="0px" y="0px"
	 width="64px" height="64px" viewBox="0 0 64 64" enable-background="new 0 0 64 64" xml:space="preserve">
<path fill-rule="evenodd" clip-rule="evenodd" d="M20.224,38.692c0.061,0.188,0.082,0.388,0.12,0.583
	c-0.009,0.002-0.019,0.004-0.028,0.006c0.001,0.23-0.014,0.458-0.109,0.671c-0.14,0.314-0.336,0.442-0.657,0.434
	c-0.319-0.008-0.527-0.17-0.626-0.464c-0.138-0.412-0.139-0.832,0.005-1.242c0.108-0.306,0.351-0.458,0.669-0.454
	C19.887,38.228,20.125,38.393,20.224,38.692z M35.792,38.322c-0.233-0.023-0.47-0.006-0.721-0.006c0,0.243-0.001,0.482,0.003,0.722
	c0,0.023,0.037,0.066,0.057,0.066c0.204,0.001,0.41,0.009,0.611-0.011c0.184-0.019,0.304-0.186,0.309-0.383
	C36.057,38.501,35.967,38.339,35.792,38.322z M38.113,39.649c0.276,0,0.542,0,0.816,0c-0.131-0.405-0.259-0.801-0.395-1.219
	C38.39,38.852,38.252,39.248,38.113,39.649z M53.054,38.309c-0.183-0.008-0.365-0.006-0.547-0.012
	c-0.062-0.002-0.083,0.021-0.082,0.08c0.002,0.107,0,0.215,0,0.322c0,0.107,0.001,0.214,0,0.322c0,0.055,0.016,0.089,0.079,0.088
	c0.189-0.004,0.38,0.001,0.568-0.012c0.199-0.015,0.336-0.2,0.329-0.42C53.393,38.449,53.272,38.317,53.054,38.309z M60.24,15.152
	v33.695c0,0.803-0.65,1.454-1.454,1.454H5.214c-0.804,0-1.454-0.651-1.454-1.454V15.152c0-0.803,0.65-1.454,1.454-1.454h53.572
	C59.59,13.698,60.24,14.349,60.24,15.152z M53.558,34.299c0.194,0,0.382,0,0.576,0c0-3.462,0-6.921,0-10.383
	c-0.196,0-0.387,0-0.576,0C53.558,27.381,53.558,30.837,53.558,34.299z M43.139,23.992c0.002,1.511,0.002,3.022,0.002,4.534
	c0,0.038,0.005,0.076,0.007,0.118c0.043,0.002,0.074,0.005,0.105,0.005c0.43,0,0.859-0.002,1.29,0.002
	c0.093,0.001,0.12-0.021,0.12-0.119c-0.004-0.895-0.002-1.791-0.002-2.686c0-0.033,0.005-0.064,0.007-0.097
	c0.052,0.079,0.082,0.158,0.11,0.238c0.295,0.85,0.592,1.7,0.883,2.551c0.03,0.088,0.073,0.112,0.163,0.111
	c0.68-0.004,1.36-0.002,2.041-0.002c0.028,0,0.055-0.004,0.083-0.006c0-1.593,0-3.18,0-4.767c-0.507,0-1.002,0-1.509,0
	c0,0.962,0,1.917,0,2.872c-0.009,0.001-0.019,0.003-0.028,0.004c-0.014-0.032-0.03-0.063-0.041-0.095
	c-0.313-0.897-0.627-1.793-0.937-2.691c-0.025-0.071-0.058-0.1-0.137-0.099c-0.677,0.004-1.354,0.004-2.031,0
	C43.166,23.865,43.138,23.895,43.139,23.992z M37.244,28.642c0.612,0,1.215,0,1.832,0c0-0.567,0-1.127,0-1.711
	c0.159,0.013,0.305,0.016,0.448,0.04c0.118,0.019,0.198,0.1,0.225,0.219c0.028,0.125,0.046,0.252,0.067,0.379
	c0.057,0.327,0.113,0.654,0.168,0.981c0.012,0.07,0.041,0.101,0.121,0.101c0.548-0.004,1.096-0.002,1.644-0.002
	c0.031,0,0.061-0.004,0.075-0.005c-0.06-0.369-0.121-0.731-0.178-1.093c-0.035-0.222-0.054-0.447-0.096-0.667
	c-0.063-0.332-0.271-0.534-0.598-0.615c-0.059-0.015-0.117-0.03-0.204-0.052c0.057-0.019,0.083-0.027,0.11-0.036
	c0.254-0.08,0.482-0.198,0.641-0.424c0.179-0.256,0.201-0.549,0.175-0.844c-0.038-0.432-0.249-0.743-0.669-0.899
	c-0.321-0.119-0.656-0.141-0.992-0.143c-0.885-0.005-1.77-0.002-2.654-0.002c-0.036,0-0.071,0-0.115,0
	C37.244,25.47,37.244,27.055,37.244,28.642z M32.192,28.642c0.024,0.002,0.038,0.006,0.051,0.006c1.179,0,2.357,0,3.535,0.001
	c0.071,0,0.092-0.022,0.091-0.093c-0.003-0.343-0.005-0.688,0.001-1.031c0.001-0.093-0.029-0.113-0.115-0.112
	c-0.552,0.003-1.104,0.002-1.654,0.001c-0.038,0-0.076-0.004-0.114-0.006c0-0.185,0-0.356,0-0.545c0.562,0,1.111,0,1.666,0
	c0-0.415,0-0.82,0-1.236c-0.558,0-1.107,0-1.664,0c0-0.177,0-0.343,0-0.525c0.609,0,1.21,0,1.81,0c0-0.419,0-0.822,0-1.229
	c-1.207,0-2.404,0-3.607,0C32.192,25.467,32.192,27.054,32.192,28.642z M35.308,29.605c-0.308,0.005-0.616,0.002-0.924,0.002
	c-0.275,0-0.551,0-0.84,0c-0.003,0.044-0.007,0.075-0.007,0.106c0,1.522,0,3.044-0.001,4.565c0,0.082,0.02,0.111,0.109,0.11
	c0.54-0.004,1.081-0.002,1.621-0.002c0.146,0,0.146,0,0.146-0.146c0-1.378,0-2.757,0-4.136c0-0.132-0.004-0.265,0.001-0.397
	C35.415,29.629,35.389,29.604,35.308,29.605z M26.692,25.151c0.394,0,0.779,0,1.179,0c0,1.171,0,2.332,0,3.493
	c0.631,0,1.246,0,1.881,0c0-1.17,0-2.329,0-3.497c0.396,0,0.782,0,1.169,0c0-0.43,0-0.85,0-1.271c-1.414,0-2.82,0-4.229,0
	C26.692,24.302,26.692,24.722,26.692,25.151z M21.135,27.246c0,0.025,0,0.05,0.002,0.075c0.054,0.634,0.393,1.047,0.983,1.266
	c0.371,0.137,0.757,0.178,1.148,0.184c0.438,0.006,0.872-0.03,1.29-0.177c0.551-0.194,0.94-0.539,1.052-1.137
	c0.146-0.786-0.167-1.349-0.916-1.624c-0.318-0.117-0.649-0.197-0.974-0.294c-0.208-0.062-0.419-0.118-0.624-0.189
	c-0.108-0.038-0.16-0.132-0.154-0.248c0.006-0.121,0.073-0.21,0.186-0.236c0.127-0.028,0.262-0.044,0.39-0.033
	c0.16,0.015,0.261,0.12,0.276,0.27c0.011,0.1,0.057,0.111,0.14,0.11c0.48-0.003,0.96-0.001,1.439-0.001
	c0.035,0,0.07-0.004,0.1-0.006c0.007-0.016,0.012-0.022,0.013-0.028c0.002-0.011,0.002-0.021,0.002-0.032
	c-0.012-0.489-0.216-0.868-0.649-1.11c-0.298-0.167-0.625-0.239-0.963-0.266c-0.534-0.042-1.066-0.037-1.582,0.135
	c-0.584,0.196-0.991,0.556-1.062,1.201c-0.072,0.645,0.14,1.145,0.77,1.386c0.353,0.135,0.722,0.225,1.083,0.336
	c0.191,0.059,0.385,0.111,0.572,0.18c0.162,0.06,0.242,0.193,0.221,0.329c-0.029,0.195-0.185,0.337-0.388,0.354
	c-0.284,0.022-0.45-0.063-0.517-0.275c-0.024-0.074-0.036-0.151-0.055-0.232c-0.589,0-1.178,0-1.779,0
	C21.139,27.211,21.136,27.229,21.135,27.246z M16.282,24.009c0,1.494,0,2.987,0.001,4.481c0,0.05,0.004,0.099,0.007,0.152
	c1.235,0,2.451,0,3.669,0c0-0.413,0-0.818,0-1.23c-0.627,0-1.242,0-1.864,0c0-0.184,0-0.361,0-0.549c0.562,0,1.116,0,1.67,0
	c0-0.416,0-0.819,0-1.234c-0.559,0-1.112,0-1.672,0c0-0.178,0-0.344,0-0.525c0.607,0,1.207,0,1.811,0
	c0.002-0.045,0.006-0.076,0.006-0.108c0-0.337-0.002-0.674,0.002-1.011c0.001-0.096-0.034-0.118-0.126-0.118
	c-1.121,0.003-2.243,0.002-3.364,0.002C16.282,23.868,16.282,23.869,16.282,24.009z M14.176,28.431
	c0.167-0.764,0.333-1.528,0.499-2.292c0.13-0.601,0.259-1.201,0.388-1.801c0.032-0.152,0.062-0.306,0.094-0.464
	c-0.565,0-1.116,0-1.677,0c-0.135,1-0.269,1.996-0.403,2.992c-0.011-0.001-0.022-0.002-0.034-0.002
	c-0.043-0.307-0.085-0.614-0.131-0.922c-0.097-0.653-0.199-1.306-0.292-1.961c-0.013-0.093-0.042-0.116-0.131-0.115
	c-0.573,0.004-1.146,0.002-1.72,0.002c-0.038,0-0.077,0.004-0.115,0.006c-0.148,1.004-0.295,1.999-0.442,2.993
	c-0.011,0-0.021,0-0.032,0c-0.134-0.998-0.269-1.996-0.404-2.996c-0.562,0-1.109,0-1.668,0c0.002,0.041,0,0.069,0.007,0.097
	c0.192,0.882,0.385,1.765,0.576,2.648c0.137,0.635,0.274,1.271,0.407,1.907c0.019,0.089,0.049,0.128,0.152,0.126
	c0.523-0.006,1.046-0.003,1.568-0.003c0.114,0,0.229,0,0.351,0c0.148-1.031,0.295-2.055,0.442-3.079c0.012,0,0.023,0,0.035,0
	c0.147,1.025,0.294,2.05,0.442,3.079c0.055,0,0.094,0,0.132,0c0.563,0,1.125,0,1.688,0C14.127,28.648,14.128,28.649,14.176,28.431z
	 M17.56,37.914c0.001-0.078-0.025-0.106-0.106-0.105c-0.254,0.004-0.509,0.01-0.763-0.002c-0.126-0.006-0.171,0.045-0.206,0.156
	c-0.199,0.652-0.405,1.303-0.615,1.974c-0.014-0.032-0.02-0.041-0.022-0.051c-0.19-0.658-0.382-1.316-0.57-1.976
	c-0.021-0.074-0.053-0.105-0.134-0.102c-0.15,0.006-0.301,0.001-0.451,0.001c-0.16,0-0.32,0-0.483,0c0,1,0,1.987,0,2.986
	c0.162,0,0.315-0.005,0.468,0.002c0.102,0.005,0.136-0.026,0.134-0.132c-0.004-0.734-0.001-1.469-0.001-2.204
	c0-0.029,0-0.059,0-0.089c0.126,0.346,0.235,0.692,0.342,1.04c0.134,0.43,0.268,0.859,0.399,1.29
	c0.021,0.069,0.057,0.099,0.13,0.096c0.122-0.006,0.244,0.001,0.365-0.006c0.032-0.002,0.079-0.036,0.089-0.065
	c0.192-0.595,0.38-1.19,0.568-1.787c0.064-0.204,0.13-0.407,0.195-0.61c0.006,0.001,0.013,0.002,0.019,0.004
	c0,0.816,0,1.631,0,2.461c0.186,0,0.364-0.003,0.542,0.001c0.076,0.002,0.101-0.026,0.1-0.1
	C17.559,39.769,17.558,38.841,17.56,37.914z M20.865,38.559c-0.125-0.322-0.34-0.568-0.673-0.695
	c-0.316-0.12-0.639-0.142-0.969-0.076c-0.368,0.073-0.652,0.265-0.84,0.59c-0.154,0.266-0.222,0.556-0.251,0.864
	c0.027,0.212,0.037,0.427,0.083,0.635c0.086,0.387,0.307,0.679,0.676,0.848c0.34,0.155,0.696,0.184,1.058,0.102
	c0.386-0.088,0.691-0.295,0.859-0.664C21.045,39.638,21.074,39.099,20.865,38.559z M24.251,39.93c0-0.667-0.001-1.333,0.002-1.999
	c0-0.095-0.029-0.127-0.123-0.123c-0.121,0.007-0.243,0.008-0.365,0c-0.099-0.005-0.128,0.028-0.127,0.128
	c0.004,0.667,0.002,1.333,0.002,2c0,0.047,0,0.094,0,0.142c-0.023-0.016-0.032-0.031-0.039-0.048
	c-0.336-0.707-0.673-1.414-1.007-2.122c-0.035-0.072-0.074-0.101-0.154-0.099c-0.189,0.006-0.379,0.002-0.569,0.001
	c-0.081,0-0.162,0-0.247,0c0,1.003,0,1.987,0,2.987c0.152,0,0.298,0,0.444,0c0.165,0,0.165-0.001,0.165-0.16
	c0-0.742,0-1.483,0-2.254c0.026,0.046,0.038,0.067,0.049,0.089c0.347,0.746,0.695,1.49,1.04,2.237
	c0.031,0.066,0.066,0.09,0.137,0.09c0.229-0.004,0.459-0.004,0.688,0c0.077,0.001,0.107-0.022,0.105-0.104
	C24.249,40.438,24.251,40.184,24.251,39.93z M24.316,34.395c0.822-0.19,1.283-0.764,1.284-1.604
	c0.002-1.018,0.001-2.035,0.001-3.052c0-0.042,0-0.083,0-0.125c-0.635,0-1.252,0-1.882,0c0,0.091,0,0.176,0,0.261
	c0,0.931,0.001,1.863-0.003,2.794c0,0.112-0.016,0.229-0.049,0.336c-0.045,0.14-0.153,0.224-0.305,0.231
	c-0.157,0.008-0.285-0.056-0.342-0.206c-0.039-0.097-0.064-0.207-0.064-0.311c-0.005-0.992-0.004-1.984-0.004-2.976
	c0-0.042,0-0.084,0-0.131c-0.629,0-1.248,0-1.873,0c-0.002,0.027-0.006,0.041-0.006,0.054c0,1.086-0.005,2.171,0.007,3.256
	c0.002,0.188,0.053,0.384,0.123,0.561c0.187,0.479,0.573,0.742,1.046,0.877C22.932,34.56,23.624,34.555,24.316,34.395z
	 M27.014,40.385c0.004-0.082-0.021-0.104-0.103-0.104c-0.383,0.004-0.766,0.002-1.15,0.002c-0.042,0-0.083-0.003-0.136-0.006
	c0-0.228,0.003-0.445-0.001-0.663c-0.002-0.084,0.025-0.111,0.109-0.111c0.33,0.004,0.659,0.002,0.989,0.002
	c0.049,0,0.098-0.005,0.152-0.008c0-0.167,0-0.323,0-0.489C26.824,39.005,26.778,39,26.733,39c-0.333-0.001-0.667,0.001-1-0.002
	c-0.036-0.001-0.102-0.034-0.102-0.054c-0.008-0.206-0.005-0.413-0.005-0.636c0.456,0,0.891,0,1.34,0
	c0-0.126-0.008-0.243,0.002-0.36c0.009-0.108-0.027-0.141-0.136-0.139c-0.577,0.005-1.153,0.005-1.73,0
	c-0.102,0-0.133,0.026-0.132,0.13c0.003,0.906,0.001,1.813,0.001,2.719c0,0.042,0,0.083,0,0.131c0.686,0,1.357,0,2.04,0
	C27.012,40.648,27.007,40.517,27.014,40.385z M27.142,34.381c0.506,0,1.003,0,1.518,0c0-0.968,0-1.932,0-2.895
	c0.01-0.001,0.02-0.002,0.029-0.004c0.018,0.045,0.037,0.088,0.053,0.133c0.311,0.89,0.621,1.78,0.928,2.672
	c0.027,0.077,0.063,0.102,0.144,0.102c0.681-0.003,1.361-0.002,2.042-0.002c0.031,0,0.063-0.004,0.099-0.006c0-1.594,0-3.18,0-4.768
	c-0.506,0-1.002,0-1.509,0c0,0.961,0,1.916,0,2.871c-0.01,0.001-0.02,0.003-0.031,0.005c-0.011-0.024-0.023-0.047-0.031-0.073
	c-0.317-0.903-0.635-1.806-0.948-2.71c-0.027-0.079-0.064-0.101-0.144-0.1c-0.676,0.003-1.354,0.003-2.031-0.001
	c-0.098,0-0.125,0.025-0.125,0.125c0.003,1.511,0.001,3.023,0.001,4.534C27.137,34.302,27.14,34.341,27.142,34.381z M30.037,37.83
	c-0.208,0-0.392,0.003-0.577-0.001c-0.068-0.002-0.1,0.021-0.127,0.083c-0.108,0.241-0.221,0.48-0.333,0.72
	c-0.081,0.172-0.16,0.344-0.246,0.529c-0.016-0.037-0.025-0.056-0.034-0.075c-0.178-0.394-0.355-0.789-0.536-1.181
	c-0.015-0.031-0.057-0.07-0.086-0.072c-0.225-0.005-0.451-0.003-0.697-0.003c0.022,0.046,0.034,0.075,0.048,0.103
	c0.297,0.555,0.596,1.108,0.89,1.665c0.034,0.063,0.052,0.14,0.054,0.212c0.006,0.293,0.004,0.587,0,0.881
	c-0.001,0.078,0.021,0.109,0.103,0.106c0.143-0.006,0.287-0.006,0.43,0c0.088,0.004,0.118-0.026,0.117-0.115
	c-0.004-0.297-0.003-0.595,0-0.892c0-0.051,0.011-0.108,0.035-0.152c0.234-0.447,0.473-0.892,0.709-1.336
	C29.868,38.152,29.947,38,30.037,37.83z M33.985,37.81c-0.181,0-0.353,0-0.523,0c-0.588,0-1.175,0.002-1.763-0.001
	c-0.092,0-0.131,0.024-0.123,0.122c0.008,0.097,0.006,0.194,0.001,0.291c-0.004,0.08,0.024,0.106,0.104,0.104
	c0.218-0.004,0.437,0.002,0.655-0.003c0.092-0.003,0.122,0.023,0.122,0.12c-0.004,0.724-0.002,1.448-0.002,2.171
	c0,0.04-0.005,0.081,0.004,0.117c0.006,0.025,0.035,0.061,0.054,0.062c0.196,0.004,0.392,0.003,0.598,0.003c0-0.059,0-0.101,0-0.143
	c0-0.703-0.001-1.404,0.001-2.107c0.001-0.247-0.044-0.219,0.222-0.221c0.215-0.002,0.428-0.001,0.648-0.001
	C33.985,38.15,33.985,37.99,33.985,37.81z M36.811,40.786c-0.026-0.082-0.057-0.15-0.07-0.223c-0.038-0.221-0.073-0.444-0.104-0.667
	c-0.04-0.28-0.112-0.534-0.476-0.58c0.061-0.025,0.096-0.039,0.131-0.054c0.287-0.125,0.456-0.372,0.444-0.672
	c-0.013-0.32-0.152-0.574-0.459-0.688c-0.166-0.062-0.355-0.083-0.535-0.089c-0.397-0.013-0.795-0.001-1.192-0.006
	c-0.096,0-0.121,0.03-0.121,0.123c0.004,0.913,0.002,1.827,0.002,2.741c0.001,0.037,0.004,0.075,0.007,0.115
	c0.224,0,0.436,0,0.659,0c0-0.399,0-0.788,0-1.185c0.229,0,0.447-0.007,0.665,0.003c0.097,0.005,0.172,0.071,0.197,0.172
	c0.02,0.08,0.033,0.161,0.044,0.242c0.038,0.254,0.073,0.509,0.11,0.768C36.35,40.786,36.579,40.786,36.811,40.786z M36.913,32.843
	c0.139,0.531,0.413,0.97,0.881,1.275c0.451,0.294,0.955,0.386,1.483,0.402c0.209-0.022,0.422-0.031,0.627-0.07
	c0.78-0.148,1.356-0.569,1.639-1.324c0.267-0.709,0.269-1.435,0.038-2.156c-0.182-0.565-0.542-0.984-1.082-1.24
	c-0.365-0.173-0.754-0.237-1.155-0.244c-0.539-0.009-1.058,0.072-1.52,0.368c-0.644,0.409-0.917,1.035-0.996,1.765
	C36.784,32.031,36.807,32.441,36.913,32.843z M39.958,40.797c-0.013-0.049-0.019-0.073-0.026-0.096
	c-0.104-0.304-0.208-0.608-0.314-0.912c-0.217-0.628-0.435-1.255-0.65-1.884c-0.025-0.073-0.063-0.099-0.14-0.097
	c-0.176,0.006-0.351,0.009-0.527-0.001c-0.107-0.006-0.148,0.039-0.181,0.132c-0.25,0.704-0.503,1.406-0.757,2.109
	c-0.086,0.241-0.172,0.482-0.267,0.746c0.191,0,0.359-0.004,0.527,0.002c0.075,0.002,0.107-0.028,0.128-0.096
	c0.047-0.15,0.104-0.297,0.15-0.447c0.023-0.071,0.058-0.101,0.138-0.099c0.254,0.006,0.509,0.002,0.763,0.002
	c0.3,0,0.298,0.001,0.393,0.29c0.037,0.115,0.055,0.266,0.136,0.327c0.078,0.058,0.227,0.02,0.345,0.022
	C39.767,40.798,39.857,40.797,39.958,40.797z M43.125,37.905c0-0.068-0.023-0.097-0.093-0.095c-0.131,0.002-0.265,0.005-0.397-0.001
	c-0.093-0.004-0.124,0.022-0.123,0.119c0.003,0.691,0.002,1.383,0.002,2.074c0,0.025-0.003,0.049-0.005,0.094
	c-0.021-0.039-0.032-0.057-0.042-0.076c-0.333-0.704-0.669-1.407-1-2.112c-0.033-0.071-0.072-0.102-0.153-0.099
	c-0.233,0.005-0.466,0.006-0.698,0c-0.101-0.003-0.125,0.031-0.125,0.129c0.004,0.913,0.002,1.825,0.002,2.739
	c0,0.035,0,0.07,0,0.121c0.166,0,0.319,0,0.472,0c0.142-0.001,0.142-0.001,0.142-0.14c0-0.749,0-1.496,0-2.244
	c0.006-0.001,0.012-0.002,0.018-0.003c0.086,0.184,0.172,0.368,0.258,0.553c0.272,0.583,0.542,1.167,0.817,1.749
	c0.019,0.038,0.076,0.08,0.116,0.081c0.239,0.008,0.479,0.003,0.72,0.005c0.062,0,0.089-0.021,0.089-0.088
	C43.124,39.775,43.124,38.84,43.125,37.905z M43.258,34.389c0.426-0.004,0.852-0.004,1.279,0c0.098,0.001,0.127-0.023,0.126-0.124
	c-0.004-0.874-0.002-1.748-0.002-2.622c0-0.051,0-0.103,0-0.154c0.04,0.031,0.058,0.065,0.07,0.099
	c0.313,0.901,0.627,1.802,0.937,2.704c0.025,0.073,0.058,0.098,0.136,0.098c0.681-0.003,1.361-0.002,2.042-0.002
	c0.032,0,0.063,0,0.105,0c0-1.601,0-3.186,0-4.771c-0.507,0-1.006,0-1.517,0c0,0.962,0,1.915,0,2.868
	c-0.033-0.024-0.047-0.052-0.058-0.081c-0.315-0.9-0.631-1.8-0.944-2.701c-0.023-0.066-0.05-0.097-0.126-0.096
	c-0.688,0.003-1.375,0.003-2.063,0.001c-0.083-0.001-0.103,0.028-0.103,0.106c0.002,1.522,0.002,3.044,0,4.566
	C43.139,34.372,43.172,34.39,43.258,34.389z M45.855,39.351c-0.136-0.103-0.306-0.167-0.47-0.224
	c-0.212-0.073-0.435-0.115-0.65-0.179c-0.272-0.081-0.372-0.341-0.214-0.548c0.157-0.208,0.566-0.243,0.74-0.049
	c0.076,0.084,0.113,0.206,0.174,0.322c0.177,0,0.376,0,0.582,0c0.041-0.372-0.203-0.718-0.582-0.838
	c-0.297-0.093-0.6-0.09-0.9-0.024c-0.181,0.04-0.342,0.119-0.485,0.241c-0.326,0.278-0.449,1.007,0.145,1.305
	c0.124,0.062,0.254,0.115,0.386,0.157c0.204,0.065,0.415,0.108,0.618,0.177c0.265,0.09,0.315,0.401,0.095,0.575
	c-0.067,0.053-0.157,0.089-0.241,0.106c-0.342,0.067-0.706-0.023-0.705-0.48c0-0.021-0.049-0.057-0.077-0.058
	c-0.121-0.007-0.243-0.003-0.365-0.003c-0.222,0-0.226,0-0.206,0.219c0.03,0.34,0.198,0.587,0.52,0.711
	c0.347,0.134,0.705,0.134,1.065,0.053c0.267-0.061,0.495-0.184,0.66-0.407C46.194,40.066,46.164,39.584,45.855,39.351z
	 M48.631,37.824c-0.038-0.003-0.066-0.008-0.095-0.008c-0.572,0-1.146,0.001-1.718-0.001c-0.096,0-0.108,0.044-0.108,0.125
	c0.002,0.906,0.002,1.812,0.002,2.717c0,0.026-0.007,0.054,0.002,0.075c0.011,0.024,0.037,0.059,0.057,0.059
	c0.192,0.005,0.385,0.003,0.595,0.003c0-0.43,0-0.839,0-1.26c0.396,0,0.783,0,1.189,0c0-0.13,0-0.25,0-0.371
	c0-0.141,0-0.141-0.141-0.141c-0.315,0-0.63,0.002-0.945-0.002c-0.036,0-0.101-0.033-0.102-0.053
	c-0.007-0.216-0.004-0.433-0.004-0.662c0.433,0,0.849,0,1.268,0C48.631,38.137,48.631,37.982,48.631,37.824z M49.065,34.299
	c0.194,0,0.382,0,0.577,0c0-3.462,0-6.921,0-10.383c-0.197,0-0.388,0-0.577,0C49.065,27.381,49.065,30.837,49.065,34.299z
	 M51.206,40.283c-0.046,0-0.084,0-0.124,0c-0.383,0-0.766-0.003-1.149,0.001c-0.088,0.001-0.11-0.029-0.108-0.11
	c0.005-0.167,0.001-0.336,0.002-0.504c0-0.166,0-0.165,0.16-0.165c0.312,0,0.623,0,0.934,0c0.05-0.001,0.099-0.004,0.161-0.008
	c0-0.125,0-0.242,0-0.359c0-0.138,0-0.139-0.142-0.139c-0.333-0.001-0.666,0.001-0.999-0.003c-0.037,0-0.106-0.031-0.106-0.049
	c-0.007-0.21-0.005-0.419-0.005-0.641c0.455,0,0.893,0,1.338,0c0-0.13-0.007-0.249,0.002-0.366c0.008-0.104-0.029-0.133-0.132-0.132
	c-0.576,0.004-1.153,0.001-1.729,0.002c-0.041,0-0.083,0.004-0.128,0.006c0,0.996,0,1.98,0,2.972c0.677,0,1.348,0,2.024,0
	C51.206,40.618,51.206,40.456,51.206,40.283z M54.137,40.793c-0.041-0.225-0.081-0.438-0.118-0.651
	c-0.022-0.126-0.037-0.254-0.059-0.38c-0.042-0.241-0.168-0.408-0.447-0.445c0.055-0.023,0.086-0.038,0.117-0.051
	c0.357-0.154,0.457-0.413,0.453-0.688c-0.004-0.338-0.212-0.614-0.531-0.701c-0.156-0.042-0.324-0.061-0.487-0.064
	c-0.383-0.009-0.766-0.003-1.149-0.002c-0.042,0-0.083,0.004-0.13,0.007c0,0.995,0,1.978,0,2.97c0.217,0,0.429,0,0.654,0
	c0-0.397,0-0.786,0-1.188c0.194,0,0.375,0,0.557,0c0.225,0,0.3,0.066,0.333,0.289c0.04,0.275,0.081,0.55,0.125,0.826
	c0.004,0.029,0.033,0.076,0.051,0.077C53.723,40.796,53.939,40.793,54.137,40.793z M55.917,24.46
	c-0.002-0.358-0.271-0.625-0.627-0.621c-0.342,0.004-0.624,0.287-0.621,0.625c0.003,0.34,0.293,0.621,0.64,0.618
	C55.648,25.079,55.919,24.802,55.917,24.46z M55.833,24.469c0,0.314-0.229,0.549-0.536,0.551c-0.298,0.002-0.542-0.251-0.542-0.564
	c0-0.31,0.246-0.557,0.55-0.554C55.611,23.905,55.834,24.145,55.833,24.469z M55.604,24.254c-0.019-0.052-0.083-0.117-0.134-0.125
	c-0.125-0.018-0.254-0.005-0.378-0.005c0,0.233,0,0.456,0,0.679c0.012,0,0.025,0.001,0.04,0.001c0-0.105,0-0.209,0-0.307
	c0.125-0.039,0.202-0.019,0.25,0.087c0.028,0.061,0.066,0.119,0.107,0.172c0.018,0.024,0.052,0.037,0.079,0.055
	c0.006-0.007,0.013-0.015,0.019-0.022c-0.062-0.098-0.124-0.196-0.188-0.298c0.047-0.013,0.083-0.019,0.115-0.034
	C55.601,24.417,55.635,24.335,55.604,24.254z M39.228,33.277c0.243,0.021,0.411-0.088,0.468-0.359
	c0.064-0.303,0.088-0.614,0.128-0.921c-0.011-0.001-0.022-0.002-0.034-0.003c0-0.108,0.006-0.216-0.001-0.323
	c-0.018-0.246-0.031-0.493-0.138-0.722c-0.08-0.169-0.215-0.241-0.397-0.234c-0.177,0.006-0.3,0.093-0.361,0.255
	c-0.042,0.113-0.085,0.232-0.09,0.351c-0.018,0.396-0.035,0.793-0.02,1.189c0.008,0.19,0.079,0.382,0.141,0.566
	C38.968,33.209,39.09,33.266,39.228,33.277z M39.637,25.794c0.168-0.083,0.24-0.225,0.243-0.409c0.001-0.166-0.046-0.305-0.21-0.376
	c-0.189-0.081-0.388-0.067-0.59-0.06c0,0.309,0,0.604,0,0.911C39.278,25.874,39.463,25.88,39.637,25.794z M55.164,24.168
	c-0.007,0-0.017,0.021-0.021,0.033c-0.05,0.148,0.003,0.224,0.188,0.224c0.016-0.001,0.066,0.007,0.106-0.01
	c0.037-0.016,0.08-0.054,0.089-0.091c0.009-0.037-0.012-0.117-0.032-0.121C55.386,24.182,55.275,24.177,55.164,24.168z"/>
</svg>
