<?xml version="1.0" encoding="utf-8"?>
<!-- Generator: Adobe Illustrator 16.0.0, SVG Export Plug-In . SVG Version: 6.00 Build 0)  -->
<!DOCTYPE svg PUBLIC "-//W3C//DTD SVG 1.1//EN" "http://www.w3.org/Graphics/SVG/1.1/DTD/svg11.dtd">
<svg version="1.1" id="Layer_1" xmlns="http://www.w3.org/2000/svg" xmlns:xlink="http://www.w3.org/1999/xlink" x="0px" y="0px"
	 width="64px" height="64px" viewBox="0 0 64 64" enable-background="new 0 0 64 64" xml:space="preserve">
<path d="M46.617,44.649c0,0.406-0.217,0.561-0.664,0.561h-1.004v-1.098h1.066C46.52,44.112,46.617,44.432,46.617,44.649z
	 M35.877,35.125h-2.244v2.306h2.111c0.938,0,1.395-0.324,1.395-1.177C37.139,35.798,36.936,35.125,35.877,35.125z M60.24,15.152
	v33.695c0,0.803-0.65,1.454-1.454,1.454H5.214c-0.804,0-1.454-0.651-1.454-1.454V15.152c0-0.803,0.65-1.454,1.454-1.454h53.572
	C59.59,13.698,60.24,14.349,60.24,15.152z M40.541,42.261h6.547v-1.526h-4.779V38.5h4.203v-1.525h-4.203v-1.813h4.576v-1.526h-6.344
	V42.261z M36.677,24.972c-0.113,0.146-0.258,0.273-0.386,0.411c-0.243,0.284-0.547,0.518-0.848,0.748
	c-0.284,0.242-0.64,0.409-0.942,0.609c-0.346,0.151-0.651,0.337-0.993,0.449c-0.327,0.13-0.648,0.241-0.965,0.322
	c-0.306,0.1-0.613,0.148-0.884,0.214c-0.173,0.031-0.333,0.057-0.486,0.08c0.015-0.047,0.034-0.091,0.05-0.138
	c0.145-0.438,0.254-0.896,0.326-1.377c0.03-0.244,0.055-0.491,0.072-0.743c0.014-0.255,0.009-0.52-0.017-0.796
	c-0.257,0.107-0.492,0.228-0.713,0.357c-0.214,0.133-0.42,0.271-0.621,0.414c-0.392,0.289-0.745,0.6-1.064,0.932
	c-0.645,0.661-1.171,1.394-1.609,2.179l-0.056,0.097c-0.27,0.488-0.217,1.113,0.177,1.551c0.52,0.577,1.09,1.114,1.752,1.573
	c0.329,0.231,0.681,0.445,1.064,0.633c0.383,0.186,0.778,0.364,1.248,0.479c-0.024-0.482-0.122-0.905-0.23-1.317
	c-0.106-0.401-0.244-0.776-0.403-1.136c0.351-0.114,0.775-0.272,1.254-0.475c0.309-0.148,0.648-0.286,0.987-0.483
	c0.346-0.178,0.697-0.393,1.05-0.631c0.361-0.217,0.694-0.522,1.046-0.787c0.318-0.319,0.668-0.601,0.949-0.961
	c0.291-0.347,0.574-0.693,0.789-1.083c0.111-0.19,0.237-0.367,0.328-0.562c0.085-0.197,0.168-0.391,0.249-0.583
	c0.184-0.37,0.261-0.765,0.354-1.125c0.109-0.356,0.143-0.705,0.165-1.025c0.02-0.32,0.077-0.605,0.054-0.863
	c-0.016-0.255-0.029-0.479-0.04-0.662c-0.021-0.362-0.034-0.569-0.034-0.569s-0.032,0.205-0.09,0.564
	c-0.027,0.177-0.062,0.392-0.1,0.639c-0.031,0.246-0.15,0.509-0.23,0.799c-0.084,0.29-0.185,0.598-0.355,0.898
	c-0.155,0.304-0.293,0.63-0.528,0.917C36.891,24.67,36.784,24.82,36.677,24.972z M25.304,26.444c0.008,0.256,0.015,0.479,0.02,0.663
	c0.012,0.363,0.019,0.57,0.019,0.57s0.038-0.204,0.105-0.562c0.033-0.176,0.074-0.39,0.12-0.635
	c0.038-0.245,0.164-0.505,0.253-0.792c0.094-0.288,0.202-0.593,0.383-0.887c0.164-0.3,0.312-0.622,0.555-0.902
	c0.109-0.144,0.22-0.291,0.332-0.438c0.117-0.144,0.267-0.266,0.396-0.4c0.253-0.277,0.563-0.501,0.87-0.723
	c0.293-0.233,0.651-0.39,0.96-0.581c0.351-0.141,0.661-0.318,1.007-0.419c0.331-0.12,0.655-0.221,0.974-0.293
	c0.309-0.09,0.618-0.13,0.891-0.188c0.174-0.026,0.334-0.047,0.488-0.065c-0.018,0.046-0.037,0.09-0.054,0.136
	c-0.158,0.434-0.28,0.889-0.367,1.367c-0.038,0.243-0.07,0.489-0.096,0.741c-0.02,0.254-0.023,0.519-0.006,0.797
	c0.26-0.1,0.498-0.213,0.723-0.336c0.218-0.127,0.429-0.259,0.634-0.394c0.399-0.277,0.763-0.578,1.092-0.901
	c0.663-0.642,1.212-1.358,1.674-2.13l0.058-0.096c0.284-0.479,0.251-1.106-0.13-1.555c-0.503-0.592-1.056-1.146-1.705-1.625
	c-0.322-0.242-0.667-0.465-1.044-0.665c-0.378-0.197-0.769-0.387-1.234-0.517c0.01,0.483,0.095,0.908,0.191,1.324
	c0.095,0.404,0.222,0.783,0.37,1.147c-0.354,0.104-0.784,0.25-1.268,0.438c-0.313,0.139-0.657,0.267-1.002,0.453
	c-0.352,0.167-0.708,0.372-1.068,0.6c-0.367,0.207-0.709,0.501-1.068,0.755c-0.327,0.31-0.687,0.58-0.978,0.933
	c-0.301,0.338-0.595,0.675-0.821,1.059c-0.116,0.187-0.248,0.36-0.345,0.551c-0.091,0.194-0.179,0.387-0.266,0.575
	c-0.195,0.365-0.284,0.757-0.387,1.114c-0.12,0.353-0.164,0.7-0.196,1.02C25.354,25.902,25.288,26.185,25.304,26.444z
	 M20.186,43.403h-3.338v0.727h1.24v3.377h0.855v-3.377h1.242V43.403z M20.578,42.261c0.926-4.445,1.068-5.069,1.334-6.727h0.023
	c0.287,1.658,0.445,2.499,1.334,6.727h1.729l2.428-8.625H25.6c-1.119,4.745-1.262,5.49-1.406,6.307H24.17
	c-0.191-1.117-0.277-1.573-1.285-6.307h-1.91c-0.914,4.529-1.045,5.406-1.201,6.307H19.75c-0.156-0.985-0.266-1.585-1.371-6.307
	h-1.92l2.438,8.625H20.578z M24.133,47.398c-0.182-0.068-0.182-0.217-0.182-0.817c0-0.766-0.184-0.892-0.521-1.04
	c0.406-0.137,0.635-0.526,0.635-0.978c0-0.354-0.199-1.161-1.291-1.161h-2.076v4.104h0.842v-1.606h0.885
	c0.635,0,0.67,0.218,0.67,0.777c0,0.423,0.033,0.635,0.09,0.829h0.949V47.398z M28.293,47.507l-1.445-4.104h-0.99l-1.463,4.104
	h0.904l0.285-0.846h1.514l0.264,0.846H28.293z M28.381,42.261h1.801v-8.625h-1.801V42.261z M32.15,43.403H31.35v2.858h-0.01
	l-1.631-2.858h-0.902v4.104h0.799v-2.926h0.012l1.674,2.926h0.859V43.403z M36.139,46.273c0-0.737-0.514-0.966-1.076-1.103
	l-0.998-0.246c-0.172-0.04-0.436-0.109-0.436-0.429c0-0.372,0.391-0.491,0.715-0.491c0.75,0,0.816,0.435,0.842,0.617h0.82
	c-0.006-0.503-0.342-1.326-1.6-1.326c-1.332,0-1.576,0.806-1.576,1.263c0,0.904,0.639,1.052,1.303,1.206l0.439,0.103
	c0.436,0.103,0.744,0.188,0.744,0.509c0,0.434-0.453,0.531-0.857,0.531c-0.75,0-0.865-0.434-0.871-0.663h-0.82
	c0,0.508,0.256,1.372,1.754,1.372C34.881,47.616,36.139,47.507,36.139,46.273z M36.898,40.519c0,0.889,0.072,1.333,0.193,1.742
	h1.992v-0.229c-0.385-0.143-0.385-0.456-0.385-1.717c0-1.609-0.383-1.874-1.092-2.187c0.854-0.288,1.334-1.104,1.334-2.054
	c0-0.745-0.422-2.439-2.717-2.439h-4.359v8.625h1.768v-3.376h1.861C36.826,38.885,36.898,39.341,36.898,40.519z M39.715,43.403
	h-2.92v4.104h0.857v-1.726h1.805v-0.726h-1.805v-0.926h2.063V43.403z M43.406,46.781h-2.275v-1.063h2v-0.726h-2v-0.863h2.178v-0.727
	h-3.018v4.104h3.115V46.781z M47.541,47.398c-0.182-0.068-0.182-0.217-0.182-0.817c0-0.766-0.184-0.892-0.52-1.04
	c0.404-0.137,0.635-0.526,0.635-0.978c0-0.354-0.201-1.161-1.293-1.161h-2.074v4.104h0.842v-1.606h0.885
	c0.633,0,0.67,0.218,0.67,0.777c0,0.423,0.033,0.635,0.09,0.829h0.947V47.398z M26.34,44.33l-0.527,1.623h1.047l-0.512-1.623H26.34z
	 M22.607,44.112h-1.068v1.098h1.004c0.447,0,0.664-0.155,0.664-0.561C23.207,44.432,23.109,44.112,22.607,44.112z"/>
</svg>
