<?xml version="1.0" encoding="utf-8"?>
<!-- Generator: Adobe Illustrator 16.0.0, SVG Export Plug-In . SVG Version: 6.00 Build 0)  -->
<!DOCTYPE svg PUBLIC "-//W3C//DTD SVG 1.1//EN" "http://www.w3.org/Graphics/SVG/1.1/DTD/svg11.dtd">
<svg version="1.1" id="Layer_1" xmlns="http://www.w3.org/2000/svg" xmlns:xlink="http://www.w3.org/1999/xlink" x="0px" y="0px"
	 width="64px" height="64px" viewBox="0 0 64 64" enable-background="new 0 0 64 64" xml:space="preserve">
<g>
	<path d="M58.786,13.698H5.214c-0.804,0-1.454,0.651-1.454,1.454v33.695c0,0.803,0.65,1.454,1.454,1.454h53.572
		c0.804,0,1.454-0.651,1.454-1.454V15.152C60.24,14.35,59.59,13.698,58.786,13.698z M16.398,36.43h-1.48l-1.213-4.855H13.68
		l-1.201,4.855h-1.518l-2.023-6.537h1.529l1.277,4.881h0.025l1.227-4.881h1.455l1.176,4.881h0.025l1.328-4.881h1.467L16.398,36.43z
		 M20.461,36.43h-1.436v-6.504h1.436V36.43z M20.461,28.83h-1.436v-1.438h1.436V28.83z M22.697,33.318v3.111h-1.441v-6.537h1.354
		v1.264h0.025c0.164-0.695,1.023-1.441,1.91-1.441c0.328,0,0.416,0.025,0.543,0.037v1.393c-0.203-0.025-0.418-0.063-0.619-0.063
		C23.482,31.082,22.697,31.877,22.697,33.318z M31.033,33.535h-4.805c0,1.023,0.557,1.934,1.758,1.934
		c0.834,0,1.34-0.367,1.594-1.088h1.365c-0.316,1.43-1.531,2.227-2.959,2.227c-2.049,0-3.199-1.43-3.199-3.439
		c0-1.859,1.213-3.453,3.16-3.453C30.01,29.715,31.273,31.574,31.033,33.535z M34.613,35.469c0.834,0,1.416-0.557,1.555-1.492h1.441
		c-0.266,1.695-1.314,2.631-2.996,2.631c-2.049,0-3.176-1.455-3.176-3.377c0-1.973,1.076-3.516,3.227-3.516
		c1.516,0,2.807,0.76,2.945,2.365h-1.441c-0.113-0.797-0.695-1.227-1.492-1.227c-0.746,0-1.797,0.391-1.797,2.377
		C32.879,34.318,33.361,35.469,34.613,35.469z M44.578,36.443c-0.217,0.074-0.67,0.164-0.912,0.164c-0.58,0-0.998-0.203-1.111-0.797
		c-0.57,0.557-1.492,0.797-2.264,0.797c-1.176,0-2.238-0.633-2.238-1.91c0-1.631,1.303-1.896,2.516-2.037
		c1.037-0.188,1.961-0.074,1.961-0.922c0-0.746-0.771-0.885-1.354-0.885c-0.809,0-1.379,0.328-1.441,1.037h-1.441
		c0.1-1.682,1.529-2.176,2.971-2.176c1.277,0,2.619,0.52,2.619,1.898v3.363c0,0.354,0.074,0.492,0.34,0.492
		c0.09,0,0.203,0,0.355-0.025V36.443z M46.5,33.318v3.111h-1.441v-6.537h1.352v1.264h0.025c0.166-0.695,1.025-1.441,1.91-1.441
		c0.33,0,0.418,0.025,0.543,0.037v1.393c-0.201-0.025-0.416-0.063-0.619-0.063C47.283,31.082,46.5,31.877,46.5,33.318z
		 M55.063,36.43h-1.365v-0.885h-0.025c-0.379,0.746-1.201,1.063-2.023,1.063c-2.061,0-3.061-1.531-3.061-3.49
		c0-2.365,1.404-3.402,2.834-3.402c0.822,0,1.732,0.305,2.174,1.025h0.025V27.4h1.441V36.43z"/>
	<path d="M39.494,34.635c0,0.645,0.822,0.834,1.328,0.834c0.631,0,1.617-0.328,1.617-1.238v-1.076
		c-0.441,0.291-1.137,0.279-1.77,0.393C40.051,33.648,39.494,33.875,39.494,34.635z"/>
	<path d="M51.863,30.854c-1.352,0-1.834,1.201-1.834,2.377c0,1.125,0.557,2.238,1.809,2.238c1.291,0,1.834-1.176,1.834-2.314
		C53.672,31.713,52.977,30.854,51.863,30.854z"/>
	<path d="M27.947,30.854c-0.998,0-1.682,0.758-1.719,1.732h3.363C29.541,31.676,28.922,30.854,27.947,30.854z"/>
</g>
</svg>
