<?xml version="1.0" encoding="utf-8"?>
<!-- Generator: Adobe Illustrator 16.0.0, SVG Export Plug-In . SVG Version: 6.00 Build 0)  -->
<!DOCTYPE svg PUBLIC "-//W3C//DTD SVG 1.1//EN" "http://www.w3.org/Graphics/SVG/1.1/DTD/svg11.dtd">
<svg version="1.1" id="Layer_1" xmlns="http://www.w3.org/2000/svg" xmlns:xlink="http://www.w3.org/1999/xlink" x="0px" y="0px"
	 width="64px" height="64px" viewBox="0 0 64 64" enable-background="new 0 0 64 64" xml:space="preserve">
<path fill="#010101" d="M24.822,32.149c0,1.063-0.756,1.925-1.688,1.925c-0.931,0-1.687-0.862-1.687-1.925
	c0-1.063,0.756-1.925,1.687-1.925C24.066,30.224,24.822,31.086,24.822,32.149z M46.479,32.363c-0.547,0.102-1.109,0.173-1.626,0.363
	c-0.39,0.143-0.457,0.555-0.344,0.938c0.109,0.368,0.408,0.506,0.651,0.51c0.866-0.006,1.658-0.926,1.518-1.634
	C46.664,32.468,46.535,32.352,46.479,32.363z M33.873,30.894c-0.425,0.848-0.424,1.743-0.09,2.613
	c0.25,0.648,1.014,0.851,1.553,0.407c0.279-0.23,0.533-0.571,0.639-0.911c0.159-0.514,0.212-1.616,0.189-1.62
	c0-0.29,0.014-0.581-0.007-0.869c-0.009-0.102-0.074-0.248-0.156-0.288C35.32,29.895,34.204,30.231,33.873,30.894z M39.569,28.201
	c0,0.984,0,1.909,0,2.829c0.755,0.229,1.604-0.001,2.012-0.535c0.352-0.459,0.412-1.206,0.091-1.679
	C41.156,28.058,40.375,28.157,39.569,28.201z M60.24,15.152v33.695c0,0.803-0.65,1.454-1.454,1.454H5.214
	c-0.804,0-1.454-0.651-1.454-1.454V15.152c0-0.803,0.65-1.454,1.454-1.454h53.572C59.59,13.698,60.24,14.349,60.24,15.152z
	 M52.299,27.229h0.143l0.031-0.497c0.01-0.175,0.019-0.367,0.021-0.511h0.004c0.032,0.137,0.077,0.285,0.132,0.45l0.189,0.551h0.113
	l0.204-0.561c0.059-0.16,0.105-0.306,0.146-0.439h0.004c0,0.142,0.011,0.338,0.019,0.499l0.027,0.509h0.148l-0.072-1.157h-0.191
	l-0.206,0.56c-0.052,0.146-0.092,0.273-0.123,0.39h-0.003c-0.031-0.12-0.069-0.247-0.117-0.39l-0.197-0.56h-0.191L52.299,27.229z
	 M51.348,26.198H51.7v1.03h0.151v-1.03h0.354v-0.127h-0.857V26.198z M19.881,30.435c0.272-1.043,0.545-2.134,0.824-3.207h-1.243
	c-0.49,1.976-0.978,3.983-1.484,6.025c-0.577-2.054-1.128-4.063-1.679-6.025h-1.418l-0.083,0.287
	c-0.308,1.163-0.636,2.368-0.952,3.528c-0.199,0.731-0.392,1.465-0.594,2.225c-0.486-1.93-0.967-3.865-1.432-5.756l-0.064-0.284
	h-1.338c0.658,2.546,1.301,5.401,1.952,7.915l1.556-0.002c0.471-1.686,0.968-3.831,1.42-5.522c0.058-0.216,0.098-0.436,0.149-0.666
	c0.459,1.669,0.903,3.297,1.354,4.924l0.355,1.266h1.532L19.881,30.435z M25.491,30.31c-0.285-0.619-0.841-0.951-1.504-1.082
	c-2.138-0.422-3.793,1.073-3.604,3.25c0.154,1.775,0.977,2.619,2.637,2.665c0.872-0.022,1.685-0.313,2.229-1.103
	C26.066,32.856,26.078,31.584,25.491,30.31z M29.414,29.153c-0.798-0.002-1.292,0.424-1.7,1.053v-0.918h-1.108v5.674h1.226
	c0-0.876-0.032-1.727,0.012-2.574c0.024-0.461,0.099-0.954,0.295-1.362c0.11-0.228,0.375-0.492,0.618-0.593
	c0,0,0.457-0.185,0.658-0.203C29.414,30.023,29.414,29.153,29.414,29.153z M31.459,27.158c-0.407,0-0.78,0-1.162,0
	c0,2.616,0,5.199,0,7.806c0.404,0,0.776,0,1.162,0C31.459,32.338,31.459,29.744,31.459,27.158z M37.321,27.158
	c-0.399,0-0.757,0-1.172,0c0,0.695,0,1.358,0,2.063c-0.27-0.018-0.479-0.027-0.688-0.047c-1.438-0.129-2.646,0.702-3.033,2.093
	c-0.214,0.764-0.219,1.531-0.013,2.298c0.331,1.229,1.329,1.847,2.545,1.469c0.477-0.148,0.881-0.53,1.282-0.783
	c0.024,0.832,0.024,0.832,1.078,0.701C37.321,32.33,37.321,29.737,37.321,27.158z M43.136,29.178c-0.084-0.989-0.72-1.749-1.856-1.9
	c-0.964-0.129-1.96-0.084-2.953-0.084c0,2.573,0,5.186,0,7.77c0.4,0,0.775,0,1.237,0c0-0.958,0-1.879,0-2.711
	c0.722-0.139,1.403-0.182,2.018-0.406C42.701,31.438,43.24,30.43,43.136,29.178z M46.774,34.097c0,0.333,0,0.584,0,0.863
	c0.375,0,0.729,0,1.093,0c0-1.493,0.022-2.952-0.013-4.41c-0.012-0.489-0.285-0.917-0.758-1.119
	c-1.179-0.503-2.336-0.284-3.514,0.108c0.089,0.346,0.161,0.635,0.214,0.839c0.656-0.093,1.265-0.234,1.876-0.251
	c0.665-0.019,0.984,0.364,1.021,1.032c0.014,0.26-0.051,0.377-0.347,0.392c-0.761,0.038-1.521,0.123-2.197,0.525
	c-0.782,0.464-1.074,1.297-0.748,2.123c0.282,0.719,1.009,1.047,1.889,0.897C45.913,34.987,46.358,34.632,46.774,34.097z
	 M53.582,29.311h-1.343l-0.1,0.308c-0.117,0.393-0.263,0.778-0.396,1.166c-0.285,0.824-0.571,1.648-0.879,2.537
	c-0.054-0.137-0.085-0.206-0.108-0.275l-1.266-3.735h-1.365c0.069,0.215,0.119,0.375,0.177,0.529
	c0.553,1.481,1.059,2.984,1.683,4.436c0.354,0.823,0.076,1.441-0.346,2.071c-0.294,0.439-0.74,0.618-1.271,0.558
	c-0.146-0.017-0.292-0.038-0.478-0.062c-0.044,0.356-0.084,0.68-0.123,1c1.473,0.287,2.372-0.133,3.04-1.389
	c0.071-0.134,0.146-0.269,0.199-0.41C51.854,33.834,52.698,31.622,53.582,29.311z"/>
</svg>
