<?xml version="1.0" encoding="utf-8"?>
<!-- Generator: Adobe Illustrator 16.0.0, SVG Export Plug-In . SVG Version: 6.00 Build 0)  -->
<!DOCTYPE svg PUBLIC "-//W3C//DTD SVG 1.1//EN" "http://www.w3.org/Graphics/SVG/1.1/DTD/svg11.dtd">
<svg version="1.1" id="Layer_1" xmlns="http://www.w3.org/2000/svg" xmlns:xlink="http://www.w3.org/1999/xlink" x="0px" y="0px"
	 width="64px" height="64px" viewBox="0 0 64 64" enable-background="new 0 0 64 64" xml:space="preserve">
<path fill-rule="evenodd" clip-rule="evenodd" d="M17.832,26.023c0.273,0,0.537,0,0.817,0c0,0.969,0,1.928,0,2.908
	c-0.466,0-0.904,0-1.376,0C17.87,28.008,17.789,27.015,17.832,26.023z M22.112,26.098c-0.193-0.283-0.554-0.292-0.771-0.021
	c-0.25,0.313-0.323,0.667-0.343,1.049c0.449,0,0.879,0,1.348,0C22.354,26.761,22.328,26.413,22.112,26.098z M10.028,33.605
	c-0.008,1.063-0.006,2.129-0.307,3.168c-0.149,0.517-0.396,1.015-0.599,1.521c0.755,0,1.559,0,2.37,0c0-1.753,0-3.478,0-5.198
	c-0.498,0-0.974,0-1.465,0C10.028,33.276,10.03,33.441,10.028,33.605z M27.579,35.578c-0.069,0.015-0.165,0.104-0.165,0.159
	c-0.012,0.831-0.008,1.662-0.008,2.505c0.938,0.223,1.716-0.138,1.895-0.896c0.066-0.281,0.064-0.59,0.006-0.873
	C29.145,35.692,28.518,35.378,27.579,35.578z M11.401,26.614c0-0.882,0-1.738,0-2.607c-0.971-0.121-1.388,0.081-1.704,0.808
	c-0.017,0.04-0.038,0.08-0.051,0.122c-0.157,0.528-0.036,1.011,0.389,1.428C10.406,26.729,10.914,26.608,11.401,26.614z
	 M17.486,33.306c-0.143-0.242-0.354-0.429-0.71-0.446c-0.364-0.017-0.581,0.17-0.744,0.4c-0.383,0.539-0.495,1.138-0.555,1.776
	c0.81,0,1.579,0,2.375,0C17.855,34.431,17.803,33.849,17.486,33.306z M60.24,15.152v33.695c0,0.803-0.65,1.454-1.454,1.454H5.214
	c-0.804,0-1.454-0.651-1.454-1.454V15.152c0-0.803,0.65-1.454,1.454-1.454h53.572C59.59,13.698,60.24,14.349,60.24,15.152z
	 M27.205,28.88c0.397,0.528,1.088,0.776,1.797,0.609c0.501-0.117,0.557-0.17,0.459-0.6c-1.062,0.354-1.793,0.034-1.985-0.89
	c-0.101-0.479-0.064-0.961,0.11-1.428c0.236-0.639,0.705-0.828,1.485-0.617c0.015,0.004,0.032-0.003,0.06-0.007
	c0.078-0.097,0.158-0.198,0.245-0.308c-0.644-0.423-1.526-0.322-2.007,0.212c-0.37,0.412-0.516,0.889-0.563,1.39
	C26.754,27.817,26.825,28.375,27.205,28.88z M10.207,27.163c-0.502,0.754-1.001,1.506-1.524,2.294c0.213,0,0.377-0.011,0.537,0.003
	c0.212,0.019,0.321-0.05,0.419-0.207c0.374-0.607,0.771-1.205,1.159-1.807c0.179-0.276,0.201-0.284,0.623-0.203
	c0,0.728,0,1.462,0,2.195c0.255,0,0.476,0,0.716,0c0-0.126,0-0.232,0-0.34c0-1.786,0-3.573,0-5.36c0-0.297-0.001-0.296-0.371-0.297
	c-0.341,0-0.68,0.001-1.02,0c-0.48-0.002-0.878,0.148-1.205,0.437C8.418,24.872,8.713,26.76,10.207,27.163z M13.507,38.303
	c-0.289,0-0.556,0-0.841,0c0-2.028,0-4.037,0-6.062c-1.243,0-2.447,0-3.621,0c-0.05,1.03-0.074,2.042-0.156,3.051
	c-0.073,0.896-0.271,1.776-0.667,2.622c-0.131,0.279-0.288,0.462-0.688,0.396c-0.021-0.004-0.047,0.013-0.073,0.021
	c0,0.744,0,1.485,0,2.223c0.365,0,0.709,0,1.081,0c0-0.501,0-0.985,0-1.467c1.313,0,2.6,0,3.915,0c0,0.499,0,0.982,0,1.472
	c0.366,0,0.702,0,1.05,0C13.507,39.806,13.507,39.064,13.507,38.303z M13.909,27.701c0.4,0,0.77,0,1.167,0c0,0.59,0,1.167,0,1.752
	c0.225,0,0.42,0,0.629,0c0-1.309,0-2.604,0-3.905c-0.214,0-0.409,0-0.633,0c0,0.532,0,1.053,0,1.579c-0.402,0-0.777,0-1.182,0
	c0-0.537,0-1.058,0-1.584c-0.219,0-0.409,0-0.618,0c0,1.317,0,2.611,0,3.908c0.216,0,0.411,0,0.637,0
	C13.909,28.859,13.909,28.283,13.909,27.701z M18.987,38.677c-0.073-0.179-0.147-0.363-0.213-0.522
	c-0.343,0.104-0.651,0.226-0.978,0.293c-1.059,0.216-1.751-0.076-2.053-0.843c-0.233-0.59-0.224-1.199-0.234-1.842
	c1.16,0,2.285,0,3.456,0c-0.048-0.536-0.053-1.056-0.15-1.563c-0.123-0.633-0.367-1.241-0.872-1.751
	c-0.447-0.45-0.985-0.581-1.656-0.399c-0.697,0.189-1.122,0.627-1.408,1.146c-0.838,1.524-0.91,3.091-0.268,4.673
	c0.193,0.477,0.52,0.894,1.064,1.161C16.588,39.479,18.063,39.324,18.987,38.677z M19.754,28.95c-0.16-0.006-0.296-0.012-0.46-0.018
	c0-1.137,0-2.259,0-3.39c-0.687,0-1.346,0-2.043,0c0,0.254,0.009,0.482-0.001,0.711c-0.034,0.796-0.063,1.593-0.395,2.355
	c-0.082,0.188-0.143,0.389-0.46,0.347c0,0.424,0,0.828,0,1.23c0.2,0,0.379,0,0.589,0c0-0.275,0-0.537,0-0.799
	c0.748,0,1.464,0,2.213,0c0,0.277,0,0.539,0,0.795c0.21,0,0.387,0,0.557,0C19.754,29.759,19.754,29.354,19.754,28.95z M20.27,27.82
	c0.045,0.359,0.144,0.724,0.297,1.062c0.224,0.497,0.736,0.751,1.33,0.688c0.287-0.03,0.574-0.111,0.844-0.205
	c0.301-0.105,0.309-0.2,0.101-0.422c-0.183,0.053-0.359,0.117-0.543,0.154c-0.513,0.104-0.879-0.01-1.074-0.333
	c-0.229-0.378-0.218-0.784-0.204-1.209c0.658,0,1.29,0,1.935,0c0.042-0.636-0.036-1.232-0.439-1.774
	c-0.354-0.476-0.967-0.552-1.454-0.161c-0.183,0.146-0.337,0.333-0.445,0.523C20.313,26.673,20.198,27.242,20.27,27.82z
	 M24.623,32.453c0-0.029,0.014-0.066-0.003-0.085c-0.042-0.049-0.095-0.126-0.147-0.128c-0.319-0.012-0.64-0.007-0.992-0.007
	c0,0.948,0,1.884,0,2.826c-0.694,0-1.354,0-2.07,0c0-0.95,0-1.879,0-2.821c-0.388,0-0.74,0-1.104,0c0,2.306,0,4.6,0,6.901
	c0.375,0,0.734,0,1.118,0c0-0.099,0-0.185,0-0.27c0-0.804-0.001-1.608,0-2.412c0-0.444,0-0.443,0.53-0.443c0.502,0,1.004,0,1.534,0
	c0,1.06,0,2.09,0,3.126c0.389,0,0.749,0,1.122,0c0.005-0.076,0.013-0.14,0.013-0.203C24.623,36.775,24.623,34.614,24.623,32.453z
	 M25.92,29.361c0.182,0.022,0.369,0.008,0.594,0.008c-0.448-0.683-0.866-1.326-1.294-1.967c-0.081-0.12-0.087-0.207,0.017-0.326
	c0.386-0.443,0.755-0.896,1.13-1.346c0.046-0.056,0.086-0.113,0.15-0.197c-0.121,0-0.191,0.008-0.259-0.001
	c-0.273-0.037-0.44,0.052-0.59,0.248c-0.329,0.432-0.694,0.844-1.046,1.263c-0.04,0.047-0.09,0.088-0.186,0.181
	c0-0.601,0-1.135,0-1.68c-0.217,0-0.405,0-0.611,0c0,1.286,0,2.552,0,3.815c0.21,0,0.399,0,0.62,0c0-0.453-0.01-0.896,0.006-1.339
	c0.006-0.152,0.076-0.304,0.116-0.456c0.119,0.073,0.17,0.138,0.215,0.206c0.319,0.479,0.634,0.958,0.956,1.434
	C25.78,29.268,25.852,29.353,25.92,29.361z M30.793,36.304c-0.187-0.929-0.893-1.494-2.02-1.585
	c-0.444-0.035-0.896-0.006-1.375-0.006c0-0.82,0-1.649,0-2.473c-0.34,0-0.648,0-0.964,0c0,2.275,0,4.535,0,6.873
	c0.713,0,1.402,0.041,2.082-0.01c1.019-0.075,1.796-0.481,2.16-1.312C30.889,37.309,30.893,36.807,30.793,36.304z M35.963,32.232
	c-1.382,0-2.746,0-4.137,0c0,2.313,0,4.611,0,6.908c0.347,0,0.674,0,1.023,0c0-2.071,0-4.128,0-6.212c1.053,0,2.084,0,3.113,0
	C35.963,32.681,35.963,32.461,35.963,32.232z M40.978,32.223c-0.361,0-0.708,0.01-1.054-0.004c-0.18-0.007-0.261,0.044-0.323,0.181
	c-0.435,0.953-0.878,1.902-1.319,2.854c-0.193,0.417-0.392,0.832-0.587,1.249c-0.018-0.003-0.035-0.006-0.053-0.009
	c0-1.415,0-2.831,0-4.258c-0.387,0-0.748,0-1.118,0c0,2.311,0,4.609,0,6.911c0.37,0,0.717,0,1.097,0
	c0.695-1.507,1.393-3.017,2.097-4.543c0,1.519,0,3.029,0,4.538c0.438,0,0.844,0,1.261,0C40.978,36.834,40.978,34.54,40.978,32.223z
	 M56.539,38.12c0.001-1.681,0.001-3.361-0.001-5.042c0-0.107-0.002-0.217-0.021-0.322c-0.067-0.375-0.381-0.6-0.839-0.606
	c-0.14-0.002-0.28,0.012-0.418-0.003c-0.269-0.028-0.34,0.061-0.338,0.277c0.013,1.048,0.009,2.097,0.004,3.146
	c-0.002,0.549-0.539,1.113-1.182,1.255c-2,0.441-3.998,0.886-5.999,1.321c-0.224,0.049-0.462,0.074-0.692,0.073
	c-0.099,0-0.237-0.077-0.281-0.15c-0.029-0.049,0.059-0.169,0.129-0.229c0.09-0.074,0.208-0.132,0.326-0.174
	c0.368-0.13,0.741-0.25,1.112-0.373c1.485-0.493,2.972-0.982,4.456-1.479c0.669-0.224,1.03-0.672,1.041-1.236
	c0.034-1.823,0.016-3.648,0.009-5.473c-0.001-0.289-0.15-0.53-0.494-0.655c-0.396-0.142-0.745-0.029-1.089,0.135
	c-2.101,1.003-4.203,2.004-6.305,3.005c-0.619,0.296-0.964,0.722-0.961,1.33c0.007,1.724,0.002,3.447,0.004,5.171
	c0,0.085,0.009,0.173,0.036,0.254c0.207,0.586,0.744,0.922,1.486,0.923c1.481,0.003,2.963,0.001,4.445,0.001
	c1.473,0,2.945,0.002,4.419-0.001c0.321,0,0.616-0.067,0.856-0.263C56.553,38.755,56.539,38.436,56.539,38.12z M50.938,32.967
	c0.562,0.001,1.133-0.529,1.061-0.985c-0.047-0.296-0.333-0.499-0.661-0.457c-0.496,0.063-0.82,0.306-0.97,0.692
	C50.206,32.636,50.468,32.966,50.938,32.967z"/>
</svg>
